<?xml version="1.0" encoding="UTF-8" standalone="no"?>
<!DOCTYPE svg PUBLIC "-//W3C//DTD SVG 1.1//EN"
 "http://www.w3.org/Graphics/SVG/1.1/DTD/svg11.dtd">
<!-- Generated by graphviz version 2.38.0 (20140413.2041)
 -->
<!-- Title: %3 Pages: 1 -->
<svg width="2890pt" height="188pt"
 viewBox="0.00 0.00 2889.63 188.00" xmlns="http://www.w3.org/2000/svg" xmlns:xlink="http://www.w3.org/1999/xlink">
<g id="graph0" class="graph" transform="scale(1 1) rotate(0) translate(4 184)">
<title>%3</title>
<polygon fill="white" stroke="none" points="-4,4 -4,-184 2885.63,-184 2885.63,4 -4,4"/>
<!-- MainThread -->
<g id="node1" class="node"><title>MainThread</title>
<ellipse fill="none" stroke="black" cx="1250.89" cy="-162" rx="54.6905" ry="18"/>
<text text-anchor="middle" x="1250.89" y="-158.3" font-family="Times,serif" font-size="14.00">MainThread</text>
</g>
<!-- gRPC&#45;SubscribeMoot0 -->
<g id="node2" class="node"><title>gRPC&#45;SubscribeMoot0</title>
<ellipse fill="none" stroke="black" cx="123.89" cy="-90" rx="92.8835" ry="18"/>
<text text-anchor="middle" x="123.89" y="-86.3" font-family="Times,serif" font-size="14.00">gRPC&#45;SubscribeMoot0</text>
</g>
<!-- MainThread&#45;&gt;gRPC&#45;SubscribeMoot0 -->
<g id="edge1" class="edge"><title>MainThread&#45;&gt;gRPC&#45;SubscribeMoot0</title>
<path fill="none" stroke="black" d="M1196.27,-160.355C1042.87,-158.073 595.234,-148.196 225.89,-108 217.138,-107.047 207.995,-105.836 198.933,-104.5"/>
<polygon fill="black" stroke="black" points="199.175,-100.996 188.761,-102.945 198.118,-107.916 199.175,-100.996"/>
</g>
<!-- gRPC&#45;SubscribeMoot1 -->
<g id="node3" class="node"><title>gRPC&#45;SubscribeMoot1</title>
<ellipse fill="none" stroke="black" cx="327.89" cy="-90" rx="92.8835" ry="18"/>
<text text-anchor="middle" x="327.89" y="-86.3" font-family="Times,serif" font-size="14.00">gRPC&#45;SubscribeMoot1</text>
</g>
<!-- MainThread&#45;&gt;gRPC&#45;SubscribeMoot1 -->
<g id="edge2" class="edge"><title>MainThread&#45;&gt;gRPC&#45;SubscribeMoot1</title>
<path fill="none" stroke="black" d="M1196.44,-159.381C1064.55,-155.045 717.575,-141.174 429.89,-108 421.209,-106.999 412.14,-105.764 403.147,-104.42"/>
<polygon fill="black" stroke="black" points="403.465,-100.928 393.049,-102.863 402.399,-107.846 403.465,-100.928"/>
</g>
<!-- gRPC&#45;PluginGetMetadata0 -->
<g id="node4" class="node"><title>gRPC&#45;PluginGetMetadata0</title>
<ellipse fill="none" stroke="black" cx="546.89" cy="-90" rx="107.781" ry="18"/>
<text text-anchor="middle" x="546.89" y="-86.3" font-family="Times,serif" font-size="14.00">gRPC&#45;PluginGetMetadata0</text>
</g>
<!-- MainThread&#45;&gt;gRPC&#45;PluginGetMetadata0 -->
<g id="edge3" class="edge"><title>MainThread&#45;&gt;gRPC&#45;PluginGetMetadata0</title>
<path fill="none" stroke="black" d="M1198.17,-157.204C1095.27,-149.582 860.53,-131.146 663.89,-108 654.106,-106.848 643.877,-105.531 633.715,-104.15"/>
<polygon fill="black" stroke="black" points="633.978,-100.653 623.593,-102.752 633.02,-107.588 633.978,-100.653"/>
</g>
<!-- gRPC&#45;PluginGetMetadata1 -->
<g id="node5" class="node"><title>gRPC&#45;PluginGetMetadata1</title>
<ellipse fill="none" stroke="black" cx="780.89" cy="-90" rx="107.781" ry="18"/>
<text text-anchor="middle" x="780.89" y="-86.3" font-family="Times,serif" font-size="14.00">gRPC&#45;PluginGetMetadata1</text>
</g>
<!-- MainThread&#45;&gt;gRPC&#45;PluginGetMetadata1 -->
<g id="edge4" class="edge"><title>MainThread&#45;&gt;gRPC&#45;PluginGetMetadata1</title>
<path fill="none" stroke="black" d="M1201.92,-153.707C1123.05,-141.959 966.774,-118.685 868.393,-104.032"/>
<polygon fill="black" stroke="black" points="868.874,-100.565 858.467,-102.554 867.843,-107.489 868.874,-100.565"/>
</g>
<!-- ConsumerHelper&#45;CallbackRequestsWorker -->
<g id="node6" class="node"><title>ConsumerHelper&#45;CallbackRequestsWorker</title>
<ellipse fill="none" stroke="black" cx="1070.89" cy="-90" rx="164.371" ry="18"/>
<text text-anchor="middle" x="1070.89" y="-86.3" font-family="Times,serif" font-size="14.00">ConsumerHelper&#45;CallbackRequestsWorker</text>
</g>
<!-- MainThread&#45;&gt;ConsumerHelper&#45;CallbackRequestsWorker -->
<g id="edge5" class="edge"><title>MainThread&#45;&gt;ConsumerHelper&#45;CallbackRequestsWorker</title>
<path fill="none" stroke="black" d="M1217.03,-147.834C1190.48,-137.506 1153.06,-122.955 1122.74,-111.162"/>
<polygon fill="black" stroke="black" points="1123.75,-107.801 1113.16,-107.439 1121.21,-114.325 1123.75,-107.801"/>
</g>
<!-- ConsumerHelper&#45;ConsumeBidirectionalStream -->
<g id="node7" class="node"><title>ConsumerHelper&#45;ConsumeBidirectionalStream</title>
<ellipse fill="none" stroke="black" cx="1431.89" cy="-90" rx="178.969" ry="18"/>
<text text-anchor="middle" x="1431.89" y="-86.3" font-family="Times,serif" font-size="14.00">ConsumerHelper&#45;ConsumeBidirectionalStream</text>
</g>
<!-- MainThread&#45;&gt;ConsumerHelper&#45;ConsumeBidirectionalStream -->
<g id="edge6" class="edge"><title>MainThread&#45;&gt;ConsumerHelper&#45;ConsumeBidirectionalStream</title>
<path fill="none" stroke="black" d="M1284.94,-147.834C1311.55,-137.541 1349,-123.055 1379.44,-111.284"/>
<polygon fill="black" stroke="black" points="1380.99,-114.438 1389.05,-107.567 1378.46,-107.91 1380.99,-114.438"/>
</g>
<!-- LeaseMaintenance -->
<g id="node8" class="node"><title>LeaseMaintenance</title>
<ellipse fill="none" stroke="black" cx="1705.89" cy="-90" rx="77.1866" ry="18"/>
<text text-anchor="middle" x="1705.89" y="-86.3" font-family="Times,serif" font-size="14.00">LeaseMaintenance</text>
</g>
<!-- MainThread&#45;&gt;LeaseMaintenance -->
<g id="edge7" class="edge"><title>MainThread&#45;&gt;LeaseMaintenance</title>
<path fill="none" stroke="black" d="M1300.86,-154.67C1371.92,-145.475 1506.17,-127.393 1619.89,-108 1626.44,-106.883 1633.26,-105.652 1640.07,-104.379"/>
<polygon fill="black" stroke="black" points="1640.82,-107.798 1649.99,-102.491 1639.52,-100.921 1640.82,-107.798"/>
</g>
<!-- gRPC&#45;PluginGetMetadata6 -->
<g id="node21" class="node"><title>gRPC&#45;PluginGetMetadata6</title>
<ellipse fill="none" stroke="black" cx="1908.89" cy="-90" rx="107.781" ry="18"/>
<text text-anchor="middle" x="1908.89" y="-86.3" font-family="Times,serif" font-size="14.00">gRPC&#45;PluginGetMetadata6</text>
</g>
<!-- MainThread&#45;&gt;gRPC&#45;PluginGetMetadata6 -->
<g id="edge8" class="edge"><title>MainThread&#45;&gt;gRPC&#45;PluginGetMetadata6</title>
<path fill="none" stroke="black" d="M1303.2,-156.692C1399.87,-148.549 1612.95,-129.752 1791.89,-108 1801.67,-106.811 1811.9,-105.47 1822.06,-104.076"/>
<polygon fill="black" stroke="black" points="1822.76,-107.513 1832.18,-102.669 1821.79,-100.58 1822.76,-107.513"/>
</g>
<!-- gRPC&#45;PluginGetMetadata7 -->
<g id="node22" class="node"><title>gRPC&#45;PluginGetMetadata7</title>
<ellipse fill="none" stroke="black" cx="2142.89" cy="-90" rx="107.781" ry="18"/>
<text text-anchor="middle" x="2142.89" y="-86.3" font-family="Times,serif" font-size="14.00">gRPC&#45;PluginGetMetadata7</text>
</g>
<!-- MainThread&#45;&gt;gRPC&#45;PluginGetMetadata7 -->
<g id="edge9" class="edge"><title>MainThread&#45;&gt;gRPC&#45;PluginGetMetadata7</title>
<path fill="none" stroke="black" d="M1305.04,-158.715C1431.5,-153.07 1756.01,-136.793 2025.89,-108 2036.02,-106.919 2046.62,-105.618 2057.13,-104.224"/>
<polygon fill="black" stroke="black" points="2057.72,-107.676 2067.16,-102.861 2056.78,-100.739 2057.72,-107.676"/>
</g>
<!-- gRPC&#45;PluginGetMetadata8 -->
<g id="node23" class="node"><title>gRPC&#45;PluginGetMetadata8</title>
<ellipse fill="none" stroke="black" cx="2376.89" cy="-90" rx="107.781" ry="18"/>
<text text-anchor="middle" x="2376.89" y="-86.3" font-family="Times,serif" font-size="14.00">gRPC&#45;PluginGetMetadata8</text>
</g>
<!-- MainThread&#45;&gt;gRPC&#45;PluginGetMetadata8 -->
<g id="edge10" class="edge"><title>MainThread&#45;&gt;gRPC&#45;PluginGetMetadata8</title>
<path fill="none" stroke="black" d="M1305.16,-159.901C1456.57,-156.458 1896.36,-143.882 2259.89,-108 2270.18,-106.984 2280.96,-105.709 2291.63,-104.317"/>
<polygon fill="black" stroke="black" points="2292.36,-107.75 2301.8,-102.951 2291.43,-100.813 2292.36,-107.75"/>
</g>
<!-- gRPC&#45;PluginGetMetadata2 -->
<g id="node9" class="node"><title>gRPC&#45;PluginGetMetadata2</title>
<ellipse fill="none" stroke="black" cx="107.89" cy="-18" rx="107.781" ry="18"/>
<text text-anchor="middle" x="107.89" y="-14.3" font-family="Times,serif" font-size="14.00">gRPC&#45;PluginGetMetadata2</text>
</g>
<!-- ConsumerHelper&#45;ConsumeBidirectionalStream&#45;&gt;gRPC&#45;PluginGetMetadata2 -->
<g id="edge11" class="edge"><title>ConsumerHelper&#45;ConsumeBidirectionalStream&#45;&gt;gRPC&#45;PluginGetMetadata2</title>
<path fill="none" stroke="black" d="M1309.09,-76.9188C1287.39,-75.0622 1264.99,-73.3255 1243.89,-72 791.611,-43.5834 676.236,-76.6409 224.89,-36 214.326,-35.0487 203.258,-33.7887 192.321,-32.3833"/>
<polygon fill="black" stroke="black" points="192.706,-28.9038 182.333,-31.0566 191.785,-35.8429 192.706,-28.9038"/>
</g>
<!-- gRPC&#45;StopChannelSpin0 -->
<g id="node10" class="node"><title>gRPC&#45;StopChannelSpin0</title>
<ellipse fill="none" stroke="black" cx="334.89" cy="-18" rx="100.983" ry="18"/>
<text text-anchor="middle" x="334.89" y="-14.3" font-family="Times,serif" font-size="14.00">gRPC&#45;StopChannelSpin0</text>
</g>
<!-- ConsumerHelper&#45;ConsumeBidirectionalStream&#45;&gt;gRPC&#45;StopChannelSpin0 -->
<g id="edge12" class="edge"><title>ConsumerHelper&#45;ConsumeBidirectionalStream&#45;&gt;gRPC&#45;StopChannelSpin0</title>
<path fill="none" stroke="black" d="M1308.07,-77.0026C1286.68,-75.1592 1264.65,-73.4052 1243.89,-72 888.787,-47.9673 798.033,-71.4767 443.89,-36 434.414,-35.0507 424.506,-33.8288 414.693,-32.4759"/>
<polygon fill="black" stroke="black" points="414.916,-28.9724 404.522,-31.0247 413.927,-35.9022 414.916,-28.9724"/>
</g>
<!-- gRPC&#45;ConsumeRequestIterator0 -->
<g id="node11" class="node"><title>gRPC&#45;ConsumeRequestIterator0</title>
<ellipse fill="none" stroke="black" cx="579.89" cy="-18" rx="126.978" ry="18"/>
<text text-anchor="middle" x="579.89" y="-14.3" font-family="Times,serif" font-size="14.00">gRPC&#45;ConsumeRequestIterator0</text>
</g>
<!-- ConsumerHelper&#45;ConsumeBidirectionalStream&#45;&gt;gRPC&#45;ConsumeRequestIterator0 -->
<g id="edge13" class="edge"><title>ConsumerHelper&#45;ConsumeBidirectionalStream&#45;&gt;gRPC&#45;ConsumeRequestIterator0</title>
<path fill="none" stroke="black" d="M1305.77,-77.2086C1285.1,-75.3873 1263.9,-73.5867 1243.89,-72 1009.41,-53.4075 950.014,-58.5961 715.89,-36 704.048,-34.857 691.644,-33.5121 679.348,-32.0876"/>
<polygon fill="black" stroke="black" points="679.402,-28.5697 669.061,-30.875 678.582,-35.5216 679.402,-28.5697"/>
</g>
<!-- gRPC&#45;PluginGetMetadata3 -->
<g id="node12" class="node"><title>gRPC&#45;PluginGetMetadata3</title>
<ellipse fill="none" stroke="black" cx="832.89" cy="-18" rx="107.781" ry="18"/>
<text text-anchor="middle" x="832.89" y="-14.3" font-family="Times,serif" font-size="14.00">gRPC&#45;PluginGetMetadata3</text>
</g>
<!-- ConsumerHelper&#45;ConsumeBidirectionalStream&#45;&gt;gRPC&#45;PluginGetMetadata3 -->
<g id="edge14" class="edge"><title>ConsumerHelper&#45;ConsumeBidirectionalStream&#45;&gt;gRPC&#45;PluginGetMetadata3</title>
<path fill="none" stroke="black" d="M1309.92,-76.7725C1212.4,-66.71 1072.23,-51.6092 949.89,-36 940.27,-34.7725 930.215,-33.419 920.214,-32.0279"/>
<polygon fill="black" stroke="black" points="920.638,-28.5532 910.249,-30.6274 919.664,-35.4851 920.638,-28.5532"/>
</g>
<!-- gRPC&#45;StopChannelSpin1 -->
<g id="node13" class="node"><title>gRPC&#45;StopChannelSpin1</title>
<ellipse fill="none" stroke="black" cx="1059.89" cy="-18" rx="100.983" ry="18"/>
<text text-anchor="middle" x="1059.89" y="-14.3" font-family="Times,serif" font-size="14.00">gRPC&#45;StopChannelSpin1</text>
</g>
<!-- ConsumerHelper&#45;ConsumeBidirectionalStream&#45;&gt;gRPC&#45;StopChannelSpin1 -->
<g id="edge15" class="edge"><title>ConsumerHelper&#45;ConsumeBidirectionalStream&#45;&gt;gRPC&#45;StopChannelSpin1</title>
<path fill="none" stroke="black" d="M1351.63,-73.8972C1287.87,-61.8989 1199.28,-45.229 1136.49,-33.4143"/>
<polygon fill="black" stroke="black" points="1137.12,-29.9709 1126.64,-31.5612 1135.82,-36.8502 1137.12,-29.9709"/>
</g>
<!-- gRPC&#45;ConsumeRequestIterator1 -->
<g id="node14" class="node"><title>gRPC&#45;ConsumeRequestIterator1</title>
<ellipse fill="none" stroke="black" cx="1304.89" cy="-18" rx="126.978" ry="18"/>
<text text-anchor="middle" x="1304.89" y="-14.3" font-family="Times,serif" font-size="14.00">gRPC&#45;ConsumeRequestIterator1</text>
</g>
<!-- ConsumerHelper&#45;ConsumeBidirectionalStream&#45;&gt;gRPC&#45;ConsumeRequestIterator1 -->
<g id="edge16" class="edge"><title>ConsumerHelper&#45;ConsumeBidirectionalStream&#45;&gt;gRPC&#45;ConsumeRequestIterator1</title>
<path fill="none" stroke="black" d="M1401.47,-72.2333C1384.19,-62.7092 1362.38,-50.6862 1343.86,-40.4771"/>
<polygon fill="black" stroke="black" points="1345.51,-37.3919 1335.06,-35.6299 1342.13,-43.5223 1345.51,-37.3919"/>
</g>
<!-- gRPC&#45;PluginGetMetadata4 -->
<g id="node15" class="node"><title>gRPC&#45;PluginGetMetadata4</title>
<ellipse fill="none" stroke="black" cx="1557.89" cy="-18" rx="107.781" ry="18"/>
<text text-anchor="middle" x="1557.89" y="-14.3" font-family="Times,serif" font-size="14.00">gRPC&#45;PluginGetMetadata4</text>
</g>
<!-- ConsumerHelper&#45;ConsumeBidirectionalStream&#45;&gt;gRPC&#45;PluginGetMetadata4 -->
<g id="edge17" class="edge"><title>ConsumerHelper&#45;ConsumeBidirectionalStream&#45;&gt;gRPC&#45;PluginGetMetadata4</title>
<path fill="none" stroke="black" d="M1462.07,-72.2333C1479.34,-62.6397 1501.17,-50.5105 1519.63,-40.2538"/>
<polygon fill="black" stroke="black" points="1521.35,-43.3044 1528.39,-35.3884 1517.95,-37.1853 1521.35,-43.3044"/>
</g>
<!-- gRPC&#45;StopChannelSpin2 -->
<g id="node16" class="node"><title>gRPC&#45;StopChannelSpin2</title>
<ellipse fill="none" stroke="black" cx="1784.89" cy="-18" rx="100.983" ry="18"/>
<text text-anchor="middle" x="1784.89" y="-14.3" font-family="Times,serif" font-size="14.00">gRPC&#45;StopChannelSpin2</text>
</g>
<!-- ConsumerHelper&#45;ConsumeBidirectionalStream&#45;&gt;gRPC&#45;StopChannelSpin2 -->
<g id="edge18" class="edge"><title>ConsumerHelper&#45;ConsumeBidirectionalStream&#45;&gt;gRPC&#45;StopChannelSpin2</title>
<path fill="none" stroke="black" d="M1508.92,-73.7247C1568.66,-61.879 1650.96,-45.5575 1710.12,-33.8267"/>
<polygon fill="black" stroke="black" points="1711.02,-37.217 1720.15,-31.8387 1709.66,-30.3507 1711.02,-37.217"/>
</g>
<!-- gRPC&#45;ConsumeRequestIterator2 -->
<g id="node17" class="node"><title>gRPC&#45;ConsumeRequestIterator2</title>
<ellipse fill="none" stroke="black" cx="2029.89" cy="-18" rx="126.978" ry="18"/>
<text text-anchor="middle" x="2029.89" y="-14.3" font-family="Times,serif" font-size="14.00">gRPC&#45;ConsumeRequestIterator2</text>
</g>
<!-- ConsumerHelper&#45;ConsumeBidirectionalStream&#45;&gt;gRPC&#45;ConsumeRequestIterator2 -->
<g id="edge19" class="edge"><title>ConsumerHelper&#45;ConsumeBidirectionalStream&#45;&gt;gRPC&#45;ConsumeRequestIterator2</title>
<path fill="none" stroke="black" d="M1547.05,-76.1833C1640.75,-65.6663 1776.41,-50.2412 1894.89,-36 1905.96,-34.67 1917.53,-33.2528 1929.04,-31.8258"/>
<polygon fill="black" stroke="black" points="1929.64,-35.2782 1939.14,-30.5711 1928.78,-28.3317 1929.64,-35.2782"/>
</g>
<!-- gRPC&#45;PluginGetMetadata5 -->
<g id="node18" class="node"><title>gRPC&#45;PluginGetMetadata5</title>
<ellipse fill="none" stroke="black" cx="2282.89" cy="-18" rx="107.781" ry="18"/>
<text text-anchor="middle" x="2282.89" y="-14.3" font-family="Times,serif" font-size="14.00">gRPC&#45;PluginGetMetadata5</text>
</g>
<!-- ConsumerHelper&#45;ConsumeBidirectionalStream&#45;&gt;gRPC&#45;PluginGetMetadata5 -->
<g id="edge20" class="edge"><title>ConsumerHelper&#45;ConsumeBidirectionalStream&#45;&gt;gRPC&#45;PluginGetMetadata5</title>
<path fill="none" stroke="black" d="M1557.76,-77.1919C1578.51,-75.3678 1599.8,-73.5707 1619.89,-72 1862.34,-53.0478 1924.04,-61.5039 2165.89,-36 2176.02,-34.9315 2186.62,-33.6383 2197.13,-32.2476"/>
<polygon fill="black" stroke="black" points="2197.72,-35.7 2207.16,-30.8886 2196.78,-28.7634 2197.72,-35.7"/>
</g>
<!-- gRPC&#45;StopChannelSpin3 -->
<g id="node19" class="node"><title>gRPC&#45;StopChannelSpin3</title>
<ellipse fill="none" stroke="black" cx="2509.89" cy="-18" rx="100.983" ry="18"/>
<text text-anchor="middle" x="2509.89" y="-14.3" font-family="Times,serif" font-size="14.00">gRPC&#45;StopChannelSpin3</text>
</g>
<!-- ConsumerHelper&#45;ConsumeBidirectionalStream&#45;&gt;gRPC&#45;StopChannelSpin3 -->
<g id="edge21" class="edge"><title>ConsumerHelper&#45;ConsumeBidirectionalStream&#45;&gt;gRPC&#45;StopChannelSpin3</title>
<path fill="none" stroke="black" d="M1555.96,-77.0011C1577.27,-75.1633 1599.21,-73.4116 1619.89,-72 1966.12,-48.3676 2054.58,-70.5514 2399.89,-36 2409.62,-35.026 2419.81,-33.7724 2429.89,-32.3879"/>
<polygon fill="black" stroke="black" points="2430.5,-35.8361 2439.91,-30.9653 2429.52,-28.9056 2430.5,-35.8361"/>
</g>
<!-- gRPC&#45;ConsumeRequestIterator3 -->
<g id="node20" class="node"><title>gRPC&#45;ConsumeRequestIterator3</title>
<ellipse fill="none" stroke="black" cx="2754.89" cy="-18" rx="126.978" ry="18"/>
<text text-anchor="middle" x="2754.89" y="-14.3" font-family="Times,serif" font-size="14.00">gRPC&#45;ConsumeRequestIterator3</text>
</g>
<!-- ConsumerHelper&#45;ConsumeBidirectionalStream&#45;&gt;gRPC&#45;ConsumeRequestIterator3 -->
<g id="edge22" class="edge"><title>ConsumerHelper&#45;ConsumeBidirectionalStream&#45;&gt;gRPC&#45;ConsumeRequestIterator3</title>
<path fill="none" stroke="black" d="M1554.94,-76.9091C1576.57,-75.0593 1598.88,-73.3274 1619.89,-72 2063.74,-43.9638 2176.6,-71.8179 2619.89,-36 2632.15,-35.0092 2645.01,-33.718 2657.72,-32.2896"/>
<polygon fill="black" stroke="black" points="2658.33,-35.7423 2667.86,-31.1178 2657.53,-28.7886 2658.33,-35.7423"/>
</g>
</g>
</svg>
