<?xml version="1.0" encoding="UTF-8" standalone="no"?>
<!DOCTYPE svg PUBLIC "-//W3C//DTD SVG 1.1//EN"
 "http://www.w3.org/Graphics/SVG/1.1/DTD/svg11.dtd">
<!-- Generated by graphviz version 2.38.0 (20140413.2041)
 -->
<!-- Title: %3 Pages: 1 -->
<svg width="3086pt" height="188pt"
 viewBox="0.00 0.00 3085.78 188.00" xmlns="http://www.w3.org/2000/svg" xmlns:xlink="http://www.w3.org/1999/xlink">
<g id="graph0" class="graph" transform="scale(1 1) rotate(0) translate(4 184)">
<title>%3</title>
<polygon fill="white" stroke="none" points="-4,4 -4,-184 3081.78,-184 3081.78,4 -4,4"/>
<!-- MainThread -->
<g id="node1" class="node"><title>MainThread</title>
<ellipse fill="none" stroke="black" cx="1320.04" cy="-162" rx="54.6905" ry="18"/>
<text text-anchor="middle" x="1320.04" y="-158.3" font-family="Times,serif" font-size="14.00">MainThread</text>
</g>
<!-- gRPC&#45;SubscribeMoot0 -->
<g id="node2" class="node"><title>gRPC&#45;SubscribeMoot0</title>
<ellipse fill="none" stroke="black" cx="141.042" cy="-90" rx="92.8835" ry="18"/>
<text text-anchor="middle" x="141.042" y="-86.3" font-family="Times,serif" font-size="14.00">gRPC&#45;SubscribeMoot0</text>
</g>
<!-- MainThread&#45;&gt;gRPC&#45;SubscribeMoot0 -->
<g id="edge1" class="edge"><title>MainThread&#45;&gt;gRPC&#45;SubscribeMoot0</title>
<path fill="none" stroke="black" d="M1265.79,-159.309C1112.92,-154.304 665.576,-138.006 295.042,-108 273.071,-106.221 249.385,-103.839 227.335,-101.422"/>
<polygon fill="black" stroke="black" points="227.655,-97.9361 217.33,-100.311 226.883,-104.893 227.655,-97.9361"/>
</g>
<!-- gRPC&#45;SubscribeMoot1 -->
<g id="node4" class="node"><title>gRPC&#45;SubscribeMoot1</title>
<ellipse fill="none" stroke="black" cx="397.042" cy="-90" rx="92.8835" ry="18"/>
<text text-anchor="middle" x="397.042" y="-86.3" font-family="Times,serif" font-size="14.00">gRPC&#45;SubscribeMoot1</text>
</g>
<!-- MainThread&#45;&gt;gRPC&#45;SubscribeMoot1 -->
<g id="edge2" class="edge"><title>MainThread&#45;&gt;gRPC&#45;SubscribeMoot1</title>
<path fill="none" stroke="black" d="M1265.59,-159.381C1133.7,-155.045 786.726,-141.174 499.042,-108 490.36,-106.999 481.292,-105.764 472.298,-104.42"/>
<polygon fill="black" stroke="black" points="472.617,-100.928 462.2,-102.863 471.55,-107.846 472.617,-100.928"/>
</g>
<!-- gRPC&#45;PluginGetMetadata0 -->
<g id="node5" class="node"><title>gRPC&#45;PluginGetMetadata0</title>
<ellipse fill="none" stroke="black" cx="616.042" cy="-90" rx="107.781" ry="18"/>
<text text-anchor="middle" x="616.042" y="-86.3" font-family="Times,serif" font-size="14.00">gRPC&#45;PluginGetMetadata0</text>
</g>
<!-- MainThread&#45;&gt;gRPC&#45;PluginGetMetadata0 -->
<g id="edge3" class="edge"><title>MainThread&#45;&gt;gRPC&#45;PluginGetMetadata0</title>
<path fill="none" stroke="black" d="M1267.32,-157.204C1164.42,-149.582 929.682,-131.146 733.042,-108 723.257,-106.848 713.028,-105.531 702.866,-104.15"/>
<polygon fill="black" stroke="black" points="703.13,-100.653 692.745,-102.752 702.172,-107.588 703.13,-100.653"/>
</g>
<!-- gRPC&#45;PluginGetMetadata1 -->
<g id="node6" class="node"><title>gRPC&#45;PluginGetMetadata1</title>
<ellipse fill="none" stroke="black" cx="850.042" cy="-90" rx="107.781" ry="18"/>
<text text-anchor="middle" x="850.042" y="-86.3" font-family="Times,serif" font-size="14.00">gRPC&#45;PluginGetMetadata1</text>
</g>
<!-- MainThread&#45;&gt;gRPC&#45;PluginGetMetadata1 -->
<g id="edge4" class="edge"><title>MainThread&#45;&gt;gRPC&#45;PluginGetMetadata1</title>
<path fill="none" stroke="black" d="M1271.07,-153.707C1192.2,-141.959 1035.93,-118.685 937.545,-104.032"/>
<polygon fill="black" stroke="black" points="938.026,-100.565 927.619,-102.554 936.994,-107.489 938.026,-100.565"/>
</g>
<!-- ConsumerHelper&#45;CallbackRequestsWorker -->
<g id="node7" class="node"><title>ConsumerHelper&#45;CallbackRequestsWorker</title>
<ellipse fill="none" stroke="black" cx="1140.04" cy="-90" rx="164.371" ry="18"/>
<text text-anchor="middle" x="1140.04" y="-86.3" font-family="Times,serif" font-size="14.00">ConsumerHelper&#45;CallbackRequestsWorker</text>
</g>
<!-- MainThread&#45;&gt;ConsumerHelper&#45;CallbackRequestsWorker -->
<g id="edge5" class="edge"><title>MainThread&#45;&gt;ConsumerHelper&#45;CallbackRequestsWorker</title>
<path fill="none" stroke="black" d="M1286.19,-147.834C1259.63,-137.506 1222.21,-122.955 1191.89,-111.162"/>
<polygon fill="black" stroke="black" points="1192.9,-107.801 1182.31,-107.439 1190.36,-114.325 1192.9,-107.801"/>
</g>
<!-- ConsumerHelper&#45;ConsumeBidirectionalStream -->
<g id="node8" class="node"><title>ConsumerHelper&#45;ConsumeBidirectionalStream</title>
<ellipse fill="none" stroke="black" cx="1501.04" cy="-90" rx="178.969" ry="18"/>
<text text-anchor="middle" x="1501.04" y="-86.3" font-family="Times,serif" font-size="14.00">ConsumerHelper&#45;ConsumeBidirectionalStream</text>
</g>
<!-- MainThread&#45;&gt;ConsumerHelper&#45;ConsumeBidirectionalStream -->
<g id="edge6" class="edge"><title>MainThread&#45;&gt;ConsumerHelper&#45;ConsumeBidirectionalStream</title>
<path fill="none" stroke="black" d="M1354.09,-147.834C1380.7,-137.541 1418.16,-123.055 1448.59,-111.284"/>
<polygon fill="black" stroke="black" points="1450.14,-114.438 1458.2,-107.567 1447.62,-107.91 1450.14,-114.438"/>
</g>
<!-- LeaseMaintenance -->
<g id="node9" class="node"><title>LeaseMaintenance</title>
<ellipse fill="none" stroke="black" cx="1775.04" cy="-90" rx="77.1866" ry="18"/>
<text text-anchor="middle" x="1775.04" y="-86.3" font-family="Times,serif" font-size="14.00">LeaseMaintenance</text>
</g>
<!-- MainThread&#45;&gt;LeaseMaintenance -->
<g id="edge7" class="edge"><title>MainThread&#45;&gt;LeaseMaintenance</title>
<path fill="none" stroke="black" d="M1370.01,-154.67C1441.07,-145.475 1575.32,-127.393 1689.04,-108 1695.59,-106.883 1702.41,-105.652 1709.22,-104.379"/>
<polygon fill="black" stroke="black" points="1709.97,-107.798 1719.14,-102.491 1708.67,-100.921 1709.97,-107.798"/>
</g>
<!-- gRPC&#45;PluginGetMetadata6 -->
<g id="node22" class="node"><title>gRPC&#45;PluginGetMetadata6</title>
<ellipse fill="none" stroke="black" cx="1978.04" cy="-90" rx="107.781" ry="18"/>
<text text-anchor="middle" x="1978.04" y="-86.3" font-family="Times,serif" font-size="14.00">gRPC&#45;PluginGetMetadata6</text>
</g>
<!-- MainThread&#45;&gt;gRPC&#45;PluginGetMetadata6 -->
<g id="edge8" class="edge"><title>MainThread&#45;&gt;gRPC&#45;PluginGetMetadata6</title>
<path fill="none" stroke="black" d="M1372.36,-156.692C1469.03,-148.549 1682.11,-129.752 1861.04,-108 1870.82,-106.811 1881.05,-105.47 1891.21,-104.076"/>
<polygon fill="black" stroke="black" points="1891.91,-107.513 1901.33,-102.669 1890.94,-100.58 1891.91,-107.513"/>
</g>
<!-- gRPC&#45;PluginGetMetadata7 -->
<g id="node23" class="node"><title>gRPC&#45;PluginGetMetadata7</title>
<ellipse fill="none" stroke="black" cx="2212.04" cy="-90" rx="107.781" ry="18"/>
<text text-anchor="middle" x="2212.04" y="-86.3" font-family="Times,serif" font-size="14.00">gRPC&#45;PluginGetMetadata7</text>
</g>
<!-- MainThread&#45;&gt;gRPC&#45;PluginGetMetadata7 -->
<g id="edge9" class="edge"><title>MainThread&#45;&gt;gRPC&#45;PluginGetMetadata7</title>
<path fill="none" stroke="black" d="M1374.19,-158.715C1500.65,-153.07 1825.16,-136.793 2095.04,-108 2105.17,-106.919 2115.77,-105.618 2126.28,-104.224"/>
<polygon fill="black" stroke="black" points="2126.87,-107.676 2136.31,-102.861 2125.93,-100.739 2126.87,-107.676"/>
</g>
<!-- gRPC&#45;PluginGetMetadata8 -->
<g id="node24" class="node"><title>gRPC&#45;PluginGetMetadata8</title>
<ellipse fill="none" stroke="black" cx="2446.04" cy="-90" rx="107.781" ry="18"/>
<text text-anchor="middle" x="2446.04" y="-86.3" font-family="Times,serif" font-size="14.00">gRPC&#45;PluginGetMetadata8</text>
</g>
<!-- MainThread&#45;&gt;gRPC&#45;PluginGetMetadata8 -->
<g id="edge10" class="edge"><title>MainThread&#45;&gt;gRPC&#45;PluginGetMetadata8</title>
<path fill="none" stroke="black" d="M1374.32,-159.901C1525.73,-156.458 1965.51,-143.882 2329.04,-108 2339.34,-106.984 2350.11,-105.709 2360.78,-104.317"/>
<polygon fill="black" stroke="black" points="2361.51,-107.75 2370.95,-102.951 2360.58,-100.813 2361.51,-107.75"/>
</g>
<!-- gRPC&#45;SpawnDelivery -->
<g id="node3" class="node"><title>gRPC&#45;SpawnDelivery</title>
<ellipse fill="none" stroke="black" cx="89.0421" cy="-18" rx="89.0842" ry="18"/>
<text text-anchor="middle" x="89.0421" y="-14.3" font-family="Times,serif" font-size="14.00">gRPC&#45;SpawnDelivery</text>
</g>
<!-- gRPC&#45;SubscribeMoot0&#45;&gt;gRPC&#45;SpawnDelivery -->
<g id="edge11" class="edge"><title>gRPC&#45;SubscribeMoot0&#45;&gt;gRPC&#45;SpawnDelivery</title>
<path fill="none" stroke="black" d="M128.454,-72.055C122.287,-63.7526 114.733,-53.5837 107.894,-44.3778"/>
<polygon fill="black" stroke="black" points="110.648,-42.2156 101.875,-36.2753 105.029,-46.3899 110.648,-42.2156"/>
</g>
<!-- gRPC&#45;PluginGetMetadata2 -->
<g id="node10" class="node"><title>gRPC&#45;PluginGetMetadata2</title>
<ellipse fill="none" stroke="black" cx="304.042" cy="-18" rx="107.781" ry="18"/>
<text text-anchor="middle" x="304.042" y="-14.3" font-family="Times,serif" font-size="14.00">gRPC&#45;PluginGetMetadata2</text>
</g>
<!-- ConsumerHelper&#45;ConsumeBidirectionalStream&#45;&gt;gRPC&#45;PluginGetMetadata2 -->
<g id="edge12" class="edge"><title>ConsumerHelper&#45;ConsumeBidirectionalStream&#45;&gt;gRPC&#45;PluginGetMetadata2</title>
<path fill="none" stroke="black" d="M1377.74,-76.9644C1356.19,-75.1142 1333.97,-73.3678 1313.04,-72 917.119,-46.1259 816.12,-72.5748 421.042,-36 410.558,-35.0294 399.577,-33.7652 388.721,-32.364"/>
<polygon fill="black" stroke="black" points="389.178,-28.894 378.803,-31.0432 388.253,-35.8328 389.178,-28.894"/>
</g>
<!-- gRPC&#45;StopChannelSpin0 -->
<g id="node11" class="node"><title>gRPC&#45;StopChannelSpin0</title>
<ellipse fill="none" stroke="black" cx="531.042" cy="-18" rx="100.983" ry="18"/>
<text text-anchor="middle" x="531.042" y="-14.3" font-family="Times,serif" font-size="14.00">gRPC&#45;StopChannelSpin0</text>
</g>
<!-- ConsumerHelper&#45;ConsumeBidirectionalStream&#45;&gt;gRPC&#45;StopChannelSpin0 -->
<g id="edge13" class="edge"><title>ConsumerHelper&#45;ConsumeBidirectionalStream&#45;&gt;gRPC&#45;StopChannelSpin0</title>
<path fill="none" stroke="black" d="M1376.46,-77.0859C1355.31,-75.249 1333.55,-73.4755 1313.04,-72 1014.28,-50.5084 937.96,-67.1194 640.042,-36 630.641,-35.0179 620.813,-33.7827 611.072,-32.4283"/>
<polygon fill="black" stroke="black" points="611.371,-28.9354 600.975,-30.9795 610.376,-35.8644 611.371,-28.9354"/>
</g>
<!-- gRPC&#45;ConsumeRequestIterator0 -->
<g id="node12" class="node"><title>gRPC&#45;ConsumeRequestIterator0</title>
<ellipse fill="none" stroke="black" cx="776.042" cy="-18" rx="126.978" ry="18"/>
<text text-anchor="middle" x="776.042" y="-14.3" font-family="Times,serif" font-size="14.00">gRPC&#45;ConsumeRequestIterator0</text>
</g>
<!-- ConsumerHelper&#45;ConsumeBidirectionalStream&#45;&gt;gRPC&#45;ConsumeRequestIterator0 -->
<g id="edge14" class="edge"><title>ConsumerHelper&#45;ConsumeBidirectionalStream&#45;&gt;gRPC&#45;ConsumeRequestIterator0</title>
<path fill="none" stroke="black" d="M1373.12,-77.421C1353.01,-75.6046 1332.46,-73.7498 1313.04,-72 1134.83,-55.9425 1089.96,-55.1002 912.042,-36 900.397,-34.7499 888.203,-33.3521 876.101,-31.9096"/>
<polygon fill="black" stroke="black" points="876.318,-28.4105 865.972,-30.6896 875.481,-35.3603 876.318,-28.4105"/>
</g>
<!-- gRPC&#45;PluginGetMetadata3 -->
<g id="node13" class="node"><title>gRPC&#45;PluginGetMetadata3</title>
<ellipse fill="none" stroke="black" cx="1029.04" cy="-18" rx="107.781" ry="18"/>
<text text-anchor="middle" x="1029.04" y="-14.3" font-family="Times,serif" font-size="14.00">gRPC&#45;PluginGetMetadata3</text>
</g>
<!-- ConsumerHelper&#45;ConsumeBidirectionalStream&#45;&gt;gRPC&#45;PluginGetMetadata3 -->
<g id="edge15" class="edge"><title>ConsumerHelper&#45;ConsumeBidirectionalStream&#45;&gt;gRPC&#45;PluginGetMetadata3</title>
<path fill="none" stroke="black" d="M1405.24,-74.7923C1320.79,-62.2671 1198.75,-44.169 1116.8,-32.0148"/>
<polygon fill="black" stroke="black" points="1117.16,-28.5308 1106.76,-30.5259 1116.14,-35.4551 1117.16,-28.5308"/>
</g>
<!-- gRPC&#45;StopChannelSpin1 -->
<g id="node14" class="node"><title>gRPC&#45;StopChannelSpin1</title>
<ellipse fill="none" stroke="black" cx="1256.04" cy="-18" rx="100.983" ry="18"/>
<text text-anchor="middle" x="1256.04" y="-14.3" font-family="Times,serif" font-size="14.00">gRPC&#45;StopChannelSpin1</text>
</g>
<!-- ConsumerHelper&#45;ConsumeBidirectionalStream&#45;&gt;gRPC&#45;StopChannelSpin1 -->
<g id="edge16" class="edge"><title>ConsumerHelper&#45;ConsumeBidirectionalStream&#45;&gt;gRPC&#45;StopChannelSpin1</title>
<path fill="none" stroke="black" d="M1444.53,-72.8527C1406.36,-61.9467 1356,-47.5596 1316.94,-36.3998"/>
<polygon fill="black" stroke="black" points="1317.85,-33.0181 1307.27,-33.6362 1315.92,-39.7488 1317.85,-33.0181"/>
</g>
<!-- gRPC&#45;ConsumeRequestIterator1 -->
<g id="node15" class="node"><title>gRPC&#45;ConsumeRequestIterator1</title>
<ellipse fill="none" stroke="black" cx="1501.04" cy="-18" rx="126.978" ry="18"/>
<text text-anchor="middle" x="1501.04" y="-14.3" font-family="Times,serif" font-size="14.00">gRPC&#45;ConsumeRequestIterator1</text>
</g>
<!-- ConsumerHelper&#45;ConsumeBidirectionalStream&#45;&gt;gRPC&#45;ConsumeRequestIterator1 -->
<g id="edge17" class="edge"><title>ConsumerHelper&#45;ConsumeBidirectionalStream&#45;&gt;gRPC&#45;ConsumeRequestIterator1</title>
<path fill="none" stroke="black" d="M1501.04,-71.6966C1501.04,-63.9827 1501.04,-54.7125 1501.04,-46.1124"/>
<polygon fill="black" stroke="black" points="1504.54,-46.1043 1501.04,-36.1043 1497.54,-46.1044 1504.54,-46.1043"/>
</g>
<!-- gRPC&#45;PluginGetMetadata4 -->
<g id="node16" class="node"><title>gRPC&#45;PluginGetMetadata4</title>
<ellipse fill="none" stroke="black" cx="1754.04" cy="-18" rx="107.781" ry="18"/>
<text text-anchor="middle" x="1754.04" y="-14.3" font-family="Times,serif" font-size="14.00">gRPC&#45;PluginGetMetadata4</text>
</g>
<!-- ConsumerHelper&#45;ConsumeBidirectionalStream&#45;&gt;gRPC&#45;PluginGetMetadata4 -->
<g id="edge18" class="edge"><title>ConsumerHelper&#45;ConsumeBidirectionalStream&#45;&gt;gRPC&#45;PluginGetMetadata4</title>
<path fill="none" stroke="black" d="M1559.09,-72.9406C1598.44,-62.0521 1650.44,-47.6637 1690.84,-36.486"/>
<polygon fill="black" stroke="black" points="1691.88,-39.8303 1700.59,-33.7904 1690.01,-33.0838 1691.88,-39.8303"/>
</g>
<!-- gRPC&#45;StopChannelSpin2 -->
<g id="node17" class="node"><title>gRPC&#45;StopChannelSpin2</title>
<ellipse fill="none" stroke="black" cx="1981.04" cy="-18" rx="100.983" ry="18"/>
<text text-anchor="middle" x="1981.04" y="-14.3" font-family="Times,serif" font-size="14.00">gRPC&#45;StopChannelSpin2</text>
</g>
<!-- ConsumerHelper&#45;ConsumeBidirectionalStream&#45;&gt;gRPC&#45;StopChannelSpin2 -->
<g id="edge19" class="edge"><title>ConsumerHelper&#45;ConsumeBidirectionalStream&#45;&gt;gRPC&#45;StopChannelSpin2</title>
<path fill="none" stroke="black" d="M1600.81,-75.0141C1675.3,-64.4972 1779.58,-49.6178 1871.04,-36 1879.72,-34.7077 1888.78,-33.339 1897.82,-31.9616"/>
<polygon fill="black" stroke="black" points="1898.63,-35.3783 1907.98,-30.4065 1897.57,-28.4588 1898.63,-35.3783"/>
</g>
<!-- gRPC&#45;ConsumeRequestIterator2 -->
<g id="node18" class="node"><title>gRPC&#45;ConsumeRequestIterator2</title>
<ellipse fill="none" stroke="black" cx="2226.04" cy="-18" rx="126.978" ry="18"/>
<text text-anchor="middle" x="2226.04" y="-14.3" font-family="Times,serif" font-size="14.00">gRPC&#45;ConsumeRequestIterator2</text>
</g>
<!-- ConsumerHelper&#45;ConsumeBidirectionalStream&#45;&gt;gRPC&#45;ConsumeRequestIterator2 -->
<g id="edge20" class="edge"><title>ConsumerHelper&#45;ConsumeBidirectionalStream&#45;&gt;gRPC&#45;ConsumeRequestIterator2</title>
<path fill="none" stroke="black" d="M1628.97,-77.4172C1649.07,-75.6013 1669.62,-73.7477 1689.04,-72 1867.7,-55.9226 1912.69,-55.209 2091.04,-36 2102.51,-34.7648 2114.51,-33.3824 2126.43,-31.9538"/>
<polygon fill="black" stroke="black" points="2126.91,-35.4223 2136.41,-30.7451 2126.06,-28.4731 2126.91,-35.4223"/>
</g>
<!-- gRPC&#45;PluginGetMetadata5 -->
<g id="node19" class="node"><title>gRPC&#45;PluginGetMetadata5</title>
<ellipse fill="none" stroke="black" cx="2479.04" cy="-18" rx="107.781" ry="18"/>
<text text-anchor="middle" x="2479.04" y="-14.3" font-family="Times,serif" font-size="14.00">gRPC&#45;PluginGetMetadata5</text>
</g>
<!-- ConsumerHelper&#45;ConsumeBidirectionalStream&#45;&gt;gRPC&#45;PluginGetMetadata5 -->
<g id="edge21" class="edge"><title>ConsumerHelper&#45;ConsumeBidirectionalStream&#45;&gt;gRPC&#45;PluginGetMetadata5</title>
<path fill="none" stroke="black" d="M1625.63,-77.0859C1646.78,-75.249 1668.53,-73.4755 1689.04,-72 1987.81,-50.5084 2063.97,-65.5657 2362.04,-36 2372.34,-34.979 2383.11,-33.7012 2393.78,-32.3073"/>
<polygon fill="black" stroke="black" points="2394.51,-35.7406 2403.95,-30.9399 2393.58,-28.803 2394.51,-35.7406"/>
</g>
<!-- gRPC&#45;StopChannelSpin3 -->
<g id="node20" class="node"><title>gRPC&#45;StopChannelSpin3</title>
<ellipse fill="none" stroke="black" cx="2706.04" cy="-18" rx="100.983" ry="18"/>
<text text-anchor="middle" x="2706.04" y="-14.3" font-family="Times,serif" font-size="14.00">gRPC&#45;StopChannelSpin3</text>
</g>
<!-- ConsumerHelper&#45;ConsumeBidirectionalStream&#45;&gt;gRPC&#45;StopChannelSpin3 -->
<g id="edge22" class="edge"><title>ConsumerHelper&#45;ConsumeBidirectionalStream&#45;&gt;gRPC&#45;StopChannelSpin3</title>
<path fill="none" stroke="black" d="M1624.35,-76.9526C1645.9,-75.1037 1668.11,-73.3608 1689.04,-72 2091.62,-45.8257 2194.49,-74.871 2596.04,-36 2605.78,-35.0574 2615.97,-33.8228 2626.05,-32.4486"/>
<polygon fill="black" stroke="black" points="2626.66,-35.8972 2636.07,-31.0334 2625.68,-28.966 2626.66,-35.8972"/>
</g>
<!-- gRPC&#45;ConsumeRequestIterator3 -->
<g id="node21" class="node"><title>gRPC&#45;ConsumeRequestIterator3</title>
<ellipse fill="none" stroke="black" cx="2951.04" cy="-18" rx="126.978" ry="18"/>
<text text-anchor="middle" x="2951.04" y="-14.3" font-family="Times,serif" font-size="14.00">gRPC&#45;ConsumeRequestIterator3</text>
</g>
<!-- ConsumerHelper&#45;ConsumeBidirectionalStream&#45;&gt;gRPC&#45;ConsumeRequestIterator3 -->
<g id="edge23" class="edge"><title>ConsumerHelper&#45;ConsumeBidirectionalStream&#45;&gt;gRPC&#45;ConsumeRequestIterator3</title>
<path fill="none" stroke="black" d="M1623.58,-76.8804C1645.37,-75.0222 1667.86,-73.2948 1689.04,-72 2189.25,-41.421 2316.44,-75.3491 2816.04,-36 2828.31,-35.034 2841.17,-33.7576 2853.88,-32.3369"/>
<polygon fill="black" stroke="black" points="2854.49,-35.7899 2864.02,-31.1698 2853.68,-28.8358 2854.49,-35.7899"/>
</g>
</g>
</svg>
