<?xml version="1.0" encoding="UTF-8" standalone="no"?>
<!DOCTYPE svg PUBLIC "-//W3C//DTD SVG 1.1//EN"
 "http://www.w3.org/Graphics/SVG/1.1/DTD/svg11.dtd">
<!-- Generated by graphviz version 2.38.0 (20140413.2041)
 -->
<!-- Title: %3 Pages: 1 -->
<svg width="1668pt" height="260pt"
 viewBox="0.00 0.00 1668.13 260.00" xmlns="http://www.w3.org/2000/svg" xmlns:xlink="http://www.w3.org/1999/xlink">
<g id="graph0" class="graph" transform="scale(1 1) rotate(0) translate(4 256)">
<title>%3</title>
<polygon fill="white" stroke="none" points="-4,4 -4,-256 1664.13,-256 1664.13,4 -4,4"/>
<!-- MainThread -->
<g id="node1" class="node"><title>MainThread</title>
<ellipse fill="none" stroke="black" cx="699.942" cy="-234" rx="54.6905" ry="18"/>
<text text-anchor="middle" x="699.942" y="-230.3" font-family="Times,serif" font-size="14.00">MainThread</text>
</g>
<!-- gRPC&#45;SubscribeMoot0 -->
<g id="node2" class="node"><title>gRPC&#45;SubscribeMoot0</title>
<ellipse fill="none" stroke="black" cx="92.9418" cy="-162" rx="92.8835" ry="18"/>
<text text-anchor="middle" x="92.9418" y="-158.3" font-family="Times,serif" font-size="14.00">gRPC&#45;SubscribeMoot0</text>
</g>
<!-- MainThread&#45;&gt;gRPC&#45;SubscribeMoot0 -->
<g id="edge1" class="edge"><title>MainThread&#45;&gt;gRPC&#45;SubscribeMoot0</title>
<path fill="none" stroke="black" d="M647.838,-228.581C556.096,-220.566 359.824,-202.371 194.942,-180 186.631,-178.872 177.956,-177.59 169.327,-176.247"/>
<polygon fill="black" stroke="black" points="169.668,-172.758 159.243,-174.649 168.572,-179.671 169.668,-172.758"/>
</g>
<!-- gRPC&#45;SubscribeMoot1 -->
<g id="node3" class="node"><title>gRPC&#45;SubscribeMoot1</title>
<ellipse fill="none" stroke="black" cx="296.942" cy="-162" rx="92.8835" ry="18"/>
<text text-anchor="middle" x="296.942" y="-158.3" font-family="Times,serif" font-size="14.00">gRPC&#45;SubscribeMoot1</text>
</g>
<!-- MainThread&#45;&gt;gRPC&#45;SubscribeMoot1 -->
<g id="edge2" class="edge"><title>MainThread&#45;&gt;gRPC&#45;SubscribeMoot1</title>
<path fill="none" stroke="black" d="M652.924,-224.833C584.359,-212.924 456.154,-190.655 373.763,-176.344"/>
<polygon fill="black" stroke="black" points="374.152,-172.859 363.701,-174.596 372.954,-179.756 374.152,-172.859"/>
</g>
<!-- gRPC&#45;PluginGetMetadata0 -->
<g id="node4" class="node"><title>gRPC&#45;PluginGetMetadata0</title>
<ellipse fill="none" stroke="black" cx="515.942" cy="-162" rx="107.781" ry="18"/>
<text text-anchor="middle" x="515.942" y="-158.3" font-family="Times,serif" font-size="14.00">gRPC&#45;PluginGetMetadata0</text>
</g>
<!-- MainThread&#45;&gt;gRPC&#45;PluginGetMetadata0 -->
<g id="edge3" class="edge"><title>MainThread&#45;&gt;gRPC&#45;PluginGetMetadata0</title>
<path fill="none" stroke="black" d="M665.333,-219.834C637.502,-209.246 598.004,-194.219 566.611,-182.276"/>
<polygon fill="black" stroke="black" points="567.742,-178.962 557.151,-178.677 565.253,-185.504 567.742,-178.962"/>
</g>
<!-- ReproPublish -->
<g id="node5" class="node"><title>ReproPublish</title>
<ellipse fill="none" stroke="black" cx="699.942" cy="-162" rx="58.4896" ry="18"/>
<text text-anchor="middle" x="699.942" y="-158.3" font-family="Times,serif" font-size="14.00">ReproPublish</text>
</g>
<!-- MainThread&#45;&gt;ReproPublish -->
<g id="edge4" class="edge"><title>MainThread&#45;&gt;ReproPublish</title>
<path fill="none" stroke="black" d="M699.942,-215.697C699.942,-207.983 699.942,-198.712 699.942,-190.112"/>
<polygon fill="black" stroke="black" points="703.442,-190.104 699.942,-180.104 696.442,-190.104 703.442,-190.104"/>
</g>
<!-- ConsumerHelper&#45;CallbackRequestsWorker -->
<g id="node7" class="node"><title>ConsumerHelper&#45;CallbackRequestsWorker</title>
<ellipse fill="none" stroke="black" cx="940.942" cy="-162" rx="164.371" ry="18"/>
<text text-anchor="middle" x="940.942" y="-158.3" font-family="Times,serif" font-size="14.00">ConsumerHelper&#45;CallbackRequestsWorker</text>
</g>
<!-- MainThread&#45;&gt;ConsumerHelper&#45;CallbackRequestsWorker -->
<g id="edge5" class="edge"><title>MainThread&#45;&gt;ConsumerHelper&#45;CallbackRequestsWorker</title>
<path fill="none" stroke="black" d="M739.468,-221.519C776.464,-210.774 832.413,-194.523 875.972,-181.871"/>
<polygon fill="black" stroke="black" points="877.002,-185.216 885.629,-179.066 875.05,-178.494 877.002,-185.216"/>
</g>
<!-- ConsumerHelper&#45;ConsumeBidirectionalStream -->
<g id="node8" class="node"><title>ConsumerHelper&#45;ConsumeBidirectionalStream</title>
<ellipse fill="none" stroke="black" cx="1301.94" cy="-162" rx="178.969" ry="18"/>
<text text-anchor="middle" x="1301.94" y="-158.3" font-family="Times,serif" font-size="14.00">ConsumerHelper&#45;ConsumeBidirectionalStream</text>
</g>
<!-- MainThread&#45;&gt;ConsumerHelper&#45;ConsumeBidirectionalStream -->
<g id="edge6" class="edge"><title>MainThread&#45;&gt;ConsumerHelper&#45;ConsumeBidirectionalStream</title>
<path fill="none" stroke="black" d="M750.491,-227.122C844.276,-216.217 1047.65,-192.569 1179.48,-177.24"/>
<polygon fill="black" stroke="black" points="1180.11,-180.691 1189.63,-176.059 1179.3,-173.738 1180.11,-180.691"/>
</g>
<!-- LeaseMaintenance -->
<g id="node11" class="node"><title>LeaseMaintenance</title>
<ellipse fill="none" stroke="black" cx="1575.94" cy="-162" rx="77.1866" ry="18"/>
<text text-anchor="middle" x="1575.94" y="-158.3" font-family="Times,serif" font-size="14.00">LeaseMaintenance</text>
</g>
<!-- MainThread&#45;&gt;LeaseMaintenance -->
<g id="edge7" class="edge"><title>MainThread&#45;&gt;LeaseMaintenance</title>
<path fill="none" stroke="black" d="M754.295,-231.752C882.758,-228.279 1214.99,-216.246 1489.94,-180 1497,-179.07 1504.34,-177.913 1511.64,-176.642"/>
<polygon fill="black" stroke="black" points="1512.31,-180.078 1521.52,-174.85 1511.06,-173.19 1512.31,-180.078"/>
</g>
<!-- MonitorBatchPublisher0 -->
<g id="node6" class="node"><title>MonitorBatchPublisher0</title>
<ellipse fill="none" stroke="black" cx="172.942" cy="-90" rx="98.2828" ry="18"/>
<text text-anchor="middle" x="172.942" y="-86.3" font-family="Times,serif" font-size="14.00">MonitorBatchPublisher0</text>
</g>
<!-- ReproPublish&#45;&gt;MonitorBatchPublisher0 -->
<g id="edge8" class="edge"><title>ReproPublish&#45;&gt;MonitorBatchPublisher0</title>
<path fill="none" stroke="black" d="M657.965,-149.387C649.715,-147.378 641.091,-145.467 632.942,-144 486.434,-117.629 447.727,-125.877 299.942,-108 286.614,-106.388 272.511,-104.591 258.741,-102.786"/>
<polygon fill="black" stroke="black" points="259.16,-99.3111 248.788,-101.473 258.244,-106.251 259.16,-99.3111"/>
</g>
<!-- MonitorBatchPublisher1 -->
<g id="node14" class="node"><title>MonitorBatchPublisher1</title>
<ellipse fill="none" stroke="black" cx="406.942" cy="-90" rx="98.2828" ry="18"/>
<text text-anchor="middle" x="406.942" y="-86.3" font-family="Times,serif" font-size="14.00">MonitorBatchPublisher1</text>
</g>
<!-- ReproPublish&#45;&gt;MonitorBatchPublisher1 -->
<g id="edge9" class="edge"><title>ReproPublish&#45;&gt;MonitorBatchPublisher1</title>
<path fill="none" stroke="black" d="M656.361,-149.82C648.569,-147.856 640.52,-145.85 632.942,-144 580.346,-131.161 520.716,-117.202 475.917,-106.834"/>
<polygon fill="black" stroke="black" points="476.549,-103.388 466.017,-104.545 474.972,-110.208 476.549,-103.388"/>
</g>
<!-- MonitorBatchPublisher2 -->
<g id="node16" class="node"><title>MonitorBatchPublisher2</title>
<ellipse fill="none" stroke="black" cx="634.942" cy="-90" rx="98.2828" ry="18"/>
<text text-anchor="middle" x="634.942" y="-86.3" font-family="Times,serif" font-size="14.00">MonitorBatchPublisher2</text>
</g>
<!-- ReproPublish&#45;&gt;MonitorBatchPublisher2 -->
<g id="edge10" class="edge"><title>ReproPublish&#45;&gt;MonitorBatchPublisher2</title>
<path fill="none" stroke="black" d="M684.538,-144.411C676.48,-135.734 666.463,-124.946 657.545,-115.342"/>
<polygon fill="black" stroke="black" points="660.056,-112.903 650.687,-107.956 654.927,-117.666 660.056,-112.903"/>
</g>
<!-- MonitorBatchPublisher3 -->
<g id="node18" class="node"><title>MonitorBatchPublisher3</title>
<ellipse fill="none" stroke="black" cx="856.942" cy="-90" rx="98.2828" ry="18"/>
<text text-anchor="middle" x="856.942" y="-86.3" font-family="Times,serif" font-size="14.00">MonitorBatchPublisher3</text>
</g>
<!-- ReproPublish&#45;&gt;MonitorBatchPublisher3 -->
<g id="edge11" class="edge"><title>ReproPublish&#45;&gt;MonitorBatchPublisher3</title>
<path fill="none" stroke="black" d="M731.713,-146.834C754.855,-136.516 786.517,-122.4 812.213,-110.943"/>
<polygon fill="black" stroke="black" points="813.675,-114.123 821.383,-106.854 810.825,-107.73 813.675,-114.123"/>
</g>
<!-- MonitorBatchPublisher4 -->
<g id="node20" class="node"><title>MonitorBatchPublisher4</title>
<ellipse fill="none" stroke="black" cx="1085.94" cy="-90" rx="98.2828" ry="18"/>
<text text-anchor="middle" x="1085.94" y="-86.3" font-family="Times,serif" font-size="14.00">MonitorBatchPublisher4</text>
</g>
<!-- ReproPublish&#45;&gt;MonitorBatchPublisher4 -->
<g id="edge12" class="edge"><title>ReproPublish&#45;&gt;MonitorBatchPublisher4</title>
<path fill="none" stroke="black" d="M742.99,-149.687C751.245,-147.674 759.84,-145.685 767.942,-144 846.484,-127.664 936.762,-113.007 1001.01,-103.269"/>
<polygon fill="black" stroke="black" points="1001.73,-106.701 1011.1,-101.749 1000.69,-99.7788 1001.73,-106.701"/>
</g>
<!-- gRPC&#45;PluginGetMetadata1 -->
<g id="node12" class="node"><title>gRPC&#45;PluginGetMetadata1</title>
<ellipse fill="none" stroke="black" cx="162.942" cy="-18" rx="107.781" ry="18"/>
<text text-anchor="middle" x="162.942" y="-14.3" font-family="Times,serif" font-size="14.00">gRPC&#45;PluginGetMetadata1</text>
</g>
<!-- MonitorBatchPublisher0&#45;&gt;gRPC&#45;PluginGetMetadata1 -->
<g id="edge13" class="edge"><title>MonitorBatchPublisher0&#45;&gt;gRPC&#45;PluginGetMetadata1</title>
<path fill="none" stroke="black" d="M170.47,-71.6966C169.368,-63.9827 168.044,-54.7125 166.815,-46.1124"/>
<polygon fill="black" stroke="black" points="170.264,-45.5088 165.385,-36.1043 163.335,-46.4988 170.264,-45.5088"/>
</g>
<!-- gRPC&#45;StopChannelSpin -->
<g id="node9" class="node"><title>gRPC&#45;StopChannelSpin</title>
<ellipse fill="none" stroke="black" cx="1301.94" cy="-90" rx="96.3833" ry="18"/>
<text text-anchor="middle" x="1301.94" y="-86.3" font-family="Times,serif" font-size="14.00">gRPC&#45;StopChannelSpin</text>
</g>
<!-- ConsumerHelper&#45;ConsumeBidirectionalStream&#45;&gt;gRPC&#45;StopChannelSpin -->
<g id="edge14" class="edge"><title>ConsumerHelper&#45;ConsumeBidirectionalStream&#45;&gt;gRPC&#45;StopChannelSpin</title>
<path fill="none" stroke="black" d="M1301.94,-143.697C1301.94,-135.983 1301.94,-126.712 1301.94,-118.112"/>
<polygon fill="black" stroke="black" points="1305.44,-118.104 1301.94,-108.104 1298.44,-118.104 1305.44,-118.104"/>
</g>
<!-- gRPC&#45;ConsumeRequestIterator -->
<g id="node10" class="node"><title>gRPC&#45;ConsumeRequestIterator</title>
<ellipse fill="none" stroke="black" cx="1537.94" cy="-90" rx="122.379" ry="18"/>
<text text-anchor="middle" x="1537.94" y="-86.3" font-family="Times,serif" font-size="14.00">gRPC&#45;ConsumeRequestIterator</text>
</g>
<!-- ConsumerHelper&#45;ConsumeBidirectionalStream&#45;&gt;gRPC&#45;ConsumeRequestIterator -->
<g id="edge15" class="edge"><title>ConsumerHelper&#45;ConsumeBidirectionalStream&#45;&gt;gRPC&#45;ConsumeRequestIterator</title>
<path fill="none" stroke="black" d="M1356.38,-144.853C1392.24,-134.215 1439.27,-120.266 1476.48,-109.23"/>
<polygon fill="black" stroke="black" points="1477.61,-112.545 1486.2,-106.346 1475.62,-105.834 1477.61,-112.545"/>
</g>
<!-- gRPC&#45;PluginGetMetadata2 -->
<g id="node13" class="node"><title>gRPC&#45;PluginGetMetadata2</title>
<ellipse fill="none" stroke="black" cx="1332.94" cy="-18" rx="107.781" ry="18"/>
<text text-anchor="middle" x="1332.94" y="-14.3" font-family="Times,serif" font-size="14.00">gRPC&#45;PluginGetMetadata2</text>
</g>
<!-- gRPC&#45;StopChannelSpin&#45;&gt;gRPC&#45;PluginGetMetadata2 -->
<g id="edge16" class="edge"><title>gRPC&#45;StopChannelSpin&#45;&gt;gRPC&#45;PluginGetMetadata2</title>
<path fill="none" stroke="black" d="M1309.6,-71.6966C1313.13,-63.7284 1317.4,-54.0995 1321.31,-45.2641"/>
<polygon fill="black" stroke="black" points="1324.52,-46.6651 1325.37,-36.1043 1318.12,-43.8306 1324.52,-46.6651"/>
</g>
<!-- gRPC&#45;PluginGetMetadata3 -->
<g id="node15" class="node"><title>gRPC&#45;PluginGetMetadata3</title>
<ellipse fill="none" stroke="black" cx="396.942" cy="-18" rx="107.781" ry="18"/>
<text text-anchor="middle" x="396.942" y="-14.3" font-family="Times,serif" font-size="14.00">gRPC&#45;PluginGetMetadata3</text>
</g>
<!-- MonitorBatchPublisher1&#45;&gt;gRPC&#45;PluginGetMetadata3 -->
<g id="edge17" class="edge"><title>MonitorBatchPublisher1&#45;&gt;gRPC&#45;PluginGetMetadata3</title>
<path fill="none" stroke="black" d="M404.47,-71.6966C403.368,-63.9827 402.044,-54.7125 400.815,-46.1124"/>
<polygon fill="black" stroke="black" points="404.264,-45.5088 399.385,-36.1043 397.335,-46.4988 404.264,-45.5088"/>
</g>
<!-- gRPC&#45;PluginGetMetadata4 -->
<g id="node17" class="node"><title>gRPC&#45;PluginGetMetadata4</title>
<ellipse fill="none" stroke="black" cx="630.942" cy="-18" rx="107.781" ry="18"/>
<text text-anchor="middle" x="630.942" y="-14.3" font-family="Times,serif" font-size="14.00">gRPC&#45;PluginGetMetadata4</text>
</g>
<!-- MonitorBatchPublisher2&#45;&gt;gRPC&#45;PluginGetMetadata4 -->
<g id="edge18" class="edge"><title>MonitorBatchPublisher2&#45;&gt;gRPC&#45;PluginGetMetadata4</title>
<path fill="none" stroke="black" d="M633.953,-71.6966C633.512,-63.9827 632.982,-54.7125 632.491,-46.1124"/>
<polygon fill="black" stroke="black" points="635.984,-45.8883 631.919,-36.1043 628.995,-46.2878 635.984,-45.8883"/>
</g>
<!-- gRPC&#45;PluginGetMetadata5 -->
<g id="node19" class="node"><title>gRPC&#45;PluginGetMetadata5</title>
<ellipse fill="none" stroke="black" cx="864.942" cy="-18" rx="107.781" ry="18"/>
<text text-anchor="middle" x="864.942" y="-14.3" font-family="Times,serif" font-size="14.00">gRPC&#45;PluginGetMetadata5</text>
</g>
<!-- MonitorBatchPublisher3&#45;&gt;gRPC&#45;PluginGetMetadata5 -->
<g id="edge19" class="edge"><title>MonitorBatchPublisher3&#45;&gt;gRPC&#45;PluginGetMetadata5</title>
<path fill="none" stroke="black" d="M858.919,-71.6966C859.801,-63.9827 860.86,-54.7125 861.843,-46.1124"/>
<polygon fill="black" stroke="black" points="865.329,-46.4371 862.987,-36.1043 858.374,-45.6422 865.329,-46.4371"/>
</g>
<!-- gRPC&#45;PluginGetMetadata6 -->
<g id="node21" class="node"><title>gRPC&#45;PluginGetMetadata6</title>
<ellipse fill="none" stroke="black" cx="1098.94" cy="-18" rx="107.781" ry="18"/>
<text text-anchor="middle" x="1098.94" y="-14.3" font-family="Times,serif" font-size="14.00">gRPC&#45;PluginGetMetadata6</text>
</g>
<!-- MonitorBatchPublisher4&#45;&gt;gRPC&#45;PluginGetMetadata6 -->
<g id="edge20" class="edge"><title>MonitorBatchPublisher4&#45;&gt;gRPC&#45;PluginGetMetadata6</title>
<path fill="none" stroke="black" d="M1089.16,-71.6966C1090.59,-63.9827 1092.31,-54.7125 1093.91,-46.1124"/>
<polygon fill="black" stroke="black" points="1097.38,-46.5753 1095.77,-36.1043 1090.5,-45.2971 1097.38,-46.5753"/>
</g>
</g>
</svg>
