<?xml version="1.0" encoding="UTF-8" standalone="no"?>
<!DOCTYPE svg PUBLIC "-//W3C//DTD SVG 1.1//EN"
 "http://www.w3.org/Graphics/SVG/1.1/DTD/svg11.dtd">
<!-- Generated by graphviz version 2.38.0 (20140413.2041)
 -->
<!-- Title: %3 Pages: 1 -->
<svg width="1728pt" height="260pt"
 viewBox="0.00 0.00 1728.23 260.00" xmlns="http://www.w3.org/2000/svg" xmlns:xlink="http://www.w3.org/1999/xlink">
<g id="graph0" class="graph" transform="scale(1 1) rotate(0) translate(4 256)">
<title>%3</title>
<polygon fill="white" stroke="none" points="-4,4 -4,-256 1724.23,-256 1724.23,4 -4,4"/>
<!-- MainThread -->
<g id="node1" class="node"><title>MainThread</title>
<ellipse fill="none" stroke="black" cx="731.042" cy="-234" rx="54.6905" ry="18"/>
<text text-anchor="middle" x="731.042" y="-230.3" font-family="Times,serif" font-size="14.00">MainThread</text>
</g>
<!-- gRPC&#45;SubscribeMoot0 -->
<g id="node2" class="node"><title>gRPC&#45;SubscribeMoot0</title>
<ellipse fill="none" stroke="black" cx="124.042" cy="-162" rx="92.8835" ry="18"/>
<text text-anchor="middle" x="124.042" y="-158.3" font-family="Times,serif" font-size="14.00">gRPC&#45;SubscribeMoot0</text>
</g>
<!-- MainThread&#45;&gt;gRPC&#45;SubscribeMoot0 -->
<g id="edge1" class="edge"><title>MainThread&#45;&gt;gRPC&#45;SubscribeMoot0</title>
<path fill="none" stroke="black" d="M678.938,-228.581C587.197,-220.566 390.924,-202.371 226.042,-180 217.731,-178.872 209.056,-177.59 200.428,-176.247"/>
<polygon fill="black" stroke="black" points="200.769,-172.758 190.344,-174.649 199.672,-179.671 200.769,-172.758"/>
</g>
<!-- gRPC&#45;SubscribeMoot1 -->
<g id="node3" class="node"><title>gRPC&#45;SubscribeMoot1</title>
<ellipse fill="none" stroke="black" cx="328.042" cy="-162" rx="92.8835" ry="18"/>
<text text-anchor="middle" x="328.042" y="-158.3" font-family="Times,serif" font-size="14.00">gRPC&#45;SubscribeMoot1</text>
</g>
<!-- MainThread&#45;&gt;gRPC&#45;SubscribeMoot1 -->
<g id="edge2" class="edge"><title>MainThread&#45;&gt;gRPC&#45;SubscribeMoot1</title>
<path fill="none" stroke="black" d="M684.024,-224.833C615.459,-212.924 487.254,-190.655 404.864,-176.344"/>
<polygon fill="black" stroke="black" points="405.253,-172.859 394.801,-174.596 404.055,-179.756 405.253,-172.859"/>
</g>
<!-- gRPC&#45;PluginGetMetadata0 -->
<g id="node5" class="node"><title>gRPC&#45;PluginGetMetadata0</title>
<ellipse fill="none" stroke="black" cx="547.042" cy="-162" rx="107.781" ry="18"/>
<text text-anchor="middle" x="547.042" y="-158.3" font-family="Times,serif" font-size="14.00">gRPC&#45;PluginGetMetadata0</text>
</g>
<!-- MainThread&#45;&gt;gRPC&#45;PluginGetMetadata0 -->
<g id="edge3" class="edge"><title>MainThread&#45;&gt;gRPC&#45;PluginGetMetadata0</title>
<path fill="none" stroke="black" d="M696.433,-219.834C668.602,-209.246 629.104,-194.219 597.712,-182.276"/>
<polygon fill="black" stroke="black" points="598.842,-178.962 588.251,-178.677 596.353,-185.504 598.842,-178.962"/>
</g>
<!-- ReproPublish -->
<g id="node6" class="node"><title>ReproPublish</title>
<ellipse fill="none" stroke="black" cx="731.042" cy="-162" rx="58.4896" ry="18"/>
<text text-anchor="middle" x="731.042" y="-158.3" font-family="Times,serif" font-size="14.00">ReproPublish</text>
</g>
<!-- MainThread&#45;&gt;ReproPublish -->
<g id="edge4" class="edge"><title>MainThread&#45;&gt;ReproPublish</title>
<path fill="none" stroke="black" d="M731.042,-215.697C731.042,-207.983 731.042,-198.712 731.042,-190.112"/>
<polygon fill="black" stroke="black" points="734.542,-190.104 731.042,-180.104 727.542,-190.104 734.542,-190.104"/>
</g>
<!-- ConsumerHelper&#45;CallbackRequestsWorker -->
<g id="node8" class="node"><title>ConsumerHelper&#45;CallbackRequestsWorker</title>
<ellipse fill="none" stroke="black" cx="972.042" cy="-162" rx="164.371" ry="18"/>
<text text-anchor="middle" x="972.042" y="-158.3" font-family="Times,serif" font-size="14.00">ConsumerHelper&#45;CallbackRequestsWorker</text>
</g>
<!-- MainThread&#45;&gt;ConsumerHelper&#45;CallbackRequestsWorker -->
<g id="edge5" class="edge"><title>MainThread&#45;&gt;ConsumerHelper&#45;CallbackRequestsWorker</title>
<path fill="none" stroke="black" d="M770.568,-221.519C807.565,-210.774 863.514,-194.523 907.073,-181.871"/>
<polygon fill="black" stroke="black" points="908.103,-185.216 916.729,-179.066 906.15,-178.494 908.103,-185.216"/>
</g>
<!-- ConsumerHelper&#45;ConsumeBidirectionalStream -->
<g id="node9" class="node"><title>ConsumerHelper&#45;ConsumeBidirectionalStream</title>
<ellipse fill="none" stroke="black" cx="1352.04" cy="-162" rx="178.969" ry="18"/>
<text text-anchor="middle" x="1352.04" y="-158.3" font-family="Times,serif" font-size="14.00">ConsumerHelper&#45;ConsumeBidirectionalStream</text>
</g>
<!-- MainThread&#45;&gt;ConsumerHelper&#45;ConsumeBidirectionalStream -->
<g id="edge6" class="edge"><title>MainThread&#45;&gt;ConsumerHelper&#45;ConsumeBidirectionalStream</title>
<path fill="none" stroke="black" d="M781.861,-227.272C878.511,-216.377 1091.33,-192.388 1227.87,-176.997"/>
<polygon fill="black" stroke="black" points="1228.43,-180.456 1237.97,-175.858 1227.64,-173.5 1228.43,-180.456"/>
</g>
<!-- LeaseMaintenance -->
<g id="node10" class="node"><title>LeaseMaintenance</title>
<ellipse fill="none" stroke="black" cx="1626.04" cy="-162" rx="77.1866" ry="18"/>
<text text-anchor="middle" x="1626.04" y="-158.3" font-family="Times,serif" font-size="14.00">LeaseMaintenance</text>
</g>
<!-- MainThread&#45;&gt;LeaseMaintenance -->
<g id="edge7" class="edge"><title>MainThread&#45;&gt;LeaseMaintenance</title>
<path fill="none" stroke="black" d="M785.728,-231.863C916.568,-228.611 1257.78,-216.985 1540.04,-180 1547.1,-179.076 1554.44,-177.922 1561.74,-176.653"/>
<polygon fill="black" stroke="black" points="1562.41,-180.089 1571.62,-174.863 1561.16,-173.201 1562.41,-180.089"/>
</g>
<!-- gRPC&#45;SpawnDelivery -->
<g id="node4" class="node"><title>gRPC&#45;SpawnDelivery</title>
<ellipse fill="none" stroke="black" cx="89.0421" cy="-90" rx="89.0842" ry="18"/>
<text text-anchor="middle" x="89.0421" y="-86.3" font-family="Times,serif" font-size="14.00">gRPC&#45;SpawnDelivery</text>
</g>
<!-- gRPC&#45;SubscribeMoot1&#45;&gt;gRPC&#45;SpawnDelivery -->
<g id="edge8" class="edge"><title>gRPC&#45;SubscribeMoot1&#45;&gt;gRPC&#45;SpawnDelivery</title>
<path fill="none" stroke="black" d="M279.1,-146.666C240.872,-135.469 187.636,-119.877 147.228,-108.042"/>
<polygon fill="black" stroke="black" points="148.09,-104.647 137.51,-105.196 146.123,-111.365 148.09,-104.647"/>
</g>
<!-- MonitorBatchPublisher0 -->
<g id="node7" class="node"><title>MonitorBatchPublisher0</title>
<ellipse fill="none" stroke="black" cx="294.042" cy="-90" rx="98.2828" ry="18"/>
<text text-anchor="middle" x="294.042" y="-86.3" font-family="Times,serif" font-size="14.00">MonitorBatchPublisher0</text>
</g>
<!-- ReproPublish&#45;&gt;MonitorBatchPublisher0 -->
<g id="edge9" class="edge"><title>ReproPublish&#45;&gt;MonitorBatchPublisher0</title>
<path fill="none" stroke="black" d="M688.672,-149.484C680.534,-147.49 672.052,-145.559 664.042,-144 548.237,-121.457 517.752,-125.257 401.042,-108 392.593,-106.751 383.774,-105.41 374.983,-104.049"/>
<polygon fill="black" stroke="black" points="375.51,-100.589 365.091,-102.508 374.433,-107.505 375.51,-100.589"/>
</g>
<!-- MonitorBatchPublisher1 -->
<g id="node15" class="node"><title>MonitorBatchPublisher1</title>
<ellipse fill="none" stroke="black" cx="508.042" cy="-90" rx="98.2828" ry="18"/>
<text text-anchor="middle" x="508.042" y="-86.3" font-family="Times,serif" font-size="14.00">MonitorBatchPublisher1</text>
</g>
<!-- ReproPublish&#45;&gt;MonitorBatchPublisher1 -->
<g id="edge10" class="edge"><title>ReproPublish&#45;&gt;MonitorBatchPublisher1</title>
<path fill="none" stroke="black" d="M691.688,-148.647C656.572,-137.624 604.725,-121.349 565.067,-108.9"/>
<polygon fill="black" stroke="black" points="566.112,-105.56 555.522,-105.904 564.015,-112.238 566.112,-105.56"/>
</g>
<!-- MonitorBatchPublisher2 -->
<g id="node17" class="node"><title>MonitorBatchPublisher2</title>
<ellipse fill="none" stroke="black" cx="722.042" cy="-90" rx="98.2828" ry="18"/>
<text text-anchor="middle" x="722.042" y="-86.3" font-family="Times,serif" font-size="14.00">MonitorBatchPublisher2</text>
</g>
<!-- ReproPublish&#45;&gt;MonitorBatchPublisher2 -->
<g id="edge11" class="edge"><title>ReproPublish&#45;&gt;MonitorBatchPublisher2</title>
<path fill="none" stroke="black" d="M728.817,-143.697C727.826,-135.983 726.634,-126.712 725.528,-118.112"/>
<polygon fill="black" stroke="black" points="728.988,-117.576 724.241,-108.104 722.045,-118.469 728.988,-117.576"/>
</g>
<!-- MonitorBatchPublisher3 -->
<g id="node19" class="node"><title>MonitorBatchPublisher3</title>
<ellipse fill="none" stroke="black" cx="936.042" cy="-90" rx="98.2828" ry="18"/>
<text text-anchor="middle" x="936.042" y="-86.3" font-family="Times,serif" font-size="14.00">MonitorBatchPublisher3</text>
</g>
<!-- ReproPublish&#45;&gt;MonitorBatchPublisher3 -->
<g id="edge12" class="edge"><title>ReproPublish&#45;&gt;MonitorBatchPublisher3</title>
<path fill="none" stroke="black" d="M768.642,-148.161C800.339,-137.338 846.102,-121.711 881.771,-109.531"/>
<polygon fill="black" stroke="black" points="883.212,-112.738 891.544,-106.194 880.95,-106.114 883.212,-112.738"/>
</g>
<!-- MonitorBatchPublisher4 -->
<g id="node21" class="node"><title>MonitorBatchPublisher4</title>
<ellipse fill="none" stroke="black" cx="1150.04" cy="-90" rx="98.2828" ry="18"/>
<text text-anchor="middle" x="1150.04" y="-86.3" font-family="Times,serif" font-size="14.00">MonitorBatchPublisher4</text>
</g>
<!-- ReproPublish&#45;&gt;MonitorBatchPublisher4 -->
<g id="edge13" class="edge"><title>ReproPublish&#45;&gt;MonitorBatchPublisher4</title>
<path fill="none" stroke="black" d="M773.701,-149.653C782.07,-147.621 790.806,-145.633 799.042,-144 906.567,-122.681 934.688,-124.6 1043.04,-108 1051.33,-106.731 1059.97,-105.388 1068.6,-104.036"/>
<polygon fill="black" stroke="black" points="1069.36,-107.46 1078.69,-102.449 1068.27,-100.545 1069.36,-107.46"/>
</g>
<!-- gRPC&#45;PluginGetMetadata1 -->
<g id="node13" class="node"><title>gRPC&#45;PluginGetMetadata1</title>
<ellipse fill="none" stroke="black" cx="244.042" cy="-18" rx="107.781" ry="18"/>
<text text-anchor="middle" x="244.042" y="-14.3" font-family="Times,serif" font-size="14.00">gRPC&#45;PluginGetMetadata1</text>
</g>
<!-- MonitorBatchPublisher0&#45;&gt;gRPC&#45;PluginGetMetadata1 -->
<g id="edge14" class="edge"><title>MonitorBatchPublisher0&#45;&gt;gRPC&#45;PluginGetMetadata1</title>
<path fill="none" stroke="black" d="M281.938,-72.055C276.069,-63.8373 268.893,-53.7911 262.371,-44.6599"/>
<polygon fill="black" stroke="black" points="265.042,-42.3783 256.382,-36.2753 259.346,-46.447 265.042,-42.3783"/>
</g>
<!-- gRPC&#45;StopChannelSpin -->
<g id="node11" class="node"><title>gRPC&#45;StopChannelSpin</title>
<ellipse fill="none" stroke="black" cx="1362.04" cy="-90" rx="96.3833" ry="18"/>
<text text-anchor="middle" x="1362.04" y="-86.3" font-family="Times,serif" font-size="14.00">gRPC&#45;StopChannelSpin</text>
</g>
<!-- ConsumerHelper&#45;ConsumeBidirectionalStream&#45;&gt;gRPC&#45;StopChannelSpin -->
<g id="edge15" class="edge"><title>ConsumerHelper&#45;ConsumeBidirectionalStream&#45;&gt;gRPC&#45;StopChannelSpin</title>
<path fill="none" stroke="black" d="M1354.51,-143.697C1355.62,-135.983 1356.94,-126.712 1358.17,-118.112"/>
<polygon fill="black" stroke="black" points="1361.65,-118.499 1359.6,-108.104 1354.72,-117.509 1361.65,-118.499"/>
</g>
<!-- gRPC&#45;ConsumeRequestIterator -->
<g id="node12" class="node"><title>gRPC&#45;ConsumeRequestIterator</title>
<ellipse fill="none" stroke="black" cx="1598.04" cy="-90" rx="122.379" ry="18"/>
<text text-anchor="middle" x="1598.04" y="-86.3" font-family="Times,serif" font-size="14.00">gRPC&#45;ConsumeRequestIterator</text>
</g>
<!-- ConsumerHelper&#45;ConsumeBidirectionalStream&#45;&gt;gRPC&#45;ConsumeRequestIterator -->
<g id="edge16" class="edge"><title>ConsumerHelper&#45;ConsumeBidirectionalStream&#45;&gt;gRPC&#45;ConsumeRequestIterator</title>
<path fill="none" stroke="black" d="M1408.79,-144.853C1446.46,-134.133 1495.95,-120.05 1534.88,-108.974"/>
<polygon fill="black" stroke="black" points="1535.87,-112.33 1544.53,-106.227 1533.95,-105.597 1535.87,-112.33"/>
</g>
<!-- gRPC&#45;PluginGetMetadata2 -->
<g id="node14" class="node"><title>gRPC&#45;PluginGetMetadata2</title>
<ellipse fill="none" stroke="black" cx="1414.04" cy="-18" rx="107.781" ry="18"/>
<text text-anchor="middle" x="1414.04" y="-14.3" font-family="Times,serif" font-size="14.00">gRPC&#45;PluginGetMetadata2</text>
</g>
<!-- gRPC&#45;StopChannelSpin&#45;&gt;gRPC&#45;PluginGetMetadata2 -->
<g id="edge17" class="edge"><title>gRPC&#45;StopChannelSpin&#45;&gt;gRPC&#45;PluginGetMetadata2</title>
<path fill="none" stroke="black" d="M1374.63,-72.055C1380.8,-63.7526 1388.35,-53.5837 1395.19,-44.3778"/>
<polygon fill="black" stroke="black" points="1398.06,-46.3899 1401.21,-36.2753 1392.44,-42.2156 1398.06,-46.3899"/>
</g>
<!-- gRPC&#45;PluginGetMetadata3 -->
<g id="node16" class="node"><title>gRPC&#45;PluginGetMetadata3</title>
<ellipse fill="none" stroke="black" cx="478.042" cy="-18" rx="107.781" ry="18"/>
<text text-anchor="middle" x="478.042" y="-14.3" font-family="Times,serif" font-size="14.00">gRPC&#45;PluginGetMetadata3</text>
</g>
<!-- MonitorBatchPublisher1&#45;&gt;gRPC&#45;PluginGetMetadata3 -->
<g id="edge18" class="edge"><title>MonitorBatchPublisher1&#45;&gt;gRPC&#45;PluginGetMetadata3</title>
<path fill="none" stroke="black" d="M500.626,-71.6966C497.248,-63.8132 493.172,-54.3042 489.419,-45.5464"/>
<polygon fill="black" stroke="black" points="492.529,-43.9171 485.373,-36.1043 486.095,-46.6745 492.529,-43.9171"/>
</g>
<!-- gRPC&#45;PluginGetMetadata4 -->
<g id="node18" class="node"><title>gRPC&#45;PluginGetMetadata4</title>
<ellipse fill="none" stroke="black" cx="712.042" cy="-18" rx="107.781" ry="18"/>
<text text-anchor="middle" x="712.042" y="-14.3" font-family="Times,serif" font-size="14.00">gRPC&#45;PluginGetMetadata4</text>
</g>
<!-- MonitorBatchPublisher2&#45;&gt;gRPC&#45;PluginGetMetadata4 -->
<g id="edge19" class="edge"><title>MonitorBatchPublisher2&#45;&gt;gRPC&#45;PluginGetMetadata4</title>
<path fill="none" stroke="black" d="M719.57,-71.6966C718.468,-63.9827 717.144,-54.7125 715.915,-46.1124"/>
<polygon fill="black" stroke="black" points="719.365,-45.5088 714.486,-36.1043 712.435,-46.4988 719.365,-45.5088"/>
</g>
<!-- gRPC&#45;PluginGetMetadata5 -->
<g id="node20" class="node"><title>gRPC&#45;PluginGetMetadata5</title>
<ellipse fill="none" stroke="black" cx="946.042" cy="-18" rx="107.781" ry="18"/>
<text text-anchor="middle" x="946.042" y="-14.3" font-family="Times,serif" font-size="14.00">gRPC&#45;PluginGetMetadata5</text>
</g>
<!-- MonitorBatchPublisher3&#45;&gt;gRPC&#45;PluginGetMetadata5 -->
<g id="edge20" class="edge"><title>MonitorBatchPublisher3&#45;&gt;gRPC&#45;PluginGetMetadata5</title>
<path fill="none" stroke="black" d="M938.514,-71.6966C939.616,-63.9827 940.94,-54.7125 942.169,-46.1124"/>
<polygon fill="black" stroke="black" points="945.649,-46.4988 943.599,-36.1043 938.72,-45.5088 945.649,-46.4988"/>
</g>
<!-- gRPC&#45;PluginGetMetadata6 -->
<g id="node22" class="node"><title>gRPC&#45;PluginGetMetadata6</title>
<ellipse fill="none" stroke="black" cx="1180.04" cy="-18" rx="107.781" ry="18"/>
<text text-anchor="middle" x="1180.04" y="-14.3" font-family="Times,serif" font-size="14.00">gRPC&#45;PluginGetMetadata6</text>
</g>
<!-- MonitorBatchPublisher4&#45;&gt;gRPC&#45;PluginGetMetadata6 -->
<g id="edge21" class="edge"><title>MonitorBatchPublisher4&#45;&gt;gRPC&#45;PluginGetMetadata6</title>
<path fill="none" stroke="black" d="M1157.46,-71.6966C1160.84,-63.8132 1164.91,-54.3042 1168.67,-45.5464"/>
<polygon fill="black" stroke="black" points="1171.99,-46.6745 1172.71,-36.1043 1165.56,-43.9171 1171.99,-46.6745"/>
</g>
</g>
</svg>
