<?xml version="1.0" encoding="UTF-8" standalone="no"?>
<!DOCTYPE svg PUBLIC "-//W3C//DTD SVG 1.1//EN"
 "http://www.w3.org/Graphics/SVG/1.1/DTD/svg11.dtd">
<!-- Generated by graphviz version 2.38.0 (20140413.2041)
 -->
<!-- Title: G Pages: 1 -->
<svg width="1704pt" height="291pt"
 viewBox="0.00 0.00 1704.39 291.00" xmlns="http://www.w3.org/2000/svg" xmlns:xlink="http://www.w3.org/1999/xlink">
<g id="graph0" class="graph" transform="scale(1 1) rotate(0) translate(4 287)">
<title>G</title>
<polygon fill="white" stroke="none" points="-4,4 -4,-287 1700.39,-287 1700.39,4 -4,4"/>
<!-- Thread&#45;gRPC&#45;SubscribeMoot -->
<g id="node1" class="node"><title>Thread&#45;gRPC&#45;SubscribeMoot</title>
<ellipse fill="none" stroke="black" cx="159.042" cy="-178" rx="89.0842" ry="18"/>
<text text-anchor="middle" x="159.042" y="-174.3" font-family="Times,serif" font-size="14.00">gRPC&#45;SubscribeMoot</text>
</g>
<!-- Thread&#45;gRPC&#45;SpawnDelivery -->
<g id="node2" class="node"><title>Thread&#45;gRPC&#45;SpawnDelivery</title>
<ellipse fill="none" stroke="black" cx="89.0421" cy="-91" rx="89.0842" ry="18"/>
<text text-anchor="middle" x="89.0421" y="-87.3" font-family="Times,serif" font-size="14.00">gRPC&#45;SpawnDelivery</text>
</g>
<!-- Thread&#45;gRPC&#45;SubscribeMoot&#45;&gt;Thread&#45;gRPC&#45;SpawnDelivery -->
<g id="edge1" class="edge"><title>Thread&#45;gRPC&#45;SubscribeMoot&#45;&gt;Thread&#45;gRPC&#45;SpawnDelivery</title>
<path fill="none" stroke="black" d="M145.212,-160.207C135.02,-147.831 120.992,-130.796 109.505,-116.847"/>
<polygon fill="black" stroke="black" points="112.142,-114.544 103.083,-109.049 106.738,-118.994 112.142,-114.544"/>
</g>
<!-- Consumer helper: consume bidirectional stream -->
<g id="node3" class="node"><title>Consumer helper: consume bidirectional stream</title>
<ellipse fill="none" stroke="black" cx="635.042" cy="-178" rx="181.168" ry="18"/>
<text text-anchor="middle" x="635.042" y="-174.3" font-family="Times,serif" font-size="14.00">Consumer helper: consume bidirectional stream</text>
</g>
<!-- Thread&#45;gRPC&#45;PluginGetMetadata++ -->
<g id="node4" class="node"><title>Thread&#45;gRPC&#45;PluginGetMetadata++</title>
<ellipse fill="none" stroke="black" cx="299.042" cy="-91" rx="103.182" ry="18"/>
<text text-anchor="middle" x="299.042" y="-87.3" font-family="Times,serif" font-size="14.00">gRPC&#45;PluginGetMetadata</text>
</g>
<!-- Consumer helper: consume bidirectional stream&#45;&gt;Thread&#45;gRPC&#45;PluginGetMetadata++ -->
<g id="edge2" class="edge"><title>Consumer helper: consume bidirectional stream&#45;&gt;Thread&#45;gRPC&#45;PluginGetMetadata++</title>
<path fill="none" stroke="black" d="M572.237,-161.112C513.132,-146.16 424.958,-123.854 364.882,-108.656"/>
<polygon fill="black" stroke="black" points="365.672,-105.246 355.119,-106.186 363.956,-112.032 365.672,-105.246"/>
<text text-anchor="middle" x="491.542" y="-130.8" font-family="Times,serif" font-size="14.00">3</text>
</g>
<!-- Thread&#45;gRPC&#45;StopChannelSpin -->
<g id="node5" class="node"><title>Thread&#45;gRPC&#45;StopChannelSpin</title>
<ellipse fill="none" stroke="black" cx="517.042" cy="-91" rx="96.3833" ry="18"/>
<text text-anchor="middle" x="517.042" y="-87.3" font-family="Times,serif" font-size="14.00">gRPC&#45;StopChannelSpin</text>
</g>
<!-- Consumer helper: consume bidirectional stream&#45;&gt;Thread&#45;gRPC&#45;StopChannelSpin -->
<g id="edge3" class="edge"><title>Consumer helper: consume bidirectional stream&#45;&gt;Thread&#45;gRPC&#45;StopChannelSpin</title>
<path fill="none" stroke="black" d="M611.447,-160.003C593.321,-146.947 568.121,-128.794 548.316,-114.528"/>
<polygon fill="black" stroke="black" points="550.354,-111.683 540.195,-108.678 546.263,-117.362 550.354,-111.683"/>
<text text-anchor="middle" x="587.542" y="-130.8" font-family="Times,serif" font-size="14.00">3</text>
</g>
<!-- Thread&#45;gRPC&#45;ConsumeRequestIterator -->
<g id="node6" class="node"><title>Thread&#45;gRPC&#45;ConsumeRequestIterator</title>
<ellipse fill="none" stroke="black" cx="753.042" cy="-91" rx="122.379" ry="18"/>
<text text-anchor="middle" x="753.042" y="-87.3" font-family="Times,serif" font-size="14.00">gRPC&#45;ConsumeRequestIterator</text>
</g>
<!-- Consumer helper: consume bidirectional stream&#45;&gt;Thread&#45;gRPC&#45;ConsumeRequestIterator -->
<g id="edge4" class="edge"><title>Consumer helper: consume bidirectional stream&#45;&gt;Thread&#45;gRPC&#45;ConsumeRequestIterator</title>
<path fill="none" stroke="black" d="M658.638,-160.003C676.763,-146.947 701.963,-128.794 721.768,-114.528"/>
<polygon fill="black" stroke="black" points="723.821,-117.362 729.89,-108.678 719.73,-111.683 723.821,-117.362"/>
<text text-anchor="middle" x="705.542" y="-130.8" font-family="Times,serif" font-size="14.00">3</text>
</g>
<!-- ThreadPoolExecutor&#45;0 -->
<g id="node7" class="node"><title>ThreadPoolExecutor&#45;0</title>
<ellipse fill="none" stroke="black" cx="984.042" cy="-91" rx="90.9839" ry="18"/>
<text text-anchor="middle" x="984.042" y="-87.3" font-family="Times,serif" font-size="14.00">ThreadPoolExecutor&#45;0</text>
</g>
<!-- Consumer helper: consume bidirectional stream&#45;&gt;ThreadPoolExecutor&#45;0 -->
<g id="edge5" class="edge"><title>Consumer helper: consume bidirectional stream&#45;&gt;ThreadPoolExecutor&#45;0</title>
<path fill="none" stroke="black" d="M700.277,-161.112C762.92,-145.855 856.997,-122.942 919.431,-107.736"/>
<polygon fill="black" stroke="black" points="920.282,-111.131 929.169,-105.364 918.625,-104.33 920.282,-111.131"/>
<text text-anchor="middle" x="838.042" y="-130.8" font-family="Times,serif" font-size="14.00">10</text>
</g>
<!-- Thread&#45;MonitorBatchPublisher -->
<g id="node8" class="node"><title>Thread&#45;MonitorBatchPublisher</title>
<ellipse fill="none" stroke="black" cx="1187.04" cy="-91" rx="93.6835" ry="18"/>
<text text-anchor="middle" x="1187.04" y="-87.3" font-family="Times,serif" font-size="14.00">MonitorBatchPublisher</text>
</g>
<!-- Thread&#45;gRPC&#45;PluginGetMetadata+++ -->
<g id="node9" class="node"><title>Thread&#45;gRPC&#45;PluginGetMetadata+++</title>
<ellipse fill="none" stroke="black" cx="1187.04" cy="-18" rx="103.182" ry="18"/>
<text text-anchor="middle" x="1187.04" y="-14.3" font-family="Times,serif" font-size="14.00">gRPC&#45;PluginGetMetadata</text>
</g>
<!-- Thread&#45;MonitorBatchPublisher&#45;&gt;Thread&#45;gRPC&#45;PluginGetMetadata+++ -->
<g id="edge6" class="edge"><title>Thread&#45;MonitorBatchPublisher&#45;&gt;Thread&#45;gRPC&#45;PluginGetMetadata+++</title>
<path fill="none" stroke="black" d="M1187.04,-72.8129C1187.04,-64.7895 1187.04,-55.0475 1187.04,-46.0691"/>
<polygon fill="black" stroke="black" points="1190.54,-46.0288 1187.04,-36.0288 1183.54,-46.0289 1190.54,-46.0288"/>
</g>
<!-- Thread&#45;ReproPublish -->
<g id="node10" class="node"><title>Thread&#45;ReproPublish</title>
<ellipse fill="none" stroke="black" cx="893.042" cy="-178" rx="58.4896" ry="18"/>
<text text-anchor="middle" x="893.042" y="-174.3" font-family="Times,serif" font-size="14.00">ReproPublish</text>
</g>
<!-- Thread&#45;ReproPublish&#45;&gt;Thread&#45;MonitorBatchPublisher -->
<g id="edge7" class="edge"><title>Thread&#45;ReproPublish&#45;&gt;Thread&#45;MonitorBatchPublisher</title>
<path fill="none" stroke="black" d="M934.231,-165.092C984.65,-150.515 1070.4,-125.723 1127.87,-109.108"/>
<polygon fill="black" stroke="black" points="1128.91,-112.45 1137.55,-106.31 1126.97,-105.725 1128.91,-112.45"/>
<text text-anchor="middle" x="1061.54" y="-130.8" font-family="Times,serif" font-size="14.00">4</text>
</g>
<!-- MainThread -->
<g id="node11" class="node"><title>MainThread</title>
<ellipse fill="none" stroke="black" cx="1028.04" cy="-265" rx="54.6905" ry="18"/>
<text text-anchor="middle" x="1028.04" y="-261.3" font-family="Times,serif" font-size="14.00">MainThread</text>
</g>
<!-- MainThread&#45;&gt;Thread&#45;gRPC&#45;SubscribeMoot -->
<g id="edge8" class="edge"><title>MainThread&#45;&gt;Thread&#45;gRPC&#45;SubscribeMoot</title>
<path fill="none" stroke="black" d="M976.285,-258.937C832.572,-244.88 427.387,-205.248 247.259,-187.629"/>
<polygon fill="black" stroke="black" points="247.581,-184.144 237.287,-186.653 246.899,-191.11 247.581,-184.144"/>
<text text-anchor="middle" x="649.542" y="-217.8" font-family="Times,serif" font-size="14.00">2</text>
</g>
<!-- MainThread&#45;&gt;Consumer helper: consume bidirectional stream -->
<g id="edge11" class="edge"><title>MainThread&#45;&gt;Consumer helper: consume bidirectional stream</title>
<path fill="none" stroke="black" d="M983.724,-254.415C919.234,-240.466 798.395,-214.331 717.311,-196.794"/>
<polygon fill="black" stroke="black" points="717.647,-193.285 707.133,-194.592 716.167,-200.127 717.647,-193.285"/>
</g>
<!-- MainThread&#45;&gt;Thread&#45;ReproPublish -->
<g id="edge13" class="edge"><title>MainThread&#45;&gt;Thread&#45;ReproPublish</title>
<path fill="none" stroke="black" d="M1003.91,-248.804C982.292,-235.194 950.389,-215.107 926.349,-199.971"/>
<polygon fill="black" stroke="black" points="928.209,-197.006 917.882,-194.64 924.479,-202.93 928.209,-197.006"/>
</g>
<!-- Thread&#45;gRPC&#45;PluginGetMetadata -->
<g id="node12" class="node"><title>Thread&#45;gRPC&#45;PluginGetMetadata</title>
<ellipse fill="none" stroke="black" cx="1073.04" cy="-178" rx="103.182" ry="18"/>
<text text-anchor="middle" x="1073.04" y="-174.3" font-family="Times,serif" font-size="14.00">gRPC&#45;PluginGetMetadata</text>
</g>
<!-- MainThread&#45;&gt;Thread&#45;gRPC&#45;PluginGetMetadata -->
<g id="edge9" class="edge"><title>MainThread&#45;&gt;Thread&#45;gRPC&#45;PluginGetMetadata</title>
<path fill="none" stroke="black" d="M1036.93,-247.207C1043.3,-235.178 1052,-218.748 1059.26,-205.028"/>
<polygon fill="black" stroke="black" points="1062.43,-206.525 1064.02,-196.049 1056.24,-203.25 1062.43,-206.525"/>
<text text-anchor="middle" x="1057.54" y="-217.8" font-family="Times,serif" font-size="14.00">5</text>
</g>
<!-- Consumer helper: callback requests worker -->
<g id="node13" class="node"><title>Consumer helper: callback requests worker</title>
<ellipse fill="none" stroke="black" cx="1359.04" cy="-178" rx="164.371" ry="18"/>
<text text-anchor="middle" x="1359.04" y="-174.3" font-family="Times,serif" font-size="14.00">Consumer helper: callback requests worker</text>
</g>
<!-- MainThread&#45;&gt;Consumer helper: callback requests worker -->
<g id="edge10" class="edge"><title>MainThread&#45;&gt;Consumer helper: callback requests worker</title>
<path fill="none" stroke="black" d="M1069.63,-253.321C1124.29,-239.283 1221.16,-214.407 1287.66,-197.33"/>
<polygon fill="black" stroke="black" points="1288.84,-200.641 1297.66,-194.764 1287.1,-193.861 1288.84,-200.641"/>
</g>
<!-- Thread&#45;LeaseMaintenance -->
<g id="node14" class="node"><title>Thread&#45;LeaseMaintenance</title>
<ellipse fill="none" stroke="black" cx="1619.04" cy="-178" rx="77.1866" ry="18"/>
<text text-anchor="middle" x="1619.04" y="-174.3" font-family="Times,serif" font-size="14.00">LeaseMaintenance</text>
</g>
<!-- MainThread&#45;&gt;Thread&#45;LeaseMaintenance -->
<g id="edge12" class="edge"><title>MainThread&#45;&gt;Thread&#45;LeaseMaintenance</title>
<path fill="none" stroke="black" d="M1078.62,-258.175C1169.59,-247.477 1366.74,-223.277 1532.04,-196 1538.78,-194.889 1545.79,-193.653 1552.78,-192.368"/>
<polygon fill="black" stroke="black" points="1553.78,-195.74 1562.97,-190.46 1552.5,-188.86 1553.78,-195.74"/>
</g>
</g>
</svg>
