<?xml version="1.0" encoding="UTF-8" standalone="no"?>
<!DOCTYPE svg PUBLIC "-//W3C//DTD SVG 1.1//EN"
 "http://www.w3.org/Graphics/SVG/1.1/DTD/svg11.dtd">
<!-- Generated by graphviz version 2.38.0 (20140413.2041)
 -->
<!-- Title: G Pages: 1 -->
<svg width="1061pt" height="395pt"
 viewBox="0.00 0.00 1060.92 395.00" xmlns="http://www.w3.org/2000/svg" xmlns:xlink="http://www.w3.org/1999/xlink">
<g id="graph0" class="graph" transform="scale(1 1) rotate(0) translate(4 391)">
<title>G</title>
<polygon fill="white" stroke="none" points="-4,4 -4,-391 1056.92,-391 1056.92,4 -4,4"/>
<!-- Thread&#45;gRPC&#45;SubscribeMoot -->
<g id="node1" class="node"><title>Thread&#45;gRPC&#45;SubscribeMoot</title>
<ellipse fill="none" stroke="black" cx="333.524" cy="-345" rx="89.0842" ry="18"/>
<text text-anchor="middle" x="333.524" y="-341.3" font-family="Times,serif" font-size="14.00">gRPC&#45;SubscribeMoot</text>
</g>
<!-- Thread&#45;gRPC&#45;SpawnDelivery -->
<g id="node2" class="node"><title>Thread&#45;gRPC&#45;SpawnDelivery</title>
<ellipse fill="none" stroke="black" cx="687.047" cy="-369" rx="89.0842" ry="18"/>
<text text-anchor="middle" x="687.047" y="-365.3" font-family="Times,serif" font-size="14.00">gRPC&#45;SpawnDelivery</text>
</g>
<!-- Thread&#45;gRPC&#45;SubscribeMoot&#45;&gt;Thread&#45;gRPC&#45;SpawnDelivery -->
<g id="edge1" class="edge"><title>Thread&#45;gRPC&#45;SubscribeMoot&#45;&gt;Thread&#45;gRPC&#45;SpawnDelivery</title>
<path fill="none" stroke="black" d="M418.276,-350.718C470.549,-354.287 537.944,-358.888 592.042,-362.582"/>
<polygon fill="black" stroke="black" points="592.113,-366.095 602.328,-363.284 592.59,-359.111 592.113,-366.095"/>
</g>
<!-- Consumer helper: consume bidirectional stream -->
<g id="node3" class="node"><title>Consumer helper: consume bidirectional stream</title>
<ellipse fill="none" stroke="black" cx="333.524" cy="-234" rx="181.168" ry="18"/>
<text text-anchor="middle" x="333.524" y="-230.3" font-family="Times,serif" font-size="14.00">Consumer helper: consume bidirectional stream</text>
</g>
<!-- Thread&#45;gRPC&#45;PluginGetMetadata++ -->
<g id="node4" class="node"><title>Thread&#45;gRPC&#45;PluginGetMetadata++</title>
<ellipse fill="none" stroke="black" cx="687.047" cy="-315" rx="103.182" ry="18"/>
<text text-anchor="middle" x="687.047" y="-311.3" font-family="Times,serif" font-size="14.00">gRPC&#45;PluginGetMetadata</text>
</g>
<!-- Consumer helper: consume bidirectional stream&#45;&gt;Thread&#45;gRPC&#45;PluginGetMetadata++ -->
<g id="edge2" class="edge"><title>Consumer helper: consume bidirectional stream&#45;&gt;Thread&#45;gRPC&#45;PluginGetMetadata++</title>
<path fill="none" stroke="black" d="M404.534,-250.626C450.159,-261.408 511.005,-275.689 564.858,-288 580.113,-291.488 596.462,-295.168 612.058,-298.652"/>
<polygon fill="black" stroke="black" points="611.657,-302.149 622.179,-300.91 613.18,-295.317 611.657,-302.149"/>
<text text-anchor="middle" x="539.858" y="-286.8" font-family="Times,serif" font-size="14.00">4</text>
</g>
<!-- Thread&#45;gRPC&#45;StopChannelSpin -->
<g id="node5" class="node"><title>Thread&#45;gRPC&#45;StopChannelSpin</title>
<ellipse fill="none" stroke="black" cx="687.047" cy="-261" rx="96.3833" ry="18"/>
<text text-anchor="middle" x="687.047" y="-257.3" font-family="Times,serif" font-size="14.00">gRPC&#45;StopChannelSpin</text>
</g>
<!-- Consumer helper: consume bidirectional stream&#45;&gt;Thread&#45;gRPC&#45;StopChannelSpin -->
<g id="edge3" class="edge"><title>Consumer helper: consume bidirectional stream&#45;&gt;Thread&#45;gRPC&#45;StopChannelSpin</title>
<path fill="none" stroke="black" d="M477.502,-244.982C514.366,-247.813 553.224,-250.798 587.277,-253.414"/>
<polygon fill="black" stroke="black" points="587.445,-256.937 597.684,-254.213 587.981,-249.957 587.445,-256.937"/>
<text text-anchor="middle" x="539.858" y="-252.8" font-family="Times,serif" font-size="14.00">4</text>
</g>
<!-- Thread&#45;gRPC&#45;ConsumeRequestIterator -->
<g id="node6" class="node"><title>Thread&#45;gRPC&#45;ConsumeRequestIterator</title>
<ellipse fill="none" stroke="black" cx="687.047" cy="-207" rx="122.379" ry="18"/>
<text text-anchor="middle" x="687.047" y="-203.3" font-family="Times,serif" font-size="14.00">gRPC&#45;ConsumeRequestIterator</text>
</g>
<!-- Consumer helper: consume bidirectional stream&#45;&gt;Thread&#45;gRPC&#45;ConsumeRequestIterator -->
<g id="edge4" class="edge"><title>Consumer helper: consume bidirectional stream&#45;&gt;Thread&#45;gRPC&#45;ConsumeRequestIterator</title>
<path fill="none" stroke="black" d="M477.502,-223.018C507.598,-220.706 539.023,-218.293 568.078,-216.061"/>
<polygon fill="black" stroke="black" points="568.547,-219.535 578.25,-215.28 568.011,-212.556 568.547,-219.535"/>
<text text-anchor="middle" x="539.858" y="-221.8" font-family="Times,serif" font-size="14.00">4</text>
</g>
<!-- ThreadPoolExecutor&#45;0 -->
<g id="node7" class="node"><title>ThreadPoolExecutor&#45;0</title>
<ellipse fill="none" stroke="black" cx="687.047" cy="-153" rx="90.9839" ry="18"/>
<text text-anchor="middle" x="687.047" y="-149.3" font-family="Times,serif" font-size="14.00">ThreadPoolExecutor&#45;0</text>
</g>
<!-- Consumer helper: consume bidirectional stream&#45;&gt;ThreadPoolExecutor&#45;0 -->
<g id="edge5" class="edge"><title>Consumer helper: consume bidirectional stream&#45;&gt;ThreadPoolExecutor&#45;0</title>
<path fill="none" stroke="black" d="M459.542,-221.046C478.334,-217.449 497.29,-212.859 514.858,-207 538.816,-199.011 541.197,-188.83 564.858,-180 578.477,-174.918 593.331,-170.639 607.824,-167.094"/>
<polygon fill="black" stroke="black" points="608.845,-170.45 617.78,-164.756 607.244,-163.635 608.845,-170.45"/>
<text text-anchor="middle" x="539.858" y="-201.8" font-family="Times,serif" font-size="14.00">10</text>
</g>
<!-- Thread&#45;MonitorBatchPublisher -->
<g id="node8" class="node"><title>Thread&#45;MonitorBatchPublisher</title>
<ellipse fill="none" stroke="black" cx="687.047" cy="-99" rx="93.6835" ry="18"/>
<text text-anchor="middle" x="687.047" y="-95.3" font-family="Times,serif" font-size="14.00">MonitorBatchPublisher</text>
</g>
<!-- Thread&#45;gRPC&#45;PluginGetMetadata+++ -->
<g id="node9" class="node"><title>Thread&#45;gRPC&#45;PluginGetMetadata+++</title>
<ellipse fill="none" stroke="black" cx="949.577" cy="-99" rx="103.182" ry="18"/>
<text text-anchor="middle" x="949.577" y="-95.3" font-family="Times,serif" font-size="14.00">gRPC&#45;PluginGetMetadata</text>
</g>
<!-- Thread&#45;MonitorBatchPublisher&#45;&gt;Thread&#45;gRPC&#45;PluginGetMetadata+++ -->
<g id="edge6" class="edge"><title>Thread&#45;MonitorBatchPublisher&#45;&gt;Thread&#45;gRPC&#45;PluginGetMetadata+++</title>
<path fill="none" stroke="black" d="M781.001,-99C798.756,-99 817.522,-99 835.818,-99"/>
<polygon fill="black" stroke="black" points="835.925,-102.5 845.924,-99 835.924,-95.5001 835.925,-102.5"/>
</g>
<!-- Thread&#45;ReproPublish -->
<g id="node10" class="node"><title>Thread&#45;ReproPublish</title>
<ellipse fill="none" stroke="black" cx="333.524" cy="-180" rx="58.4896" ry="18"/>
<text text-anchor="middle" x="333.524" y="-176.3" font-family="Times,serif" font-size="14.00">ReproPublish</text>
</g>
<!-- Thread&#45;ReproPublish&#45;&gt;Thread&#45;MonitorBatchPublisher -->
<g id="edge7" class="edge"><title>Thread&#45;ReproPublish&#45;&gt;Thread&#45;MonitorBatchPublisher</title>
<path fill="none" stroke="black" d="M391.343,-176.553C427.448,-173.138 474.767,-166.369 514.858,-153 538.816,-145.011 541.197,-134.83 564.858,-126 578.231,-121.009 592.794,-116.794 607.038,-113.287"/>
<polygon fill="black" stroke="black" points="607.902,-116.679 616.828,-110.971 606.291,-109.867 607.902,-116.679"/>
<text text-anchor="middle" x="539.858" y="-147.8" font-family="Times,serif" font-size="14.00">4</text>
</g>
<!-- MainThread -->
<g id="node11" class="node"><title>MainThread</title>
<ellipse fill="none" stroke="black" cx="54.5952" cy="-147" rx="54.6905" ry="18"/>
<text text-anchor="middle" x="54.5952" y="-143.3" font-family="Times,serif" font-size="14.00">MainThread</text>
</g>
<!-- MainThread&#45;&gt;Thread&#45;gRPC&#45;SubscribeMoot -->
<g id="edge8" class="edge"><title>MainThread&#45;&gt;Thread&#45;gRPC&#45;SubscribeMoot</title>
<path fill="none" stroke="black" d="M67.0863,-164.91C83.4862,-189.31 115.69,-233.143 152.19,-261 189.869,-289.756 238.975,-311.821 276.428,-326.105"/>
<polygon fill="black" stroke="black" points="275.58,-329.525 286.173,-329.747 278.031,-322.968 275.58,-329.525"/>
<text text-anchor="middle" x="130.69" y="-248.8" font-family="Times,serif" font-size="14.00">2</text>
</g>
<!-- MainThread&#45;&gt;Consumer helper: consume bidirectional stream -->
<g id="edge11" class="edge"><title>MainThread&#45;&gt;Consumer helper: consume bidirectional stream</title>
<path fill="none" stroke="black" d="M76.5231,-163.536C95.2524,-177.437 124.025,-196.648 152.19,-207 165.469,-211.88 179.606,-215.88 193.898,-219.157"/>
<polygon fill="black" stroke="black" points="193.294,-222.607 203.809,-221.312 194.781,-215.767 193.294,-222.607"/>
</g>
<!-- MainThread&#45;&gt;Thread&#45;ReproPublish -->
<g id="edge13" class="edge"><title>MainThread&#45;&gt;Thread&#45;ReproPublish</title>
<path fill="none" stroke="black" d="M106.066,-153.014C151.749,-158.458 219.252,-166.502 268.673,-172.391"/>
<polygon fill="black" stroke="black" points="268.273,-175.868 278.617,-173.576 269.101,-168.917 268.273,-175.868"/>
</g>
<!-- Thread&#45;gRPC&#45;PluginGetMetadata -->
<g id="node12" class="node"><title>Thread&#45;gRPC&#45;PluginGetMetadata</title>
<ellipse fill="none" stroke="black" cx="333.524" cy="-126" rx="103.182" ry="18"/>
<text text-anchor="middle" x="333.524" y="-122.3" font-family="Times,serif" font-size="14.00">gRPC&#45;PluginGetMetadata</text>
</g>
<!-- MainThread&#45;&gt;Thread&#45;gRPC&#45;PluginGetMetadata -->
<g id="edge9" class="edge"><title>MainThread&#45;&gt;Thread&#45;gRPC&#45;PluginGetMetadata</title>
<path fill="none" stroke="black" d="M106.41,-141.017C113.387,-140.285 120.462,-139.589 127.19,-139 158.737,-136.24 193.06,-133.833 224.452,-131.865"/>
<polygon fill="black" stroke="black" points="224.77,-135.352 234.534,-131.242 224.337,-128.366 224.77,-135.352"/>
<text text-anchor="middle" x="130.69" y="-142.8" font-family="Times,serif" font-size="14.00">5</text>
</g>
<!-- Consumer helper: callback requests worker -->
<g id="node13" class="node"><title>Consumer helper: callback requests worker</title>
<ellipse fill="none" stroke="black" cx="333.524" cy="-72" rx="164.371" ry="18"/>
<text text-anchor="middle" x="333.524" y="-68.3" font-family="Times,serif" font-size="14.00">Consumer helper: callback requests worker</text>
</g>
<!-- MainThread&#45;&gt;Consumer helper: callback requests worker -->
<g id="edge10" class="edge"><title>MainThread&#45;&gt;Consumer helper: callback requests worker</title>
<path fill="none" stroke="black" d="M81.7169,-131.213C100.638,-120.488 127.183,-106.87 152.19,-99 168.472,-93.876 185.895,-89.7127 203.256,-86.3327"/>
<polygon fill="black" stroke="black" points="204.271,-89.7038 213.461,-84.4318 202.989,-82.8222 204.271,-89.7038"/>
</g>
<!-- Thread&#45;LeaseMaintenance -->
<g id="node14" class="node"><title>Thread&#45;LeaseMaintenance</title>
<ellipse fill="none" stroke="black" cx="333.524" cy="-18" rx="77.1866" ry="18"/>
<text text-anchor="middle" x="333.524" y="-14.3" font-family="Times,serif" font-size="14.00">LeaseMaintenance</text>
</g>
<!-- MainThread&#45;&gt;Thread&#45;LeaseMaintenance -->
<g id="edge12" class="edge"><title>MainThread&#45;&gt;Thread&#45;LeaseMaintenance</title>
<path fill="none" stroke="black" d="M66.848,-129.157C82.7455,-105.614 114.129,-64.8449 152.19,-45 180.562,-30.2071 214.642,-22.8864 245.499,-19.4436"/>
<polygon fill="black" stroke="black" points="246.221,-22.8892 255.827,-18.4195 245.531,-15.9233 246.221,-22.8892"/>
</g>
</g>
</svg>
