<?xml version="1.0" encoding="UTF-8" standalone="no"?>
<!DOCTYPE svg PUBLIC "-//W3C//DTD SVG 1.1//EN"
 "http://www.w3.org/Graphics/SVG/1.1/DTD/svg11.dtd">
<!-- Generated by graphviz version 2.38.0 (20140413.2041)
 -->
<!-- Title: %3 Pages: 1 -->
<svg width="5771pt" height="260pt"
 viewBox="0.00 0.00 5771.33 260.00" xmlns="http://www.w3.org/2000/svg" xmlns:xlink="http://www.w3.org/1999/xlink">
<g id="graph0" class="graph" transform="scale(1 1) rotate(0) translate(4 256)">
<title>%3</title>
<polygon fill="white" stroke="none" points="-4,4 -4,-256 5767.33,-256 5767.33,4 -4,4"/>
<!-- MainThread -->
<g id="node1" class="node"><title>MainThread</title>
<ellipse fill="none" stroke="black" cx="1030.59" cy="-234" rx="54.6905" ry="18"/>
<text text-anchor="middle" x="1030.59" y="-230.3" font-family="Times,serif" font-size="14.00">MainThread</text>
</g>
<!-- gRPC&#45;SubscribeMoot0 -->
<g id="node2" class="node"><title>gRPC&#45;SubscribeMoot0</title>
<ellipse fill="none" stroke="black" cx="93.5917" cy="-162" rx="92.8835" ry="18"/>
<text text-anchor="middle" x="93.5917" y="-158.3" font-family="Times,serif" font-size="14.00">gRPC&#45;SubscribeMoot0</text>
</g>
<!-- MainThread&#45;&gt;gRPC&#45;SubscribeMoot0 -->
<g id="edge1" class="edge"><title>MainThread&#45;&gt;gRPC&#45;SubscribeMoot0</title>
<path fill="none" stroke="black" d="M976.204,-231.464C842.809,-227.281 488.901,-213.663 195.592,-180 186.909,-179.004 177.841,-177.771 168.847,-176.429"/>
<polygon fill="black" stroke="black" points="169.165,-172.937 158.749,-174.874 168.099,-179.855 169.165,-172.937"/>
</g>
<!-- gRPC&#45;SubscribeMoot1 -->
<g id="node4" class="node"><title>gRPC&#45;SubscribeMoot1</title>
<ellipse fill="none" stroke="black" cx="297.592" cy="-162" rx="92.8835" ry="18"/>
<text text-anchor="middle" x="297.592" y="-158.3" font-family="Times,serif" font-size="14.00">gRPC&#45;SubscribeMoot1</text>
</g>
<!-- MainThread&#45;&gt;gRPC&#45;SubscribeMoot1 -->
<g id="edge2" class="edge"><title>MainThread&#45;&gt;gRPC&#45;SubscribeMoot1</title>
<path fill="none" stroke="black" d="M977.255,-229.99C868.386,-223.521 612.851,-206.683 399.592,-180 391.049,-178.931 382.129,-177.666 373.27,-176.316"/>
<polygon fill="black" stroke="black" points="373.74,-172.847 363.32,-174.762 372.66,-179.763 373.74,-172.847"/>
</g>
<!-- gRPC&#45;PluginGetMetadata0 -->
<g id="node6" class="node"><title>gRPC&#45;PluginGetMetadata0</title>
<ellipse fill="none" stroke="black" cx="516.592" cy="-162" rx="107.781" ry="18"/>
<text text-anchor="middle" x="516.592" y="-158.3" font-family="Times,serif" font-size="14.00">gRPC&#45;PluginGetMetadata0</text>
</g>
<!-- MainThread&#45;&gt;gRPC&#45;PluginGetMetadata0 -->
<g id="edge3" class="edge"><title>MainThread&#45;&gt;gRPC&#45;PluginGetMetadata0</title>
<path fill="none" stroke="black" d="M980.742,-226.533C905.494,-216.729 758.417,-197.4 633.592,-180 624.237,-178.696 614.465,-177.312 604.728,-175.918"/>
<polygon fill="black" stroke="black" points="605.009,-172.422 594.613,-174.465 604.014,-179.351 605.009,-172.422"/>
</g>
<!-- gRPC&#45;PluginGetMetadata1 -->
<g id="node7" class="node"><title>gRPC&#45;PluginGetMetadata1</title>
<ellipse fill="none" stroke="black" cx="750.592" cy="-162" rx="107.781" ry="18"/>
<text text-anchor="middle" x="750.592" y="-158.3" font-family="Times,serif" font-size="14.00">gRPC&#45;PluginGetMetadata1</text>
</g>
<!-- MainThread&#45;&gt;gRPC&#45;PluginGetMetadata1 -->
<g id="edge4" class="edge"><title>MainThread&#45;&gt;gRPC&#45;PluginGetMetadata1</title>
<path fill="none" stroke="black" d="M988.37,-222.445C943.159,-211.142 870.777,-193.046 817.736,-179.786"/>
<polygon fill="black" stroke="black" points="818.285,-176.316 807.735,-177.286 816.587,-183.107 818.285,-176.316"/>
</g>
<!-- LeaseMaintenance -->
<g id="node9" class="node"><title>LeaseMaintenance</title>
<ellipse fill="none" stroke="black" cx="953.592" cy="-162" rx="77.1866" ry="18"/>
<text text-anchor="middle" x="953.592" y="-158.3" font-family="Times,serif" font-size="14.00">LeaseMaintenance</text>
</g>
<!-- MainThread&#45;&gt;LeaseMaintenance -->
<g id="edge7" class="edge"><title>MainThread&#45;&gt;LeaseMaintenance</title>
<path fill="none" stroke="black" d="M1012.73,-216.765C1002.87,-207.795 990.431,-196.49 979.512,-186.564"/>
<polygon fill="black" stroke="black" points="981.642,-183.77 971.888,-179.633 976.933,-188.95 981.642,-183.77"/>
</g>
<!-- ReproPublish -->
<g id="node10" class="node"><title>ReproPublish</title>
<ellipse fill="none" stroke="black" cx="1107.59" cy="-162" rx="58.4896" ry="18"/>
<text text-anchor="middle" x="1107.59" y="-158.3" font-family="Times,serif" font-size="14.00">ReproPublish</text>
</g>
<!-- MainThread&#45;&gt;ReproPublish -->
<g id="edge8" class="edge"><title>MainThread&#45;&gt;ReproPublish</title>
<path fill="none" stroke="black" d="M1048.45,-216.765C1058.39,-207.73 1070.93,-196.326 1081.91,-186.349"/>
<polygon fill="black" stroke="black" points="1084.52,-188.706 1089.56,-179.39 1079.81,-183.527 1084.52,-188.706"/>
</g>
<!-- gRPC&#45;PluginGetMetadata9 -->
<g id="node38" class="node"><title>gRPC&#45;PluginGetMetadata9</title>
<ellipse fill="none" stroke="black" cx="1291.59" cy="-162" rx="107.781" ry="18"/>
<text text-anchor="middle" x="1291.59" y="-158.3" font-family="Times,serif" font-size="14.00">gRPC&#45;PluginGetMetadata9</text>
</g>
<!-- MainThread&#45;&gt;gRPC&#45;PluginGetMetadata9 -->
<g id="edge9" class="edge"><title>MainThread&#45;&gt;gRPC&#45;PluginGetMetadata9</title>
<path fill="none" stroke="black" d="M1071.66,-221.985C1113.43,-210.783 1178.75,-193.264 1227.36,-180.226"/>
<polygon fill="black" stroke="black" points="1228.41,-183.569 1237.16,-177.598 1226.6,-176.808 1228.41,-183.569"/>
</g>
<!-- gRPC&#45;PluginGetMetadata10 -->
<g id="node39" class="node"><title>gRPC&#45;PluginGetMetadata10</title>
<ellipse fill="none" stroke="black" cx="1529.59" cy="-162" rx="112.38" ry="18"/>
<text text-anchor="middle" x="1529.59" y="-158.3" font-family="Times,serif" font-size="14.00">gRPC&#45;PluginGetMetadata10</text>
</g>
<!-- MainThread&#45;&gt;gRPC&#45;PluginGetMetadata10 -->
<g id="edge10" class="edge"><title>MainThread&#45;&gt;gRPC&#45;PluginGetMetadata10</title>
<path fill="none" stroke="black" d="M1070.33,-221.486C1078.32,-219.444 1086.68,-217.495 1094.59,-216 1232.62,-189.9 1269.25,-197.773 1408.59,-180 1418.38,-178.752 1428.6,-177.396 1438.78,-176.014"/>
<polygon fill="black" stroke="black" points="1439.49,-179.449 1448.92,-174.625 1438.54,-172.513 1439.49,-179.449"/>
</g>
<!-- Consumer helper: callback requests worker -->
<g id="node40" class="node"><title>Consumer helper: callback requests worker</title>
<ellipse fill="none" stroke="black" cx="1824.59" cy="-162" rx="164.371" ry="18"/>
<text text-anchor="middle" x="1824.59" y="-158.3" font-family="Times,serif" font-size="14.00">Consumer helper: callback requests worker</text>
</g>
<!-- MainThread&#45;&gt;Consumer helper: callback requests worker -->
<g id="edge5" class="edge"><title>MainThread&#45;&gt;Consumer helper: callback requests worker</title>
<path fill="none" stroke="black" d="M1069.59,-221.349C1077.79,-219.266 1086.42,-217.336 1094.59,-216 1338.97,-176.024 1403.78,-200.042 1650.59,-180 1666.25,-178.729 1682.69,-177.276 1698.95,-175.768"/>
<polygon fill="black" stroke="black" points="1699.42,-179.24 1709.05,-174.823 1698.77,-172.271 1699.42,-179.24"/>
</g>
<!-- Consumer helper: consume bidirectional stream -->
<g id="node41" class="node"><title>Consumer helper: consume bidirectional stream</title>
<ellipse fill="none" stroke="black" cx="3454.59" cy="-162" rx="181.168" ry="18"/>
<text text-anchor="middle" x="3454.59" y="-158.3" font-family="Times,serif" font-size="14.00">Consumer helper: consume bidirectional stream</text>
</g>
<!-- MainThread&#45;&gt;Consumer helper: consume bidirectional stream -->
<g id="edge6" class="edge"><title>MainThread&#45;&gt;Consumer helper: consume bidirectional stream</title>
<path fill="none" stroke="black" d="M1069.21,-221.167C1077.51,-219.069 1086.28,-217.18 1094.59,-216 1306.34,-185.936 2741.84,-169.662 3264.65,-164.678"/>
<polygon fill="black" stroke="black" points="3264.97,-168.175 3274.93,-164.58 3264.9,-161.176 3264.97,-168.175"/>
</g>
<!-- gRPC&#45;SpawnDelivery0 -->
<g id="node3" class="node"><title>gRPC&#45;SpawnDelivery0</title>
<ellipse fill="none" stroke="black" cx="93.5917" cy="-90" rx="93.6835" ry="18"/>
<text text-anchor="middle" x="93.5917" y="-86.3" font-family="Times,serif" font-size="14.00">gRPC&#45;SpawnDelivery0</text>
</g>
<!-- gRPC&#45;SubscribeMoot0&#45;&gt;gRPC&#45;SpawnDelivery0 -->
<g id="edge11" class="edge"><title>gRPC&#45;SubscribeMoot0&#45;&gt;gRPC&#45;SpawnDelivery0</title>
<path fill="none" stroke="black" d="M93.5917,-143.697C93.5917,-135.983 93.5917,-126.712 93.5917,-118.112"/>
<polygon fill="black" stroke="black" points="97.0918,-118.104 93.5917,-108.104 90.0918,-118.104 97.0918,-118.104"/>
</g>
<!-- gRPC&#45;SpawnDelivery1 -->
<g id="node5" class="node"><title>gRPC&#45;SpawnDelivery1</title>
<ellipse fill="none" stroke="black" cx="298.592" cy="-90" rx="93.6835" ry="18"/>
<text text-anchor="middle" x="298.592" y="-86.3" font-family="Times,serif" font-size="14.00">gRPC&#45;SpawnDelivery1</text>
</g>
<!-- gRPC&#45;SubscribeMoot1&#45;&gt;gRPC&#45;SpawnDelivery1 -->
<g id="edge12" class="edge"><title>gRPC&#45;SubscribeMoot1&#45;&gt;gRPC&#45;SpawnDelivery1</title>
<path fill="none" stroke="black" d="M297.839,-143.697C297.949,-135.983 298.082,-126.712 298.204,-118.112"/>
<polygon fill="black" stroke="black" points="301.704,-118.153 298.347,-108.104 294.705,-118.053 301.704,-118.153"/>
</g>
<!-- Consumer helper -->
<g id="node8" class="node"><title>Consumer helper</title>
<ellipse fill="none" stroke="black" cx="1174.59" cy="-234" rx="71.4873" ry="18"/>
<text text-anchor="middle" x="1174.59" y="-230.3" font-family="Times,serif" font-size="14.00">Consumer helper</text>
</g>
<!-- MonitorBatchPublisher0 -->
<g id="node12" class="node"><title>MonitorBatchPublisher0</title>
<ellipse fill="none" stroke="black" cx="649.592" cy="-90" rx="98.2828" ry="18"/>
<text text-anchor="middle" x="649.592" y="-86.3" font-family="Times,serif" font-size="14.00">MonitorBatchPublisher0</text>
</g>
<!-- ReproPublish&#45;&gt;MonitorBatchPublisher0 -->
<g id="edge32" class="edge"><title>ReproPublish&#45;&gt;MonitorBatchPublisher0</title>
<path fill="none" stroke="black" d="M1064.95,-149.578C1056.58,-147.552 1047.84,-145.586 1039.59,-144 1032.17,-142.573 848.759,-117.808 736.139,-102.642"/>
<polygon fill="black" stroke="black" points="736.52,-99.1614 726.142,-101.296 735.585,-106.099 736.52,-99.1614"/>
</g>
<!-- MonitorBatchPublisher1 -->
<g id="node26" class="node"><title>MonitorBatchPublisher1</title>
<ellipse fill="none" stroke="black" cx="883.592" cy="-90" rx="98.2828" ry="18"/>
<text text-anchor="middle" x="883.592" y="-86.3" font-family="Times,serif" font-size="14.00">MonitorBatchPublisher1</text>
</g>
<!-- ReproPublish&#45;&gt;MonitorBatchPublisher1 -->
<g id="edge33" class="edge"><title>ReproPublish&#45;&gt;MonitorBatchPublisher1</title>
<path fill="none" stroke="black" d="M1068.06,-148.647C1032.67,-137.587 980.365,-121.242 940.48,-108.778"/>
<polygon fill="black" stroke="black" points="941.472,-105.421 930.884,-105.779 939.384,-112.102 941.472,-105.421"/>
</g>
<!-- MonitorBatchPublisher2 -->
<g id="node28" class="node"><title>MonitorBatchPublisher2</title>
<ellipse fill="none" stroke="black" cx="1107.59" cy="-90" rx="98.2828" ry="18"/>
<text text-anchor="middle" x="1107.59" y="-86.3" font-family="Times,serif" font-size="14.00">MonitorBatchPublisher2</text>
</g>
<!-- ReproPublish&#45;&gt;MonitorBatchPublisher2 -->
<g id="edge34" class="edge"><title>ReproPublish&#45;&gt;MonitorBatchPublisher2</title>
<path fill="none" stroke="black" d="M1107.59,-143.697C1107.59,-135.983 1107.59,-126.712 1107.59,-118.112"/>
<polygon fill="black" stroke="black" points="1111.09,-118.104 1107.59,-108.104 1104.09,-118.104 1111.09,-118.104"/>
</g>
<!-- MonitorBatchPublisher3 -->
<g id="node30" class="node"><title>MonitorBatchPublisher3</title>
<ellipse fill="none" stroke="black" cx="1321.59" cy="-90" rx="98.2828" ry="18"/>
<text text-anchor="middle" x="1321.59" y="-86.3" font-family="Times,serif" font-size="14.00">MonitorBatchPublisher3</text>
</g>
<!-- ReproPublish&#45;&gt;MonitorBatchPublisher3 -->
<g id="edge35" class="edge"><title>ReproPublish&#45;&gt;MonitorBatchPublisher3</title>
<path fill="none" stroke="black" d="M1146.35,-148.324C1179.74,-137.401 1228.35,-121.501 1265.9,-109.216"/>
<polygon fill="black" stroke="black" points="1267.27,-112.45 1275.69,-106.015 1265.1,-105.797 1267.27,-112.45"/>
</g>
<!-- gRPC&#45;PluginGetMetadata2 -->
<g id="node11" class="node"><title>gRPC&#45;PluginGetMetadata2</title>
<ellipse fill="none" stroke="black" cx="1545.59" cy="-90" rx="107.781" ry="18"/>
<text text-anchor="middle" x="1545.59" y="-86.3" font-family="Times,serif" font-size="14.00">gRPC&#45;PluginGetMetadata2</text>
</g>
<!-- gRPC&#45;PluginGetMetadata3 -->
<g id="node15" class="node"><title>gRPC&#45;PluginGetMetadata3</title>
<ellipse fill="none" stroke="black" cx="644.592" cy="-18" rx="107.781" ry="18"/>
<text text-anchor="middle" x="644.592" y="-14.3" font-family="Times,serif" font-size="14.00">gRPC&#45;PluginGetMetadata3</text>
</g>
<!-- MonitorBatchPublisher0&#45;&gt;gRPC&#45;PluginGetMetadata3 -->
<g id="edge36" class="edge"><title>MonitorBatchPublisher0&#45;&gt;gRPC&#45;PluginGetMetadata3</title>
<path fill="none" stroke="black" d="M648.356,-71.6966C647.805,-63.9827 647.143,-54.7125 646.528,-46.1124"/>
<polygon fill="black" stroke="black" points="650.017,-45.8295 645.813,-36.1043 643.035,-46.3283 650.017,-45.8295"/>
</g>
<!-- gRPC&#45;StopChannelSpin0 -->
<g id="node13" class="node"><title>gRPC&#45;StopChannelSpin0</title>
<ellipse fill="none" stroke="black" cx="1772.59" cy="-90" rx="100.983" ry="18"/>
<text text-anchor="middle" x="1772.59" y="-86.3" font-family="Times,serif" font-size="14.00">gRPC&#45;StopChannelSpin0</text>
</g>
<!-- gRPC&#45;ConsumeRequestIterator0 -->
<g id="node14" class="node"><title>gRPC&#45;ConsumeRequestIterator0</title>
<ellipse fill="none" stroke="black" cx="2017.59" cy="-90" rx="126.978" ry="18"/>
<text text-anchor="middle" x="2017.59" y="-86.3" font-family="Times,serif" font-size="14.00">gRPC&#45;ConsumeRequestIterator0</text>
</g>
<!-- ThreadPoolExecutor&#45;0_0 -->
<g id="node16" class="node"><title>ThreadPoolExecutor&#45;0_0</title>
<ellipse fill="none" stroke="black" cx="2261.59" cy="-90" rx="99.3824" ry="18"/>
<text text-anchor="middle" x="2261.59" y="-86.3" font-family="Times,serif" font-size="14.00">ThreadPoolExecutor&#45;0_0</text>
</g>
<!-- ThreadPoolExecutor&#45;0_1 -->
<g id="node17" class="node"><title>ThreadPoolExecutor&#45;0_1</title>
<ellipse fill="none" stroke="black" cx="2478.59" cy="-90" rx="99.3824" ry="18"/>
<text text-anchor="middle" x="2478.59" y="-86.3" font-family="Times,serif" font-size="14.00">ThreadPoolExecutor&#45;0_1</text>
</g>
<!-- ThreadPoolExecutor&#45;0_2 -->
<g id="node18" class="node"><title>ThreadPoolExecutor&#45;0_2</title>
<ellipse fill="none" stroke="black" cx="2695.59" cy="-90" rx="99.3824" ry="18"/>
<text text-anchor="middle" x="2695.59" y="-86.3" font-family="Times,serif" font-size="14.00">ThreadPoolExecutor&#45;0_2</text>
</g>
<!-- ThreadPoolExecutor&#45;0_3 -->
<g id="node19" class="node"><title>ThreadPoolExecutor&#45;0_3</title>
<ellipse fill="none" stroke="black" cx="2912.59" cy="-90" rx="99.3824" ry="18"/>
<text text-anchor="middle" x="2912.59" y="-86.3" font-family="Times,serif" font-size="14.00">ThreadPoolExecutor&#45;0_3</text>
</g>
<!-- ThreadPoolExecutor&#45;0_4 -->
<g id="node20" class="node"><title>ThreadPoolExecutor&#45;0_4</title>
<ellipse fill="none" stroke="black" cx="3129.59" cy="-90" rx="99.3824" ry="18"/>
<text text-anchor="middle" x="3129.59" y="-86.3" font-family="Times,serif" font-size="14.00">ThreadPoolExecutor&#45;0_4</text>
</g>
<!-- ThreadPoolExecutor&#45;0_5 -->
<g id="node21" class="node"><title>ThreadPoolExecutor&#45;0_5</title>
<ellipse fill="none" stroke="black" cx="3346.59" cy="-90" rx="99.3824" ry="18"/>
<text text-anchor="middle" x="3346.59" y="-86.3" font-family="Times,serif" font-size="14.00">ThreadPoolExecutor&#45;0_5</text>
</g>
<!-- ThreadPoolExecutor&#45;0_6 -->
<g id="node22" class="node"><title>ThreadPoolExecutor&#45;0_6</title>
<ellipse fill="none" stroke="black" cx="3563.59" cy="-90" rx="99.3824" ry="18"/>
<text text-anchor="middle" x="3563.59" y="-86.3" font-family="Times,serif" font-size="14.00">ThreadPoolExecutor&#45;0_6</text>
</g>
<!-- ThreadPoolExecutor&#45;0_7 -->
<g id="node23" class="node"><title>ThreadPoolExecutor&#45;0_7</title>
<ellipse fill="none" stroke="black" cx="3780.59" cy="-90" rx="99.3824" ry="18"/>
<text text-anchor="middle" x="3780.59" y="-86.3" font-family="Times,serif" font-size="14.00">ThreadPoolExecutor&#45;0_7</text>
</g>
<!-- ThreadPoolExecutor&#45;0_8 -->
<g id="node24" class="node"><title>ThreadPoolExecutor&#45;0_8</title>
<ellipse fill="none" stroke="black" cx="3997.59" cy="-90" rx="99.3824" ry="18"/>
<text text-anchor="middle" x="3997.59" y="-86.3" font-family="Times,serif" font-size="14.00">ThreadPoolExecutor&#45;0_8</text>
</g>
<!-- ThreadPoolExecutor&#45;0_9 -->
<g id="node25" class="node"><title>ThreadPoolExecutor&#45;0_9</title>
<ellipse fill="none" stroke="black" cx="4214.59" cy="-90" rx="99.3824" ry="18"/>
<text text-anchor="middle" x="4214.59" y="-86.3" font-family="Times,serif" font-size="14.00">ThreadPoolExecutor&#45;0_9</text>
</g>
<!-- gRPC&#45;PluginGetMetadata4 -->
<g id="node27" class="node"><title>gRPC&#45;PluginGetMetadata4</title>
<ellipse fill="none" stroke="black" cx="878.592" cy="-18" rx="107.781" ry="18"/>
<text text-anchor="middle" x="878.592" y="-14.3" font-family="Times,serif" font-size="14.00">gRPC&#45;PluginGetMetadata4</text>
</g>
<!-- MonitorBatchPublisher1&#45;&gt;gRPC&#45;PluginGetMetadata4 -->
<g id="edge37" class="edge"><title>MonitorBatchPublisher1&#45;&gt;gRPC&#45;PluginGetMetadata4</title>
<path fill="none" stroke="black" d="M882.356,-71.6966C881.805,-63.9827 881.143,-54.7125 880.528,-46.1124"/>
<polygon fill="black" stroke="black" points="884.017,-45.8295 879.813,-36.1043 877.035,-46.3283 884.017,-45.8295"/>
</g>
<!-- gRPC&#45;PluginGetMetadata5 -->
<g id="node29" class="node"><title>gRPC&#45;PluginGetMetadata5</title>
<ellipse fill="none" stroke="black" cx="1112.59" cy="-18" rx="107.781" ry="18"/>
<text text-anchor="middle" x="1112.59" y="-14.3" font-family="Times,serif" font-size="14.00">gRPC&#45;PluginGetMetadata5</text>
</g>
<!-- MonitorBatchPublisher2&#45;&gt;gRPC&#45;PluginGetMetadata5 -->
<g id="edge38" class="edge"><title>MonitorBatchPublisher2&#45;&gt;gRPC&#45;PluginGetMetadata5</title>
<path fill="none" stroke="black" d="M1108.83,-71.6966C1109.38,-63.9827 1110.04,-54.7125 1110.66,-46.1124"/>
<polygon fill="black" stroke="black" points="1114.15,-46.3283 1111.37,-36.1043 1107.17,-45.8295 1114.15,-46.3283"/>
</g>
<!-- gRPC&#45;PluginGetMetadata6 -->
<g id="node31" class="node"><title>gRPC&#45;PluginGetMetadata6</title>
<ellipse fill="none" stroke="black" cx="1346.59" cy="-18" rx="107.781" ry="18"/>
<text text-anchor="middle" x="1346.59" y="-14.3" font-family="Times,serif" font-size="14.00">gRPC&#45;PluginGetMetadata6</text>
</g>
<!-- MonitorBatchPublisher3&#45;&gt;gRPC&#45;PluginGetMetadata6 -->
<g id="edge39" class="edge"><title>MonitorBatchPublisher3&#45;&gt;gRPC&#45;PluginGetMetadata6</title>
<path fill="none" stroke="black" d="M1327.77,-71.6966C1330.59,-63.8132 1333.98,-54.3042 1337.11,-45.5464"/>
<polygon fill="black" stroke="black" points="1340.42,-46.699 1340.48,-36.1043 1333.82,-44.3446 1340.42,-46.699"/>
</g>
<!-- gRPC&#45;PluginGetMetadata7 -->
<g id="node32" class="node"><title>gRPC&#45;PluginGetMetadata7</title>
<ellipse fill="none" stroke="black" cx="4439.59" cy="-90" rx="107.781" ry="18"/>
<text text-anchor="middle" x="4439.59" y="-86.3" font-family="Times,serif" font-size="14.00">gRPC&#45;PluginGetMetadata7</text>
</g>
<!-- gRPC&#45;StopChannelSpin1 -->
<g id="node33" class="node"><title>gRPC&#45;StopChannelSpin1</title>
<ellipse fill="none" stroke="black" cx="4666.59" cy="-90" rx="100.983" ry="18"/>
<text text-anchor="middle" x="4666.59" y="-86.3" font-family="Times,serif" font-size="14.00">gRPC&#45;StopChannelSpin1</text>
</g>
<!-- gRPC&#45;ConsumeRequestIterator1 -->
<g id="node34" class="node"><title>gRPC&#45;ConsumeRequestIterator1</title>
<ellipse fill="none" stroke="black" cx="4911.59" cy="-90" rx="126.978" ry="18"/>
<text text-anchor="middle" x="4911.59" y="-86.3" font-family="Times,serif" font-size="14.00">gRPC&#45;ConsumeRequestIterator1</text>
</g>
<!-- gRPC&#45;PluginGetMetadata8 -->
<g id="node35" class="node"><title>gRPC&#45;PluginGetMetadata8</title>
<ellipse fill="none" stroke="black" cx="5164.59" cy="-90" rx="107.781" ry="18"/>
<text text-anchor="middle" x="5164.59" y="-86.3" font-family="Times,serif" font-size="14.00">gRPC&#45;PluginGetMetadata8</text>
</g>
<!-- gRPC&#45;StopChannelSpin2 -->
<g id="node36" class="node"><title>gRPC&#45;StopChannelSpin2</title>
<ellipse fill="none" stroke="black" cx="5391.59" cy="-90" rx="100.983" ry="18"/>
<text text-anchor="middle" x="5391.59" y="-86.3" font-family="Times,serif" font-size="14.00">gRPC&#45;StopChannelSpin2</text>
</g>
<!-- gRPC&#45;ConsumeRequestIterator2 -->
<g id="node37" class="node"><title>gRPC&#45;ConsumeRequestIterator2</title>
<ellipse fill="none" stroke="black" cx="5636.59" cy="-90" rx="126.978" ry="18"/>
<text text-anchor="middle" x="5636.59" y="-86.3" font-family="Times,serif" font-size="14.00">gRPC&#45;ConsumeRequestIterator2</text>
</g>
<!-- Consumer helper: consume bidirectional stream&#45;&gt;gRPC&#45;PluginGetMetadata2 -->
<g id="edge13" class="edge"><title>Consumer helper: consume bidirectional stream&#45;&gt;gRPC&#45;PluginGetMetadata2</title>
<path fill="none" stroke="black" d="M3276.82,-158.339C2887.98,-152.096 1971.99,-134.963 1662.59,-108 1652.02,-107.079 1640.96,-105.837 1630.02,-104.441"/>
<polygon fill="black" stroke="black" points="1630.4,-100.962 1620.03,-103.121 1629.48,-107.901 1630.4,-100.962"/>
</g>
<!-- Consumer helper: consume bidirectional stream&#45;&gt;gRPC&#45;StopChannelSpin0 -->
<g id="edge14" class="edge"><title>Consumer helper: consume bidirectional stream&#45;&gt;gRPC&#45;StopChannelSpin0</title>
<path fill="none" stroke="black" d="M3278.12,-157.748C2926.13,-150.818 2147.76,-133.147 1881.59,-108 1871.94,-107.088 1861.84,-105.872 1851.85,-104.508"/>
<polygon fill="black" stroke="black" points="1852.31,-101.038 1841.92,-103.1 1851.33,-107.969 1852.31,-101.038"/>
</g>
<!-- Consumer helper: consume bidirectional stream&#45;&gt;gRPC&#45;ConsumeRequestIterator0 -->
<g id="edge15" class="edge"><title>Consumer helper: consume bidirectional stream&#45;&gt;gRPC&#45;ConsumeRequestIterator0</title>
<path fill="none" stroke="black" d="M3276.75,-158.462C3025.94,-153.811 2554.18,-141.138 2153.59,-108 2141.24,-106.978 2128.29,-105.669 2115.49,-104.231"/>
<polygon fill="black" stroke="black" points="2115.61,-100.721 2105.27,-103.053 2114.8,-107.675 2115.61,-100.721"/>
</g>
<!-- Consumer helper: consume bidirectional stream&#45;&gt;ThreadPoolExecutor&#45;0_0 -->
<g id="edge16" class="edge"><title>Consumer helper: consume bidirectional stream&#45;&gt;ThreadPoolExecutor&#45;0_0</title>
<path fill="none" stroke="black" d="M3277.19,-158.083C3062.16,-153.221 2689.01,-140.523 2370.59,-108 2360.95,-107.015 2350.85,-105.754 2340.87,-104.366"/>
<polygon fill="black" stroke="black" points="2341.33,-100.897 2330.94,-102.941 2340.34,-107.826 2341.33,-100.897"/>
</g>
<!-- Consumer helper: consume bidirectional stream&#45;&gt;ThreadPoolExecutor&#45;0_1 -->
<g id="edge17" class="edge"><title>Consumer helper: consume bidirectional stream&#45;&gt;ThreadPoolExecutor&#45;0_1</title>
<path fill="none" stroke="black" d="M3285.96,-155.37C3110.97,-148.432 2829.53,-134.204 2587.59,-108 2578.12,-106.975 2568.22,-105.706 2558.41,-104.328"/>
<polygon fill="black" stroke="black" points="2558.64,-100.824 2548.24,-102.857 2557.64,-107.752 2558.64,-100.824"/>
</g>
<!-- Consumer helper: consume bidirectional stream&#45;&gt;ThreadPoolExecutor&#45;0_2 -->
<g id="edge18" class="edge"><title>Consumer helper: consume bidirectional stream&#45;&gt;ThreadPoolExecutor&#45;0_2</title>
<path fill="none" stroke="black" d="M3304.22,-151.879C3172.27,-143.127 2975.35,-128.25 2804.59,-108 2795.35,-106.904 2785.68,-105.61 2776.09,-104.235"/>
<polygon fill="black" stroke="black" points="2776.54,-100.764 2766.14,-102.777 2775.53,-107.69 2776.54,-100.764"/>
</g>
<!-- Consumer helper: consume bidirectional stream&#45;&gt;ThreadPoolExecutor&#45;0_3 -->
<g id="edge19" class="edge"><title>Consumer helper: consume bidirectional stream&#45;&gt;ThreadPoolExecutor&#45;0_3</title>
<path fill="none" stroke="black" d="M3340.04,-148.02C3252.68,-137.869 3129.42,-123.004 3021.59,-108 3012.75,-106.769 3003.51,-105.423 2994.31,-104.043"/>
<polygon fill="black" stroke="black" points="2994.78,-100.575 2984.37,-102.538 2993.73,-107.496 2994.78,-100.575"/>
</g>
<!-- Consumer helper: consume bidirectional stream&#45;&gt;ThreadPoolExecutor&#45;0_4 -->
<g id="edge20" class="edge"><title>Consumer helper: consume bidirectional stream&#45;&gt;ThreadPoolExecutor&#45;0_4</title>
<path fill="none" stroke="black" d="M3382.46,-145.465C3328.33,-133.805 3254.57,-117.919 3200.69,-106.313"/>
<polygon fill="black" stroke="black" points="3201.38,-102.882 3190.87,-104.198 3199.91,-109.725 3201.38,-102.882"/>
</g>
<!-- Consumer helper: consume bidirectional stream&#45;&gt;ThreadPoolExecutor&#45;0_5 -->
<g id="edge21" class="edge"><title>Consumer helper: consume bidirectional stream&#45;&gt;ThreadPoolExecutor&#45;0_5</title>
<path fill="none" stroke="black" d="M3428.45,-144.055C3414.15,-134.787 3396.26,-123.194 3380.86,-113.21"/>
<polygon fill="black" stroke="black" points="3382.42,-110.049 3372.12,-107.547 3378.61,-115.923 3382.42,-110.049"/>
</g>
<!-- Consumer helper: consume bidirectional stream&#45;&gt;ThreadPoolExecutor&#45;0_6 -->
<g id="edge22" class="edge"><title>Consumer helper: consume bidirectional stream&#45;&gt;ThreadPoolExecutor&#45;0_6</title>
<path fill="none" stroke="black" d="M3480.98,-144.055C3495.41,-134.787 3513.46,-123.194 3529.01,-113.21"/>
<polygon fill="black" stroke="black" points="3531.3,-115.896 3537.82,-107.547 3527.52,-110.006 3531.3,-115.896"/>
</g>
<!-- Consumer helper: consume bidirectional stream&#45;&gt;ThreadPoolExecutor&#45;0_7 -->
<g id="edge23" class="edge"><title>Consumer helper: consume bidirectional stream&#45;&gt;ThreadPoolExecutor&#45;0_7</title>
<path fill="none" stroke="black" d="M3526.94,-145.465C3581.24,-133.805 3655.23,-117.919 3709.28,-106.313"/>
<polygon fill="black" stroke="black" points="3710.08,-109.719 3719.13,-104.198 3708.62,-102.875 3710.08,-109.719"/>
</g>
<!-- Consumer helper: consume bidirectional stream&#45;&gt;ThreadPoolExecutor&#45;0_8 -->
<g id="edge24" class="edge"><title>Consumer helper: consume bidirectional stream&#45;&gt;ThreadPoolExecutor&#45;0_8</title>
<path fill="none" stroke="black" d="M3569.4,-148.031C3656.97,-137.886 3780.51,-123.023 3888.59,-108 3897.44,-106.77 3906.68,-105.425 3915.88,-104.046"/>
<polygon fill="black" stroke="black" points="3916.45,-107.498 3925.82,-102.541 3915.41,-100.577 3916.45,-107.498"/>
</g>
<!-- Consumer helper: consume bidirectional stream&#45;&gt;ThreadPoolExecutor&#45;0_9 -->
<g id="edge25" class="edge"><title>Consumer helper: consume bidirectional stream&#45;&gt;ThreadPoolExecutor&#45;0_9</title>
<path fill="none" stroke="black" d="M3604.87,-151.91C3737.02,-143.168 3934.43,-128.287 4105.59,-108 4114.84,-106.904 4124.5,-105.611 4134.09,-104.236"/>
<polygon fill="black" stroke="black" points="4134.66,-107.691 4144.04,-102.778 4133.64,-100.765 4134.66,-107.691"/>
</g>
<!-- Consumer helper: consume bidirectional stream&#45;&gt;gRPC&#45;PluginGetMetadata7 -->
<g id="edge26" class="edge"><title>Consumer helper: consume bidirectional stream&#45;&gt;gRPC&#45;PluginGetMetadata7</title>
<path fill="none" stroke="black" d="M3621.74,-154.929C3796.77,-147.604 4079.49,-133.039 4322.59,-108 4332.8,-106.948 4343.49,-105.658 4354.08,-104.264"/>
<polygon fill="black" stroke="black" points="4354.74,-107.707 4364.18,-102.899 4353.8,-100.77 4354.74,-107.707"/>
</g>
<!-- Consumer helper: consume bidirectional stream&#45;&gt;gRPC&#45;StopChannelSpin1 -->
<g id="edge27" class="edge"><title>Consumer helper: consume bidirectional stream&#45;&gt;gRPC&#45;StopChannelSpin1</title>
<path fill="none" stroke="black" d="M3632.04,-158.209C3850.17,-153.457 4231.43,-140.853 4556.59,-108 4566.25,-107.024 4576.36,-105.776 4586.36,-104.401"/>
<polygon fill="black" stroke="black" points="4586.91,-107.859 4596.32,-102.988 4585.92,-100.928 4586.91,-107.859"/>
</g>
<!-- Consumer helper: consume bidirectional stream&#45;&gt;gRPC&#45;ConsumeRequestIterator1 -->
<g id="edge28" class="edge"><title>Consumer helper: consume bidirectional stream&#45;&gt;gRPC&#45;ConsumeRequestIterator1</title>
<path fill="none" stroke="black" d="M3632.9,-158.668C3887.14,-154.249 4368.27,-141.832 4776.59,-108 4788.76,-106.992 4801.52,-105.698 4814.13,-104.275"/>
<polygon fill="black" stroke="black" points="4814.67,-107.736 4824.2,-103.108 4813.86,-100.782 4814.67,-107.736"/>
</g>
<!-- Consumer helper: consume bidirectional stream&#45;&gt;gRPC&#45;PluginGetMetadata8 -->
<g id="edge29" class="edge"><title>Consumer helper: consume bidirectional stream&#45;&gt;gRPC&#45;PluginGetMetadata8</title>
<path fill="none" stroke="black" d="M3635.96,-161.506C3932.02,-160.863 4537.34,-153.416 5047.59,-108 5058.16,-107.06 5069.23,-105.806 5080.16,-104.404"/>
<polygon fill="black" stroke="black" points="5080.7,-107.864 5090.15,-103.08 5079.78,-100.925 5080.7,-107.864"/>
</g>
<!-- Consumer helper: consume bidirectional stream&#45;&gt;gRPC&#45;StopChannelSpin2 -->
<g id="edge30" class="edge"><title>Consumer helper: consume bidirectional stream&#45;&gt;gRPC&#45;StopChannelSpin2</title>
<path fill="none" stroke="black" d="M3632.88,-158.654C4027.64,-152.998 4965.49,-136.898 5281.59,-108 5291.48,-107.096 5301.83,-105.87 5312.05,-104.488"/>
<polygon fill="black" stroke="black" points="5312.8,-107.918 5322.22,-103.06 5311.83,-100.986 5312.8,-107.918"/>
</g>
<!-- Consumer helper: consume bidirectional stream&#45;&gt;gRPC&#45;ConsumeRequestIterator2 -->
<g id="edge31" class="edge"><title>Consumer helper: consume bidirectional stream&#45;&gt;gRPC&#45;ConsumeRequestIterator2</title>
<path fill="none" stroke="black" d="M3632.83,-158.662C4061.48,-152.671 5141.12,-135.295 5501.59,-108 5513.95,-107.064 5526.92,-105.798 5539.72,-104.375"/>
<polygon fill="black" stroke="black" points="5540.4,-107.82 5549.94,-103.205 5539.6,-100.866 5540.4,-107.82"/>
</g>
</g>
</svg>
