<?xml version="1.0" encoding="UTF-8" standalone="no"?>
<!DOCTYPE svg PUBLIC "-//W3C//DTD SVG 1.1//EN"
 "http://www.w3.org/Graphics/SVG/1.1/DTD/svg11.dtd">
<!-- Generated by graphviz version 2.38.0 (20140413.2041)
 -->
<!-- Title: %3 Pages: 1 -->
<svg width="2672pt" height="260pt"
 viewBox="0.00 0.00 2671.68 260.00" xmlns="http://www.w3.org/2000/svg" xmlns:xlink="http://www.w3.org/1999/xlink">
<g id="graph0" class="graph" transform="scale(1 1) rotate(0) translate(4 256)">
<title>%3</title>
<polygon fill="white" stroke="none" points="-4,4 -4,-256 2667.68,-256 2667.68,4 -4,4"/>
<!-- MainThread -->
<g id="node1" class="node"><title>MainThread</title>
<ellipse fill="none" stroke="black" cx="795.942" cy="-234" rx="54.6905" ry="18"/>
<text text-anchor="middle" x="795.942" y="-230.3" font-family="Times,serif" font-size="14.00">MainThread</text>
</g>
<!-- gRPC&#45;SubscribeMoot0 -->
<g id="node2" class="node"><title>gRPC&#45;SubscribeMoot0</title>
<ellipse fill="none" stroke="black" cx="92.9418" cy="-162" rx="92.8835" ry="18"/>
<text text-anchor="middle" x="92.9418" y="-158.3" font-family="Times,serif" font-size="14.00">gRPC&#45;SubscribeMoot0</text>
</g>
<!-- MainThread&#45;&gt;gRPC&#45;SubscribeMoot0 -->
<g id="edge1" class="edge"><title>MainThread&#45;&gt;gRPC&#45;SubscribeMoot0</title>
<path fill="none" stroke="black" d="M742.733,-229.693C637.725,-222.86 396.522,-205.648 194.942,-180 186.558,-178.933 177.808,-177.684 169.11,-176.355"/>
<polygon fill="black" stroke="black" points="169.369,-172.853 158.949,-174.765 168.287,-179.769 169.369,-172.853"/>
</g>
<!-- gRPC&#45;SubscribeMoot1 -->
<g id="node3" class="node"><title>gRPC&#45;SubscribeMoot1</title>
<ellipse fill="none" stroke="black" cx="296.942" cy="-162" rx="92.8835" ry="18"/>
<text text-anchor="middle" x="296.942" y="-158.3" font-family="Times,serif" font-size="14.00">gRPC&#45;SubscribeMoot1</text>
</g>
<!-- MainThread&#45;&gt;gRPC&#45;SubscribeMoot1 -->
<g id="edge2" class="edge"><title>MainThread&#45;&gt;gRPC&#45;SubscribeMoot1</title>
<path fill="none" stroke="black" d="M745.732,-226.827C670.328,-217.437 523.407,-198.675 398.942,-180 390.927,-178.797 382.567,-177.49 374.232,-176.153"/>
<polygon fill="black" stroke="black" points="374.535,-172.656 364.104,-174.512 373.416,-179.566 374.535,-172.656"/>
</g>
<!-- gRPC&#45;PluginGetMetadata0 -->
<g id="node5" class="node"><title>gRPC&#45;PluginGetMetadata0</title>
<ellipse fill="none" stroke="black" cx="515.942" cy="-162" rx="107.781" ry="18"/>
<text text-anchor="middle" x="515.942" y="-158.3" font-family="Times,serif" font-size="14.00">gRPC&#45;PluginGetMetadata0</text>
</g>
<!-- MainThread&#45;&gt;gRPC&#45;PluginGetMetadata0 -->
<g id="edge3" class="edge"><title>MainThread&#45;&gt;gRPC&#45;PluginGetMetadata0</title>
<path fill="none" stroke="black" d="M753.72,-222.445C708.51,-211.142 636.127,-193.046 583.087,-179.786"/>
<polygon fill="black" stroke="black" points="583.635,-176.316 573.085,-177.286 581.937,-183.107 583.635,-176.316"/>
</g>
<!-- LeaseMaintenance -->
<g id="node9" class="node"><title>LeaseMaintenance</title>
<ellipse fill="none" stroke="black" cx="718.942" cy="-162" rx="77.1866" ry="18"/>
<text text-anchor="middle" x="718.942" y="-158.3" font-family="Times,serif" font-size="14.00">LeaseMaintenance</text>
</g>
<!-- MainThread&#45;&gt;LeaseMaintenance -->
<g id="edge6" class="edge"><title>MainThread&#45;&gt;LeaseMaintenance</title>
<path fill="none" stroke="black" d="M778.083,-216.765C768.216,-207.795 755.781,-196.49 744.862,-186.564"/>
<polygon fill="black" stroke="black" points="746.992,-183.77 737.238,-179.633 742.284,-188.95 746.992,-183.77"/>
</g>
<!-- ReproPublish -->
<g id="node10" class="node"><title>ReproPublish</title>
<ellipse fill="none" stroke="black" cx="872.942" cy="-162" rx="58.4896" ry="18"/>
<text text-anchor="middle" x="872.942" y="-158.3" font-family="Times,serif" font-size="14.00">ReproPublish</text>
</g>
<!-- MainThread&#45;&gt;ReproPublish -->
<g id="edge7" class="edge"><title>MainThread&#45;&gt;ReproPublish</title>
<path fill="none" stroke="black" d="M813.801,-216.765C823.739,-207.73 836.283,-196.326 847.258,-186.349"/>
<polygon fill="black" stroke="black" points="849.868,-188.706 854.913,-179.39 845.159,-183.527 849.868,-188.706"/>
</g>
<!-- gRPC&#45;PluginGetMetadata8 -->
<g id="node25" class="node"><title>gRPC&#45;PluginGetMetadata8</title>
<ellipse fill="none" stroke="black" cx="1056.94" cy="-162" rx="107.781" ry="18"/>
<text text-anchor="middle" x="1056.94" y="-158.3" font-family="Times,serif" font-size="14.00">gRPC&#45;PluginGetMetadata8</text>
</g>
<!-- MainThread&#45;&gt;gRPC&#45;PluginGetMetadata8 -->
<g id="edge8" class="edge"><title>MainThread&#45;&gt;gRPC&#45;PluginGetMetadata8</title>
<path fill="none" stroke="black" d="M837.01,-221.985C878.779,-210.783 944.099,-193.264 992.714,-180.226"/>
<polygon fill="black" stroke="black" points="993.759,-183.569 1002.51,-177.598 991.946,-176.808 993.759,-183.569"/>
</g>
<!-- Consumer helper: callback requests worker -->
<g id="node26" class="node"><title>Consumer helper: callback requests worker</title>
<ellipse fill="none" stroke="black" cx="1346.94" cy="-162" rx="164.371" ry="18"/>
<text text-anchor="middle" x="1346.94" y="-158.3" font-family="Times,serif" font-size="14.00">Consumer helper: callback requests worker</text>
</g>
<!-- MainThread&#45;&gt;Consumer helper: callback requests worker -->
<g id="edge4" class="edge"><title>MainThread&#45;&gt;Consumer helper: callback requests worker</title>
<path fill="none" stroke="black" d="M835.674,-221.45C843.66,-219.411 852.03,-217.473 859.942,-216 894.524,-209.564 1087.8,-189.311 1220.21,-175.788"/>
<polygon fill="black" stroke="black" points="1220.84,-179.243 1230.43,-174.746 1220.13,-172.279 1220.84,-179.243"/>
</g>
<!-- Consumer helper: consume bidirectional stream -->
<g id="node27" class="node"><title>Consumer helper: consume bidirectional stream</title>
<ellipse fill="none" stroke="black" cx="1937.94" cy="-162" rx="181.168" ry="18"/>
<text text-anchor="middle" x="1937.94" y="-158.3" font-family="Times,serif" font-size="14.00">Consumer helper: consume bidirectional stream</text>
</g>
<!-- MainThread&#45;&gt;Consumer helper: consume bidirectional stream -->
<g id="edge5" class="edge"><title>MainThread&#45;&gt;Consumer helper: consume bidirectional stream</title>
<path fill="none" stroke="black" d="M834.926,-221.25C843.122,-219.174 851.763,-217.273 859.942,-216 903.757,-209.182 1472.32,-183.463 1765.54,-170.527"/>
<polygon fill="black" stroke="black" points="1766.02,-174.009 1775.85,-170.072 1765.71,-167.016 1766.02,-174.009"/>
</g>
<!-- gRPC&#45;SpawnDelivery -->
<g id="node4" class="node"><title>gRPC&#45;SpawnDelivery</title>
<ellipse fill="none" stroke="black" cx="239.942" cy="-90" rx="89.0842" ry="18"/>
<text text-anchor="middle" x="239.942" y="-86.3" font-family="Times,serif" font-size="14.00">gRPC&#45;SpawnDelivery</text>
</g>
<!-- gRPC&#45;SubscribeMoot1&#45;&gt;gRPC&#45;SpawnDelivery -->
<g id="edge9" class="edge"><title>gRPC&#45;SubscribeMoot1&#45;&gt;gRPC&#45;SpawnDelivery</title>
<path fill="none" stroke="black" d="M283.144,-144.055C276.212,-135.543 267.683,-125.068 260.04,-115.681"/>
<polygon fill="black" stroke="black" points="262.641,-113.333 253.613,-107.789 257.213,-117.753 262.641,-113.333"/>
</g>
<!-- Consumer helper -->
<g id="node6" class="node"><title>Consumer helper</title>
<ellipse fill="none" stroke="black" cx="939.942" cy="-234" rx="71.4873" ry="18"/>
<text text-anchor="middle" x="939.942" y="-230.3" font-family="Times,serif" font-size="14.00">Consumer helper</text>
</g>
<!-- gRPC&#45;StopChannelSpin0 -->
<g id="node7" class="node"><title>gRPC&#45;StopChannelSpin0</title>
<ellipse fill="none" stroke="black" cx="1566.94" cy="-90" rx="100.983" ry="18"/>
<text text-anchor="middle" x="1566.94" y="-86.3" font-family="Times,serif" font-size="14.00">gRPC&#45;StopChannelSpin0</text>
</g>
<!-- gRPC&#45;PluginGetMetadata2 -->
<g id="node13" class="node"><title>gRPC&#45;PluginGetMetadata2</title>
<ellipse fill="none" stroke="black" cx="1570.94" cy="-18" rx="107.781" ry="18"/>
<text text-anchor="middle" x="1570.94" y="-14.3" font-family="Times,serif" font-size="14.00">gRPC&#45;PluginGetMetadata2</text>
</g>
<!-- gRPC&#45;StopChannelSpin0&#45;&gt;gRPC&#45;PluginGetMetadata2 -->
<g id="edge15" class="edge"><title>gRPC&#45;StopChannelSpin0&#45;&gt;gRPC&#45;PluginGetMetadata2</title>
<path fill="none" stroke="black" d="M1567.93,-71.6966C1568.37,-63.9827 1568.9,-54.7125 1569.39,-46.1124"/>
<polygon fill="black" stroke="black" points="1572.89,-46.2878 1569.96,-36.1043 1565.9,-45.8883 1572.89,-46.2878"/>
</g>
<!-- gRPC&#45;ConsumeRequestIterator0 -->
<g id="node8" class="node"><title>gRPC&#45;ConsumeRequestIterator0</title>
<ellipse fill="none" stroke="black" cx="1811.94" cy="-90" rx="126.978" ry="18"/>
<text text-anchor="middle" x="1811.94" y="-86.3" font-family="Times,serif" font-size="14.00">gRPC&#45;ConsumeRequestIterator0</text>
</g>
<!-- MonitorBatchPublisher0 -->
<g id="node11" class="node"><title>MonitorBatchPublisher0</title>
<ellipse fill="none" stroke="black" cx="444.942" cy="-90" rx="98.2828" ry="18"/>
<text text-anchor="middle" x="444.942" y="-86.3" font-family="Times,serif" font-size="14.00">MonitorBatchPublisher0</text>
</g>
<!-- ReproPublish&#45;&gt;MonitorBatchPublisher0 -->
<g id="edge16" class="edge"><title>ReproPublish&#45;&gt;MonitorBatchPublisher0</title>
<path fill="none" stroke="black" d="M830.29,-149.619C821.92,-147.59 813.182,-145.612 804.942,-144 693.477,-122.197 664.253,-124.911 551.942,-108 543.496,-106.728 534.679,-105.373 525.889,-104.003"/>
<polygon fill="black" stroke="black" points="526.419,-100.544 515.998,-102.455 525.337,-107.459 526.419,-100.544"/>
</g>
<!-- MonitorBatchPublisher1 -->
<g id="node17" class="node"><title>MonitorBatchPublisher1</title>
<ellipse fill="none" stroke="black" cx="658.942" cy="-90" rx="98.2828" ry="18"/>
<text text-anchor="middle" x="658.942" y="-86.3" font-family="Times,serif" font-size="14.00">MonitorBatchPublisher1</text>
</g>
<!-- ReproPublish&#45;&gt;MonitorBatchPublisher1 -->
<g id="edge17" class="edge"><title>ReproPublish&#45;&gt;MonitorBatchPublisher1</title>
<path fill="none" stroke="black" d="M834.188,-148.324C800.797,-137.401 752.187,-121.501 714.629,-109.216"/>
<polygon fill="black" stroke="black" points="715.437,-105.797 704.844,-106.015 713.26,-112.45 715.437,-105.797"/>
</g>
<!-- MonitorBatchPublisher2 -->
<g id="node19" class="node"><title>MonitorBatchPublisher2</title>
<ellipse fill="none" stroke="black" cx="872.942" cy="-90" rx="98.2828" ry="18"/>
<text text-anchor="middle" x="872.942" y="-86.3" font-family="Times,serif" font-size="14.00">MonitorBatchPublisher2</text>
</g>
<!-- ReproPublish&#45;&gt;MonitorBatchPublisher2 -->
<g id="edge18" class="edge"><title>ReproPublish&#45;&gt;MonitorBatchPublisher2</title>
<path fill="none" stroke="black" d="M872.942,-143.697C872.942,-135.983 872.942,-126.712 872.942,-118.112"/>
<polygon fill="black" stroke="black" points="876.442,-118.104 872.942,-108.104 869.442,-118.104 876.442,-118.104"/>
</g>
<!-- MonitorBatchPublisher3 -->
<g id="node21" class="node"><title>MonitorBatchPublisher3</title>
<ellipse fill="none" stroke="black" cx="1093.94" cy="-90" rx="98.2828" ry="18"/>
<text text-anchor="middle" x="1093.94" y="-86.3" font-family="Times,serif" font-size="14.00">MonitorBatchPublisher3</text>
</g>
<!-- ReproPublish&#45;&gt;MonitorBatchPublisher3 -->
<g id="edge19" class="edge"><title>ReproPublish&#45;&gt;MonitorBatchPublisher3</title>
<path fill="none" stroke="black" d="M912.197,-148.566C946.959,-137.556 998.118,-121.352 1037.31,-108.938"/>
<polygon fill="black" stroke="black" points="1038.52,-112.226 1047,-105.869 1036.41,-105.552 1038.52,-112.226"/>
</g>
<!-- MonitorBatchPublisher4 -->
<g id="node23" class="node"><title>MonitorBatchPublisher4</title>
<ellipse fill="none" stroke="black" cx="1321.94" cy="-90" rx="98.2828" ry="18"/>
<text text-anchor="middle" x="1321.94" y="-86.3" font-family="Times,serif" font-size="14.00">MonitorBatchPublisher4</text>
</g>
<!-- ReproPublish&#45;&gt;MonitorBatchPublisher4 -->
<g id="edge20" class="edge"><title>ReproPublish&#45;&gt;MonitorBatchPublisher4</title>
<path fill="none" stroke="black" d="M915.313,-149.491C923.451,-147.496 931.933,-145.563 939.942,-144 1054.87,-121.566 1084.96,-124.146 1200.94,-108 1212.51,-106.389 1224.71,-104.684 1236.72,-103.001"/>
<polygon fill="black" stroke="black" points="1237.33,-106.449 1246.75,-101.594 1236.36,-99.517 1237.33,-106.449"/>
</g>
<!-- gRPC&#45;PluginGetMetadata1 -->
<g id="node12" class="node"><title>gRPC&#45;PluginGetMetadata1</title>
<ellipse fill="none" stroke="black" cx="400.942" cy="-18" rx="107.781" ry="18"/>
<text text-anchor="middle" x="400.942" y="-14.3" font-family="Times,serif" font-size="14.00">gRPC&#45;PluginGetMetadata1</text>
</g>
<!-- MonitorBatchPublisher0&#45;&gt;gRPC&#45;PluginGetMetadata1 -->
<g id="edge21" class="edge"><title>MonitorBatchPublisher0&#45;&gt;gRPC&#45;PluginGetMetadata1</title>
<path fill="none" stroke="black" d="M434.291,-72.055C429.178,-63.922 422.941,-53.998 417.249,-44.9426"/>
<polygon fill="black" stroke="black" points="420.086,-42.8791 411.801,-36.2753 414.159,-46.6043 420.086,-42.8791"/>
</g>
<!-- gRPC&#45;PluginGetMetadata3 -->
<g id="node14" class="node"><title>gRPC&#45;PluginGetMetadata3</title>
<ellipse fill="none" stroke="black" cx="2064.94" cy="-90" rx="107.781" ry="18"/>
<text text-anchor="middle" x="2064.94" y="-86.3" font-family="Times,serif" font-size="14.00">gRPC&#45;PluginGetMetadata3</text>
</g>
<!-- gRPC&#45;StopChannelSpin1 -->
<g id="node15" class="node"><title>gRPC&#45;StopChannelSpin1</title>
<ellipse fill="none" stroke="black" cx="2291.94" cy="-90" rx="100.983" ry="18"/>
<text text-anchor="middle" x="2291.94" y="-86.3" font-family="Times,serif" font-size="14.00">gRPC&#45;StopChannelSpin1</text>
</g>
<!-- gRPC&#45;ConsumeRequestIterator1 -->
<g id="node16" class="node"><title>gRPC&#45;ConsumeRequestIterator1</title>
<ellipse fill="none" stroke="black" cx="2536.94" cy="-90" rx="126.978" ry="18"/>
<text text-anchor="middle" x="2536.94" y="-86.3" font-family="Times,serif" font-size="14.00">gRPC&#45;ConsumeRequestIterator1</text>
</g>
<!-- gRPC&#45;PluginGetMetadata4 -->
<g id="node18" class="node"><title>gRPC&#45;PluginGetMetadata4</title>
<ellipse fill="none" stroke="black" cx="634.942" cy="-18" rx="107.781" ry="18"/>
<text text-anchor="middle" x="634.942" y="-14.3" font-family="Times,serif" font-size="14.00">gRPC&#45;PluginGetMetadata4</text>
</g>
<!-- MonitorBatchPublisher1&#45;&gt;gRPC&#45;PluginGetMetadata4 -->
<g id="edge22" class="edge"><title>MonitorBatchPublisher1&#45;&gt;gRPC&#45;PluginGetMetadata4</title>
<path fill="none" stroke="black" d="M653.009,-71.6966C650.335,-63.8979 647.116,-54.5085 644.14,-45.8292"/>
<polygon fill="black" stroke="black" points="647.36,-44.4286 640.806,-36.1043 640.739,-46.699 647.36,-44.4286"/>
</g>
<!-- gRPC&#45;PluginGetMetadata5 -->
<g id="node20" class="node"><title>gRPC&#45;PluginGetMetadata5</title>
<ellipse fill="none" stroke="black" cx="868.942" cy="-18" rx="107.781" ry="18"/>
<text text-anchor="middle" x="868.942" y="-14.3" font-family="Times,serif" font-size="14.00">gRPC&#45;PluginGetMetadata5</text>
</g>
<!-- MonitorBatchPublisher2&#45;&gt;gRPC&#45;PluginGetMetadata5 -->
<g id="edge23" class="edge"><title>MonitorBatchPublisher2&#45;&gt;gRPC&#45;PluginGetMetadata5</title>
<path fill="none" stroke="black" d="M871.953,-71.6966C871.512,-63.9827 870.982,-54.7125 870.491,-46.1124"/>
<polygon fill="black" stroke="black" points="873.984,-45.8883 869.919,-36.1043 866.995,-46.2878 873.984,-45.8883"/>
</g>
<!-- gRPC&#45;PluginGetMetadata6 -->
<g id="node22" class="node"><title>gRPC&#45;PluginGetMetadata6</title>
<ellipse fill="none" stroke="black" cx="1102.94" cy="-18" rx="107.781" ry="18"/>
<text text-anchor="middle" x="1102.94" y="-14.3" font-family="Times,serif" font-size="14.00">gRPC&#45;PluginGetMetadata6</text>
</g>
<!-- MonitorBatchPublisher3&#45;&gt;gRPC&#45;PluginGetMetadata6 -->
<g id="edge24" class="edge"><title>MonitorBatchPublisher3&#45;&gt;gRPC&#45;PluginGetMetadata6</title>
<path fill="none" stroke="black" d="M1096.17,-71.6966C1097.16,-63.9827 1098.35,-54.7125 1099.46,-46.1124"/>
<polygon fill="black" stroke="black" points="1102.94,-46.469 1100.74,-36.1043 1096,-45.5763 1102.94,-46.469"/>
</g>
<!-- gRPC&#45;PluginGetMetadata7 -->
<g id="node24" class="node"><title>gRPC&#45;PluginGetMetadata7</title>
<ellipse fill="none" stroke="black" cx="1336.94" cy="-18" rx="107.781" ry="18"/>
<text text-anchor="middle" x="1336.94" y="-14.3" font-family="Times,serif" font-size="14.00">gRPC&#45;PluginGetMetadata7</text>
</g>
<!-- MonitorBatchPublisher4&#45;&gt;gRPC&#45;PluginGetMetadata7 -->
<g id="edge25" class="edge"><title>MonitorBatchPublisher4&#45;&gt;gRPC&#45;PluginGetMetadata7</title>
<path fill="none" stroke="black" d="M1325.65,-71.6966C1327.3,-63.9827 1329.29,-54.7125 1331.13,-46.1124"/>
<polygon fill="black" stroke="black" points="1334.6,-46.6157 1333.28,-36.1043 1327.76,-45.149 1334.6,-46.6157"/>
</g>
<!-- Consumer helper: consume bidirectional stream&#45;&gt;gRPC&#45;StopChannelSpin0 -->
<g id="edge10" class="edge"><title>Consumer helper: consume bidirectional stream&#45;&gt;gRPC&#45;StopChannelSpin0</title>
<path fill="none" stroke="black" d="M1857.44,-145.811C1794.05,-133.851 1706.27,-117.289 1643.83,-105.508"/>
<polygon fill="black" stroke="black" points="1644.13,-102.001 1633.65,-103.587 1642.83,-108.88 1644.13,-102.001"/>
</g>
<!-- Consumer helper: consume bidirectional stream&#45;&gt;gRPC&#45;ConsumeRequestIterator0 -->
<g id="edge11" class="edge"><title>Consumer helper: consume bidirectional stream&#45;&gt;gRPC&#45;ConsumeRequestIterator0</title>
<path fill="none" stroke="black" d="M1907.76,-144.233C1890.7,-134.753 1869.17,-122.795 1850.85,-112.616"/>
<polygon fill="black" stroke="black" points="1852.32,-109.427 1841.88,-107.63 1848.92,-115.546 1852.32,-109.427"/>
</g>
<!-- Consumer helper: consume bidirectional stream&#45;&gt;gRPC&#45;PluginGetMetadata3 -->
<g id="edge12" class="edge"><title>Consumer helper: consume bidirectional stream&#45;&gt;gRPC&#45;PluginGetMetadata3</title>
<path fill="none" stroke="black" d="M1968.36,-144.233C1985.77,-134.64 2007.77,-122.511 2026.38,-112.254"/>
<polygon fill="black" stroke="black" points="2028.14,-115.281 2035.21,-107.388 2024.76,-109.15 2028.14,-115.281"/>
</g>
<!-- Consumer helper: consume bidirectional stream&#45;&gt;gRPC&#45;StopChannelSpin1 -->
<g id="edge13" class="edge"><title>Consumer helper: consume bidirectional stream&#45;&gt;gRPC&#45;StopChannelSpin1</title>
<path fill="none" stroke="black" d="M2015.63,-145.638C2075.56,-133.787 2157.95,-117.495 2217.14,-105.79"/>
<polygon fill="black" stroke="black" points="2218.04,-109.18 2227.18,-103.807 2216.69,-102.313 2218.04,-109.18"/>
</g>
<!-- Consumer helper: consume bidirectional stream&#45;&gt;gRPC&#45;ConsumeRequestIterator1 -->
<g id="edge14" class="edge"><title>Consumer helper: consume bidirectional stream&#45;&gt;gRPC&#45;ConsumeRequestIterator1</title>
<path fill="none" stroke="black" d="M2053.83,-148.138C2147.72,-137.627 2283.4,-122.233 2401.94,-108 2413.01,-106.671 2424.58,-105.255 2436.1,-103.828"/>
<polygon fill="black" stroke="black" points="2436.7,-107.281 2446.19,-102.574 2435.83,-100.334 2436.7,-107.281"/>
</g>
</g>
</svg>
