<?xml version="1.0" encoding="UTF-8" standalone="no"?>
<!DOCTYPE svg PUBLIC "-//W3C//DTD SVG 1.1//EN"
 "http://www.w3.org/Graphics/SVG/1.1/DTD/svg11.dtd">
<!-- Generated by graphviz version 2.38.0 (20140413.2041)
 -->
<!-- Title: G Pages: 1 -->
<svg width="1719pt" height="291pt"
 viewBox="0.00 0.00 1719.39 291.00" xmlns="http://www.w3.org/2000/svg" xmlns:xlink="http://www.w3.org/1999/xlink">
<g id="graph0" class="graph" transform="scale(1 1) rotate(0) translate(4 287)">
<title>G</title>
<polygon fill="white" stroke="none" points="-4,4 -4,-287 1715.39,-287 1715.39,4 -4,4"/>
<!-- Thread&#45;gRPC&#45;SubscribeMoot -->
<g id="node1" class="node"><title>Thread&#45;gRPC&#45;SubscribeMoot</title>
<ellipse fill="none" stroke="black" cx="164.042" cy="-178" rx="89.0842" ry="18"/>
<text text-anchor="middle" x="164.042" y="-174.3" font-family="Times,serif" font-size="14.00">gRPC&#45;SubscribeMoot</text>
</g>
<!-- Thread&#45;gRPC&#45;SpawnDelivery -->
<g id="node2" class="node"><title>Thread&#45;gRPC&#45;SpawnDelivery</title>
<ellipse fill="none" stroke="black" cx="89.0421" cy="-91" rx="89.0842" ry="18"/>
<text text-anchor="middle" x="89.0421" y="-87.3" font-family="Times,serif" font-size="14.00">gRPC&#45;SpawnDelivery</text>
</g>
<!-- Thread&#45;gRPC&#45;SubscribeMoot&#45;&gt;Thread&#45;gRPC&#45;SpawnDelivery -->
<g id="edge1" class="edge"><title>Thread&#45;gRPC&#45;SubscribeMoot&#45;&gt;Thread&#45;gRPC&#45;SpawnDelivery</title>
<path fill="none" stroke="black" d="M149.225,-160.207C138.233,-147.75 123.077,-130.573 110.725,-116.574"/>
<polygon fill="black" stroke="black" points="113.07,-113.941 103.829,-108.758 107.821,-118.572 113.07,-113.941"/>
</g>
<!-- Thread&#45;gRPC&#45;StopChannelSpin -->
<g id="node3" class="node"><title>Thread&#45;gRPC&#45;StopChannelSpin</title>
<ellipse fill="none" stroke="black" cx="292.042" cy="-91" rx="96.3833" ry="18"/>
<text text-anchor="middle" x="292.042" y="-87.3" font-family="Times,serif" font-size="14.00">gRPC&#45;StopChannelSpin</text>
</g>
<!-- Thread&#45;gRPC&#45;PluginGetMetadata++ -->
<g id="node4" class="node"><title>Thread&#45;gRPC&#45;PluginGetMetadata++</title>
<ellipse fill="none" stroke="black" cx="292.042" cy="-18" rx="103.182" ry="18"/>
<text text-anchor="middle" x="292.042" y="-14.3" font-family="Times,serif" font-size="14.00">gRPC&#45;PluginGetMetadata</text>
</g>
<!-- Thread&#45;gRPC&#45;StopChannelSpin&#45;&gt;Thread&#45;gRPC&#45;PluginGetMetadata++ -->
<g id="edge2" class="edge"><title>Thread&#45;gRPC&#45;StopChannelSpin&#45;&gt;Thread&#45;gRPC&#45;PluginGetMetadata++</title>
<path fill="none" stroke="black" d="M292.042,-72.8129C292.042,-64.7895 292.042,-55.0475 292.042,-46.0691"/>
<polygon fill="black" stroke="black" points="295.542,-46.0288 292.042,-36.0288 288.542,-46.0289 295.542,-46.0288"/>
</g>
<!-- Consumer helper: consume bidirectional stream -->
<g id="node5" class="node"><title>Consumer helper: consume bidirectional stream</title>
<ellipse fill="none" stroke="black" cx="650.042" cy="-178" rx="181.168" ry="18"/>
<text text-anchor="middle" x="650.042" y="-174.3" font-family="Times,serif" font-size="14.00">Consumer helper: consume bidirectional stream</text>
</g>
<!-- Consumer helper: consume bidirectional stream&#45;&gt;Thread&#45;gRPC&#45;StopChannelSpin -->
<g id="edge3" class="edge"><title>Consumer helper: consume bidirectional stream&#45;&gt;Thread&#45;gRPC&#45;StopChannelSpin</title>
<path fill="none" stroke="black" d="M583.544,-161.211C519.532,-146.013 423.24,-123.15 359.055,-107.911"/>
<polygon fill="black" stroke="black" points="359.578,-104.438 349.04,-105.533 357.961,-111.248 359.578,-104.438"/>
</g>
<!-- Thread&#45;gRPC&#45;ConsumeRequestIterator -->
<g id="node6" class="node"><title>Thread&#45;gRPC&#45;ConsumeRequestIterator</title>
<ellipse fill="none" stroke="black" cx="528.042" cy="-91" rx="122.379" ry="18"/>
<text text-anchor="middle" x="528.042" y="-87.3" font-family="Times,serif" font-size="14.00">gRPC&#45;ConsumeRequestIterator</text>
</g>
<!-- Consumer helper: consume bidirectional stream&#45;&gt;Thread&#45;gRPC&#45;ConsumeRequestIterator -->
<g id="edge4" class="edge"><title>Consumer helper: consume bidirectional stream&#45;&gt;Thread&#45;gRPC&#45;ConsumeRequestIterator</title>
<path fill="none" stroke="black" d="M625.647,-160.003C606.907,-146.947 580.852,-128.794 560.376,-114.528"/>
<polygon fill="black" stroke="black" points="562.185,-111.522 551.979,-108.678 558.184,-117.266 562.185,-111.522"/>
<text text-anchor="middle" x="600.542" y="-130.8" font-family="Times,serif" font-size="14.00">2</text>
</g>
<!-- Thread&#45;gRPC&#45;PluginGetMetadata+++ -->
<g id="node7" class="node"><title>Thread&#45;gRPC&#45;PluginGetMetadata+++</title>
<ellipse fill="none" stroke="black" cx="772.042" cy="-91" rx="103.182" ry="18"/>
<text text-anchor="middle" x="772.042" y="-87.3" font-family="Times,serif" font-size="14.00">gRPC&#45;PluginGetMetadata</text>
</g>
<!-- Consumer helper: consume bidirectional stream&#45;&gt;Thread&#45;gRPC&#45;PluginGetMetadata+++ -->
<g id="edge5" class="edge"><title>Consumer helper: consume bidirectional stream&#45;&gt;Thread&#45;gRPC&#45;PluginGetMetadata+++</title>
<path fill="none" stroke="black" d="M674.437,-160.003C693.177,-146.947 719.232,-128.794 739.708,-114.528"/>
<polygon fill="black" stroke="black" points="741.901,-117.266 748.105,-108.678 737.899,-111.522 741.901,-117.266"/>
</g>
<!-- Thread&#45;gRPC&#45;StopChannelSpin+ -->
<g id="node8" class="node"><title>Thread&#45;gRPC&#45;StopChannelSpin+</title>
<ellipse fill="none" stroke="black" cx="990.042" cy="-91" rx="96.3833" ry="18"/>
<text text-anchor="middle" x="990.042" y="-87.3" font-family="Times,serif" font-size="14.00">gRPC&#45;StopChannelSpin</text>
</g>
<!-- Consumer helper: consume bidirectional stream&#45;&gt;Thread&#45;gRPC&#45;StopChannelSpin+ -->
<g id="edge6" class="edge"><title>Consumer helper: consume bidirectional stream&#45;&gt;Thread&#45;gRPC&#45;StopChannelSpin+</title>
<path fill="none" stroke="black" d="M713.595,-161.112C773.95,-146.023 864.26,-123.446 925.077,-108.241"/>
<polygon fill="black" stroke="black" points="926.097,-111.594 934.95,-105.773 924.399,-104.803 926.097,-111.594"/>
</g>
<!-- Thread&#45;MonitorBatchPublisher -->
<g id="node9" class="node"><title>Thread&#45;MonitorBatchPublisher</title>
<ellipse fill="none" stroke="black" cx="1198.04" cy="-91" rx="93.6835" ry="18"/>
<text text-anchor="middle" x="1198.04" y="-87.3" font-family="Times,serif" font-size="14.00">MonitorBatchPublisher</text>
</g>
<!-- Thread&#45;gRPC&#45;PluginGetMetadata+ -->
<g id="node10" class="node"><title>Thread&#45;gRPC&#45;PluginGetMetadata+</title>
<ellipse fill="none" stroke="black" cx="1198.04" cy="-18" rx="103.182" ry="18"/>
<text text-anchor="middle" x="1198.04" y="-14.3" font-family="Times,serif" font-size="14.00">gRPC&#45;PluginGetMetadata</text>
</g>
<!-- Thread&#45;MonitorBatchPublisher&#45;&gt;Thread&#45;gRPC&#45;PluginGetMetadata+ -->
<g id="edge7" class="edge"><title>Thread&#45;MonitorBatchPublisher&#45;&gt;Thread&#45;gRPC&#45;PluginGetMetadata+</title>
<path fill="none" stroke="black" d="M1198.04,-72.8129C1198.04,-64.7895 1198.04,-55.0475 1198.04,-46.0691"/>
<polygon fill="black" stroke="black" points="1201.54,-46.0288 1198.04,-36.0288 1194.54,-46.0289 1201.54,-46.0288"/>
</g>
<!-- Thread&#45;ReproPublish -->
<g id="node11" class="node"><title>Thread&#45;ReproPublish</title>
<ellipse fill="none" stroke="black" cx="908.042" cy="-178" rx="58.4896" ry="18"/>
<text text-anchor="middle" x="908.042" y="-174.3" font-family="Times,serif" font-size="14.00">ReproPublish</text>
</g>
<!-- Thread&#45;ReproPublish&#45;&gt;Thread&#45;MonitorBatchPublisher -->
<g id="edge8" class="edge"><title>Thread&#45;ReproPublish&#45;&gt;Thread&#45;MonitorBatchPublisher</title>
<path fill="none" stroke="black" d="M948.977,-165.002C998.613,-150.453 1082.63,-125.826 1139.2,-109.246"/>
<polygon fill="black" stroke="black" points="1140.47,-112.522 1149.08,-106.35 1138.5,-105.804 1140.47,-112.522"/>
<text text-anchor="middle" x="1074.54" y="-130.8" font-family="Times,serif" font-size="14.00">5</text>
</g>
<!-- MainThread -->
<g id="node12" class="node"><title>MainThread</title>
<ellipse fill="none" stroke="black" cx="1043.04" cy="-265" rx="54.6905" ry="18"/>
<text text-anchor="middle" x="1043.04" y="-261.3" font-family="Times,serif" font-size="14.00">MainThread</text>
</g>
<!-- MainThread&#45;&gt;Thread&#45;gRPC&#45;SubscribeMoot -->
<g id="edge9" class="edge"><title>MainThread&#45;&gt;Thread&#45;gRPC&#45;SubscribeMoot</title>
<path fill="none" stroke="black" d="M991.338,-259C846.326,-244.977 434.493,-205.153 252.441,-187.548"/>
<polygon fill="black" stroke="black" points="252.656,-184.053 242.365,-186.574 251.982,-191.02 252.656,-184.053"/>
<text text-anchor="middle" x="660.542" y="-217.8" font-family="Times,serif" font-size="14.00">2</text>
</g>
<!-- MainThread&#45;&gt;Consumer helper: consume bidirectional stream -->
<g id="edge12" class="edge"><title>MainThread&#45;&gt;Consumer helper: consume bidirectional stream</title>
<path fill="none" stroke="black" d="M998.724,-254.415C934.234,-240.466 813.395,-214.331 732.311,-196.794"/>
<polygon fill="black" stroke="black" points="732.647,-193.285 722.133,-194.592 731.167,-200.127 732.647,-193.285"/>
</g>
<!-- MainThread&#45;&gt;Thread&#45;ReproPublish -->
<g id="edge14" class="edge"><title>MainThread&#45;&gt;Thread&#45;ReproPublish</title>
<path fill="none" stroke="black" d="M1018.91,-248.804C997.292,-235.194 965.389,-215.107 941.349,-199.971"/>
<polygon fill="black" stroke="black" points="943.209,-197.006 932.882,-194.64 939.479,-202.93 943.209,-197.006"/>
</g>
<!-- Thread&#45;gRPC&#45;PluginGetMetadata -->
<g id="node13" class="node"><title>Thread&#45;gRPC&#45;PluginGetMetadata</title>
<ellipse fill="none" stroke="black" cx="1088.04" cy="-178" rx="103.182" ry="18"/>
<text text-anchor="middle" x="1088.04" y="-174.3" font-family="Times,serif" font-size="14.00">gRPC&#45;PluginGetMetadata</text>
</g>
<!-- MainThread&#45;&gt;Thread&#45;gRPC&#45;PluginGetMetadata -->
<g id="edge10" class="edge"><title>MainThread&#45;&gt;Thread&#45;gRPC&#45;PluginGetMetadata</title>
<path fill="none" stroke="black" d="M1051.93,-247.207C1058.3,-235.178 1067,-218.748 1074.26,-205.028"/>
<polygon fill="black" stroke="black" points="1077.43,-206.525 1079.02,-196.049 1071.24,-203.25 1077.43,-206.525"/>
<text text-anchor="middle" x="1072.54" y="-217.8" font-family="Times,serif" font-size="14.00">2</text>
</g>
<!-- Consumer helper: callback requests worker -->
<g id="node14" class="node"><title>Consumer helper: callback requests worker</title>
<ellipse fill="none" stroke="black" cx="1374.04" cy="-178" rx="164.371" ry="18"/>
<text text-anchor="middle" x="1374.04" y="-174.3" font-family="Times,serif" font-size="14.00">Consumer helper: callback requests worker</text>
</g>
<!-- MainThread&#45;&gt;Consumer helper: callback requests worker -->
<g id="edge11" class="edge"><title>MainThread&#45;&gt;Consumer helper: callback requests worker</title>
<path fill="none" stroke="black" d="M1084.63,-253.321C1139.29,-239.283 1236.16,-214.407 1302.66,-197.33"/>
<polygon fill="black" stroke="black" points="1303.84,-200.641 1312.66,-194.764 1302.1,-193.861 1303.84,-200.641"/>
</g>
<!-- Thread&#45;LeaseMaintenance -->
<g id="node15" class="node"><title>Thread&#45;LeaseMaintenance</title>
<ellipse fill="none" stroke="black" cx="1634.04" cy="-178" rx="77.1866" ry="18"/>
<text text-anchor="middle" x="1634.04" y="-174.3" font-family="Times,serif" font-size="14.00">LeaseMaintenance</text>
</g>
<!-- MainThread&#45;&gt;Thread&#45;LeaseMaintenance -->
<g id="edge13" class="edge"><title>MainThread&#45;&gt;Thread&#45;LeaseMaintenance</title>
<path fill="none" stroke="black" d="M1093.62,-258.175C1184.59,-247.477 1381.74,-223.277 1547.04,-196 1553.78,-194.889 1560.79,-193.653 1567.78,-192.368"/>
<polygon fill="black" stroke="black" points="1568.78,-195.74 1577.97,-190.46 1567.5,-188.86 1568.78,-195.74"/>
</g>
</g>
</svg>
