<?xml version="1.0" encoding="UTF-8" standalone="no"?>
<!DOCTYPE svg PUBLIC "-//W3C//DTD SVG 1.1//EN"
 "http://www.w3.org/Graphics/SVG/1.1/DTD/svg11.dtd">
<!-- Generated by graphviz version 2.38.0 (20140413.2041)
 -->
<!-- Title: G Pages: 1 -->
<svg width="1933pt" height="291pt"
 viewBox="0.00 0.00 1932.68 291.00" xmlns="http://www.w3.org/2000/svg" xmlns:xlink="http://www.w3.org/1999/xlink">
<g id="graph0" class="graph" transform="scale(1 1) rotate(0) translate(4 287)">
<title>G</title>
<polygon fill="white" stroke="none" points="-4,4 -4,-287 1928.68,-287 1928.68,4 -4,4"/>
<!-- Thread&#45;gRPC&#45;StopChannelSpin -->
<g id="node1" class="node"><title>Thread&#45;gRPC&#45;StopChannelSpin</title>
<ellipse fill="none" stroke="black" cx="103.341" cy="-91" rx="96.3833" ry="18"/>
<text text-anchor="middle" x="103.341" y="-87.3" font-family="Times,serif" font-size="14.00">gRPC&#45;StopChannelSpin</text>
</g>
<!-- Thread&#45;gRPC&#45;PluginGetMetadata++ -->
<g id="node2" class="node"><title>Thread&#45;gRPC&#45;PluginGetMetadata++</title>
<ellipse fill="none" stroke="black" cx="103.341" cy="-18" rx="103.182" ry="18"/>
<text text-anchor="middle" x="103.341" y="-14.3" font-family="Times,serif" font-size="14.00">gRPC&#45;PluginGetMetadata</text>
</g>
<!-- Thread&#45;gRPC&#45;StopChannelSpin&#45;&gt;Thread&#45;gRPC&#45;PluginGetMetadata++ -->
<g id="edge1" class="edge"><title>Thread&#45;gRPC&#45;StopChannelSpin&#45;&gt;Thread&#45;gRPC&#45;PluginGetMetadata++</title>
<path fill="none" stroke="black" d="M103.341,-72.8129C103.341,-64.7895 103.341,-55.0475 103.341,-46.0691"/>
<polygon fill="black" stroke="black" points="106.841,-46.0288 103.341,-36.0288 99.8409,-46.0289 106.841,-46.0288"/>
</g>
<!-- Consumer helper: consume bidirectional stream -->
<g id="node3" class="node"><title>Consumer helper: consume bidirectional stream</title>
<ellipse fill="none" stroke="black" cx="583.341" cy="-178" rx="181.168" ry="18"/>
<text text-anchor="middle" x="583.341" y="-174.3" font-family="Times,serif" font-size="14.00">Consumer helper: consume bidirectional stream</text>
</g>
<!-- Consumer helper: consume bidirectional stream&#45;&gt;Thread&#45;gRPC&#45;StopChannelSpin -->
<g id="edge2" class="edge"><title>Consumer helper: consume bidirectional stream&#45;&gt;Thread&#45;gRPC&#45;StopChannelSpin</title>
<path fill="none" stroke="black" d="M498.907,-162.048C408.988,-146.125 267.877,-121.137 180.742,-105.707"/>
<polygon fill="black" stroke="black" points="181.11,-102.217 170.653,-103.92 179.889,-109.11 181.11,-102.217"/>
</g>
<!-- Thread&#45;gRPC&#45;ConsumeRequestIterator -->
<g id="node4" class="node"><title>Thread&#45;gRPC&#45;ConsumeRequestIterator</title>
<ellipse fill="none" stroke="black" cx="339.341" cy="-91" rx="122.379" ry="18"/>
<text text-anchor="middle" x="339.341" y="-87.3" font-family="Times,serif" font-size="14.00">gRPC&#45;ConsumeRequestIterator</text>
</g>
<!-- Consumer helper: consume bidirectional stream&#45;&gt;Thread&#45;gRPC&#45;ConsumeRequestIterator -->
<g id="edge3" class="edge"><title>Consumer helper: consume bidirectional stream&#45;&gt;Thread&#45;gRPC&#45;ConsumeRequestIterator</title>
<path fill="none" stroke="black" d="M536.295,-160.611C495.697,-146.468 437.018,-126.027 394.275,-111.137"/>
<polygon fill="black" stroke="black" points="395.187,-107.748 384.592,-107.764 392.884,-114.359 395.187,-107.748"/>
<text text-anchor="middle" x="479.841" y="-130.8" font-family="Times,serif" font-size="14.00">2</text>
</g>
<!-- Thread&#45;gRPC&#45;PluginGetMetadata+++ -->
<g id="node5" class="node"><title>Thread&#45;gRPC&#45;PluginGetMetadata+++</title>
<ellipse fill="none" stroke="black" cx="583.341" cy="-91" rx="103.182" ry="18"/>
<text text-anchor="middle" x="583.341" y="-87.3" font-family="Times,serif" font-size="14.00">gRPC&#45;PluginGetMetadata</text>
</g>
<!-- Consumer helper: consume bidirectional stream&#45;&gt;Thread&#45;gRPC&#45;PluginGetMetadata+++ -->
<g id="edge4" class="edge"><title>Consumer helper: consume bidirectional stream&#45;&gt;Thread&#45;gRPC&#45;PluginGetMetadata+++</title>
<path fill="none" stroke="black" d="M583.341,-159.799C583.341,-148.163 583.341,-132.548 583.341,-119.237"/>
<polygon fill="black" stroke="black" points="586.841,-119.175 583.341,-109.175 579.841,-119.175 586.841,-119.175"/>
</g>
<!-- Thread&#45;gRPC&#45;StopChannelSpin+ -->
<g id="node6" class="node"><title>Thread&#45;gRPC&#45;StopChannelSpin+</title>
<ellipse fill="none" stroke="black" cx="801.341" cy="-91" rx="96.3833" ry="18"/>
<text text-anchor="middle" x="801.341" y="-87.3" font-family="Times,serif" font-size="14.00">gRPC&#45;StopChannelSpin</text>
</g>
<!-- Consumer helper: consume bidirectional stream&#45;&gt;Thread&#45;gRPC&#45;StopChannelSpin+ -->
<g id="edge5" class="edge"><title>Consumer helper: consume bidirectional stream&#45;&gt;Thread&#45;gRPC&#45;StopChannelSpin+</title>
<path fill="none" stroke="black" d="M625.891,-160.409C662.102,-146.29 714.134,-126.003 752.131,-111.187"/>
<polygon fill="black" stroke="black" points="753.425,-114.44 761.47,-107.546 750.882,-107.918 753.425,-114.44"/>
</g>
<!-- Thread&#45;MonitorBatchPublisher -->
<g id="node7" class="node"><title>Thread&#45;MonitorBatchPublisher</title>
<ellipse fill="none" stroke="black" cx="1009.34" cy="-91" rx="93.6835" ry="18"/>
<text text-anchor="middle" x="1009.34" y="-87.3" font-family="Times,serif" font-size="14.00">MonitorBatchPublisher</text>
</g>
<!-- Thread&#45;gRPC&#45;PluginGetMetadata+ -->
<g id="node8" class="node"><title>Thread&#45;gRPC&#45;PluginGetMetadata+</title>
<ellipse fill="none" stroke="black" cx="1009.34" cy="-18" rx="103.182" ry="18"/>
<text text-anchor="middle" x="1009.34" y="-14.3" font-family="Times,serif" font-size="14.00">gRPC&#45;PluginGetMetadata</text>
</g>
<!-- Thread&#45;MonitorBatchPublisher&#45;&gt;Thread&#45;gRPC&#45;PluginGetMetadata+ -->
<g id="edge6" class="edge"><title>Thread&#45;MonitorBatchPublisher&#45;&gt;Thread&#45;gRPC&#45;PluginGetMetadata+</title>
<path fill="none" stroke="black" d="M1009.34,-72.8129C1009.34,-64.7895 1009.34,-55.0475 1009.34,-46.0691"/>
<polygon fill="black" stroke="black" points="1012.84,-46.0288 1009.34,-36.0288 1005.84,-46.0289 1012.84,-46.0288"/>
</g>
<!-- Thread&#45;ReproPublish -->
<g id="node9" class="node"><title>Thread&#45;ReproPublish</title>
<ellipse fill="none" stroke="black" cx="925.341" cy="-178" rx="58.4896" ry="18"/>
<text text-anchor="middle" x="925.341" y="-174.3" font-family="Times,serif" font-size="14.00">ReproPublish</text>
</g>
<!-- Thread&#45;ReproPublish&#45;&gt;Thread&#45;MonitorBatchPublisher -->
<g id="edge7" class="edge"><title>Thread&#45;ReproPublish&#45;&gt;Thread&#45;MonitorBatchPublisher</title>
<path fill="none" stroke="black" d="M941.537,-160.611C953.926,-148.074 971.207,-130.588 985.221,-116.407"/>
<polygon fill="black" stroke="black" points="988.08,-118.493 992.62,-108.92 983.101,-113.573 988.08,-118.493"/>
<text text-anchor="middle" x="976.841" y="-130.8" font-family="Times,serif" font-size="14.00">5</text>
</g>
<!-- MainThread -->
<g id="node10" class="node"><title>MainThread</title>
<ellipse fill="none" stroke="black" cx="1196.34" cy="-265" rx="54.6905" ry="18"/>
<text text-anchor="middle" x="1196.34" y="-261.3" font-family="Times,serif" font-size="14.00">MainThread</text>
</g>
<!-- MainThread&#45;&gt;Consumer helper: consume bidirectional stream -->
<g id="edge11" class="edge"><title>MainThread&#45;&gt;Consumer helper: consume bidirectional stream</title>
<path fill="none" stroke="black" d="M1146.95,-257.152C1049.09,-243.582 828.425,-212.984 694.07,-194.354"/>
<polygon fill="black" stroke="black" points="694.534,-190.885 684.148,-192.978 693.573,-197.819 694.534,-190.885"/>
</g>
<!-- MainThread&#45;&gt;Thread&#45;ReproPublish -->
<g id="edge13" class="edge"><title>MainThread&#45;&gt;Thread&#45;ReproPublish</title>
<path fill="none" stroke="black" d="M1158.09,-252.002C1109.98,-236.912 1027.3,-210.979 974.53,-194.428"/>
<polygon fill="black" stroke="black" points="975.307,-191.004 964.718,-191.351 973.212,-197.683 975.307,-191.004"/>
</g>
<!-- Thread&#45;gRPC&#45;SubscribeMoot -->
<g id="node11" class="node"><title>Thread&#45;gRPC&#45;SubscribeMoot</title>
<ellipse fill="none" stroke="black" cx="1091.34" cy="-178" rx="89.0842" ry="18"/>
<text text-anchor="middle" x="1091.34" y="-174.3" font-family="Times,serif" font-size="14.00">gRPC&#45;SubscribeMoot</text>
</g>
<!-- MainThread&#45;&gt;Thread&#45;gRPC&#45;SubscribeMoot -->
<g id="edge8" class="edge"><title>MainThread&#45;&gt;Thread&#45;gRPC&#45;SubscribeMoot</title>
<path fill="none" stroke="black" d="M1176.59,-248.012C1160.62,-235.084 1137.92,-216.706 1119.96,-202.166"/>
<polygon fill="black" stroke="black" points="1122.05,-199.36 1112.08,-195.789 1117.65,-204.801 1122.05,-199.36"/>
<text text-anchor="middle" x="1153.84" y="-217.8" font-family="Times,serif" font-size="14.00">2</text>
</g>
<!-- Thread&#45;gRPC&#45;PluginGetMetadata -->
<g id="node12" class="node"><title>Thread&#45;gRPC&#45;PluginGetMetadata</title>
<ellipse fill="none" stroke="black" cx="1301.34" cy="-178" rx="103.182" ry="18"/>
<text text-anchor="middle" x="1301.34" y="-174.3" font-family="Times,serif" font-size="14.00">gRPC&#45;PluginGetMetadata</text>
</g>
<!-- MainThread&#45;&gt;Thread&#45;gRPC&#45;PluginGetMetadata -->
<g id="edge9" class="edge"><title>MainThread&#45;&gt;Thread&#45;gRPC&#45;PluginGetMetadata</title>
<path fill="none" stroke="black" d="M1216.09,-248.012C1232.06,-235.084 1254.76,-216.706 1272.72,-202.166"/>
<polygon fill="black" stroke="black" points="1275.03,-204.801 1280.6,-195.789 1270.63,-199.36 1275.03,-204.801"/>
<text text-anchor="middle" x="1258.84" y="-217.8" font-family="Times,serif" font-size="14.00">2</text>
</g>
<!-- Consumer helper: callback requests worker -->
<g id="node13" class="node"><title>Consumer helper: callback requests worker</title>
<ellipse fill="none" stroke="black" cx="1587.34" cy="-178" rx="164.371" ry="18"/>
<text text-anchor="middle" x="1587.34" y="-174.3" font-family="Times,serif" font-size="14.00">Consumer helper: callback requests worker</text>
</g>
<!-- MainThread&#45;&gt;Consumer helper: callback requests worker -->
<g id="edge10" class="edge"><title>MainThread&#45;&gt;Consumer helper: callback requests worker</title>
<path fill="none" stroke="black" d="M1240.81,-254.332C1305.4,-240.291 1426.23,-214.024 1506.75,-196.52"/>
<polygon fill="black" stroke="black" points="1507.82,-199.869 1516.85,-194.324 1506.33,-193.029 1507.82,-199.869"/>
</g>
<!-- Thread&#45;LeaseMaintenance -->
<g id="node14" class="node"><title>Thread&#45;LeaseMaintenance</title>
<ellipse fill="none" stroke="black" cx="1847.34" cy="-178" rx="77.1866" ry="18"/>
<text text-anchor="middle" x="1847.34" y="-174.3" font-family="Times,serif" font-size="14.00">LeaseMaintenance</text>
</g>
<!-- MainThread&#45;&gt;Thread&#45;LeaseMaintenance -->
<g id="edge12" class="edge"><title>MainThread&#45;&gt;Thread&#45;LeaseMaintenance</title>
<path fill="none" stroke="black" d="M1248.23,-259.024C1347.82,-249.189 1572.56,-225.626 1760.34,-196 1767.08,-194.936 1774.1,-193.731 1781.09,-192.465"/>
<polygon fill="black" stroke="black" points="1782.09,-195.84 1791.29,-190.577 1780.82,-188.957 1782.09,-195.84"/>
</g>
</g>
</svg>
