<?xml version="1.0" encoding="UTF-8" standalone="no"?>
<!DOCTYPE svg PUBLIC "-//W3C//DTD SVG 1.1//EN"
 "http://www.w3.org/Graphics/SVG/1.1/DTD/svg11.dtd">
<!-- Generated by graphviz version 2.38.0 (20140413.2041)
 -->
<!-- Title: G Pages: 1 -->
<svg width="1054pt" height="449pt"
 viewBox="0.00 0.00 1053.92 449.00" xmlns="http://www.w3.org/2000/svg" xmlns:xlink="http://www.w3.org/1999/xlink">
<g id="graph0" class="graph" transform="scale(1 1) rotate(0) translate(4 445)">
<title>G</title>
<polygon fill="white" stroke="none" points="-4,4 -4,-445 1049.92,-445 1049.92,4 -4,4"/>
<!-- Thread&#45;gRPC&#45;StopChannelSpin -->
<g id="node1" class="node"><title>Thread&#45;gRPC&#45;StopChannelSpin</title>
<ellipse fill="none" stroke="black" cx="680.047" cy="-423" rx="96.3833" ry="18"/>
<text text-anchor="middle" x="680.047" y="-419.3" font-family="Times,serif" font-size="14.00">gRPC&#45;StopChannelSpin</text>
</g>
<!-- Thread&#45;gRPC&#45;PluginGetMetadata++ -->
<g id="node2" class="node"><title>Thread&#45;gRPC&#45;PluginGetMetadata++</title>
<ellipse fill="none" stroke="black" cx="942.577" cy="-423" rx="103.182" ry="18"/>
<text text-anchor="middle" x="942.577" y="-419.3" font-family="Times,serif" font-size="14.00">gRPC&#45;PluginGetMetadata</text>
</g>
<!-- Thread&#45;gRPC&#45;StopChannelSpin&#45;&gt;Thread&#45;gRPC&#45;PluginGetMetadata++ -->
<g id="edge1" class="edge"><title>Thread&#45;gRPC&#45;StopChannelSpin&#45;&gt;Thread&#45;gRPC&#45;PluginGetMetadata++</title>
<path fill="none" stroke="black" d="M776.58,-423C793.576,-423 811.422,-423 828.843,-423"/>
<polygon fill="black" stroke="black" points="829.041,-426.5 839.041,-423 829.041,-419.5 829.041,-426.5"/>
</g>
<!-- Consumer helper: consume bidirectional stream -->
<g id="node3" class="node"><title>Consumer helper: consume bidirectional stream</title>
<ellipse fill="none" stroke="black" cx="333.524" cy="-315" rx="181.168" ry="18"/>
<text text-anchor="middle" x="333.524" y="-311.3" font-family="Times,serif" font-size="14.00">Consumer helper: consume bidirectional stream</text>
</g>
<!-- Consumer helper: consume bidirectional stream&#45;&gt;Thread&#45;gRPC&#45;StopChannelSpin -->
<g id="edge2" class="edge"><title>Consumer helper: consume bidirectional stream&#45;&gt;Thread&#45;gRPC&#45;StopChannelSpin</title>
<path fill="none" stroke="black" d="M377.626,-332.509C422.209,-350.174 494.106,-377.421 557.858,-396 572.458,-400.255 588.214,-404.215 603.381,-407.72"/>
<polygon fill="black" stroke="black" points="602.718,-411.158 613.244,-409.956 604.265,-404.331 602.718,-411.158"/>
</g>
<!-- Thread&#45;gRPC&#45;ConsumeRequestIterator -->
<g id="node4" class="node"><title>Thread&#45;gRPC&#45;ConsumeRequestIterator</title>
<ellipse fill="none" stroke="black" cx="680.047" cy="-369" rx="122.379" ry="18"/>
<text text-anchor="middle" x="680.047" y="-365.3" font-family="Times,serif" font-size="14.00">gRPC&#45;ConsumeRequestIterator</text>
</g>
<!-- Consumer helper: consume bidirectional stream&#45;&gt;Thread&#45;gRPC&#45;ConsumeRequestIterator -->
<g id="edge3" class="edge"><title>Consumer helper: consume bidirectional stream&#45;&gt;Thread&#45;gRPC&#45;ConsumeRequestIterator</title>
<path fill="none" stroke="black" d="M431.41,-330.186C479.72,-337.758 537.883,-346.874 585.698,-354.369"/>
<polygon fill="black" stroke="black" points="585.316,-357.851 595.737,-355.942 586.4,-350.936 585.316,-357.851"/>
<text text-anchor="middle" x="536.358" y="-349.8" font-family="Times,serif" font-size="14.00">2</text>
</g>
<!-- Thread&#45;gRPC&#45;PluginGetMetadata+++ -->
<g id="node5" class="node"><title>Thread&#45;gRPC&#45;PluginGetMetadata+++</title>
<ellipse fill="none" stroke="black" cx="680.047" cy="-315" rx="103.182" ry="18"/>
<text text-anchor="middle" x="680.047" y="-311.3" font-family="Times,serif" font-size="14.00">gRPC&#45;PluginGetMetadata</text>
</g>
<!-- Consumer helper: consume bidirectional stream&#45;&gt;Thread&#45;gRPC&#45;PluginGetMetadata+++ -->
<g id="edge4" class="edge"><title>Consumer helper: consume bidirectional stream&#45;&gt;Thread&#45;gRPC&#45;PluginGetMetadata+++</title>
<path fill="none" stroke="black" d="M515.11,-315C532.484,-315 549.745,-315 566.183,-315"/>
<polygon fill="black" stroke="black" points="566.306,-318.5 576.306,-315 566.305,-311.5 566.306,-318.5"/>
</g>
<!-- Thread&#45;gRPC&#45;StopChannelSpin+ -->
<g id="node6" class="node"><title>Thread&#45;gRPC&#45;StopChannelSpin+</title>
<ellipse fill="none" stroke="black" cx="680.047" cy="-261" rx="96.3833" ry="18"/>
<text text-anchor="middle" x="680.047" y="-257.3" font-family="Times,serif" font-size="14.00">gRPC&#45;StopChannelSpin</text>
</g>
<!-- Consumer helper: consume bidirectional stream&#45;&gt;Thread&#45;gRPC&#45;StopChannelSpin+ -->
<g id="edge5" class="edge"><title>Consumer helper: consume bidirectional stream&#45;&gt;Thread&#45;gRPC&#45;StopChannelSpin+</title>
<path fill="none" stroke="black" d="M431.41,-299.814C483.173,-291.701 546.247,-281.815 595.784,-274.051"/>
<polygon fill="black" stroke="black" points="596.484,-277.484 605.821,-272.477 595.4,-270.568 596.484,-277.484"/>
</g>
<!-- Thread&#45;MonitorBatchPublisher -->
<g id="node7" class="node"><title>Thread&#45;MonitorBatchPublisher</title>
<ellipse fill="none" stroke="black" cx="680.047" cy="-207" rx="93.6835" ry="18"/>
<text text-anchor="middle" x="680.047" y="-203.3" font-family="Times,serif" font-size="14.00">MonitorBatchPublisher</text>
</g>
<!-- Thread&#45;gRPC&#45;PluginGetMetadata+ -->
<g id="node8" class="node"><title>Thread&#45;gRPC&#45;PluginGetMetadata+</title>
<ellipse fill="none" stroke="black" cx="942.577" cy="-207" rx="103.182" ry="18"/>
<text text-anchor="middle" x="942.577" y="-203.3" font-family="Times,serif" font-size="14.00">gRPC&#45;PluginGetMetadata</text>
</g>
<!-- Thread&#45;MonitorBatchPublisher&#45;&gt;Thread&#45;gRPC&#45;PluginGetMetadata+ -->
<g id="edge6" class="edge"><title>Thread&#45;MonitorBatchPublisher&#45;&gt;Thread&#45;gRPC&#45;PluginGetMetadata+</title>
<path fill="none" stroke="black" d="M774.001,-207C791.756,-207 810.522,-207 828.818,-207"/>
<polygon fill="black" stroke="black" points="828.925,-210.5 838.924,-207 828.924,-203.5 828.925,-210.5"/>
</g>
<!-- Thread&#45;ReproPublish -->
<g id="node9" class="node"><title>Thread&#45;ReproPublish</title>
<ellipse fill="none" stroke="black" cx="333.524" cy="-234" rx="58.4896" ry="18"/>
<text text-anchor="middle" x="333.524" y="-230.3" font-family="Times,serif" font-size="14.00">ReproPublish</text>
</g>
<!-- Thread&#45;ReproPublish&#45;&gt;Thread&#45;MonitorBatchPublisher -->
<g id="edge7" class="edge"><title>Thread&#45;ReproPublish&#45;&gt;Thread&#45;MonitorBatchPublisher</title>
<path fill="none" stroke="black" d="M390.645,-229.602C442.572,-225.532 520.856,-219.397 582.765,-214.546"/>
<polygon fill="black" stroke="black" points="583.249,-218.018 592.945,-213.748 582.703,-211.04 583.249,-218.018"/>
<text text-anchor="middle" x="536.358" y="-221.8" font-family="Times,serif" font-size="14.00">5</text>
</g>
<!-- MainThread -->
<g id="node10" class="node"><title>MainThread</title>
<ellipse fill="none" stroke="black" cx="54.5952" cy="-153" rx="54.6905" ry="18"/>
<text text-anchor="middle" x="54.5952" y="-149.3" font-family="Times,serif" font-size="14.00">MainThread</text>
</g>
<!-- MainThread&#45;&gt;Consumer helper: consume bidirectional stream -->
<g id="edge11" class="edge"><title>MainThread&#45;&gt;Consumer helper: consume bidirectional stream</title>
<path fill="none" stroke="black" d="M66.7775,-170.685C82.8191,-194.634 114.609,-237.122 152.19,-261 177.236,-276.913 207.2,-288.331 235.443,-296.441"/>
<polygon fill="black" stroke="black" points="234.779,-299.888 245.35,-299.173 236.64,-293.14 234.779,-299.888"/>
</g>
<!-- MainThread&#45;&gt;Thread&#45;ReproPublish -->
<g id="edge13" class="edge"><title>MainThread&#45;&gt;Thread&#45;ReproPublish</title>
<path fill="none" stroke="black" d="M79.0694,-169.32C97.9607,-181.643 125.646,-197.932 152.19,-207 188.59,-219.435 231.062,-226.148 265.641,-229.77"/>
<polygon fill="black" stroke="black" points="265.343,-233.257 275.638,-230.755 266.029,-226.291 265.343,-233.257"/>
</g>
<!-- Thread&#45;gRPC&#45;SubscribeMoot -->
<g id="node11" class="node"><title>Thread&#45;gRPC&#45;SubscribeMoot</title>
<ellipse fill="none" stroke="black" cx="333.524" cy="-180" rx="89.0842" ry="18"/>
<text text-anchor="middle" x="333.524" y="-176.3" font-family="Times,serif" font-size="14.00">gRPC&#45;SubscribeMoot</text>
</g>
<!-- MainThread&#45;&gt;Thread&#45;gRPC&#45;SubscribeMoot -->
<g id="edge8" class="edge"><title>MainThread&#45;&gt;Thread&#45;gRPC&#45;SubscribeMoot</title>
<path fill="none" stroke="black" d="M107.034,-158.015C145.134,-161.73 198.017,-166.886 242.995,-171.271"/>
<polygon fill="black" stroke="black" points="242.762,-174.765 253.054,-172.252 243.441,-167.798 242.762,-174.765"/>
<text text-anchor="middle" x="130.69" y="-164.8" font-family="Times,serif" font-size="14.00">2</text>
</g>
<!-- Thread&#45;gRPC&#45;PluginGetMetadata -->
<g id="node12" class="node"><title>Thread&#45;gRPC&#45;PluginGetMetadata</title>
<ellipse fill="none" stroke="black" cx="333.524" cy="-126" rx="103.182" ry="18"/>
<text text-anchor="middle" x="333.524" y="-122.3" font-family="Times,serif" font-size="14.00">gRPC&#45;PluginGetMetadata</text>
</g>
<!-- MainThread&#45;&gt;Thread&#45;gRPC&#45;PluginGetMetadata -->
<g id="edge9" class="edge"><title>MainThread&#45;&gt;Thread&#45;gRPC&#45;PluginGetMetadata</title>
<path fill="none" stroke="black" d="M103.668,-145.11C111.516,-143.967 119.57,-142.881 127.19,-142 159.161,-138.304 194.034,-135.229 225.815,-132.795"/>
<polygon fill="black" stroke="black" points="226.309,-136.268 236.018,-132.027 225.783,-129.287 226.309,-136.268"/>
<text text-anchor="middle" x="130.69" y="-145.8" font-family="Times,serif" font-size="14.00">2</text>
</g>
<!-- Consumer helper: callback requests worker -->
<g id="node13" class="node"><title>Consumer helper: callback requests worker</title>
<ellipse fill="none" stroke="black" cx="333.524" cy="-72" rx="164.371" ry="18"/>
<text text-anchor="middle" x="333.524" y="-68.3" font-family="Times,serif" font-size="14.00">Consumer helper: callback requests worker</text>
</g>
<!-- MainThread&#45;&gt;Consumer helper: callback requests worker -->
<g id="edge10" class="edge"><title>MainThread&#45;&gt;Consumer helper: callback requests worker</title>
<path fill="none" stroke="black" d="M79.0694,-136.68C97.9607,-124.357 125.646,-108.068 152.19,-99 167.571,-93.7456 184.037,-89.5127 200.533,-86.1031"/>
<polygon fill="black" stroke="black" points="201.661,-89.4483 210.798,-84.0847 200.311,-82.5798 201.661,-89.4483"/>
</g>
<!-- Thread&#45;LeaseMaintenance -->
<g id="node14" class="node"><title>Thread&#45;LeaseMaintenance</title>
<ellipse fill="none" stroke="black" cx="333.524" cy="-18" rx="77.1866" ry="18"/>
<text text-anchor="middle" x="333.524" y="-14.3" font-family="Times,serif" font-size="14.00">LeaseMaintenance</text>
</g>
<!-- MainThread&#45;&gt;Thread&#45;LeaseMaintenance -->
<g id="edge12" class="edge"><title>MainThread&#45;&gt;Thread&#45;LeaseMaintenance</title>
<path fill="none" stroke="black" d="M65.7999,-135.369C81.1264,-110.666 112.564,-66.3839 152.19,-45 180.597,-29.6707 214.984,-22.2694 246.08,-18.9125"/>
<polygon fill="black" stroke="black" points="246.427,-22.3953 256.049,-17.9598 245.761,-15.4271 246.427,-22.3953"/>
</g>
</g>
</svg>
