<?xml version="1.0" encoding="UTF-8" standalone="no"?>
<!DOCTYPE svg PUBLIC "-//W3C//DTD SVG 1.1//EN"
 "http://www.w3.org/Graphics/SVG/1.1/DTD/svg11.dtd">
<!-- Generated by graphviz version 2.38.0 (20140413.2041)
 -->
<!-- Title: G Pages: 1 -->
<svg width="1591pt" height="291pt"
 viewBox="0.00 0.00 1590.68 291.00" xmlns="http://www.w3.org/2000/svg" xmlns:xlink="http://www.w3.org/1999/xlink">
<g id="graph0" class="graph" transform="scale(1 1) rotate(0) translate(4 287)">
<title>G</title>
<polygon fill="white" stroke="none" points="-4,4 -4,-287 1586.68,-287 1586.68,4 -4,4"/>
<!-- Thread&#45;gRPC&#45;StopChannelSpin -->
<g id="node1" class="node"><title>Thread&#45;gRPC&#45;StopChannelSpin</title>
<ellipse fill="none" stroke="black" cx="103.341" cy="-91" rx="96.3833" ry="18"/>
<text text-anchor="middle" x="103.341" y="-87.3" font-family="Times,serif" font-size="14.00">gRPC&#45;StopChannelSpin</text>
</g>
<!-- Thread&#45;gRPC&#45;PluginGetMetadata++ -->
<g id="node2" class="node"><title>Thread&#45;gRPC&#45;PluginGetMetadata++</title>
<ellipse fill="none" stroke="black" cx="103.341" cy="-18" rx="103.182" ry="18"/>
<text text-anchor="middle" x="103.341" y="-14.3" font-family="Times,serif" font-size="14.00">gRPC&#45;PluginGetMetadata</text>
</g>
<!-- Thread&#45;gRPC&#45;StopChannelSpin&#45;&gt;Thread&#45;gRPC&#45;PluginGetMetadata++ -->
<g id="edge1" class="edge"><title>Thread&#45;gRPC&#45;StopChannelSpin&#45;&gt;Thread&#45;gRPC&#45;PluginGetMetadata++</title>
<path fill="none" stroke="black" d="M103.341,-72.8129C103.341,-64.7895 103.341,-55.0475 103.341,-46.0691"/>
<polygon fill="black" stroke="black" points="106.841,-46.0288 103.341,-36.0288 99.8409,-46.0289 106.841,-46.0288"/>
</g>
<!-- Thread&#45;ConsumerHelper&#45;ConsumeBidirectionalStream -->
<g id="node3" class="node"><title>Thread&#45;ConsumerHelper&#45;ConsumeBidirectionalStream</title>
<ellipse fill="none" stroke="black" cx="328.341" cy="-178" rx="178.969" ry="18"/>
<text text-anchor="middle" x="328.341" y="-174.3" font-family="Times,serif" font-size="14.00">ConsumerHelper&#45;ConsumeBidirectionalStream</text>
</g>
<!-- Thread&#45;ConsumerHelper&#45;ConsumeBidirectionalStream&#45;&gt;Thread&#45;gRPC&#45;StopChannelSpin -->
<g id="edge2" class="edge"><title>Thread&#45;ConsumerHelper&#45;ConsumeBidirectionalStream&#45;&gt;Thread&#45;gRPC&#45;StopChannelSpin</title>
<path fill="none" stroke="black" d="M284.692,-160.51C247.228,-146.357 193.212,-125.951 153.88,-111.093"/>
<polygon fill="black" stroke="black" points="154.808,-107.702 144.216,-107.442 152.334,-114.25 154.808,-107.702"/>
</g>
<!-- Thread&#45;gRPC&#45;ConsumeRequestIterator -->
<g id="node4" class="node"><title>Thread&#45;gRPC&#45;ConsumeRequestIterator</title>
<ellipse fill="none" stroke="black" cx="339.341" cy="-91" rx="122.379" ry="18"/>
<text text-anchor="middle" x="339.341" y="-87.3" font-family="Times,serif" font-size="14.00">gRPC&#45;ConsumeRequestIterator</text>
</g>
<!-- Thread&#45;ConsumerHelper&#45;ConsumeBidirectionalStream&#45;&gt;Thread&#45;gRPC&#45;ConsumeRequestIterator -->
<g id="edge3" class="edge"><title>Thread&#45;ConsumerHelper&#45;ConsumeBidirectionalStream&#45;&gt;Thread&#45;gRPC&#45;ConsumeRequestIterator</title>
<path fill="none" stroke="black" d="M330.567,-159.799C332.073,-148.163 334.093,-132.548 335.816,-119.237"/>
<polygon fill="black" stroke="black" points="339.306,-119.542 337.118,-109.175 332.364,-118.644 339.306,-119.542"/>
</g>
<!-- Thread&#45;MonitorBatchPublisher -->
<g id="node5" class="node"><title>Thread&#45;MonitorBatchPublisher</title>
<ellipse fill="none" stroke="black" cx="583.341" cy="-91" rx="93.6835" ry="18"/>
<text text-anchor="middle" x="583.341" y="-87.3" font-family="Times,serif" font-size="14.00">MonitorBatchPublisher</text>
</g>
<!-- Thread&#45;gRPC&#45;PluginGetMetadata+ -->
<g id="node6" class="node"><title>Thread&#45;gRPC&#45;PluginGetMetadata+</title>
<ellipse fill="none" stroke="black" cx="583.341" cy="-18" rx="103.182" ry="18"/>
<text text-anchor="middle" x="583.341" y="-14.3" font-family="Times,serif" font-size="14.00">gRPC&#45;PluginGetMetadata</text>
</g>
<!-- Thread&#45;MonitorBatchPublisher&#45;&gt;Thread&#45;gRPC&#45;PluginGetMetadata+ -->
<g id="edge4" class="edge"><title>Thread&#45;MonitorBatchPublisher&#45;&gt;Thread&#45;gRPC&#45;PluginGetMetadata+</title>
<path fill="none" stroke="black" d="M583.341,-72.8129C583.341,-64.7895 583.341,-55.0475 583.341,-46.0691"/>
<polygon fill="black" stroke="black" points="586.841,-46.0288 583.341,-36.0288 579.841,-46.0289 586.841,-46.0288"/>
</g>
<!-- Thread&#45;ReproPublish -->
<g id="node7" class="node"><title>Thread&#45;ReproPublish</title>
<ellipse fill="none" stroke="black" cx="583.341" cy="-178" rx="58.4896" ry="18"/>
<text text-anchor="middle" x="583.341" y="-174.3" font-family="Times,serif" font-size="14.00">ReproPublish</text>
</g>
<!-- Thread&#45;ReproPublish&#45;&gt;Thread&#45;MonitorBatchPublisher -->
<g id="edge5" class="edge"><title>Thread&#45;ReproPublish&#45;&gt;Thread&#45;MonitorBatchPublisher</title>
<path fill="none" stroke="black" d="M583.341,-159.799C583.341,-148.163 583.341,-132.548 583.341,-119.237"/>
<polygon fill="black" stroke="black" points="586.841,-119.175 583.341,-109.175 579.841,-119.175 586.841,-119.175"/>
<text text-anchor="middle" x="586.841" y="-130.8" font-family="Times,serif" font-size="14.00">5</text>
</g>
<!-- MainThread -->
<g id="node8" class="node"><title>MainThread</title>
<ellipse fill="none" stroke="black" cx="854.341" cy="-265" rx="54.6905" ry="18"/>
<text text-anchor="middle" x="854.341" y="-261.3" font-family="Times,serif" font-size="14.00">MainThread</text>
</g>
<!-- MainThread&#45;&gt;Thread&#45;ConsumerHelper&#45;ConsumeBidirectionalStream -->
<g id="edge9" class="edge"><title>MainThread&#45;&gt;Thread&#45;ConsumerHelper&#45;ConsumeBidirectionalStream</title>
<path fill="none" stroke="black" d="M806.267,-256.231C721.089,-242.467 542.003,-213.527 428.867,-195.245"/>
<polygon fill="black" stroke="black" points="429.238,-191.759 418.808,-193.619 428.121,-198.67 429.238,-191.759"/>
</g>
<!-- MainThread&#45;&gt;Thread&#45;ReproPublish -->
<g id="edge11" class="edge"><title>MainThread&#45;&gt;Thread&#45;ReproPublish</title>
<path fill="none" stroke="black" d="M816.088,-252.002C767.977,-236.912 685.297,-210.979 632.53,-194.428"/>
<polygon fill="black" stroke="black" points="633.307,-191.004 622.718,-191.351 631.212,-197.683 633.307,-191.004"/>
</g>
<!-- Thread&#45;gRPC&#45;SubscribeMoot -->
<g id="node9" class="node"><title>Thread&#45;gRPC&#45;SubscribeMoot</title>
<ellipse fill="none" stroke="black" cx="749.341" cy="-178" rx="89.0842" ry="18"/>
<text text-anchor="middle" x="749.341" y="-174.3" font-family="Times,serif" font-size="14.00">gRPC&#45;SubscribeMoot</text>
</g>
<!-- MainThread&#45;&gt;Thread&#45;gRPC&#45;SubscribeMoot -->
<g id="edge6" class="edge"><title>MainThread&#45;&gt;Thread&#45;gRPC&#45;SubscribeMoot</title>
<path fill="none" stroke="black" d="M834.591,-248.012C818.621,-235.084 795.919,-216.706 777.958,-202.166"/>
<polygon fill="black" stroke="black" points="780.054,-199.36 770.08,-195.789 775.65,-204.801 780.054,-199.36"/>
<text text-anchor="middle" x="811.841" y="-217.8" font-family="Times,serif" font-size="14.00">2</text>
</g>
<!-- Thread&#45;gRPC&#45;PluginGetMetadata -->
<g id="node10" class="node"><title>Thread&#45;gRPC&#45;PluginGetMetadata</title>
<ellipse fill="none" stroke="black" cx="959.341" cy="-178" rx="103.182" ry="18"/>
<text text-anchor="middle" x="959.341" y="-174.3" font-family="Times,serif" font-size="14.00">gRPC&#45;PluginGetMetadata</text>
</g>
<!-- MainThread&#45;&gt;Thread&#45;gRPC&#45;PluginGetMetadata -->
<g id="edge7" class="edge"><title>MainThread&#45;&gt;Thread&#45;gRPC&#45;PluginGetMetadata</title>
<path fill="none" stroke="black" d="M874.091,-248.012C890.061,-235.084 912.762,-216.706 930.724,-202.166"/>
<polygon fill="black" stroke="black" points="933.032,-204.801 938.602,-195.789 928.627,-199.36 933.032,-204.801"/>
<text text-anchor="middle" x="916.841" y="-217.8" font-family="Times,serif" font-size="14.00">2</text>
</g>
<!-- Thread&#45;ConsumerHelper&#45;CallbackRequestsWorker -->
<g id="node11" class="node"><title>Thread&#45;ConsumerHelper&#45;CallbackRequestsWorker</title>
<ellipse fill="none" stroke="black" cx="1245.34" cy="-178" rx="164.371" ry="18"/>
<text text-anchor="middle" x="1245.34" y="-174.3" font-family="Times,serif" font-size="14.00">ConsumerHelper&#45;CallbackRequestsWorker</text>
</g>
<!-- MainThread&#45;&gt;Thread&#45;ConsumerHelper&#45;CallbackRequestsWorker -->
<g id="edge8" class="edge"><title>MainThread&#45;&gt;Thread&#45;ConsumerHelper&#45;CallbackRequestsWorker</title>
<path fill="none" stroke="black" d="M898.813,-254.332C963.403,-240.291 1084.23,-214.024 1164.75,-196.52"/>
<polygon fill="black" stroke="black" points="1165.82,-199.869 1174.85,-194.324 1164.33,-193.029 1165.82,-199.869"/>
</g>
<!-- Thread&#45;LeaseMaintenance -->
<g id="node12" class="node"><title>Thread&#45;LeaseMaintenance</title>
<ellipse fill="none" stroke="black" cx="1505.34" cy="-178" rx="77.1866" ry="18"/>
<text text-anchor="middle" x="1505.34" y="-174.3" font-family="Times,serif" font-size="14.00">LeaseMaintenance</text>
</g>
<!-- MainThread&#45;&gt;Thread&#45;LeaseMaintenance -->
<g id="edge10" class="edge"><title>MainThread&#45;&gt;Thread&#45;LeaseMaintenance</title>
<path fill="none" stroke="black" d="M906.226,-259.024C1005.82,-249.189 1230.56,-225.626 1418.34,-196 1425.08,-194.936 1432.1,-193.731 1439.09,-192.465"/>
<polygon fill="black" stroke="black" points="1440.09,-195.84 1449.29,-190.577 1438.82,-188.957 1440.09,-195.84"/>
</g>
</g>
</svg>
