<?xml version="1.0" encoding="UTF-8" standalone="no"?>
<!DOCTYPE svg PUBLIC "-//W3C//DTD SVG 1.1//EN"
 "http://www.w3.org/Graphics/SVG/1.1/DTD/svg11.dtd">
<!-- Generated by graphviz version 2.38.0 (20140413.2041)
 -->
<!-- Title: G Pages: 1 -->
<svg width="1049pt" height="345pt"
 viewBox="0.00 0.00 1048.72 345.00" xmlns="http://www.w3.org/2000/svg" xmlns:xlink="http://www.w3.org/1999/xlink">
<g id="graph0" class="graph" transform="scale(1 1) rotate(0) translate(4 341)">
<title>G</title>
<polygon fill="white" stroke="none" points="-4,4 -4,-341 1044.72,-341 1044.72,4 -4,4"/>
<!-- Thread&#45;gRPC&#45;SubscribeMoot -->
<g id="node1" class="node"><title>Thread&#45;gRPC&#45;SubscribeMoot</title>
<ellipse fill="none" stroke="black" cx="330.924" cy="-299" rx="89.0842" ry="18"/>
<text text-anchor="middle" x="330.924" y="-295.3" font-family="Times,serif" font-size="14.00">gRPC&#45;SubscribeMoot</text>
</g>
<!-- Thread&#45;gRPC&#45;SpawnDelivery -->
<g id="node2" class="node"><title>Thread&#45;gRPC&#45;SpawnDelivery</title>
<ellipse fill="none" stroke="black" cx="674.848" cy="-319" rx="89.0842" ry="18"/>
<text text-anchor="middle" x="674.848" y="-315.3" font-family="Times,serif" font-size="14.00">gRPC&#45;SpawnDelivery</text>
</g>
<!-- Thread&#45;gRPC&#45;SubscribeMoot&#45;&gt;Thread&#45;gRPC&#45;SpawnDelivery -->
<g id="edge1" class="edge"><title>Thread&#45;gRPC&#45;SubscribeMoot&#45;&gt;Thread&#45;gRPC&#45;SpawnDelivery</title>
<path fill="none" stroke="black" d="M416.884,-303.97C466.114,-306.849 528.208,-310.481 579.024,-313.453"/>
<polygon fill="black" stroke="black" points="578.842,-316.949 589.029,-314.039 579.251,-309.961 578.842,-316.949"/>
</g>
<!-- Thread&#45;gRPC&#45;StopChannelSpin -->
<g id="node3" class="node"><title>Thread&#45;gRPC&#45;StopChannelSpin</title>
<ellipse fill="none" stroke="black" cx="674.848" cy="-265" rx="96.3833" ry="18"/>
<text text-anchor="middle" x="674.848" y="-261.3" font-family="Times,serif" font-size="14.00">gRPC&#45;StopChannelSpin</text>
</g>
<!-- Thread&#45;gRPC&#45;PluginGetMetadata++ -->
<g id="node4" class="node"><title>Thread&#45;gRPC&#45;PluginGetMetadata++</title>
<ellipse fill="none" stroke="black" cx="937.378" cy="-265" rx="103.182" ry="18"/>
<text text-anchor="middle" x="937.378" y="-261.3" font-family="Times,serif" font-size="14.00">gRPC&#45;PluginGetMetadata</text>
</g>
<!-- Thread&#45;gRPC&#45;StopChannelSpin&#45;&gt;Thread&#45;gRPC&#45;PluginGetMetadata++ -->
<g id="edge2" class="edge"><title>Thread&#45;gRPC&#45;StopChannelSpin&#45;&gt;Thread&#45;gRPC&#45;PluginGetMetadata++</title>
<path fill="none" stroke="black" d="M771.38,-265C788.376,-265 806.223,-265 823.644,-265"/>
<polygon fill="black" stroke="black" points="823.842,-268.5 833.842,-265 823.842,-261.5 823.842,-268.5"/>
</g>
<!-- Thread&#45;ConsumerHelper&#45;ConsumeBidirectionalStream -->
<g id="node5" class="node"><title>Thread&#45;ConsumerHelper&#45;ConsumeBidirectionalStream</title>
<ellipse fill="none" stroke="black" cx="330.924" cy="-234" rx="178.969" ry="18"/>
<text text-anchor="middle" x="330.924" y="-230.3" font-family="Times,serif" font-size="14.00">ConsumerHelper&#45;ConsumeBidirectionalStream</text>
</g>
<!-- Thread&#45;ConsumerHelper&#45;ConsumeBidirectionalStream&#45;&gt;Thread&#45;gRPC&#45;StopChannelSpin -->
<g id="edge3" class="edge"><title>Thread&#45;ConsumerHelper&#45;ConsumeBidirectionalStream&#45;&gt;Thread&#45;gRPC&#45;StopChannelSpin</title>
<path fill="none" stroke="black" d="M464.61,-246.03C502.284,-249.445 542.571,-253.098 577.634,-256.277"/>
<polygon fill="black" stroke="black" points="577.583,-259.787 587.858,-257.204 578.215,-252.815 577.583,-259.787"/>
</g>
<!-- Thread&#45;gRPC&#45;ConsumeRequestIterator -->
<g id="node6" class="node"><title>Thread&#45;gRPC&#45;ConsumeRequestIterator</title>
<ellipse fill="none" stroke="black" cx="674.848" cy="-211" rx="122.379" ry="18"/>
<text text-anchor="middle" x="674.848" y="-207.3" font-family="Times,serif" font-size="14.00">gRPC&#45;ConsumeRequestIterator</text>
</g>
<!-- Thread&#45;ConsumerHelper&#45;ConsumeBidirectionalStream&#45;&gt;Thread&#45;gRPC&#45;ConsumeRequestIterator -->
<g id="edge4" class="edge"><title>Thread&#45;ConsumerHelper&#45;ConsumeBidirectionalStream&#45;&gt;Thread&#45;gRPC&#45;ConsumeRequestIterator</title>
<path fill="none" stroke="black" d="M479.908,-224.046C504.387,-222.399 529.505,-220.709 553.207,-219.115"/>
<polygon fill="black" stroke="black" points="553.53,-222.601 563.272,-218.438 553.06,-215.617 553.53,-222.601"/>
</g>
<!-- Thread&#45;MonitorBatchPublisher -->
<g id="node7" class="node"><title>Thread&#45;MonitorBatchPublisher</title>
<ellipse fill="none" stroke="black" cx="674.848" cy="-157" rx="93.6835" ry="18"/>
<text text-anchor="middle" x="674.848" y="-153.3" font-family="Times,serif" font-size="14.00">MonitorBatchPublisher</text>
</g>
<!-- Thread&#45;gRPC&#45;PluginGetMetadata+ -->
<g id="node8" class="node"><title>Thread&#45;gRPC&#45;PluginGetMetadata+</title>
<ellipse fill="none" stroke="black" cx="937.378" cy="-157" rx="103.182" ry="18"/>
<text text-anchor="middle" x="937.378" y="-153.3" font-family="Times,serif" font-size="14.00">gRPC&#45;PluginGetMetadata</text>
</g>
<!-- Thread&#45;MonitorBatchPublisher&#45;&gt;Thread&#45;gRPC&#45;PluginGetMetadata+ -->
<g id="edge5" class="edge"><title>Thread&#45;MonitorBatchPublisher&#45;&gt;Thread&#45;gRPC&#45;PluginGetMetadata+</title>
<path fill="none" stroke="black" d="M768.802,-157C786.557,-157 805.322,-157 823.618,-157"/>
<polygon fill="black" stroke="black" points="823.725,-160.5 833.725,-157 823.725,-153.5 823.725,-160.5"/>
</g>
<!-- Thread&#45;ReproPublish -->
<g id="node9" class="node"><title>Thread&#45;ReproPublish</title>
<ellipse fill="none" stroke="black" cx="330.924" cy="-180" rx="58.4896" ry="18"/>
<text text-anchor="middle" x="330.924" y="-176.3" font-family="Times,serif" font-size="14.00">ReproPublish</text>
</g>
<!-- Thread&#45;ReproPublish&#45;&gt;Thread&#45;MonitorBatchPublisher -->
<g id="edge6" class="edge"><title>Thread&#45;ReproPublish&#45;&gt;Thread&#45;MonitorBatchPublisher</title>
<path fill="none" stroke="black" d="M388.386,-176.202C439.324,-172.776 515.361,-167.661 576.154,-163.572"/>
<polygon fill="black" stroke="black" points="576.416,-167.062 586.158,-162.899 575.946,-160.078 576.416,-167.062"/>
<text text-anchor="middle" x="531.159" y="-170.8" font-family="Times,serif" font-size="14.00">5</text>
</g>
<!-- MainThread -->
<g id="node10" class="node"><title>MainThread</title>
<ellipse fill="none" stroke="black" cx="54.5952" cy="-147" rx="54.6905" ry="18"/>
<text text-anchor="middle" x="54.5952" y="-143.3" font-family="Times,serif" font-size="14.00">MainThread</text>
</g>
<!-- MainThread&#45;&gt;Thread&#45;gRPC&#45;SubscribeMoot -->
<g id="edge7" class="edge"><title>MainThread&#45;&gt;Thread&#45;gRPC&#45;SubscribeMoot</title>
<path fill="none" stroke="black" d="M65.4863,-164.837C80.6447,-190.404 112.122,-237.023 152.19,-261 177.622,-276.218 208.318,-285.385 236.991,-290.892"/>
<polygon fill="black" stroke="black" points="236.576,-294.373 247.037,-292.691 237.81,-287.483 236.576,-294.373"/>
<text text-anchor="middle" x="130.69" y="-249.8" font-family="Times,serif" font-size="14.00">2</text>
</g>
<!-- MainThread&#45;&gt;Thread&#45;ConsumerHelper&#45;ConsumeBidirectionalStream -->
<g id="edge10" class="edge"><title>MainThread&#45;&gt;Thread&#45;ConsumerHelper&#45;ConsumeBidirectionalStream</title>
<path fill="none" stroke="black" d="M76.5286,-163.521C95.2614,-177.412 124.036,-196.618 152.19,-207 165.395,-211.869 179.463,-215.861 193.679,-219.133"/>
<polygon fill="black" stroke="black" points="193.02,-222.572 203.537,-221.286 194.513,-215.733 193.02,-222.572"/>
</g>
<!-- MainThread&#45;&gt;Thread&#45;ReproPublish -->
<g id="edge12" class="edge"><title>MainThread&#45;&gt;Thread&#45;ReproPublish</title>
<path fill="none" stroke="black" d="M106.231,-153.091C151.326,-158.516 217.511,-166.477 266.194,-172.334"/>
<polygon fill="black" stroke="black" points="265.957,-175.83 276.303,-173.55 266.793,-168.88 265.957,-175.83"/>
</g>
<!-- Thread&#45;gRPC&#45;PluginGetMetadata -->
<g id="node11" class="node"><title>Thread&#45;gRPC&#45;PluginGetMetadata</title>
<ellipse fill="none" stroke="black" cx="330.924" cy="-126" rx="103.182" ry="18"/>
<text text-anchor="middle" x="330.924" y="-122.3" font-family="Times,serif" font-size="14.00">gRPC&#45;PluginGetMetadata</text>
</g>
<!-- MainThread&#45;&gt;Thread&#45;gRPC&#45;PluginGetMetadata -->
<g id="edge8" class="edge"><title>MainThread&#45;&gt;Thread&#45;gRPC&#45;PluginGetMetadata</title>
<path fill="none" stroke="black" d="M106.411,-141.022C113.387,-140.289 120.462,-139.591 127.19,-139 157.888,-136.302 191.247,-133.932 221.875,-131.979"/>
<polygon fill="black" stroke="black" points="222.389,-135.454 232.149,-131.333 221.949,-128.468 222.389,-135.454"/>
<text text-anchor="middle" x="130.69" y="-142.8" font-family="Times,serif" font-size="14.00">2</text>
</g>
<!-- Thread&#45;ConsumerHelper&#45;CallbackRequestsWorker -->
<g id="node12" class="node"><title>Thread&#45;ConsumerHelper&#45;CallbackRequestsWorker</title>
<ellipse fill="none" stroke="black" cx="330.924" cy="-72" rx="164.371" ry="18"/>
<text text-anchor="middle" x="330.924" y="-68.3" font-family="Times,serif" font-size="14.00">ConsumerHelper&#45;CallbackRequestsWorker</text>
</g>
<!-- MainThread&#45;&gt;Thread&#45;ConsumerHelper&#45;CallbackRequestsWorker -->
<g id="edge9" class="edge"><title>MainThread&#45;&gt;Thread&#45;ConsumerHelper&#45;CallbackRequestsWorker</title>
<path fill="none" stroke="black" d="M81.7221,-131.229C100.646,-120.512 127.191,-106.897 152.19,-99 168.237,-93.9311 185.408,-89.7996 202.519,-86.4356"/>
<polygon fill="black" stroke="black" points="203.397,-89.8318 212.577,-84.5424 202.103,-82.9526 203.397,-89.8318"/>
</g>
<!-- Thread&#45;LeaseMaintenance -->
<g id="node13" class="node"><title>Thread&#45;LeaseMaintenance</title>
<ellipse fill="none" stroke="black" cx="330.924" cy="-18" rx="77.1866" ry="18"/>
<text text-anchor="middle" x="330.924" y="-14.3" font-family="Times,serif" font-size="14.00">LeaseMaintenance</text>
</g>
<!-- MainThread&#45;&gt;Thread&#45;LeaseMaintenance -->
<g id="edge11" class="edge"><title>MainThread&#45;&gt;Thread&#45;LeaseMaintenance</title>
<path fill="none" stroke="black" d="M66.8542,-129.169C82.7588,-105.639 114.15,-64.8857 152.19,-45 179.898,-30.5156 213.137,-23.2326 243.335,-19.7331"/>
<polygon fill="black" stroke="black" points="243.861,-23.1974 253.447,-18.6863 243.14,-16.2346 243.861,-23.1974"/>
</g>
</g>
</svg>
