<?xml version="1.0" encoding="UTF-8" standalone="no"?>
<!DOCTYPE svg PUBLIC "-//W3C//DTD SVG 1.1//EN"
 "http://www.w3.org/Graphics/SVG/1.1/DTD/svg11.dtd">
<!-- Generated by graphviz version 2.38.0 (20140413.2041)
 -->
<!-- Title: G Pages: 1 -->
<svg width="1915pt" height="291pt"
 viewBox="0.00 0.00 1915.39 291.00" xmlns="http://www.w3.org/2000/svg" xmlns:xlink="http://www.w3.org/1999/xlink">
<g id="graph0" class="graph" transform="scale(1 1) rotate(0) translate(4 287)">
<title>G</title>
<polygon fill="white" stroke="none" points="-4,4 -4,-287 1911.39,-287 1911.39,4 -4,4"/>
<!-- Thread&#45;gRPC&#45;SubscribeMoot+ -->
<g id="node1" class="node"><title>Thread&#45;gRPC&#45;SubscribeMoot+</title>
<ellipse fill="none" stroke="black" cx="164.042" cy="-178" rx="89.0842" ry="18"/>
<text text-anchor="middle" x="164.042" y="-174.3" font-family="Times,serif" font-size="14.00">gRPC&#45;SubscribeMoot</text>
</g>
<!-- Thread&#45;gRPC&#45;SpawnDelivery -->
<g id="node2" class="node"><title>Thread&#45;gRPC&#45;SpawnDelivery</title>
<ellipse fill="none" stroke="black" cx="89.0421" cy="-91" rx="89.0842" ry="18"/>
<text text-anchor="middle" x="89.0421" y="-87.3" font-family="Times,serif" font-size="14.00">gRPC&#45;SpawnDelivery</text>
</g>
<!-- Thread&#45;gRPC&#45;SubscribeMoot+&#45;&gt;Thread&#45;gRPC&#45;SpawnDelivery -->
<g id="edge1" class="edge"><title>Thread&#45;gRPC&#45;SubscribeMoot+&#45;&gt;Thread&#45;gRPC&#45;SpawnDelivery</title>
<path fill="none" stroke="black" d="M149.225,-160.207C138.233,-147.75 123.077,-130.573 110.725,-116.574"/>
<polygon fill="black" stroke="black" points="113.07,-113.941 103.829,-108.758 107.821,-118.572 113.07,-113.941"/>
</g>
<!-- Thread&#45;gRPC&#45;StopChannelSpin -->
<g id="node3" class="node"><title>Thread&#45;gRPC&#45;StopChannelSpin</title>
<ellipse fill="none" stroke="black" cx="292.042" cy="-91" rx="96.3833" ry="18"/>
<text text-anchor="middle" x="292.042" y="-87.3" font-family="Times,serif" font-size="14.00">gRPC&#45;StopChannelSpin</text>
</g>
<!-- Thread&#45;gRPC&#45;PluginGetMetadata++ -->
<g id="node4" class="node"><title>Thread&#45;gRPC&#45;PluginGetMetadata++</title>
<ellipse fill="none" stroke="black" cx="292.042" cy="-18" rx="103.182" ry="18"/>
<text text-anchor="middle" x="292.042" y="-14.3" font-family="Times,serif" font-size="14.00">gRPC&#45;PluginGetMetadata</text>
</g>
<!-- Thread&#45;gRPC&#45;StopChannelSpin&#45;&gt;Thread&#45;gRPC&#45;PluginGetMetadata++ -->
<g id="edge2" class="edge"><title>Thread&#45;gRPC&#45;StopChannelSpin&#45;&gt;Thread&#45;gRPC&#45;PluginGetMetadata++</title>
<path fill="none" stroke="black" d="M292.042,-72.8129C292.042,-64.7895 292.042,-55.0475 292.042,-46.0691"/>
<polygon fill="black" stroke="black" points="295.542,-46.0288 292.042,-36.0288 288.542,-46.0289 295.542,-46.0288"/>
</g>
<!-- Consumer helper: consume bidirectional stream -->
<g id="node5" class="node"><title>Consumer helper: consume bidirectional stream</title>
<ellipse fill="none" stroke="black" cx="650.042" cy="-178" rx="181.168" ry="18"/>
<text text-anchor="middle" x="650.042" y="-174.3" font-family="Times,serif" font-size="14.00">Consumer helper: consume bidirectional stream</text>
</g>
<!-- Consumer helper: consume bidirectional stream&#45;&gt;Thread&#45;gRPC&#45;StopChannelSpin -->
<g id="edge3" class="edge"><title>Consumer helper: consume bidirectional stream&#45;&gt;Thread&#45;gRPC&#45;StopChannelSpin</title>
<path fill="none" stroke="black" d="M583.544,-161.211C519.532,-146.013 423.24,-123.15 359.055,-107.911"/>
<polygon fill="black" stroke="black" points="359.578,-104.438 349.04,-105.533 357.961,-111.248 359.578,-104.438"/>
</g>
<!-- Thread&#45;gRPC&#45;ConsumeRequestIterator -->
<g id="node6" class="node"><title>Thread&#45;gRPC&#45;ConsumeRequestIterator</title>
<ellipse fill="none" stroke="black" cx="528.042" cy="-91" rx="122.379" ry="18"/>
<text text-anchor="middle" x="528.042" y="-87.3" font-family="Times,serif" font-size="14.00">gRPC&#45;ConsumeRequestIterator</text>
</g>
<!-- Consumer helper: consume bidirectional stream&#45;&gt;Thread&#45;gRPC&#45;ConsumeRequestIterator -->
<g id="edge4" class="edge"><title>Consumer helper: consume bidirectional stream&#45;&gt;Thread&#45;gRPC&#45;ConsumeRequestIterator</title>
<path fill="none" stroke="black" d="M625.647,-160.003C606.907,-146.947 580.852,-128.794 560.376,-114.528"/>
<polygon fill="black" stroke="black" points="562.185,-111.522 551.979,-108.678 558.184,-117.266 562.185,-111.522"/>
<text text-anchor="middle" x="600.542" y="-130.8" font-family="Times,serif" font-size="14.00">2</text>
</g>
<!-- Thread&#45;gRPC&#45;PluginGetMetadata+++ -->
<g id="node7" class="node"><title>Thread&#45;gRPC&#45;PluginGetMetadata+++</title>
<ellipse fill="none" stroke="black" cx="772.042" cy="-91" rx="103.182" ry="18"/>
<text text-anchor="middle" x="772.042" y="-87.3" font-family="Times,serif" font-size="14.00">gRPC&#45;PluginGetMetadata</text>
</g>
<!-- Consumer helper: consume bidirectional stream&#45;&gt;Thread&#45;gRPC&#45;PluginGetMetadata+++ -->
<g id="edge5" class="edge"><title>Consumer helper: consume bidirectional stream&#45;&gt;Thread&#45;gRPC&#45;PluginGetMetadata+++</title>
<path fill="none" stroke="black" d="M674.437,-160.003C693.177,-146.947 719.232,-128.794 739.708,-114.528"/>
<polygon fill="black" stroke="black" points="741.901,-117.266 748.105,-108.678 737.899,-111.522 741.901,-117.266"/>
</g>
<!-- Thread&#45;gRPC&#45;StopChannelSpin+ -->
<g id="node8" class="node"><title>Thread&#45;gRPC&#45;StopChannelSpin+</title>
<ellipse fill="none" stroke="black" cx="990.042" cy="-91" rx="96.3833" ry="18"/>
<text text-anchor="middle" x="990.042" y="-87.3" font-family="Times,serif" font-size="14.00">gRPC&#45;StopChannelSpin</text>
</g>
<!-- Consumer helper: consume bidirectional stream&#45;&gt;Thread&#45;gRPC&#45;StopChannelSpin+ -->
<g id="edge6" class="edge"><title>Consumer helper: consume bidirectional stream&#45;&gt;Thread&#45;gRPC&#45;StopChannelSpin+</title>
<path fill="none" stroke="black" d="M713.595,-161.112C773.95,-146.023 864.26,-123.446 925.077,-108.241"/>
<polygon fill="black" stroke="black" points="926.097,-111.594 934.95,-105.773 924.399,-104.803 926.097,-111.594"/>
</g>
<!-- Thread&#45;MonitorBatchPublisher -->
<g id="node9" class="node"><title>Thread&#45;MonitorBatchPublisher</title>
<ellipse fill="none" stroke="black" cx="1198.04" cy="-91" rx="93.6835" ry="18"/>
<text text-anchor="middle" x="1198.04" y="-87.3" font-family="Times,serif" font-size="14.00">MonitorBatchPublisher</text>
</g>
<!-- Thread&#45;gRPC&#45;PluginGetMetadata+ -->
<g id="node10" class="node"><title>Thread&#45;gRPC&#45;PluginGetMetadata+</title>
<ellipse fill="none" stroke="black" cx="1198.04" cy="-18" rx="103.182" ry="18"/>
<text text-anchor="middle" x="1198.04" y="-14.3" font-family="Times,serif" font-size="14.00">gRPC&#45;PluginGetMetadata</text>
</g>
<!-- Thread&#45;MonitorBatchPublisher&#45;&gt;Thread&#45;gRPC&#45;PluginGetMetadata+ -->
<g id="edge7" class="edge"><title>Thread&#45;MonitorBatchPublisher&#45;&gt;Thread&#45;gRPC&#45;PluginGetMetadata+</title>
<path fill="none" stroke="black" d="M1198.04,-72.8129C1198.04,-64.7895 1198.04,-55.0475 1198.04,-46.0691"/>
<polygon fill="black" stroke="black" points="1201.54,-46.0288 1198.04,-36.0288 1194.54,-46.0289 1201.54,-46.0288"/>
</g>
<!-- Thread&#45;ReproPublish -->
<g id="node11" class="node"><title>Thread&#45;ReproPublish</title>
<ellipse fill="none" stroke="black" cx="908.042" cy="-178" rx="58.4896" ry="18"/>
<text text-anchor="middle" x="908.042" y="-174.3" font-family="Times,serif" font-size="14.00">ReproPublish</text>
</g>
<!-- Thread&#45;ReproPublish&#45;&gt;Thread&#45;MonitorBatchPublisher -->
<g id="edge8" class="edge"><title>Thread&#45;ReproPublish&#45;&gt;Thread&#45;MonitorBatchPublisher</title>
<path fill="none" stroke="black" d="M948.977,-165.002C998.613,-150.453 1082.63,-125.826 1139.2,-109.246"/>
<polygon fill="black" stroke="black" points="1140.47,-112.522 1149.08,-106.35 1138.5,-105.804 1140.47,-112.522"/>
<text text-anchor="middle" x="1074.54" y="-130.8" font-family="Times,serif" font-size="14.00">5</text>
</g>
<!-- MainThread -->
<g id="node12" class="node"><title>MainThread</title>
<ellipse fill="none" stroke="black" cx="1074.04" cy="-265" rx="54.6905" ry="18"/>
<text text-anchor="middle" x="1074.04" y="-261.3" font-family="Times,serif" font-size="14.00">MainThread</text>
</g>
<!-- MainThread&#45;&gt;Thread&#45;gRPC&#45;SubscribeMoot+ -->
<g id="edge10" class="edge"><title>MainThread&#45;&gt;Thread&#45;gRPC&#45;SubscribeMoot+</title>
<path fill="none" stroke="black" d="M1022.18,-259.156C872.97,-245.218 441.297,-204.897 253.3,-187.337"/>
<polygon fill="black" stroke="black" points="253.456,-183.837 243.174,-186.391 252.805,-190.806 253.456,-183.837"/>
</g>
<!-- MainThread&#45;&gt;Consumer helper: consume bidirectional stream -->
<g id="edge13" class="edge"><title>MainThread&#45;&gt;Consumer helper: consume bidirectional stream</title>
<path fill="none" stroke="black" d="M1028.67,-254.904C959.138,-240.965 825.015,-214.077 736.511,-196.335"/>
<polygon fill="black" stroke="black" points="736.981,-192.859 726.488,-194.325 735.605,-199.723 736.981,-192.859"/>
</g>
<!-- MainThread&#45;&gt;Thread&#45;ReproPublish -->
<g id="edge15" class="edge"><title>MainThread&#45;&gt;Thread&#45;ReproPublish</title>
<path fill="none" stroke="black" d="M1045.51,-249.388C1017.95,-235.279 976.058,-213.827 945.763,-198.315"/>
<polygon fill="black" stroke="black" points="947.258,-195.148 936.762,-193.706 944.067,-201.379 947.258,-195.148"/>
</g>
<!-- Thread&#45;gRPC&#45;SubscribeMoot -->
<g id="node13" class="node"><title>Thread&#45;gRPC&#45;SubscribeMoot</title>
<ellipse fill="none" stroke="black" cx="1074.04" cy="-178" rx="89.0842" ry="18"/>
<text text-anchor="middle" x="1074.04" y="-174.3" font-family="Times,serif" font-size="14.00">gRPC&#45;SubscribeMoot</text>
</g>
<!-- MainThread&#45;&gt;Thread&#45;gRPC&#45;SubscribeMoot -->
<g id="edge9" class="edge"><title>MainThread&#45;&gt;Thread&#45;gRPC&#45;SubscribeMoot</title>
<path fill="none" stroke="black" d="M1074.04,-246.799C1074.04,-235.163 1074.04,-219.548 1074.04,-206.237"/>
<polygon fill="black" stroke="black" points="1077.54,-206.175 1074.04,-196.175 1070.54,-206.175 1077.54,-206.175"/>
</g>
<!-- Thread&#45;gRPC&#45;PluginGetMetadata -->
<g id="node14" class="node"><title>Thread&#45;gRPC&#45;PluginGetMetadata</title>
<ellipse fill="none" stroke="black" cx="1284.04" cy="-178" rx="103.182" ry="18"/>
<text text-anchor="middle" x="1284.04" y="-174.3" font-family="Times,serif" font-size="14.00">gRPC&#45;PluginGetMetadata</text>
</g>
<!-- MainThread&#45;&gt;Thread&#45;gRPC&#45;PluginGetMetadata -->
<g id="edge11" class="edge"><title>MainThread&#45;&gt;Thread&#45;gRPC&#45;PluginGetMetadata</title>
<path fill="none" stroke="black" d="M1107.32,-250.531C1141.86,-236.549 1196.25,-214.537 1235.56,-198.622"/>
<polygon fill="black" stroke="black" points="1237.26,-201.712 1245.22,-194.716 1234.63,-195.223 1237.26,-201.712"/>
<text text-anchor="middle" x="1195.54" y="-217.8" font-family="Times,serif" font-size="14.00">2</text>
</g>
<!-- Consumer helper: callback requests worker -->
<g id="node15" class="node"><title>Consumer helper: callback requests worker</title>
<ellipse fill="none" stroke="black" cx="1570.04" cy="-178" rx="164.371" ry="18"/>
<text text-anchor="middle" x="1570.04" y="-174.3" font-family="Times,serif" font-size="14.00">Consumer helper: callback requests worker</text>
</g>
<!-- MainThread&#45;&gt;Consumer helper: callback requests worker -->
<g id="edge12" class="edge"><title>MainThread&#45;&gt;Consumer helper: callback requests worker</title>
<path fill="none" stroke="black" d="M1121.6,-255.85C1202.87,-241.922 1369.93,-213.294 1475.62,-195.182"/>
<polygon fill="black" stroke="black" points="1476.38,-198.602 1485.65,-193.463 1475.2,-191.702 1476.38,-198.602"/>
</g>
<!-- Thread&#45;LeaseMaintenance -->
<g id="node16" class="node"><title>Thread&#45;LeaseMaintenance</title>
<ellipse fill="none" stroke="black" cx="1830.04" cy="-178" rx="77.1866" ry="18"/>
<text text-anchor="middle" x="1830.04" y="-174.3" font-family="Times,serif" font-size="14.00">LeaseMaintenance</text>
</g>
<!-- MainThread&#45;&gt;Thread&#45;LeaseMaintenance -->
<g id="edge14" class="edge"><title>MainThread&#45;&gt;Thread&#45;LeaseMaintenance</title>
<path fill="none" stroke="black" d="M1127.15,-260.266C1240.62,-251.922 1514.96,-229.802 1743.04,-196 1750.05,-194.961 1757.36,-193.745 1764.63,-192.45"/>
<polygon fill="black" stroke="black" points="1765.27,-195.89 1774.48,-190.644 1764.01,-189.005 1765.27,-195.89"/>
</g>
</g>
</svg>
