<?xml version="1.0" encoding="UTF-8" standalone="no"?>
<!DOCTYPE svg PUBLIC "-//W3C//DTD SVG 1.1//EN"
 "http://www.w3.org/Graphics/SVG/1.1/DTD/svg11.dtd">
<!-- Generated by graphviz version 2.38.0 (20140413.2041)
 -->
<!-- Title: %3 Pages: 1 -->
<svg width="2561pt" height="260pt"
 viewBox="0.00 0.00 2560.68 260.00" xmlns="http://www.w3.org/2000/svg" xmlns:xlink="http://www.w3.org/1999/xlink">
<g id="graph0" class="graph" transform="scale(1 1) rotate(0) translate(4 256)">
<title>%3</title>
<polygon fill="white" stroke="none" points="-4,4 -4,-256 2556.68,-256 2556.68,4 -4,4"/>
<!-- MainThread -->
<g id="node1" class="node"><title>MainThread</title>
<ellipse fill="none" stroke="black" cx="795.942" cy="-234" rx="54.6905" ry="18"/>
<text text-anchor="middle" x="795.942" y="-230.3" font-family="Times,serif" font-size="14.00">MainThread</text>
</g>
<!-- gRPC&#45;SubscribeMoot0 -->
<g id="node2" class="node"><title>gRPC&#45;SubscribeMoot0</title>
<ellipse fill="none" stroke="black" cx="92.9418" cy="-162" rx="92.8835" ry="18"/>
<text text-anchor="middle" x="92.9418" y="-158.3" font-family="Times,serif" font-size="14.00">gRPC&#45;SubscribeMoot0</text>
</g>
<!-- MainThread&#45;&gt;gRPC&#45;SubscribeMoot0 -->
<g id="edge1" class="edge"><title>MainThread&#45;&gt;gRPC&#45;SubscribeMoot0</title>
<path fill="none" stroke="black" d="M742.733,-229.693C637.725,-222.86 396.522,-205.648 194.942,-180 186.558,-178.933 177.808,-177.684 169.11,-176.355"/>
<polygon fill="black" stroke="black" points="169.369,-172.853 158.949,-174.765 168.287,-179.769 169.369,-172.853"/>
</g>
<!-- gRPC&#45;SubscribeMoot1 -->
<g id="node3" class="node"><title>gRPC&#45;SubscribeMoot1</title>
<ellipse fill="none" stroke="black" cx="296.942" cy="-162" rx="92.8835" ry="18"/>
<text text-anchor="middle" x="296.942" y="-158.3" font-family="Times,serif" font-size="14.00">gRPC&#45;SubscribeMoot1</text>
</g>
<!-- MainThread&#45;&gt;gRPC&#45;SubscribeMoot1 -->
<g id="edge2" class="edge"><title>MainThread&#45;&gt;gRPC&#45;SubscribeMoot1</title>
<path fill="none" stroke="black" d="M745.732,-226.827C670.328,-217.437 523.407,-198.675 398.942,-180 390.927,-178.797 382.567,-177.49 374.232,-176.153"/>
<polygon fill="black" stroke="black" points="374.535,-172.656 364.104,-174.512 373.416,-179.566 374.535,-172.656"/>
</g>
<!-- gRPC&#45;PluginGetMetadata0 -->
<g id="node4" class="node"><title>gRPC&#45;PluginGetMetadata0</title>
<ellipse fill="none" stroke="black" cx="515.942" cy="-162" rx="107.781" ry="18"/>
<text text-anchor="middle" x="515.942" y="-158.3" font-family="Times,serif" font-size="14.00">gRPC&#45;PluginGetMetadata0</text>
</g>
<!-- MainThread&#45;&gt;gRPC&#45;PluginGetMetadata0 -->
<g id="edge3" class="edge"><title>MainThread&#45;&gt;gRPC&#45;PluginGetMetadata0</title>
<path fill="none" stroke="black" d="M753.72,-222.445C708.51,-211.142 636.127,-193.046 583.087,-179.786"/>
<polygon fill="black" stroke="black" points="583.635,-176.316 573.085,-177.286 581.937,-183.107 583.635,-176.316"/>
</g>
<!-- LeaseMaintenance -->
<g id="node6" class="node"><title>LeaseMaintenance</title>
<ellipse fill="none" stroke="black" cx="718.942" cy="-162" rx="77.1866" ry="18"/>
<text text-anchor="middle" x="718.942" y="-158.3" font-family="Times,serif" font-size="14.00">LeaseMaintenance</text>
</g>
<!-- MainThread&#45;&gt;LeaseMaintenance -->
<g id="edge6" class="edge"><title>MainThread&#45;&gt;LeaseMaintenance</title>
<path fill="none" stroke="black" d="M778.083,-216.765C768.216,-207.795 755.781,-196.49 744.862,-186.564"/>
<polygon fill="black" stroke="black" points="746.992,-183.77 737.238,-179.633 742.284,-188.95 746.992,-183.77"/>
</g>
<!-- ReproPublish -->
<g id="node7" class="node"><title>ReproPublish</title>
<ellipse fill="none" stroke="black" cx="872.942" cy="-162" rx="58.4896" ry="18"/>
<text text-anchor="middle" x="872.942" y="-158.3" font-family="Times,serif" font-size="14.00">ReproPublish</text>
</g>
<!-- MainThread&#45;&gt;ReproPublish -->
<g id="edge7" class="edge"><title>MainThread&#45;&gt;ReproPublish</title>
<path fill="none" stroke="black" d="M813.801,-216.765C823.739,-207.73 836.283,-196.326 847.258,-186.349"/>
<polygon fill="black" stroke="black" points="849.868,-188.706 854.913,-179.39 845.159,-183.527 849.868,-188.706"/>
</g>
<!-- gRPC&#45;PluginGetMetadata8 -->
<g id="node24" class="node"><title>gRPC&#45;PluginGetMetadata8</title>
<ellipse fill="none" stroke="black" cx="1056.94" cy="-162" rx="107.781" ry="18"/>
<text text-anchor="middle" x="1056.94" y="-158.3" font-family="Times,serif" font-size="14.00">gRPC&#45;PluginGetMetadata8</text>
</g>
<!-- MainThread&#45;&gt;gRPC&#45;PluginGetMetadata8 -->
<g id="edge8" class="edge"><title>MainThread&#45;&gt;gRPC&#45;PluginGetMetadata8</title>
<path fill="none" stroke="black" d="M837.01,-221.985C878.779,-210.783 944.099,-193.264 992.714,-180.226"/>
<polygon fill="black" stroke="black" points="993.759,-183.569 1002.51,-177.598 991.946,-176.808 993.759,-183.569"/>
</g>
<!-- Consumer helper: callback requests worker -->
<g id="node25" class="node"><title>Consumer helper: callback requests worker</title>
<ellipse fill="none" stroke="black" cx="1346.94" cy="-162" rx="164.371" ry="18"/>
<text text-anchor="middle" x="1346.94" y="-158.3" font-family="Times,serif" font-size="14.00">Consumer helper: callback requests worker</text>
</g>
<!-- MainThread&#45;&gt;Consumer helper: callback requests worker -->
<g id="edge4" class="edge"><title>MainThread&#45;&gt;Consumer helper: callback requests worker</title>
<path fill="none" stroke="black" d="M835.674,-221.45C843.66,-219.411 852.03,-217.473 859.942,-216 894.524,-209.564 1087.8,-189.311 1220.21,-175.788"/>
<polygon fill="black" stroke="black" points="1220.84,-179.243 1230.43,-174.746 1220.13,-172.279 1220.84,-179.243"/>
</g>
<!-- Consumer helper: consume bidirectional stream -->
<g id="node26" class="node"><title>Consumer helper: consume bidirectional stream</title>
<ellipse fill="none" stroke="black" cx="1908.94" cy="-162" rx="181.168" ry="18"/>
<text text-anchor="middle" x="1908.94" y="-158.3" font-family="Times,serif" font-size="14.00">Consumer helper: consume bidirectional stream</text>
</g>
<!-- MainThread&#45;&gt;Consumer helper: consume bidirectional stream -->
<g id="edge5" class="edge"><title>MainThread&#45;&gt;Consumer helper: consume bidirectional stream</title>
<path fill="none" stroke="black" d="M834.927,-221.259C843.123,-219.182 851.764,-217.278 859.942,-216 902.396,-209.364 1451.16,-183.761 1737.53,-170.724"/>
<polygon fill="black" stroke="black" points="1737.78,-174.217 1747.61,-170.266 1737.46,-167.224 1737.78,-174.217"/>
</g>
<!-- Consumer helper -->
<g id="node5" class="node"><title>Consumer helper</title>
<ellipse fill="none" stroke="black" cx="939.942" cy="-234" rx="71.4873" ry="18"/>
<text text-anchor="middle" x="939.942" y="-230.3" font-family="Times,serif" font-size="14.00">Consumer helper</text>
</g>
<!-- MonitorBatchPublisher0 -->
<g id="node8" class="node"><title>MonitorBatchPublisher0</title>
<ellipse fill="none" stroke="black" cx="299.942" cy="-90" rx="98.2828" ry="18"/>
<text text-anchor="middle" x="299.942" y="-86.3" font-family="Times,serif" font-size="14.00">MonitorBatchPublisher0</text>
</g>
<!-- ReproPublish&#45;&gt;MonitorBatchPublisher0 -->
<g id="edge14" class="edge"><title>ReproPublish&#45;&gt;MonitorBatchPublisher0</title>
<path fill="none" stroke="black" d="M830.71,-149.4C822.226,-147.365 813.337,-145.441 804.942,-144 638.613,-115.455 594.606,-127.199 426.942,-108 413.515,-106.463 399.308,-104.697 385.448,-102.899"/>
<polygon fill="black" stroke="black" points="385.803,-99.4158 375.433,-101.587 384.893,-106.356 385.803,-99.4158"/>
</g>
<!-- MonitorBatchPublisher1 -->
<g id="node16" class="node"><title>MonitorBatchPublisher1</title>
<ellipse fill="none" stroke="black" cx="533.942" cy="-90" rx="98.2828" ry="18"/>
<text text-anchor="middle" x="533.942" y="-86.3" font-family="Times,serif" font-size="14.00">MonitorBatchPublisher1</text>
</g>
<!-- ReproPublish&#45;&gt;MonitorBatchPublisher1 -->
<g id="edge15" class="edge"><title>ReproPublish&#45;&gt;MonitorBatchPublisher1</title>
<path fill="none" stroke="black" d="M829.49,-149.781C821.35,-147.781 812.9,-145.772 804.942,-144 739.854,-129.51 665.493,-115.119 611.15,-104.998"/>
<polygon fill="black" stroke="black" points="611.714,-101.543 601.243,-103.159 610.436,-108.425 611.714,-101.543"/>
</g>
<!-- MonitorBatchPublisher2 -->
<g id="node18" class="node"><title>MonitorBatchPublisher2</title>
<ellipse fill="none" stroke="black" cx="761.942" cy="-90" rx="98.2828" ry="18"/>
<text text-anchor="middle" x="761.942" y="-86.3" font-family="Times,serif" font-size="14.00">MonitorBatchPublisher2</text>
</g>
<!-- ReproPublish&#45;&gt;MonitorBatchPublisher2 -->
<g id="edge16" class="edge"><title>ReproPublish&#45;&gt;MonitorBatchPublisher2</title>
<path fill="none" stroke="black" d="M848.307,-145.465C833.078,-135.861 813.303,-123.39 796.519,-112.805"/>
<polygon fill="black" stroke="black" points="798.38,-109.841 788.054,-107.467 794.646,-115.762 798.38,-109.841"/>
</g>
<!-- MonitorBatchPublisher3 -->
<g id="node20" class="node"><title>MonitorBatchPublisher3</title>
<ellipse fill="none" stroke="black" cx="982.942" cy="-90" rx="98.2828" ry="18"/>
<text text-anchor="middle" x="982.942" y="-86.3" font-family="Times,serif" font-size="14.00">MonitorBatchPublisher3</text>
</g>
<!-- ReproPublish&#45;&gt;MonitorBatchPublisher3 -->
<g id="edge17" class="edge"><title>ReproPublish&#45;&gt;MonitorBatchPublisher3</title>
<path fill="none" stroke="black" d="M897.354,-145.465C912.308,-135.949 931.684,-123.619 948.218,-113.097"/>
<polygon fill="black" stroke="black" points="950.507,-115.789 957.065,-107.467 946.749,-109.883 950.507,-115.789"/>
</g>
<!-- MonitorBatchPublisher4 -->
<g id="node22" class="node"><title>MonitorBatchPublisher4</title>
<ellipse fill="none" stroke="black" cx="1210.94" cy="-90" rx="98.2828" ry="18"/>
<text text-anchor="middle" x="1210.94" y="-86.3" font-family="Times,serif" font-size="14.00">MonitorBatchPublisher4</text>
</g>
<!-- ReproPublish&#45;&gt;MonitorBatchPublisher4 -->
<g id="edge18" class="edge"><title>ReproPublish&#45;&gt;MonitorBatchPublisher4</title>
<path fill="none" stroke="black" d="M916.107,-149.674C924.017,-147.705 932.214,-145.735 939.942,-144 1004.89,-129.42 1079.12,-115.064 1133.44,-104.978"/>
<polygon fill="black" stroke="black" points="1134.15,-108.406 1143.35,-103.145 1132.88,-101.523 1134.15,-108.406"/>
</g>
<!-- gRPC&#45;PluginGetMetadata1 -->
<g id="node11" class="node"><title>gRPC&#45;PluginGetMetadata1</title>
<ellipse fill="none" stroke="black" cx="289.942" cy="-18" rx="107.781" ry="18"/>
<text text-anchor="middle" x="289.942" y="-14.3" font-family="Times,serif" font-size="14.00">gRPC&#45;PluginGetMetadata1</text>
</g>
<!-- MonitorBatchPublisher0&#45;&gt;gRPC&#45;PluginGetMetadata1 -->
<g id="edge19" class="edge"><title>MonitorBatchPublisher0&#45;&gt;gRPC&#45;PluginGetMetadata1</title>
<path fill="none" stroke="black" d="M297.47,-71.6966C296.368,-63.9827 295.044,-54.7125 293.815,-46.1124"/>
<polygon fill="black" stroke="black" points="297.264,-45.5088 292.385,-36.1043 290.335,-46.4988 297.264,-45.5088"/>
</g>
<!-- gRPC&#45;StopChannelSpin0 -->
<g id="node9" class="node"><title>gRPC&#45;StopChannelSpin0</title>
<ellipse fill="none" stroke="black" cx="1455.94" cy="-90" rx="100.983" ry="18"/>
<text text-anchor="middle" x="1455.94" y="-86.3" font-family="Times,serif" font-size="14.00">gRPC&#45;StopChannelSpin0</text>
</g>
<!-- gRPC&#45;PluginGetMetadata2 -->
<g id="node12" class="node"><title>gRPC&#45;PluginGetMetadata2</title>
<ellipse fill="none" stroke="black" cx="1459.94" cy="-18" rx="107.781" ry="18"/>
<text text-anchor="middle" x="1459.94" y="-14.3" font-family="Times,serif" font-size="14.00">gRPC&#45;PluginGetMetadata2</text>
</g>
<!-- gRPC&#45;StopChannelSpin0&#45;&gt;gRPC&#45;PluginGetMetadata2 -->
<g id="edge20" class="edge"><title>gRPC&#45;StopChannelSpin0&#45;&gt;gRPC&#45;PluginGetMetadata2</title>
<path fill="none" stroke="black" d="M1456.93,-71.6966C1457.37,-63.9827 1457.9,-54.7125 1458.39,-46.1124"/>
<polygon fill="black" stroke="black" points="1461.89,-46.2878 1458.96,-36.1043 1454.9,-45.8883 1461.89,-46.2878"/>
</g>
<!-- gRPC&#45;ConsumeRequestIterator0 -->
<g id="node10" class="node"><title>gRPC&#45;ConsumeRequestIterator0</title>
<ellipse fill="none" stroke="black" cx="1700.94" cy="-90" rx="126.978" ry="18"/>
<text text-anchor="middle" x="1700.94" y="-86.3" font-family="Times,serif" font-size="14.00">gRPC&#45;ConsumeRequestIterator0</text>
</g>
<!-- gRPC&#45;PluginGetMetadata3 -->
<g id="node13" class="node"><title>gRPC&#45;PluginGetMetadata3</title>
<ellipse fill="none" stroke="black" cx="1953.94" cy="-90" rx="107.781" ry="18"/>
<text text-anchor="middle" x="1953.94" y="-86.3" font-family="Times,serif" font-size="14.00">gRPC&#45;PluginGetMetadata3</text>
</g>
<!-- gRPC&#45;StopChannelSpin1 -->
<g id="node14" class="node"><title>gRPC&#45;StopChannelSpin1</title>
<ellipse fill="none" stroke="black" cx="2180.94" cy="-90" rx="100.983" ry="18"/>
<text text-anchor="middle" x="2180.94" y="-86.3" font-family="Times,serif" font-size="14.00">gRPC&#45;StopChannelSpin1</text>
</g>
<!-- gRPC&#45;ConsumeRequestIterator1 -->
<g id="node15" class="node"><title>gRPC&#45;ConsumeRequestIterator1</title>
<ellipse fill="none" stroke="black" cx="2425.94" cy="-90" rx="126.978" ry="18"/>
<text text-anchor="middle" x="2425.94" y="-86.3" font-family="Times,serif" font-size="14.00">gRPC&#45;ConsumeRequestIterator1</text>
</g>
<!-- gRPC&#45;PluginGetMetadata4 -->
<g id="node17" class="node"><title>gRPC&#45;PluginGetMetadata4</title>
<ellipse fill="none" stroke="black" cx="523.942" cy="-18" rx="107.781" ry="18"/>
<text text-anchor="middle" x="523.942" y="-14.3" font-family="Times,serif" font-size="14.00">gRPC&#45;PluginGetMetadata4</text>
</g>
<!-- MonitorBatchPublisher1&#45;&gt;gRPC&#45;PluginGetMetadata4 -->
<g id="edge21" class="edge"><title>MonitorBatchPublisher1&#45;&gt;gRPC&#45;PluginGetMetadata4</title>
<path fill="none" stroke="black" d="M531.47,-71.6966C530.368,-63.9827 529.044,-54.7125 527.815,-46.1124"/>
<polygon fill="black" stroke="black" points="531.264,-45.5088 526.385,-36.1043 524.335,-46.4988 531.264,-45.5088"/>
</g>
<!-- gRPC&#45;PluginGetMetadata5 -->
<g id="node19" class="node"><title>gRPC&#45;PluginGetMetadata5</title>
<ellipse fill="none" stroke="black" cx="757.942" cy="-18" rx="107.781" ry="18"/>
<text text-anchor="middle" x="757.942" y="-14.3" font-family="Times,serif" font-size="14.00">gRPC&#45;PluginGetMetadata5</text>
</g>
<!-- MonitorBatchPublisher2&#45;&gt;gRPC&#45;PluginGetMetadata5 -->
<g id="edge22" class="edge"><title>MonitorBatchPublisher2&#45;&gt;gRPC&#45;PluginGetMetadata5</title>
<path fill="none" stroke="black" d="M760.953,-71.6966C760.512,-63.9827 759.982,-54.7125 759.491,-46.1124"/>
<polygon fill="black" stroke="black" points="762.984,-45.8883 758.919,-36.1043 755.995,-46.2878 762.984,-45.8883"/>
</g>
<!-- gRPC&#45;PluginGetMetadata6 -->
<g id="node21" class="node"><title>gRPC&#45;PluginGetMetadata6</title>
<ellipse fill="none" stroke="black" cx="991.942" cy="-18" rx="107.781" ry="18"/>
<text text-anchor="middle" x="991.942" y="-14.3" font-family="Times,serif" font-size="14.00">gRPC&#45;PluginGetMetadata6</text>
</g>
<!-- MonitorBatchPublisher3&#45;&gt;gRPC&#45;PluginGetMetadata6 -->
<g id="edge23" class="edge"><title>MonitorBatchPublisher3&#45;&gt;gRPC&#45;PluginGetMetadata6</title>
<path fill="none" stroke="black" d="M985.166,-71.6966C986.158,-63.9827 987.35,-54.7125 988.456,-46.1124"/>
<polygon fill="black" stroke="black" points="991.939,-46.469 989.743,-36.1043 984.996,-45.5763 991.939,-46.469"/>
</g>
<!-- gRPC&#45;PluginGetMetadata7 -->
<g id="node23" class="node"><title>gRPC&#45;PluginGetMetadata7</title>
<ellipse fill="none" stroke="black" cx="1225.94" cy="-18" rx="107.781" ry="18"/>
<text text-anchor="middle" x="1225.94" y="-14.3" font-family="Times,serif" font-size="14.00">gRPC&#45;PluginGetMetadata7</text>
</g>
<!-- MonitorBatchPublisher4&#45;&gt;gRPC&#45;PluginGetMetadata7 -->
<g id="edge24" class="edge"><title>MonitorBatchPublisher4&#45;&gt;gRPC&#45;PluginGetMetadata7</title>
<path fill="none" stroke="black" d="M1214.65,-71.6966C1216.3,-63.9827 1218.29,-54.7125 1220.13,-46.1124"/>
<polygon fill="black" stroke="black" points="1223.6,-46.6157 1222.28,-36.1043 1216.76,-45.149 1223.6,-46.6157"/>
</g>
<!-- Consumer helper: consume bidirectional stream&#45;&gt;gRPC&#45;StopChannelSpin0 -->
<g id="edge9" class="edge"><title>Consumer helper: consume bidirectional stream&#45;&gt;gRPC&#45;StopChannelSpin0</title>
<path fill="none" stroke="black" d="M1815.13,-146.594C1745.96,-135.961 1649.59,-121.121 1564.94,-108 1556.64,-106.714 1547.99,-105.369 1539.35,-104.025"/>
<polygon fill="black" stroke="black" points="1539.65,-100.529 1529.23,-102.449 1538.57,-107.446 1539.65,-100.529"/>
</g>
<!-- Consumer helper: consume bidirectional stream&#45;&gt;gRPC&#45;ConsumeRequestIterator0 -->
<g id="edge10" class="edge"><title>Consumer helper: consume bidirectional stream&#45;&gt;gRPC&#45;ConsumeRequestIterator0</title>
<path fill="none" stroke="black" d="M1860.17,-144.588C1829.49,-134.261 1789.76,-120.892 1757.67,-110.091"/>
<polygon fill="black" stroke="black" points="1758.57,-106.7 1747.97,-106.827 1756.33,-113.334 1758.57,-106.7"/>
</g>
<!-- Consumer helper: consume bidirectional stream&#45;&gt;gRPC&#45;PluginGetMetadata3 -->
<g id="edge11" class="edge"><title>Consumer helper: consume bidirectional stream&#45;&gt;gRPC&#45;PluginGetMetadata3</title>
<path fill="none" stroke="black" d="M1920.07,-143.697C1925.3,-135.559 1931.64,-125.689 1937.42,-116.701"/>
<polygon fill="black" stroke="black" points="1940.48,-118.409 1942.95,-108.104 1934.59,-114.623 1940.48,-118.409"/>
</g>
<!-- Consumer helper: consume bidirectional stream&#45;&gt;gRPC&#45;StopChannelSpin1 -->
<g id="edge12" class="edge"><title>Consumer helper: consume bidirectional stream&#45;&gt;gRPC&#45;StopChannelSpin1</title>
<path fill="none" stroke="black" d="M1971,-145.028C2014.44,-133.849 2072.34,-118.949 2116.33,-107.628"/>
<polygon fill="black" stroke="black" points="2117.25,-111.006 2126.06,-105.124 2115.5,-104.227 2117.25,-111.006"/>
</g>
<!-- Consumer helper: consume bidirectional stream&#45;&gt;gRPC&#45;ConsumeRequestIterator1 -->
<g id="edge13" class="edge"><title>Consumer helper: consume bidirectional stream&#45;&gt;gRPC&#45;ConsumeRequestIterator1</title>
<path fill="none" stroke="black" d="M2011.39,-147.128C2103.18,-134.7 2236.92,-116.592 2327.47,-104.332"/>
<polygon fill="black" stroke="black" points="2328.03,-107.789 2337.47,-102.979 2327.09,-100.852 2328.03,-107.789"/>
</g>
</g>
</svg>
