<?xml version="1.0" encoding="UTF-8" standalone="no"?>
<!DOCTYPE svg PUBLIC "-//W3C//DTD SVG 1.1//EN"
 "http://www.w3.org/Graphics/SVG/1.1/DTD/svg11.dtd">
<!-- Generated by graphviz version 2.38.0 (20140413.2041)
 -->
<!-- Title: G Pages: 1 -->
<svg width="1540pt" height="291pt"
 viewBox="0.00 0.00 1540.39 291.00" xmlns="http://www.w3.org/2000/svg" xmlns:xlink="http://www.w3.org/1999/xlink">
<g id="graph0" class="graph" transform="scale(1 1) rotate(0) translate(4 287)">
<title>G</title>
<polygon fill="white" stroke="none" points="-4,4 -4,-287 1536.39,-287 1536.39,4 -4,4"/>
<!-- Thread&#45;gRPC&#45;SubscribeMoot -->
<g id="node1" class="node"><title>Thread&#45;gRPC&#45;SubscribeMoot</title>
<ellipse fill="none" stroke="black" cx="122.042" cy="-178" rx="89.0842" ry="18"/>
<text text-anchor="middle" x="122.042" y="-174.3" font-family="Times,serif" font-size="14.00">gRPC&#45;SubscribeMoot</text>
</g>
<!-- Thread&#45;gRPC&#45;SpawnDelivery -->
<g id="node2" class="node"><title>Thread&#45;gRPC&#45;SpawnDelivery</title>
<ellipse fill="none" stroke="black" cx="89.0421" cy="-91" rx="89.0842" ry="18"/>
<text text-anchor="middle" x="89.0421" y="-87.3" font-family="Times,serif" font-size="14.00">gRPC&#45;SpawnDelivery</text>
</g>
<!-- Thread&#45;gRPC&#45;SubscribeMoot&#45;&gt;Thread&#45;gRPC&#45;SpawnDelivery -->
<g id="edge1" class="edge"><title>Thread&#45;gRPC&#45;SubscribeMoot&#45;&gt;Thread&#45;gRPC&#45;SpawnDelivery</title>
<path fill="none" stroke="black" d="M115.364,-159.799C110.802,-148.047 104.664,-132.238 99.4632,-118.842"/>
<polygon fill="black" stroke="black" points="102.592,-117.231 95.7102,-109.175 96.0667,-119.764 102.592,-117.231"/>
</g>
<!-- Thread&#45;gRPC&#45;StopChannelSpin -->
<g id="node3" class="node"><title>Thread&#45;gRPC&#45;StopChannelSpin</title>
<ellipse fill="none" stroke="black" cx="292.042" cy="-91" rx="96.3833" ry="18"/>
<text text-anchor="middle" x="292.042" y="-87.3" font-family="Times,serif" font-size="14.00">gRPC&#45;StopChannelSpin</text>
</g>
<!-- Thread&#45;gRPC&#45;PluginGetMetadata++ -->
<g id="node4" class="node"><title>Thread&#45;gRPC&#45;PluginGetMetadata++</title>
<ellipse fill="none" stroke="black" cx="292.042" cy="-18" rx="103.182" ry="18"/>
<text text-anchor="middle" x="292.042" y="-14.3" font-family="Times,serif" font-size="14.00">gRPC&#45;PluginGetMetadata</text>
</g>
<!-- Thread&#45;gRPC&#45;StopChannelSpin&#45;&gt;Thread&#45;gRPC&#45;PluginGetMetadata++ -->
<g id="edge2" class="edge"><title>Thread&#45;gRPC&#45;StopChannelSpin&#45;&gt;Thread&#45;gRPC&#45;PluginGetMetadata++</title>
<path fill="none" stroke="black" d="M292.042,-72.8129C292.042,-64.7895 292.042,-55.0475 292.042,-46.0691"/>
<polygon fill="black" stroke="black" points="295.542,-46.0288 292.042,-36.0288 288.542,-46.0289 295.542,-46.0288"/>
</g>
<!-- Thread&#45;ConsumerHelper&#45;ConsumeBidirectionalStream -->
<g id="node5" class="node"><title>Thread&#45;ConsumerHelper&#45;ConsumeBidirectionalStream</title>
<ellipse fill="none" stroke="black" cx="474.042" cy="-178" rx="178.969" ry="18"/>
<text text-anchor="middle" x="474.042" y="-174.3" font-family="Times,serif" font-size="14.00">ConsumerHelper&#45;ConsumeBidirectionalStream</text>
</g>
<!-- Thread&#45;ConsumerHelper&#45;ConsumeBidirectionalStream&#45;&gt;Thread&#45;gRPC&#45;StopChannelSpin -->
<g id="edge3" class="edge"><title>Thread&#45;ConsumerHelper&#45;ConsumeBidirectionalStream&#45;&gt;Thread&#45;gRPC&#45;StopChannelSpin</title>
<path fill="none" stroke="black" d="M438.085,-160.207C408.606,-146.439 366.782,-126.906 335.442,-112.269"/>
<polygon fill="black" stroke="black" points="336.62,-108.956 326.078,-107.896 333.658,-115.299 336.62,-108.956"/>
</g>
<!-- Thread&#45;gRPC&#45;ConsumeRequestIterator -->
<g id="node6" class="node"><title>Thread&#45;gRPC&#45;ConsumeRequestIterator</title>
<ellipse fill="none" stroke="black" cx="528.042" cy="-91" rx="122.379" ry="18"/>
<text text-anchor="middle" x="528.042" y="-87.3" font-family="Times,serif" font-size="14.00">gRPC&#45;ConsumeRequestIterator</text>
</g>
<!-- Thread&#45;ConsumerHelper&#45;ConsumeBidirectionalStream&#45;&gt;Thread&#45;gRPC&#45;ConsumeRequestIterator -->
<g id="edge4" class="edge"><title>Thread&#45;ConsumerHelper&#45;ConsumeBidirectionalStream&#45;&gt;Thread&#45;gRPC&#45;ConsumeRequestIterator</title>
<path fill="none" stroke="black" d="M484.97,-159.799C492.655,-147.702 503.072,-131.305 511.736,-117.667"/>
<polygon fill="black" stroke="black" points="514.723,-119.493 517.131,-109.175 508.814,-115.739 514.723,-119.493"/>
</g>
<!-- Thread&#45;MonitorBatchPublisher -->
<g id="node7" class="node"><title>Thread&#45;MonitorBatchPublisher</title>
<ellipse fill="none" stroke="black" cx="762.042" cy="-91" rx="93.6835" ry="18"/>
<text text-anchor="middle" x="762.042" y="-87.3" font-family="Times,serif" font-size="14.00">MonitorBatchPublisher</text>
</g>
<!-- Thread&#45;gRPC&#45;PluginGetMetadata+ -->
<g id="node8" class="node"><title>Thread&#45;gRPC&#45;PluginGetMetadata+</title>
<ellipse fill="none" stroke="black" cx="762.042" cy="-18" rx="103.182" ry="18"/>
<text text-anchor="middle" x="762.042" y="-14.3" font-family="Times,serif" font-size="14.00">gRPC&#45;PluginGetMetadata</text>
</g>
<!-- Thread&#45;MonitorBatchPublisher&#45;&gt;Thread&#45;gRPC&#45;PluginGetMetadata+ -->
<g id="edge5" class="edge"><title>Thread&#45;MonitorBatchPublisher&#45;&gt;Thread&#45;gRPC&#45;PluginGetMetadata+</title>
<path fill="none" stroke="black" d="M762.042,-72.8129C762.042,-64.7895 762.042,-55.0475 762.042,-46.0691"/>
<polygon fill="black" stroke="black" points="765.542,-46.0288 762.042,-36.0288 758.542,-46.0289 765.542,-46.0288"/>
</g>
<!-- Thread&#45;ReproPublish -->
<g id="node9" class="node"><title>Thread&#45;ReproPublish</title>
<ellipse fill="none" stroke="black" cx="729.042" cy="-178" rx="58.4896" ry="18"/>
<text text-anchor="middle" x="729.042" y="-174.3" font-family="Times,serif" font-size="14.00">ReproPublish</text>
</g>
<!-- Thread&#45;ReproPublish&#45;&gt;Thread&#45;MonitorBatchPublisher -->
<g id="edge6" class="edge"><title>Thread&#45;ReproPublish&#45;&gt;Thread&#45;MonitorBatchPublisher</title>
<path fill="none" stroke="black" d="M735.72,-159.799C740.283,-148.047 746.42,-132.238 751.621,-118.842"/>
<polygon fill="black" stroke="black" points="755.017,-119.764 755.374,-109.175 748.492,-117.231 755.017,-119.764"/>
<text text-anchor="middle" x="751.542" y="-130.8" font-family="Times,serif" font-size="14.00">5</text>
</g>
<!-- MainThread -->
<g id="node10" class="node"><title>MainThread</title>
<ellipse fill="none" stroke="black" cx="864.042" cy="-265" rx="54.6905" ry="18"/>
<text text-anchor="middle" x="864.042" y="-261.3" font-family="Times,serif" font-size="14.00">MainThread</text>
</g>
<!-- MainThread&#45;&gt;Thread&#45;gRPC&#45;SubscribeMoot -->
<g id="edge7" class="edge"><title>MainThread&#45;&gt;Thread&#45;gRPC&#45;SubscribeMoot</title>
<path fill="none" stroke="black" d="M813.333,-258.191C688.06,-243.84 362.868,-206.588 207.336,-188.771"/>
<polygon fill="black" stroke="black" points="207.675,-185.287 197.341,-187.626 206.878,-192.241 207.675,-185.287"/>
<text text-anchor="middle" x="541.542" y="-217.8" font-family="Times,serif" font-size="14.00">2</text>
</g>
<!-- MainThread&#45;&gt;Thread&#45;ConsumerHelper&#45;ConsumeBidirectionalStream -->
<g id="edge10" class="edge"><title>MainThread&#45;&gt;Thread&#45;ConsumerHelper&#45;ConsumeBidirectionalStream</title>
<path fill="none" stroke="black" d="M819.684,-254.332C755.546,-240.353 635.814,-214.258 555.507,-196.755"/>
<polygon fill="black" stroke="black" points="555.942,-193.268 545.426,-194.558 554.451,-200.107 555.942,-193.268"/>
</g>
<!-- MainThread&#45;&gt;Thread&#45;ReproPublish -->
<g id="edge12" class="edge"><title>MainThread&#45;&gt;Thread&#45;ReproPublish</title>
<path fill="none" stroke="black" d="M839.907,-248.804C818.292,-235.194 786.389,-215.107 762.349,-199.971"/>
<polygon fill="black" stroke="black" points="764.209,-197.006 753.882,-194.64 760.479,-202.93 764.209,-197.006"/>
</g>
<!-- Thread&#45;gRPC&#45;PluginGetMetadata -->
<g id="node11" class="node"><title>Thread&#45;gRPC&#45;PluginGetMetadata</title>
<ellipse fill="none" stroke="black" cx="909.042" cy="-178" rx="103.182" ry="18"/>
<text text-anchor="middle" x="909.042" y="-174.3" font-family="Times,serif" font-size="14.00">gRPC&#45;PluginGetMetadata</text>
</g>
<!-- MainThread&#45;&gt;Thread&#45;gRPC&#45;PluginGetMetadata -->
<g id="edge8" class="edge"><title>MainThread&#45;&gt;Thread&#45;gRPC&#45;PluginGetMetadata</title>
<path fill="none" stroke="black" d="M872.933,-247.207C879.301,-235.178 887.999,-218.748 895.263,-205.028"/>
<polygon fill="black" stroke="black" points="898.43,-206.525 900.016,-196.049 892.244,-203.25 898.43,-206.525"/>
<text text-anchor="middle" x="893.542" y="-217.8" font-family="Times,serif" font-size="14.00">2</text>
</g>
<!-- Thread&#45;ConsumerHelper&#45;CallbackRequestsWorker -->
<g id="node12" class="node"><title>Thread&#45;ConsumerHelper&#45;CallbackRequestsWorker</title>
<ellipse fill="none" stroke="black" cx="1195.04" cy="-178" rx="164.371" ry="18"/>
<text text-anchor="middle" x="1195.04" y="-174.3" font-family="Times,serif" font-size="14.00">ConsumerHelper&#45;CallbackRequestsWorker</text>
</g>
<!-- MainThread&#45;&gt;Thread&#45;ConsumerHelper&#45;CallbackRequestsWorker -->
<g id="edge9" class="edge"><title>MainThread&#45;&gt;Thread&#45;ConsumerHelper&#45;CallbackRequestsWorker</title>
<path fill="none" stroke="black" d="M905.628,-253.321C960.294,-239.283 1057.16,-214.407 1123.66,-197.33"/>
<polygon fill="black" stroke="black" points="1124.84,-200.641 1133.66,-194.764 1123.1,-193.861 1124.84,-200.641"/>
</g>
<!-- Thread&#45;LeaseMaintenance -->
<g id="node13" class="node"><title>Thread&#45;LeaseMaintenance</title>
<ellipse fill="none" stroke="black" cx="1455.04" cy="-178" rx="77.1866" ry="18"/>
<text text-anchor="middle" x="1455.04" y="-174.3" font-family="Times,serif" font-size="14.00">LeaseMaintenance</text>
</g>
<!-- MainThread&#45;&gt;Thread&#45;LeaseMaintenance -->
<g id="edge11" class="edge"><title>MainThread&#45;&gt;Thread&#45;LeaseMaintenance</title>
<path fill="none" stroke="black" d="M914.622,-258.175C1005.59,-247.477 1202.74,-223.277 1368.04,-196 1374.78,-194.889 1381.79,-193.653 1388.78,-192.368"/>
<polygon fill="black" stroke="black" points="1389.78,-195.74 1398.97,-190.46 1388.5,-188.86 1389.78,-195.74"/>
</g>
</g>
</svg>
