<?xml version="1.0" encoding="UTF-8" standalone="no"?>
<!DOCTYPE svg PUBLIC "-//W3C//DTD SVG 1.1//EN"
 "http://www.w3.org/Graphics/SVG/1.1/DTD/svg11.dtd">
<!-- Generated by graphviz version 2.38.0 (20140413.2041)
 -->
<!-- Title: %3 Pages: 1 -->
<svg width="2405pt" height="260pt"
 viewBox="0.00 0.00 2405.48 260.00" xmlns="http://www.w3.org/2000/svg" xmlns:xlink="http://www.w3.org/1999/xlink">
<g id="graph0" class="graph" transform="scale(1 1) rotate(0) translate(4 256)">
<title>%3</title>
<polygon fill="white" stroke="none" points="-4,4 -4,-256 2401.48,-256 2401.48,4 -4,4"/>
<!-- MainThread -->
<g id="node1" class="node"><title>MainThread</title>
<ellipse fill="none" stroke="black" cx="986.592" cy="-234" rx="54.6905" ry="18"/>
<text text-anchor="middle" x="986.592" y="-230.3" font-family="Times,serif" font-size="14.00">MainThread</text>
</g>
<!-- gRPC&#45;SubscribeMoot0 -->
<g id="node2" class="node"><title>gRPC&#45;SubscribeMoot0</title>
<ellipse fill="none" stroke="black" cx="93.5917" cy="-162" rx="92.8835" ry="18"/>
<text text-anchor="middle" x="93.5917" y="-158.3" font-family="Times,serif" font-size="14.00">gRPC&#45;SubscribeMoot0</text>
</g>
<!-- MainThread&#45;&gt;gRPC&#45;SubscribeMoot0 -->
<g id="edge1" class="edge"><title>MainThread&#45;&gt;gRPC&#45;SubscribeMoot0</title>
<path fill="none" stroke="black" d="M932.239,-231.199C803.762,-226.541 471.402,-212.146 195.592,-180 186.911,-178.988 177.844,-177.747 168.85,-176.399"/>
<polygon fill="black" stroke="black" points="169.17,-172.907 158.753,-174.839 168.101,-179.825 169.17,-172.907"/>
</g>
<!-- gRPC&#45;SubscribeMoot1 -->
<g id="node4" class="node"><title>gRPC&#45;SubscribeMoot1</title>
<ellipse fill="none" stroke="black" cx="297.592" cy="-162" rx="92.8835" ry="18"/>
<text text-anchor="middle" x="297.592" y="-158.3" font-family="Times,serif" font-size="14.00">gRPC&#45;SubscribeMoot1</text>
</g>
<!-- MainThread&#45;&gt;gRPC&#45;SubscribeMoot1 -->
<g id="edge2" class="edge"><title>MainThread&#45;&gt;gRPC&#45;SubscribeMoot1</title>
<path fill="none" stroke="black" d="M933.429,-229.544C830.244,-222.538 595.726,-205.163 399.592,-180 391.209,-178.925 382.459,-177.67 373.762,-176.338"/>
<polygon fill="black" stroke="black" points="374.022,-172.836 363.601,-174.745 372.938,-179.752 374.022,-172.836"/>
</g>
<!-- gRPC&#45;PluginGetMetadata0 -->
<g id="node6" class="node"><title>gRPC&#45;PluginGetMetadata0</title>
<ellipse fill="none" stroke="black" cx="516.592" cy="-162" rx="107.781" ry="18"/>
<text text-anchor="middle" x="516.592" y="-158.3" font-family="Times,serif" font-size="14.00">gRPC&#45;PluginGetMetadata0</text>
</g>
<!-- MainThread&#45;&gt;gRPC&#45;PluginGetMetadata0 -->
<g id="edge3" class="edge"><title>MainThread&#45;&gt;gRPC&#45;PluginGetMetadata0</title>
<path fill="none" stroke="black" d="M937.624,-225.707C858.748,-213.959 702.475,-190.685 604.094,-176.032"/>
<polygon fill="black" stroke="black" points="604.575,-172.565 594.169,-174.554 603.544,-179.489 604.575,-172.565"/>
</g>
<!-- ConsumerHelper&#45;CallbackRequestsWorker -->
<g id="node7" class="node"><title>ConsumerHelper&#45;CallbackRequestsWorker</title>
<ellipse fill="none" stroke="black" cx="806.592" cy="-162" rx="164.371" ry="18"/>
<text text-anchor="middle" x="806.592" y="-158.3" font-family="Times,serif" font-size="14.00">ConsumerHelper&#45;CallbackRequestsWorker</text>
</g>
<!-- MainThread&#45;&gt;ConsumerHelper&#45;CallbackRequestsWorker -->
<g id="edge4" class="edge"><title>MainThread&#45;&gt;ConsumerHelper&#45;CallbackRequestsWorker</title>
<path fill="none" stroke="black" d="M952.735,-219.834C926.178,-209.506 888.761,-194.955 858.437,-183.162"/>
<polygon fill="black" stroke="black" points="859.452,-179.801 848.863,-179.439 856.914,-186.325 859.452,-179.801"/>
</g>
<!-- ConsumerHelper&#45;ConsumeBidirectionalStream -->
<g id="node8" class="node"><title>ConsumerHelper&#45;ConsumeBidirectionalStream</title>
<ellipse fill="none" stroke="black" cx="1167.59" cy="-162" rx="178.969" ry="18"/>
<text text-anchor="middle" x="1167.59" y="-158.3" font-family="Times,serif" font-size="14.00">ConsumerHelper&#45;ConsumeBidirectionalStream</text>
</g>
<!-- MainThread&#45;&gt;ConsumerHelper&#45;ConsumeBidirectionalStream -->
<g id="edge5" class="edge"><title>MainThread&#45;&gt;ConsumerHelper&#45;ConsumeBidirectionalStream</title>
<path fill="none" stroke="black" d="M1020.64,-219.834C1047.25,-209.541 1084.71,-195.055 1115.14,-183.284"/>
<polygon fill="black" stroke="black" points="1116.69,-186.438 1124.75,-179.567 1114.17,-179.91 1116.69,-186.438"/>
</g>
<!-- LeaseMaintenance -->
<g id="node10" class="node"><title>LeaseMaintenance</title>
<ellipse fill="none" stroke="black" cx="1441.59" cy="-162" rx="77.1866" ry="18"/>
<text text-anchor="middle" x="1441.59" y="-158.3" font-family="Times,serif" font-size="14.00">LeaseMaintenance</text>
</g>
<!-- MainThread&#45;&gt;LeaseMaintenance -->
<g id="edge6" class="edge"><title>MainThread&#45;&gt;LeaseMaintenance</title>
<path fill="none" stroke="black" d="M1036.56,-226.67C1107.62,-217.475 1241.87,-199.393 1355.59,-180 1362.14,-178.883 1368.96,-177.652 1375.77,-176.379"/>
<polygon fill="black" stroke="black" points="1376.52,-179.798 1385.69,-174.491 1375.22,-172.921 1376.52,-179.798"/>
</g>
<!-- ReproPublish -->
<g id="node12" class="node"><title>ReproPublish</title>
<ellipse fill="none" stroke="black" cx="1607.59" cy="-162" rx="58.4896" ry="18"/>
<text text-anchor="middle" x="1607.59" y="-158.3" font-family="Times,serif" font-size="14.00">ReproPublish</text>
</g>
<!-- MainThread&#45;&gt;ReproPublish -->
<g id="edge7" class="edge"><title>MainThread&#45;&gt;ReproPublish</title>
<path fill="none" stroke="black" d="M1039.82,-229.766C1137.1,-223.417 1349.93,-207.492 1527.59,-180 1535.67,-178.75 1544.17,-177.202 1552.48,-175.553"/>
<polygon fill="black" stroke="black" points="1553.39,-178.939 1562.48,-173.506 1551.99,-172.081 1553.39,-178.939"/>
</g>
<!-- gRPC&#45;PluginGetMetadata7 -->
<g id="node24" class="node"><title>gRPC&#45;PluginGetMetadata7</title>
<ellipse fill="none" stroke="black" cx="1791.59" cy="-162" rx="107.781" ry="18"/>
<text text-anchor="middle" x="1791.59" y="-158.3" font-family="Times,serif" font-size="14.00">gRPC&#45;PluginGetMetadata7</text>
</g>
<!-- MainThread&#45;&gt;gRPC&#45;PluginGetMetadata7 -->
<g id="edge8" class="edge"><title>MainThread&#45;&gt;gRPC&#45;PluginGetMetadata7</title>
<path fill="none" stroke="black" d="M1040.23,-230.102C1156.2,-223.567 1438.84,-206.178 1674.59,-180 1684.64,-178.884 1695.15,-177.568 1705.58,-176.171"/>
<polygon fill="black" stroke="black" points="1706.1,-179.633 1715.53,-174.81 1705.15,-172.697 1706.1,-179.633"/>
</g>
<!-- gRPC&#45;SpawnDelivery0 -->
<g id="node3" class="node"><title>gRPC&#45;SpawnDelivery0</title>
<ellipse fill="none" stroke="black" cx="93.5917" cy="-90" rx="93.6835" ry="18"/>
<text text-anchor="middle" x="93.5917" y="-86.3" font-family="Times,serif" font-size="14.00">gRPC&#45;SpawnDelivery0</text>
</g>
<!-- gRPC&#45;SubscribeMoot0&#45;&gt;gRPC&#45;SpawnDelivery0 -->
<g id="edge9" class="edge"><title>gRPC&#45;SubscribeMoot0&#45;&gt;gRPC&#45;SpawnDelivery0</title>
<path fill="none" stroke="black" d="M93.5917,-143.697C93.5917,-135.983 93.5917,-126.712 93.5917,-118.112"/>
<polygon fill="black" stroke="black" points="97.0918,-118.104 93.5917,-108.104 90.0918,-118.104 97.0918,-118.104"/>
</g>
<!-- gRPC&#45;SpawnDelivery1 -->
<g id="node5" class="node"><title>gRPC&#45;SpawnDelivery1</title>
<ellipse fill="none" stroke="black" cx="298.592" cy="-90" rx="93.6835" ry="18"/>
<text text-anchor="middle" x="298.592" y="-86.3" font-family="Times,serif" font-size="14.00">gRPC&#45;SpawnDelivery1</text>
</g>
<!-- gRPC&#45;SubscribeMoot1&#45;&gt;gRPC&#45;SpawnDelivery1 -->
<g id="edge10" class="edge"><title>gRPC&#45;SubscribeMoot1&#45;&gt;gRPC&#45;SpawnDelivery1</title>
<path fill="none" stroke="black" d="M297.839,-143.697C297.949,-135.983 298.082,-126.712 298.204,-118.112"/>
<polygon fill="black" stroke="black" points="301.704,-118.153 298.347,-108.104 294.705,-118.053 301.704,-118.153"/>
</g>
<!-- gRPC&#45;StopChannelSpin -->
<g id="node9" class="node"><title>gRPC&#45;StopChannelSpin</title>
<ellipse fill="none" stroke="black" cx="919.592" cy="-90" rx="96.3833" ry="18"/>
<text text-anchor="middle" x="919.592" y="-86.3" font-family="Times,serif" font-size="14.00">gRPC&#45;StopChannelSpin</text>
</g>
<!-- ConsumerHelper&#45;ConsumeBidirectionalStream&#45;&gt;gRPC&#45;StopChannelSpin -->
<g id="edge11" class="edge"><title>ConsumerHelper&#45;ConsumeBidirectionalStream&#45;&gt;gRPC&#45;StopChannelSpin</title>
<path fill="none" stroke="black" d="M1110.38,-144.853C1071.48,-133.872 1020.08,-119.363 980.429,-108.172"/>
<polygon fill="black" stroke="black" points="981.191,-104.75 970.616,-105.402 979.29,-111.487 981.191,-104.75"/>
</g>
<!-- gRPC&#45;ConsumeRequestIterator -->
<g id="node11" class="node"><title>gRPC&#45;ConsumeRequestIterator</title>
<ellipse fill="none" stroke="black" cx="1155.59" cy="-90" rx="122.379" ry="18"/>
<text text-anchor="middle" x="1155.59" y="-86.3" font-family="Times,serif" font-size="14.00">gRPC&#45;ConsumeRequestIterator</text>
</g>
<!-- ConsumerHelper&#45;ConsumeBidirectionalStream&#45;&gt;gRPC&#45;ConsumeRequestIterator -->
<g id="edge12" class="edge"><title>ConsumerHelper&#45;ConsumeBidirectionalStream&#45;&gt;gRPC&#45;ConsumeRequestIterator</title>
<path fill="none" stroke="black" d="M1164.63,-143.697C1163.3,-135.983 1161.71,-126.712 1160.24,-118.112"/>
<polygon fill="black" stroke="black" points="1163.66,-117.369 1158.52,-108.104 1156.76,-118.552 1163.66,-117.369"/>
</g>
<!-- gRPC&#45;PluginGetMetadata2 -->
<g id="node15" class="node"><title>gRPC&#45;PluginGetMetadata2</title>
<ellipse fill="none" stroke="black" cx="919.592" cy="-18" rx="107.781" ry="18"/>
<text text-anchor="middle" x="919.592" y="-14.3" font-family="Times,serif" font-size="14.00">gRPC&#45;PluginGetMetadata2</text>
</g>
<!-- gRPC&#45;StopChannelSpin&#45;&gt;gRPC&#45;PluginGetMetadata2 -->
<g id="edge13" class="edge"><title>gRPC&#45;StopChannelSpin&#45;&gt;gRPC&#45;PluginGetMetadata2</title>
<path fill="none" stroke="black" d="M919.592,-71.6966C919.592,-63.9827 919.592,-54.7125 919.592,-46.1124"/>
<polygon fill="black" stroke="black" points="923.092,-46.1043 919.592,-36.1043 916.092,-46.1044 923.092,-46.1043"/>
</g>
<!-- MonitorBatchPublisher0 -->
<g id="node13" class="node"><title>MonitorBatchPublisher0</title>
<ellipse fill="none" stroke="black" cx="1393.59" cy="-90" rx="98.2828" ry="18"/>
<text text-anchor="middle" x="1393.59" y="-86.3" font-family="Times,serif" font-size="14.00">MonitorBatchPublisher0</text>
</g>
<!-- ReproPublish&#45;&gt;MonitorBatchPublisher0 -->
<g id="edge14" class="edge"><title>ReproPublish&#45;&gt;MonitorBatchPublisher0</title>
<path fill="none" stroke="black" d="M1568.84,-148.324C1535.45,-137.401 1486.84,-121.501 1449.28,-109.216"/>
<polygon fill="black" stroke="black" points="1450.09,-105.797 1439.49,-106.015 1447.91,-112.45 1450.09,-105.797"/>
</g>
<!-- MonitorBatchPublisher1 -->
<g id="node16" class="node"><title>MonitorBatchPublisher1</title>
<ellipse fill="none" stroke="black" cx="1607.59" cy="-90" rx="98.2828" ry="18"/>
<text text-anchor="middle" x="1607.59" y="-86.3" font-family="Times,serif" font-size="14.00">MonitorBatchPublisher1</text>
</g>
<!-- ReproPublish&#45;&gt;MonitorBatchPublisher1 -->
<g id="edge15" class="edge"><title>ReproPublish&#45;&gt;MonitorBatchPublisher1</title>
<path fill="none" stroke="black" d="M1607.59,-143.697C1607.59,-135.983 1607.59,-126.712 1607.59,-118.112"/>
<polygon fill="black" stroke="black" points="1611.09,-118.104 1607.59,-108.104 1604.09,-118.104 1611.09,-118.104"/>
</g>
<!-- MonitorBatchPublisher2 -->
<g id="node18" class="node"><title>MonitorBatchPublisher2</title>
<ellipse fill="none" stroke="black" cx="1821.59" cy="-90" rx="98.2828" ry="18"/>
<text text-anchor="middle" x="1821.59" y="-86.3" font-family="Times,serif" font-size="14.00">MonitorBatchPublisher2</text>
</g>
<!-- ReproPublish&#45;&gt;MonitorBatchPublisher2 -->
<g id="edge16" class="edge"><title>ReproPublish&#45;&gt;MonitorBatchPublisher2</title>
<path fill="none" stroke="black" d="M1646.35,-148.324C1679.74,-137.401 1728.35,-121.501 1765.9,-109.216"/>
<polygon fill="black" stroke="black" points="1767.27,-112.45 1775.69,-106.015 1765.1,-105.797 1767.27,-112.45"/>
</g>
<!-- MonitorBatchPublisher3 -->
<g id="node20" class="node"><title>MonitorBatchPublisher3</title>
<ellipse fill="none" stroke="black" cx="2045.59" cy="-90" rx="98.2828" ry="18"/>
<text text-anchor="middle" x="2045.59" y="-86.3" font-family="Times,serif" font-size="14.00">MonitorBatchPublisher3</text>
</g>
<!-- ReproPublish&#45;&gt;MonitorBatchPublisher3 -->
<g id="edge17" class="edge"><title>ReproPublish&#45;&gt;MonitorBatchPublisher3</title>
<path fill="none" stroke="black" d="M1649.97,-149.515C1658.11,-147.518 1666.59,-145.578 1674.59,-144 1786.46,-121.947 1815.73,-124.197 1928.59,-108 1939.17,-106.482 1950.28,-104.878 1961.28,-103.286"/>
<polygon fill="black" stroke="black" points="1961.93,-106.729 1971.32,-101.831 1960.93,-99.8011 1961.93,-106.729"/>
</g>
<!-- MonitorBatchPublisher4 -->
<g id="node22" class="node"><title>MonitorBatchPublisher4</title>
<ellipse fill="none" stroke="black" cx="2269.59" cy="-90" rx="98.2828" ry="18"/>
<text text-anchor="middle" x="2269.59" y="-86.3" font-family="Times,serif" font-size="14.00">MonitorBatchPublisher4</text>
</g>
<!-- ReproPublish&#45;&gt;MonitorBatchPublisher4 -->
<g id="edge18" class="edge"><title>ReproPublish&#45;&gt;MonitorBatchPublisher4</title>
<path fill="none" stroke="black" d="M1649.17,-149.262C1657.53,-147.238 1666.3,-145.354 1674.59,-144 1884.85,-109.673 1940.83,-131.331 2152.59,-108 2163.87,-106.757 2175.74,-105.258 2187.42,-103.671"/>
<polygon fill="black" stroke="black" points="2188.18,-107.098 2197.6,-102.258 2187.22,-100.165 2188.18,-107.098"/>
</g>
<!-- gRPC&#45;PluginGetMetadata1 -->
<g id="node14" class="node"><title>gRPC&#45;PluginGetMetadata1</title>
<ellipse fill="none" stroke="black" cx="1353.59" cy="-18" rx="107.781" ry="18"/>
<text text-anchor="middle" x="1353.59" y="-14.3" font-family="Times,serif" font-size="14.00">gRPC&#45;PluginGetMetadata1</text>
</g>
<!-- MonitorBatchPublisher0&#45;&gt;gRPC&#45;PluginGetMetadata1 -->
<g id="edge19" class="edge"><title>MonitorBatchPublisher0&#45;&gt;gRPC&#45;PluginGetMetadata1</title>
<path fill="none" stroke="black" d="M1383.91,-72.055C1379.31,-64.0067 1373.71,-54.2046 1368.58,-45.2259"/>
<polygon fill="black" stroke="black" points="1371.46,-43.2212 1363.46,-36.2753 1365.39,-46.6942 1371.46,-43.2212"/>
</g>
<!-- gRPC&#45;PluginGetMetadata3 -->
<g id="node17" class="node"><title>gRPC&#45;PluginGetMetadata3</title>
<ellipse fill="none" stroke="black" cx="1587.59" cy="-18" rx="107.781" ry="18"/>
<text text-anchor="middle" x="1587.59" y="-14.3" font-family="Times,serif" font-size="14.00">gRPC&#45;PluginGetMetadata3</text>
</g>
<!-- MonitorBatchPublisher1&#45;&gt;gRPC&#45;PluginGetMetadata3 -->
<g id="edge20" class="edge"><title>MonitorBatchPublisher1&#45;&gt;gRPC&#45;PluginGetMetadata3</title>
<path fill="none" stroke="black" d="M1602.65,-71.6966C1600.42,-63.8979 1597.74,-54.5085 1595.26,-45.8292"/>
<polygon fill="black" stroke="black" points="1598.59,-44.758 1592.48,-36.1043 1591.86,-46.6811 1598.59,-44.758"/>
</g>
<!-- gRPC&#45;PluginGetMetadata4 -->
<g id="node19" class="node"><title>gRPC&#45;PluginGetMetadata4</title>
<ellipse fill="none" stroke="black" cx="1821.59" cy="-18" rx="107.781" ry="18"/>
<text text-anchor="middle" x="1821.59" y="-14.3" font-family="Times,serif" font-size="14.00">gRPC&#45;PluginGetMetadata4</text>
</g>
<!-- MonitorBatchPublisher2&#45;&gt;gRPC&#45;PluginGetMetadata4 -->
<g id="edge21" class="edge"><title>MonitorBatchPublisher2&#45;&gt;gRPC&#45;PluginGetMetadata4</title>
<path fill="none" stroke="black" d="M1821.59,-71.6966C1821.59,-63.9827 1821.59,-54.7125 1821.59,-46.1124"/>
<polygon fill="black" stroke="black" points="1825.09,-46.1043 1821.59,-36.1043 1818.09,-46.1044 1825.09,-46.1043"/>
</g>
<!-- gRPC&#45;PluginGetMetadata5 -->
<g id="node21" class="node"><title>gRPC&#45;PluginGetMetadata5</title>
<ellipse fill="none" stroke="black" cx="2055.59" cy="-18" rx="107.781" ry="18"/>
<text text-anchor="middle" x="2055.59" y="-14.3" font-family="Times,serif" font-size="14.00">gRPC&#45;PluginGetMetadata5</text>
</g>
<!-- MonitorBatchPublisher3&#45;&gt;gRPC&#45;PluginGetMetadata5 -->
<g id="edge22" class="edge"><title>MonitorBatchPublisher3&#45;&gt;gRPC&#45;PluginGetMetadata5</title>
<path fill="none" stroke="black" d="M2048.06,-71.6966C2049.17,-63.9827 2050.49,-54.7125 2051.72,-46.1124"/>
<polygon fill="black" stroke="black" points="2055.2,-46.4988 2053.15,-36.1043 2048.27,-45.5088 2055.2,-46.4988"/>
</g>
<!-- gRPC&#45;PluginGetMetadata6 -->
<g id="node23" class="node"><title>gRPC&#45;PluginGetMetadata6</title>
<ellipse fill="none" stroke="black" cx="2289.59" cy="-18" rx="107.781" ry="18"/>
<text text-anchor="middle" x="2289.59" y="-14.3" font-family="Times,serif" font-size="14.00">gRPC&#45;PluginGetMetadata6</text>
</g>
<!-- MonitorBatchPublisher4&#45;&gt;gRPC&#45;PluginGetMetadata6 -->
<g id="edge23" class="edge"><title>MonitorBatchPublisher4&#45;&gt;gRPC&#45;PluginGetMetadata6</title>
<path fill="none" stroke="black" d="M2274.54,-71.6966C2276.76,-63.8979 2279.45,-54.5085 2281.93,-45.8292"/>
<polygon fill="black" stroke="black" points="2285.32,-46.6811 2284.7,-36.1043 2278.59,-44.758 2285.32,-46.6811"/>
</g>
</g>
</svg>
