<?xml version="1.0" encoding="UTF-8" standalone="no"?>
<!DOCTYPE svg PUBLIC "-//W3C//DTD SVG 1.1//EN"
 "http://www.w3.org/Graphics/SVG/1.1/DTD/svg11.dtd">
<!-- Generated by graphviz version 2.38.0 (20140413.2041)
 -->
<!-- Title: %3 Pages: 1 -->
<svg width="2717pt" height="260pt"
 viewBox="0.00 0.00 2717.33 260.00" xmlns="http://www.w3.org/2000/svg" xmlns:xlink="http://www.w3.org/1999/xlink">
<g id="graph0" class="graph" transform="scale(1 1) rotate(0) translate(4 256)">
<title>%3</title>
<polygon fill="white" stroke="none" points="-4,4 -4,-256 2713.33,-256 2713.33,4 -4,4"/>
<!-- MainThread -->
<g id="node1" class="node"><title>MainThread</title>
<ellipse fill="none" stroke="black" cx="828.592" cy="-234" rx="54.6905" ry="18"/>
<text text-anchor="middle" x="828.592" y="-230.3" font-family="Times,serif" font-size="14.00">MainThread</text>
</g>
<!-- gRPC&#45;SubscribeMoot0 -->
<g id="node2" class="node"><title>gRPC&#45;SubscribeMoot0</title>
<ellipse fill="none" stroke="black" cx="109.592" cy="-162" rx="92.8835" ry="18"/>
<text text-anchor="middle" x="109.592" y="-158.3" font-family="Times,serif" font-size="14.00">gRPC&#45;SubscribeMoot0</text>
</g>
<!-- MainThread&#45;&gt;gRPC&#45;SubscribeMoot0 -->
<g id="edge1" class="edge"><title>MainThread&#45;&gt;gRPC&#45;SubscribeMoot0</title>
<path fill="none" stroke="black" d="M775.209,-229.848C668.072,-223.206 419.328,-206.192 211.592,-180 203.05,-178.923 194.13,-177.653 185.272,-176.3"/>
<polygon fill="black" stroke="black" points="185.743,-172.831 175.322,-174.743 184.661,-179.747 185.743,-172.831"/>
</g>
<!-- gRPC&#45;SubscribeMoot1 -->
<g id="node4" class="node"><title>gRPC&#45;SubscribeMoot1</title>
<ellipse fill="none" stroke="black" cx="313.592" cy="-162" rx="92.8835" ry="18"/>
<text text-anchor="middle" x="313.592" y="-158.3" font-family="Times,serif" font-size="14.00">gRPC&#45;SubscribeMoot1</text>
</g>
<!-- MainThread&#45;&gt;gRPC&#45;SubscribeMoot1 -->
<g id="edge2" class="edge"><title>MainThread&#45;&gt;gRPC&#45;SubscribeMoot1</title>
<path fill="none" stroke="black" d="M778.745,-226.514C703.5,-216.685 556.428,-197.325 431.592,-180 419.9,-178.377 407.561,-176.634 395.443,-174.904"/>
<polygon fill="black" stroke="black" points="395.731,-171.41 385.336,-173.457 394.739,-178.339 395.731,-171.41"/>
</g>
<!-- gRPC&#45;PluginGetMetadata0 -->
<g id="node6" class="node"><title>gRPC&#45;PluginGetMetadata0</title>
<ellipse fill="none" stroke="black" cx="548.592" cy="-162" rx="107.781" ry="18"/>
<text text-anchor="middle" x="548.592" y="-158.3" font-family="Times,serif" font-size="14.00">gRPC&#45;PluginGetMetadata0</text>
</g>
<!-- MainThread&#45;&gt;gRPC&#45;PluginGetMetadata0 -->
<g id="edge3" class="edge"><title>MainThread&#45;&gt;gRPC&#45;PluginGetMetadata0</title>
<path fill="none" stroke="black" d="M786.37,-222.445C741.159,-211.142 668.777,-193.046 615.736,-179.786"/>
<polygon fill="black" stroke="black" points="616.285,-176.316 605.735,-177.286 614.587,-183.107 616.285,-176.316"/>
</g>
<!-- LeaseMaintenance -->
<g id="node9" class="node"><title>LeaseMaintenance</title>
<ellipse fill="none" stroke="black" cx="751.592" cy="-162" rx="77.1866" ry="18"/>
<text text-anchor="middle" x="751.592" y="-158.3" font-family="Times,serif" font-size="14.00">LeaseMaintenance</text>
</g>
<!-- MainThread&#45;&gt;LeaseMaintenance -->
<g id="edge6" class="edge"><title>MainThread&#45;&gt;LeaseMaintenance</title>
<path fill="none" stroke="black" d="M810.733,-216.765C800.866,-207.795 788.431,-196.49 777.512,-186.564"/>
<polygon fill="black" stroke="black" points="779.642,-183.77 769.888,-179.633 774.933,-188.95 779.642,-183.77"/>
</g>
<!-- ReproPublish -->
<g id="node11" class="node"><title>ReproPublish</title>
<ellipse fill="none" stroke="black" cx="905.592" cy="-162" rx="58.4896" ry="18"/>
<text text-anchor="middle" x="905.592" y="-158.3" font-family="Times,serif" font-size="14.00">ReproPublish</text>
</g>
<!-- MainThread&#45;&gt;ReproPublish -->
<g id="edge7" class="edge"><title>MainThread&#45;&gt;ReproPublish</title>
<path fill="none" stroke="black" d="M846.451,-216.765C856.389,-207.73 868.933,-196.326 879.908,-186.349"/>
<polygon fill="black" stroke="black" points="882.518,-188.706 887.563,-179.39 877.809,-183.527 882.518,-188.706"/>
</g>
<!-- gRPC&#45;PluginGetMetadata8 -->
<g id="node26" class="node"><title>gRPC&#45;PluginGetMetadata8</title>
<ellipse fill="none" stroke="black" cx="1089.59" cy="-162" rx="107.781" ry="18"/>
<text text-anchor="middle" x="1089.59" y="-158.3" font-family="Times,serif" font-size="14.00">gRPC&#45;PluginGetMetadata8</text>
</g>
<!-- MainThread&#45;&gt;gRPC&#45;PluginGetMetadata8 -->
<g id="edge8" class="edge"><title>MainThread&#45;&gt;gRPC&#45;PluginGetMetadata8</title>
<path fill="none" stroke="black" d="M869.66,-221.985C911.429,-210.783 976.749,-193.264 1025.36,-180.226"/>
<polygon fill="black" stroke="black" points="1026.41,-183.569 1035.16,-177.598 1024.6,-176.808 1026.41,-183.569"/>
</g>
<!-- Consumer helper: callback requests worker -->
<g id="node27" class="node"><title>Consumer helper: callback requests worker</title>
<ellipse fill="none" stroke="black" cx="1379.59" cy="-162" rx="164.371" ry="18"/>
<text text-anchor="middle" x="1379.59" y="-158.3" font-family="Times,serif" font-size="14.00">Consumer helper: callback requests worker</text>
</g>
<!-- MainThread&#45;&gt;Consumer helper: callback requests worker -->
<g id="edge4" class="edge"><title>MainThread&#45;&gt;Consumer helper: callback requests worker</title>
<path fill="none" stroke="black" d="M868.324,-221.45C876.31,-219.411 884.68,-217.473 892.592,-216 927.174,-209.564 1120.45,-189.311 1252.86,-175.788"/>
<polygon fill="black" stroke="black" points="1253.49,-179.243 1263.08,-174.746 1252.78,-172.279 1253.49,-179.243"/>
</g>
<!-- Consumer helper: consume bidirectional stream -->
<g id="node28" class="node"><title>Consumer helper: consume bidirectional stream</title>
<ellipse fill="none" stroke="black" cx="1983.59" cy="-162" rx="181.168" ry="18"/>
<text text-anchor="middle" x="1983.59" y="-158.3" font-family="Times,serif" font-size="14.00">Consumer helper: consume bidirectional stream</text>
</g>
<!-- MainThread&#45;&gt;Consumer helper: consume bidirectional stream -->
<g id="edge5" class="edge"><title>MainThread&#45;&gt;Consumer helper: consume bidirectional stream</title>
<path fill="none" stroke="black" d="M867.575,-221.247C875.771,-219.171 884.412,-217.27 892.592,-216 937.008,-209.101 1514.23,-183.343 1810.56,-170.45"/>
<polygon fill="black" stroke="black" points="1811.14,-173.928 1820.98,-169.996 1810.84,-166.934 1811.14,-173.928"/>
</g>
<!-- gRPC&#45;SpawnDelivery0 -->
<g id="node3" class="node"><title>gRPC&#45;SpawnDelivery0</title>
<ellipse fill="none" stroke="black" cx="93.5917" cy="-90" rx="93.6835" ry="18"/>
<text text-anchor="middle" x="93.5917" y="-86.3" font-family="Times,serif" font-size="14.00">gRPC&#45;SpawnDelivery0</text>
</g>
<!-- gRPC&#45;SubscribeMoot0&#45;&gt;gRPC&#45;SpawnDelivery0 -->
<g id="edge9" class="edge"><title>gRPC&#45;SubscribeMoot0&#45;&gt;gRPC&#45;SpawnDelivery0</title>
<path fill="none" stroke="black" d="M105.637,-143.697C103.873,-135.983 101.755,-126.712 99.7888,-118.112"/>
<polygon fill="black" stroke="black" points="103.142,-117.073 97.5013,-108.104 96.3176,-118.633 103.142,-117.073"/>
</g>
<!-- gRPC&#45;SpawnDelivery1 -->
<g id="node5" class="node"><title>gRPC&#45;SpawnDelivery1</title>
<ellipse fill="none" stroke="black" cx="298.592" cy="-90" rx="93.6835" ry="18"/>
<text text-anchor="middle" x="298.592" y="-86.3" font-family="Times,serif" font-size="14.00">gRPC&#45;SpawnDelivery1</text>
</g>
<!-- gRPC&#45;SubscribeMoot1&#45;&gt;gRPC&#45;SpawnDelivery1 -->
<g id="edge10" class="edge"><title>gRPC&#45;SubscribeMoot1&#45;&gt;gRPC&#45;SpawnDelivery1</title>
<path fill="none" stroke="black" d="M309.884,-143.697C308.231,-135.983 306.244,-126.712 304.402,-118.112"/>
<polygon fill="black" stroke="black" points="307.775,-117.149 302.257,-108.104 300.93,-118.616 307.775,-117.149"/>
</g>
<!-- Consumer helper -->
<g id="node7" class="node"><title>Consumer helper</title>
<ellipse fill="none" stroke="black" cx="972.592" cy="-234" rx="71.4873" ry="18"/>
<text text-anchor="middle" x="972.592" y="-230.3" font-family="Times,serif" font-size="14.00">Consumer helper</text>
</g>
<!-- gRPC&#45;StopChannelSpin0 -->
<g id="node8" class="node"><title>gRPC&#45;StopChannelSpin0</title>
<ellipse fill="none" stroke="black" cx="1612.59" cy="-90" rx="100.983" ry="18"/>
<text text-anchor="middle" x="1612.59" y="-86.3" font-family="Times,serif" font-size="14.00">gRPC&#45;StopChannelSpin0</text>
</g>
<!-- gRPC&#45;PluginGetMetadata2 -->
<g id="node14" class="node"><title>gRPC&#45;PluginGetMetadata2</title>
<ellipse fill="none" stroke="black" cx="1633.59" cy="-18" rx="107.781" ry="18"/>
<text text-anchor="middle" x="1633.59" y="-14.3" font-family="Times,serif" font-size="14.00">gRPC&#45;PluginGetMetadata2</text>
</g>
<!-- gRPC&#45;StopChannelSpin0&#45;&gt;gRPC&#45;PluginGetMetadata2 -->
<g id="edge16" class="edge"><title>gRPC&#45;StopChannelSpin0&#45;&gt;gRPC&#45;PluginGetMetadata2</title>
<path fill="none" stroke="black" d="M1617.78,-71.6966C1620.12,-63.8979 1622.94,-54.5085 1625.54,-45.8292"/>
<polygon fill="black" stroke="black" points="1628.94,-46.6883 1628.46,-36.1043 1622.23,-44.6769 1628.94,-46.6883"/>
</g>
<!-- gRPC&#45;ConsumeRequestIterator0 -->
<g id="node10" class="node"><title>gRPC&#45;ConsumeRequestIterator0</title>
<ellipse fill="none" stroke="black" cx="1857.59" cy="-90" rx="126.978" ry="18"/>
<text text-anchor="middle" x="1857.59" y="-86.3" font-family="Times,serif" font-size="14.00">gRPC&#45;ConsumeRequestIterator0</text>
</g>
<!-- MonitorBatchPublisher0 -->
<g id="node12" class="node"><title>MonitorBatchPublisher0</title>
<ellipse fill="none" stroke="black" cx="508.592" cy="-90" rx="98.2828" ry="18"/>
<text text-anchor="middle" x="508.592" y="-86.3" font-family="Times,serif" font-size="14.00">MonitorBatchPublisher0</text>
</g>
<!-- ReproPublish&#45;&gt;MonitorBatchPublisher0 -->
<g id="edge17" class="edge"><title>ReproPublish&#45;&gt;MonitorBatchPublisher0</title>
<path fill="none" stroke="black" d="M862.551,-149.652C854.295,-147.642 845.698,-145.663 837.592,-144 825.51,-141.521 683.527,-118.826 590.072,-103.948"/>
<polygon fill="black" stroke="black" points="590.484,-100.47 580.059,-102.354 589.384,-107.383 590.484,-100.47"/>
</g>
<!-- MonitorBatchPublisher1 -->
<g id="node18" class="node"><title>MonitorBatchPublisher1</title>
<ellipse fill="none" stroke="black" cx="722.592" cy="-90" rx="98.2828" ry="18"/>
<text text-anchor="middle" x="722.592" y="-86.3" font-family="Times,serif" font-size="14.00">MonitorBatchPublisher1</text>
</g>
<!-- ReproPublish&#45;&gt;MonitorBatchPublisher1 -->
<g id="edge18" class="edge"><title>ReproPublish&#45;&gt;MonitorBatchPublisher1</title>
<path fill="none" stroke="black" d="M870.307,-147.503C842.66,-136.928 803.833,-122.076 772.924,-110.253"/>
<polygon fill="black" stroke="black" points="773.782,-106.834 763.191,-106.53 771.281,-113.372 773.782,-106.834"/>
</g>
<!-- MonitorBatchPublisher2 -->
<g id="node20" class="node"><title>MonitorBatchPublisher2</title>
<ellipse fill="none" stroke="black" cx="936.592" cy="-90" rx="98.2828" ry="18"/>
<text text-anchor="middle" x="936.592" y="-86.3" font-family="Times,serif" font-size="14.00">MonitorBatchPublisher2</text>
</g>
<!-- ReproPublish&#45;&gt;MonitorBatchPublisher2 -->
<g id="edge19" class="edge"><title>ReproPublish&#45;&gt;MonitorBatchPublisher2</title>
<path fill="none" stroke="black" d="M913.096,-144.055C916.623,-136.091 920.91,-126.411 924.852,-117.51"/>
<polygon fill="black" stroke="black" points="928.092,-118.836 928.941,-108.275 921.692,-116.002 928.092,-118.836"/>
</g>
<!-- MonitorBatchPublisher3 -->
<g id="node22" class="node"><title>MonitorBatchPublisher3</title>
<ellipse fill="none" stroke="black" cx="1160.59" cy="-90" rx="98.2828" ry="18"/>
<text text-anchor="middle" x="1160.59" y="-86.3" font-family="Times,serif" font-size="14.00">MonitorBatchPublisher3</text>
</g>
<!-- ReproPublish&#45;&gt;MonitorBatchPublisher3 -->
<g id="edge20" class="edge"><title>ReproPublish&#45;&gt;MonitorBatchPublisher3</title>
<path fill="none" stroke="black" d="M947.7,-149.441C988.772,-138.166 1051.72,-120.885 1098.53,-108.036"/>
<polygon fill="black" stroke="black" points="1099.55,-111.387 1108.26,-105.365 1097.69,-104.637 1099.55,-111.387"/>
</g>
<!-- MonitorBatchPublisher4 -->
<g id="node24" class="node"><title>MonitorBatchPublisher4</title>
<ellipse fill="none" stroke="black" cx="1387.59" cy="-90" rx="98.2828" ry="18"/>
<text text-anchor="middle" x="1387.59" y="-86.3" font-family="Times,serif" font-size="14.00">MonitorBatchPublisher4</text>
</g>
<!-- ReproPublish&#45;&gt;MonitorBatchPublisher4 -->
<g id="edge21" class="edge"><title>ReproPublish&#45;&gt;MonitorBatchPublisher4</title>
<path fill="none" stroke="black" d="M947.944,-149.389C956.083,-147.404 964.571,-145.501 972.592,-144 1102.42,-119.709 1136.64,-125.264 1267.59,-108 1279.08,-106.485 1291.18,-104.835 1303.1,-103.179"/>
<polygon fill="black" stroke="black" points="1303.63,-106.639 1313.05,-101.788 1302.66,-99.706 1303.63,-106.639"/>
</g>
<!-- gRPC&#45;PluginGetMetadata1 -->
<g id="node13" class="node"><title>gRPC&#45;PluginGetMetadata1</title>
<ellipse fill="none" stroke="black" cx="463.592" cy="-18" rx="107.781" ry="18"/>
<text text-anchor="middle" x="463.592" y="-14.3" font-family="Times,serif" font-size="14.00">gRPC&#45;PluginGetMetadata1</text>
</g>
<!-- MonitorBatchPublisher0&#45;&gt;gRPC&#45;PluginGetMetadata1 -->
<g id="edge22" class="edge"><title>MonitorBatchPublisher0&#45;&gt;gRPC&#45;PluginGetMetadata1</title>
<path fill="none" stroke="black" d="M497.698,-72.055C492.47,-63.922 486.09,-53.998 480.269,-44.9426"/>
<polygon fill="black" stroke="black" points="483.049,-42.7944 474.697,-36.2753 477.161,-46.5798 483.049,-42.7944"/>
</g>
<!-- gRPC&#45;PluginGetMetadata3 -->
<g id="node15" class="node"><title>gRPC&#45;PluginGetMetadata3</title>
<ellipse fill="none" stroke="black" cx="2110.59" cy="-90" rx="107.781" ry="18"/>
<text text-anchor="middle" x="2110.59" y="-86.3" font-family="Times,serif" font-size="14.00">gRPC&#45;PluginGetMetadata3</text>
</g>
<!-- gRPC&#45;StopChannelSpin1 -->
<g id="node16" class="node"><title>gRPC&#45;StopChannelSpin1</title>
<ellipse fill="none" stroke="black" cx="2337.59" cy="-90" rx="100.983" ry="18"/>
<text text-anchor="middle" x="2337.59" y="-86.3" font-family="Times,serif" font-size="14.00">gRPC&#45;StopChannelSpin1</text>
</g>
<!-- gRPC&#45;ConsumeRequestIterator1 -->
<g id="node17" class="node"><title>gRPC&#45;ConsumeRequestIterator1</title>
<ellipse fill="none" stroke="black" cx="2582.59" cy="-90" rx="126.978" ry="18"/>
<text text-anchor="middle" x="2582.59" y="-86.3" font-family="Times,serif" font-size="14.00">gRPC&#45;ConsumeRequestIterator1</text>
</g>
<!-- gRPC&#45;PluginGetMetadata4 -->
<g id="node19" class="node"><title>gRPC&#45;PluginGetMetadata4</title>
<ellipse fill="none" stroke="black" cx="697.592" cy="-18" rx="107.781" ry="18"/>
<text text-anchor="middle" x="697.592" y="-14.3" font-family="Times,serif" font-size="14.00">gRPC&#45;PluginGetMetadata4</text>
</g>
<!-- MonitorBatchPublisher1&#45;&gt;gRPC&#45;PluginGetMetadata4 -->
<g id="edge23" class="edge"><title>MonitorBatchPublisher1&#45;&gt;gRPC&#45;PluginGetMetadata4</title>
<path fill="none" stroke="black" d="M716.412,-71.6966C713.596,-63.8132 710.2,-54.3042 707.073,-45.5464"/>
<polygon fill="black" stroke="black" points="710.36,-44.3446 703.7,-36.1043 703.768,-46.699 710.36,-44.3446"/>
</g>
<!-- gRPC&#45;PluginGetMetadata5 -->
<g id="node21" class="node"><title>gRPC&#45;PluginGetMetadata5</title>
<ellipse fill="none" stroke="black" cx="931.592" cy="-18" rx="107.781" ry="18"/>
<text text-anchor="middle" x="931.592" y="-14.3" font-family="Times,serif" font-size="14.00">gRPC&#45;PluginGetMetadata5</text>
</g>
<!-- MonitorBatchPublisher2&#45;&gt;gRPC&#45;PluginGetMetadata5 -->
<g id="edge24" class="edge"><title>MonitorBatchPublisher2&#45;&gt;gRPC&#45;PluginGetMetadata5</title>
<path fill="none" stroke="black" d="M935.356,-71.6966C934.805,-63.9827 934.143,-54.7125 933.528,-46.1124"/>
<polygon fill="black" stroke="black" points="937.017,-45.8295 932.813,-36.1043 930.035,-46.3283 937.017,-45.8295"/>
</g>
<!-- gRPC&#45;PluginGetMetadata6 -->
<g id="node23" class="node"><title>gRPC&#45;PluginGetMetadata6</title>
<ellipse fill="none" stroke="black" cx="1165.59" cy="-18" rx="107.781" ry="18"/>
<text text-anchor="middle" x="1165.59" y="-14.3" font-family="Times,serif" font-size="14.00">gRPC&#45;PluginGetMetadata6</text>
</g>
<!-- MonitorBatchPublisher3&#45;&gt;gRPC&#45;PluginGetMetadata6 -->
<g id="edge25" class="edge"><title>MonitorBatchPublisher3&#45;&gt;gRPC&#45;PluginGetMetadata6</title>
<path fill="none" stroke="black" d="M1161.83,-71.6966C1162.38,-63.9827 1163.04,-54.7125 1163.66,-46.1124"/>
<polygon fill="black" stroke="black" points="1167.15,-46.3283 1164.37,-36.1043 1160.17,-45.8295 1167.15,-46.3283"/>
</g>
<!-- gRPC&#45;PluginGetMetadata7 -->
<g id="node25" class="node"><title>gRPC&#45;PluginGetMetadata7</title>
<ellipse fill="none" stroke="black" cx="1399.59" cy="-18" rx="107.781" ry="18"/>
<text text-anchor="middle" x="1399.59" y="-14.3" font-family="Times,serif" font-size="14.00">gRPC&#45;PluginGetMetadata7</text>
</g>
<!-- MonitorBatchPublisher4&#45;&gt;gRPC&#45;PluginGetMetadata7 -->
<g id="edge26" class="edge"><title>MonitorBatchPublisher4&#45;&gt;gRPC&#45;PluginGetMetadata7</title>
<path fill="none" stroke="black" d="M1390.56,-71.6966C1391.88,-63.9827 1393.47,-54.7125 1394.94,-46.1124"/>
<polygon fill="black" stroke="black" points="1398.42,-46.552 1396.66,-36.1043 1391.52,-45.3692 1398.42,-46.552"/>
</g>
<!-- Consumer helper: consume bidirectional stream&#45;&gt;gRPC&#45;StopChannelSpin0 -->
<g id="edge11" class="edge"><title>Consumer helper: consume bidirectional stream&#45;&gt;gRPC&#45;StopChannelSpin0</title>
<path fill="none" stroke="black" d="M1903.09,-145.811C1839.7,-133.851 1751.92,-117.289 1689.48,-105.508"/>
<polygon fill="black" stroke="black" points="1689.78,-102.001 1679.3,-103.587 1688.48,-108.88 1689.78,-102.001"/>
</g>
<!-- Consumer helper: consume bidirectional stream&#45;&gt;gRPC&#45;ConsumeRequestIterator0 -->
<g id="edge12" class="edge"><title>Consumer helper: consume bidirectional stream&#45;&gt;gRPC&#45;ConsumeRequestIterator0</title>
<path fill="none" stroke="black" d="M1953.41,-144.233C1936.35,-134.753 1914.82,-122.795 1896.5,-112.616"/>
<polygon fill="black" stroke="black" points="1897.97,-109.427 1887.53,-107.63 1894.57,-115.546 1897.97,-109.427"/>
</g>
<!-- Consumer helper: consume bidirectional stream&#45;&gt;gRPC&#45;PluginGetMetadata3 -->
<g id="edge13" class="edge"><title>Consumer helper: consume bidirectional stream&#45;&gt;gRPC&#45;PluginGetMetadata3</title>
<path fill="none" stroke="black" d="M2014.01,-144.233C2031.42,-134.64 2053.42,-122.511 2072.03,-112.254"/>
<polygon fill="black" stroke="black" points="2073.79,-115.281 2080.86,-107.388 2070.41,-109.15 2073.79,-115.281"/>
</g>
<!-- Consumer helper: consume bidirectional stream&#45;&gt;gRPC&#45;StopChannelSpin1 -->
<g id="edge14" class="edge"><title>Consumer helper: consume bidirectional stream&#45;&gt;gRPC&#45;StopChannelSpin1</title>
<path fill="none" stroke="black" d="M2061.28,-145.638C2121.21,-133.787 2203.6,-117.495 2262.79,-105.79"/>
<polygon fill="black" stroke="black" points="2263.69,-109.18 2272.83,-103.807 2262.34,-102.313 2263.69,-109.18"/>
</g>
<!-- Consumer helper: consume bidirectional stream&#45;&gt;gRPC&#45;ConsumeRequestIterator1 -->
<g id="edge15" class="edge"><title>Consumer helper: consume bidirectional stream&#45;&gt;gRPC&#45;ConsumeRequestIterator1</title>
<path fill="none" stroke="black" d="M2099.48,-148.138C2193.37,-137.627 2329.05,-122.233 2447.59,-108 2458.66,-106.671 2470.23,-105.255 2481.75,-103.828"/>
<polygon fill="black" stroke="black" points="2482.35,-107.281 2491.84,-102.574 2481.48,-100.334 2482.35,-107.281"/>
</g>
</g>
</svg>
