<?xml version="1.0" encoding="UTF-8" standalone="no"?>
<!DOCTYPE svg PUBLIC "-//W3C//DTD SVG 1.1//EN"
 "http://www.w3.org/Graphics/SVG/1.1/DTD/svg11.dtd">
<!-- Generated by graphviz version 2.38.0 (20140413.2041)
 -->
<!-- Title: G Pages: 1 -->
<svg width="582pt" height="260pt"
 viewBox="0.00 0.00 581.96 260.00" xmlns="http://www.w3.org/2000/svg" xmlns:xlink="http://www.w3.org/1999/xlink">
<g id="graph0" class="graph" transform="scale(1 1) rotate(0) translate(4 256)">
<title>G</title>
<polygon fill="white" stroke="none" points="-4,4 -4,-256 577.956,-256 577.956,4 -4,4"/>
<!-- Thread&#45;gRPC&#45;SubscribeMoot+ -->
<g id="node1" class="node"><title>Thread&#45;gRPC&#45;SubscribeMoot+</title>
<ellipse fill="none" stroke="black" cx="255.531" cy="-234" rx="89.0842" ry="18"/>
<text text-anchor="middle" x="255.531" y="-230.3" font-family="Times,serif" font-size="14.00">gRPC&#45;SubscribeMoot</text>
</g>
<!-- Thread&#45;gRPC&#45;SpawnDelivery -->
<g id="node2" class="node"><title>Thread&#45;gRPC&#45;SpawnDelivery</title>
<ellipse fill="none" stroke="black" cx="484.914" cy="-234" rx="89.0842" ry="18"/>
<text text-anchor="middle" x="484.914" y="-230.3" font-family="Times,serif" font-size="14.00">gRPC&#45;SpawnDelivery</text>
</g>
<!-- Thread&#45;gRPC&#45;SubscribeMoot+&#45;&gt;Thread&#45;gRPC&#45;SpawnDelivery -->
<g id="edge1" class="edge"><title>Thread&#45;gRPC&#45;SubscribeMoot+&#45;&gt;Thread&#45;gRPC&#45;SpawnDelivery</title>
<path fill="none" stroke="black" d="M344.769,-234C358.099,-234 371.921,-234 385.45,-234"/>
<polygon fill="black" stroke="black" points="385.726,-237.5 395.726,-234 385.726,-230.5 385.726,-237.5"/>
</g>
<!-- MainThread -->
<g id="node3" class="node"><title>MainThread</title>
<ellipse fill="none" stroke="black" cx="54.5952" cy="-126" rx="54.6905" ry="18"/>
<text text-anchor="middle" x="54.5952" y="-122.3" font-family="Times,serif" font-size="14.00">MainThread</text>
</g>
<!-- MainThread&#45;&gt;Thread&#45;gRPC&#45;SubscribeMoot+ -->
<g id="edge3" class="edge"><title>MainThread&#45;&gt;Thread&#45;gRPC&#45;SubscribeMoot+</title>
<path fill="none" stroke="black" d="M71.3791,-143.133C89.2658,-161.544 120.124,-190.392 152.19,-207 161.063,-211.595 170.783,-215.456 180.591,-218.688"/>
<polygon fill="black" stroke="black" points="179.812,-222.111 190.4,-221.714 181.876,-215.422 179.812,-222.111"/>
</g>
<!-- Thread&#45;gRPC&#45;SubscribeMoot -->
<g id="node4" class="node"><title>Thread&#45;gRPC&#45;SubscribeMoot</title>
<ellipse fill="none" stroke="black" cx="255.531" cy="-180" rx="89.0842" ry="18"/>
<text text-anchor="middle" x="255.531" y="-176.3" font-family="Times,serif" font-size="14.00">gRPC&#45;SubscribeMoot</text>
</g>
<!-- MainThread&#45;&gt;Thread&#45;gRPC&#45;SubscribeMoot -->
<g id="edge2" class="edge"><title>MainThread&#45;&gt;Thread&#45;gRPC&#45;SubscribeMoot</title>
<path fill="none" stroke="black" d="M96.4495,-137.562C113.644,-142.391 133.874,-148.024 152.19,-153 164.504,-156.345 177.666,-159.862 190.312,-163.211"/>
<polygon fill="black" stroke="black" points="189.754,-166.684 200.317,-165.855 191.543,-159.916 189.754,-166.684"/>
</g>
<!-- Thread&#45;gRPC&#45;PluginGetMetadata -->
<g id="node5" class="node"><title>Thread&#45;gRPC&#45;PluginGetMetadata</title>
<ellipse fill="none" stroke="black" cx="255.531" cy="-126" rx="103.182" ry="18"/>
<text text-anchor="middle" x="255.531" y="-122.3" font-family="Times,serif" font-size="14.00">gRPC&#45;PluginGetMetadata</text>
</g>
<!-- MainThread&#45;&gt;Thread&#45;gRPC&#45;PluginGetMetadata -->
<g id="edge4" class="edge"><title>MainThread&#45;&gt;Thread&#45;gRPC&#45;PluginGetMetadata</title>
<path fill="none" stroke="black" d="M109.43,-126C119.562,-126 130.5,-126 141.667,-126"/>
<polygon fill="black" stroke="black" points="141.971,-129.5 151.971,-126 141.971,-122.5 141.971,-129.5"/>
<text text-anchor="middle" x="130.69" y="-129.8" font-family="Times,serif" font-size="14.00">2</text>
</g>
<!-- Thread&#45;MonitorBatchPublisher -->
<g id="node6" class="node"><title>Thread&#45;MonitorBatchPublisher</title>
<ellipse fill="none" stroke="black" cx="255.531" cy="-72" rx="93.6835" ry="18"/>
<text text-anchor="middle" x="255.531" y="-68.3" font-family="Times,serif" font-size="14.00">MonitorBatchPublisher</text>
</g>
<!-- MainThread&#45;&gt;Thread&#45;MonitorBatchPublisher -->
<g id="edge5" class="edge"><title>MainThread&#45;&gt;Thread&#45;MonitorBatchPublisher</title>
<path fill="none" stroke="black" d="M96.4495,-114.438C113.644,-109.609 133.874,-103.976 152.19,-99 164.224,-95.7311 177.069,-92.298 189.449,-89.0175"/>
<polygon fill="black" stroke="black" points="190.481,-92.3651 199.254,-86.4254 188.692,-85.5976 190.481,-92.3651"/>
<text text-anchor="middle" x="130.69" y="-109.8" font-family="Times,serif" font-size="14.00">2</text>
</g>
<!-- Thread&#45;CommitBatchPublisher -->
<g id="node7" class="node"><title>Thread&#45;CommitBatchPublisher</title>
<ellipse fill="none" stroke="black" cx="255.531" cy="-18" rx="94.4839" ry="18"/>
<text text-anchor="middle" x="255.531" y="-14.3" font-family="Times,serif" font-size="14.00">CommitBatchPublisher</text>
</g>
<!-- MainThread&#45;&gt;Thread&#45;CommitBatchPublisher -->
<g id="edge6" class="edge"><title>MainThread&#45;&gt;Thread&#45;CommitBatchPublisher</title>
<path fill="none" stroke="black" d="M71.3791,-108.867C89.2658,-90.456 120.124,-61.6075 152.19,-45 160.607,-40.6409 169.787,-36.9423 179.08,-33.8149"/>
<polygon fill="black" stroke="black" points="180.293,-37.1024 188.779,-30.759 178.19,-30.426 180.293,-37.1024"/>
<text text-anchor="middle" x="130.69" y="-63.8" font-family="Times,serif" font-size="14.00">2</text>
</g>
</g>
</svg>
