<?xml version="1.0" encoding="UTF-8" standalone="no"?>
<!DOCTYPE svg PUBLIC "-//W3C//DTD SVG 1.1//EN"
 "http://www.w3.org/Graphics/SVG/1.1/DTD/svg11.dtd">
<!-- Generated by graphviz version 2.38.0 (20140413.2041)
 -->
<!-- Title: G Pages: 1 -->
<svg width="611pt" height="314pt"
 viewBox="0.00 0.00 610.55 314.00" xmlns="http://www.w3.org/2000/svg" xmlns:xlink="http://www.w3.org/1999/xlink">
<g id="graph0" class="graph" transform="scale(1 1) rotate(0) translate(4 310)">
<title>G</title>
<polygon fill="white" stroke="none" points="-4,4 -4,-310 606.554,-310 606.554,4 -4,4"/>
<!-- Thread&#45;gRPC&#45;SubscribeMoot+ -->
<g id="node1" class="node"><title>Thread&#45;gRPC&#45;SubscribeMoot+</title>
<ellipse fill="none" stroke="black" cx="255.531" cy="-288" rx="89.0842" ry="18"/>
<text text-anchor="middle" x="255.531" y="-284.3" font-family="Times,serif" font-size="14.00">gRPC&#45;SubscribeMoot</text>
</g>
<!-- Thread&#45;gRPC&#45;SpawnDelivery -->
<g id="node2" class="node"><title>Thread&#45;gRPC&#45;SpawnDelivery</title>
<ellipse fill="none" stroke="black" cx="499.213" cy="-288" rx="89.0842" ry="18"/>
<text text-anchor="middle" x="499.213" y="-284.3" font-family="Times,serif" font-size="14.00">gRPC&#45;SpawnDelivery</text>
</g>
<!-- Thread&#45;gRPC&#45;SubscribeMoot+&#45;&gt;Thread&#45;gRPC&#45;SpawnDelivery -->
<g id="edge1" class="edge"><title>Thread&#45;gRPC&#45;SubscribeMoot+&#45;&gt;Thread&#45;gRPC&#45;SpawnDelivery</title>
<path fill="none" stroke="black" d="M344.81,-288C362.672,-288 381.56,-288 399.748,-288"/>
<polygon fill="black" stroke="black" points="399.769,-291.5 409.769,-288 399.769,-284.5 399.769,-291.5"/>
</g>
<!-- Thread&#45;MonitorBatchPublisher -->
<g id="node3" class="node"><title>Thread&#45;MonitorBatchPublisher</title>
<ellipse fill="none" stroke="black" cx="255.531" cy="-234" rx="93.6835" ry="18"/>
<text text-anchor="middle" x="255.531" y="-230.3" font-family="Times,serif" font-size="14.00">MonitorBatchPublisher</text>
</g>
<!-- Thread&#45;gRPC&#45;PluginGetMetadata+ -->
<g id="node4" class="node"><title>Thread&#45;gRPC&#45;PluginGetMetadata+</title>
<ellipse fill="none" stroke="black" cx="499.213" cy="-234" rx="103.182" ry="18"/>
<text text-anchor="middle" x="499.213" y="-230.3" font-family="Times,serif" font-size="14.00">gRPC&#45;PluginGetMetadata</text>
</g>
<!-- Thread&#45;MonitorBatchPublisher&#45;&gt;Thread&#45;gRPC&#45;PluginGetMetadata+ -->
<g id="edge2" class="edge"><title>Thread&#45;MonitorBatchPublisher&#45;&gt;Thread&#45;gRPC&#45;PluginGetMetadata+</title>
<path fill="none" stroke="black" d="M349.28,-234C361.136,-234 373.374,-234 385.501,-234"/>
<polygon fill="black" stroke="black" points="385.652,-237.5 395.652,-234 385.652,-230.5 385.652,-237.5"/>
</g>
<!-- Thread&#45;CommitBatchPublisher -->
<g id="node5" class="node"><title>Thread&#45;CommitBatchPublisher</title>
<ellipse fill="none" stroke="black" cx="255.531" cy="-180" rx="94.4839" ry="18"/>
<text text-anchor="middle" x="255.531" y="-176.3" font-family="Times,serif" font-size="14.00">CommitBatchPublisher</text>
</g>
<!-- Thread&#45;gRPC&#45;PluginGetMetadata++ -->
<g id="node6" class="node"><title>Thread&#45;gRPC&#45;PluginGetMetadata++</title>
<ellipse fill="none" stroke="black" cx="499.213" cy="-180" rx="103.182" ry="18"/>
<text text-anchor="middle" x="499.213" y="-176.3" font-family="Times,serif" font-size="14.00">gRPC&#45;PluginGetMetadata</text>
</g>
<!-- Thread&#45;CommitBatchPublisher&#45;&gt;Thread&#45;gRPC&#45;PluginGetMetadata++ -->
<g id="edge3" class="edge"><title>Thread&#45;CommitBatchPublisher&#45;&gt;Thread&#45;gRPC&#45;PluginGetMetadata++</title>
<path fill="none" stroke="black" d="M349.972,-180C361.698,-180 373.788,-180 385.767,-180"/>
<polygon fill="black" stroke="black" points="385.793,-183.5 395.793,-180 385.793,-176.5 385.793,-183.5"/>
</g>
<!-- MainThread -->
<g id="node7" class="node"><title>MainThread</title>
<ellipse fill="none" stroke="black" cx="54.5952" cy="-145" rx="54.6905" ry="18"/>
<text text-anchor="middle" x="54.5952" y="-141.3" font-family="Times,serif" font-size="14.00">MainThread</text>
</g>
<!-- MainThread&#45;&gt;Thread&#45;gRPC&#45;SubscribeMoot+ -->
<g id="edge5" class="edge"><title>MainThread&#45;&gt;Thread&#45;gRPC&#45;SubscribeMoot+</title>
<path fill="none" stroke="black" d="M65.5609,-162.9C80.8121,-188.603 112.404,-235.656 152.19,-261 159.873,-265.894 168.417,-269.905 177.202,-273.191"/>
<polygon fill="black" stroke="black" points="176.204,-276.549 186.799,-276.48 178.474,-269.927 176.204,-276.549"/>
</g>
<!-- MainThread&#45;&gt;Thread&#45;MonitorBatchPublisher -->
<g id="edge7" class="edge"><title>MainThread&#45;&gt;Thread&#45;MonitorBatchPublisher</title>
<path fill="none" stroke="black" d="M77.1138,-161.622C95.9882,-175.493 124.646,-194.888 152.19,-207 161.623,-211.148 171.834,-214.774 182.03,-217.908"/>
<polygon fill="black" stroke="black" points="181.194,-221.311 191.775,-220.764 183.162,-214.593 181.194,-221.311"/>
<text text-anchor="middle" x="130.69" y="-200.8" font-family="Times,serif" font-size="14.00">3</text>
</g>
<!-- MainThread&#45;&gt;Thread&#45;CommitBatchPublisher -->
<g id="edge9" class="edge"><title>MainThread&#45;&gt;Thread&#45;CommitBatchPublisher</title>
<path fill="none" stroke="black" d="M102.993,-153.339C124.709,-157.16 151.037,-161.792 175.615,-166.116"/>
<polygon fill="black" stroke="black" points="175.203,-169.597 185.658,-167.883 176.416,-162.703 175.203,-169.597"/>
</g>
<!-- Thread&#45;gRPC&#45;SubscribeMoot -->
<g id="node8" class="node"><title>Thread&#45;gRPC&#45;SubscribeMoot</title>
<ellipse fill="none" stroke="black" cx="255.531" cy="-126" rx="89.0842" ry="18"/>
<text text-anchor="middle" x="255.531" y="-122.3" font-family="Times,serif" font-size="14.00">gRPC&#45;SubscribeMoot</text>
</g>
<!-- MainThread&#45;&gt;Thread&#45;gRPC&#45;SubscribeMoot -->
<g id="edge4" class="edge"><title>MainThread&#45;&gt;Thread&#45;gRPC&#45;SubscribeMoot</title>
<path fill="none" stroke="black" d="M107.344,-140.058C124.794,-138.391 144.813,-136.479 164.349,-134.613"/>
<polygon fill="black" stroke="black" points="164.883,-138.078 174.505,-133.643 164.218,-131.11 164.883,-138.078"/>
</g>
<!-- Thread&#45;gRPC&#45;PluginGetMetadata -->
<g id="node9" class="node"><title>Thread&#45;gRPC&#45;PluginGetMetadata</title>
<ellipse fill="none" stroke="black" cx="255.531" cy="-72" rx="103.182" ry="18"/>
<text text-anchor="middle" x="255.531" y="-68.3" font-family="Times,serif" font-size="14.00">gRPC&#45;PluginGetMetadata</text>
</g>
<!-- MainThread&#45;&gt;Thread&#45;gRPC&#45;PluginGetMetadata -->
<g id="edge6" class="edge"><title>MainThread&#45;&gt;Thread&#45;gRPC&#45;PluginGetMetadata</title>
<path fill="none" stroke="black" d="M84.1546,-129.666C103.071,-119.947 128.645,-107.626 152.19,-99 161.931,-95.4311 172.353,-92.1231 182.682,-89.1346"/>
<polygon fill="black" stroke="black" points="183.85,-92.4422 192.531,-86.3692 181.957,-85.7029 183.85,-92.4422"/>
<text text-anchor="middle" x="130.69" y="-112.8" font-family="Times,serif" font-size="14.00">2</text>
</g>
<!-- Thread&#45;MonitorBatchPublisher+ -->
<g id="node10" class="node"><title>Thread&#45;MonitorBatchPublisher+</title>
<ellipse fill="none" stroke="black" cx="255.531" cy="-18" rx="93.6835" ry="18"/>
<text text-anchor="middle" x="255.531" y="-14.3" font-family="Times,serif" font-size="14.00">MonitorBatchPublisher</text>
</g>
<!-- MainThread&#45;&gt;Thread&#45;MonitorBatchPublisher+ -->
<g id="edge8" class="edge"><title>MainThread&#45;&gt;Thread&#45;MonitorBatchPublisher+</title>
<path fill="none" stroke="black" d="M67.8263,-127.332C84.3553,-104.807 115.959,-66.2444 152.19,-45 159.931,-40.4609 168.443,-36.671 177.151,-33.5097"/>
<polygon fill="black" stroke="black" points="178.282,-36.8218 186.648,-30.3203 176.054,-30.1859 178.282,-36.8218"/>
</g>
</g>
</svg>
