<?xml version="1.0" encoding="UTF-8" standalone="no"?>
<!DOCTYPE svg PUBLIC "-//W3C//DTD SVG 1.1//EN"
 "http://www.w3.org/Graphics/SVG/1.1/DTD/svg11.dtd">
<!-- Generated by graphviz version 2.38.0 (20140413.2041)
 -->
<!-- Title: %3 Pages: 1 -->
<svg width="2474pt" height="260pt"
 viewBox="0.00 0.00 2473.83 260.00" xmlns="http://www.w3.org/2000/svg" xmlns:xlink="http://www.w3.org/1999/xlink">
<g id="graph0" class="graph" transform="scale(1 1) rotate(0) translate(4 256)">
<title>%3</title>
<polygon fill="white" stroke="none" points="-4,4 -4,-256 2469.83,-256 2469.83,4 -4,4"/>
<!-- MainThread -->
<g id="node1" class="node"><title>MainThread</title>
<ellipse fill="none" stroke="black" cx="1219.94" cy="-234" rx="54.6905" ry="18"/>
<text text-anchor="middle" x="1219.94" y="-230.3" font-family="Times,serif" font-size="14.00">MainThread</text>
</g>
<!-- gRPC&#45;SubscribeMoot0 -->
<g id="node2" class="node"><title>gRPC&#45;SubscribeMoot0</title>
<ellipse fill="none" stroke="black" cx="92.9418" cy="-162" rx="92.8835" ry="18"/>
<text text-anchor="middle" x="92.9418" y="-158.3" font-family="Times,serif" font-size="14.00">gRPC&#45;SubscribeMoot0</text>
</g>
<!-- MainThread&#45;&gt;gRPC&#45;SubscribeMoot0 -->
<g id="edge1" class="edge"><title>MainThread&#45;&gt;gRPC&#45;SubscribeMoot0</title>
<path fill="none" stroke="black" d="M1165.32,-232.355C1011.92,-230.073 564.285,-220.196 194.942,-180 186.189,-179.047 177.046,-177.836 167.984,-176.5"/>
<polygon fill="black" stroke="black" points="168.227,-172.996 157.813,-174.945 167.169,-179.916 168.227,-172.996"/>
</g>
<!-- gRPC&#45;SubscribeMoot1 -->
<g id="node3" class="node"><title>gRPC&#45;SubscribeMoot1</title>
<ellipse fill="none" stroke="black" cx="296.942" cy="-162" rx="92.8835" ry="18"/>
<text text-anchor="middle" x="296.942" y="-158.3" font-family="Times,serif" font-size="14.00">gRPC&#45;SubscribeMoot1</text>
</g>
<!-- MainThread&#45;&gt;gRPC&#45;SubscribeMoot1 -->
<g id="edge2" class="edge"><title>MainThread&#45;&gt;gRPC&#45;SubscribeMoot1</title>
<path fill="none" stroke="black" d="M1165.49,-231.381C1033.6,-227.045 686.626,-213.174 398.942,-180 390.26,-178.999 381.192,-177.764 372.198,-176.42"/>
<polygon fill="black" stroke="black" points="372.517,-172.928 362.1,-174.863 371.45,-179.846 372.517,-172.928"/>
</g>
<!-- gRPC&#45;PluginGetMetadata0 -->
<g id="node5" class="node"><title>gRPC&#45;PluginGetMetadata0</title>
<ellipse fill="none" stroke="black" cx="515.942" cy="-162" rx="107.781" ry="18"/>
<text text-anchor="middle" x="515.942" y="-158.3" font-family="Times,serif" font-size="14.00">gRPC&#45;PluginGetMetadata0</text>
</g>
<!-- MainThread&#45;&gt;gRPC&#45;PluginGetMetadata0 -->
<g id="edge3" class="edge"><title>MainThread&#45;&gt;gRPC&#45;PluginGetMetadata0</title>
<path fill="none" stroke="black" d="M1167.22,-229.204C1064.32,-221.582 829.582,-203.146 632.942,-180 623.157,-178.848 612.928,-177.531 602.766,-176.15"/>
<polygon fill="black" stroke="black" points="603.029,-172.653 592.645,-174.752 602.072,-179.588 603.029,-172.653"/>
</g>
<!-- gRPC&#45;PluginGetMetadata1 -->
<g id="node6" class="node"><title>gRPC&#45;PluginGetMetadata1</title>
<ellipse fill="none" stroke="black" cx="749.942" cy="-162" rx="107.781" ry="18"/>
<text text-anchor="middle" x="749.942" y="-158.3" font-family="Times,serif" font-size="14.00">gRPC&#45;PluginGetMetadata1</text>
</g>
<!-- MainThread&#45;&gt;gRPC&#45;PluginGetMetadata1 -->
<g id="edge4" class="edge"><title>MainThread&#45;&gt;gRPC&#45;PluginGetMetadata1</title>
<path fill="none" stroke="black" d="M1170.97,-225.707C1092.1,-213.959 935.825,-190.685 837.445,-176.032"/>
<polygon fill="black" stroke="black" points="837.925,-172.565 827.519,-174.554 836.894,-179.489 837.925,-172.565"/>
</g>
<!-- ConsumerHelper&#45;CallbackRequestsWorker -->
<g id="node7" class="node"><title>ConsumerHelper&#45;CallbackRequestsWorker</title>
<ellipse fill="none" stroke="black" cx="1039.94" cy="-162" rx="164.371" ry="18"/>
<text text-anchor="middle" x="1039.94" y="-158.3" font-family="Times,serif" font-size="14.00">ConsumerHelper&#45;CallbackRequestsWorker</text>
</g>
<!-- MainThread&#45;&gt;ConsumerHelper&#45;CallbackRequestsWorker -->
<g id="edge5" class="edge"><title>MainThread&#45;&gt;ConsumerHelper&#45;CallbackRequestsWorker</title>
<path fill="none" stroke="black" d="M1186.09,-219.834C1159.53,-209.506 1122.11,-194.955 1091.79,-183.162"/>
<polygon fill="black" stroke="black" points="1092.8,-179.801 1082.21,-179.439 1090.26,-186.325 1092.8,-179.801"/>
</g>
<!-- ConsumerHelper&#45;ConsumeBidirectionalStream -->
<g id="node8" class="node"><title>ConsumerHelper&#45;ConsumeBidirectionalStream</title>
<ellipse fill="none" stroke="black" cx="1400.94" cy="-162" rx="178.969" ry="18"/>
<text text-anchor="middle" x="1400.94" y="-158.3" font-family="Times,serif" font-size="14.00">ConsumerHelper&#45;ConsumeBidirectionalStream</text>
</g>
<!-- MainThread&#45;&gt;ConsumerHelper&#45;ConsumeBidirectionalStream -->
<g id="edge6" class="edge"><title>MainThread&#45;&gt;ConsumerHelper&#45;ConsumeBidirectionalStream</title>
<path fill="none" stroke="black" d="M1253.99,-219.834C1280.6,-209.541 1318.06,-195.055 1348.49,-183.284"/>
<polygon fill="black" stroke="black" points="1350.04,-186.438 1358.1,-179.567 1347.52,-179.91 1350.04,-186.438"/>
</g>
<!-- LeaseMaintenance -->
<g id="node9" class="node"><title>LeaseMaintenance</title>
<ellipse fill="none" stroke="black" cx="1674.94" cy="-162" rx="77.1866" ry="18"/>
<text text-anchor="middle" x="1674.94" y="-158.3" font-family="Times,serif" font-size="14.00">LeaseMaintenance</text>
</g>
<!-- MainThread&#45;&gt;LeaseMaintenance -->
<g id="edge7" class="edge"><title>MainThread&#45;&gt;LeaseMaintenance</title>
<path fill="none" stroke="black" d="M1269.91,-226.67C1340.97,-217.475 1475.22,-199.393 1588.94,-180 1595.49,-178.883 1602.31,-177.652 1609.12,-176.379"/>
<polygon fill="black" stroke="black" points="1609.87,-179.798 1619.04,-174.491 1608.57,-172.921 1609.87,-179.798"/>
</g>
<!-- ReproPublish -->
<g id="node11" class="node"><title>ReproPublish</title>
<ellipse fill="none" stroke="black" cx="1828.94" cy="-162" rx="58.4896" ry="18"/>
<text text-anchor="middle" x="1828.94" y="-158.3" font-family="Times,serif" font-size="14.00">ReproPublish</text>
</g>
<!-- MainThread&#45;&gt;ReproPublish -->
<g id="edge8" class="edge"><title>MainThread&#45;&gt;ReproPublish</title>
<path fill="none" stroke="black" d="M1273.66,-230.365C1371.27,-224.994 1584.02,-210.609 1760.94,-180 1766.06,-179.115 1771.35,-178.053 1776.63,-176.898"/>
<polygon fill="black" stroke="black" points="1777.74,-180.233 1786.71,-174.582 1776.18,-173.411 1777.74,-180.233"/>
</g>
<!-- gRPC&#45;PluginGetMetadata5 -->
<g id="node20" class="node"><title>gRPC&#45;PluginGetMetadata5</title>
<ellipse fill="none" stroke="black" cx="2012.94" cy="-162" rx="107.781" ry="18"/>
<text text-anchor="middle" x="2012.94" y="-158.3" font-family="Times,serif" font-size="14.00">gRPC&#45;PluginGetMetadata5</text>
</g>
<!-- MainThread&#45;&gt;gRPC&#45;PluginGetMetadata5 -->
<g id="edge9" class="edge"><title>MainThread&#45;&gt;gRPC&#45;PluginGetMetadata5</title>
<path fill="none" stroke="black" d="M1273.51,-230.006C1387.99,-223.344 1664.88,-205.816 1895.94,-180 1905.99,-178.877 1916.5,-177.557 1926.93,-176.157"/>
<polygon fill="black" stroke="black" points="1927.45,-179.619 1936.88,-174.795 1926.5,-172.684 1927.45,-179.619"/>
</g>
<!-- gRPC&#45;PluginGetMetadata6 -->
<g id="node21" class="node"><title>gRPC&#45;PluginGetMetadata6</title>
<ellipse fill="none" stroke="black" cx="2246.94" cy="-162" rx="107.781" ry="18"/>
<text text-anchor="middle" x="2246.94" y="-158.3" font-family="Times,serif" font-size="14.00">gRPC&#45;PluginGetMetadata6</text>
</g>
<!-- MainThread&#45;&gt;gRPC&#45;PluginGetMetadata6 -->
<g id="edge10" class="edge"><title>MainThread&#45;&gt;gRPC&#45;PluginGetMetadata6</title>
<path fill="none" stroke="black" d="M1274.18,-231.471C1415.43,-227.136 1806.2,-212.886 2129.94,-180 2140.16,-178.963 2150.84,-177.682 2161.43,-176.292"/>
<polygon fill="black" stroke="black" points="2162.09,-179.735 2171.53,-174.93 2161.16,-172.797 2162.09,-179.735"/>
</g>
<!-- gRPC&#45;SpawnDelivery -->
<g id="node4" class="node"><title>gRPC&#45;SpawnDelivery</title>
<ellipse fill="none" stroke="black" cx="296.942" cy="-90" rx="89.0842" ry="18"/>
<text text-anchor="middle" x="296.942" y="-86.3" font-family="Times,serif" font-size="14.00">gRPC&#45;SpawnDelivery</text>
</g>
<!-- gRPC&#45;SubscribeMoot1&#45;&gt;gRPC&#45;SpawnDelivery -->
<g id="edge11" class="edge"><title>gRPC&#45;SubscribeMoot1&#45;&gt;gRPC&#45;SpawnDelivery</title>
<path fill="none" stroke="black" d="M296.942,-143.697C296.942,-135.983 296.942,-126.712 296.942,-118.112"/>
<polygon fill="black" stroke="black" points="300.442,-118.104 296.942,-108.104 293.442,-118.104 300.442,-118.104"/>
</g>
<!-- gRPC&#45;PluginGetMetadata2 -->
<g id="node10" class="node"><title>gRPC&#45;PluginGetMetadata2</title>
<ellipse fill="none" stroke="black" cx="593.942" cy="-90" rx="107.781" ry="18"/>
<text text-anchor="middle" x="593.942" y="-86.3" font-family="Times,serif" font-size="14.00">gRPC&#45;PluginGetMetadata2</text>
</g>
<!-- ConsumerHelper&#45;ConsumeBidirectionalStream&#45;&gt;gRPC&#45;PluginGetMetadata2 -->
<g id="edge12" class="edge"><title>ConsumerHelper&#45;ConsumeBidirectionalStream&#45;&gt;gRPC&#45;PluginGetMetadata2</title>
<path fill="none" stroke="black" d="M1274.56,-149.247C1253.97,-147.426 1232.87,-145.615 1212.94,-144 989.989,-125.927 933.324,-132.098 710.942,-108 700.813,-106.902 690.213,-105.591 679.706,-104.191"/>
<polygon fill="black" stroke="black" points="680.06,-100.707 669.679,-102.825 679.115,-107.643 680.06,-100.707"/>
</g>
<!-- gRPC&#45;StopChannelSpin0 -->
<g id="node12" class="node"><title>gRPC&#45;StopChannelSpin0</title>
<ellipse fill="none" stroke="black" cx="820.942" cy="-90" rx="100.983" ry="18"/>
<text text-anchor="middle" x="820.942" y="-86.3" font-family="Times,serif" font-size="14.00">gRPC&#45;StopChannelSpin0</text>
</g>
<!-- ConsumerHelper&#45;ConsumeBidirectionalStream&#45;&gt;gRPC&#45;StopChannelSpin0 -->
<g id="edge13" class="edge"><title>ConsumerHelper&#45;ConsumeBidirectionalStream&#45;&gt;gRPC&#45;StopChannelSpin0</title>
<path fill="none" stroke="black" d="M1279.27,-148.749C1184.06,-138.815 1048.4,-123.895 929.942,-108 921.09,-106.812 911.846,-105.493 902.647,-104.13"/>
<polygon fill="black" stroke="black" points="903.111,-100.66 892.703,-102.637 902.072,-107.583 903.111,-100.66"/>
</g>
<!-- gRPC&#45;ConsumeRequestIterator0 -->
<g id="node13" class="node"><title>gRPC&#45;ConsumeRequestIterator0</title>
<ellipse fill="none" stroke="black" cx="1065.94" cy="-90" rx="126.978" ry="18"/>
<text text-anchor="middle" x="1065.94" y="-86.3" font-family="Times,serif" font-size="14.00">gRPC&#45;ConsumeRequestIterator0</text>
</g>
<!-- ConsumerHelper&#45;ConsumeBidirectionalStream&#45;&gt;gRPC&#45;ConsumeRequestIterator0 -->
<g id="edge14" class="edge"><title>ConsumerHelper&#45;ConsumeBidirectionalStream&#45;&gt;gRPC&#45;ConsumeRequestIterator0</title>
<path fill="none" stroke="black" d="M1327.01,-145.552C1272.77,-134.219 1199.27,-118.859 1144.07,-107.325"/>
<polygon fill="black" stroke="black" points="1144.49,-103.837 1133.98,-105.218 1143.06,-110.689 1144.49,-103.837"/>
</g>
<!-- gRPC&#45;PluginGetMetadata3 -->
<g id="node14" class="node"><title>gRPC&#45;PluginGetMetadata3</title>
<ellipse fill="none" stroke="black" cx="1318.94" cy="-90" rx="107.781" ry="18"/>
<text text-anchor="middle" x="1318.94" y="-86.3" font-family="Times,serif" font-size="14.00">gRPC&#45;PluginGetMetadata3</text>
</g>
<!-- ConsumerHelper&#45;ConsumeBidirectionalStream&#45;&gt;gRPC&#45;PluginGetMetadata3 -->
<g id="edge15" class="edge"><title>ConsumerHelper&#45;ConsumeBidirectionalStream&#45;&gt;gRPC&#45;PluginGetMetadata3</title>
<path fill="none" stroke="black" d="M1381.09,-144.055C1370.72,-135.199 1357.86,-124.219 1346.53,-114.549"/>
<polygon fill="black" stroke="black" points="1348.49,-111.62 1338.61,-107.789 1343.94,-116.944 1348.49,-111.62"/>
</g>
<!-- gRPC&#45;StopChannelSpin1 -->
<g id="node15" class="node"><title>gRPC&#45;StopChannelSpin1</title>
<ellipse fill="none" stroke="black" cx="1545.94" cy="-90" rx="100.983" ry="18"/>
<text text-anchor="middle" x="1545.94" y="-86.3" font-family="Times,serif" font-size="14.00">gRPC&#45;StopChannelSpin1</text>
</g>
<!-- ConsumerHelper&#45;ConsumeBidirectionalStream&#45;&gt;gRPC&#45;StopChannelSpin1 -->
<g id="edge16" class="edge"><title>ConsumerHelper&#45;ConsumeBidirectionalStream&#45;&gt;gRPC&#45;StopChannelSpin1</title>
<path fill="none" stroke="black" d="M1435.67,-144.233C1455.96,-134.438 1481.73,-122 1503.25,-111.611"/>
<polygon fill="black" stroke="black" points="1505.01,-114.647 1512.49,-107.148 1501.97,-108.344 1505.01,-114.647"/>
</g>
<!-- gRPC&#45;ConsumeRequestIterator1 -->
<g id="node16" class="node"><title>gRPC&#45;ConsumeRequestIterator1</title>
<ellipse fill="none" stroke="black" cx="1790.94" cy="-90" rx="126.978" ry="18"/>
<text text-anchor="middle" x="1790.94" y="-86.3" font-family="Times,serif" font-size="14.00">gRPC&#45;ConsumeRequestIterator1</text>
</g>
<!-- ConsumerHelper&#45;ConsumeBidirectionalStream&#45;&gt;gRPC&#45;ConsumeRequestIterator1 -->
<g id="edge17" class="edge"><title>ConsumerHelper&#45;ConsumeBidirectionalStream&#45;&gt;gRPC&#45;ConsumeRequestIterator1</title>
<path fill="none" stroke="black" d="M1484.61,-145.983C1549.86,-134.272 1640.12,-118.071 1705.76,-106.29"/>
<polygon fill="black" stroke="black" points="1706.44,-109.723 1715.66,-104.512 1705.2,-102.834 1706.44,-109.723"/>
</g>
<!-- ThreadPoolExecutor&#45;SubscriberPolicy_0 -->
<g id="node19" class="node"><title>ThreadPoolExecutor&#45;SubscriberPolicy_0</title>
<ellipse fill="none" stroke="black" cx="2090.94" cy="-90" rx="155.173" ry="18"/>
<text text-anchor="middle" x="2090.94" y="-86.3" font-family="Times,serif" font-size="14.00">ThreadPoolExecutor&#45;SubscriberPolicy_0</text>
</g>
<!-- ConsumerHelper&#45;ConsumeBidirectionalStream&#45;&gt;ThreadPoolExecutor&#45;SubscriberPolicy_0 -->
<g id="edge18" class="edge"><title>ConsumerHelper&#45;ConsumeBidirectionalStream&#45;&gt;ThreadPoolExecutor&#45;SubscriberPolicy_0</title>
<path fill="none" stroke="black" d="M1522.91,-148.81C1629.53,-138.131 1788.5,-122.15 1926.94,-108 1940.58,-106.606 1954.85,-105.14 1969.04,-103.675"/>
<polygon fill="black" stroke="black" points="1969.76,-107.12 1979.35,-102.611 1969.04,-100.157 1969.76,-107.12"/>
</g>
<!-- MonitorBatchPublisher -->
<g id="node17" class="node"><title>MonitorBatchPublisher</title>
<ellipse fill="none" stroke="black" cx="2357.94" cy="-90" rx="93.6835" ry="18"/>
<text text-anchor="middle" x="2357.94" y="-86.3" font-family="Times,serif" font-size="14.00">MonitorBatchPublisher</text>
</g>
<!-- ReproPublish&#45;&gt;MonitorBatchPublisher -->
<g id="edge19" class="edge"><title>ReproPublish&#45;&gt;MonitorBatchPublisher</title>
<path fill="none" stroke="black" d="M1870.91,-149.337C1879.16,-147.332 1887.79,-145.435 1895.94,-144 2053.87,-116.205 2095.98,-129.067 2254.94,-108 2263.49,-106.867 2272.42,-105.568 2281.3,-104.203"/>
<polygon fill="black" stroke="black" points="2281.93,-107.646 2291.27,-102.64 2280.85,-100.731 2281.93,-107.646"/>
</g>
<!-- gRPC&#45;PluginGetMetadata4 -->
<g id="node18" class="node"><title>gRPC&#45;PluginGetMetadata4</title>
<ellipse fill="none" stroke="black" cx="2357.94" cy="-18" rx="107.781" ry="18"/>
<text text-anchor="middle" x="2357.94" y="-14.3" font-family="Times,serif" font-size="14.00">gRPC&#45;PluginGetMetadata4</text>
</g>
<!-- MonitorBatchPublisher&#45;&gt;gRPC&#45;PluginGetMetadata4 -->
<g id="edge20" class="edge"><title>MonitorBatchPublisher&#45;&gt;gRPC&#45;PluginGetMetadata4</title>
<path fill="none" stroke="black" d="M2357.94,-71.6966C2357.94,-63.9827 2357.94,-54.7125 2357.94,-46.1124"/>
<polygon fill="black" stroke="black" points="2361.44,-46.1043 2357.94,-36.1043 2354.44,-46.1044 2361.44,-46.1043"/>
</g>
</g>
</svg>
