<?xml version="1.0" encoding="UTF-8" standalone="no"?>
<!DOCTYPE svg PUBLIC "-//W3C//DTD SVG 1.1//EN"
 "http://www.w3.org/Graphics/SVG/1.1/DTD/svg11.dtd">
<!-- Generated by graphviz version 2.38.0 (20140413.2041)
 -->
<!-- Title: G Pages: 1 -->
<svg width="1701pt" height="291pt"
 viewBox="0.00 0.00 1701.39 291.00" xmlns="http://www.w3.org/2000/svg" xmlns:xlink="http://www.w3.org/1999/xlink">
<g id="graph0" class="graph" transform="scale(1 1) rotate(0) translate(4 287)">
<title>G</title>
<polygon fill="white" stroke="none" points="-4,4 -4,-287 1697.39,-287 1697.39,4 -4,4"/>
<!-- Thread&#45;gRPC&#45;SubscribeMoot -->
<g id="node1" class="node"><title>Thread&#45;gRPC&#45;SubscribeMoot</title>
<ellipse fill="none" stroke="black" cx="160.042" cy="-178" rx="89.0842" ry="18"/>
<text text-anchor="middle" x="160.042" y="-174.3" font-family="Times,serif" font-size="14.00">gRPC&#45;SubscribeMoot</text>
</g>
<!-- Thread&#45;gRPC&#45;SpawnDelivery -->
<g id="node2" class="node"><title>Thread&#45;gRPC&#45;SpawnDelivery</title>
<ellipse fill="none" stroke="black" cx="89.0421" cy="-91" rx="89.0842" ry="18"/>
<text text-anchor="middle" x="89.0421" y="-87.3" font-family="Times,serif" font-size="14.00">gRPC&#45;SpawnDelivery</text>
</g>
<!-- Thread&#45;gRPC&#45;SubscribeMoot&#45;&gt;Thread&#45;gRPC&#45;SpawnDelivery -->
<g id="edge1" class="edge"><title>Thread&#45;gRPC&#45;SubscribeMoot&#45;&gt;Thread&#45;gRPC&#45;SpawnDelivery</title>
<path fill="none" stroke="black" d="M146.015,-160.207C135.677,-147.831 121.448,-130.796 109.797,-116.847"/>
<polygon fill="black" stroke="black" points="112.38,-114.48 103.283,-109.049 107.008,-118.968 112.38,-114.48"/>
</g>
<!-- Thread&#45;ConsumerHelper&#45;ConsumeBidirectionalStream -->
<g id="node3" class="node"><title>Thread&#45;ConsumerHelper&#45;ConsumeBidirectionalStream</title>
<ellipse fill="none" stroke="black" cx="635.042" cy="-178" rx="178.969" ry="18"/>
<text text-anchor="middle" x="635.042" y="-174.3" font-family="Times,serif" font-size="14.00">ConsumerHelper&#45;ConsumeBidirectionalStream</text>
</g>
<!-- Thread&#45;gRPC&#45;PluginGetMetadata++ -->
<g id="node4" class="node"><title>Thread&#45;gRPC&#45;PluginGetMetadata++</title>
<ellipse fill="none" stroke="black" cx="299.042" cy="-91" rx="103.182" ry="18"/>
<text text-anchor="middle" x="299.042" y="-87.3" font-family="Times,serif" font-size="14.00">gRPC&#45;PluginGetMetadata</text>
</g>
<!-- Thread&#45;ConsumerHelper&#45;ConsumeBidirectionalStream&#45;&gt;Thread&#45;gRPC&#45;PluginGetMetadata++ -->
<g id="edge2" class="edge"><title>Thread&#45;ConsumerHelper&#45;ConsumeBidirectionalStream&#45;&gt;Thread&#45;gRPC&#45;PluginGetMetadata++</title>
<path fill="none" stroke="black" d="M572.237,-161.112C513.132,-146.16 424.958,-123.854 364.882,-108.656"/>
<polygon fill="black" stroke="black" points="365.672,-105.246 355.119,-106.186 363.956,-112.032 365.672,-105.246"/>
<text text-anchor="middle" x="491.542" y="-130.8" font-family="Times,serif" font-size="14.00">2</text>
</g>
<!-- Thread&#45;gRPC&#45;StopChannelSpin -->
<g id="node5" class="node"><title>Thread&#45;gRPC&#45;StopChannelSpin</title>
<ellipse fill="none" stroke="black" cx="517.042" cy="-91" rx="96.3833" ry="18"/>
<text text-anchor="middle" x="517.042" y="-87.3" font-family="Times,serif" font-size="14.00">gRPC&#45;StopChannelSpin</text>
</g>
<!-- Thread&#45;ConsumerHelper&#45;ConsumeBidirectionalStream&#45;&gt;Thread&#45;gRPC&#45;StopChannelSpin -->
<g id="edge3" class="edge"><title>Thread&#45;ConsumerHelper&#45;ConsumeBidirectionalStream&#45;&gt;Thread&#45;gRPC&#45;StopChannelSpin</title>
<path fill="none" stroke="black" d="M611.447,-160.003C593.321,-146.947 568.121,-128.794 548.316,-114.528"/>
<polygon fill="black" stroke="black" points="550.354,-111.683 540.195,-108.678 546.263,-117.362 550.354,-111.683"/>
<text text-anchor="middle" x="587.542" y="-130.8" font-family="Times,serif" font-size="14.00">2</text>
</g>
<!-- Thread&#45;gRPC&#45;ConsumeRequestIterator -->
<g id="node6" class="node"><title>Thread&#45;gRPC&#45;ConsumeRequestIterator</title>
<ellipse fill="none" stroke="black" cx="753.042" cy="-91" rx="122.379" ry="18"/>
<text text-anchor="middle" x="753.042" y="-87.3" font-family="Times,serif" font-size="14.00">gRPC&#45;ConsumeRequestIterator</text>
</g>
<!-- Thread&#45;ConsumerHelper&#45;ConsumeBidirectionalStream&#45;&gt;Thread&#45;gRPC&#45;ConsumeRequestIterator -->
<g id="edge4" class="edge"><title>Thread&#45;ConsumerHelper&#45;ConsumeBidirectionalStream&#45;&gt;Thread&#45;gRPC&#45;ConsumeRequestIterator</title>
<path fill="none" stroke="black" d="M658.638,-160.003C676.763,-146.947 701.963,-128.794 721.768,-114.528"/>
<polygon fill="black" stroke="black" points="723.821,-117.362 729.89,-108.678 719.73,-111.683 723.821,-117.362"/>
<text text-anchor="middle" x="705.542" y="-130.8" font-family="Times,serif" font-size="14.00">2</text>
</g>
<!-- ThreadPoolExecutor&#45;SubscriberPolicy -->
<g id="node7" class="node"><title>ThreadPoolExecutor&#45;SubscriberPolicy</title>
<ellipse fill="none" stroke="black" cx="1039.04" cy="-91" rx="146.474" ry="18"/>
<text text-anchor="middle" x="1039.04" y="-87.3" font-family="Times,serif" font-size="14.00">ThreadPoolExecutor&#45;SubscriberPolicy</text>
</g>
<!-- Thread&#45;ConsumerHelper&#45;ConsumeBidirectionalStream&#45;&gt;ThreadPoolExecutor&#45;SubscriberPolicy -->
<g id="edge5" class="edge"><title>Thread&#45;ConsumerHelper&#45;ConsumeBidirectionalStream&#45;&gt;ThreadPoolExecutor&#45;SubscriberPolicy</title>
<path fill="none" stroke="black" d="M708.672,-161.509C779.317,-146.645 885.729,-124.256 958.576,-108.93"/>
<polygon fill="black" stroke="black" points="959.56,-112.3 968.625,-106.816 958.118,-105.449 959.56,-112.3"/>
</g>
<!-- Thread&#45;MonitorBatchPublisher -->
<g id="node8" class="node"><title>Thread&#45;MonitorBatchPublisher</title>
<ellipse fill="none" stroke="black" cx="1297.04" cy="-91" rx="93.6835" ry="18"/>
<text text-anchor="middle" x="1297.04" y="-87.3" font-family="Times,serif" font-size="14.00">MonitorBatchPublisher</text>
</g>
<!-- Thread&#45;gRPC&#45;PluginGetMetadata++++ -->
<g id="node9" class="node"><title>Thread&#45;gRPC&#45;PluginGetMetadata++++</title>
<ellipse fill="none" stroke="black" cx="1297.04" cy="-18" rx="103.182" ry="18"/>
<text text-anchor="middle" x="1297.04" y="-14.3" font-family="Times,serif" font-size="14.00">gRPC&#45;PluginGetMetadata</text>
</g>
<!-- Thread&#45;MonitorBatchPublisher&#45;&gt;Thread&#45;gRPC&#45;PluginGetMetadata++++ -->
<g id="edge6" class="edge"><title>Thread&#45;MonitorBatchPublisher&#45;&gt;Thread&#45;gRPC&#45;PluginGetMetadata++++</title>
<path fill="none" stroke="black" d="M1297.04,-72.8129C1297.04,-64.7895 1297.04,-55.0475 1297.04,-46.0691"/>
<polygon fill="black" stroke="black" points="1300.54,-46.0288 1297.04,-36.0288 1293.54,-46.0289 1300.54,-46.0288"/>
</g>
<!-- Thread&#45;ReproPublish -->
<g id="node10" class="node"><title>Thread&#45;ReproPublish</title>
<ellipse fill="none" stroke="black" cx="890.042" cy="-178" rx="58.4896" ry="18"/>
<text text-anchor="middle" x="890.042" y="-174.3" font-family="Times,serif" font-size="14.00">ReproPublish</text>
</g>
<!-- Thread&#45;ReproPublish&#45;&gt;Thread&#45;MonitorBatchPublisher -->
<g id="edge7" class="edge"><title>Thread&#45;ReproPublish&#45;&gt;Thread&#45;MonitorBatchPublisher</title>
<path fill="none" stroke="black" d="M933.501,-165.812C941.64,-163.809 950.088,-161.791 958.042,-160 1048.6,-139.609 1153.46,-119.04 1222.29,-105.948"/>
<polygon fill="black" stroke="black" points="1223.01,-109.375 1232.18,-104.072 1221.7,-102.498 1223.01,-109.375"/>
</g>
<!-- MainThread -->
<g id="node11" class="node"><title>MainThread</title>
<ellipse fill="none" stroke="black" cx="1025.04" cy="-265" rx="54.6905" ry="18"/>
<text text-anchor="middle" x="1025.04" y="-261.3" font-family="Times,serif" font-size="14.00">MainThread</text>
</g>
<!-- MainThread&#45;&gt;Thread&#45;gRPC&#45;SubscribeMoot -->
<g id="edge8" class="edge"><title>MainThread&#45;&gt;Thread&#45;gRPC&#45;SubscribeMoot</title>
<path fill="none" stroke="black" d="M973.523,-258.937C830.632,-244.896 428.056,-205.337 248.457,-187.688"/>
<polygon fill="black" stroke="black" points="248.547,-184.18 238.253,-186.685 247.863,-191.147 248.547,-184.18"/>
<text text-anchor="middle" x="648.542" y="-217.8" font-family="Times,serif" font-size="14.00">2</text>
</g>
<!-- MainThread&#45;&gt;Thread&#45;ConsumerHelper&#45;ConsumeBidirectionalStream -->
<g id="edge11" class="edge"><title>MainThread&#45;&gt;Thread&#45;ConsumerHelper&#45;ConsumeBidirectionalStream</title>
<path fill="none" stroke="black" d="M980.684,-254.332C916.546,-240.353 796.814,-214.258 716.507,-196.755"/>
<polygon fill="black" stroke="black" points="716.942,-193.268 706.426,-194.558 715.451,-200.107 716.942,-193.268"/>
</g>
<!-- MainThread&#45;&gt;Thread&#45;ReproPublish -->
<g id="edge13" class="edge"><title>MainThread&#45;&gt;Thread&#45;ReproPublish</title>
<path fill="none" stroke="black" d="M1000.91,-248.804C979.292,-235.194 947.389,-215.107 923.349,-199.971"/>
<polygon fill="black" stroke="black" points="925.209,-197.006 914.882,-194.64 921.479,-202.93 925.209,-197.006"/>
</g>
<!-- Thread&#45;gRPC&#45;PluginGetMetadata -->
<g id="node12" class="node"><title>Thread&#45;gRPC&#45;PluginGetMetadata</title>
<ellipse fill="none" stroke="black" cx="1070.04" cy="-178" rx="103.182" ry="18"/>
<text text-anchor="middle" x="1070.04" y="-174.3" font-family="Times,serif" font-size="14.00">gRPC&#45;PluginGetMetadata</text>
</g>
<!-- MainThread&#45;&gt;Thread&#45;gRPC&#45;PluginGetMetadata -->
<g id="edge9" class="edge"><title>MainThread&#45;&gt;Thread&#45;gRPC&#45;PluginGetMetadata</title>
<path fill="none" stroke="black" d="M1033.93,-247.207C1040.3,-235.178 1049,-218.748 1056.26,-205.028"/>
<polygon fill="black" stroke="black" points="1059.43,-206.525 1061.02,-196.049 1053.24,-203.25 1059.43,-206.525"/>
<text text-anchor="middle" x="1054.54" y="-217.8" font-family="Times,serif" font-size="14.00">4</text>
</g>
<!-- Thread&#45;ConsumerHelper&#45;CallbackRequestsWorker -->
<g id="node13" class="node"><title>Thread&#45;ConsumerHelper&#45;CallbackRequestsWorker</title>
<ellipse fill="none" stroke="black" cx="1356.04" cy="-178" rx="164.371" ry="18"/>
<text text-anchor="middle" x="1356.04" y="-174.3" font-family="Times,serif" font-size="14.00">ConsumerHelper&#45;CallbackRequestsWorker</text>
</g>
<!-- MainThread&#45;&gt;Thread&#45;ConsumerHelper&#45;CallbackRequestsWorker -->
<g id="edge10" class="edge"><title>MainThread&#45;&gt;Thread&#45;ConsumerHelper&#45;CallbackRequestsWorker</title>
<path fill="none" stroke="black" d="M1066.63,-253.321C1121.29,-239.283 1218.16,-214.407 1284.66,-197.33"/>
<polygon fill="black" stroke="black" points="1285.84,-200.641 1294.66,-194.764 1284.1,-193.861 1285.84,-200.641"/>
</g>
<!-- Thread&#45;LeaseMaintenance -->
<g id="node14" class="node"><title>Thread&#45;LeaseMaintenance</title>
<ellipse fill="none" stroke="black" cx="1616.04" cy="-178" rx="77.1866" ry="18"/>
<text text-anchor="middle" x="1616.04" y="-174.3" font-family="Times,serif" font-size="14.00">LeaseMaintenance</text>
</g>
<!-- MainThread&#45;&gt;Thread&#45;LeaseMaintenance -->
<g id="edge12" class="edge"><title>MainThread&#45;&gt;Thread&#45;LeaseMaintenance</title>
<path fill="none" stroke="black" d="M1075.62,-258.175C1166.59,-247.477 1363.74,-223.277 1529.04,-196 1535.78,-194.889 1542.79,-193.653 1549.78,-192.368"/>
<polygon fill="black" stroke="black" points="1550.78,-195.74 1559.97,-190.46 1549.5,-188.86 1550.78,-195.74"/>
</g>
</g>
</svg>
