<?xml version="1.0" encoding="UTF-8" standalone="no"?>
<!DOCTYPE svg PUBLIC "-//W3C//DTD SVG 1.1//EN"
 "http://www.w3.org/Graphics/SVG/1.1/DTD/svg11.dtd">
<!-- Generated by graphviz version 2.38.0 (20140413.2041)
 -->
<!-- Title: G Pages: 1 -->
<svg width="1897pt" height="291pt"
 viewBox="0.00 0.00 1897.39 291.00" xmlns="http://www.w3.org/2000/svg" xmlns:xlink="http://www.w3.org/1999/xlink">
<g id="graph0" class="graph" transform="scale(1 1) rotate(0) translate(4 287)">
<title>G</title>
<polygon fill="white" stroke="none" points="-4,4 -4,-287 1893.39,-287 1893.39,4 -4,4"/>
<!-- Thread&#45;gRPC&#45;SubscribeMoot -->
<g id="node1" class="node"><title>Thread&#45;gRPC&#45;SubscribeMoot</title>
<ellipse fill="none" stroke="black" cx="160.042" cy="-178" rx="89.0842" ry="18"/>
<text text-anchor="middle" x="160.042" y="-174.3" font-family="Times,serif" font-size="14.00">gRPC&#45;SubscribeMoot</text>
</g>
<!-- Thread&#45;gRPC&#45;SpawnDelivery -->
<g id="node2" class="node"><title>Thread&#45;gRPC&#45;SpawnDelivery</title>
<ellipse fill="none" stroke="black" cx="89.0421" cy="-91" rx="89.0842" ry="18"/>
<text text-anchor="middle" x="89.0421" y="-87.3" font-family="Times,serif" font-size="14.00">gRPC&#45;SpawnDelivery</text>
</g>
<!-- Thread&#45;gRPC&#45;SubscribeMoot&#45;&gt;Thread&#45;gRPC&#45;SpawnDelivery -->
<g id="edge1" class="edge"><title>Thread&#45;gRPC&#45;SubscribeMoot&#45;&gt;Thread&#45;gRPC&#45;SpawnDelivery</title>
<path fill="none" stroke="black" d="M146.015,-160.207C135.677,-147.831 121.448,-130.796 109.797,-116.847"/>
<polygon fill="black" stroke="black" points="112.38,-114.48 103.283,-109.049 107.008,-118.968 112.38,-114.48"/>
</g>
<!-- Thread&#45;ConsumerHelper&#45;ConsumeBidirectionalStream -->
<g id="node3" class="node"><title>Thread&#45;ConsumerHelper&#45;ConsumeBidirectionalStream</title>
<ellipse fill="none" stroke="black" cx="635.042" cy="-178" rx="178.969" ry="18"/>
<text text-anchor="middle" x="635.042" y="-174.3" font-family="Times,serif" font-size="14.00">ConsumerHelper&#45;ConsumeBidirectionalStream</text>
</g>
<!-- Thread&#45;gRPC&#45;PluginGetMetadata++ -->
<g id="node4" class="node"><title>Thread&#45;gRPC&#45;PluginGetMetadata++</title>
<ellipse fill="none" stroke="black" cx="299.042" cy="-91" rx="103.182" ry="18"/>
<text text-anchor="middle" x="299.042" y="-87.3" font-family="Times,serif" font-size="14.00">gRPC&#45;PluginGetMetadata</text>
</g>
<!-- Thread&#45;ConsumerHelper&#45;ConsumeBidirectionalStream&#45;&gt;Thread&#45;gRPC&#45;PluginGetMetadata++ -->
<g id="edge2" class="edge"><title>Thread&#45;ConsumerHelper&#45;ConsumeBidirectionalStream&#45;&gt;Thread&#45;gRPC&#45;PluginGetMetadata++</title>
<path fill="none" stroke="black" d="M572.237,-161.112C513.132,-146.16 424.958,-123.854 364.882,-108.656"/>
<polygon fill="black" stroke="black" points="365.672,-105.246 355.119,-106.186 363.956,-112.032 365.672,-105.246"/>
<text text-anchor="middle" x="491.542" y="-130.8" font-family="Times,serif" font-size="14.00">2</text>
</g>
<!-- Thread&#45;gRPC&#45;StopChannelSpin -->
<g id="node5" class="node"><title>Thread&#45;gRPC&#45;StopChannelSpin</title>
<ellipse fill="none" stroke="black" cx="517.042" cy="-91" rx="96.3833" ry="18"/>
<text text-anchor="middle" x="517.042" y="-87.3" font-family="Times,serif" font-size="14.00">gRPC&#45;StopChannelSpin</text>
</g>
<!-- Thread&#45;ConsumerHelper&#45;ConsumeBidirectionalStream&#45;&gt;Thread&#45;gRPC&#45;StopChannelSpin -->
<g id="edge3" class="edge"><title>Thread&#45;ConsumerHelper&#45;ConsumeBidirectionalStream&#45;&gt;Thread&#45;gRPC&#45;StopChannelSpin</title>
<path fill="none" stroke="black" d="M611.447,-160.003C593.321,-146.947 568.121,-128.794 548.316,-114.528"/>
<polygon fill="black" stroke="black" points="550.354,-111.683 540.195,-108.678 546.263,-117.362 550.354,-111.683"/>
<text text-anchor="middle" x="587.542" y="-130.8" font-family="Times,serif" font-size="14.00">2</text>
</g>
<!-- Thread&#45;gRPC&#45;ConsumeRequestIterator -->
<g id="node6" class="node"><title>Thread&#45;gRPC&#45;ConsumeRequestIterator</title>
<ellipse fill="none" stroke="black" cx="753.042" cy="-91" rx="122.379" ry="18"/>
<text text-anchor="middle" x="753.042" y="-87.3" font-family="Times,serif" font-size="14.00">gRPC&#45;ConsumeRequestIterator</text>
</g>
<!-- Thread&#45;ConsumerHelper&#45;ConsumeBidirectionalStream&#45;&gt;Thread&#45;gRPC&#45;ConsumeRequestIterator -->
<g id="edge4" class="edge"><title>Thread&#45;ConsumerHelper&#45;ConsumeBidirectionalStream&#45;&gt;Thread&#45;gRPC&#45;ConsumeRequestIterator</title>
<path fill="none" stroke="black" d="M658.638,-160.003C676.763,-146.947 701.963,-128.794 721.768,-114.528"/>
<polygon fill="black" stroke="black" points="723.821,-117.362 729.89,-108.678 719.73,-111.683 723.821,-117.362"/>
<text text-anchor="middle" x="705.542" y="-130.8" font-family="Times,serif" font-size="14.00">2</text>
</g>
<!-- ThreadPoolExecutor&#45;SubscriberPolicy -->
<g id="node7" class="node"><title>ThreadPoolExecutor&#45;SubscriberPolicy</title>
<ellipse fill="none" stroke="black" cx="1039.04" cy="-91" rx="146.474" ry="18"/>
<text text-anchor="middle" x="1039.04" y="-87.3" font-family="Times,serif" font-size="14.00">ThreadPoolExecutor&#45;SubscriberPolicy</text>
</g>
<!-- Thread&#45;ConsumerHelper&#45;ConsumeBidirectionalStream&#45;&gt;ThreadPoolExecutor&#45;SubscriberPolicy -->
<g id="edge5" class="edge"><title>Thread&#45;ConsumerHelper&#45;ConsumeBidirectionalStream&#45;&gt;ThreadPoolExecutor&#45;SubscriberPolicy</title>
<path fill="none" stroke="black" d="M708.672,-161.509C779.317,-146.645 885.729,-124.256 958.576,-108.93"/>
<polygon fill="black" stroke="black" points="959.56,-112.3 968.625,-106.816 958.118,-105.449 959.56,-112.3"/>
</g>
<!-- Thread&#45;MonitorBatchPublisher -->
<g id="node8" class="node"><title>Thread&#45;MonitorBatchPublisher</title>
<ellipse fill="none" stroke="black" cx="1297.04" cy="-91" rx="93.6835" ry="18"/>
<text text-anchor="middle" x="1297.04" y="-87.3" font-family="Times,serif" font-size="14.00">MonitorBatchPublisher</text>
</g>
<!-- Thread&#45;gRPC&#45;PluginGetMetadata++++ -->
<g id="node9" class="node"><title>Thread&#45;gRPC&#45;PluginGetMetadata++++</title>
<ellipse fill="none" stroke="black" cx="1297.04" cy="-18" rx="103.182" ry="18"/>
<text text-anchor="middle" x="1297.04" y="-14.3" font-family="Times,serif" font-size="14.00">gRPC&#45;PluginGetMetadata</text>
</g>
<!-- Thread&#45;MonitorBatchPublisher&#45;&gt;Thread&#45;gRPC&#45;PluginGetMetadata++++ -->
<g id="edge6" class="edge"><title>Thread&#45;MonitorBatchPublisher&#45;&gt;Thread&#45;gRPC&#45;PluginGetMetadata++++</title>
<path fill="none" stroke="black" d="M1297.04,-72.8129C1297.04,-64.7895 1297.04,-55.0475 1297.04,-46.0691"/>
<polygon fill="black" stroke="black" points="1300.54,-46.0288 1297.04,-36.0288 1293.54,-46.0289 1300.54,-46.0288"/>
</g>
<!-- Thread&#45;ReproPublish -->
<g id="node10" class="node"><title>Thread&#45;ReproPublish</title>
<ellipse fill="none" stroke="black" cx="890.042" cy="-178" rx="58.4896" ry="18"/>
<text text-anchor="middle" x="890.042" y="-174.3" font-family="Times,serif" font-size="14.00">ReproPublish</text>
</g>
<!-- Thread&#45;ReproPublish&#45;&gt;Thread&#45;MonitorBatchPublisher -->
<g id="edge7" class="edge"><title>Thread&#45;ReproPublish&#45;&gt;Thread&#45;MonitorBatchPublisher</title>
<path fill="none" stroke="black" d="M933.501,-165.812C941.64,-163.809 950.088,-161.791 958.042,-160 1048.6,-139.609 1153.46,-119.04 1222.29,-105.948"/>
<polygon fill="black" stroke="black" points="1223.01,-109.375 1232.18,-104.072 1221.7,-102.498 1223.01,-109.375"/>
</g>
<!-- MainThread -->
<g id="node11" class="node"><title>MainThread</title>
<ellipse fill="none" stroke="black" cx="1056.04" cy="-265" rx="54.6905" ry="18"/>
<text text-anchor="middle" x="1056.04" y="-261.3" font-family="Times,serif" font-size="14.00">MainThread</text>
</g>
<!-- MainThread&#45;&gt;Thread&#45;gRPC&#45;SubscribeMoot -->
<g id="edge8" class="edge"><title>MainThread&#45;&gt;Thread&#45;gRPC&#45;SubscribeMoot</title>
<path fill="none" stroke="black" d="M1004.32,-259.094C857.033,-245.121 434.051,-204.994 248.774,-187.418"/>
<polygon fill="black" stroke="black" points="249.078,-183.931 238.792,-186.471 248.417,-190.9 249.078,-183.931"/>
</g>
<!-- MainThread&#45;&gt;Thread&#45;ConsumerHelper&#45;ConsumeBidirectionalStream -->
<g id="edge12" class="edge"><title>MainThread&#45;&gt;Thread&#45;ConsumerHelper&#45;ConsumeBidirectionalStream</title>
<path fill="none" stroke="black" d="M1010.59,-254.823C941.491,-240.872 808.814,-214.085 721.103,-196.376"/>
<polygon fill="black" stroke="black" points="721.664,-192.918 711.169,-194.37 720.279,-199.78 721.664,-192.918"/>
</g>
<!-- MainThread&#45;&gt;Thread&#45;ReproPublish -->
<g id="edge14" class="edge"><title>MainThread&#45;&gt;Thread&#45;ReproPublish</title>
<path fill="none" stroke="black" d="M1027.51,-249.388C999.951,-235.279 958.058,-213.827 927.763,-198.315"/>
<polygon fill="black" stroke="black" points="929.258,-195.148 918.762,-193.706 926.067,-201.379 929.258,-195.148"/>
</g>
<!-- Thread&#45;gRPC&#45;SubscribeMoot+ -->
<g id="node12" class="node"><title>Thread&#45;gRPC&#45;SubscribeMoot+</title>
<ellipse fill="none" stroke="black" cx="1056.04" cy="-178" rx="89.0842" ry="18"/>
<text text-anchor="middle" x="1056.04" y="-174.3" font-family="Times,serif" font-size="14.00">gRPC&#45;SubscribeMoot</text>
</g>
<!-- MainThread&#45;&gt;Thread&#45;gRPC&#45;SubscribeMoot+ -->
<g id="edge9" class="edge"><title>MainThread&#45;&gt;Thread&#45;gRPC&#45;SubscribeMoot+</title>
<path fill="none" stroke="black" d="M1056.04,-246.799C1056.04,-235.163 1056.04,-219.548 1056.04,-206.237"/>
<polygon fill="black" stroke="black" points="1059.54,-206.175 1056.04,-196.175 1052.54,-206.175 1059.54,-206.175"/>
</g>
<!-- Thread&#45;gRPC&#45;PluginGetMetadata -->
<g id="node13" class="node"><title>Thread&#45;gRPC&#45;PluginGetMetadata</title>
<ellipse fill="none" stroke="black" cx="1266.04" cy="-178" rx="103.182" ry="18"/>
<text text-anchor="middle" x="1266.04" y="-174.3" font-family="Times,serif" font-size="14.00">gRPC&#45;PluginGetMetadata</text>
</g>
<!-- MainThread&#45;&gt;Thread&#45;gRPC&#45;PluginGetMetadata -->
<g id="edge10" class="edge"><title>MainThread&#45;&gt;Thread&#45;gRPC&#45;PluginGetMetadata</title>
<path fill="none" stroke="black" d="M1089.32,-250.531C1123.86,-236.549 1178.25,-214.537 1217.56,-198.622"/>
<polygon fill="black" stroke="black" points="1219.26,-201.712 1227.22,-194.716 1216.63,-195.223 1219.26,-201.712"/>
<text text-anchor="middle" x="1177.54" y="-217.8" font-family="Times,serif" font-size="14.00">4</text>
</g>
<!-- Thread&#45;ConsumerHelper&#45;CallbackRequestsWorker -->
<g id="node14" class="node"><title>Thread&#45;ConsumerHelper&#45;CallbackRequestsWorker</title>
<ellipse fill="none" stroke="black" cx="1552.04" cy="-178" rx="164.371" ry="18"/>
<text text-anchor="middle" x="1552.04" y="-174.3" font-family="Times,serif" font-size="14.00">ConsumerHelper&#45;CallbackRequestsWorker</text>
</g>
<!-- MainThread&#45;&gt;Thread&#45;ConsumerHelper&#45;CallbackRequestsWorker -->
<g id="edge11" class="edge"><title>MainThread&#45;&gt;Thread&#45;ConsumerHelper&#45;CallbackRequestsWorker</title>
<path fill="none" stroke="black" d="M1103.6,-255.85C1184.87,-241.922 1351.93,-213.294 1457.62,-195.182"/>
<polygon fill="black" stroke="black" points="1458.38,-198.602 1467.65,-193.463 1457.2,-191.702 1458.38,-198.602"/>
</g>
<!-- Thread&#45;LeaseMaintenance -->
<g id="node15" class="node"><title>Thread&#45;LeaseMaintenance</title>
<ellipse fill="none" stroke="black" cx="1812.04" cy="-178" rx="77.1866" ry="18"/>
<text text-anchor="middle" x="1812.04" y="-174.3" font-family="Times,serif" font-size="14.00">LeaseMaintenance</text>
</g>
<!-- MainThread&#45;&gt;Thread&#45;LeaseMaintenance -->
<g id="edge13" class="edge"><title>MainThread&#45;&gt;Thread&#45;LeaseMaintenance</title>
<path fill="none" stroke="black" d="M1109.15,-260.266C1222.62,-251.922 1496.96,-229.802 1725.04,-196 1732.05,-194.961 1739.36,-193.745 1746.63,-192.45"/>
<polygon fill="black" stroke="black" points="1747.27,-195.89 1756.48,-190.644 1746.01,-189.005 1747.27,-195.89"/>
</g>
</g>
</svg>
