<?xml version="1.0" encoding="UTF-8" standalone="no"?>
<!DOCTYPE svg PUBLIC "-//W3C//DTD SVG 1.1//EN"
 "http://www.w3.org/Graphics/SVG/1.1/DTD/svg11.dtd">
<!-- Generated by graphviz version 2.38.0 (20140413.2041)
 -->
<!-- Title: G Pages: 1 -->
<svg width="1097pt" height="395pt"
 viewBox="0.00 0.00 1096.81 395.00" xmlns="http://www.w3.org/2000/svg" xmlns:xlink="http://www.w3.org/1999/xlink">
<g id="graph0" class="graph" transform="scale(1 1) rotate(0) translate(4 391)">
<title>G</title>
<polygon fill="white" stroke="none" points="-4,4 -4,-391 1092.81,-391 1092.81,4 -4,4"/>
<!-- Thread&#45;gRPC&#45;SubscribeMoot -->
<g id="node1" class="node"><title>Thread&#45;gRPC&#45;SubscribeMoot</title>
<ellipse fill="none" stroke="black" cx="330.924" cy="-345" rx="89.0842" ry="18"/>
<text text-anchor="middle" x="330.924" y="-341.3" font-family="Times,serif" font-size="14.00">gRPC&#45;SubscribeMoot</text>
</g>
<!-- Thread&#45;gRPC&#45;SpawnDelivery -->
<g id="node2" class="node"><title>Thread&#45;gRPC&#45;SpawnDelivery</title>
<ellipse fill="none" stroke="black" cx="698.896" cy="-369" rx="89.0842" ry="18"/>
<text text-anchor="middle" x="698.896" y="-365.3" font-family="Times,serif" font-size="14.00">gRPC&#45;SpawnDelivery</text>
</g>
<!-- Thread&#45;gRPC&#45;SubscribeMoot&#45;&gt;Thread&#45;gRPC&#45;SpawnDelivery -->
<g id="edge1" class="edge"><title>Thread&#45;gRPC&#45;SubscribeMoot&#45;&gt;Thread&#45;gRPC&#45;SpawnDelivery</title>
<path fill="none" stroke="black" d="M415.886,-350.506C471.926,-354.181 545.698,-359.019 603.733,-362.825"/>
<polygon fill="black" stroke="black" points="603.801,-366.337 614.009,-363.499 604.259,-359.352 603.801,-366.337"/>
</g>
<!-- Thread&#45;ConsumerHelper&#45;ConsumeBidirectionalStream -->
<g id="node3" class="node"><title>Thread&#45;ConsumerHelper&#45;ConsumeBidirectionalStream</title>
<ellipse fill="none" stroke="black" cx="330.924" cy="-234" rx="178.969" ry="18"/>
<text text-anchor="middle" x="330.924" y="-230.3" font-family="Times,serif" font-size="14.00">ConsumerHelper&#45;ConsumeBidirectionalStream</text>
</g>
<!-- Thread&#45;gRPC&#45;PluginGetMetadata++ -->
<g id="node4" class="node"><title>Thread&#45;gRPC&#45;PluginGetMetadata++</title>
<ellipse fill="none" stroke="black" cx="698.896" cy="-315" rx="103.182" ry="18"/>
<text text-anchor="middle" x="698.896" y="-311.3" font-family="Times,serif" font-size="14.00">gRPC&#45;PluginGetMetadata</text>
</g>
<!-- Thread&#45;ConsumerHelper&#45;ConsumeBidirectionalStream&#45;&gt;Thread&#45;gRPC&#45;PluginGetMetadata++ -->
<g id="edge2" class="edge"><title>Thread&#45;ConsumerHelper&#45;ConsumeBidirectionalStream&#45;&gt;Thread&#45;gRPC&#45;PluginGetMetadata++</title>
<path fill="none" stroke="black" d="M396.417,-250.789C440.317,-261.968 499.818,-276.634 552.659,-288 572.913,-292.357 594.847,-296.652 615.383,-300.492"/>
<polygon fill="black" stroke="black" points="614.868,-303.956 625.338,-302.338 616.144,-297.073 614.868,-303.956"/>
<text text-anchor="middle" x="531.159" y="-287.8" font-family="Times,serif" font-size="14.00">2</text>
</g>
<!-- Thread&#45;gRPC&#45;StopChannelSpin -->
<g id="node5" class="node"><title>Thread&#45;gRPC&#45;StopChannelSpin</title>
<ellipse fill="none" stroke="black" cx="698.896" cy="-261" rx="96.3833" ry="18"/>
<text text-anchor="middle" x="698.896" y="-257.3" font-family="Times,serif" font-size="14.00">gRPC&#45;StopChannelSpin</text>
</g>
<!-- Thread&#45;ConsumerHelper&#45;ConsumeBidirectionalStream&#45;&gt;Thread&#45;gRPC&#45;StopChannelSpin -->
<g id="edge3" class="edge"><title>Thread&#45;ConsumerHelper&#45;ConsumeBidirectionalStream&#45;&gt;Thread&#45;gRPC&#45;StopChannelSpin</title>
<path fill="none" stroke="black" d="M475.516,-244.594C516.876,-247.645 561.056,-250.904 599.049,-253.707"/>
<polygon fill="black" stroke="black" points="598.849,-257.202 609.08,-254.447 599.364,-250.221 598.849,-257.202"/>
<text text-anchor="middle" x="531.159" y="-251.8" font-family="Times,serif" font-size="14.00">2</text>
</g>
<!-- Thread&#45;gRPC&#45;ConsumeRequestIterator -->
<g id="node6" class="node"><title>Thread&#45;gRPC&#45;ConsumeRequestIterator</title>
<ellipse fill="none" stroke="black" cx="698.896" cy="-207" rx="122.379" ry="18"/>
<text text-anchor="middle" x="698.896" y="-203.3" font-family="Times,serif" font-size="14.00">gRPC&#45;ConsumeRequestIterator</text>
</g>
<!-- Thread&#45;ConsumerHelper&#45;ConsumeBidirectionalStream&#45;&gt;Thread&#45;gRPC&#45;ConsumeRequestIterator -->
<g id="edge4" class="edge"><title>Thread&#45;ConsumerHelper&#45;ConsumeBidirectionalStream&#45;&gt;Thread&#45;gRPC&#45;ConsumeRequestIterator</title>
<path fill="none" stroke="black" d="M475.516,-223.406C509.815,-220.876 546.053,-218.202 579.094,-215.765"/>
<polygon fill="black" stroke="black" points="579.524,-219.243 589.24,-215.016 579.009,-212.262 579.524,-219.243"/>
<text text-anchor="middle" x="531.159" y="-222.8" font-family="Times,serif" font-size="14.00">2</text>
</g>
<!-- ThreadPoolExecutor&#45;SubscriberPolicy -->
<g id="node7" class="node"><title>ThreadPoolExecutor&#45;SubscriberPolicy</title>
<ellipse fill="none" stroke="black" cx="698.896" cy="-153" rx="146.474" ry="18"/>
<text text-anchor="middle" x="698.896" y="-149.3" font-family="Times,serif" font-size="14.00">ThreadPoolExecutor&#45;SubscriberPolicy</text>
</g>
<!-- Thread&#45;ConsumerHelper&#45;ConsumeBidirectionalStream&#45;&gt;ThreadPoolExecutor&#45;SubscriberPolicy -->
<g id="edge5" class="edge"><title>Thread&#45;ConsumerHelper&#45;ConsumeBidirectionalStream&#45;&gt;ThreadPoolExecutor&#45;SubscriberPolicy</title>
<path fill="none" stroke="black" d="M458.339,-221.358C475.87,-217.719 493.421,-213.033 509.659,-207 530.812,-199.141 531.638,-188.208 552.659,-180 564.158,-175.51 576.467,-171.754 588.875,-168.615"/>
<polygon fill="black" stroke="black" points="589.926,-171.962 598.834,-166.227 588.294,-165.155 589.926,-171.962"/>
</g>
<!-- Thread&#45;MonitorBatchPublisher -->
<g id="node8" class="node"><title>Thread&#45;MonitorBatchPublisher</title>
<ellipse fill="none" stroke="black" cx="698.896" cy="-99" rx="93.6835" ry="18"/>
<text text-anchor="middle" x="698.896" y="-95.3" font-family="Times,serif" font-size="14.00">MonitorBatchPublisher</text>
</g>
<!-- Thread&#45;gRPC&#45;PluginGetMetadata++++ -->
<g id="node9" class="node"><title>Thread&#45;gRPC&#45;PluginGetMetadata++++</title>
<ellipse fill="none" stroke="black" cx="985.473" cy="-99" rx="103.182" ry="18"/>
<text text-anchor="middle" x="985.473" y="-95.3" font-family="Times,serif" font-size="14.00">gRPC&#45;PluginGetMetadata</text>
</g>
<!-- Thread&#45;MonitorBatchPublisher&#45;&gt;Thread&#45;gRPC&#45;PluginGetMetadata++++ -->
<g id="edge6" class="edge"><title>Thread&#45;MonitorBatchPublisher&#45;&gt;Thread&#45;gRPC&#45;PluginGetMetadata++++</title>
<path fill="none" stroke="black" d="M792.683,-99C817.885,-99 845.453,-99 871.631,-99"/>
<polygon fill="black" stroke="black" points="871.973,-102.5 881.973,-99 871.973,-95.5001 871.973,-102.5"/>
</g>
<!-- Thread&#45;ReproPublish -->
<g id="node10" class="node"><title>Thread&#45;ReproPublish</title>
<ellipse fill="none" stroke="black" cx="330.924" cy="-180" rx="58.4896" ry="18"/>
<text text-anchor="middle" x="330.924" y="-176.3" font-family="Times,serif" font-size="14.00">ReproPublish</text>
</g>
<!-- Thread&#45;ReproPublish&#45;&gt;Thread&#45;MonitorBatchPublisher -->
<g id="edge7" class="edge"><title>Thread&#45;ReproPublish&#45;&gt;Thread&#45;MonitorBatchPublisher</title>
<path fill="none" stroke="black" d="M389.042,-177.267C424.644,-174.129 470.893,-167.402 509.659,-153 530.812,-145.141 531.638,-134.208 552.659,-126 570.175,-119.161 589.573,-114.024 608.336,-110.176"/>
<polygon fill="black" stroke="black" points="609.228,-113.568 618.376,-108.224 607.892,-106.697 609.228,-113.568"/>
</g>
<!-- MainThread -->
<g id="node11" class="node"><title>MainThread</title>
<ellipse fill="none" stroke="black" cx="54.5952" cy="-147" rx="54.6905" ry="18"/>
<text text-anchor="middle" x="54.5952" y="-143.3" font-family="Times,serif" font-size="14.00">MainThread</text>
</g>
<!-- MainThread&#45;&gt;Thread&#45;gRPC&#45;SubscribeMoot -->
<g id="edge8" class="edge"><title>MainThread&#45;&gt;Thread&#45;gRPC&#45;SubscribeMoot</title>
<path fill="none" stroke="black" d="M67.1086,-164.881C83.5343,-189.248 115.768,-233.042 152.19,-261 189.344,-289.52 237.74,-311.602 274.648,-325.952"/>
<polygon fill="black" stroke="black" points="273.661,-329.321 284.251,-329.613 276.154,-322.781 273.661,-329.321"/>
<text text-anchor="middle" x="130.69" y="-248.8" font-family="Times,serif" font-size="14.00">2</text>
</g>
<!-- MainThread&#45;&gt;Thread&#45;ConsumerHelper&#45;ConsumeBidirectionalStream -->
<g id="edge11" class="edge"><title>MainThread&#45;&gt;Thread&#45;ConsumerHelper&#45;ConsumeBidirectionalStream</title>
<path fill="none" stroke="black" d="M76.5286,-163.521C95.2614,-177.412 124.036,-196.618 152.19,-207 165.395,-211.869 179.463,-215.861 193.679,-219.133"/>
<polygon fill="black" stroke="black" points="193.02,-222.572 203.537,-221.286 194.513,-215.733 193.02,-222.572"/>
</g>
<!-- MainThread&#45;&gt;Thread&#45;ReproPublish -->
<g id="edge13" class="edge"><title>MainThread&#45;&gt;Thread&#45;ReproPublish</title>
<path fill="none" stroke="black" d="M106.231,-153.091C151.326,-158.516 217.511,-166.477 266.194,-172.334"/>
<polygon fill="black" stroke="black" points="265.957,-175.83 276.303,-173.55 266.793,-168.88 265.957,-175.83"/>
</g>
<!-- Thread&#45;gRPC&#45;PluginGetMetadata -->
<g id="node12" class="node"><title>Thread&#45;gRPC&#45;PluginGetMetadata</title>
<ellipse fill="none" stroke="black" cx="330.924" cy="-126" rx="103.182" ry="18"/>
<text text-anchor="middle" x="330.924" y="-122.3" font-family="Times,serif" font-size="14.00">gRPC&#45;PluginGetMetadata</text>
</g>
<!-- MainThread&#45;&gt;Thread&#45;gRPC&#45;PluginGetMetadata -->
<g id="edge9" class="edge"><title>MainThread&#45;&gt;Thread&#45;gRPC&#45;PluginGetMetadata</title>
<path fill="none" stroke="black" d="M106.411,-141.022C113.387,-140.289 120.462,-139.591 127.19,-139 157.888,-136.302 191.247,-133.932 221.875,-131.979"/>
<polygon fill="black" stroke="black" points="222.389,-135.454 232.149,-131.333 221.949,-128.468 222.389,-135.454"/>
<text text-anchor="middle" x="130.69" y="-142.8" font-family="Times,serif" font-size="14.00">4</text>
</g>
<!-- Thread&#45;ConsumerHelper&#45;CallbackRequestsWorker -->
<g id="node13" class="node"><title>Thread&#45;ConsumerHelper&#45;CallbackRequestsWorker</title>
<ellipse fill="none" stroke="black" cx="330.924" cy="-72" rx="164.371" ry="18"/>
<text text-anchor="middle" x="330.924" y="-68.3" font-family="Times,serif" font-size="14.00">ConsumerHelper&#45;CallbackRequestsWorker</text>
</g>
<!-- MainThread&#45;&gt;Thread&#45;ConsumerHelper&#45;CallbackRequestsWorker -->
<g id="edge10" class="edge"><title>MainThread&#45;&gt;Thread&#45;ConsumerHelper&#45;CallbackRequestsWorker</title>
<path fill="none" stroke="black" d="M81.7221,-131.229C100.646,-120.512 127.191,-106.897 152.19,-99 168.237,-93.9311 185.408,-89.7996 202.519,-86.4356"/>
<polygon fill="black" stroke="black" points="203.397,-89.8318 212.577,-84.5424 202.103,-82.9526 203.397,-89.8318"/>
</g>
<!-- Thread&#45;LeaseMaintenance -->
<g id="node14" class="node"><title>Thread&#45;LeaseMaintenance</title>
<ellipse fill="none" stroke="black" cx="330.924" cy="-18" rx="77.1866" ry="18"/>
<text text-anchor="middle" x="330.924" y="-14.3" font-family="Times,serif" font-size="14.00">LeaseMaintenance</text>
</g>
<!-- MainThread&#45;&gt;Thread&#45;LeaseMaintenance -->
<g id="edge12" class="edge"><title>MainThread&#45;&gt;Thread&#45;LeaseMaintenance</title>
<path fill="none" stroke="black" d="M66.8542,-129.169C82.7588,-105.639 114.15,-64.8857 152.19,-45 179.898,-30.5156 213.137,-23.2326 243.335,-19.7331"/>
<polygon fill="black" stroke="black" points="243.861,-23.1974 253.447,-18.6863 243.14,-16.2346 243.861,-23.1974"/>
</g>
</g>
</svg>
