<?xml version="1.0" encoding="UTF-8" standalone="no"?>
<!DOCTYPE svg PUBLIC "-//W3C//DTD SVG 1.1//EN"
 "http://www.w3.org/Graphics/SVG/1.1/DTD/svg11.dtd">
<!-- Generated by graphviz version 2.38.0 (20140413.2041)
 -->
<!-- Title: %3 Pages: 1 -->
<svg width="2442pt" height="260pt"
 viewBox="0.00 0.00 2441.83 260.00" xmlns="http://www.w3.org/2000/svg" xmlns:xlink="http://www.w3.org/1999/xlink">
<g id="graph0" class="graph" transform="scale(1 1) rotate(0) translate(4 256)">
<title>%3</title>
<polygon fill="white" stroke="none" points="-4,4 -4,-256 2437.83,-256 2437.83,4 -4,4"/>
<!-- MainThread -->
<g id="node1" class="node"><title>MainThread</title>
<ellipse fill="none" stroke="black" cx="1219.94" cy="-234" rx="54.6905" ry="18"/>
<text text-anchor="middle" x="1219.94" y="-230.3" font-family="Times,serif" font-size="14.00">MainThread</text>
</g>
<!-- gRPC&#45;SubscribeMoot0 -->
<g id="node2" class="node"><title>gRPC&#45;SubscribeMoot0</title>
<ellipse fill="none" stroke="black" cx="92.9418" cy="-162" rx="92.8835" ry="18"/>
<text text-anchor="middle" x="92.9418" y="-158.3" font-family="Times,serif" font-size="14.00">gRPC&#45;SubscribeMoot0</text>
</g>
<!-- MainThread&#45;&gt;gRPC&#45;SubscribeMoot0 -->
<g id="edge1" class="edge"><title>MainThread&#45;&gt;gRPC&#45;SubscribeMoot0</title>
<path fill="none" stroke="black" d="M1165.32,-232.355C1011.92,-230.073 564.285,-220.196 194.942,-180 186.189,-179.047 177.046,-177.836 167.984,-176.5"/>
<polygon fill="black" stroke="black" points="168.227,-172.996 157.813,-174.945 167.169,-179.916 168.227,-172.996"/>
</g>
<!-- gRPC&#45;SubscribeMoot1 -->
<g id="node3" class="node"><title>gRPC&#45;SubscribeMoot1</title>
<ellipse fill="none" stroke="black" cx="296.942" cy="-162" rx="92.8835" ry="18"/>
<text text-anchor="middle" x="296.942" y="-158.3" font-family="Times,serif" font-size="14.00">gRPC&#45;SubscribeMoot1</text>
</g>
<!-- MainThread&#45;&gt;gRPC&#45;SubscribeMoot1 -->
<g id="edge2" class="edge"><title>MainThread&#45;&gt;gRPC&#45;SubscribeMoot1</title>
<path fill="none" stroke="black" d="M1165.49,-231.381C1033.6,-227.045 686.626,-213.174 398.942,-180 390.26,-178.999 381.192,-177.764 372.198,-176.42"/>
<polygon fill="black" stroke="black" points="372.517,-172.928 362.1,-174.863 371.45,-179.846 372.517,-172.928"/>
</g>
<!-- gRPC&#45;PluginGetMetadata0 -->
<g id="node4" class="node"><title>gRPC&#45;PluginGetMetadata0</title>
<ellipse fill="none" stroke="black" cx="515.942" cy="-162" rx="107.781" ry="18"/>
<text text-anchor="middle" x="515.942" y="-158.3" font-family="Times,serif" font-size="14.00">gRPC&#45;PluginGetMetadata0</text>
</g>
<!-- MainThread&#45;&gt;gRPC&#45;PluginGetMetadata0 -->
<g id="edge3" class="edge"><title>MainThread&#45;&gt;gRPC&#45;PluginGetMetadata0</title>
<path fill="none" stroke="black" d="M1167.22,-229.204C1064.32,-221.582 829.582,-203.146 632.942,-180 623.157,-178.848 612.928,-177.531 602.766,-176.15"/>
<polygon fill="black" stroke="black" points="603.029,-172.653 592.645,-174.752 602.072,-179.588 603.029,-172.653"/>
</g>
<!-- gRPC&#45;PluginGetMetadata1 -->
<g id="node5" class="node"><title>gRPC&#45;PluginGetMetadata1</title>
<ellipse fill="none" stroke="black" cx="749.942" cy="-162" rx="107.781" ry="18"/>
<text text-anchor="middle" x="749.942" y="-158.3" font-family="Times,serif" font-size="14.00">gRPC&#45;PluginGetMetadata1</text>
</g>
<!-- MainThread&#45;&gt;gRPC&#45;PluginGetMetadata1 -->
<g id="edge4" class="edge"><title>MainThread&#45;&gt;gRPC&#45;PluginGetMetadata1</title>
<path fill="none" stroke="black" d="M1170.97,-225.707C1092.1,-213.959 935.825,-190.685 837.445,-176.032"/>
<polygon fill="black" stroke="black" points="837.925,-172.565 827.519,-174.554 836.894,-179.489 837.925,-172.565"/>
</g>
<!-- ConsumerHelper&#45;CallbackRequestsWorker -->
<g id="node6" class="node"><title>ConsumerHelper&#45;CallbackRequestsWorker</title>
<ellipse fill="none" stroke="black" cx="1039.94" cy="-162" rx="164.371" ry="18"/>
<text text-anchor="middle" x="1039.94" y="-158.3" font-family="Times,serif" font-size="14.00">ConsumerHelper&#45;CallbackRequestsWorker</text>
</g>
<!-- MainThread&#45;&gt;ConsumerHelper&#45;CallbackRequestsWorker -->
<g id="edge5" class="edge"><title>MainThread&#45;&gt;ConsumerHelper&#45;CallbackRequestsWorker</title>
<path fill="none" stroke="black" d="M1186.09,-219.834C1159.53,-209.506 1122.11,-194.955 1091.79,-183.162"/>
<polygon fill="black" stroke="black" points="1092.8,-179.801 1082.21,-179.439 1090.26,-186.325 1092.8,-179.801"/>
</g>
<!-- ConsumerHelper&#45;ConsumeBidirectionalStream -->
<g id="node7" class="node"><title>ConsumerHelper&#45;ConsumeBidirectionalStream</title>
<ellipse fill="none" stroke="black" cx="1400.94" cy="-162" rx="178.969" ry="18"/>
<text text-anchor="middle" x="1400.94" y="-158.3" font-family="Times,serif" font-size="14.00">ConsumerHelper&#45;ConsumeBidirectionalStream</text>
</g>
<!-- MainThread&#45;&gt;ConsumerHelper&#45;ConsumeBidirectionalStream -->
<g id="edge6" class="edge"><title>MainThread&#45;&gt;ConsumerHelper&#45;ConsumeBidirectionalStream</title>
<path fill="none" stroke="black" d="M1253.99,-219.834C1280.6,-209.541 1318.06,-195.055 1348.49,-183.284"/>
<polygon fill="black" stroke="black" points="1350.04,-186.438 1358.1,-179.567 1347.52,-179.91 1350.04,-186.438"/>
</g>
<!-- LeaseMaintenance -->
<g id="node8" class="node"><title>LeaseMaintenance</title>
<ellipse fill="none" stroke="black" cx="1674.94" cy="-162" rx="77.1866" ry="18"/>
<text text-anchor="middle" x="1674.94" y="-158.3" font-family="Times,serif" font-size="14.00">LeaseMaintenance</text>
</g>
<!-- MainThread&#45;&gt;LeaseMaintenance -->
<g id="edge7" class="edge"><title>MainThread&#45;&gt;LeaseMaintenance</title>
<path fill="none" stroke="black" d="M1269.91,-226.67C1340.97,-217.475 1475.22,-199.393 1588.94,-180 1595.49,-178.883 1602.31,-177.652 1609.12,-176.379"/>
<polygon fill="black" stroke="black" points="1609.87,-179.798 1619.04,-174.491 1608.57,-172.921 1609.87,-179.798"/>
</g>
<!-- ReproPublish -->
<g id="node9" class="node"><title>ReproPublish</title>
<ellipse fill="none" stroke="black" cx="1828.94" cy="-162" rx="58.4896" ry="18"/>
<text text-anchor="middle" x="1828.94" y="-158.3" font-family="Times,serif" font-size="14.00">ReproPublish</text>
</g>
<!-- MainThread&#45;&gt;ReproPublish -->
<g id="edge8" class="edge"><title>MainThread&#45;&gt;ReproPublish</title>
<path fill="none" stroke="black" d="M1273.66,-230.365C1371.27,-224.994 1584.02,-210.609 1760.94,-180 1766.06,-179.115 1771.35,-178.053 1776.63,-176.898"/>
<polygon fill="black" stroke="black" points="1777.74,-180.233 1786.71,-174.582 1776.18,-173.411 1777.74,-180.233"/>
</g>
<!-- gRPC&#45;PluginGetMetadata5 -->
<g id="node19" class="node"><title>gRPC&#45;PluginGetMetadata5</title>
<ellipse fill="none" stroke="black" cx="2012.94" cy="-162" rx="107.781" ry="18"/>
<text text-anchor="middle" x="2012.94" y="-158.3" font-family="Times,serif" font-size="14.00">gRPC&#45;PluginGetMetadata5</text>
</g>
<!-- MainThread&#45;&gt;gRPC&#45;PluginGetMetadata5 -->
<g id="edge9" class="edge"><title>MainThread&#45;&gt;gRPC&#45;PluginGetMetadata5</title>
<path fill="none" stroke="black" d="M1273.51,-230.006C1387.99,-223.344 1664.88,-205.816 1895.94,-180 1905.99,-178.877 1916.5,-177.557 1926.93,-176.157"/>
<polygon fill="black" stroke="black" points="1927.45,-179.619 1936.88,-174.795 1926.5,-172.684 1927.45,-179.619"/>
</g>
<!-- gRPC&#45;PluginGetMetadata6 -->
<g id="node20" class="node"><title>gRPC&#45;PluginGetMetadata6</title>
<ellipse fill="none" stroke="black" cx="2246.94" cy="-162" rx="107.781" ry="18"/>
<text text-anchor="middle" x="2246.94" y="-158.3" font-family="Times,serif" font-size="14.00">gRPC&#45;PluginGetMetadata6</text>
</g>
<!-- MainThread&#45;&gt;gRPC&#45;PluginGetMetadata6 -->
<g id="edge10" class="edge"><title>MainThread&#45;&gt;gRPC&#45;PluginGetMetadata6</title>
<path fill="none" stroke="black" d="M1274.18,-231.471C1415.43,-227.136 1806.2,-212.886 2129.94,-180 2140.16,-178.963 2150.84,-177.682 2161.43,-176.292"/>
<polygon fill="black" stroke="black" points="2162.09,-179.735 2171.53,-174.93 2161.16,-172.797 2162.09,-179.735"/>
</g>
<!-- gRPC&#45;PluginGetMetadata2 -->
<g id="node10" class="node"><title>gRPC&#45;PluginGetMetadata2</title>
<ellipse fill="none" stroke="black" cx="561.942" cy="-90" rx="107.781" ry="18"/>
<text text-anchor="middle" x="561.942" y="-86.3" font-family="Times,serif" font-size="14.00">gRPC&#45;PluginGetMetadata2</text>
</g>
<!-- ConsumerHelper&#45;ConsumeBidirectionalStream&#45;&gt;gRPC&#45;PluginGetMetadata2 -->
<g id="edge11" class="edge"><title>ConsumerHelper&#45;ConsumeBidirectionalStream&#45;&gt;gRPC&#45;PluginGetMetadata2</title>
<path fill="none" stroke="black" d="M1275.07,-149.218C1254.32,-147.39 1233.03,-145.585 1212.94,-144 975.807,-125.288 915.484,-133.12 678.942,-108 668.81,-106.924 658.209,-105.626 647.701,-104.233"/>
<polygon fill="black" stroke="black" points="648.054,-100.749 637.674,-102.872 647.112,-107.685 648.054,-100.749"/>
</g>
<!-- gRPC&#45;StopChannelSpin0 -->
<g id="node11" class="node"><title>gRPC&#45;StopChannelSpin0</title>
<ellipse fill="none" stroke="black" cx="788.942" cy="-90" rx="100.983" ry="18"/>
<text text-anchor="middle" x="788.942" y="-86.3" font-family="Times,serif" font-size="14.00">gRPC&#45;StopChannelSpin0</text>
</g>
<!-- ConsumerHelper&#45;ConsumeBidirectionalStream&#45;&gt;gRPC&#45;StopChannelSpin0 -->
<g id="edge12" class="edge"><title>ConsumerHelper&#45;ConsumeBidirectionalStream&#45;&gt;gRPC&#45;StopChannelSpin0</title>
<path fill="none" stroke="black" d="M1273.6,-149.348C1171.79,-139.606 1025.5,-124.657 897.942,-108 889.086,-106.844 879.839,-105.544 870.638,-104.193"/>
<polygon fill="black" stroke="black" points="871.1,-100.723 860.693,-102.71 870.067,-107.646 871.1,-100.723"/>
</g>
<!-- gRPC&#45;ConsumeRequestIterator0 -->
<g id="node12" class="node"><title>gRPC&#45;ConsumeRequestIterator0</title>
<ellipse fill="none" stroke="black" cx="1033.94" cy="-90" rx="126.978" ry="18"/>
<text text-anchor="middle" x="1033.94" y="-86.3" font-family="Times,serif" font-size="14.00">gRPC&#45;ConsumeRequestIterator0</text>
</g>
<!-- ConsumerHelper&#45;ConsumeBidirectionalStream&#45;&gt;gRPC&#45;ConsumeRequestIterator0 -->
<g id="edge13" class="edge"><title>ConsumerHelper&#45;ConsumeBidirectionalStream&#45;&gt;gRPC&#45;ConsumeRequestIterator0</title>
<path fill="none" stroke="black" d="M1321.31,-145.811C1260.7,-134.251 1177.55,-118.391 1116.28,-106.706"/>
<polygon fill="black" stroke="black" points="1116.74,-103.23 1106.26,-104.794 1115.43,-110.106 1116.74,-103.23"/>
</g>
<!-- gRPC&#45;PluginGetMetadata3 -->
<g id="node13" class="node"><title>gRPC&#45;PluginGetMetadata3</title>
<ellipse fill="none" stroke="black" cx="1286.94" cy="-90" rx="107.781" ry="18"/>
<text text-anchor="middle" x="1286.94" y="-86.3" font-family="Times,serif" font-size="14.00">gRPC&#45;PluginGetMetadata3</text>
</g>
<!-- ConsumerHelper&#45;ConsumeBidirectionalStream&#45;&gt;gRPC&#45;PluginGetMetadata3 -->
<g id="edge14" class="edge"><title>ConsumerHelper&#45;ConsumeBidirectionalStream&#45;&gt;gRPC&#45;PluginGetMetadata3</title>
<path fill="none" stroke="black" d="M1373.35,-144.055C1358.11,-134.701 1339.02,-122.977 1322.66,-112.93"/>
<polygon fill="black" stroke="black" points="1324.24,-109.798 1313.89,-107.547 1320.58,-115.763 1324.24,-109.798"/>
</g>
<!-- gRPC&#45;StopChannelSpin1 -->
<g id="node14" class="node"><title>gRPC&#45;StopChannelSpin1</title>
<ellipse fill="none" stroke="black" cx="1513.94" cy="-90" rx="100.983" ry="18"/>
<text text-anchor="middle" x="1513.94" y="-86.3" font-family="Times,serif" font-size="14.00">gRPC&#45;StopChannelSpin1</text>
</g>
<!-- ConsumerHelper&#45;ConsumeBidirectionalStream&#45;&gt;gRPC&#45;StopChannelSpin1 -->
<g id="edge15" class="edge"><title>ConsumerHelper&#45;ConsumeBidirectionalStream&#45;&gt;gRPC&#45;StopChannelSpin1</title>
<path fill="none" stroke="black" d="M1428.3,-144.055C1443.4,-134.701 1462.32,-122.977 1478.54,-112.93"/>
<polygon fill="black" stroke="black" points="1480.57,-115.789 1487.23,-107.547 1476.89,-109.838 1480.57,-115.789"/>
</g>
<!-- gRPC&#45;ConsumeRequestIterator1 -->
<g id="node15" class="node"><title>gRPC&#45;ConsumeRequestIterator1</title>
<ellipse fill="none" stroke="black" cx="1758.94" cy="-90" rx="126.978" ry="18"/>
<text text-anchor="middle" x="1758.94" y="-86.3" font-family="Times,serif" font-size="14.00">gRPC&#45;ConsumeRequestIterator1</text>
</g>
<!-- ConsumerHelper&#45;ConsumeBidirectionalStream&#45;&gt;gRPC&#45;ConsumeRequestIterator1 -->
<g id="edge16" class="edge"><title>ConsumerHelper&#45;ConsumeBidirectionalStream&#45;&gt;gRPC&#45;ConsumeRequestIterator1</title>
<path fill="none" stroke="black" d="M1479.06,-145.725C1537.8,-134.24 1618.05,-118.549 1677.56,-106.913"/>
<polygon fill="black" stroke="black" points="1678.53,-110.289 1687.67,-104.935 1677.19,-103.419 1678.53,-110.289"/>
</g>
<!-- ThreadPoolExecutor&#45;SubscriberPolicy_0 -->
<g id="node18" class="node"><title>ThreadPoolExecutor&#45;SubscriberPolicy_0</title>
<ellipse fill="none" stroke="black" cx="2058.94" cy="-90" rx="155.173" ry="18"/>
<text text-anchor="middle" x="2058.94" y="-86.3" font-family="Times,serif" font-size="14.00">ThreadPoolExecutor&#45;SubscriberPolicy_0</text>
</g>
<!-- ConsumerHelper&#45;ConsumeBidirectionalStream&#45;&gt;ThreadPoolExecutor&#45;SubscriberPolicy_0 -->
<g id="edge17" class="edge"><title>ConsumerHelper&#45;ConsumeBidirectionalStream&#45;&gt;ThreadPoolExecutor&#45;SubscriberPolicy_0</title>
<path fill="none" stroke="black" d="M1518.96,-148.445C1637.46,-135.839 1819.12,-116.513 1938.48,-103.816"/>
<polygon fill="black" stroke="black" points="1939.18,-107.261 1948.75,-102.723 1938.44,-100.3 1939.18,-107.261"/>
</g>
<!-- MonitorBatchPublisher -->
<g id="node16" class="node"><title>MonitorBatchPublisher</title>
<ellipse fill="none" stroke="black" cx="2325.94" cy="-90" rx="93.6835" ry="18"/>
<text text-anchor="middle" x="2325.94" y="-86.3" font-family="Times,serif" font-size="14.00">MonitorBatchPublisher</text>
</g>
<!-- ReproPublish&#45;&gt;MonitorBatchPublisher -->
<g id="edge18" class="edge"><title>ReproPublish&#45;&gt;MonitorBatchPublisher</title>
<path fill="none" stroke="black" d="M1870.92,-149.4C1879.17,-147.39 1887.79,-145.475 1895.94,-144 2039.82,-117.958 2078.09,-127.912 2222.94,-108 2231.42,-106.834 2240.28,-105.52 2249.08,-104.152"/>
<polygon fill="black" stroke="black" points="2249.65,-107.606 2258.98,-102.589 2248.56,-100.692 2249.65,-107.606"/>
</g>
<!-- gRPC&#45;PluginGetMetadata4 -->
<g id="node17" class="node"><title>gRPC&#45;PluginGetMetadata4</title>
<ellipse fill="none" stroke="black" cx="2325.94" cy="-18" rx="107.781" ry="18"/>
<text text-anchor="middle" x="2325.94" y="-14.3" font-family="Times,serif" font-size="14.00">gRPC&#45;PluginGetMetadata4</text>
</g>
<!-- MonitorBatchPublisher&#45;&gt;gRPC&#45;PluginGetMetadata4 -->
<g id="edge19" class="edge"><title>MonitorBatchPublisher&#45;&gt;gRPC&#45;PluginGetMetadata4</title>
<path fill="none" stroke="black" d="M2325.94,-71.6966C2325.94,-63.9827 2325.94,-54.7125 2325.94,-46.1124"/>
<polygon fill="black" stroke="black" points="2329.44,-46.1043 2325.94,-36.1043 2322.44,-46.1044 2329.44,-46.1043"/>
</g>
</g>
</svg>
