<?xml version="1.0" encoding="UTF-8" standalone="no"?>
<!DOCTYPE svg PUBLIC "-//W3C//DTD SVG 1.1//EN"
 "http://www.w3.org/Graphics/SVG/1.1/DTD/svg11.dtd">
<!-- Generated by graphviz version 2.38.0 (20140413.2041)
 -->
<!-- Title: G Pages: 1 -->
<svg width="1097pt" height="449pt"
 viewBox="0.00 0.00 1096.81 449.00" xmlns="http://www.w3.org/2000/svg" xmlns:xlink="http://www.w3.org/1999/xlink">
<g id="graph0" class="graph" transform="scale(1 1) rotate(0) translate(4 445)">
<title>G</title>
<polygon fill="white" stroke="none" points="-4,4 -4,-445 1092.81,-445 1092.81,4 -4,4"/>
<!-- Thread&#45;gRPC&#45;SubscribeMoot -->
<g id="node1" class="node"><title>Thread&#45;gRPC&#45;SubscribeMoot</title>
<ellipse fill="none" stroke="black" cx="330.924" cy="-397" rx="89.0842" ry="18"/>
<text text-anchor="middle" x="330.924" y="-393.3" font-family="Times,serif" font-size="14.00">gRPC&#45;SubscribeMoot</text>
</g>
<!-- Thread&#45;gRPC&#45;SpawnDelivery -->
<g id="node2" class="node"><title>Thread&#45;gRPC&#45;SpawnDelivery</title>
<ellipse fill="none" stroke="black" cx="698.896" cy="-423" rx="89.0842" ry="18"/>
<text text-anchor="middle" x="698.896" y="-419.3" font-family="Times,serif" font-size="14.00">gRPC&#45;SpawnDelivery</text>
</g>
<!-- Thread&#45;gRPC&#45;SubscribeMoot&#45;&gt;Thread&#45;gRPC&#45;SpawnDelivery -->
<g id="edge1" class="edge"><title>Thread&#45;gRPC&#45;SubscribeMoot&#45;&gt;Thread&#45;gRPC&#45;SpawnDelivery</title>
<path fill="none" stroke="black" d="M415.427,-402.932C471.748,-406.934 546.133,-412.218 604.432,-416.36"/>
<polygon fill="black" stroke="black" points="604.529,-419.876 614.752,-417.093 605.025,-412.893 604.529,-419.876"/>
</g>
<!-- Thread&#45;ConsumerHelper&#45;ConsumeBidirectionalStream -->
<g id="node3" class="node"><title>Thread&#45;ConsumerHelper&#45;ConsumeBidirectionalStream</title>
<ellipse fill="none" stroke="black" cx="330.924" cy="-288" rx="178.969" ry="18"/>
<text text-anchor="middle" x="330.924" y="-284.3" font-family="Times,serif" font-size="14.00">ConsumerHelper&#45;ConsumeBidirectionalStream</text>
</g>
<!-- Thread&#45;gRPC&#45;PluginGetMetadata++ -->
<g id="node4" class="node"><title>Thread&#45;gRPC&#45;PluginGetMetadata++</title>
<ellipse fill="none" stroke="black" cx="698.896" cy="-369" rx="103.182" ry="18"/>
<text text-anchor="middle" x="698.896" y="-365.3" font-family="Times,serif" font-size="14.00">gRPC&#45;PluginGetMetadata</text>
</g>
<!-- Thread&#45;ConsumerHelper&#45;ConsumeBidirectionalStream&#45;&gt;Thread&#45;gRPC&#45;PluginGetMetadata++ -->
<g id="edge2" class="edge"><title>Thread&#45;ConsumerHelper&#45;ConsumeBidirectionalStream&#45;&gt;Thread&#45;gRPC&#45;PluginGetMetadata++</title>
<path fill="none" stroke="black" d="M396.417,-304.789C440.317,-315.968 499.818,-330.634 552.659,-342 572.913,-346.357 594.847,-350.652 615.383,-354.492"/>
<polygon fill="black" stroke="black" points="614.868,-357.956 625.338,-356.338 616.144,-351.073 614.868,-357.956"/>
<text text-anchor="middle" x="531.159" y="-341.8" font-family="Times,serif" font-size="14.00">2</text>
</g>
<!-- Thread&#45;gRPC&#45;StopChannelSpin -->
<g id="node5" class="node"><title>Thread&#45;gRPC&#45;StopChannelSpin</title>
<ellipse fill="none" stroke="black" cx="698.896" cy="-315" rx="96.3833" ry="18"/>
<text text-anchor="middle" x="698.896" y="-311.3" font-family="Times,serif" font-size="14.00">gRPC&#45;StopChannelSpin</text>
</g>
<!-- Thread&#45;ConsumerHelper&#45;ConsumeBidirectionalStream&#45;&gt;Thread&#45;gRPC&#45;StopChannelSpin -->
<g id="edge3" class="edge"><title>Thread&#45;ConsumerHelper&#45;ConsumeBidirectionalStream&#45;&gt;Thread&#45;gRPC&#45;StopChannelSpin</title>
<path fill="none" stroke="black" d="M475.516,-298.594C516.876,-301.645 561.056,-304.904 599.049,-307.707"/>
<polygon fill="black" stroke="black" points="598.849,-311.202 609.08,-308.447 599.364,-304.221 598.849,-311.202"/>
<text text-anchor="middle" x="531.159" y="-305.8" font-family="Times,serif" font-size="14.00">2</text>
</g>
<!-- Thread&#45;gRPC&#45;ConsumeRequestIterator -->
<g id="node6" class="node"><title>Thread&#45;gRPC&#45;ConsumeRequestIterator</title>
<ellipse fill="none" stroke="black" cx="698.896" cy="-261" rx="122.379" ry="18"/>
<text text-anchor="middle" x="698.896" y="-257.3" font-family="Times,serif" font-size="14.00">gRPC&#45;ConsumeRequestIterator</text>
</g>
<!-- Thread&#45;ConsumerHelper&#45;ConsumeBidirectionalStream&#45;&gt;Thread&#45;gRPC&#45;ConsumeRequestIterator -->
<g id="edge4" class="edge"><title>Thread&#45;ConsumerHelper&#45;ConsumeBidirectionalStream&#45;&gt;Thread&#45;gRPC&#45;ConsumeRequestIterator</title>
<path fill="none" stroke="black" d="M475.516,-277.406C509.815,-274.876 546.053,-272.202 579.094,-269.765"/>
<polygon fill="black" stroke="black" points="579.524,-273.243 589.24,-269.016 579.009,-266.262 579.524,-273.243"/>
<text text-anchor="middle" x="531.159" y="-276.8" font-family="Times,serif" font-size="14.00">2</text>
</g>
<!-- ThreadPoolExecutor&#45;SubscriberPolicy -->
<g id="node7" class="node"><title>ThreadPoolExecutor&#45;SubscriberPolicy</title>
<ellipse fill="none" stroke="black" cx="698.896" cy="-207" rx="146.474" ry="18"/>
<text text-anchor="middle" x="698.896" y="-203.3" font-family="Times,serif" font-size="14.00">ThreadPoolExecutor&#45;SubscriberPolicy</text>
</g>
<!-- Thread&#45;ConsumerHelper&#45;ConsumeBidirectionalStream&#45;&gt;ThreadPoolExecutor&#45;SubscriberPolicy -->
<g id="edge5" class="edge"><title>Thread&#45;ConsumerHelper&#45;ConsumeBidirectionalStream&#45;&gt;ThreadPoolExecutor&#45;SubscriberPolicy</title>
<path fill="none" stroke="black" d="M458.339,-275.358C475.87,-271.719 493.421,-267.033 509.659,-261 530.812,-253.141 531.638,-242.208 552.659,-234 564.158,-229.51 576.467,-225.754 588.875,-222.615"/>
<polygon fill="black" stroke="black" points="589.926,-225.962 598.834,-220.227 588.294,-219.155 589.926,-225.962"/>
</g>
<!-- Thread&#45;MonitorBatchPublisher -->
<g id="node8" class="node"><title>Thread&#45;MonitorBatchPublisher</title>
<ellipse fill="none" stroke="black" cx="698.896" cy="-153" rx="93.6835" ry="18"/>
<text text-anchor="middle" x="698.896" y="-149.3" font-family="Times,serif" font-size="14.00">MonitorBatchPublisher</text>
</g>
<!-- Thread&#45;gRPC&#45;PluginGetMetadata++++ -->
<g id="node9" class="node"><title>Thread&#45;gRPC&#45;PluginGetMetadata++++</title>
<ellipse fill="none" stroke="black" cx="985.473" cy="-153" rx="103.182" ry="18"/>
<text text-anchor="middle" x="985.473" y="-149.3" font-family="Times,serif" font-size="14.00">gRPC&#45;PluginGetMetadata</text>
</g>
<!-- Thread&#45;MonitorBatchPublisher&#45;&gt;Thread&#45;gRPC&#45;PluginGetMetadata++++ -->
<g id="edge6" class="edge"><title>Thread&#45;MonitorBatchPublisher&#45;&gt;Thread&#45;gRPC&#45;PluginGetMetadata++++</title>
<path fill="none" stroke="black" d="M792.683,-153C817.885,-153 845.453,-153 871.631,-153"/>
<polygon fill="black" stroke="black" points="871.973,-156.5 881.973,-153 871.973,-149.5 871.973,-156.5"/>
</g>
<!-- Thread&#45;ReproPublish -->
<g id="node10" class="node"><title>Thread&#45;ReproPublish</title>
<ellipse fill="none" stroke="black" cx="330.924" cy="-234" rx="58.4896" ry="18"/>
<text text-anchor="middle" x="330.924" y="-230.3" font-family="Times,serif" font-size="14.00">ReproPublish</text>
</g>
<!-- Thread&#45;ReproPublish&#45;&gt;Thread&#45;MonitorBatchPublisher -->
<g id="edge7" class="edge"><title>Thread&#45;ReproPublish&#45;&gt;Thread&#45;MonitorBatchPublisher</title>
<path fill="none" stroke="black" d="M389.042,-231.267C424.644,-228.129 470.893,-221.402 509.659,-207 530.812,-199.141 531.638,-188.208 552.659,-180 570.175,-173.161 589.573,-168.024 608.336,-164.176"/>
<polygon fill="black" stroke="black" points="609.228,-167.568 618.376,-162.224 607.892,-160.697 609.228,-167.568"/>
</g>
<!-- MainThread -->
<g id="node11" class="node"><title>MainThread</title>
<ellipse fill="none" stroke="black" cx="54.5952" cy="-180" rx="54.6905" ry="18"/>
<text text-anchor="middle" x="54.5952" y="-176.3" font-family="Times,serif" font-size="14.00">MainThread</text>
</g>
<!-- MainThread&#45;&gt;Thread&#45;gRPC&#45;SubscribeMoot -->
<g id="edge8" class="edge"><title>MainThread&#45;&gt;Thread&#45;gRPC&#45;SubscribeMoot</title>
<path fill="none" stroke="black" d="M64.5226,-198.01C79.3034,-226.249 111.327,-281.205 152.19,-315 187.287,-344.026 234.349,-365.135 271.229,-378.661"/>
<polygon fill="black" stroke="black" points="270.262,-382.032 280.856,-382.105 272.62,-375.441 270.262,-382.032"/>
</g>
<!-- MainThread&#45;&gt;Thread&#45;ConsumerHelper&#45;ConsumeBidirectionalStream -->
<g id="edge12" class="edge"><title>MainThread&#45;&gt;Thread&#45;ConsumerHelper&#45;ConsumeBidirectionalStream</title>
<path fill="none" stroke="black" d="M70.7406,-197.449C88.295,-216.426 119.081,-246.044 152.19,-261 163.3,-266.018 175.157,-270.134 187.274,-273.505"/>
<polygon fill="black" stroke="black" points="186.479,-276.915 197.039,-276.053 188.246,-270.142 186.479,-276.915"/>
</g>
<!-- MainThread&#45;&gt;Thread&#45;ReproPublish -->
<g id="edge14" class="edge"><title>MainThread&#45;&gt;Thread&#45;ReproPublish</title>
<path fill="none" stroke="black" d="M95.2707,-192.266C112.623,-197.324 133.293,-202.939 152.19,-207 189.522,-215.022 231.765,-221.543 265.699,-226.166"/>
<polygon fill="black" stroke="black" points="265.573,-229.68 275.949,-227.539 266.502,-222.742 265.573,-229.68"/>
</g>
<!-- Thread&#45;gRPC&#45;SubscribeMoot+ -->
<g id="node12" class="node"><title>Thread&#45;gRPC&#45;SubscribeMoot+</title>
<ellipse fill="none" stroke="black" cx="330.924" cy="-180" rx="89.0842" ry="18"/>
<text text-anchor="middle" x="330.924" y="-176.3" font-family="Times,serif" font-size="14.00">gRPC&#45;SubscribeMoot</text>
</g>
<!-- MainThread&#45;&gt;Thread&#45;gRPC&#45;SubscribeMoot+ -->
<g id="edge9" class="edge"><title>MainThread&#45;&gt;Thread&#45;gRPC&#45;SubscribeMoot+</title>
<path fill="none" stroke="black" d="M109.466,-180C144.207,-180 190.421,-180 231.561,-180"/>
<polygon fill="black" stroke="black" points="231.625,-183.5 241.625,-180 231.624,-176.5 231.625,-183.5"/>
</g>
<!-- Thread&#45;gRPC&#45;PluginGetMetadata -->
<g id="node13" class="node"><title>Thread&#45;gRPC&#45;PluginGetMetadata</title>
<ellipse fill="none" stroke="black" cx="330.924" cy="-126" rx="103.182" ry="18"/>
<text text-anchor="middle" x="330.924" y="-122.3" font-family="Times,serif" font-size="14.00">gRPC&#45;PluginGetMetadata</text>
</g>
<!-- MainThread&#45;&gt;Thread&#45;gRPC&#45;PluginGetMetadata -->
<g id="edge10" class="edge"><title>MainThread&#45;&gt;Thread&#45;gRPC&#45;PluginGetMetadata</title>
<path fill="none" stroke="black" d="M95.2707,-167.734C112.623,-162.676 133.293,-157.061 152.19,-153 179.503,-147.131 209.444,-142.066 236.837,-137.959"/>
<polygon fill="black" stroke="black" points="237.421,-141.411 246.804,-136.49 236.4,-134.486 237.421,-141.411"/>
<text text-anchor="middle" x="130.69" y="-161.8" font-family="Times,serif" font-size="14.00">4</text>
</g>
<!-- Thread&#45;ConsumerHelper&#45;CallbackRequestsWorker -->
<g id="node14" class="node"><title>Thread&#45;ConsumerHelper&#45;CallbackRequestsWorker</title>
<ellipse fill="none" stroke="black" cx="330.924" cy="-72" rx="164.371" ry="18"/>
<text text-anchor="middle" x="330.924" y="-68.3" font-family="Times,serif" font-size="14.00">ConsumerHelper&#45;CallbackRequestsWorker</text>
</g>
<!-- MainThread&#45;&gt;Thread&#45;ConsumerHelper&#45;CallbackRequestsWorker -->
<g id="edge11" class="edge"><title>MainThread&#45;&gt;Thread&#45;ConsumerHelper&#45;CallbackRequestsWorker</title>
<path fill="none" stroke="black" d="M70.7406,-162.551C88.295,-143.574 119.081,-113.956 152.19,-99 164.435,-93.4686 177.588,-89.0341 190.998,-85.4839"/>
<polygon fill="black" stroke="black" points="191.935,-88.8576 200.798,-83.0521 190.249,-82.0636 191.935,-88.8576"/>
</g>
<!-- Thread&#45;LeaseMaintenance -->
<g id="node15" class="node"><title>Thread&#45;LeaseMaintenance</title>
<ellipse fill="none" stroke="black" cx="330.924" cy="-18" rx="77.1866" ry="18"/>
<text text-anchor="middle" x="330.924" y="-14.3" font-family="Times,serif" font-size="14.00">LeaseMaintenance</text>
</g>
<!-- MainThread&#45;&gt;Thread&#45;LeaseMaintenance -->
<g id="edge13" class="edge"><title>MainThread&#45;&gt;Thread&#45;LeaseMaintenance</title>
<path fill="none" stroke="black" d="M62.8528,-162.006C75.8855,-132.225 106.253,-73.1799 152.19,-45 179.199,-28.4315 212.739,-20.7579 243.381,-17.5301"/>
<polygon fill="black" stroke="black" points="244.005,-20.988 253.649,-16.5994 243.373,-14.0166 244.005,-20.988"/>
</g>
</g>
</svg>
