<?xml version="1.0" encoding="UTF-8" standalone="no"?>
<!DOCTYPE svg PUBLIC "-//W3C//DTD SVG 1.1//EN"
 "http://www.w3.org/Graphics/SVG/1.1/DTD/svg11.dtd">
<!-- Generated by graphviz version 2.38.0 (20140413.2041)
 -->
<!-- Title: %3 Pages: 1 -->
<svg width="3871pt" height="188pt"
 viewBox="0.00 0.00 3871.33 188.00" xmlns="http://www.w3.org/2000/svg" xmlns:xlink="http://www.w3.org/1999/xlink">
<g id="graph0" class="graph" transform="scale(1 1) rotate(0) translate(4 184)">
<title>%3</title>
<polygon fill="white" stroke="none" points="-4,4 -4,-184 3867.33,-184 3867.33,4 -4,4"/>
<!-- MainThread -->
<g id="node1" class="node"><title>MainThread</title>
<ellipse fill="none" stroke="black" cx="1107.59" cy="-162" rx="54.6905" ry="18"/>
<text text-anchor="middle" x="1107.59" y="-158.3" font-family="Times,serif" font-size="14.00">MainThread</text>
</g>
<!-- gRPC&#45;SubscribeMoot0 -->
<g id="node2" class="node"><title>gRPC&#45;SubscribeMoot0</title>
<ellipse fill="none" stroke="black" cx="93.5917" cy="-90" rx="92.8835" ry="18"/>
<text text-anchor="middle" x="93.5917" y="-86.3" font-family="Times,serif" font-size="14.00">gRPC&#45;SubscribeMoot0</text>
</g>
<!-- MainThread&#45;&gt;gRPC&#45;SubscribeMoot0 -->
<g id="edge1" class="edge"><title>MainThread&#45;&gt;gRPC&#45;SubscribeMoot0</title>
<path fill="none" stroke="black" d="M1053.2,-159.87C911.532,-156.487 519.685,-144.319 195.592,-108 186.907,-107.027 177.837,-105.809 168.842,-104.475"/>
<polygon fill="black" stroke="black" points="169.158,-100.982 158.743,-102.926 168.097,-107.901 169.158,-100.982"/>
</g>
<!-- gRPC&#45;SubscribeMoot1 -->
<g id="node4" class="node"><title>gRPC&#45;SubscribeMoot1</title>
<ellipse fill="none" stroke="black" cx="297.592" cy="-90" rx="92.8835" ry="18"/>
<text text-anchor="middle" x="297.592" y="-86.3" font-family="Times,serif" font-size="14.00">gRPC&#45;SubscribeMoot1</text>
</g>
<!-- MainThread&#45;&gt;gRPC&#45;SubscribeMoot1 -->
<g id="edge2" class="edge"><title>MainThread&#45;&gt;gRPC&#45;SubscribeMoot1</title>
<path fill="none" stroke="black" d="M1053.7,-158.631C935.12,-153.055 642.812,-137.311 399.592,-108 390.98,-106.962 381.986,-105.711 373.06,-104.363"/>
<polygon fill="black" stroke="black" points="373.454,-100.882 363.035,-102.807 372.38,-107.799 373.454,-100.882"/>
</g>
<!-- gRPC&#45;PluginGetMetadata0 -->
<g id="node6" class="node"><title>gRPC&#45;PluginGetMetadata0</title>
<ellipse fill="none" stroke="black" cx="516.592" cy="-90" rx="107.781" ry="18"/>
<text text-anchor="middle" x="516.592" y="-86.3" font-family="Times,serif" font-size="14.00">gRPC&#45;PluginGetMetadata0</text>
</g>
<!-- MainThread&#45;&gt;gRPC&#45;PluginGetMetadata0 -->
<g id="edge3" class="edge"><title>MainThread&#45;&gt;gRPC&#45;PluginGetMetadata0</title>
<path fill="none" stroke="black" d="M1055.97,-155.791C968.814,-146.869 786.968,-127.712 633.592,-108 623.972,-106.764 613.918,-105.405 603.917,-104.01"/>
<polygon fill="black" stroke="black" points="604.343,-100.536 593.952,-102.607 603.367,-107.467 604.343,-100.536"/>
</g>
<!-- gRPC&#45;PluginGetMetadata1 -->
<g id="node7" class="node"><title>gRPC&#45;PluginGetMetadata1</title>
<ellipse fill="none" stroke="black" cx="750.592" cy="-90" rx="107.781" ry="18"/>
<text text-anchor="middle" x="750.592" y="-86.3" font-family="Times,serif" font-size="14.00">gRPC&#45;PluginGetMetadata1</text>
</g>
<!-- MainThread&#45;&gt;gRPC&#45;PluginGetMetadata1 -->
<g id="edge4" class="edge"><title>MainThread&#45;&gt;gRPC&#45;PluginGetMetadata1</title>
<path fill="none" stroke="black" d="M1062.01,-152.063C1002.95,-140.482 899.087,-120.117 827.659,-106.111"/>
<polygon fill="black" stroke="black" points="828.29,-102.668 817.804,-104.179 826.943,-109.538 828.29,-102.668"/>
</g>
<!-- LeaseMaintenance -->
<g id="node12" class="node"><title>LeaseMaintenance</title>
<ellipse fill="none" stroke="black" cx="953.592" cy="-90" rx="77.1866" ry="18"/>
<text text-anchor="middle" x="953.592" y="-86.3" font-family="Times,serif" font-size="14.00">LeaseMaintenance</text>
</g>
<!-- MainThread&#45;&gt;LeaseMaintenance -->
<g id="edge7" class="edge"><title>MainThread&#45;&gt;LeaseMaintenance</title>
<path fill="none" stroke="black" d="M1076.8,-147.003C1053.84,-136.566 1022.18,-122.176 996.703,-110.596"/>
<polygon fill="black" stroke="black" points="997.824,-107.261 987.272,-106.309 994.928,-113.634 997.824,-107.261"/>
</g>
<!-- ReproPublish -->
<g id="node13" class="node"><title>ReproPublish</title>
<ellipse fill="none" stroke="black" cx="1107.59" cy="-90" rx="58.4896" ry="18"/>
<text text-anchor="middle" x="1107.59" y="-86.3" font-family="Times,serif" font-size="14.00">ReproPublish</text>
</g>
<!-- MainThread&#45;&gt;ReproPublish -->
<g id="edge8" class="edge"><title>MainThread&#45;&gt;ReproPublish</title>
<path fill="none" stroke="black" d="M1107.59,-143.697C1107.59,-135.983 1107.59,-126.712 1107.59,-118.112"/>
<polygon fill="black" stroke="black" points="1111.09,-118.104 1107.59,-108.104 1104.09,-118.104 1111.09,-118.104"/>
</g>
<!-- gRPC&#45;PluginGetMetadata6 -->
<g id="node23" class="node"><title>gRPC&#45;PluginGetMetadata6</title>
<ellipse fill="none" stroke="black" cx="1291.59" cy="-90" rx="107.781" ry="18"/>
<text text-anchor="middle" x="1291.59" y="-86.3" font-family="Times,serif" font-size="14.00">gRPC&#45;PluginGetMetadata6</text>
</g>
<!-- MainThread&#45;&gt;gRPC&#45;PluginGetMetadata6 -->
<g id="edge9" class="edge"><title>MainThread&#45;&gt;gRPC&#45;PluginGetMetadata6</title>
<path fill="none" stroke="black" d="M1142.2,-147.834C1170.03,-137.246 1209.53,-122.219 1240.92,-110.276"/>
<polygon fill="black" stroke="black" points="1242.28,-113.504 1250.38,-106.677 1239.79,-106.962 1242.28,-113.504"/>
</g>
<!-- gRPC&#45;PluginGetMetadata7 -->
<g id="node24" class="node"><title>gRPC&#45;PluginGetMetadata7</title>
<ellipse fill="none" stroke="black" cx="1525.59" cy="-90" rx="107.781" ry="18"/>
<text text-anchor="middle" x="1525.59" y="-86.3" font-family="Times,serif" font-size="14.00">gRPC&#45;PluginGetMetadata7</text>
</g>
<!-- MainThread&#45;&gt;gRPC&#45;PluginGetMetadata7 -->
<g id="edge10" class="edge"><title>MainThread&#45;&gt;gRPC&#45;PluginGetMetadata7</title>
<path fill="none" stroke="black" d="M1147.72,-149.613C1155.59,-147.584 1163.82,-145.608 1171.59,-144 1184.53,-141.321 1336.67,-118.788 1437.24,-103.978"/>
<polygon fill="black" stroke="black" points="1438.03,-107.4 1447.41,-102.481 1437.01,-100.474 1438.03,-107.4"/>
</g>
<!-- gRPC&#45;PluginGetMetadata8 -->
<g id="node25" class="node"><title>gRPC&#45;PluginGetMetadata8</title>
<ellipse fill="none" stroke="black" cx="1759.59" cy="-90" rx="107.781" ry="18"/>
<text text-anchor="middle" x="1759.59" y="-86.3" font-family="Times,serif" font-size="14.00">gRPC&#45;PluginGetMetadata8</text>
</g>
<!-- MainThread&#45;&gt;gRPC&#45;PluginGetMetadata8 -->
<g id="edge11" class="edge"><title>MainThread&#45;&gt;gRPC&#45;PluginGetMetadata8</title>
<path fill="none" stroke="black" d="M1146.95,-149.335C1155.04,-147.28 1163.54,-145.365 1171.59,-144 1378.58,-108.904 1433.92,-131.107 1642.59,-108 1652.64,-106.887 1663.15,-105.573 1673.58,-104.177"/>
<polygon fill="black" stroke="black" points="1674.1,-107.638 1683.53,-102.816 1673.15,-100.703 1674.1,-107.638"/>
</g>
<!-- Consumer helper: callback requests worker -->
<g id="node26" class="node"><title>Consumer helper: callback requests worker</title>
<ellipse fill="none" stroke="black" cx="2049.59" cy="-90" rx="164.371" ry="18"/>
<text text-anchor="middle" x="2049.59" y="-86.3" font-family="Times,serif" font-size="14.00">Consumer helper: callback requests worker</text>
</g>
<!-- MainThread&#45;&gt;Consumer helper: callback requests worker -->
<g id="edge5" class="edge"><title>MainThread&#45;&gt;Consumer helper: callback requests worker</title>
<path fill="none" stroke="black" d="M1146.58,-149.262C1154.77,-147.185 1163.41,-145.281 1171.59,-144 1481.56,-95.4639 1563.72,-131.348 1876.59,-108 1892.29,-106.828 1908.78,-105.428 1925.08,-103.941"/>
<polygon fill="black" stroke="black" points="1925.56,-107.412 1935.2,-103.006 1924.92,-100.442 1925.56,-107.412"/>
</g>
<!-- Consumer helper: consume bidirectional stream -->
<g id="node27" class="node"><title>Consumer helper: consume bidirectional stream</title>
<ellipse fill="none" stroke="black" cx="2413.59" cy="-90" rx="181.168" ry="18"/>
<text text-anchor="middle" x="2413.59" y="-86.3" font-family="Times,serif" font-size="14.00">Consumer helper: consume bidirectional stream</text>
</g>
<!-- MainThread&#45;&gt;Consumer helper: consume bidirectional stream -->
<g id="edge6" class="edge"><title>MainThread&#45;&gt;Consumer helper: consume bidirectional stream</title>
<path fill="none" stroke="black" d="M1146.22,-149.242C1154.52,-147.139 1163.29,-145.229 1171.59,-144 1633.94,-75.5718 1756.09,-136.729 2222.59,-108 2240.76,-106.881 2259.88,-105.465 2278.71,-103.929"/>
<polygon fill="black" stroke="black" points="2279.16,-107.404 2288.83,-103.091 2278.58,-100.428 2279.16,-107.404"/>
</g>
<!-- gRPC&#45;SpawnDelivery0 -->
<g id="node3" class="node"><title>gRPC&#45;SpawnDelivery0</title>
<ellipse fill="none" stroke="black" cx="93.5917" cy="-18" rx="93.6835" ry="18"/>
<text text-anchor="middle" x="93.5917" y="-14.3" font-family="Times,serif" font-size="14.00">gRPC&#45;SpawnDelivery0</text>
</g>
<!-- gRPC&#45;SubscribeMoot0&#45;&gt;gRPC&#45;SpawnDelivery0 -->
<g id="edge12" class="edge"><title>gRPC&#45;SubscribeMoot0&#45;&gt;gRPC&#45;SpawnDelivery0</title>
<path fill="none" stroke="black" d="M93.5917,-71.6966C93.5917,-63.9827 93.5917,-54.7125 93.5917,-46.1124"/>
<polygon fill="black" stroke="black" points="97.0918,-46.1043 93.5917,-36.1043 90.0918,-46.1044 97.0918,-46.1043"/>
</g>
<!-- gRPC&#45;SpawnDelivery1 -->
<g id="node5" class="node"><title>gRPC&#45;SpawnDelivery1</title>
<ellipse fill="none" stroke="black" cx="298.592" cy="-18" rx="93.6835" ry="18"/>
<text text-anchor="middle" x="298.592" y="-14.3" font-family="Times,serif" font-size="14.00">gRPC&#45;SpawnDelivery1</text>
</g>
<!-- gRPC&#45;SubscribeMoot1&#45;&gt;gRPC&#45;SpawnDelivery1 -->
<g id="edge13" class="edge"><title>gRPC&#45;SubscribeMoot1&#45;&gt;gRPC&#45;SpawnDelivery1</title>
<path fill="none" stroke="black" d="M297.839,-71.6966C297.949,-63.9827 298.082,-54.7125 298.204,-46.1124"/>
<polygon fill="black" stroke="black" points="301.704,-46.1533 298.347,-36.1043 294.705,-46.0533 301.704,-46.1533"/>
</g>
<!-- Consumer helper -->
<g id="node8" class="node"><title>Consumer helper</title>
<ellipse fill="none" stroke="black" cx="1251.59" cy="-162" rx="71.4873" ry="18"/>
<text text-anchor="middle" x="1251.59" y="-158.3" font-family="Times,serif" font-size="14.00">Consumer helper</text>
</g>
<!-- gRPC&#45;PluginGetMetadata2 -->
<g id="node9" class="node"><title>gRPC&#45;PluginGetMetadata2</title>
<ellipse fill="none" stroke="black" cx="1089.59" cy="-18" rx="107.781" ry="18"/>
<text text-anchor="middle" x="1089.59" y="-14.3" font-family="Times,serif" font-size="14.00">gRPC&#45;PluginGetMetadata2</text>
</g>
<!-- gRPC&#45;StopChannelSpin0 -->
<g id="node10" class="node"><title>gRPC&#45;StopChannelSpin0</title>
<ellipse fill="none" stroke="black" cx="1316.59" cy="-18" rx="100.983" ry="18"/>
<text text-anchor="middle" x="1316.59" y="-14.3" font-family="Times,serif" font-size="14.00">gRPC&#45;StopChannelSpin0</text>
</g>
<!-- gRPC&#45;ConsumeRequestIterator0 -->
<g id="node11" class="node"><title>gRPC&#45;ConsumeRequestIterator0</title>
<ellipse fill="none" stroke="black" cx="1561.59" cy="-18" rx="126.978" ry="18"/>
<text text-anchor="middle" x="1561.59" y="-14.3" font-family="Times,serif" font-size="14.00">gRPC&#45;ConsumeRequestIterator0</text>
</g>
<!-- gRPC&#45;PluginGetMetadata3 -->
<g id="node14" class="node"><title>gRPC&#45;PluginGetMetadata3</title>
<ellipse fill="none" stroke="black" cx="1814.59" cy="-18" rx="107.781" ry="18"/>
<text text-anchor="middle" x="1814.59" y="-14.3" font-family="Times,serif" font-size="14.00">gRPC&#45;PluginGetMetadata3</text>
</g>
<!-- gRPC&#45;StopChannelSpin1 -->
<g id="node15" class="node"><title>gRPC&#45;StopChannelSpin1</title>
<ellipse fill="none" stroke="black" cx="2041.59" cy="-18" rx="100.983" ry="18"/>
<text text-anchor="middle" x="2041.59" y="-14.3" font-family="Times,serif" font-size="14.00">gRPC&#45;StopChannelSpin1</text>
</g>
<!-- gRPC&#45;ConsumeRequestIterator1 -->
<g id="node16" class="node"><title>gRPC&#45;ConsumeRequestIterator1</title>
<ellipse fill="none" stroke="black" cx="2286.59" cy="-18" rx="126.978" ry="18"/>
<text text-anchor="middle" x="2286.59" y="-14.3" font-family="Times,serif" font-size="14.00">gRPC&#45;ConsumeRequestIterator1</text>
</g>
<!-- gRPC&#45;PluginGetMetadata4 -->
<g id="node17" class="node"><title>gRPC&#45;PluginGetMetadata4</title>
<ellipse fill="none" stroke="black" cx="2539.59" cy="-18" rx="107.781" ry="18"/>
<text text-anchor="middle" x="2539.59" y="-14.3" font-family="Times,serif" font-size="14.00">gRPC&#45;PluginGetMetadata4</text>
</g>
<!-- gRPC&#45;StopChannelSpin2 -->
<g id="node18" class="node"><title>gRPC&#45;StopChannelSpin2</title>
<ellipse fill="none" stroke="black" cx="2766.59" cy="-18" rx="100.983" ry="18"/>
<text text-anchor="middle" x="2766.59" y="-14.3" font-family="Times,serif" font-size="14.00">gRPC&#45;StopChannelSpin2</text>
</g>
<!-- gRPC&#45;ConsumeRequestIterator2 -->
<g id="node19" class="node"><title>gRPC&#45;ConsumeRequestIterator2</title>
<ellipse fill="none" stroke="black" cx="3011.59" cy="-18" rx="126.978" ry="18"/>
<text text-anchor="middle" x="3011.59" y="-14.3" font-family="Times,serif" font-size="14.00">gRPC&#45;ConsumeRequestIterator2</text>
</g>
<!-- gRPC&#45;PluginGetMetadata5 -->
<g id="node20" class="node"><title>gRPC&#45;PluginGetMetadata5</title>
<ellipse fill="none" stroke="black" cx="3264.59" cy="-18" rx="107.781" ry="18"/>
<text text-anchor="middle" x="3264.59" y="-14.3" font-family="Times,serif" font-size="14.00">gRPC&#45;PluginGetMetadata5</text>
</g>
<!-- gRPC&#45;StopChannelSpin3 -->
<g id="node21" class="node"><title>gRPC&#45;StopChannelSpin3</title>
<ellipse fill="none" stroke="black" cx="3491.59" cy="-18" rx="100.983" ry="18"/>
<text text-anchor="middle" x="3491.59" y="-14.3" font-family="Times,serif" font-size="14.00">gRPC&#45;StopChannelSpin3</text>
</g>
<!-- gRPC&#45;ConsumeRequestIterator3 -->
<g id="node22" class="node"><title>gRPC&#45;ConsumeRequestIterator3</title>
<ellipse fill="none" stroke="black" cx="3736.59" cy="-18" rx="126.978" ry="18"/>
<text text-anchor="middle" x="3736.59" y="-14.3" font-family="Times,serif" font-size="14.00">gRPC&#45;ConsumeRequestIterator3</text>
</g>
<!-- Consumer helper: consume bidirectional stream&#45;&gt;gRPC&#45;PluginGetMetadata2 -->
<g id="edge14" class="edge"><title>Consumer helper: consume bidirectional stream&#45;&gt;gRPC&#45;PluginGetMetadata2</title>
<path fill="none" stroke="black" d="M2288.83,-76.9306C2266.78,-75.0727 2244.02,-73.3325 2222.59,-72 1771.62,-43.9612 1656.61,-76.5448 1206.59,-36 1196.03,-35.0481 1184.96,-33.7878 1174.02,-32.3823"/>
<polygon fill="black" stroke="black" points="1174.41,-28.9028 1164.03,-31.0554 1173.49,-35.8418 1174.41,-28.9028"/>
</g>
<!-- Consumer helper: consume bidirectional stream&#45;&gt;gRPC&#45;StopChannelSpin0 -->
<g id="edge15" class="edge"><title>Consumer helper: consume bidirectional stream&#45;&gt;gRPC&#45;StopChannelSpin0</title>
<path fill="none" stroke="black" d="M2287.8,-77.0182C2266.06,-75.173 2243.68,-73.4143 2222.59,-72 1868.8,-48.2766 1778.41,-71.3738 1425.59,-36 1416.12,-35.0499 1406.21,-33.8275 1396.39,-32.4744"/>
<polygon fill="black" stroke="black" points="1396.62,-28.9708 1386.22,-31.0229 1395.63,-35.9006 1396.62,-28.9708"/>
</g>
<!-- Consumer helper: consume bidirectional stream&#45;&gt;gRPC&#45;ConsumeRequestIterator0 -->
<g id="edge16" class="edge"><title>Consumer helper: consume bidirectional stream&#45;&gt;gRPC&#45;ConsumeRequestIterator0</title>
<path fill="none" stroke="black" d="M2285.45,-77.2341C2264.45,-75.4097 2242.92,-73.6014 2222.59,-72 1989.43,-53.6317 1930.39,-58.5135 1697.59,-36 1685.75,-34.8547 1673.35,-33.5084 1661.05,-32.0831"/>
<polygon fill="black" stroke="black" points="1661.1,-28.5653 1650.76,-30.87 1660.28,-35.5171 1661.1,-28.5653"/>
</g>
<!-- Consumer helper: consume bidirectional stream&#45;&gt;gRPC&#45;PluginGetMetadata3 -->
<g id="edge17" class="edge"><title>Consumer helper: consume bidirectional stream&#45;&gt;gRPC&#45;PluginGetMetadata3</title>
<path fill="none" stroke="black" d="M2291.12,-76.721C2193.62,-66.6585 2053.72,-51.5826 1931.59,-36 1921.97,-34.7725 1911.92,-33.419 1901.92,-32.0279"/>
<polygon fill="black" stroke="black" points="1902.34,-28.5532 1891.95,-30.6274 1901.37,-35.4851 1902.34,-28.5532"/>
</g>
<!-- Consumer helper: consume bidirectional stream&#45;&gt;gRPC&#45;StopChannelSpin1 -->
<g id="edge18" class="edge"><title>Consumer helper: consume bidirectional stream&#45;&gt;gRPC&#45;StopChannelSpin1</title>
<path fill="none" stroke="black" d="M2332.87,-73.811C2269.21,-61.8319 2181.02,-45.236 2118.39,-33.4518"/>
<polygon fill="black" stroke="black" points="2118.65,-29.9398 2108.18,-31.5301 2117.36,-36.819 2118.65,-29.9398"/>
</g>
<!-- Consumer helper: consume bidirectional stream&#45;&gt;gRPC&#45;ConsumeRequestIterator1 -->
<g id="edge19" class="edge"><title>Consumer helper: consume bidirectional stream&#45;&gt;gRPC&#45;ConsumeRequestIterator1</title>
<path fill="none" stroke="black" d="M2383.17,-72.2333C2365.89,-62.7092 2344.08,-50.6862 2325.56,-40.4771"/>
<polygon fill="black" stroke="black" points="2327.21,-37.3919 2316.76,-35.6299 2323.83,-43.5223 2327.21,-37.3919"/>
</g>
<!-- Consumer helper: consume bidirectional stream&#45;&gt;gRPC&#45;PluginGetMetadata4 -->
<g id="edge20" class="edge"><title>Consumer helper: consume bidirectional stream&#45;&gt;gRPC&#45;PluginGetMetadata4</title>
<path fill="none" stroke="black" d="M2443.77,-72.2333C2461.04,-62.6397 2482.87,-50.5105 2501.33,-40.2538"/>
<polygon fill="black" stroke="black" points="2503.05,-43.3044 2510.09,-35.3884 2499.65,-37.1853 2503.05,-43.3044"/>
</g>
<!-- Consumer helper: consume bidirectional stream&#45;&gt;gRPC&#45;StopChannelSpin2 -->
<g id="edge21" class="edge"><title>Consumer helper: consume bidirectional stream&#45;&gt;gRPC&#45;StopChannelSpin2</title>
<path fill="none" stroke="black" d="M2491.06,-73.6382C2550.73,-61.8064 2632.72,-45.5476 2691.72,-33.8468"/>
<polygon fill="black" stroke="black" points="2692.59,-37.242 2701.72,-31.8636 2691.23,-30.3757 2692.59,-37.242"/>
</g>
<!-- Consumer helper: consume bidirectional stream&#45;&gt;gRPC&#45;ConsumeRequestIterator2 -->
<g id="edge22" class="edge"><title>Consumer helper: consume bidirectional stream&#45;&gt;gRPC&#45;ConsumeRequestIterator2</title>
<path fill="none" stroke="black" d="M2529.23,-76.1298C2622.91,-65.614 2758.31,-50.2171 2876.59,-36 2887.66,-34.67 2899.23,-33.2528 2910.75,-31.8258"/>
<polygon fill="black" stroke="black" points="2911.35,-35.2782 2920.84,-30.5711 2910.48,-28.3317 2911.35,-35.2782"/>
</g>
<!-- Consumer helper: consume bidirectional stream&#45;&gt;gRPC&#45;PluginGetMetadata5 -->
<g id="edge23" class="edge"><title>Consumer helper: consume bidirectional stream&#45;&gt;gRPC&#45;PluginGetMetadata5</title>
<path fill="none" stroke="black" d="M2570.67,-80.9483C2719.49,-72.5417 2949.13,-57.5549 3147.59,-36 3157.64,-34.9083 3168.16,-33.6073 3178.59,-32.2181"/>
<polygon fill="black" stroke="black" points="3179.1,-35.68 3188.54,-30.8629 3178.16,-28.744 3179.1,-35.68"/>
</g>
<!-- Consumer helper: consume bidirectional stream&#45;&gt;gRPC&#45;StopChannelSpin3 -->
<g id="edge24" class="edge"><title>Consumer helper: consume bidirectional stream&#45;&gt;gRPC&#45;StopChannelSpin3</title>
<path fill="none" stroke="black" d="M2587.11,-84.6554C2781.15,-78.599 3104.55,-64.921 3381.59,-36 3391.25,-34.9918 3401.35,-33.7244 3411.36,-32.3384"/>
<polygon fill="black" stroke="black" points="3411.9,-35.7962 3421.31,-30.9181 3410.91,-28.8664 3411.9,-35.7962"/>
</g>
<!-- Consumer helper: consume bidirectional stream&#45;&gt;gRPC&#45;ConsumeRequestIterator3 -->
<g id="edge25" class="edge"><title>Consumer helper: consume bidirectional stream&#45;&gt;gRPC&#45;ConsumeRequestIterator3</title>
<path fill="none" stroke="black" d="M2589.5,-85.5849C2821.65,-80.0635 3242.88,-66.5368 3601.59,-36 3613.76,-34.9644 3626.51,-33.654 3639.12,-32.2221"/>
<polygon fill="black" stroke="black" points="3639.67,-35.6828 3649.19,-31.0505 3638.86,-28.7297 3639.67,-35.6828"/>
</g>
</g>
</svg>
