<?xml version="1.0" encoding="UTF-8" standalone="no"?>
<!DOCTYPE svg PUBLIC "-//W3C//DTD SVG 1.1//EN"
 "http://www.w3.org/Graphics/SVG/1.1/DTD/svg11.dtd">
<!-- Generated by graphviz version 2.38.0 (20140413.2041)
 -->
<!-- Title: %3 Pages: 1 -->
<svg width="2476pt" height="260pt"
 viewBox="0.00 0.00 2476.48 260.00" xmlns="http://www.w3.org/2000/svg" xmlns:xlink="http://www.w3.org/1999/xlink">
<g id="graph0" class="graph" transform="scale(1 1) rotate(0) translate(4 256)">
<title>%3</title>
<polygon fill="white" stroke="none" points="-4,4 -4,-256 2472.48,-256 2472.48,4 -4,4"/>
<!-- MainThread -->
<g id="node1" class="node"><title>MainThread</title>
<ellipse fill="none" stroke="black" cx="1220.59" cy="-234" rx="54.6905" ry="18"/>
<text text-anchor="middle" x="1220.59" y="-230.3" font-family="Times,serif" font-size="14.00">MainThread</text>
</g>
<!-- gRPC&#45;SubscribeMoot0 -->
<g id="node2" class="node"><title>gRPC&#45;SubscribeMoot0</title>
<ellipse fill="none" stroke="black" cx="93.5917" cy="-162" rx="92.8835" ry="18"/>
<text text-anchor="middle" x="93.5917" y="-158.3" font-family="Times,serif" font-size="14.00">gRPC&#45;SubscribeMoot0</text>
</g>
<!-- MainThread&#45;&gt;gRPC&#45;SubscribeMoot0 -->
<g id="edge1" class="edge"><title>MainThread&#45;&gt;gRPC&#45;SubscribeMoot0</title>
<path fill="none" stroke="black" d="M1165.97,-232.355C1012.57,-230.073 564.935,-220.196 195.592,-180 186.839,-179.047 177.696,-177.836 168.634,-176.5"/>
<polygon fill="black" stroke="black" points="168.877,-172.996 158.463,-174.945 167.819,-179.916 168.877,-172.996"/>
</g>
<!-- gRPC&#45;SubscribeMoot1 -->
<g id="node4" class="node"><title>gRPC&#45;SubscribeMoot1</title>
<ellipse fill="none" stroke="black" cx="297.592" cy="-162" rx="92.8835" ry="18"/>
<text text-anchor="middle" x="297.592" y="-158.3" font-family="Times,serif" font-size="14.00">gRPC&#45;SubscribeMoot1</text>
</g>
<!-- MainThread&#45;&gt;gRPC&#45;SubscribeMoot1 -->
<g id="edge2" class="edge"><title>MainThread&#45;&gt;gRPC&#45;SubscribeMoot1</title>
<path fill="none" stroke="black" d="M1166.14,-231.381C1034.25,-227.045 687.276,-213.174 399.592,-180 390.91,-178.999 381.842,-177.764 372.848,-176.42"/>
<polygon fill="black" stroke="black" points="373.167,-172.928 362.75,-174.863 372.1,-179.846 373.167,-172.928"/>
</g>
<!-- gRPC&#45;PluginGetMetadata0 -->
<g id="node6" class="node"><title>gRPC&#45;PluginGetMetadata0</title>
<ellipse fill="none" stroke="black" cx="516.592" cy="-162" rx="107.781" ry="18"/>
<text text-anchor="middle" x="516.592" y="-158.3" font-family="Times,serif" font-size="14.00">gRPC&#45;PluginGetMetadata0</text>
</g>
<!-- MainThread&#45;&gt;gRPC&#45;PluginGetMetadata0 -->
<g id="edge3" class="edge"><title>MainThread&#45;&gt;gRPC&#45;PluginGetMetadata0</title>
<path fill="none" stroke="black" d="M1167.87,-229.204C1064.97,-221.582 830.232,-203.146 633.592,-180 623.807,-178.848 613.578,-177.531 603.416,-176.15"/>
<polygon fill="black" stroke="black" points="603.679,-172.653 593.295,-174.752 602.722,-179.588 603.679,-172.653"/>
</g>
<!-- gRPC&#45;PluginGetMetadata1 -->
<g id="node7" class="node"><title>gRPC&#45;PluginGetMetadata1</title>
<ellipse fill="none" stroke="black" cx="750.592" cy="-162" rx="107.781" ry="18"/>
<text text-anchor="middle" x="750.592" y="-158.3" font-family="Times,serif" font-size="14.00">gRPC&#45;PluginGetMetadata1</text>
</g>
<!-- MainThread&#45;&gt;gRPC&#45;PluginGetMetadata1 -->
<g id="edge4" class="edge"><title>MainThread&#45;&gt;gRPC&#45;PluginGetMetadata1</title>
<path fill="none" stroke="black" d="M1171.62,-225.707C1092.75,-213.959 936.475,-190.685 838.094,-176.032"/>
<polygon fill="black" stroke="black" points="838.575,-172.565 828.169,-174.554 837.544,-179.489 838.575,-172.565"/>
</g>
<!-- ConsumerHelper&#45;CallbackRequestsWorker -->
<g id="node8" class="node"><title>ConsumerHelper&#45;CallbackRequestsWorker</title>
<ellipse fill="none" stroke="black" cx="1040.59" cy="-162" rx="164.371" ry="18"/>
<text text-anchor="middle" x="1040.59" y="-158.3" font-family="Times,serif" font-size="14.00">ConsumerHelper&#45;CallbackRequestsWorker</text>
</g>
<!-- MainThread&#45;&gt;ConsumerHelper&#45;CallbackRequestsWorker -->
<g id="edge5" class="edge"><title>MainThread&#45;&gt;ConsumerHelper&#45;CallbackRequestsWorker</title>
<path fill="none" stroke="black" d="M1186.74,-219.834C1160.18,-209.506 1122.76,-194.955 1092.44,-183.162"/>
<polygon fill="black" stroke="black" points="1093.45,-179.801 1082.86,-179.439 1090.91,-186.325 1093.45,-179.801"/>
</g>
<!-- ConsumerHelper&#45;ConsumeBidirectionalStream -->
<g id="node9" class="node"><title>ConsumerHelper&#45;ConsumeBidirectionalStream</title>
<ellipse fill="none" stroke="black" cx="1401.59" cy="-162" rx="178.969" ry="18"/>
<text text-anchor="middle" x="1401.59" y="-158.3" font-family="Times,serif" font-size="14.00">ConsumerHelper&#45;ConsumeBidirectionalStream</text>
</g>
<!-- MainThread&#45;&gt;ConsumerHelper&#45;ConsumeBidirectionalStream -->
<g id="edge6" class="edge"><title>MainThread&#45;&gt;ConsumerHelper&#45;ConsumeBidirectionalStream</title>
<path fill="none" stroke="black" d="M1254.64,-219.834C1281.25,-209.541 1318.71,-195.055 1349.14,-183.284"/>
<polygon fill="black" stroke="black" points="1350.69,-186.438 1358.75,-179.567 1348.17,-179.91 1350.69,-186.438"/>
</g>
<!-- LeaseMaintenance -->
<g id="node10" class="node"><title>LeaseMaintenance</title>
<ellipse fill="none" stroke="black" cx="1675.59" cy="-162" rx="77.1866" ry="18"/>
<text text-anchor="middle" x="1675.59" y="-158.3" font-family="Times,serif" font-size="14.00">LeaseMaintenance</text>
</g>
<!-- MainThread&#45;&gt;LeaseMaintenance -->
<g id="edge7" class="edge"><title>MainThread&#45;&gt;LeaseMaintenance</title>
<path fill="none" stroke="black" d="M1270.56,-226.67C1341.62,-217.475 1475.87,-199.393 1589.59,-180 1596.14,-178.883 1602.96,-177.652 1609.77,-176.379"/>
<polygon fill="black" stroke="black" points="1610.52,-179.798 1619.69,-174.491 1609.22,-172.921 1610.52,-179.798"/>
</g>
<!-- ReproPublish -->
<g id="node12" class="node"><title>ReproPublish</title>
<ellipse fill="none" stroke="black" cx="1829.59" cy="-162" rx="58.4896" ry="18"/>
<text text-anchor="middle" x="1829.59" y="-158.3" font-family="Times,serif" font-size="14.00">ReproPublish</text>
</g>
<!-- MainThread&#45;&gt;ReproPublish -->
<g id="edge8" class="edge"><title>MainThread&#45;&gt;ReproPublish</title>
<path fill="none" stroke="black" d="M1274.31,-230.365C1371.92,-224.994 1584.67,-210.609 1761.59,-180 1766.71,-179.115 1772,-178.053 1777.28,-176.898"/>
<polygon fill="black" stroke="black" points="1778.39,-180.233 1787.36,-174.582 1776.83,-173.411 1778.39,-180.233"/>
</g>
<!-- gRPC&#45;PluginGetMetadata5 -->
<g id="node21" class="node"><title>gRPC&#45;PluginGetMetadata5</title>
<ellipse fill="none" stroke="black" cx="2013.59" cy="-162" rx="107.781" ry="18"/>
<text text-anchor="middle" x="2013.59" y="-158.3" font-family="Times,serif" font-size="14.00">gRPC&#45;PluginGetMetadata5</text>
</g>
<!-- MainThread&#45;&gt;gRPC&#45;PluginGetMetadata5 -->
<g id="edge9" class="edge"><title>MainThread&#45;&gt;gRPC&#45;PluginGetMetadata5</title>
<path fill="none" stroke="black" d="M1274.16,-230.006C1388.64,-223.344 1665.53,-205.816 1896.59,-180 1906.64,-178.877 1917.15,-177.557 1927.58,-176.157"/>
<polygon fill="black" stroke="black" points="1928.1,-179.619 1937.53,-174.795 1927.15,-172.684 1928.1,-179.619"/>
</g>
<!-- gRPC&#45;PluginGetMetadata6 -->
<g id="node22" class="node"><title>gRPC&#45;PluginGetMetadata6</title>
<ellipse fill="none" stroke="black" cx="2247.59" cy="-162" rx="107.781" ry="18"/>
<text text-anchor="middle" x="2247.59" y="-158.3" font-family="Times,serif" font-size="14.00">gRPC&#45;PluginGetMetadata6</text>
</g>
<!-- MainThread&#45;&gt;gRPC&#45;PluginGetMetadata6 -->
<g id="edge10" class="edge"><title>MainThread&#45;&gt;gRPC&#45;PluginGetMetadata6</title>
<path fill="none" stroke="black" d="M1274.83,-231.471C1416.08,-227.136 1806.85,-212.886 2130.59,-180 2140.81,-178.963 2151.49,-177.682 2162.08,-176.292"/>
<polygon fill="black" stroke="black" points="2162.74,-179.735 2172.18,-174.93 2161.81,-172.797 2162.74,-179.735"/>
</g>
<!-- gRPC&#45;SpawnDelivery0 -->
<g id="node3" class="node"><title>gRPC&#45;SpawnDelivery0</title>
<ellipse fill="none" stroke="black" cx="93.5917" cy="-90" rx="93.6835" ry="18"/>
<text text-anchor="middle" x="93.5917" y="-86.3" font-family="Times,serif" font-size="14.00">gRPC&#45;SpawnDelivery0</text>
</g>
<!-- gRPC&#45;SubscribeMoot0&#45;&gt;gRPC&#45;SpawnDelivery0 -->
<g id="edge11" class="edge"><title>gRPC&#45;SubscribeMoot0&#45;&gt;gRPC&#45;SpawnDelivery0</title>
<path fill="none" stroke="black" d="M93.5917,-143.697C93.5917,-135.983 93.5917,-126.712 93.5917,-118.112"/>
<polygon fill="black" stroke="black" points="97.0918,-118.104 93.5917,-108.104 90.0918,-118.104 97.0918,-118.104"/>
</g>
<!-- gRPC&#45;SpawnDelivery1 -->
<g id="node5" class="node"><title>gRPC&#45;SpawnDelivery1</title>
<ellipse fill="none" stroke="black" cx="298.592" cy="-90" rx="93.6835" ry="18"/>
<text text-anchor="middle" x="298.592" y="-86.3" font-family="Times,serif" font-size="14.00">gRPC&#45;SpawnDelivery1</text>
</g>
<!-- gRPC&#45;SubscribeMoot1&#45;&gt;gRPC&#45;SpawnDelivery1 -->
<g id="edge12" class="edge"><title>gRPC&#45;SubscribeMoot1&#45;&gt;gRPC&#45;SpawnDelivery1</title>
<path fill="none" stroke="black" d="M297.839,-143.697C297.949,-135.983 298.082,-126.712 298.204,-118.112"/>
<polygon fill="black" stroke="black" points="301.704,-118.153 298.347,-108.104 294.705,-118.053 301.704,-118.153"/>
</g>
<!-- gRPC&#45;PluginGetMetadata2 -->
<g id="node11" class="node"><title>gRPC&#45;PluginGetMetadata2</title>
<ellipse fill="none" stroke="black" cx="596.592" cy="-90" rx="107.781" ry="18"/>
<text text-anchor="middle" x="596.592" y="-86.3" font-family="Times,serif" font-size="14.00">gRPC&#45;PluginGetMetadata2</text>
</g>
<!-- ConsumerHelper&#45;ConsumeBidirectionalStream&#45;&gt;gRPC&#45;PluginGetMetadata2 -->
<g id="edge13" class="edge"><title>ConsumerHelper&#45;ConsumeBidirectionalStream&#45;&gt;gRPC&#45;PluginGetMetadata2</title>
<path fill="none" stroke="black" d="M1275.21,-149.252C1254.62,-147.43 1233.52,-145.618 1213.59,-144 991.525,-125.967 935.089,-132.034 713.592,-108 703.463,-106.901 692.863,-105.589 682.356,-104.188"/>
<polygon fill="black" stroke="black" points="682.71,-100.704 672.329,-102.822 681.765,-107.64 682.71,-100.704"/>
</g>
<!-- gRPC&#45;StopChannelSpin0 -->
<g id="node13" class="node"><title>gRPC&#45;StopChannelSpin0</title>
<ellipse fill="none" stroke="black" cx="823.592" cy="-90" rx="100.983" ry="18"/>
<text text-anchor="middle" x="823.592" y="-86.3" font-family="Times,serif" font-size="14.00">gRPC&#45;StopChannelSpin0</text>
</g>
<!-- ConsumerHelper&#45;ConsumeBidirectionalStream&#45;&gt;gRPC&#45;StopChannelSpin0 -->
<g id="edge14" class="edge"><title>ConsumerHelper&#45;ConsumeBidirectionalStream&#45;&gt;gRPC&#45;StopChannelSpin0</title>
<path fill="none" stroke="black" d="M1280.44,-148.728C1185.64,-138.782 1050.55,-123.857 932.592,-108 923.903,-106.832 914.837,-105.538 905.806,-104.201"/>
<polygon fill="black" stroke="black" points="906.055,-100.699 895.646,-102.677 905.016,-107.622 906.055,-100.699"/>
</g>
<!-- gRPC&#45;ConsumeRequestIterator0 -->
<g id="node14" class="node"><title>gRPC&#45;ConsumeRequestIterator0</title>
<ellipse fill="none" stroke="black" cx="1068.59" cy="-90" rx="126.978" ry="18"/>
<text text-anchor="middle" x="1068.59" y="-86.3" font-family="Times,serif" font-size="14.00">gRPC&#45;ConsumeRequestIterator0</text>
</g>
<!-- ConsumerHelper&#45;ConsumeBidirectionalStream&#45;&gt;gRPC&#45;ConsumeRequestIterator0 -->
<g id="edge15" class="edge"><title>ConsumerHelper&#45;ConsumeBidirectionalStream&#45;&gt;gRPC&#45;ConsumeRequestIterator0</title>
<path fill="none" stroke="black" d="M1328.1,-145.552C1274.28,-134.237 1201.36,-118.91 1146.53,-107.383"/>
<polygon fill="black" stroke="black" points="1147.01,-103.909 1136.51,-105.277 1145.57,-110.759 1147.01,-103.909"/>
</g>
<!-- gRPC&#45;PluginGetMetadata3 -->
<g id="node15" class="node"><title>gRPC&#45;PluginGetMetadata3</title>
<ellipse fill="none" stroke="black" cx="1321.59" cy="-90" rx="107.781" ry="18"/>
<text text-anchor="middle" x="1321.59" y="-86.3" font-family="Times,serif" font-size="14.00">gRPC&#45;PluginGetMetadata3</text>
</g>
<!-- ConsumerHelper&#45;ConsumeBidirectionalStream&#45;&gt;gRPC&#45;PluginGetMetadata3 -->
<g id="edge16" class="edge"><title>ConsumerHelper&#45;ConsumeBidirectionalStream&#45;&gt;gRPC&#45;PluginGetMetadata3</title>
<path fill="none" stroke="black" d="M1382.23,-144.055C1372.1,-135.199 1359.56,-124.219 1348.51,-114.549"/>
<polygon fill="black" stroke="black" points="1350.61,-111.74 1340.78,-107.789 1346,-117.008 1350.61,-111.74"/>
</g>
<!-- gRPC&#45;StopChannelSpin1 -->
<g id="node16" class="node"><title>gRPC&#45;StopChannelSpin1</title>
<ellipse fill="none" stroke="black" cx="1548.59" cy="-90" rx="100.983" ry="18"/>
<text text-anchor="middle" x="1548.59" y="-86.3" font-family="Times,serif" font-size="14.00">gRPC&#45;StopChannelSpin1</text>
</g>
<!-- ConsumerHelper&#45;ConsumeBidirectionalStream&#45;&gt;gRPC&#45;StopChannelSpin1 -->
<g id="edge17" class="edge"><title>ConsumerHelper&#45;ConsumeBidirectionalStream&#45;&gt;gRPC&#45;StopChannelSpin1</title>
<path fill="none" stroke="black" d="M1436.8,-144.233C1457.54,-134.359 1483.91,-121.799 1505.84,-111.359"/>
<polygon fill="black" stroke="black" points="1507.41,-114.488 1514.93,-107.028 1504.4,-108.168 1507.41,-114.488"/>
</g>
<!-- gRPC&#45;ConsumeRequestIterator1 -->
<g id="node17" class="node"><title>gRPC&#45;ConsumeRequestIterator1</title>
<ellipse fill="none" stroke="black" cx="1793.59" cy="-90" rx="126.978" ry="18"/>
<text text-anchor="middle" x="1793.59" y="-86.3" font-family="Times,serif" font-size="14.00">gRPC&#45;ConsumeRequestIterator1</text>
</g>
<!-- ConsumerHelper&#45;ConsumeBidirectionalStream&#45;&gt;gRPC&#45;ConsumeRequestIterator1 -->
<g id="edge18" class="edge"><title>ConsumerHelper&#45;ConsumeBidirectionalStream&#45;&gt;gRPC&#45;ConsumeRequestIterator1</title>
<path fill="none" stroke="black" d="M1485.2,-146.069C1550.86,-134.344 1641.94,-118.081 1708.08,-106.269"/>
<polygon fill="black" stroke="black" points="1708.84,-109.69 1718.07,-104.487 1707.61,-102.799 1708.84,-109.69"/>
</g>
<!-- ThreadPoolExecutor&#45;SubscriberPolicy_0 -->
<g id="node20" class="node"><title>ThreadPoolExecutor&#45;SubscriberPolicy_0</title>
<ellipse fill="none" stroke="black" cx="2093.59" cy="-90" rx="155.173" ry="18"/>
<text text-anchor="middle" x="2093.59" y="-86.3" font-family="Times,serif" font-size="14.00">ThreadPoolExecutor&#45;SubscriberPolicy_0</text>
</g>
<!-- ConsumerHelper&#45;ConsumeBidirectionalStream&#45;&gt;ThreadPoolExecutor&#45;SubscriberPolicy_0 -->
<g id="edge19" class="edge"><title>ConsumerHelper&#45;ConsumeBidirectionalStream&#45;&gt;ThreadPoolExecutor&#45;SubscriberPolicy_0</title>
<path fill="none" stroke="black" d="M1523.77,-148.85C1630.79,-138.179 1790.51,-122.189 1929.59,-108 1943.23,-106.609 1957.5,-105.144 1971.69,-103.681"/>
<polygon fill="black" stroke="black" points="1972.41,-107.125 1982,-102.617 1971.69,-100.162 1972.41,-107.125"/>
</g>
<!-- MonitorBatchPublisher -->
<g id="node18" class="node"><title>MonitorBatchPublisher</title>
<ellipse fill="none" stroke="black" cx="2360.59" cy="-90" rx="93.6835" ry="18"/>
<text text-anchor="middle" x="2360.59" y="-86.3" font-family="Times,serif" font-size="14.00">MonitorBatchPublisher</text>
</g>
<!-- ReproPublish&#45;&gt;MonitorBatchPublisher -->
<g id="edge20" class="edge"><title>ReproPublish&#45;&gt;MonitorBatchPublisher</title>
<path fill="none" stroke="black" d="M1871.56,-149.333C1879.81,-147.329 1888.44,-145.433 1896.59,-144 2055.4,-116.095 2097.74,-129.14 2257.59,-108 2266.14,-106.869 2275.07,-105.571 2283.95,-104.208"/>
<polygon fill="black" stroke="black" points="2284.58,-107.651 2293.92,-102.645 2283.5,-100.735 2284.58,-107.651"/>
</g>
<!-- gRPC&#45;PluginGetMetadata4 -->
<g id="node19" class="node"><title>gRPC&#45;PluginGetMetadata4</title>
<ellipse fill="none" stroke="black" cx="2360.59" cy="-18" rx="107.781" ry="18"/>
<text text-anchor="middle" x="2360.59" y="-14.3" font-family="Times,serif" font-size="14.00">gRPC&#45;PluginGetMetadata4</text>
</g>
<!-- MonitorBatchPublisher&#45;&gt;gRPC&#45;PluginGetMetadata4 -->
<g id="edge21" class="edge"><title>MonitorBatchPublisher&#45;&gt;gRPC&#45;PluginGetMetadata4</title>
<path fill="none" stroke="black" d="M2360.59,-71.6966C2360.59,-63.9827 2360.59,-54.7125 2360.59,-46.1124"/>
<polygon fill="black" stroke="black" points="2364.09,-46.1043 2360.59,-36.1043 2357.09,-46.1044 2364.09,-46.1043"/>
</g>
</g>
</svg>
