<?xml version="1.0" encoding="UTF-8" standalone="no"?>
<!DOCTYPE svg PUBLIC "-//W3C//DTD SVG 1.1//EN"
 "http://www.w3.org/Graphics/SVG/1.1/DTD/svg11.dtd">
<!-- Generated by graphviz version 2.38.0 (20140413.2041)
 -->
<!-- Title: G Pages: 1 -->
<svg width="790pt" height="408pt"
 viewBox="0.00 0.00 790.44 408.00" xmlns="http://www.w3.org/2000/svg" xmlns:xlink="http://www.w3.org/1999/xlink">
<g id="graph0" class="graph" transform="scale(1 1) rotate(0) translate(4 404)">
<title>G</title>
<polygon fill="white" stroke="none" points="-4,4 -4,-404 786.439,-404 786.439,4 -4,4"/>
<!-- Thread&#45;gRPC&#45;SubscribeMoot+ -->
<g id="node1" class="node"><title>Thread&#45;gRPC&#45;SubscribeMoot+</title>
<ellipse fill="none" stroke="black" cx="299.578" cy="-376" rx="89.0842" ry="18"/>
<text text-anchor="middle" x="299.578" y="-372.3" font-family="Times,serif" font-size="14.00">gRPC&#45;SubscribeMoot</text>
</g>
<!-- Thread&#45;gRPC&#45;SpawnDelivery -->
<g id="node2" class="node"><title>Thread&#45;gRPC&#45;SpawnDelivery</title>
<ellipse fill="none" stroke="black" cx="636.202" cy="-382" rx="89.0842" ry="18"/>
<text text-anchor="middle" x="636.202" y="-378.3" font-family="Times,serif" font-size="14.00">gRPC&#45;SpawnDelivery</text>
</g>
<!-- Thread&#45;gRPC&#45;SubscribeMoot+&#45;&gt;Thread&#45;gRPC&#45;SpawnDelivery -->
<g id="edge1" class="edge"><title>Thread&#45;gRPC&#45;SubscribeMoot+&#45;&gt;Thread&#45;gRPC&#45;SpawnDelivery</title>
<path fill="none" stroke="black" d="M388.497,-377.576C434.138,-378.395 490.042,-379.397 537.086,-380.241"/>
<polygon fill="black" stroke="black" points="537.229,-383.744 547.291,-380.424 537.355,-376.745 537.229,-383.744"/>
</g>
<!-- Thread&#45;MonitorBatchPublisher -->
<g id="node3" class="node"><title>Thread&#45;MonitorBatchPublisher</title>
<ellipse fill="none" stroke="black" cx="299.578" cy="-315" rx="93.6835" ry="18"/>
<text text-anchor="middle" x="299.578" y="-311.3" font-family="Times,serif" font-size="14.00">MonitorBatchPublisher</text>
</g>
<!-- Thread&#45;gRPC&#45;PluginGetMetadata++ -->
<g id="node4" class="node"><title>Thread&#45;gRPC&#45;PluginGetMetadata++</title>
<ellipse fill="none" stroke="black" cx="636.202" cy="-328" rx="103.182" ry="18"/>
<text text-anchor="middle" x="636.202" y="-324.3" font-family="Times,serif" font-size="14.00">gRPC&#45;PluginGetMetadata</text>
</g>
<!-- Thread&#45;MonitorBatchPublisher&#45;&gt;Thread&#45;gRPC&#45;PluginGetMetadata++ -->
<g id="edge2" class="edge"><title>Thread&#45;MonitorBatchPublisher&#45;&gt;Thread&#45;gRPC&#45;PluginGetMetadata++</title>
<path fill="none" stroke="black" d="M391.573,-318.535C432.78,-320.136 481.846,-322.042 525.109,-323.723"/>
<polygon fill="black" stroke="black" points="524.978,-327.22 535.106,-324.111 525.25,-320.226 524.978,-327.22"/>
</g>
<!-- Thread&#45;ConsumeBidirectionalStream -->
<g id="node5" class="node"><title>Thread&#45;ConsumeBidirectionalStream</title>
<ellipse fill="none" stroke="black" cx="299.578" cy="-234" rx="115.88" ry="18"/>
<text text-anchor="middle" x="299.578" y="-230.3" font-family="Times,serif" font-size="14.00">ConsumeBidirectionalStream</text>
</g>
<!-- Thread&#45;gRPC&#45;PluginGetMetadata++++++++++++++++++ -->
<g id="node6" class="node"><title>Thread&#45;gRPC&#45;PluginGetMetadata++++++++++++++++++</title>
<ellipse fill="none" stroke="black" cx="636.202" cy="-274" rx="103.182" ry="18"/>
<text text-anchor="middle" x="636.202" y="-270.3" font-family="Times,serif" font-size="14.00">gRPC&#45;PluginGetMetadata</text>
</g>
<!-- Thread&#45;ConsumeBidirectionalStream&#45;&gt;Thread&#45;gRPC&#45;PluginGetMetadata++++++++++++++++++ -->
<g id="edge3" class="edge"><title>Thread&#45;ConsumeBidirectionalStream&#45;&gt;Thread&#45;gRPC&#45;PluginGetMetadata++++++++++++++++++</title>
<path fill="none" stroke="black" d="M392.015,-244.93C438.077,-250.436 493.872,-257.106 540.395,-262.667"/>
<polygon fill="black" stroke="black" points="540.134,-266.161 550.479,-263.872 540.965,-259.21 540.134,-266.161"/>
</g>
<!-- Thread&#45;gRPC&#45;StopChannelSpin -->
<g id="node7" class="node"><title>Thread&#45;gRPC&#45;StopChannelSpin</title>
<ellipse fill="none" stroke="black" cx="636.202" cy="-220" rx="96.3833" ry="18"/>
<text text-anchor="middle" x="636.202" y="-216.3" font-family="Times,serif" font-size="14.00">gRPC&#45;StopChannelSpin</text>
</g>
<!-- Thread&#45;ConsumeBidirectionalStream&#45;&gt;Thread&#45;gRPC&#45;StopChannelSpin -->
<g id="edge4" class="edge"><title>Thread&#45;ConsumeBidirectionalStream&#45;&gt;Thread&#45;gRPC&#45;StopChannelSpin</title>
<path fill="none" stroke="black" d="M411.538,-229.358C450.396,-227.732 493.845,-225.914 532.038,-224.316"/>
<polygon fill="black" stroke="black" points="532.299,-227.808 542.144,-223.893 532.006,-220.815 532.299,-227.808"/>
</g>
<!-- Thread&#45;gRPC&#45;ConsumeRequestIterator -->
<g id="node8" class="node"><title>Thread&#45;gRPC&#45;ConsumeRequestIterator</title>
<ellipse fill="none" stroke="black" cx="636.202" cy="-166" rx="122.379" ry="18"/>
<text text-anchor="middle" x="636.202" y="-162.3" font-family="Times,serif" font-size="14.00">gRPC&#45;ConsumeRequestIterator</text>
</g>
<!-- Thread&#45;ConsumeBidirectionalStream&#45;&gt;Thread&#45;gRPC&#45;ConsumeRequestIterator -->
<g id="edge5" class="edge"><title>Thread&#45;ConsumeBidirectionalStream&#45;&gt;Thread&#45;gRPC&#45;ConsumeRequestIterator</title>
<path fill="none" stroke="black" d="M376.414,-220.476C397.098,-216.471 419.456,-211.849 439.965,-207 462.423,-201.69 467.488,-198.225 489.965,-193 507.858,-188.841 527.108,-184.895 545.555,-181.369"/>
<polygon fill="black" stroke="black" points="546.233,-184.803 555.411,-179.51 544.936,-177.925 546.233,-184.803"/>
</g>
<!-- ThreadPoolExecutor&#45;SubscriberPolicy -->
<g id="node9" class="node"><title>ThreadPoolExecutor&#45;SubscriberPolicy</title>
<ellipse fill="none" stroke="black" cx="636.202" cy="-112" rx="146.474" ry="18"/>
<text text-anchor="middle" x="636.202" y="-108.3" font-family="Times,serif" font-size="14.00">ThreadPoolExecutor&#45;SubscriberPolicy</text>
</g>
<!-- Thread&#45;ConsumeBidirectionalStream&#45;&gt;ThreadPoolExecutor&#45;SubscriberPolicy -->
<g id="edge6" class="edge"><title>Thread&#45;ConsumeBidirectionalStream&#45;&gt;ThreadPoolExecutor&#45;SubscriberPolicy</title>
<path fill="none" stroke="black" d="M400.616,-225.087C414.6,-220.933 428.193,-215.111 439.965,-207 452.457,-198.393 449.135,-190.335 457.965,-178 471.017,-159.769 470.663,-150.407 489.965,-139 497.911,-134.305 506.492,-130.396 515.373,-127.145"/>
<polygon fill="black" stroke="black" points="516.75,-130.375 525.112,-123.87 514.518,-123.74 516.75,-130.375"/>
<text text-anchor="middle" x="464.965" y="-181.8" font-family="Times,serif" font-size="14.00">10</text>
</g>
<!-- MainThread -->
<g id="node10" class="node"><title>MainThread</title>
<ellipse fill="none" stroke="black" cx="54.5952" cy="-180" rx="54.6905" ry="18"/>
<text text-anchor="middle" x="54.5952" y="-176.3" font-family="Times,serif" font-size="14.00">MainThread</text>
</g>
<!-- MainThread&#45;&gt;Thread&#45;gRPC&#45;SubscribeMoot+ -->
<g id="edge8" class="edge"><title>MainThread&#45;&gt;Thread&#45;gRPC&#45;SubscribeMoot+</title>
<path fill="none" stroke="black" d="M61.9045,-198.06C74.6772,-231.861 106.908,-304.631 159.19,-342 174.306,-352.804 192.448,-360.199 210.568,-365.254"/>
<polygon fill="black" stroke="black" points="209.762,-368.66 220.319,-367.758 211.504,-361.88 209.762,-368.66"/>
</g>
<!-- MainThread&#45;&gt;Thread&#45;MonitorBatchPublisher -->
<g id="edge10" class="edge"><title>MainThread&#45;&gt;Thread&#45;MonitorBatchPublisher</title>
<path fill="none" stroke="black" d="M73.8663,-197.025C93.6822,-214.807 126.833,-242.619 159.19,-261 184.301,-275.265 213.92,-287.332 239.383,-296.416"/>
<polygon fill="black" stroke="black" points="238.325,-299.754 248.92,-299.75 240.635,-293.146 238.325,-299.754"/>
<text text-anchor="middle" x="134.19" y="-252.8" font-family="Times,serif" font-size="14.00">16</text>
</g>
<!-- MainThread&#45;&gt;Thread&#45;ConsumeBidirectionalStream -->
<g id="edge12" class="edge"><title>MainThread&#45;&gt;Thread&#45;ConsumeBidirectionalStream</title>
<path fill="none" stroke="black" d="M97.2837,-191.511C116.124,-196.547 138.709,-202.352 159.19,-207 176.734,-210.981 195.604,-214.887 213.618,-218.436"/>
<polygon fill="black" stroke="black" points="213.038,-221.889 223.524,-220.37 214.379,-215.019 213.038,-221.889"/>
</g>
<!-- Thread&#45;gRPC&#45;SubscribeMoot -->
<g id="node11" class="node"><title>Thread&#45;gRPC&#45;SubscribeMoot</title>
<ellipse fill="none" stroke="black" cx="299.578" cy="-180" rx="89.0842" ry="18"/>
<text text-anchor="middle" x="299.578" y="-176.3" font-family="Times,serif" font-size="14.00">gRPC&#45;SubscribeMoot</text>
</g>
<!-- MainThread&#45;&gt;Thread&#45;gRPC&#45;SubscribeMoot -->
<g id="edge7" class="edge"><title>MainThread&#45;&gt;Thread&#45;gRPC&#45;SubscribeMoot</title>
<path fill="none" stroke="black" d="M109.22,-180C135.955,-180 169.146,-180 200.236,-180"/>
<polygon fill="black" stroke="black" points="200.246,-183.5 210.246,-180 200.246,-176.5 200.246,-183.5"/>
</g>
<!-- Thread&#45;gRPC&#45;PluginGetMetadata -->
<g id="node12" class="node"><title>Thread&#45;gRPC&#45;PluginGetMetadata</title>
<ellipse fill="none" stroke="black" cx="299.578" cy="-126" rx="103.182" ry="18"/>
<text text-anchor="middle" x="299.578" y="-122.3" font-family="Times,serif" font-size="14.00">gRPC&#45;PluginGetMetadata</text>
</g>
<!-- MainThread&#45;&gt;Thread&#45;gRPC&#45;PluginGetMetadata -->
<g id="edge9" class="edge"><title>MainThread&#45;&gt;Thread&#45;gRPC&#45;PluginGetMetadata</title>
<path fill="none" stroke="black" d="M97.5909,-168.747C107.304,-166.174 117.601,-163.471 127.19,-161 141.387,-157.342 144.878,-156.173 159.19,-153 178.044,-148.821 198.412,-144.67 217.602,-140.923"/>
<polygon fill="black" stroke="black" points="218.364,-144.341 227.516,-139.002 217.032,-137.469 218.364,-144.341"/>
<text text-anchor="middle" x="134.19" y="-164.8" font-family="Times,serif" font-size="14.00">5</text>
</g>
<!-- Thread&#45;Consumer&#45;CallbackRequestsWorker -->
<g id="node13" class="node"><title>Thread&#45;Consumer&#45;CallbackRequestsWorker</title>
<ellipse fill="none" stroke="black" cx="299.578" cy="-72" rx="140.275" ry="18"/>
<text text-anchor="middle" x="299.578" y="-68.3" font-family="Times,serif" font-size="14.00">Consumer&#45;CallbackRequestsWorker</text>
</g>
<!-- MainThread&#45;&gt;Thread&#45;Consumer&#45;CallbackRequestsWorker -->
<g id="edge11" class="edge"><title>MainThread&#45;&gt;Thread&#45;Consumer&#45;CallbackRequestsWorker</title>
<path fill="none" stroke="black" d="M72.2164,-162.831C91.382,-144.105 124.702,-114.711 159.19,-99 169.253,-94.416 180.069,-90.6094 191.065,-87.4486"/>
<polygon fill="black" stroke="black" points="192.017,-90.817 200.761,-84.8338 190.194,-84.0584 192.017,-90.817"/>
</g>
<!-- Thread&#45;LeaseMaintenance -->
<g id="node14" class="node"><title>Thread&#45;LeaseMaintenance</title>
<ellipse fill="none" stroke="black" cx="299.578" cy="-18" rx="77.1866" ry="18"/>
<text text-anchor="middle" x="299.578" y="-14.3" font-family="Times,serif" font-size="14.00">LeaseMaintenance</text>
</g>
<!-- MainThread&#45;&gt;Thread&#45;LeaseMaintenance -->
<g id="edge13" class="edge"><title>MainThread&#45;&gt;Thread&#45;LeaseMaintenance</title>
<path fill="none" stroke="black" d="M63.8753,-162.197C78.5841,-132.696 112.202,-74.0549 159.19,-45 175.704,-34.7887 195.252,-28.305 214.404,-24.2219"/>
<polygon fill="black" stroke="black" points="215.209,-27.631 224.364,-22.2984 213.882,-20.758 215.209,-27.631"/>
</g>
</g>
</svg>
