<?xml version="1.0" encoding="UTF-8" standalone="no"?>
<!DOCTYPE svg PUBLIC "-//W3C//DTD SVG 1.1//EN"
 "http://www.w3.org/Graphics/SVG/1.1/DTD/svg11.dtd">
<!-- Generated by graphviz version 2.38.0 (20140413.2041)
 -->
<!-- Title: G Pages: 1 -->
<svg width="867pt" height="408pt"
 viewBox="0.00 0.00 867.13 408.00" xmlns="http://www.w3.org/2000/svg" xmlns:xlink="http://www.w3.org/1999/xlink">
<g id="graph0" class="graph" transform="scale(1 1) rotate(0) translate(4 404)">
<title>G</title>
<polygon fill="white" stroke="none" points="-4,4 -4,-404 863.133,-404 863.133,4 -4,4"/>
<!-- Thread&#45;gRPC&#45;SubscribeMoot+ -->
<g id="node1" class="node"><title>Thread&#45;gRPC&#45;SubscribeMoot+</title>
<ellipse fill="none" stroke="black" cx="337.924" cy="-376" rx="89.0842" ry="18"/>
<text text-anchor="middle" x="337.924" y="-372.3" font-family="Times,serif" font-size="14.00">gRPC&#45;SubscribeMoot</text>
</g>
<!-- Thread&#45;gRPC&#45;SpawnDelivery -->
<g id="node2" class="node"><title>Thread&#45;gRPC&#45;SpawnDelivery</title>
<ellipse fill="none" stroke="black" cx="712.896" cy="-382" rx="89.0842" ry="18"/>
<text text-anchor="middle" x="712.896" y="-378.3" font-family="Times,serif" font-size="14.00">gRPC&#45;SpawnDelivery</text>
</g>
<!-- Thread&#45;gRPC&#45;SubscribeMoot+&#45;&gt;Thread&#45;gRPC&#45;SpawnDelivery -->
<g id="edge1" class="edge"><title>Thread&#45;gRPC&#45;SubscribeMoot+&#45;&gt;Thread&#45;gRPC&#45;SpawnDelivery</title>
<path fill="none" stroke="black" d="M426.841,-377.414C482.915,-378.316 555.674,-379.487 613.648,-380.419"/>
<polygon fill="black" stroke="black" points="613.869,-383.923 623.924,-380.585 613.981,-376.924 613.869,-383.923"/>
</g>
<!-- Thread&#45;MonitorBatchPublisher -->
<g id="node3" class="node"><title>Thread&#45;MonitorBatchPublisher</title>
<ellipse fill="none" stroke="black" cx="337.924" cy="-315" rx="93.6835" ry="18"/>
<text text-anchor="middle" x="337.924" y="-311.3" font-family="Times,serif" font-size="14.00">MonitorBatchPublisher</text>
</g>
<!-- Thread&#45;gRPC&#45;PluginGetMetadata++ -->
<g id="node4" class="node"><title>Thread&#45;gRPC&#45;PluginGetMetadata++</title>
<ellipse fill="none" stroke="black" cx="712.896" cy="-328" rx="103.182" ry="18"/>
<text text-anchor="middle" x="712.896" y="-324.3" font-family="Times,serif" font-size="14.00">gRPC&#45;PluginGetMetadata</text>
</g>
<!-- Thread&#45;MonitorBatchPublisher&#45;&gt;Thread&#45;gRPC&#45;PluginGetMetadata++ -->
<g id="edge2" class="edge"><title>Thread&#45;MonitorBatchPublisher&#45;&gt;Thread&#45;gRPC&#45;PluginGetMetadata++</title>
<path fill="none" stroke="black" d="M430.163,-318.18C481.833,-319.981 546.837,-322.247 601.382,-324.148"/>
<polygon fill="black" stroke="black" points="601.323,-327.648 611.439,-324.499 601.567,-320.652 601.323,-327.648"/>
</g>
<!-- Thread&#45;ConsumerHelper&#45;ConsumeBidirectionalStream -->
<g id="node5" class="node"><title>Thread&#45;ConsumerHelper&#45;ConsumeBidirectionalStream</title>
<ellipse fill="none" stroke="black" cx="337.924" cy="-234" rx="178.969" ry="18"/>
<text text-anchor="middle" x="337.924" y="-230.3" font-family="Times,serif" font-size="14.00">ConsumerHelper&#45;ConsumeBidirectionalStream</text>
</g>
<!-- Thread&#45;gRPC&#45;PluginGetMetadata++++++++++++++++++ -->
<g id="node6" class="node"><title>Thread&#45;gRPC&#45;PluginGetMetadata++++++++++++++++++</title>
<ellipse fill="none" stroke="black" cx="712.896" cy="-274" rx="103.182" ry="18"/>
<text text-anchor="middle" x="712.896" y="-270.3" font-family="Times,serif" font-size="14.00">gRPC&#45;PluginGetMetadata</text>
</g>
<!-- Thread&#45;ConsumerHelper&#45;ConsumeBidirectionalStream&#45;&gt;Thread&#45;gRPC&#45;PluginGetMetadata++++++++++++++++++ -->
<g id="edge3" class="edge"><title>Thread&#45;ConsumerHelper&#45;ConsumeBidirectionalStream&#45;&gt;Thread&#45;gRPC&#45;PluginGetMetadata++++++++++++++++++</title>
<path fill="none" stroke="black" d="M461.049,-247.097C510.729,-252.425 567.354,-258.498 614.218,-263.524"/>
<polygon fill="black" stroke="black" points="614.053,-267.027 624.369,-264.613 614.8,-260.067 614.053,-267.027"/>
</g>
<!-- Thread&#45;gRPC&#45;StopChannelSpin -->
<g id="node7" class="node"><title>Thread&#45;gRPC&#45;StopChannelSpin</title>
<ellipse fill="none" stroke="black" cx="712.896" cy="-220" rx="96.3833" ry="18"/>
<text text-anchor="middle" x="712.896" y="-216.3" font-family="Times,serif" font-size="14.00">gRPC&#45;StopChannelSpin</text>
</g>
<!-- Thread&#45;ConsumerHelper&#45;ConsumeBidirectionalStream&#45;&gt;Thread&#45;gRPC&#45;StopChannelSpin -->
<g id="edge4" class="edge"><title>Thread&#45;ConsumerHelper&#45;ConsumeBidirectionalStream&#45;&gt;Thread&#45;gRPC&#45;StopChannelSpin</title>
<path fill="none" stroke="black" d="M505.774,-227.737C540.69,-226.426 576.534,-225.081 608.337,-223.887"/>
<polygon fill="black" stroke="black" points="608.653,-227.378 618.514,-223.505 608.39,-220.383 608.653,-227.378"/>
</g>
<!-- Thread&#45;gRPC&#45;ConsumeRequestIterator -->
<g id="node8" class="node"><title>Thread&#45;gRPC&#45;ConsumeRequestIterator</title>
<ellipse fill="none" stroke="black" cx="712.896" cy="-166" rx="122.379" ry="18"/>
<text text-anchor="middle" x="712.896" y="-162.3" font-family="Times,serif" font-size="14.00">gRPC&#45;ConsumeRequestIterator</text>
</g>
<!-- Thread&#45;ConsumerHelper&#45;ConsumeBidirectionalStream&#45;&gt;Thread&#45;gRPC&#45;ConsumeRequestIterator -->
<g id="edge5" class="edge"><title>Thread&#45;ConsumerHelper&#45;ConsumeBidirectionalStream&#45;&gt;Thread&#45;gRPC&#45;ConsumeRequestIterator</title>
<path fill="none" stroke="black" d="M447.398,-219.68C470.361,-216.046 494.384,-211.791 516.659,-207 539.219,-202.147 544.181,-198.225 566.659,-193 584.551,-188.841 603.802,-184.895 622.249,-181.369"/>
<polygon fill="black" stroke="black" points="622.926,-184.803 632.104,-179.51 621.629,-177.925 622.926,-184.803"/>
</g>
<!-- ThreadPoolExecutor&#45;SubscriberPolicy -->
<g id="node9" class="node"><title>ThreadPoolExecutor&#45;SubscriberPolicy</title>
<ellipse fill="none" stroke="black" cx="712.896" cy="-112" rx="146.474" ry="18"/>
<text text-anchor="middle" x="712.896" y="-108.3" font-family="Times,serif" font-size="14.00">ThreadPoolExecutor&#45;SubscriberPolicy</text>
</g>
<!-- Thread&#45;ConsumerHelper&#45;ConsumeBidirectionalStream&#45;&gt;ThreadPoolExecutor&#45;SubscriberPolicy -->
<g id="edge6" class="edge"><title>Thread&#45;ConsumerHelper&#45;ConsumeBidirectionalStream&#45;&gt;ThreadPoolExecutor&#45;SubscriberPolicy</title>
<path fill="none" stroke="black" d="M483.188,-223.293C495.02,-219.123 506.367,-213.787 516.659,-207 529.322,-198.648 525.828,-190.335 534.659,-178 547.71,-159.769 547.356,-150.407 566.659,-139 574.604,-134.305 583.185,-130.396 592.066,-127.145"/>
<polygon fill="black" stroke="black" points="593.443,-130.375 601.806,-123.87 591.212,-123.74 593.443,-130.375"/>
<text text-anchor="middle" x="541.659" y="-181.8" font-family="Times,serif" font-size="14.00">10</text>
</g>
<!-- MainThread -->
<g id="node10" class="node"><title>MainThread</title>
<ellipse fill="none" stroke="black" cx="54.5952" cy="-180" rx="54.6905" ry="18"/>
<text text-anchor="middle" x="54.5952" y="-176.3" font-family="Times,serif" font-size="14.00">MainThread</text>
</g>
<!-- MainThread&#45;&gt;Thread&#45;gRPC&#45;SubscribeMoot+ -->
<g id="edge8" class="edge"><title>MainThread&#45;&gt;Thread&#45;gRPC&#45;SubscribeMoot+</title>
<path fill="none" stroke="black" d="M61.6374,-198.039C74.0548,-232.137 105.848,-305.863 159.19,-342 182.703,-357.928 211.772,-366.847 239.542,-371.721"/>
<polygon fill="black" stroke="black" points="239.275,-375.222 249.701,-373.339 240.376,-368.309 239.275,-375.222"/>
</g>
<!-- MainThread&#45;&gt;Thread&#45;MonitorBatchPublisher -->
<g id="edge10" class="edge"><title>MainThread&#45;&gt;Thread&#45;MonitorBatchPublisher</title>
<path fill="none" stroke="black" d="M73.2445,-197.175C92.7958,-215.348 125.967,-243.734 159.19,-261 191.866,-277.981 230.753,-290.558 263.81,-299.28"/>
<polygon fill="black" stroke="black" points="263.312,-302.765 273.868,-301.863 265.054,-295.985 263.312,-302.765"/>
<text text-anchor="middle" x="134.19" y="-253.8" font-family="Times,serif" font-size="14.00">16</text>
</g>
<!-- MainThread&#45;&gt;Thread&#45;ConsumerHelper&#45;ConsumeBidirectionalStream -->
<g id="edge12" class="edge"><title>MainThread&#45;&gt;Thread&#45;ConsumerHelper&#45;ConsumeBidirectionalStream</title>
<path fill="none" stroke="black" d="M96.7005,-191.766C115.623,-196.91 138.437,-202.731 159.19,-207 178.763,-211.026 199.662,-214.727 220,-218.013"/>
<polygon fill="black" stroke="black" points="219.505,-221.479 229.931,-219.593 220.605,-214.566 219.505,-221.479"/>
</g>
<!-- Thread&#45;gRPC&#45;SubscribeMoot -->
<g id="node11" class="node"><title>Thread&#45;gRPC&#45;SubscribeMoot</title>
<ellipse fill="none" stroke="black" cx="337.924" cy="-180" rx="89.0842" ry="18"/>
<text text-anchor="middle" x="337.924" y="-176.3" font-family="Times,serif" font-size="14.00">gRPC&#45;SubscribeMoot</text>
</g>
<!-- MainThread&#45;&gt;Thread&#45;gRPC&#45;SubscribeMoot -->
<g id="edge7" class="edge"><title>MainThread&#45;&gt;Thread&#45;gRPC&#45;SubscribeMoot</title>
<path fill="none" stroke="black" d="M109.505,-180C145.992,-180 195.255,-180 238.602,-180"/>
<polygon fill="black" stroke="black" points="238.615,-183.5 248.615,-180 238.615,-176.5 238.615,-183.5"/>
</g>
<!-- Thread&#45;gRPC&#45;PluginGetMetadata -->
<g id="node12" class="node"><title>Thread&#45;gRPC&#45;PluginGetMetadata</title>
<ellipse fill="none" stroke="black" cx="337.924" cy="-126" rx="103.182" ry="18"/>
<text text-anchor="middle" x="337.924" y="-122.3" font-family="Times,serif" font-size="14.00">gRPC&#45;PluginGetMetadata</text>
</g>
<!-- MainThread&#45;&gt;Thread&#45;gRPC&#45;PluginGetMetadata -->
<g id="edge9" class="edge"><title>MainThread&#45;&gt;Thread&#45;gRPC&#45;PluginGetMetadata</title>
<path fill="none" stroke="black" d="M97.5909,-168.747C107.304,-166.174 117.601,-163.471 127.19,-161 141.387,-157.342 144.816,-155.882 159.19,-153 186.854,-147.454 217.142,-142.458 244.753,-138.315"/>
<polygon fill="black" stroke="black" points="245.415,-141.755 254.794,-136.828 244.389,-134.831 245.415,-141.755"/>
<text text-anchor="middle" x="134.19" y="-164.8" font-family="Times,serif" font-size="14.00">4</text>
</g>
<!-- Thread&#45;ConsumerHelper&#45;CallbackRequestsWorker -->
<g id="node13" class="node"><title>Thread&#45;ConsumerHelper&#45;CallbackRequestsWorker</title>
<ellipse fill="none" stroke="black" cx="337.924" cy="-72" rx="164.371" ry="18"/>
<text text-anchor="middle" x="337.924" y="-68.3" font-family="Times,serif" font-size="14.00">ConsumerHelper&#45;CallbackRequestsWorker</text>
</g>
<!-- MainThread&#45;&gt;Thread&#45;ConsumerHelper&#45;CallbackRequestsWorker -->
<g id="edge11" class="edge"><title>MainThread&#45;&gt;Thread&#45;ConsumerHelper&#45;CallbackRequestsWorker</title>
<path fill="none" stroke="black" d="M71.7579,-162.912C90.7626,-143.968 124.181,-114.099 159.19,-99 171.759,-93.5794 185.237,-89.2237 198.945,-85.727"/>
<polygon fill="black" stroke="black" points="200.046,-89.0622 208.957,-83.3298 198.416,-82.2546 200.046,-89.0622"/>
</g>
<!-- Thread&#45;LeaseMaintenance -->
<g id="node14" class="node"><title>Thread&#45;LeaseMaintenance</title>
<ellipse fill="none" stroke="black" cx="337.924" cy="-18" rx="77.1866" ry="18"/>
<text text-anchor="middle" x="337.924" y="-14.3" font-family="Times,serif" font-size="14.00">LeaseMaintenance</text>
</g>
<!-- MainThread&#45;&gt;Thread&#45;LeaseMaintenance -->
<g id="edge13" class="edge"><title>MainThread&#45;&gt;Thread&#45;LeaseMaintenance</title>
<path fill="none" stroke="black" d="M63.7489,-161.988C78.2716,-132.179 111.623,-73.0957 159.19,-45 186.352,-28.9569 219.772,-21.3733 250.274,-18.07"/>
<polygon fill="black" stroke="black" points="250.865,-21.5299 260.493,-17.1078 250.208,-14.5607 250.865,-21.5299"/>
</g>
</g>
</svg>
