<?xml version="1.0" encoding="UTF-8" standalone="no"?>
<!DOCTYPE svg PUBLIC "-//W3C//DTD SVG 1.1//EN"
 "http://www.w3.org/Graphics/SVG/1.1/DTD/svg11.dtd">
<!-- Generated by graphviz version 2.38.0 (20140413.2041)
 -->
<!-- Title: G Pages: 1 -->
<svg width="867pt" height="354pt"
 viewBox="0.00 0.00 867.13 354.00" xmlns="http://www.w3.org/2000/svg" xmlns:xlink="http://www.w3.org/1999/xlink">
<g id="graph0" class="graph" transform="scale(1 1) rotate(0) translate(4 350)">
<title>G</title>
<polygon fill="white" stroke="none" points="-4,4 -4,-350 863.133,-350 863.133,4 -4,4"/>
<!-- Thread&#45;gRPC&#45;SubscribeMoot -->
<g id="node1" class="node"><title>Thread&#45;gRPC&#45;SubscribeMoot</title>
<ellipse fill="none" stroke="black" cx="337.924" cy="-322" rx="89.0842" ry="18"/>
<text text-anchor="middle" x="337.924" y="-318.3" font-family="Times,serif" font-size="14.00">gRPC&#45;SubscribeMoot</text>
</g>
<!-- Thread&#45;gRPC&#45;SpawnDelivery -->
<g id="node2" class="node"><title>Thread&#45;gRPC&#45;SpawnDelivery</title>
<ellipse fill="none" stroke="black" cx="712.896" cy="-328" rx="89.0842" ry="18"/>
<text text-anchor="middle" x="712.896" y="-324.3" font-family="Times,serif" font-size="14.00">gRPC&#45;SpawnDelivery</text>
</g>
<!-- Thread&#45;gRPC&#45;SubscribeMoot&#45;&gt;Thread&#45;gRPC&#45;SpawnDelivery -->
<g id="edge1" class="edge"><title>Thread&#45;gRPC&#45;SubscribeMoot&#45;&gt;Thread&#45;gRPC&#45;SpawnDelivery</title>
<path fill="none" stroke="black" d="M426.841,-323.414C482.915,-324.316 555.674,-325.487 613.648,-326.419"/>
<polygon fill="black" stroke="black" points="613.869,-329.923 623.924,-326.585 613.981,-322.924 613.869,-329.923"/>
</g>
<!-- Thread&#45;MonitorBatchPublisher -->
<g id="node3" class="node"><title>Thread&#45;MonitorBatchPublisher</title>
<ellipse fill="none" stroke="black" cx="337.924" cy="-261" rx="93.6835" ry="18"/>
<text text-anchor="middle" x="337.924" y="-257.3" font-family="Times,serif" font-size="14.00">MonitorBatchPublisher</text>
</g>
<!-- Thread&#45;gRPC&#45;PluginGetMetadata++ -->
<g id="node4" class="node"><title>Thread&#45;gRPC&#45;PluginGetMetadata++</title>
<ellipse fill="none" stroke="black" cx="712.896" cy="-274" rx="103.182" ry="18"/>
<text text-anchor="middle" x="712.896" y="-270.3" font-family="Times,serif" font-size="14.00">gRPC&#45;PluginGetMetadata</text>
</g>
<!-- Thread&#45;MonitorBatchPublisher&#45;&gt;Thread&#45;gRPC&#45;PluginGetMetadata++ -->
<g id="edge2" class="edge"><title>Thread&#45;MonitorBatchPublisher&#45;&gt;Thread&#45;gRPC&#45;PluginGetMetadata++</title>
<path fill="none" stroke="black" d="M430.163,-264.18C481.833,-265.981 546.837,-268.247 601.382,-270.148"/>
<polygon fill="black" stroke="black" points="601.323,-273.648 611.439,-270.499 601.567,-266.652 601.323,-273.648"/>
</g>
<!-- Thread&#45;ConsumerHelper&#45;ConsumeBidirectionalStream -->
<g id="node5" class="node"><title>Thread&#45;ConsumerHelper&#45;ConsumeBidirectionalStream</title>
<ellipse fill="none" stroke="black" cx="337.924" cy="-180" rx="178.969" ry="18"/>
<text text-anchor="middle" x="337.924" y="-176.3" font-family="Times,serif" font-size="14.00">ConsumerHelper&#45;ConsumeBidirectionalStream</text>
</g>
<!-- Thread&#45;gRPC&#45;PluginGetMetadata++++++++++++++++++ -->
<g id="node6" class="node"><title>Thread&#45;gRPC&#45;PluginGetMetadata++++++++++++++++++</title>
<ellipse fill="none" stroke="black" cx="712.896" cy="-220" rx="103.182" ry="18"/>
<text text-anchor="middle" x="712.896" y="-216.3" font-family="Times,serif" font-size="14.00">gRPC&#45;PluginGetMetadata</text>
</g>
<!-- Thread&#45;ConsumerHelper&#45;ConsumeBidirectionalStream&#45;&gt;Thread&#45;gRPC&#45;PluginGetMetadata++++++++++++++++++ -->
<g id="edge3" class="edge"><title>Thread&#45;ConsumerHelper&#45;ConsumeBidirectionalStream&#45;&gt;Thread&#45;gRPC&#45;PluginGetMetadata++++++++++++++++++</title>
<path fill="none" stroke="black" d="M461.049,-193.097C510.729,-198.425 567.354,-204.498 614.218,-209.524"/>
<polygon fill="black" stroke="black" points="614.053,-213.027 624.369,-210.613 614.8,-206.067 614.053,-213.027"/>
</g>
<!-- Thread&#45;gRPC&#45;StopChannelSpin -->
<g id="node7" class="node"><title>Thread&#45;gRPC&#45;StopChannelSpin</title>
<ellipse fill="none" stroke="black" cx="712.896" cy="-166" rx="96.3833" ry="18"/>
<text text-anchor="middle" x="712.896" y="-162.3" font-family="Times,serif" font-size="14.00">gRPC&#45;StopChannelSpin</text>
</g>
<!-- Thread&#45;ConsumerHelper&#45;ConsumeBidirectionalStream&#45;&gt;Thread&#45;gRPC&#45;StopChannelSpin -->
<g id="edge4" class="edge"><title>Thread&#45;ConsumerHelper&#45;ConsumeBidirectionalStream&#45;&gt;Thread&#45;gRPC&#45;StopChannelSpin</title>
<path fill="none" stroke="black" d="M505.774,-173.737C540.69,-172.426 576.534,-171.081 608.337,-169.887"/>
<polygon fill="black" stroke="black" points="608.653,-173.378 618.514,-169.505 608.39,-166.383 608.653,-173.378"/>
</g>
<!-- Thread&#45;gRPC&#45;ConsumeRequestIterator -->
<g id="node8" class="node"><title>Thread&#45;gRPC&#45;ConsumeRequestIterator</title>
<ellipse fill="none" stroke="black" cx="712.896" cy="-112" rx="122.379" ry="18"/>
<text text-anchor="middle" x="712.896" y="-108.3" font-family="Times,serif" font-size="14.00">gRPC&#45;ConsumeRequestIterator</text>
</g>
<!-- Thread&#45;ConsumerHelper&#45;ConsumeBidirectionalStream&#45;&gt;Thread&#45;gRPC&#45;ConsumeRequestIterator -->
<g id="edge5" class="edge"><title>Thread&#45;ConsumerHelper&#45;ConsumeBidirectionalStream&#45;&gt;Thread&#45;gRPC&#45;ConsumeRequestIterator</title>
<path fill="none" stroke="black" d="M447.398,-165.68C470.361,-162.046 494.384,-157.791 516.659,-153 539.219,-148.147 544.181,-144.225 566.659,-139 584.551,-134.841 603.802,-130.895 622.249,-127.369"/>
<polygon fill="black" stroke="black" points="622.926,-130.803 632.104,-125.51 621.629,-123.925 622.926,-130.803"/>
</g>
<!-- ThreadPoolExecutor&#45;SubscriberPolicy -->
<g id="node9" class="node"><title>ThreadPoolExecutor&#45;SubscriberPolicy</title>
<ellipse fill="none" stroke="black" cx="712.896" cy="-58" rx="146.474" ry="18"/>
<text text-anchor="middle" x="712.896" y="-54.3" font-family="Times,serif" font-size="14.00">ThreadPoolExecutor&#45;SubscriberPolicy</text>
</g>
<!-- Thread&#45;ConsumerHelper&#45;ConsumeBidirectionalStream&#45;&gt;ThreadPoolExecutor&#45;SubscriberPolicy -->
<g id="edge6" class="edge"><title>Thread&#45;ConsumerHelper&#45;ConsumeBidirectionalStream&#45;&gt;ThreadPoolExecutor&#45;SubscriberPolicy</title>
<path fill="none" stroke="black" d="M483.188,-169.293C495.02,-165.123 506.367,-159.787 516.659,-153 529.322,-144.648 525.828,-136.335 534.659,-124 547.71,-105.769 547.356,-96.407 566.659,-85 574.604,-80.3048 583.185,-76.3961 592.066,-73.1455"/>
<polygon fill="black" stroke="black" points="593.443,-76.3753 601.806,-69.8705 591.212,-69.7404 593.443,-76.3753"/>
<text text-anchor="middle" x="541.659" y="-127.8" font-family="Times,serif" font-size="14.00">10</text>
</g>
<!-- MainThread -->
<g id="node10" class="node"><title>MainThread</title>
<ellipse fill="none" stroke="black" cx="54.5952" cy="-147" rx="54.6905" ry="18"/>
<text text-anchor="middle" x="54.5952" y="-143.3" font-family="Times,serif" font-size="14.00">MainThread</text>
</g>
<!-- MainThread&#45;&gt;Thread&#45;gRPC&#45;SubscribeMoot -->
<g id="edge7" class="edge"><title>MainThread&#45;&gt;Thread&#45;gRPC&#45;SubscribeMoot</title>
<path fill="none" stroke="black" d="M63.4184,-165.108C77.6665,-195.764 110.9,-257.517 159.19,-288 183.206,-303.16 212.422,-311.852 240.173,-316.755"/>
<polygon fill="black" stroke="black" points="239.888,-320.255 250.318,-318.395 241.005,-313.344 239.888,-320.255"/>
<text text-anchor="middle" x="134.19" y="-276.8" font-family="Times,serif" font-size="14.00">2</text>
</g>
<!-- MainThread&#45;&gt;Thread&#45;MonitorBatchPublisher -->
<g id="edge9" class="edge"><title>MainThread&#45;&gt;Thread&#45;MonitorBatchPublisher</title>
<path fill="none" stroke="black" d="M79.8747,-163.214C100.354,-176.356 130.788,-194.657 159.19,-207 194.455,-222.326 235.425,-235.089 269.136,-244.353"/>
<polygon fill="black" stroke="black" points="268.327,-247.76 278.894,-246.993 270.155,-241.003 268.327,-247.76"/>
<text text-anchor="middle" x="134.19" y="-201.8" font-family="Times,serif" font-size="14.00">16</text>
</g>
<!-- MainThread&#45;&gt;Thread&#45;ConsumerHelper&#45;ConsumeBidirectionalStream -->
<g id="edge11" class="edge"><title>MainThread&#45;&gt;Thread&#45;ConsumerHelper&#45;ConsumeBidirectionalStream</title>
<path fill="none" stroke="black" d="M106.216,-152.938C135.426,-156.364 173.572,-160.839 210.41,-165.16"/>
<polygon fill="black" stroke="black" points="210.417,-168.685 220.757,-166.374 211.233,-161.732 210.417,-168.685"/>
</g>
<!-- Thread&#45;gRPC&#45;PluginGetMetadata -->
<g id="node11" class="node"><title>Thread&#45;gRPC&#45;PluginGetMetadata</title>
<ellipse fill="none" stroke="black" cx="337.924" cy="-126" rx="103.182" ry="18"/>
<text text-anchor="middle" x="337.924" y="-122.3" font-family="Times,serif" font-size="14.00">gRPC&#45;PluginGetMetadata</text>
</g>
<!-- MainThread&#45;&gt;Thread&#45;gRPC&#45;PluginGetMetadata -->
<g id="edge8" class="edge"><title>MainThread&#45;&gt;Thread&#45;gRPC&#45;PluginGetMetadata</title>
<path fill="none" stroke="black" d="M106.41,-141.009C113.386,-140.278 120.462,-139.584 127.19,-139 160.128,-136.141 196.03,-133.677 228.668,-131.686"/>
<polygon fill="black" stroke="black" points="228.914,-135.178 238.686,-131.084 228.494,-128.191 228.914,-135.178"/>
<text text-anchor="middle" x="134.19" y="-142.8" font-family="Times,serif" font-size="14.00">4</text>
</g>
<!-- Thread&#45;ConsumerHelper&#45;CallbackRequestsWorker -->
<g id="node12" class="node"><title>Thread&#45;ConsumerHelper&#45;CallbackRequestsWorker</title>
<ellipse fill="none" stroke="black" cx="337.924" cy="-72" rx="164.371" ry="18"/>
<text text-anchor="middle" x="337.924" y="-68.3" font-family="Times,serif" font-size="14.00">ConsumerHelper&#45;CallbackRequestsWorker</text>
</g>
<!-- MainThread&#45;&gt;Thread&#45;ConsumerHelper&#45;CallbackRequestsWorker -->
<g id="edge10" class="edge"><title>MainThread&#45;&gt;Thread&#45;ConsumerHelper&#45;CallbackRequestsWorker</title>
<path fill="none" stroke="black" d="M83.3265,-131.52C103.718,-120.798 132.427,-107.054 159.19,-99 175.679,-94.0377 193.316,-89.9602 210.84,-86.6167"/>
<polygon fill="black" stroke="black" points="211.93,-89.9755 221.136,-84.7317 210.669,-83.0899 211.93,-89.9755"/>
</g>
<!-- Thread&#45;LeaseMaintenance -->
<g id="node13" class="node"><title>Thread&#45;LeaseMaintenance</title>
<ellipse fill="none" stroke="black" cx="337.924" cy="-18" rx="77.1866" ry="18"/>
<text text-anchor="middle" x="337.924" y="-14.3" font-family="Times,serif" font-size="14.00">LeaseMaintenance</text>
</g>
<!-- MainThread&#45;&gt;Thread&#45;LeaseMaintenance -->
<g id="edge12" class="edge"><title>MainThread&#45;&gt;Thread&#45;LeaseMaintenance</title>
<path fill="none" stroke="black" d="M67.9852,-129.169C85.3994,-105.641 119.469,-64.8882 159.19,-45 187.147,-31.0022 220.44,-23.825 250.612,-20.2739"/>
<polygon fill="black" stroke="black" points="251.136,-23.738 260.712,-19.204 250.399,-16.777 251.136,-23.738"/>
</g>
</g>
</svg>
