<?xml version="1.0" encoding="UTF-8" standalone="no"?>
<!DOCTYPE svg PUBLIC "-//W3C//DTD SVG 1.1//EN"
 "http://www.w3.org/Graphics/SVG/1.1/DTD/svg11.dtd">
<!-- Generated by graphviz version 2.38.0 (20140413.2041)
 -->
<!-- Title: G Pages: 1 -->
<svg width="790pt" height="354pt"
 viewBox="0.00 0.00 790.44 354.00" xmlns="http://www.w3.org/2000/svg" xmlns:xlink="http://www.w3.org/1999/xlink">
<g id="graph0" class="graph" transform="scale(1 1) rotate(0) translate(4 350)">
<title>G</title>
<polygon fill="white" stroke="none" points="-4,4 -4,-350 786.439,-350 786.439,4 -4,4"/>
<!-- Thread&#45;gRPC&#45;SubscribeMoot -->
<g id="node1" class="node"><title>Thread&#45;gRPC&#45;SubscribeMoot</title>
<ellipse fill="none" stroke="black" cx="299.578" cy="-322" rx="89.0842" ry="18"/>
<text text-anchor="middle" x="299.578" y="-318.3" font-family="Times,serif" font-size="14.00">gRPC&#45;SubscribeMoot</text>
</g>
<!-- Thread&#45;gRPC&#45;SpawnDelivery -->
<g id="node2" class="node"><title>Thread&#45;gRPC&#45;SpawnDelivery</title>
<ellipse fill="none" stroke="black" cx="636.202" cy="-328" rx="89.0842" ry="18"/>
<text text-anchor="middle" x="636.202" y="-324.3" font-family="Times,serif" font-size="14.00">gRPC&#45;SpawnDelivery</text>
</g>
<!-- Thread&#45;gRPC&#45;SubscribeMoot&#45;&gt;Thread&#45;gRPC&#45;SpawnDelivery -->
<g id="edge1" class="edge"><title>Thread&#45;gRPC&#45;SubscribeMoot&#45;&gt;Thread&#45;gRPC&#45;SpawnDelivery</title>
<path fill="none" stroke="black" d="M388.497,-323.576C434.138,-324.395 490.042,-325.397 537.086,-326.241"/>
<polygon fill="black" stroke="black" points="537.229,-329.744 547.291,-326.424 537.355,-322.745 537.229,-329.744"/>
</g>
<!-- Thread&#45;MonitorBatchPublisher -->
<g id="node3" class="node"><title>Thread&#45;MonitorBatchPublisher</title>
<ellipse fill="none" stroke="black" cx="299.578" cy="-261" rx="93.6835" ry="18"/>
<text text-anchor="middle" x="299.578" y="-257.3" font-family="Times,serif" font-size="14.00">MonitorBatchPublisher</text>
</g>
<!-- Thread&#45;gRPC&#45;PluginGetMetadata++ -->
<g id="node4" class="node"><title>Thread&#45;gRPC&#45;PluginGetMetadata++</title>
<ellipse fill="none" stroke="black" cx="636.202" cy="-274" rx="103.182" ry="18"/>
<text text-anchor="middle" x="636.202" y="-270.3" font-family="Times,serif" font-size="14.00">gRPC&#45;PluginGetMetadata</text>
</g>
<!-- Thread&#45;MonitorBatchPublisher&#45;&gt;Thread&#45;gRPC&#45;PluginGetMetadata++ -->
<g id="edge2" class="edge"><title>Thread&#45;MonitorBatchPublisher&#45;&gt;Thread&#45;gRPC&#45;PluginGetMetadata++</title>
<path fill="none" stroke="black" d="M391.573,-264.535C432.78,-266.136 481.846,-268.042 525.109,-269.723"/>
<polygon fill="black" stroke="black" points="524.978,-273.22 535.106,-270.111 525.25,-266.226 524.978,-273.22"/>
</g>
<!-- Thread&#45;ConsumeBidirectionalStream -->
<g id="node5" class="node"><title>Thread&#45;ConsumeBidirectionalStream</title>
<ellipse fill="none" stroke="black" cx="299.578" cy="-180" rx="115.88" ry="18"/>
<text text-anchor="middle" x="299.578" y="-176.3" font-family="Times,serif" font-size="14.00">ConsumeBidirectionalStream</text>
</g>
<!-- Thread&#45;gRPC&#45;PluginGetMetadata++++++++++++++++++ -->
<g id="node6" class="node"><title>Thread&#45;gRPC&#45;PluginGetMetadata++++++++++++++++++</title>
<ellipse fill="none" stroke="black" cx="636.202" cy="-220" rx="103.182" ry="18"/>
<text text-anchor="middle" x="636.202" y="-216.3" font-family="Times,serif" font-size="14.00">gRPC&#45;PluginGetMetadata</text>
</g>
<!-- Thread&#45;ConsumeBidirectionalStream&#45;&gt;Thread&#45;gRPC&#45;PluginGetMetadata++++++++++++++++++ -->
<g id="edge3" class="edge"><title>Thread&#45;ConsumeBidirectionalStream&#45;&gt;Thread&#45;gRPC&#45;PluginGetMetadata++++++++++++++++++</title>
<path fill="none" stroke="black" d="M392.015,-190.93C438.077,-196.436 493.872,-203.106 540.395,-208.667"/>
<polygon fill="black" stroke="black" points="540.134,-212.161 550.479,-209.872 540.965,-205.21 540.134,-212.161"/>
</g>
<!-- Thread&#45;gRPC&#45;StopChannelSpin -->
<g id="node7" class="node"><title>Thread&#45;gRPC&#45;StopChannelSpin</title>
<ellipse fill="none" stroke="black" cx="636.202" cy="-166" rx="96.3833" ry="18"/>
<text text-anchor="middle" x="636.202" y="-162.3" font-family="Times,serif" font-size="14.00">gRPC&#45;StopChannelSpin</text>
</g>
<!-- Thread&#45;ConsumeBidirectionalStream&#45;&gt;Thread&#45;gRPC&#45;StopChannelSpin -->
<g id="edge4" class="edge"><title>Thread&#45;ConsumeBidirectionalStream&#45;&gt;Thread&#45;gRPC&#45;StopChannelSpin</title>
<path fill="none" stroke="black" d="M411.538,-175.358C450.396,-173.732 493.845,-171.914 532.038,-170.316"/>
<polygon fill="black" stroke="black" points="532.299,-173.808 542.144,-169.893 532.006,-166.815 532.299,-173.808"/>
</g>
<!-- Thread&#45;gRPC&#45;ConsumeRequestIterator -->
<g id="node8" class="node"><title>Thread&#45;gRPC&#45;ConsumeRequestIterator</title>
<ellipse fill="none" stroke="black" cx="636.202" cy="-112" rx="122.379" ry="18"/>
<text text-anchor="middle" x="636.202" y="-108.3" font-family="Times,serif" font-size="14.00">gRPC&#45;ConsumeRequestIterator</text>
</g>
<!-- Thread&#45;ConsumeBidirectionalStream&#45;&gt;Thread&#45;gRPC&#45;ConsumeRequestIterator -->
<g id="edge5" class="edge"><title>Thread&#45;ConsumeBidirectionalStream&#45;&gt;Thread&#45;gRPC&#45;ConsumeRequestIterator</title>
<path fill="none" stroke="black" d="M376.414,-166.476C397.098,-162.471 419.456,-157.849 439.965,-153 462.423,-147.69 467.488,-144.225 489.965,-139 507.858,-134.841 527.108,-130.895 545.555,-127.369"/>
<polygon fill="black" stroke="black" points="546.233,-130.803 555.411,-125.51 544.936,-123.925 546.233,-130.803"/>
</g>
<!-- ThreadPoolExecutor&#45;SubscriberPolicy -->
<g id="node9" class="node"><title>ThreadPoolExecutor&#45;SubscriberPolicy</title>
<ellipse fill="none" stroke="black" cx="636.202" cy="-58" rx="146.474" ry="18"/>
<text text-anchor="middle" x="636.202" y="-54.3" font-family="Times,serif" font-size="14.00">ThreadPoolExecutor&#45;SubscriberPolicy</text>
</g>
<!-- Thread&#45;ConsumeBidirectionalStream&#45;&gt;ThreadPoolExecutor&#45;SubscriberPolicy -->
<g id="edge6" class="edge"><title>Thread&#45;ConsumeBidirectionalStream&#45;&gt;ThreadPoolExecutor&#45;SubscriberPolicy</title>
<path fill="none" stroke="black" d="M400.616,-171.087C414.6,-166.933 428.193,-161.111 439.965,-153 452.457,-144.393 449.135,-136.335 457.965,-124 471.017,-105.769 470.663,-96.407 489.965,-85 497.911,-80.3048 506.492,-76.3961 515.373,-73.1455"/>
<polygon fill="black" stroke="black" points="516.75,-76.3753 525.112,-69.8705 514.518,-69.7404 516.75,-76.3753"/>
<text text-anchor="middle" x="464.965" y="-127.8" font-family="Times,serif" font-size="14.00">10</text>
</g>
<!-- MainThread -->
<g id="node10" class="node"><title>MainThread</title>
<ellipse fill="none" stroke="black" cx="54.5952" cy="-147" rx="54.6905" ry="18"/>
<text text-anchor="middle" x="54.5952" y="-143.3" font-family="Times,serif" font-size="14.00">MainThread</text>
</g>
<!-- MainThread&#45;&gt;Thread&#45;gRPC&#45;SubscribeMoot -->
<g id="edge7" class="edge"><title>MainThread&#45;&gt;Thread&#45;gRPC&#45;SubscribeMoot</title>
<path fill="none" stroke="black" d="M63.5837,-164.853C78.0813,-195.124 111.681,-256.313 159.19,-288 174.824,-298.427 193.348,-305.661 211.702,-310.678"/>
<polygon fill="black" stroke="black" points="211.01,-314.114 221.563,-313.175 212.728,-307.328 211.01,-314.114"/>
<text text-anchor="middle" x="134.19" y="-276.8" font-family="Times,serif" font-size="14.00">2</text>
</g>
<!-- MainThread&#45;&gt;Thread&#45;MonitorBatchPublisher -->
<g id="edge9" class="edge"><title>MainThread&#45;&gt;Thread&#45;MonitorBatchPublisher</title>
<path fill="none" stroke="black" d="M80.5431,-162.922C101.165,-175.721 131.456,-193.695 159.19,-207 186.267,-219.989 217.345,-232.269 243.275,-241.826"/>
<polygon fill="black" stroke="black" points="242.347,-245.214 252.941,-245.352 244.746,-238.637 242.347,-245.214"/>
<text text-anchor="middle" x="134.19" y="-199.8" font-family="Times,serif" font-size="14.00">16</text>
</g>
<!-- MainThread&#45;&gt;Thread&#45;ConsumeBidirectionalStream -->
<g id="edge11" class="edge"><title>MainThread&#45;&gt;Thread&#45;ConsumeBidirectionalStream</title>
<path fill="none" stroke="black" d="M105.353,-153.758C133.035,-157.517 168.457,-162.328 201.395,-166.801"/>
<polygon fill="black" stroke="black" points="201.146,-170.3 211.526,-168.177 202.088,-163.363 201.146,-170.3"/>
</g>
<!-- Thread&#45;gRPC&#45;PluginGetMetadata -->
<g id="node11" class="node"><title>Thread&#45;gRPC&#45;PluginGetMetadata</title>
<ellipse fill="none" stroke="black" cx="299.578" cy="-126" rx="103.182" ry="18"/>
<text text-anchor="middle" x="299.578" y="-122.3" font-family="Times,serif" font-size="14.00">gRPC&#45;PluginGetMetadata</text>
</g>
<!-- MainThread&#45;&gt;Thread&#45;gRPC&#45;PluginGetMetadata -->
<g id="edge8" class="edge"><title>MainThread&#45;&gt;Thread&#45;gRPC&#45;PluginGetMetadata</title>
<path fill="none" stroke="black" d="M106.417,-141.095C113.393,-140.351 120.466,-139.631 127.19,-139 148.575,-136.995 171.482,-135.09 193.366,-133.387"/>
<polygon fill="black" stroke="black" points="193.638,-136.876 203.34,-132.619 193.101,-129.897 193.638,-136.876"/>
<text text-anchor="middle" x="134.19" y="-142.8" font-family="Times,serif" font-size="14.00">5</text>
</g>
<!-- Thread&#45;Consumer&#45;CallbackRequestsWorker -->
<g id="node12" class="node"><title>Thread&#45;Consumer&#45;CallbackRequestsWorker</title>
<ellipse fill="none" stroke="black" cx="299.578" cy="-72" rx="140.275" ry="18"/>
<text text-anchor="middle" x="299.578" y="-68.3" font-family="Times,serif" font-size="14.00">Consumer&#45;CallbackRequestsWorker</text>
</g>
<!-- MainThread&#45;&gt;Thread&#45;Consumer&#45;CallbackRequestsWorker -->
<g id="edge10" class="edge"><title>MainThread&#45;&gt;Thread&#45;Consumer&#45;CallbackRequestsWorker</title>
<path fill="none" stroke="black" d="M83.8649,-131.622C104.278,-121.09 132.784,-107.535 159.19,-99 172.119,-94.8214 185.942,-91.1905 199.675,-88.0652"/>
<polygon fill="black" stroke="black" points="200.627,-91.4396 209.645,-85.8782 199.127,-84.6022 200.627,-91.4396"/>
</g>
<!-- Thread&#45;LeaseMaintenance -->
<g id="node13" class="node"><title>Thread&#45;LeaseMaintenance</title>
<ellipse fill="none" stroke="black" cx="299.578" cy="-18" rx="77.1866" ry="18"/>
<text text-anchor="middle" x="299.578" y="-14.3" font-family="Times,serif" font-size="14.00">LeaseMaintenance</text>
</g>
<!-- MainThread&#45;&gt;Thread&#45;LeaseMaintenance -->
<g id="edge12" class="edge"><title>MainThread&#45;&gt;Thread&#45;LeaseMaintenance</title>
<path fill="none" stroke="black" d="M68.1058,-129.404C85.6567,-106.142 119.88,-65.6899 159.19,-45 176.557,-35.8592 196.605,-29.7925 215.986,-25.772"/>
<polygon fill="black" stroke="black" points="216.876,-29.1652 226.042,-23.8506 215.563,-22.2895 216.876,-29.1652"/>
</g>
</g>
</svg>
