<?xml version="1.0" encoding="UTF-8" standalone="no"?>
<!DOCTYPE svg PUBLIC "-//W3C//DTD SVG 1.1//EN"
 "http://www.w3.org/Graphics/SVG/1.1/DTD/svg11.dtd">
<!-- Generated by graphviz version 2.38.0 (20140413.2041)
 -->
<!-- Title: G Pages: 1 -->
<svg width="810pt" height="287pt"
 viewBox="0.00 0.00 810.24 287.00" xmlns="http://www.w3.org/2000/svg" xmlns:xlink="http://www.w3.org/1999/xlink">
<g id="graph0" class="graph" transform="scale(1 1) rotate(0) translate(4 283)">
<title>G</title>
<polygon fill="white" stroke="none" points="-4,4 -4,-283 806.236,-283 806.236,4 -4,4"/>
<!-- Thread&#45;gRPC&#45;SubscribeMoot -->
<g id="node1" class="node"><title>Thread&#45;gRPC&#45;SubscribeMoot</title>
<ellipse fill="none" stroke="black" cx="333.524" cy="-248" rx="89.0842" ry="18"/>
<text text-anchor="middle" x="333.524" y="-244.3" font-family="Times,serif" font-size="14.00">gRPC&#45;SubscribeMoot</text>
</g>
<!-- Thread&#45;gRPC&#45;SpawnDelivery -->
<g id="node2" class="node"><title>Thread&#45;gRPC&#45;SpawnDelivery</title>
<ellipse fill="none" stroke="black" cx="680.047" cy="-261" rx="89.0842" ry="18"/>
<text text-anchor="middle" x="680.047" y="-257.3" font-family="Times,serif" font-size="14.00">gRPC&#45;SpawnDelivery</text>
</g>
<!-- Thread&#45;gRPC&#45;SubscribeMoot&#45;&gt;Thread&#45;gRPC&#45;SpawnDelivery -->
<g id="edge1" class="edge"><title>Thread&#45;gRPC&#45;SubscribeMoot&#45;&gt;Thread&#45;gRPC&#45;SpawnDelivery</title>
<path fill="none" stroke="black" d="M421.462,-251.28C470.416,-253.128 531.67,-255.439 582.161,-257.344"/>
<polygon fill="black" stroke="black" points="582.311,-260.852 592.436,-257.732 582.575,-253.857 582.311,-260.852"/>
</g>
<!-- Consumer helper: consume bidirectional stream -->
<g id="node3" class="node"><title>Consumer helper: consume bidirectional stream</title>
<ellipse fill="none" stroke="black" cx="333.524" cy="-180" rx="181.168" ry="18"/>
<text text-anchor="middle" x="333.524" y="-176.3" font-family="Times,serif" font-size="14.00">Consumer helper: consume bidirectional stream</text>
</g>
<!-- Thread&#45;gRPC&#45;PluginGetMetadata++ -->
<g id="node4" class="node"><title>Thread&#45;gRPC&#45;PluginGetMetadata++</title>
<ellipse fill="none" stroke="black" cx="680.047" cy="-207" rx="103.182" ry="18"/>
<text text-anchor="middle" x="680.047" y="-203.3" font-family="Times,serif" font-size="14.00">gRPC&#45;PluginGetMetadata</text>
</g>
<!-- Consumer helper: consume bidirectional stream&#45;&gt;Thread&#45;gRPC&#45;PluginGetMetadata++ -->
<g id="edge2" class="edge"><title>Consumer helper: consume bidirectional stream&#45;&gt;Thread&#45;gRPC&#45;PluginGetMetadata++</title>
<path fill="none" stroke="black" d="M476.644,-191.138C509.617,-193.722 544.111,-196.425 575.089,-198.853"/>
<polygon fill="black" stroke="black" points="575.209,-202.373 585.452,-199.665 575.756,-195.394 575.209,-202.373"/>
<text text-anchor="middle" x="536.358" y="-198.8" font-family="Times,serif" font-size="14.00">4</text>
</g>
<!-- Thread&#45;gRPC&#45;StopChannelSpin -->
<g id="node5" class="node"><title>Thread&#45;gRPC&#45;StopChannelSpin</title>
<ellipse fill="none" stroke="black" cx="680.047" cy="-153" rx="96.3833" ry="18"/>
<text text-anchor="middle" x="680.047" y="-149.3" font-family="Times,serif" font-size="14.00">gRPC&#45;StopChannelSpin</text>
</g>
<!-- Consumer helper: consume bidirectional stream&#45;&gt;Thread&#45;gRPC&#45;StopChannelSpin -->
<g id="edge3" class="edge"><title>Consumer helper: consume bidirectional stream&#45;&gt;Thread&#45;gRPC&#45;StopChannelSpin</title>
<path fill="none" stroke="black" d="M476.644,-168.862C511.6,-166.123 548.266,-163.249 580.639,-160.712"/>
<polygon fill="black" stroke="black" points="581.295,-164.172 590.991,-159.901 580.748,-157.193 581.295,-164.172"/>
<text text-anchor="middle" x="536.358" y="-167.8" font-family="Times,serif" font-size="14.00">4</text>
</g>
<!-- Thread&#45;gRPC&#45;ConsumeRequestIterator -->
<g id="node6" class="node"><title>Thread&#45;gRPC&#45;ConsumeRequestIterator</title>
<ellipse fill="none" stroke="black" cx="680.047" cy="-99" rx="122.379" ry="18"/>
<text text-anchor="middle" x="680.047" y="-95.3" font-family="Times,serif" font-size="14.00">gRPC&#45;ConsumeRequestIterator</text>
</g>
<!-- Consumer helper: consume bidirectional stream&#45;&gt;Thread&#45;gRPC&#45;ConsumeRequestIterator -->
<g id="edge4" class="edge"><title>Consumer helper: consume bidirectional stream&#45;&gt;Thread&#45;gRPC&#45;ConsumeRequestIterator</title>
<path fill="none" stroke="black" d="M463.267,-167.385C480.895,-163.741 498.53,-159.046 514.858,-153 536.02,-145.164 536.986,-134.578 557.858,-126 567.933,-121.859 578.752,-118.301 589.629,-115.257"/>
<polygon fill="black" stroke="black" points="590.849,-118.555 599.615,-112.604 589.052,-111.789 590.849,-118.555"/>
<text text-anchor="middle" x="536.358" y="-145.8" font-family="Times,serif" font-size="14.00">4</text>
</g>
<!-- MainThread -->
<g id="node7" class="node"><title>MainThread</title>
<ellipse fill="none" stroke="black" cx="54.5952" cy="-126" rx="54.6905" ry="18"/>
<text text-anchor="middle" x="54.5952" y="-122.3" font-family="Times,serif" font-size="14.00">MainThread</text>
</g>
<!-- MainThread&#45;&gt;Thread&#45;gRPC&#45;SubscribeMoot -->
<g id="edge5" class="edge"><title>MainThread&#45;&gt;Thread&#45;gRPC&#45;SubscribeMoot</title>
<path fill="none" stroke="black" d="M71.2726,-143.343C89.0661,-161.938 119.843,-190.946 152.19,-207 181.385,-221.49 215.783,-230.935 246.666,-237.058"/>
<polygon fill="black" stroke="black" points="246.082,-240.509 256.558,-238.931 247.384,-233.631 246.082,-240.509"/>
<text text-anchor="middle" x="130.69" y="-197.8" font-family="Times,serif" font-size="14.00">2</text>
</g>
<!-- MainThread&#45;&gt;Consumer helper: consume bidirectional stream -->
<g id="edge8" class="edge"><title>MainThread&#45;&gt;Consumer helper: consume bidirectional stream</title>
<path fill="none" stroke="black" d="M95.2665,-138.285C112.619,-143.347 133.289,-148.96 152.19,-153 171.611,-157.151 192.343,-160.89 212.578,-164.168"/>
<polygon fill="black" stroke="black" points="212.037,-167.626 222.463,-165.74 213.137,-160.713 212.037,-167.626"/>
</g>
<!-- Thread&#45;gRPC&#45;PluginGetMetadata -->
<g id="node8" class="node"><title>Thread&#45;gRPC&#45;PluginGetMetadata</title>
<ellipse fill="none" stroke="black" cx="333.524" cy="-126" rx="103.182" ry="18"/>
<text text-anchor="middle" x="333.524" y="-122.3" font-family="Times,serif" font-size="14.00">gRPC&#45;PluginGetMetadata</text>
</g>
<!-- MainThread&#45;&gt;Thread&#45;gRPC&#45;PluginGetMetadata -->
<g id="edge6" class="edge"><title>MainThread&#45;&gt;Thread&#45;gRPC&#45;PluginGetMetadata</title>
<path fill="none" stroke="black" d="M109.318,-126C140.795,-126 181.764,-126 219.997,-126"/>
<polygon fill="black" stroke="black" points="220.173,-129.5 230.173,-126 220.173,-122.5 220.173,-129.5"/>
<text text-anchor="middle" x="130.69" y="-129.8" font-family="Times,serif" font-size="14.00">5</text>
</g>
<!-- Consumer helper: callback requests worker -->
<g id="node9" class="node"><title>Consumer helper: callback requests worker</title>
<ellipse fill="none" stroke="black" cx="333.524" cy="-72" rx="164.371" ry="18"/>
<text text-anchor="middle" x="333.524" y="-68.3" font-family="Times,serif" font-size="14.00">Consumer helper: callback requests worker</text>
</g>
<!-- MainThread&#45;&gt;Consumer helper: callback requests worker -->
<g id="edge7" class="edge"><title>MainThread&#45;&gt;Consumer helper: callback requests worker</title>
<path fill="none" stroke="black" d="M95.2665,-113.715C112.619,-108.653 133.289,-103.04 152.19,-99 172.769,-94.6012 194.819,-90.6664 216.189,-87.2511"/>
<polygon fill="black" stroke="black" points="216.946,-90.6753 226.283,-85.6678 215.861,-83.7599 216.946,-90.6753"/>
</g>
<!-- Thread&#45;LeaseMaintenance -->
<g id="node10" class="node"><title>Thread&#45;LeaseMaintenance</title>
<ellipse fill="none" stroke="black" cx="333.524" cy="-18" rx="77.1866" ry="18"/>
<text text-anchor="middle" x="333.524" y="-14.3" font-family="Times,serif" font-size="14.00">LeaseMaintenance</text>
</g>
<!-- MainThread&#45;&gt;Thread&#45;LeaseMaintenance -->
<g id="edge9" class="edge"><title>MainThread&#45;&gt;Thread&#45;LeaseMaintenance</title>
<path fill="none" stroke="black" d="M70.7347,-108.538C88.2838,-89.5492 119.065,-59.9206 152.19,-45 181.364,-31.8591 215.612,-24.8859 246.38,-21.2586"/>
<polygon fill="black" stroke="black" points="247.1,-24.7015 256.669,-20.1527 246.352,-17.7416 247.1,-24.7015"/>
</g>
</g>
</svg>
