<?xml version="1.0" encoding="UTF-8" standalone="no"?>
<!DOCTYPE svg PUBLIC "-//W3C//DTD SVG 1.1//EN"
 "http://www.w3.org/Graphics/SVG/1.1/DTD/svg11.dtd">
<!-- Generated by graphviz version 2.38.0 (20140413.2041)
 -->
<!-- Title: %3 Pages: 1 -->
<svg width="3736pt" height="188pt"
 viewBox="0.00 0.00 3735.68 188.00" xmlns="http://www.w3.org/2000/svg" xmlns:xlink="http://www.w3.org/1999/xlink">
<g id="graph0" class="graph" transform="scale(1 1) rotate(0) translate(4 184)">
<title>%3</title>
<polygon fill="white" stroke="none" points="-4,4 -4,-184 3731.68,-184 3731.68,4 -4,4"/>
<!-- MainThread -->
<g id="node1" class="node"><title>MainThread</title>
<ellipse fill="none" stroke="black" cx="1053.94" cy="-162" rx="54.6905" ry="18"/>
<text text-anchor="middle" x="1053.94" y="-158.3" font-family="Times,serif" font-size="14.00">MainThread</text>
</g>
<!-- gRPC&#45;SubscribeMoot0 -->
<g id="node2" class="node"><title>gRPC&#45;SubscribeMoot0</title>
<ellipse fill="none" stroke="black" cx="92.9418" cy="-90" rx="92.8835" ry="18"/>
<text text-anchor="middle" x="92.9418" y="-86.3" font-family="Times,serif" font-size="14.00">gRPC&#45;SubscribeMoot0</text>
</g>
<!-- MainThread&#45;&gt;gRPC&#45;SubscribeMoot0 -->
<g id="edge1" class="edge"><title>MainThread&#45;&gt;gRPC&#45;SubscribeMoot0</title>
<path fill="none" stroke="black" d="M999.5,-159.597C863.448,-155.666 497.792,-142.487 194.942,-108 186.259,-107.011 177.19,-105.784 168.195,-104.444"/>
<polygon fill="black" stroke="black" points="168.513,-100.952 158.097,-102.891 167.448,-107.871 168.513,-100.952"/>
</g>
<!-- gRPC&#45;SubscribeMoot1 -->
<g id="node3" class="node"><title>gRPC&#45;SubscribeMoot1</title>
<ellipse fill="none" stroke="black" cx="296.942" cy="-90" rx="92.8835" ry="18"/>
<text text-anchor="middle" x="296.942" y="-86.3" font-family="Times,serif" font-size="14.00">gRPC&#45;SubscribeMoot1</text>
</g>
<!-- MainThread&#45;&gt;gRPC&#45;SubscribeMoot1 -->
<g id="edge2" class="edge"><title>MainThread&#45;&gt;gRPC&#45;SubscribeMoot1</title>
<path fill="none" stroke="black" d="M1000.3,-158.197C888.275,-152.006 621.43,-135.492 398.942,-108 390.398,-106.944 381.476,-105.688 372.617,-104.342"/>
<polygon fill="black" stroke="black" points="373.086,-100.873 362.666,-102.792 372.008,-107.79 373.086,-100.873"/>
</g>
<!-- gRPC&#45;PluginGetMetadata0 -->
<g id="node4" class="node"><title>gRPC&#45;PluginGetMetadata0</title>
<ellipse fill="none" stroke="black" cx="515.942" cy="-90" rx="107.781" ry="18"/>
<text text-anchor="middle" x="515.942" y="-86.3" font-family="Times,serif" font-size="14.00">gRPC&#45;PluginGetMetadata0</text>
</g>
<!-- MainThread&#45;&gt;gRPC&#45;PluginGetMetadata0 -->
<g id="edge3" class="edge"><title>MainThread&#45;&gt;gRPC&#45;PluginGetMetadata0</title>
<path fill="none" stroke="black" d="M1003.35,-154.947C924.261,-145.413 766.53,-126.112 632.942,-108 623.507,-106.721 613.65,-105.347 603.833,-103.955"/>
<polygon fill="black" stroke="black" points="604.031,-100.448 593.637,-102.501 603.043,-107.378 604.031,-100.448"/>
</g>
<!-- gRPC&#45;PluginGetMetadata1 -->
<g id="node5" class="node"><title>gRPC&#45;PluginGetMetadata1</title>
<ellipse fill="none" stroke="black" cx="749.942" cy="-90" rx="107.781" ry="18"/>
<text text-anchor="middle" x="749.942" y="-86.3" font-family="Times,serif" font-size="14.00">gRPC&#45;PluginGetMetadata1</text>
</g>
<!-- MainThread&#45;&gt;gRPC&#45;PluginGetMetadata1 -->
<g id="edge4" class="edge"><title>MainThread&#45;&gt;gRPC&#45;PluginGetMetadata1</title>
<path fill="none" stroke="black" d="M1010.39,-150.971C960.8,-139.553 879.086,-120.737 820.404,-107.225"/>
<polygon fill="black" stroke="black" points="820.991,-103.769 810.461,-104.935 819.421,-110.59 820.991,-103.769"/>
</g>
<!-- LeaseMaintenance -->
<g id="node7" class="node"><title>LeaseMaintenance</title>
<ellipse fill="none" stroke="black" cx="952.942" cy="-90" rx="77.1866" ry="18"/>
<text text-anchor="middle" x="952.942" y="-86.3" font-family="Times,serif" font-size="14.00">LeaseMaintenance</text>
</g>
<!-- MainThread&#45;&gt;LeaseMaintenance -->
<g id="edge7" class="edge"><title>MainThread&#45;&gt;LeaseMaintenance</title>
<path fill="none" stroke="black" d="M1031.53,-145.465C1017.83,-135.97 1000.08,-123.672 984.924,-113.166"/>
<polygon fill="black" stroke="black" points="986.56,-110.041 976.347,-107.222 982.572,-115.795 986.56,-110.041"/>
</g>
<!-- gRPC&#45;PluginGetMetadata6 -->
<g id="node20" class="node"><title>gRPC&#45;PluginGetMetadata6</title>
<ellipse fill="none" stroke="black" cx="1155.94" cy="-90" rx="107.781" ry="18"/>
<text text-anchor="middle" x="1155.94" y="-86.3" font-family="Times,serif" font-size="14.00">gRPC&#45;PluginGetMetadata6</text>
</g>
<!-- MainThread&#45;&gt;gRPC&#45;PluginGetMetadata6 -->
<g id="edge8" class="edge"><title>MainThread&#45;&gt;gRPC&#45;PluginGetMetadata6</title>
<path fill="none" stroke="black" d="M1076.58,-145.465C1090.22,-136.104 1107.83,-124.021 1122.99,-113.614"/>
<polygon fill="black" stroke="black" points="1125.32,-116.258 1131.59,-107.714 1121.36,-110.487 1125.32,-116.258"/>
</g>
<!-- gRPC&#45;PluginGetMetadata7 -->
<g id="node21" class="node"><title>gRPC&#45;PluginGetMetadata7</title>
<ellipse fill="none" stroke="black" cx="1389.94" cy="-90" rx="107.781" ry="18"/>
<text text-anchor="middle" x="1389.94" y="-86.3" font-family="Times,serif" font-size="14.00">gRPC&#45;PluginGetMetadata7</text>
</g>
<!-- MainThread&#45;&gt;gRPC&#45;PluginGetMetadata7 -->
<g id="edge9" class="edge"><title>MainThread&#45;&gt;gRPC&#45;PluginGetMetadata7</title>
<path fill="none" stroke="black" d="M1094.47,-149.796C1102.24,-147.773 1110.32,-145.752 1117.94,-144 1181.72,-129.333 1254.52,-115.288 1308.75,-105.345"/>
<polygon fill="black" stroke="black" points="1309.44,-108.777 1318.65,-103.538 1308.18,-101.891 1309.44,-108.777"/>
</g>
<!-- gRPC&#45;PluginGetMetadata8 -->
<g id="node22" class="node"><title>gRPC&#45;PluginGetMetadata8</title>
<ellipse fill="none" stroke="black" cx="1623.94" cy="-90" rx="107.781" ry="18"/>
<text text-anchor="middle" x="1623.94" y="-86.3" font-family="Times,serif" font-size="14.00">gRPC&#45;PluginGetMetadata8</text>
</g>
<!-- MainThread&#45;&gt;gRPC&#45;PluginGetMetadata8 -->
<g id="edge10" class="edge"><title>MainThread&#45;&gt;gRPC&#45;PluginGetMetadata8</title>
<path fill="none" stroke="black" d="M1093.31,-149.436C1101.4,-147.373 1109.91,-145.429 1117.94,-144 1288.89,-113.607 1334.53,-128.49 1506.94,-108 1516.73,-106.837 1526.95,-105.513 1537.12,-104.128"/>
<polygon fill="black" stroke="black" points="1537.81,-107.566 1547.24,-102.728 1536.85,-100.632 1537.81,-107.566"/>
</g>
<!-- Consumer helper: callback requests worker -->
<g id="node23" class="node"><title>Consumer helper: callback requests worker</title>
<ellipse fill="none" stroke="black" cx="1913.94" cy="-90" rx="164.371" ry="18"/>
<text text-anchor="middle" x="1913.94" y="-86.3" font-family="Times,serif" font-size="14.00">Consumer helper: callback requests worker</text>
</g>
<!-- MainThread&#45;&gt;Consumer helper: callback requests worker -->
<g id="edge5" class="edge"><title>MainThread&#45;&gt;Consumer helper: callback requests worker</title>
<path fill="none" stroke="black" d="M1092.93,-149.305C1101.13,-147.225 1109.77,-145.308 1117.94,-144 1391.81,-100.176 1464.43,-129.566 1740.94,-108 1756.51,-106.785 1772.86,-105.367 1789.03,-103.877"/>
<polygon fill="black" stroke="black" points="1789.44,-107.354 1799.07,-102.941 1788.79,-100.385 1789.44,-107.354"/>
</g>
<!-- Consumer helper: consume bidirectional stream -->
<g id="node24" class="node"><title>Consumer helper: consume bidirectional stream</title>
<ellipse fill="none" stroke="black" cx="2277.94" cy="-90" rx="181.168" ry="18"/>
<text text-anchor="middle" x="2277.94" y="-86.3" font-family="Times,serif" font-size="14.00">Consumer helper: consume bidirectional stream</text>
</g>
<!-- MainThread&#45;&gt;Consumer helper: consume bidirectional stream -->
<g id="edge6" class="edge"><title>MainThread&#45;&gt;Consumer helper: consume bidirectional stream</title>
<path fill="none" stroke="black" d="M1092.57,-149.261C1100.87,-147.156 1109.64,-145.241 1117.94,-144 1544.17,-80.2871 1656.83,-135.113 2086.94,-108 2105.04,-106.859 2124.08,-105.435 2142.84,-103.898"/>
<polygon fill="black" stroke="black" points="2143.25,-107.377 2152.92,-103.06 2142.67,-100.401 2143.25,-107.377"/>
</g>
<!-- Consumer helper -->
<g id="node6" class="node"><title>Consumer helper</title>
<ellipse fill="none" stroke="black" cx="1197.94" cy="-162" rx="71.4873" ry="18"/>
<text text-anchor="middle" x="1197.94" y="-158.3" font-family="Times,serif" font-size="14.00">Consumer helper</text>
</g>
<!-- gRPC&#45;PluginGetMetadata2 -->
<g id="node8" class="node"><title>gRPC&#45;PluginGetMetadata2</title>
<ellipse fill="none" stroke="black" cx="953.942" cy="-18" rx="107.781" ry="18"/>
<text text-anchor="middle" x="953.942" y="-14.3" font-family="Times,serif" font-size="14.00">gRPC&#45;PluginGetMetadata2</text>
</g>
<!-- gRPC&#45;StopChannelSpin0 -->
<g id="node9" class="node"><title>gRPC&#45;StopChannelSpin0</title>
<ellipse fill="none" stroke="black" cx="1180.94" cy="-18" rx="100.983" ry="18"/>
<text text-anchor="middle" x="1180.94" y="-14.3" font-family="Times,serif" font-size="14.00">gRPC&#45;StopChannelSpin0</text>
</g>
<!-- gRPC&#45;ConsumeRequestIterator0 -->
<g id="node10" class="node"><title>gRPC&#45;ConsumeRequestIterator0</title>
<ellipse fill="none" stroke="black" cx="1425.94" cy="-18" rx="126.978" ry="18"/>
<text text-anchor="middle" x="1425.94" y="-14.3" font-family="Times,serif" font-size="14.00">gRPC&#45;ConsumeRequestIterator0</text>
</g>
<!-- gRPC&#45;PluginGetMetadata3 -->
<g id="node11" class="node"><title>gRPC&#45;PluginGetMetadata3</title>
<ellipse fill="none" stroke="black" cx="1678.94" cy="-18" rx="107.781" ry="18"/>
<text text-anchor="middle" x="1678.94" y="-14.3" font-family="Times,serif" font-size="14.00">gRPC&#45;PluginGetMetadata3</text>
</g>
<!-- gRPC&#45;StopChannelSpin1 -->
<g id="node12" class="node"><title>gRPC&#45;StopChannelSpin1</title>
<ellipse fill="none" stroke="black" cx="1905.94" cy="-18" rx="100.983" ry="18"/>
<text text-anchor="middle" x="1905.94" y="-14.3" font-family="Times,serif" font-size="14.00">gRPC&#45;StopChannelSpin1</text>
</g>
<!-- gRPC&#45;ConsumeRequestIterator1 -->
<g id="node13" class="node"><title>gRPC&#45;ConsumeRequestIterator1</title>
<ellipse fill="none" stroke="black" cx="2150.94" cy="-18" rx="126.978" ry="18"/>
<text text-anchor="middle" x="2150.94" y="-14.3" font-family="Times,serif" font-size="14.00">gRPC&#45;ConsumeRequestIterator1</text>
</g>
<!-- gRPC&#45;PluginGetMetadata4 -->
<g id="node14" class="node"><title>gRPC&#45;PluginGetMetadata4</title>
<ellipse fill="none" stroke="black" cx="2403.94" cy="-18" rx="107.781" ry="18"/>
<text text-anchor="middle" x="2403.94" y="-14.3" font-family="Times,serif" font-size="14.00">gRPC&#45;PluginGetMetadata4</text>
</g>
<!-- gRPC&#45;StopChannelSpin2 -->
<g id="node15" class="node"><title>gRPC&#45;StopChannelSpin2</title>
<ellipse fill="none" stroke="black" cx="2630.94" cy="-18" rx="100.983" ry="18"/>
<text text-anchor="middle" x="2630.94" y="-14.3" font-family="Times,serif" font-size="14.00">gRPC&#45;StopChannelSpin2</text>
</g>
<!-- gRPC&#45;ConsumeRequestIterator2 -->
<g id="node16" class="node"><title>gRPC&#45;ConsumeRequestIterator2</title>
<ellipse fill="none" stroke="black" cx="2875.94" cy="-18" rx="126.978" ry="18"/>
<text text-anchor="middle" x="2875.94" y="-14.3" font-family="Times,serif" font-size="14.00">gRPC&#45;ConsumeRequestIterator2</text>
</g>
<!-- gRPC&#45;PluginGetMetadata5 -->
<g id="node17" class="node"><title>gRPC&#45;PluginGetMetadata5</title>
<ellipse fill="none" stroke="black" cx="3128.94" cy="-18" rx="107.781" ry="18"/>
<text text-anchor="middle" x="3128.94" y="-14.3" font-family="Times,serif" font-size="14.00">gRPC&#45;PluginGetMetadata5</text>
</g>
<!-- gRPC&#45;StopChannelSpin3 -->
<g id="node18" class="node"><title>gRPC&#45;StopChannelSpin3</title>
<ellipse fill="none" stroke="black" cx="3355.94" cy="-18" rx="100.983" ry="18"/>
<text text-anchor="middle" x="3355.94" y="-14.3" font-family="Times,serif" font-size="14.00">gRPC&#45;StopChannelSpin3</text>
</g>
<!-- gRPC&#45;ConsumeRequestIterator3 -->
<g id="node19" class="node"><title>gRPC&#45;ConsumeRequestIterator3</title>
<ellipse fill="none" stroke="black" cx="3600.94" cy="-18" rx="126.978" ry="18"/>
<text text-anchor="middle" x="3600.94" y="-14.3" font-family="Times,serif" font-size="14.00">gRPC&#45;ConsumeRequestIterator3</text>
</g>
<!-- Consumer helper: consume bidirectional stream&#45;&gt;gRPC&#45;PluginGetMetadata2 -->
<g id="edge11" class="edge"><title>Consumer helper: consume bidirectional stream&#45;&gt;gRPC&#45;PluginGetMetadata2</title>
<path fill="none" stroke="black" d="M2153.18,-76.9306C2131.13,-75.0727 2108.37,-73.3325 2086.94,-72 1635.97,-43.9612 1520.96,-76.5448 1070.94,-36 1060.38,-35.0481 1049.31,-33.7878 1038.37,-32.3823"/>
<polygon fill="black" stroke="black" points="1038.76,-28.9028 1028.38,-31.0554 1037.84,-35.8418 1038.76,-28.9028"/>
</g>
<!-- Consumer helper: consume bidirectional stream&#45;&gt;gRPC&#45;StopChannelSpin0 -->
<g id="edge12" class="edge"><title>Consumer helper: consume bidirectional stream&#45;&gt;gRPC&#45;StopChannelSpin0</title>
<path fill="none" stroke="black" d="M2152.15,-77.0182C2130.41,-75.173 2108.03,-73.4143 2086.94,-72 1733.15,-48.2766 1642.76,-71.3738 1289.94,-36 1280.47,-35.0499 1270.56,-33.8275 1260.74,-32.4744"/>
<polygon fill="black" stroke="black" points="1260.97,-28.9708 1250.57,-31.0229 1259.98,-35.9006 1260.97,-28.9708"/>
</g>
<!-- Consumer helper: consume bidirectional stream&#45;&gt;gRPC&#45;ConsumeRequestIterator0 -->
<g id="edge13" class="edge"><title>Consumer helper: consume bidirectional stream&#45;&gt;gRPC&#45;ConsumeRequestIterator0</title>
<path fill="none" stroke="black" d="M2149.8,-77.2341C2128.8,-75.4097 2107.27,-73.6014 2086.94,-72 1853.78,-53.6317 1794.74,-58.5135 1561.94,-36 1550.1,-34.8547 1537.7,-33.5084 1525.4,-32.0831"/>
<polygon fill="black" stroke="black" points="1525.45,-28.5653 1515.11,-30.87 1524.63,-35.5171 1525.45,-28.5653"/>
</g>
<!-- Consumer helper: consume bidirectional stream&#45;&gt;gRPC&#45;PluginGetMetadata3 -->
<g id="edge14" class="edge"><title>Consumer helper: consume bidirectional stream&#45;&gt;gRPC&#45;PluginGetMetadata3</title>
<path fill="none" stroke="black" d="M2155.47,-76.721C2057.97,-66.6585 1918.07,-51.5826 1795.94,-36 1786.32,-34.7725 1776.27,-33.419 1766.27,-32.0279"/>
<polygon fill="black" stroke="black" points="1766.69,-28.5532 1756.3,-30.6274 1765.72,-35.4851 1766.69,-28.5532"/>
</g>
<!-- Consumer helper: consume bidirectional stream&#45;&gt;gRPC&#45;StopChannelSpin1 -->
<g id="edge15" class="edge"><title>Consumer helper: consume bidirectional stream&#45;&gt;gRPC&#45;StopChannelSpin1</title>
<path fill="none" stroke="black" d="M2197.22,-73.811C2133.56,-61.8319 2045.37,-45.236 1982.74,-33.4518"/>
<polygon fill="black" stroke="black" points="1983,-29.9398 1972.53,-31.5301 1981.71,-36.819 1983,-29.9398"/>
</g>
<!-- Consumer helper: consume bidirectional stream&#45;&gt;gRPC&#45;ConsumeRequestIterator1 -->
<g id="edge16" class="edge"><title>Consumer helper: consume bidirectional stream&#45;&gt;gRPC&#45;ConsumeRequestIterator1</title>
<path fill="none" stroke="black" d="M2247.52,-72.2333C2230.24,-62.7092 2208.43,-50.6862 2189.91,-40.4771"/>
<polygon fill="black" stroke="black" points="2191.56,-37.3919 2181.11,-35.6299 2188.18,-43.5223 2191.56,-37.3919"/>
</g>
<!-- Consumer helper: consume bidirectional stream&#45;&gt;gRPC&#45;PluginGetMetadata4 -->
<g id="edge17" class="edge"><title>Consumer helper: consume bidirectional stream&#45;&gt;gRPC&#45;PluginGetMetadata4</title>
<path fill="none" stroke="black" d="M2308.12,-72.2333C2325.39,-62.6397 2347.22,-50.5105 2365.68,-40.2538"/>
<polygon fill="black" stroke="black" points="2367.4,-43.3044 2374.44,-35.3884 2364,-37.1853 2367.4,-43.3044"/>
</g>
<!-- Consumer helper: consume bidirectional stream&#45;&gt;gRPC&#45;StopChannelSpin2 -->
<g id="edge18" class="edge"><title>Consumer helper: consume bidirectional stream&#45;&gt;gRPC&#45;StopChannelSpin2</title>
<path fill="none" stroke="black" d="M2355.41,-73.6382C2415.08,-61.8064 2497.07,-45.5476 2556.07,-33.8468"/>
<polygon fill="black" stroke="black" points="2556.94,-37.242 2566.07,-31.8636 2555.58,-30.3757 2556.94,-37.242"/>
</g>
<!-- Consumer helper: consume bidirectional stream&#45;&gt;gRPC&#45;ConsumeRequestIterator2 -->
<g id="edge19" class="edge"><title>Consumer helper: consume bidirectional stream&#45;&gt;gRPC&#45;ConsumeRequestIterator2</title>
<path fill="none" stroke="black" d="M2393.58,-76.1298C2487.26,-65.614 2622.66,-50.2171 2740.94,-36 2752.01,-34.67 2763.58,-33.2528 2775.1,-31.8258"/>
<polygon fill="black" stroke="black" points="2775.7,-35.2782 2785.19,-30.5711 2774.83,-28.3317 2775.7,-35.2782"/>
</g>
<!-- Consumer helper: consume bidirectional stream&#45;&gt;gRPC&#45;PluginGetMetadata5 -->
<g id="edge20" class="edge"><title>Consumer helper: consume bidirectional stream&#45;&gt;gRPC&#45;PluginGetMetadata5</title>
<path fill="none" stroke="black" d="M2435.02,-80.9483C2583.84,-72.5417 2813.48,-57.5549 3011.94,-36 3021.99,-34.9083 3032.51,-33.6073 3042.94,-32.2181"/>
<polygon fill="black" stroke="black" points="3043.45,-35.68 3052.89,-30.8629 3042.51,-28.744 3043.45,-35.68"/>
</g>
<!-- Consumer helper: consume bidirectional stream&#45;&gt;gRPC&#45;StopChannelSpin3 -->
<g id="edge21" class="edge"><title>Consumer helper: consume bidirectional stream&#45;&gt;gRPC&#45;StopChannelSpin3</title>
<path fill="none" stroke="black" d="M2451.46,-84.6554C2645.5,-78.599 2968.9,-64.921 3245.94,-36 3255.6,-34.9918 3265.7,-33.7244 3275.71,-32.3384"/>
<polygon fill="black" stroke="black" points="3276.25,-35.7962 3285.66,-30.9181 3275.26,-28.8664 3276.25,-35.7962"/>
</g>
<!-- Consumer helper: consume bidirectional stream&#45;&gt;gRPC&#45;ConsumeRequestIterator3 -->
<g id="edge22" class="edge"><title>Consumer helper: consume bidirectional stream&#45;&gt;gRPC&#45;ConsumeRequestIterator3</title>
<path fill="none" stroke="black" d="M2453.85,-85.5849C2686,-80.0635 3107.23,-66.5368 3465.94,-36 3478.11,-34.9644 3490.86,-33.654 3503.47,-32.2221"/>
<polygon fill="black" stroke="black" points="3504.02,-35.6828 3513.54,-31.0505 3503.21,-28.7297 3504.02,-35.6828"/>
</g>
</g>
</svg>
