<?xml version="1.0" encoding="UTF-8" standalone="no"?>
<!DOCTYPE svg PUBLIC "-//W3C//DTD SVG 1.1//EN"
 "http://www.w3.org/Graphics/SVG/1.1/DTD/svg11.dtd">
<!-- Generated by graphviz version 2.38.0 (20140413.2041)
 -->
<!-- Title: G Pages: 1 -->
<svg width="1416pt" height="218pt"
 viewBox="0.00 0.00 1416.39 218.00" xmlns="http://www.w3.org/2000/svg" xmlns:xlink="http://www.w3.org/1999/xlink">
<g id="graph0" class="graph" transform="scale(1 1) rotate(0) translate(4 214)">
<title>G</title>
<polygon fill="white" stroke="none" points="-4,4 -4,-214 1412.39,-214 1412.39,4 -4,4"/>
<!-- Thread&#45;gRPC&#45;SubscribeMoot -->
<g id="node1" class="node"><title>Thread&#45;gRPC&#45;SubscribeMoot</title>
<ellipse fill="none" stroke="black" cx="159.042" cy="-105" rx="89.0842" ry="18"/>
<text text-anchor="middle" x="159.042" y="-101.3" font-family="Times,serif" font-size="14.00">gRPC&#45;SubscribeMoot</text>
</g>
<!-- Thread&#45;gRPC&#45;SpawnDelivery -->
<g id="node2" class="node"><title>Thread&#45;gRPC&#45;SpawnDelivery</title>
<ellipse fill="none" stroke="black" cx="89.0421" cy="-18" rx="89.0842" ry="18"/>
<text text-anchor="middle" x="89.0421" y="-14.3" font-family="Times,serif" font-size="14.00">gRPC&#45;SpawnDelivery</text>
</g>
<!-- Thread&#45;gRPC&#45;SubscribeMoot&#45;&gt;Thread&#45;gRPC&#45;SpawnDelivery -->
<g id="edge1" class="edge"><title>Thread&#45;gRPC&#45;SubscribeMoot&#45;&gt;Thread&#45;gRPC&#45;SpawnDelivery</title>
<path fill="none" stroke="black" d="M145.212,-87.2067C135.02,-74.8308 120.992,-57.7963 109.505,-43.8472"/>
<polygon fill="black" stroke="black" points="112.142,-41.5437 103.083,-36.0493 106.738,-45.9936 112.142,-41.5437"/>
</g>
<!-- Consumer helper: consume bidirectional stream -->
<g id="node3" class="node"><title>Consumer helper: consume bidirectional stream</title>
<ellipse fill="none" stroke="black" cx="482.042" cy="-105" rx="181.168" ry="18"/>
<text text-anchor="middle" x="482.042" y="-101.3" font-family="Times,serif" font-size="14.00">Consumer helper: consume bidirectional stream</text>
</g>
<!-- Thread&#45;gRPC&#45;PluginGetMetadata++ -->
<g id="node4" class="node"><title>Thread&#45;gRPC&#45;PluginGetMetadata++</title>
<ellipse fill="none" stroke="black" cx="299.042" cy="-18" rx="103.182" ry="18"/>
<text text-anchor="middle" x="299.042" y="-14.3" font-family="Times,serif" font-size="14.00">gRPC&#45;PluginGetMetadata</text>
</g>
<!-- Consumer helper: consume bidirectional stream&#45;&gt;Thread&#45;gRPC&#45;PluginGetMetadata++ -->
<g id="edge2" class="edge"><title>Consumer helper: consume bidirectional stream&#45;&gt;Thread&#45;gRPC&#45;PluginGetMetadata++</title>
<path fill="none" stroke="black" d="M445.887,-87.2067C416.341,-73.4829 374.461,-54.0305 342.982,-39.4094"/>
<polygon fill="black" stroke="black" points="344.116,-36.0769 333.572,-35.0386 341.167,-42.4255 344.116,-36.0769"/>
<text text-anchor="middle" x="405.542" y="-57.8" font-family="Times,serif" font-size="14.00">3</text>
</g>
<!-- Thread&#45;gRPC&#45;StopChannelSpin -->
<g id="node5" class="node"><title>Thread&#45;gRPC&#45;StopChannelSpin</title>
<ellipse fill="none" stroke="black" cx="517.042" cy="-18" rx="96.3833" ry="18"/>
<text text-anchor="middle" x="517.042" y="-14.3" font-family="Times,serif" font-size="14.00">gRPC&#45;StopChannelSpin</text>
</g>
<!-- Consumer helper: consume bidirectional stream&#45;&gt;Thread&#45;gRPC&#45;StopChannelSpin -->
<g id="edge3" class="edge"><title>Consumer helper: consume bidirectional stream&#45;&gt;Thread&#45;gRPC&#45;StopChannelSpin</title>
<path fill="none" stroke="black" d="M489.125,-86.799C494.011,-74.9322 500.601,-58.9279 506.151,-45.4488"/>
<polygon fill="black" stroke="black" points="509.399,-46.7549 509.97,-36.1754 502.926,-44.0896 509.399,-46.7549"/>
<text text-anchor="middle" x="505.542" y="-57.8" font-family="Times,serif" font-size="14.00">3</text>
</g>
<!-- Thread&#45;gRPC&#45;ConsumeRequestIterator -->
<g id="node6" class="node"><title>Thread&#45;gRPC&#45;ConsumeRequestIterator</title>
<ellipse fill="none" stroke="black" cx="753.042" cy="-18" rx="122.379" ry="18"/>
<text text-anchor="middle" x="753.042" y="-14.3" font-family="Times,serif" font-size="14.00">gRPC&#45;ConsumeRequestIterator</text>
</g>
<!-- Consumer helper: consume bidirectional stream&#45;&gt;Thread&#45;gRPC&#45;ConsumeRequestIterator -->
<g id="edge4" class="edge"><title>Consumer helper: consume bidirectional stream&#45;&gt;Thread&#45;gRPC&#45;ConsumeRequestIterator</title>
<path fill="none" stroke="black" d="M533.973,-87.7117C579.696,-73.3704 646.249,-52.4961 693.986,-37.5231"/>
<polygon fill="black" stroke="black" points="695.078,-40.849 703.572,-34.5165 692.983,-34.1698 695.078,-40.849"/>
<text text-anchor="middle" x="637.542" y="-57.8" font-family="Times,serif" font-size="14.00">3</text>
</g>
<!-- MainThread -->
<g id="node7" class="node"><title>MainThread</title>
<ellipse fill="none" stroke="black" cx="785.042" cy="-192" rx="54.6905" ry="18"/>
<text text-anchor="middle" x="785.042" y="-188.3" font-family="Times,serif" font-size="14.00">MainThread</text>
</g>
<!-- MainThread&#45;&gt;Thread&#45;gRPC&#45;SubscribeMoot -->
<g id="edge5" class="edge"><title>MainThread&#45;&gt;Thread&#45;gRPC&#45;SubscribeMoot</title>
<path fill="none" stroke="black" d="M735.66,-184.295C628.244,-169.709 372.455,-134.978 240.652,-117.081"/>
<polygon fill="black" stroke="black" points="240.988,-113.595 230.608,-115.717 240.046,-120.531 240.988,-113.595"/>
<text text-anchor="middle" x="513.542" y="-144.8" font-family="Times,serif" font-size="14.00">2</text>
</g>
<!-- MainThread&#45;&gt;Consumer helper: consume bidirectional stream -->
<g id="edge8" class="edge"><title>MainThread&#45;&gt;Consumer helper: consume bidirectional stream</title>
<path fill="none" stroke="black" d="M744.806,-179.713C694.941,-165.724 609.237,-141.682 549.309,-124.87"/>
<polygon fill="black" stroke="black" points="550.124,-121.464 539.551,-122.133 548.234,-128.204 550.124,-121.464"/>
</g>
<!-- Thread&#45;gRPC&#45;PluginGetMetadata -->
<g id="node8" class="node"><title>Thread&#45;gRPC&#45;PluginGetMetadata</title>
<ellipse fill="none" stroke="black" cx="785.042" cy="-105" rx="103.182" ry="18"/>
<text text-anchor="middle" x="785.042" y="-101.3" font-family="Times,serif" font-size="14.00">gRPC&#45;PluginGetMetadata</text>
</g>
<!-- MainThread&#45;&gt;Thread&#45;gRPC&#45;PluginGetMetadata -->
<g id="edge6" class="edge"><title>MainThread&#45;&gt;Thread&#45;gRPC&#45;PluginGetMetadata</title>
<path fill="none" stroke="black" d="M785.042,-173.799C785.042,-162.163 785.042,-146.548 785.042,-133.237"/>
<polygon fill="black" stroke="black" points="788.542,-133.175 785.042,-123.175 781.542,-133.175 788.542,-133.175"/>
<text text-anchor="middle" x="788.542" y="-144.8" font-family="Times,serif" font-size="14.00">5</text>
</g>
<!-- Consumer helper: callback requests worker -->
<g id="node9" class="node"><title>Consumer helper: callback requests worker</title>
<ellipse fill="none" stroke="black" cx="1071.04" cy="-105" rx="164.371" ry="18"/>
<text text-anchor="middle" x="1071.04" y="-101.3" font-family="Times,serif" font-size="14.00">Consumer helper: callback requests worker</text>
</g>
<!-- MainThread&#45;&gt;Consumer helper: callback requests worker -->
<g id="edge7" class="edge"><title>MainThread&#45;&gt;Consumer helper: callback requests worker</title>
<path fill="none" stroke="black" d="M824.21,-179.359C871.33,-165.355 951.084,-141.652 1007.16,-124.987"/>
<polygon fill="black" stroke="black" points="1008.4,-128.269 1016.99,-122.065 1006.41,-121.559 1008.4,-128.269"/>
</g>
<!-- Thread&#45;LeaseMaintenance -->
<g id="node10" class="node"><title>Thread&#45;LeaseMaintenance</title>
<ellipse fill="none" stroke="black" cx="1331.04" cy="-105" rx="77.1866" ry="18"/>
<text text-anchor="middle" x="1331.04" y="-101.3" font-family="Times,serif" font-size="14.00">LeaseMaintenance</text>
</g>
<!-- MainThread&#45;&gt;Thread&#45;LeaseMaintenance -->
<g id="edge9" class="edge"><title>MainThread&#45;&gt;Thread&#45;LeaseMaintenance</title>
<path fill="none" stroke="black" d="M834.744,-184.398C919.092,-173.024 1095.57,-148.49 1244.04,-123 1250.67,-121.863 1257.56,-120.619 1264.44,-119.338"/>
<polygon fill="black" stroke="black" points="1265.31,-122.737 1274.48,-117.442 1264.01,-115.858 1265.31,-122.737"/>
</g>
</g>
</svg>
