<?xml version="1.0" encoding="UTF-8" standalone="no"?>
<!DOCTYPE svg PUBLIC "-//W3C//DTD SVG 1.1//EN"
 "http://www.w3.org/Graphics/SVG/1.1/DTD/svg11.dtd">
<!-- Generated by graphviz version 2.38.0 (20140413.2041)
 -->
<!-- Title: G Pages: 1 -->
<svg width="810pt" height="341pt"
 viewBox="0.00 0.00 810.24 341.00" xmlns="http://www.w3.org/2000/svg" xmlns:xlink="http://www.w3.org/1999/xlink">
<g id="graph0" class="graph" transform="scale(1 1) rotate(0) translate(4 337)">
<title>G</title>
<polygon fill="white" stroke="none" points="-4,4 -4,-337 806.236,-337 806.236,4 -4,4"/>
<!-- Thread&#45;gRPC&#45;SubscribeMoot+ -->
<g id="node1" class="node"><title>Thread&#45;gRPC&#45;SubscribeMoot+</title>
<ellipse fill="none" stroke="black" cx="333.524" cy="-302" rx="89.0842" ry="18"/>
<text text-anchor="middle" x="333.524" y="-298.3" font-family="Times,serif" font-size="14.00">gRPC&#45;SubscribeMoot</text>
</g>
<!-- Thread&#45;gRPC&#45;SpawnDelivery -->
<g id="node2" class="node"><title>Thread&#45;gRPC&#45;SpawnDelivery</title>
<ellipse fill="none" stroke="black" cx="680.047" cy="-315" rx="89.0842" ry="18"/>
<text text-anchor="middle" x="680.047" y="-311.3" font-family="Times,serif" font-size="14.00">gRPC&#45;SpawnDelivery</text>
</g>
<!-- Thread&#45;gRPC&#45;SubscribeMoot+&#45;&gt;Thread&#45;gRPC&#45;SpawnDelivery -->
<g id="edge1" class="edge"><title>Thread&#45;gRPC&#45;SubscribeMoot+&#45;&gt;Thread&#45;gRPC&#45;SpawnDelivery</title>
<path fill="none" stroke="black" d="M421.462,-305.28C470.416,-307.128 531.67,-309.439 582.161,-311.344"/>
<polygon fill="black" stroke="black" points="582.311,-314.852 592.436,-311.732 582.575,-307.857 582.311,-314.852"/>
</g>
<!-- Consumer helper: consume bidirectional stream -->
<g id="node3" class="node"><title>Consumer helper: consume bidirectional stream</title>
<ellipse fill="none" stroke="black" cx="333.524" cy="-234" rx="181.168" ry="18"/>
<text text-anchor="middle" x="333.524" y="-230.3" font-family="Times,serif" font-size="14.00">Consumer helper: consume bidirectional stream</text>
</g>
<!-- Thread&#45;gRPC&#45;PluginGetMetadata++ -->
<g id="node4" class="node"><title>Thread&#45;gRPC&#45;PluginGetMetadata++</title>
<ellipse fill="none" stroke="black" cx="680.047" cy="-261" rx="103.182" ry="18"/>
<text text-anchor="middle" x="680.047" y="-257.3" font-family="Times,serif" font-size="14.00">gRPC&#45;PluginGetMetadata</text>
</g>
<!-- Consumer helper: consume bidirectional stream&#45;&gt;Thread&#45;gRPC&#45;PluginGetMetadata++ -->
<g id="edge2" class="edge"><title>Consumer helper: consume bidirectional stream&#45;&gt;Thread&#45;gRPC&#45;PluginGetMetadata++</title>
<path fill="none" stroke="black" d="M476.644,-245.138C509.617,-247.722 544.111,-250.425 575.089,-252.853"/>
<polygon fill="black" stroke="black" points="575.209,-256.373 585.452,-253.665 575.756,-249.394 575.209,-256.373"/>
<text text-anchor="middle" x="536.358" y="-252.8" font-family="Times,serif" font-size="14.00">2</text>
</g>
<!-- Thread&#45;gRPC&#45;StopChannelSpin -->
<g id="node5" class="node"><title>Thread&#45;gRPC&#45;StopChannelSpin</title>
<ellipse fill="none" stroke="black" cx="680.047" cy="-207" rx="96.3833" ry="18"/>
<text text-anchor="middle" x="680.047" y="-203.3" font-family="Times,serif" font-size="14.00">gRPC&#45;StopChannelSpin</text>
</g>
<!-- Consumer helper: consume bidirectional stream&#45;&gt;Thread&#45;gRPC&#45;StopChannelSpin -->
<g id="edge3" class="edge"><title>Consumer helper: consume bidirectional stream&#45;&gt;Thread&#45;gRPC&#45;StopChannelSpin</title>
<path fill="none" stroke="black" d="M476.644,-222.862C511.6,-220.123 548.266,-217.249 580.639,-214.712"/>
<polygon fill="black" stroke="black" points="581.295,-218.172 590.991,-213.901 580.748,-211.193 581.295,-218.172"/>
<text text-anchor="middle" x="536.358" y="-221.8" font-family="Times,serif" font-size="14.00">2</text>
</g>
<!-- Thread&#45;gRPC&#45;ConsumeRequestIterator -->
<g id="node6" class="node"><title>Thread&#45;gRPC&#45;ConsumeRequestIterator</title>
<ellipse fill="none" stroke="black" cx="680.047" cy="-153" rx="122.379" ry="18"/>
<text text-anchor="middle" x="680.047" y="-149.3" font-family="Times,serif" font-size="14.00">gRPC&#45;ConsumeRequestIterator</text>
</g>
<!-- Consumer helper: consume bidirectional stream&#45;&gt;Thread&#45;gRPC&#45;ConsumeRequestIterator -->
<g id="edge4" class="edge"><title>Consumer helper: consume bidirectional stream&#45;&gt;Thread&#45;gRPC&#45;ConsumeRequestIterator</title>
<path fill="none" stroke="black" d="M463.267,-221.385C480.895,-217.741 498.53,-213.046 514.858,-207 536.02,-199.164 536.986,-188.578 557.858,-180 567.933,-175.859 578.752,-172.301 589.629,-169.257"/>
<polygon fill="black" stroke="black" points="590.849,-172.555 599.615,-166.604 589.052,-165.789 590.849,-172.555"/>
<text text-anchor="middle" x="536.358" y="-199.8" font-family="Times,serif" font-size="14.00">2</text>
</g>
<!-- MainThread -->
<g id="node7" class="node"><title>MainThread</title>
<ellipse fill="none" stroke="black" cx="54.5952" cy="-153" rx="54.6905" ry="18"/>
<text text-anchor="middle" x="54.5952" y="-149.3" font-family="Times,serif" font-size="14.00">MainThread</text>
</g>
<!-- MainThread&#45;&gt;Thread&#45;gRPC&#45;SubscribeMoot+ -->
<g id="edge6" class="edge"><title>MainThread&#45;&gt;Thread&#45;gRPC&#45;SubscribeMoot+</title>
<path fill="none" stroke="black" d="M66.2878,-170.64C81.9802,-194.938 113.609,-238.274 152.19,-261 179.282,-276.958 212.036,-286.707 242.155,-292.661"/>
<polygon fill="black" stroke="black" points="241.785,-296.153 252.256,-294.539 243.064,-289.27 241.785,-296.153"/>
</g>
<!-- MainThread&#45;&gt;Consumer helper: consume bidirectional stream -->
<g id="edge9" class="edge"><title>MainThread&#45;&gt;Consumer helper: consume bidirectional stream</title>
<path fill="none" stroke="black" d="M79.0694,-169.32C97.9607,-181.643 125.646,-197.932 152.19,-207 166.32,-211.827 181.366,-215.792 196.509,-219.049"/>
<polygon fill="black" stroke="black" points="195.967,-222.51 206.466,-221.088 197.372,-215.653 195.967,-222.51"/>
</g>
<!-- Thread&#45;gRPC&#45;SubscribeMoot -->
<g id="node8" class="node"><title>Thread&#45;gRPC&#45;SubscribeMoot</title>
<ellipse fill="none" stroke="black" cx="333.524" cy="-180" rx="89.0842" ry="18"/>
<text text-anchor="middle" x="333.524" y="-176.3" font-family="Times,serif" font-size="14.00">gRPC&#45;SubscribeMoot</text>
</g>
<!-- MainThread&#45;&gt;Thread&#45;gRPC&#45;SubscribeMoot -->
<g id="edge5" class="edge"><title>MainThread&#45;&gt;Thread&#45;gRPC&#45;SubscribeMoot</title>
<path fill="none" stroke="black" d="M107.034,-158.015C145.134,-161.73 198.017,-166.886 242.995,-171.271"/>
<polygon fill="black" stroke="black" points="242.762,-174.765 253.054,-172.252 243.441,-167.798 242.762,-174.765"/>
</g>
<!-- Thread&#45;gRPC&#45;PluginGetMetadata -->
<g id="node9" class="node"><title>Thread&#45;gRPC&#45;PluginGetMetadata</title>
<ellipse fill="none" stroke="black" cx="333.524" cy="-126" rx="103.182" ry="18"/>
<text text-anchor="middle" x="333.524" y="-122.3" font-family="Times,serif" font-size="14.00">gRPC&#45;PluginGetMetadata</text>
</g>
<!-- MainThread&#45;&gt;Thread&#45;gRPC&#45;PluginGetMetadata -->
<g id="edge7" class="edge"><title>MainThread&#45;&gt;Thread&#45;gRPC&#45;PluginGetMetadata</title>
<path fill="none" stroke="black" d="M102.874,-144.436C110.968,-143.154 119.307,-141.947 127.19,-141 158.733,-137.213 193.124,-134.247 224.584,-131.989"/>
<polygon fill="black" stroke="black" points="224.957,-135.472 234.687,-131.281 224.467,-128.489 224.957,-135.472"/>
<text text-anchor="middle" x="130.69" y="-144.8" font-family="Times,serif" font-size="14.00">4</text>
</g>
<!-- Consumer helper: callback requests worker -->
<g id="node10" class="node"><title>Consumer helper: callback requests worker</title>
<ellipse fill="none" stroke="black" cx="333.524" cy="-72" rx="164.371" ry="18"/>
<text text-anchor="middle" x="333.524" y="-68.3" font-family="Times,serif" font-size="14.00">Consumer helper: callback requests worker</text>
</g>
<!-- MainThread&#45;&gt;Consumer helper: callback requests worker -->
<g id="edge8" class="edge"><title>MainThread&#45;&gt;Consumer helper: callback requests worker</title>
<path fill="none" stroke="black" d="M79.0694,-136.68C97.9607,-124.357 125.646,-108.068 152.19,-99 167.571,-93.7456 184.037,-89.5127 200.533,-86.1031"/>
<polygon fill="black" stroke="black" points="201.661,-89.4483 210.798,-84.0847 200.311,-82.5798 201.661,-89.4483"/>
</g>
<!-- Thread&#45;LeaseMaintenance -->
<g id="node11" class="node"><title>Thread&#45;LeaseMaintenance</title>
<ellipse fill="none" stroke="black" cx="333.524" cy="-18" rx="77.1866" ry="18"/>
<text text-anchor="middle" x="333.524" y="-14.3" font-family="Times,serif" font-size="14.00">LeaseMaintenance</text>
</g>
<!-- MainThread&#45;&gt;Thread&#45;LeaseMaintenance -->
<g id="edge10" class="edge"><title>MainThread&#45;&gt;Thread&#45;LeaseMaintenance</title>
<path fill="none" stroke="black" d="M65.7999,-135.369C81.1264,-110.666 112.564,-66.3839 152.19,-45 180.597,-29.6707 214.984,-22.2694 246.08,-18.9125"/>
<polygon fill="black" stroke="black" points="246.427,-22.3953 256.049,-17.9598 245.761,-15.4271 246.427,-22.3953"/>
</g>
</g>
</svg>
