<?xml version="1.0" encoding="UTF-8" standalone="no"?>
<!DOCTYPE svg PUBLIC "-//W3C//DTD SVG 1.1//EN"
 "http://www.w3.org/Graphics/SVG/1.1/DTD/svg11.dtd">
<!-- Generated by graphviz version 2.38.0 (20140413.2041)
 -->
<!-- Title: %3 Pages: 1 -->
<svg width="3299pt" height="188pt"
 viewBox="0.00 0.00 3299.33 188.00" xmlns="http://www.w3.org/2000/svg" xmlns:xlink="http://www.w3.org/1999/xlink">
<g id="graph0" class="graph" transform="scale(1 1) rotate(0) translate(4 184)">
<title>%3</title>
<polygon fill="white" stroke="none" points="-4,4 -4,-184 3295.33,-184 3295.33,4 -4,4"/>
<!-- MainThread -->
<g id="node1" class="node"><title>MainThread</title>
<ellipse fill="none" stroke="black" cx="1410.59" cy="-162" rx="54.6905" ry="18"/>
<text text-anchor="middle" x="1410.59" y="-158.3" font-family="Times,serif" font-size="14.00">MainThread</text>
</g>
<!-- gRPC&#45;SubscribeMoot0 -->
<g id="node2" class="node"><title>gRPC&#45;SubscribeMoot0</title>
<ellipse fill="none" stroke="black" cx="93.5917" cy="-90" rx="92.8835" ry="18"/>
<text text-anchor="middle" x="93.5917" y="-86.3" font-family="Times,serif" font-size="14.00">gRPC&#45;SubscribeMoot0</text>
</g>
<!-- MainThread&#45;&gt;gRPC&#45;SubscribeMoot0 -->
<g id="edge1" class="edge"><title>MainThread&#45;&gt;gRPC&#45;SubscribeMoot0</title>
<path fill="none" stroke="black" d="M1356.05,-160.094C1187.93,-156.971 662.891,-144.745 229.592,-108 212.448,-106.546 194.138,-104.557 176.689,-102.452"/>
<polygon fill="black" stroke="black" points="176.883,-98.9492 166.531,-101.202 176.028,-105.897 176.883,-98.9492"/>
</g>
<!-- gRPC&#45;SubscribeMoot1 -->
<g id="node4" class="node"><title>gRPC&#45;SubscribeMoot1</title>
<ellipse fill="none" stroke="black" cx="331.592" cy="-90" rx="92.8835" ry="18"/>
<text text-anchor="middle" x="331.592" y="-86.3" font-family="Times,serif" font-size="14.00">gRPC&#45;SubscribeMoot1</text>
</g>
<!-- MainThread&#45;&gt;gRPC&#45;SubscribeMoot1 -->
<g id="edge2" class="edge"><title>MainThread&#45;&gt;gRPC&#45;SubscribeMoot1</title>
<path fill="none" stroke="black" d="M1357.28,-157.583C1226.49,-149.195 879.281,-126.895 589.592,-108 536.168,-104.516 476.524,-100.588 428.052,-97.3864"/>
<polygon fill="black" stroke="black" points="428.093,-93.8816 417.884,-96.7147 427.631,-100.866 428.093,-93.8816"/>
</g>
<!-- gRPC&#45;PluginGetMetadata0 -->
<g id="node6" class="node"><title>gRPC&#45;PluginGetMetadata0</title>
<ellipse fill="none" stroke="black" cx="706.592" cy="-90" rx="107.781" ry="18"/>
<text text-anchor="middle" x="706.592" y="-86.3" font-family="Times,serif" font-size="14.00">gRPC&#45;PluginGetMetadata0</text>
</g>
<!-- MainThread&#45;&gt;gRPC&#45;PluginGetMetadata0 -->
<g id="edge3" class="edge"><title>MainThread&#45;&gt;gRPC&#45;PluginGetMetadata0</title>
<path fill="none" stroke="black" d="M1357.87,-157.204C1254.97,-149.582 1020.23,-131.146 823.592,-108 813.807,-106.848 803.578,-105.531 793.416,-104.15"/>
<polygon fill="black" stroke="black" points="793.679,-100.653 783.295,-102.752 792.722,-107.588 793.679,-100.653"/>
</g>
<!-- gRPC&#45;PluginGetMetadata1 -->
<g id="node7" class="node"><title>gRPC&#45;PluginGetMetadata1</title>
<ellipse fill="none" stroke="black" cx="940.592" cy="-90" rx="107.781" ry="18"/>
<text text-anchor="middle" x="940.592" y="-86.3" font-family="Times,serif" font-size="14.00">gRPC&#45;PluginGetMetadata1</text>
</g>
<!-- MainThread&#45;&gt;gRPC&#45;PluginGetMetadata1 -->
<g id="edge4" class="edge"><title>MainThread&#45;&gt;gRPC&#45;PluginGetMetadata1</title>
<path fill="none" stroke="black" d="M1361.62,-153.707C1282.75,-141.959 1126.47,-118.685 1028.09,-104.032"/>
<polygon fill="black" stroke="black" points="1028.58,-100.565 1018.17,-102.554 1027.54,-107.489 1028.58,-100.565"/>
</g>
<!-- ConsumerHelper&#45;CallbackRequestsWorker -->
<g id="node8" class="node"><title>ConsumerHelper&#45;CallbackRequestsWorker</title>
<ellipse fill="none" stroke="black" cx="1230.59" cy="-90" rx="164.371" ry="18"/>
<text text-anchor="middle" x="1230.59" y="-86.3" font-family="Times,serif" font-size="14.00">ConsumerHelper&#45;CallbackRequestsWorker</text>
</g>
<!-- MainThread&#45;&gt;ConsumerHelper&#45;CallbackRequestsWorker -->
<g id="edge5" class="edge"><title>MainThread&#45;&gt;ConsumerHelper&#45;CallbackRequestsWorker</title>
<path fill="none" stroke="black" d="M1376.74,-147.834C1350.18,-137.506 1312.76,-122.955 1282.44,-111.162"/>
<polygon fill="black" stroke="black" points="1283.45,-107.801 1272.86,-107.439 1280.91,-114.325 1283.45,-107.801"/>
</g>
<!-- ConsumerHelper&#45;ConsumeBidirectionalStream -->
<g id="node9" class="node"><title>ConsumerHelper&#45;ConsumeBidirectionalStream</title>
<ellipse fill="none" stroke="black" cx="1591.59" cy="-90" rx="178.969" ry="18"/>
<text text-anchor="middle" x="1591.59" y="-86.3" font-family="Times,serif" font-size="14.00">ConsumerHelper&#45;ConsumeBidirectionalStream</text>
</g>
<!-- MainThread&#45;&gt;ConsumerHelper&#45;ConsumeBidirectionalStream -->
<g id="edge6" class="edge"><title>MainThread&#45;&gt;ConsumerHelper&#45;ConsumeBidirectionalStream</title>
<path fill="none" stroke="black" d="M1444.64,-147.834C1471.25,-137.541 1508.71,-123.055 1539.14,-111.284"/>
<polygon fill="black" stroke="black" points="1540.69,-114.438 1548.75,-107.567 1538.17,-107.91 1540.69,-114.438"/>
</g>
<!-- LeaseMaintenance -->
<g id="node10" class="node"><title>LeaseMaintenance</title>
<ellipse fill="none" stroke="black" cx="1865.59" cy="-90" rx="77.1866" ry="18"/>
<text text-anchor="middle" x="1865.59" y="-86.3" font-family="Times,serif" font-size="14.00">LeaseMaintenance</text>
</g>
<!-- MainThread&#45;&gt;LeaseMaintenance -->
<g id="edge7" class="edge"><title>MainThread&#45;&gt;LeaseMaintenance</title>
<path fill="none" stroke="black" d="M1460.56,-154.67C1531.62,-145.475 1665.87,-127.393 1779.59,-108 1786.14,-106.883 1792.96,-105.652 1799.77,-104.379"/>
<polygon fill="black" stroke="black" points="1800.52,-107.798 1809.69,-102.491 1799.22,-100.921 1800.52,-107.798"/>
</g>
<!-- gRPC&#45;PluginGetMetadata6 -->
<g id="node23" class="node"><title>gRPC&#45;PluginGetMetadata6</title>
<ellipse fill="none" stroke="black" cx="2068.59" cy="-90" rx="107.781" ry="18"/>
<text text-anchor="middle" x="2068.59" y="-86.3" font-family="Times,serif" font-size="14.00">gRPC&#45;PluginGetMetadata6</text>
</g>
<!-- MainThread&#45;&gt;gRPC&#45;PluginGetMetadata6 -->
<g id="edge8" class="edge"><title>MainThread&#45;&gt;gRPC&#45;PluginGetMetadata6</title>
<path fill="none" stroke="black" d="M1462.91,-156.692C1559.58,-148.549 1772.66,-129.752 1951.59,-108 1961.37,-106.811 1971.6,-105.47 1981.76,-104.076"/>
<polygon fill="black" stroke="black" points="1982.46,-107.513 1991.88,-102.669 1981.49,-100.58 1982.46,-107.513"/>
</g>
<!-- gRPC&#45;PluginGetMetadata7 -->
<g id="node24" class="node"><title>gRPC&#45;PluginGetMetadata7</title>
<ellipse fill="none" stroke="black" cx="2302.59" cy="-90" rx="107.781" ry="18"/>
<text text-anchor="middle" x="2302.59" y="-86.3" font-family="Times,serif" font-size="14.00">gRPC&#45;PluginGetMetadata7</text>
</g>
<!-- MainThread&#45;&gt;gRPC&#45;PluginGetMetadata7 -->
<g id="edge9" class="edge"><title>MainThread&#45;&gt;gRPC&#45;PluginGetMetadata7</title>
<path fill="none" stroke="black" d="M1464.74,-158.715C1591.2,-153.07 1915.71,-136.793 2185.59,-108 2195.72,-106.919 2206.32,-105.618 2216.83,-104.224"/>
<polygon fill="black" stroke="black" points="2217.42,-107.676 2226.86,-102.861 2216.48,-100.739 2217.42,-107.676"/>
</g>
<!-- gRPC&#45;PluginGetMetadata8 -->
<g id="node25" class="node"><title>gRPC&#45;PluginGetMetadata8</title>
<ellipse fill="none" stroke="black" cx="2536.59" cy="-90" rx="107.781" ry="18"/>
<text text-anchor="middle" x="2536.59" y="-86.3" font-family="Times,serif" font-size="14.00">gRPC&#45;PluginGetMetadata8</text>
</g>
<!-- MainThread&#45;&gt;gRPC&#45;PluginGetMetadata8 -->
<g id="edge10" class="edge"><title>MainThread&#45;&gt;gRPC&#45;PluginGetMetadata8</title>
<path fill="none" stroke="black" d="M1464.87,-159.901C1616.28,-156.458 2056.06,-143.882 2419.59,-108 2429.89,-106.984 2440.66,-105.709 2451.33,-104.317"/>
<polygon fill="black" stroke="black" points="2452.06,-107.75 2461.5,-102.951 2451.13,-100.813 2452.06,-107.75"/>
</g>
<!-- gRPC&#45;SpawnDelivery0 -->
<g id="node3" class="node"><title>gRPC&#45;SpawnDelivery0</title>
<ellipse fill="none" stroke="black" cx="93.5917" cy="-18" rx="93.6835" ry="18"/>
<text text-anchor="middle" x="93.5917" y="-14.3" font-family="Times,serif" font-size="14.00">gRPC&#45;SpawnDelivery0</text>
</g>
<!-- gRPC&#45;SubscribeMoot0&#45;&gt;gRPC&#45;SpawnDelivery0 -->
<g id="edge11" class="edge"><title>gRPC&#45;SubscribeMoot0&#45;&gt;gRPC&#45;SpawnDelivery0</title>
<path fill="none" stroke="black" d="M93.5917,-71.6966C93.5917,-63.9827 93.5917,-54.7125 93.5917,-46.1124"/>
<polygon fill="black" stroke="black" points="97.0918,-46.1043 93.5917,-36.1043 90.0918,-46.1044 97.0918,-46.1043"/>
</g>
<!-- gRPC&#45;SpawnDelivery1 -->
<g id="node5" class="node"><title>gRPC&#45;SpawnDelivery1</title>
<ellipse fill="none" stroke="black" cx="298.592" cy="-18" rx="93.6835" ry="18"/>
<text text-anchor="middle" x="298.592" y="-14.3" font-family="Times,serif" font-size="14.00">gRPC&#45;SpawnDelivery1</text>
</g>
<!-- gRPC&#45;SubscribeMoot1&#45;&gt;gRPC&#45;SpawnDelivery1 -->
<g id="edge12" class="edge"><title>gRPC&#45;SubscribeMoot1&#45;&gt;gRPC&#45;SpawnDelivery1</title>
<path fill="none" stroke="black" d="M323.603,-72.055C319.849,-64.0915 315.285,-54.4107 311.089,-45.5097"/>
<polygon fill="black" stroke="black" points="314.166,-43.8281 306.736,-36.2753 307.834,-46.8131 314.166,-43.8281"/>
</g>
<!-- gRPC&#45;PluginGetMetadata2 -->
<g id="node11" class="node"><title>gRPC&#45;PluginGetMetadata2</title>
<ellipse fill="none" stroke="black" cx="517.592" cy="-18" rx="107.781" ry="18"/>
<text text-anchor="middle" x="517.592" y="-14.3" font-family="Times,serif" font-size="14.00">gRPC&#45;PluginGetMetadata2</text>
</g>
<!-- ConsumerHelper&#45;ConsumeBidirectionalStream&#45;&gt;gRPC&#45;PluginGetMetadata2 -->
<g id="edge13" class="edge"><title>ConsumerHelper&#45;ConsumeBidirectionalStream&#45;&gt;gRPC&#45;PluginGetMetadata2</title>
<path fill="none" stroke="black" d="M1467.52,-77.0127C1446.21,-75.1736 1424.27,-73.4184 1403.59,-72 1062.24,-48.5877 975.184,-68.6377 634.592,-36 624.295,-35.0133 613.518,-33.7563 602.85,-32.3737"/>
<polygon fill="black" stroke="black" points="603.048,-28.8692 592.673,-31.0142 602.121,-35.8076 603.048,-28.8692"/>
</g>
<!-- gRPC&#45;StopChannelSpin0 -->
<g id="node12" class="node"><title>gRPC&#45;StopChannelSpin0</title>
<ellipse fill="none" stroke="black" cx="744.592" cy="-18" rx="100.983" ry="18"/>
<text text-anchor="middle" x="744.592" y="-14.3" font-family="Times,serif" font-size="14.00">gRPC&#45;StopChannelSpin0</text>
</g>
<!-- ConsumerHelper&#45;ConsumeBidirectionalStream&#45;&gt;gRPC&#45;StopChannelSpin0 -->
<g id="edge14" class="edge"><title>ConsumerHelper&#45;ConsumeBidirectionalStream&#45;&gt;gRPC&#45;StopChannelSpin0</title>
<path fill="none" stroke="black" d="M1465.73,-77.1836C1444.97,-75.3605 1423.69,-73.5659 1403.59,-72 1159.36,-52.9679 1097.08,-62.9016 853.592,-36 844.337,-34.9775 834.667,-33.7304 825.073,-32.3807"/>
<polygon fill="black" stroke="black" points="825.52,-28.9091 815.123,-30.9422 824.519,-35.8371 825.52,-28.9091"/>
</g>
<!-- gRPC&#45;ConsumeRequestIterator0 -->
<g id="node13" class="node"><title>gRPC&#45;ConsumeRequestIterator0</title>
<ellipse fill="none" stroke="black" cx="989.592" cy="-18" rx="126.978" ry="18"/>
<text text-anchor="middle" x="989.592" y="-14.3" font-family="Times,serif" font-size="14.00">gRPC&#45;ConsumeRequestIterator0</text>
</g>
<!-- ConsumerHelper&#45;ConsumeBidirectionalStream&#45;&gt;gRPC&#45;ConsumeRequestIterator0 -->
<g id="edge15" class="edge"><title>ConsumerHelper&#45;ConsumeBidirectionalStream&#45;&gt;gRPC&#45;ConsumeRequestIterator0</title>
<path fill="none" stroke="black" d="M1476.17,-76.2331C1381.84,-65.713 1245.05,-50.2587 1125.59,-36 1114.35,-34.6585 1102.6,-33.2287 1090.9,-31.7895"/>
<polygon fill="black" stroke="black" points="1091.01,-28.2762 1080.65,-30.5245 1090.15,-35.2234 1091.01,-28.2762"/>
</g>
<!-- gRPC&#45;PluginGetMetadata3 -->
<g id="node14" class="node"><title>gRPC&#45;PluginGetMetadata3</title>
<ellipse fill="none" stroke="black" cx="1242.59" cy="-18" rx="107.781" ry="18"/>
<text text-anchor="middle" x="1242.59" y="-14.3" font-family="Times,serif" font-size="14.00">gRPC&#45;PluginGetMetadata3</text>
</g>
<!-- ConsumerHelper&#45;ConsumeBidirectionalStream&#45;&gt;gRPC&#45;PluginGetMetadata3 -->
<g id="edge16" class="edge"><title>ConsumerHelper&#45;ConsumeBidirectionalStream&#45;&gt;gRPC&#45;PluginGetMetadata3</title>
<path fill="none" stroke="black" d="M1515,-73.6382C1456.68,-61.9395 1376.77,-45.9129 1318.59,-34.2436"/>
<polygon fill="black" stroke="black" points="1319.21,-30.7987 1308.72,-32.2637 1317.84,-37.662 1319.21,-30.7987"/>
</g>
<!-- gRPC&#45;StopChannelSpin1 -->
<g id="node15" class="node"><title>gRPC&#45;StopChannelSpin1</title>
<ellipse fill="none" stroke="black" cx="1469.59" cy="-18" rx="100.983" ry="18"/>
<text text-anchor="middle" x="1469.59" y="-14.3" font-family="Times,serif" font-size="14.00">gRPC&#45;StopChannelSpin1</text>
</g>
<!-- ConsumerHelper&#45;ConsumeBidirectionalStream&#45;&gt;gRPC&#45;StopChannelSpin1 -->
<g id="edge17" class="edge"><title>ConsumerHelper&#45;ConsumeBidirectionalStream&#45;&gt;gRPC&#45;StopChannelSpin1</title>
<path fill="none" stroke="black" d="M1562.37,-72.2333C1545.8,-62.7269 1524.89,-50.7308 1507.12,-40.534"/>
<polygon fill="black" stroke="black" points="1508.57,-37.3294 1498.15,-35.3884 1505.09,-43.4009 1508.57,-37.3294"/>
</g>
<!-- gRPC&#45;ConsumeRequestIterator1 -->
<g id="node16" class="node"><title>gRPC&#45;ConsumeRequestIterator1</title>
<ellipse fill="none" stroke="black" cx="1714.59" cy="-18" rx="126.978" ry="18"/>
<text text-anchor="middle" x="1714.59" y="-14.3" font-family="Times,serif" font-size="14.00">gRPC&#45;ConsumeRequestIterator1</text>
</g>
<!-- ConsumerHelper&#45;ConsumeBidirectionalStream&#45;&gt;gRPC&#45;ConsumeRequestIterator1 -->
<g id="edge18" class="edge"><title>ConsumerHelper&#45;ConsumeBidirectionalStream&#45;&gt;gRPC&#45;ConsumeRequestIterator1</title>
<path fill="none" stroke="black" d="M1621.05,-72.2333C1637.64,-62.7958 1658.53,-50.9046 1676.36,-40.7559"/>
<polygon fill="black" stroke="black" points="1678.41,-43.618 1685.37,-35.6299 1674.95,-37.5342 1678.41,-43.618"/>
</g>
<!-- gRPC&#45;PluginGetMetadata4 -->
<g id="node17" class="node"><title>gRPC&#45;PluginGetMetadata4</title>
<ellipse fill="none" stroke="black" cx="1967.59" cy="-18" rx="107.781" ry="18"/>
<text text-anchor="middle" x="1967.59" y="-14.3" font-family="Times,serif" font-size="14.00">gRPC&#45;PluginGetMetadata4</text>
</g>
<!-- ConsumerHelper&#45;ConsumeBidirectionalStream&#45;&gt;gRPC&#45;PluginGetMetadata4 -->
<g id="edge19" class="edge"><title>ConsumerHelper&#45;ConsumeBidirectionalStream&#45;&gt;gRPC&#45;PluginGetMetadata4</title>
<path fill="none" stroke="black" d="M1672.72,-73.8972C1736.65,-61.9942 1825.28,-45.4938 1888.65,-33.6969"/>
<polygon fill="black" stroke="black" points="1889.4,-37.1167 1898.59,-31.8454 1888.12,-30.2349 1889.4,-37.1167"/>
</g>
<!-- gRPC&#45;StopChannelSpin2 -->
<g id="node18" class="node"><title>gRPC&#45;StopChannelSpin2</title>
<ellipse fill="none" stroke="black" cx="2194.59" cy="-18" rx="100.983" ry="18"/>
<text text-anchor="middle" x="2194.59" y="-14.3" font-family="Times,serif" font-size="14.00">gRPC&#45;StopChannelSpin2</text>
</g>
<!-- ConsumerHelper&#45;ConsumeBidirectionalStream&#45;&gt;gRPC&#45;StopChannelSpin2 -->
<g id="edge20" class="edge"><title>ConsumerHelper&#45;ConsumeBidirectionalStream&#45;&gt;gRPC&#45;StopChannelSpin2</title>
<path fill="none" stroke="black" d="M1716.9,-77.1426C1816.66,-67.3141 1959.76,-52.3472 2084.59,-36 2093.6,-34.8207 2103,-33.5014 2112.36,-32.1333"/>
<polygon fill="black" stroke="black" points="2113.09,-35.5629 2122.47,-30.6339 2112.07,-28.6386 2113.09,-35.5629"/>
</g>
<!-- gRPC&#45;ConsumeRequestIterator2 -->
<g id="node19" class="node"><title>gRPC&#45;ConsumeRequestIterator2</title>
<ellipse fill="none" stroke="black" cx="2439.59" cy="-18" rx="126.978" ry="18"/>
<text text-anchor="middle" x="2439.59" y="-14.3" font-family="Times,serif" font-size="14.00">gRPC&#45;ConsumeRequestIterator2</text>
</g>
<!-- ConsumerHelper&#45;ConsumeBidirectionalStream&#45;&gt;gRPC&#45;ConsumeRequestIterator2 -->
<g id="edge21" class="edge"><title>ConsumerHelper&#45;ConsumeBidirectionalStream&#45;&gt;gRPC&#45;ConsumeRequestIterator2</title>
<path fill="none" stroke="black" d="M1717.71,-77.2153C1738.39,-75.3932 1759.58,-73.5906 1779.59,-72 2012.74,-53.4675 2071.81,-58.6196 2304.59,-36 2316.26,-34.8666 2328.47,-33.5341 2340.58,-32.1222"/>
<polygon fill="black" stroke="black" points="2341.2,-35.5736 2350.72,-30.9201 2340.37,-28.6223 2341.2,-35.5736"/>
</g>
<!-- gRPC&#45;PluginGetMetadata5 -->
<g id="node20" class="node"><title>gRPC&#45;PluginGetMetadata5</title>
<ellipse fill="none" stroke="black" cx="2692.59" cy="-18" rx="107.781" ry="18"/>
<text text-anchor="middle" x="2692.59" y="-14.3" font-family="Times,serif" font-size="14.00">gRPC&#45;PluginGetMetadata5</text>
</g>
<!-- ConsumerHelper&#45;ConsumeBidirectionalStream&#45;&gt;gRPC&#45;PluginGetMetadata5 -->
<g id="edge22" class="edge"><title>ConsumerHelper&#45;ConsumeBidirectionalStream&#45;&gt;gRPC&#45;PluginGetMetadata5</title>
<path fill="none" stroke="black" d="M1715.41,-77.0066C1736.8,-75.1627 1758.83,-73.4075 1779.59,-72 2132.92,-48.0474 2223.04,-69.5018 2575.59,-36 2586.07,-35.0039 2597.05,-33.7245 2607.91,-32.3152"/>
<polygon fill="black" stroke="black" points="2608.38,-35.7836 2617.83,-30.9889 2607.45,-28.8454 2608.38,-35.7836"/>
</g>
<!-- gRPC&#45;StopChannelSpin3 -->
<g id="node21" class="node"><title>gRPC&#45;StopChannelSpin3</title>
<ellipse fill="none" stroke="black" cx="2919.59" cy="-18" rx="100.983" ry="18"/>
<text text-anchor="middle" x="2919.59" y="-14.3" font-family="Times,serif" font-size="14.00">gRPC&#45;StopChannelSpin3</text>
</g>
<!-- ConsumerHelper&#45;ConsumeBidirectionalStream&#45;&gt;gRPC&#45;StopChannelSpin3 -->
<g id="edge23" class="edge"><title>ConsumerHelper&#45;ConsumeBidirectionalStream&#45;&gt;gRPC&#45;StopChannelSpin3</title>
<path fill="none" stroke="black" d="M1714.39,-76.9121C1736.09,-75.0563 1758.5,-73.3215 1779.59,-72 2236.75,-43.3632 2353.56,-79.0555 2809.59,-36 2819.4,-35.0737 2829.67,-33.8417 2839.82,-32.4627"/>
<polygon fill="black" stroke="black" points="2840.5,-35.9015 2849.92,-31.0405 2839.53,-28.97 2840.5,-35.9015"/>
</g>
<!-- gRPC&#45;ConsumeRequestIterator3 -->
<g id="node22" class="node"><title>gRPC&#45;ConsumeRequestIterator3</title>
<ellipse fill="none" stroke="black" cx="3164.59" cy="-18" rx="126.978" ry="18"/>
<text text-anchor="middle" x="3164.59" y="-14.3" font-family="Times,serif" font-size="14.00">gRPC&#45;ConsumeRequestIterator3</text>
</g>
<!-- ConsumerHelper&#45;ConsumeBidirectionalStream&#45;&gt;gRPC&#45;ConsumeRequestIterator3 -->
<g id="edge24" class="edge"><title>ConsumerHelper&#45;ConsumeBidirectionalStream&#45;&gt;gRPC&#45;ConsumeRequestIterator3</title>
<path fill="none" stroke="black" d="M1713.88,-76.8462C1735.74,-74.9857 1758.33,-73.2664 1779.59,-72 2334.39,-38.9579 2475.45,-78.7695 3029.59,-36 3041.95,-35.0461 3054.91,-33.7691 3067.72,-32.3414"/>
<polygon fill="black" stroke="black" points="3068.4,-35.7861 3077.93,-31.1674 3067.6,-28.8318 3068.4,-35.7861"/>
</g>
</g>
</svg>
