<?xml version="1.0" encoding="UTF-8" standalone="no"?>
<!DOCTYPE svg PUBLIC "-//W3C//DTD SVG 1.1//EN"
 "http://www.w3.org/Graphics/SVG/1.1/DTD/svg11.dtd">
<!-- Generated by graphviz version 2.38.0 (20140413.2041)
 -->
<!-- Title: %3 Pages: 1 -->
<svg width="2777pt" height="188pt"
 viewBox="0.00 0.00 2776.68 188.00" xmlns="http://www.w3.org/2000/svg" xmlns:xlink="http://www.w3.org/1999/xlink">
<g id="graph0" class="graph" transform="scale(1 1) rotate(0) translate(4 184)">
<title>%3</title>
<polygon fill="white" stroke="none" points="-4,4 -4,-184 2772.68,-184 2772.68,4 -4,4"/>
<!-- MainThread -->
<g id="node1" class="node"><title>MainThread</title>
<ellipse fill="none" stroke="black" cx="952.942" cy="-162" rx="54.6905" ry="18"/>
<text text-anchor="middle" x="952.942" y="-158.3" font-family="Times,serif" font-size="14.00">MainThread</text>
</g>
<!-- gRPC&#45;SubscribeMoot0 -->
<g id="node2" class="node"><title>gRPC&#45;SubscribeMoot0</title>
<ellipse fill="none" stroke="black" cx="92.9418" cy="-90" rx="92.8835" ry="18"/>
<text text-anchor="middle" x="92.9418" y="-86.3" font-family="Times,serif" font-size="14.00">gRPC&#45;SubscribeMoot0</text>
</g>
<!-- MainThread&#45;&gt;gRPC&#45;SubscribeMoot0 -->
<g id="edge1" class="edge"><title>MainThread&#45;&gt;gRPC&#45;SubscribeMoot0</title>
<path fill="none" stroke="black" d="M899.013,-158.997C774.587,-153.99 457.943,-139.04 194.942,-108 186.327,-106.983 177.332,-105.745 168.405,-104.405"/>
<polygon fill="black" stroke="black" points="168.797,-100.924 158.38,-102.854 167.727,-107.841 168.797,-100.924"/>
</g>
<!-- gRPC&#45;SubscribeMoot1 -->
<g id="node3" class="node"><title>gRPC&#45;SubscribeMoot1</title>
<ellipse fill="none" stroke="black" cx="296.942" cy="-90" rx="92.8835" ry="18"/>
<text text-anchor="middle" x="296.942" y="-86.3" font-family="Times,serif" font-size="14.00">gRPC&#45;SubscribeMoot1</text>
</g>
<!-- MainThread&#45;&gt;gRPC&#45;SubscribeMoot1 -->
<g id="edge2" class="edge"><title>MainThread&#45;&gt;gRPC&#45;SubscribeMoot1</title>
<path fill="none" stroke="black" d="M900.097,-157.179C801.392,-149.768 582.401,-132.034 398.942,-108 390.562,-106.902 381.814,-105.633 373.118,-104.293"/>
<polygon fill="black" stroke="black" points="373.38,-100.791 362.958,-102.693 372.292,-107.706 373.38,-100.791"/>
</g>
<!-- gRPC&#45;PluginGetMetadata0 -->
<g id="node5" class="node"><title>gRPC&#45;PluginGetMetadata0</title>
<ellipse fill="none" stroke="black" cx="515.942" cy="-90" rx="107.781" ry="18"/>
<text text-anchor="middle" x="515.942" y="-86.3" font-family="Times,serif" font-size="14.00">gRPC&#45;PluginGetMetadata0</text>
</g>
<!-- MainThread&#45;&gt;gRPC&#45;PluginGetMetadata0 -->
<g id="edge3" class="edge"><title>MainThread&#45;&gt;gRPC&#45;PluginGetMetadata0</title>
<path fill="none" stroke="black" d="M904.925,-153.309C831.837,-141.601 691.62,-119.141 601.01,-104.627"/>
<polygon fill="black" stroke="black" points="601.463,-101.155 591.036,-103.029 600.356,-108.066 601.463,-101.155"/>
</g>
<!-- gRPC&#45;PluginGetMetadata1 -->
<g id="node6" class="node"><title>gRPC&#45;PluginGetMetadata1</title>
<ellipse fill="none" stroke="black" cx="749.942" cy="-90" rx="107.781" ry="18"/>
<text text-anchor="middle" x="749.942" y="-86.3" font-family="Times,serif" font-size="14.00">gRPC&#45;PluginGetMetadata1</text>
</g>
<!-- MainThread&#45;&gt;gRPC&#45;PluginGetMetadata1 -->
<g id="edge4" class="edge"><title>MainThread&#45;&gt;gRPC&#45;PluginGetMetadata1</title>
<path fill="none" stroke="black" d="M916.649,-148.485C885.481,-137.738 840.086,-122.084 804.534,-109.825"/>
<polygon fill="black" stroke="black" points="805.382,-106.415 794.787,-106.464 803.1,-113.033 805.382,-106.415"/>
</g>
<!-- LeaseMaintenance -->
<g id="node8" class="node"><title>LeaseMaintenance</title>
<ellipse fill="none" stroke="black" cx="952.942" cy="-90" rx="77.1866" ry="18"/>
<text text-anchor="middle" x="952.942" y="-86.3" font-family="Times,serif" font-size="14.00">LeaseMaintenance</text>
</g>
<!-- MainThread&#45;&gt;LeaseMaintenance -->
<g id="edge7" class="edge"><title>MainThread&#45;&gt;LeaseMaintenance</title>
<path fill="none" stroke="black" d="M952.942,-143.697C952.942,-135.983 952.942,-126.712 952.942,-118.112"/>
<polygon fill="black" stroke="black" points="956.442,-118.104 952.942,-108.104 949.442,-118.104 956.442,-118.104"/>
</g>
<!-- gRPC&#45;PluginGetMetadata4 -->
<g id="node15" class="node"><title>gRPC&#45;PluginGetMetadata4</title>
<ellipse fill="none" stroke="black" cx="1155.94" cy="-90" rx="107.781" ry="18"/>
<text text-anchor="middle" x="1155.94" y="-86.3" font-family="Times,serif" font-size="14.00">gRPC&#45;PluginGetMetadata4</text>
</g>
<!-- MainThread&#45;&gt;gRPC&#45;PluginGetMetadata4 -->
<g id="edge8" class="edge"><title>MainThread&#45;&gt;gRPC&#45;PluginGetMetadata4</title>
<path fill="none" stroke="black" d="M989.234,-148.485C1020.4,-137.738 1065.8,-122.084 1101.35,-109.825"/>
<polygon fill="black" stroke="black" points="1102.78,-113.033 1111.1,-106.464 1100.5,-106.415 1102.78,-113.033"/>
</g>
<!-- gRPC&#45;PluginGetMetadata5 -->
<g id="node16" class="node"><title>gRPC&#45;PluginGetMetadata5</title>
<ellipse fill="none" stroke="black" cx="1389.94" cy="-90" rx="107.781" ry="18"/>
<text text-anchor="middle" x="1389.94" y="-86.3" font-family="Times,serif" font-size="14.00">gRPC&#45;PluginGetMetadata5</text>
</g>
<!-- MainThread&#45;&gt;gRPC&#45;PluginGetMetadata5 -->
<g id="edge9" class="edge"><title>MainThread&#45;&gt;gRPC&#45;PluginGetMetadata5</title>
<path fill="none" stroke="black" d="M992.712,-149.646C1000.69,-147.591 1009.05,-145.596 1016.94,-144 1129.56,-121.211 1159.2,-124.261 1272.94,-108 1282.22,-106.674 1291.9,-105.281 1301.56,-103.886"/>
<polygon fill="black" stroke="black" points="1302.2,-107.33 1311.59,-102.434 1301.2,-100.402 1302.2,-107.33"/>
</g>
<!-- Consumer helper: callback requests worker -->
<g id="node17" class="node"><title>Consumer helper: callback requests worker</title>
<ellipse fill="none" stroke="black" cx="1679.94" cy="-90" rx="164.371" ry="18"/>
<text text-anchor="middle" x="1679.94" y="-86.3" font-family="Times,serif" font-size="14.00">Consumer helper: callback requests worker</text>
</g>
<!-- MainThread&#45;&gt;Consumer helper: callback requests worker -->
<g id="edge5" class="edge"><title>MainThread&#45;&gt;Consumer helper: callback requests worker</title>
<path fill="none" stroke="black" d="M991.951,-149.404C1000.14,-147.317 1008.78,-145.372 1016.94,-144 1232.29,-107.814 1289.38,-126.679 1506.94,-108 1522.11,-106.698 1538.02,-105.248 1553.79,-103.761"/>
<polygon fill="black" stroke="black" points="1554.5,-107.209 1564.12,-102.779 1553.83,-100.241 1554.5,-107.209"/>
</g>
<!-- Consumer helper: consume bidirectional stream -->
<g id="node18" class="node"><title>Consumer helper: consume bidirectional stream</title>
<ellipse fill="none" stroke="black" cx="2043.94" cy="-90" rx="181.168" ry="18"/>
<text text-anchor="middle" x="2043.94" y="-86.3" font-family="Times,serif" font-size="14.00">Consumer helper: consume bidirectional stream</text>
</g>
<!-- MainThread&#45;&gt;Consumer helper: consume bidirectional stream -->
<g id="edge6" class="edge"><title>MainThread&#45;&gt;Consumer helper: consume bidirectional stream</title>
<path fill="none" stroke="black" d="M991.92,-149.212C1000.12,-147.139 1008.76,-145.248 1016.94,-144 1384.59,-87.934 1481.85,-132.492 1852.94,-108 1870.89,-106.815 1889.78,-105.373 1908.4,-103.835"/>
<polygon fill="black" stroke="black" points="1908.73,-107.32 1918.4,-102.998 1908.15,-100.344 1908.73,-107.32"/>
</g>
<!-- gRPC&#45;SpawnDelivery -->
<g id="node4" class="node"><title>gRPC&#45;SpawnDelivery</title>
<ellipse fill="none" stroke="black" cx="296.942" cy="-18" rx="89.0842" ry="18"/>
<text text-anchor="middle" x="296.942" y="-14.3" font-family="Times,serif" font-size="14.00">gRPC&#45;SpawnDelivery</text>
</g>
<!-- gRPC&#45;SubscribeMoot1&#45;&gt;gRPC&#45;SpawnDelivery -->
<g id="edge10" class="edge"><title>gRPC&#45;SubscribeMoot1&#45;&gt;gRPC&#45;SpawnDelivery</title>
<path fill="none" stroke="black" d="M296.942,-71.6966C296.942,-63.9827 296.942,-54.7125 296.942,-46.1124"/>
<polygon fill="black" stroke="black" points="300.442,-46.1043 296.942,-36.1043 293.442,-46.1044 300.442,-46.1043"/>
</g>
<!-- Consumer helper -->
<g id="node7" class="node"><title>Consumer helper</title>
<ellipse fill="none" stroke="black" cx="1096.94" cy="-162" rx="71.4873" ry="18"/>
<text text-anchor="middle" x="1096.94" y="-158.3" font-family="Times,serif" font-size="14.00">Consumer helper</text>
</g>
<!-- gRPC&#45;PluginGetMetadata2 -->
<g id="node9" class="node"><title>gRPC&#45;PluginGetMetadata2</title>
<ellipse fill="none" stroke="black" cx="1444.94" cy="-18" rx="107.781" ry="18"/>
<text text-anchor="middle" x="1444.94" y="-14.3" font-family="Times,serif" font-size="14.00">gRPC&#45;PluginGetMetadata2</text>
</g>
<!-- gRPC&#45;StopChannelSpin0 -->
<g id="node10" class="node"><title>gRPC&#45;StopChannelSpin0</title>
<ellipse fill="none" stroke="black" cx="1671.94" cy="-18" rx="100.983" ry="18"/>
<text text-anchor="middle" x="1671.94" y="-14.3" font-family="Times,serif" font-size="14.00">gRPC&#45;StopChannelSpin0</text>
</g>
<!-- gRPC&#45;ConsumeRequestIterator0 -->
<g id="node11" class="node"><title>gRPC&#45;ConsumeRequestIterator0</title>
<ellipse fill="none" stroke="black" cx="1916.94" cy="-18" rx="126.978" ry="18"/>
<text text-anchor="middle" x="1916.94" y="-14.3" font-family="Times,serif" font-size="14.00">gRPC&#45;ConsumeRequestIterator0</text>
</g>
<!-- gRPC&#45;PluginGetMetadata3 -->
<g id="node12" class="node"><title>gRPC&#45;PluginGetMetadata3</title>
<ellipse fill="none" stroke="black" cx="2169.94" cy="-18" rx="107.781" ry="18"/>
<text text-anchor="middle" x="2169.94" y="-14.3" font-family="Times,serif" font-size="14.00">gRPC&#45;PluginGetMetadata3</text>
</g>
<!-- gRPC&#45;StopChannelSpin1 -->
<g id="node13" class="node"><title>gRPC&#45;StopChannelSpin1</title>
<ellipse fill="none" stroke="black" cx="2396.94" cy="-18" rx="100.983" ry="18"/>
<text text-anchor="middle" x="2396.94" y="-14.3" font-family="Times,serif" font-size="14.00">gRPC&#45;StopChannelSpin1</text>
</g>
<!-- gRPC&#45;ConsumeRequestIterator1 -->
<g id="node14" class="node"><title>gRPC&#45;ConsumeRequestIterator1</title>
<ellipse fill="none" stroke="black" cx="2641.94" cy="-18" rx="126.978" ry="18"/>
<text text-anchor="middle" x="2641.94" y="-14.3" font-family="Times,serif" font-size="14.00">gRPC&#45;ConsumeRequestIterator1</text>
</g>
<!-- Consumer helper: consume bidirectional stream&#45;&gt;gRPC&#45;PluginGetMetadata2 -->
<g id="edge11" class="edge"><title>Consumer helper: consume bidirectional stream&#45;&gt;gRPC&#45;PluginGetMetadata2</title>
<path fill="none" stroke="black" d="M1921.47,-76.721C1823.97,-66.6585 1684.07,-51.5826 1561.94,-36 1552.32,-34.7725 1542.27,-33.419 1532.27,-32.0279"/>
<polygon fill="black" stroke="black" points="1532.69,-28.5532 1522.3,-30.6274 1531.72,-35.4851 1532.69,-28.5532"/>
</g>
<!-- Consumer helper: consume bidirectional stream&#45;&gt;gRPC&#45;StopChannelSpin0 -->
<g id="edge12" class="edge"><title>Consumer helper: consume bidirectional stream&#45;&gt;gRPC&#45;StopChannelSpin0</title>
<path fill="none" stroke="black" d="M1963.22,-73.811C1899.56,-61.8319 1811.37,-45.236 1748.74,-33.4518"/>
<polygon fill="black" stroke="black" points="1749,-29.9398 1738.53,-31.5301 1747.71,-36.819 1749,-29.9398"/>
</g>
<!-- Consumer helper: consume bidirectional stream&#45;&gt;gRPC&#45;ConsumeRequestIterator0 -->
<g id="edge13" class="edge"><title>Consumer helper: consume bidirectional stream&#45;&gt;gRPC&#45;ConsumeRequestIterator0</title>
<path fill="none" stroke="black" d="M2013.52,-72.2333C1996.24,-62.7092 1974.43,-50.6862 1955.91,-40.4771"/>
<polygon fill="black" stroke="black" points="1957.56,-37.3919 1947.11,-35.6299 1954.18,-43.5223 1957.56,-37.3919"/>
</g>
<!-- Consumer helper: consume bidirectional stream&#45;&gt;gRPC&#45;PluginGetMetadata3 -->
<g id="edge14" class="edge"><title>Consumer helper: consume bidirectional stream&#45;&gt;gRPC&#45;PluginGetMetadata3</title>
<path fill="none" stroke="black" d="M2074.12,-72.2333C2091.39,-62.6397 2113.22,-50.5105 2131.68,-40.2538"/>
<polygon fill="black" stroke="black" points="2133.4,-43.3044 2140.44,-35.3884 2130,-37.1853 2133.4,-43.3044"/>
</g>
<!-- Consumer helper: consume bidirectional stream&#45;&gt;gRPC&#45;StopChannelSpin1 -->
<g id="edge15" class="edge"><title>Consumer helper: consume bidirectional stream&#45;&gt;gRPC&#45;StopChannelSpin1</title>
<path fill="none" stroke="black" d="M2121.41,-73.6382C2181.08,-61.8064 2263.07,-45.5476 2322.07,-33.8468"/>
<polygon fill="black" stroke="black" points="2322.94,-37.242 2332.07,-31.8636 2321.58,-30.3757 2322.94,-37.242"/>
</g>
<!-- Consumer helper: consume bidirectional stream&#45;&gt;gRPC&#45;ConsumeRequestIterator1 -->
<g id="edge16" class="edge"><title>Consumer helper: consume bidirectional stream&#45;&gt;gRPC&#45;ConsumeRequestIterator1</title>
<path fill="none" stroke="black" d="M2159.58,-76.1298C2253.26,-65.614 2388.66,-50.2171 2506.94,-36 2518.01,-34.67 2529.58,-33.2528 2541.1,-31.8258"/>
<polygon fill="black" stroke="black" points="2541.7,-35.2782 2551.19,-30.5711 2540.83,-28.3317 2541.7,-35.2782"/>
</g>
</g>
</svg>
