<?xml version="1.0" encoding="UTF-8" standalone="no"?>
<!DOCTYPE svg PUBLIC "-//W3C//DTD SVG 1.1//EN"
 "http://www.w3.org/Graphics/SVG/1.1/DTD/svg11.dtd">
<!-- Generated by graphviz version 2.38.0 (20140413.2041)
 -->
<!-- Title: %3 Pages: 1 -->
<svg width="2777pt" height="188pt"
 viewBox="0.00 0.00 2777.33 188.00" xmlns="http://www.w3.org/2000/svg" xmlns:xlink="http://www.w3.org/1999/xlink">
<g id="graph0" class="graph" transform="scale(1 1) rotate(0) translate(4 184)">
<title>%3</title>
<polygon fill="white" stroke="none" points="-4,4 -4,-184 2773.33,-184 2773.33,4 -4,4"/>
<!-- MainThread -->
<g id="node1" class="node"><title>MainThread</title>
<ellipse fill="none" stroke="black" cx="953.592" cy="-162" rx="54.6905" ry="18"/>
<text text-anchor="middle" x="953.592" y="-158.3" font-family="Times,serif" font-size="14.00">MainThread</text>
</g>
<!-- gRPC&#45;SubscribeMoot0 -->
<g id="node2" class="node"><title>gRPC&#45;SubscribeMoot0</title>
<ellipse fill="none" stroke="black" cx="93.5917" cy="-90" rx="92.8835" ry="18"/>
<text text-anchor="middle" x="93.5917" y="-86.3" font-family="Times,serif" font-size="14.00">gRPC&#45;SubscribeMoot0</text>
</g>
<!-- MainThread&#45;&gt;gRPC&#45;SubscribeMoot0 -->
<g id="edge1" class="edge"><title>MainThread&#45;&gt;gRPC&#45;SubscribeMoot0</title>
<path fill="none" stroke="black" d="M899.663,-158.997C775.236,-153.99 458.593,-139.04 195.592,-108 186.977,-106.983 177.981,-105.745 169.055,-104.405"/>
<polygon fill="black" stroke="black" points="169.447,-100.924 159.029,-102.854 168.377,-107.841 169.447,-100.924"/>
</g>
<!-- gRPC&#45;SubscribeMoot1 -->
<g id="node4" class="node"><title>gRPC&#45;SubscribeMoot1</title>
<ellipse fill="none" stroke="black" cx="297.592" cy="-90" rx="92.8835" ry="18"/>
<text text-anchor="middle" x="297.592" y="-86.3" font-family="Times,serif" font-size="14.00">gRPC&#45;SubscribeMoot1</text>
</g>
<!-- MainThread&#45;&gt;gRPC&#45;SubscribeMoot1 -->
<g id="edge2" class="edge"><title>MainThread&#45;&gt;gRPC&#45;SubscribeMoot1</title>
<path fill="none" stroke="black" d="M900.747,-157.179C802.042,-149.768 583.051,-132.034 399.592,-108 391.212,-106.902 382.464,-105.633 373.768,-104.293"/>
<polygon fill="black" stroke="black" points="374.03,-100.791 363.608,-102.693 372.942,-107.706 374.03,-100.791"/>
</g>
<!-- gRPC&#45;PluginGetMetadata0 -->
<g id="node6" class="node"><title>gRPC&#45;PluginGetMetadata0</title>
<ellipse fill="none" stroke="black" cx="516.592" cy="-90" rx="107.781" ry="18"/>
<text text-anchor="middle" x="516.592" y="-86.3" font-family="Times,serif" font-size="14.00">gRPC&#45;PluginGetMetadata0</text>
</g>
<!-- MainThread&#45;&gt;gRPC&#45;PluginGetMetadata0 -->
<g id="edge3" class="edge"><title>MainThread&#45;&gt;gRPC&#45;PluginGetMetadata0</title>
<path fill="none" stroke="black" d="M905.575,-153.309C832.487,-141.601 692.27,-119.141 601.66,-104.627"/>
<polygon fill="black" stroke="black" points="602.113,-101.155 591.686,-103.029 601.006,-108.066 602.113,-101.155"/>
</g>
<!-- gRPC&#45;PluginGetMetadata1 -->
<g id="node7" class="node"><title>gRPC&#45;PluginGetMetadata1</title>
<ellipse fill="none" stroke="black" cx="750.592" cy="-90" rx="107.781" ry="18"/>
<text text-anchor="middle" x="750.592" y="-86.3" font-family="Times,serif" font-size="14.00">gRPC&#45;PluginGetMetadata1</text>
</g>
<!-- MainThread&#45;&gt;gRPC&#45;PluginGetMetadata1 -->
<g id="edge4" class="edge"><title>MainThread&#45;&gt;gRPC&#45;PluginGetMetadata1</title>
<path fill="none" stroke="black" d="M917.299,-148.485C886.131,-137.738 840.736,-122.084 805.184,-109.825"/>
<polygon fill="black" stroke="black" points="806.032,-106.415 795.437,-106.464 803.75,-113.033 806.032,-106.415"/>
</g>
<!-- LeaseMaintenance -->
<g id="node9" class="node"><title>LeaseMaintenance</title>
<ellipse fill="none" stroke="black" cx="953.592" cy="-90" rx="77.1866" ry="18"/>
<text text-anchor="middle" x="953.592" y="-86.3" font-family="Times,serif" font-size="14.00">LeaseMaintenance</text>
</g>
<!-- MainThread&#45;&gt;LeaseMaintenance -->
<g id="edge7" class="edge"><title>MainThread&#45;&gt;LeaseMaintenance</title>
<path fill="none" stroke="black" d="M953.592,-143.697C953.592,-135.983 953.592,-126.712 953.592,-118.112"/>
<polygon fill="black" stroke="black" points="957.092,-118.104 953.592,-108.104 950.092,-118.104 957.092,-118.104"/>
</g>
<!-- gRPC&#45;PluginGetMetadata4 -->
<g id="node16" class="node"><title>gRPC&#45;PluginGetMetadata4</title>
<ellipse fill="none" stroke="black" cx="1156.59" cy="-90" rx="107.781" ry="18"/>
<text text-anchor="middle" x="1156.59" y="-86.3" font-family="Times,serif" font-size="14.00">gRPC&#45;PluginGetMetadata4</text>
</g>
<!-- MainThread&#45;&gt;gRPC&#45;PluginGetMetadata4 -->
<g id="edge8" class="edge"><title>MainThread&#45;&gt;gRPC&#45;PluginGetMetadata4</title>
<path fill="none" stroke="black" d="M989.884,-148.485C1021.05,-137.738 1066.45,-122.084 1102,-109.825"/>
<polygon fill="black" stroke="black" points="1103.43,-113.033 1111.75,-106.464 1101.15,-106.415 1103.43,-113.033"/>
</g>
<!-- gRPC&#45;PluginGetMetadata5 -->
<g id="node17" class="node"><title>gRPC&#45;PluginGetMetadata5</title>
<ellipse fill="none" stroke="black" cx="1390.59" cy="-90" rx="107.781" ry="18"/>
<text text-anchor="middle" x="1390.59" y="-86.3" font-family="Times,serif" font-size="14.00">gRPC&#45;PluginGetMetadata5</text>
</g>
<!-- MainThread&#45;&gt;gRPC&#45;PluginGetMetadata5 -->
<g id="edge9" class="edge"><title>MainThread&#45;&gt;gRPC&#45;PluginGetMetadata5</title>
<path fill="none" stroke="black" d="M993.362,-149.646C1001.34,-147.591 1009.7,-145.596 1017.59,-144 1130.21,-121.211 1159.85,-124.261 1273.59,-108 1282.87,-106.674 1292.55,-105.281 1302.21,-103.886"/>
<polygon fill="black" stroke="black" points="1302.85,-107.33 1312.24,-102.434 1301.85,-100.402 1302.85,-107.33"/>
</g>
<!-- Consumer helper: callback requests worker -->
<g id="node18" class="node"><title>Consumer helper: callback requests worker</title>
<ellipse fill="none" stroke="black" cx="1680.59" cy="-90" rx="164.371" ry="18"/>
<text text-anchor="middle" x="1680.59" y="-86.3" font-family="Times,serif" font-size="14.00">Consumer helper: callback requests worker</text>
</g>
<!-- MainThread&#45;&gt;Consumer helper: callback requests worker -->
<g id="edge5" class="edge"><title>MainThread&#45;&gt;Consumer helper: callback requests worker</title>
<path fill="none" stroke="black" d="M992.601,-149.404C1000.79,-147.317 1009.43,-145.372 1017.59,-144 1232.94,-107.814 1290.03,-126.679 1507.59,-108 1522.76,-106.698 1538.67,-105.248 1554.44,-103.761"/>
<polygon fill="black" stroke="black" points="1555.15,-107.209 1564.77,-102.779 1554.48,-100.241 1555.15,-107.209"/>
</g>
<!-- Consumer helper: consume bidirectional stream -->
<g id="node19" class="node"><title>Consumer helper: consume bidirectional stream</title>
<ellipse fill="none" stroke="black" cx="2044.59" cy="-90" rx="181.168" ry="18"/>
<text text-anchor="middle" x="2044.59" y="-86.3" font-family="Times,serif" font-size="14.00">Consumer helper: consume bidirectional stream</text>
</g>
<!-- MainThread&#45;&gt;Consumer helper: consume bidirectional stream -->
<g id="edge6" class="edge"><title>MainThread&#45;&gt;Consumer helper: consume bidirectional stream</title>
<path fill="none" stroke="black" d="M992.57,-149.212C1000.77,-147.139 1009.41,-145.248 1017.59,-144 1385.24,-87.934 1482.5,-132.492 1853.59,-108 1871.54,-106.815 1890.43,-105.373 1909.05,-103.835"/>
<polygon fill="black" stroke="black" points="1909.38,-107.32 1919.05,-102.998 1908.8,-100.344 1909.38,-107.32"/>
</g>
<!-- gRPC&#45;SpawnDelivery0 -->
<g id="node3" class="node"><title>gRPC&#45;SpawnDelivery0</title>
<ellipse fill="none" stroke="black" cx="93.5917" cy="-18" rx="93.6835" ry="18"/>
<text text-anchor="middle" x="93.5917" y="-14.3" font-family="Times,serif" font-size="14.00">gRPC&#45;SpawnDelivery0</text>
</g>
<!-- gRPC&#45;SubscribeMoot0&#45;&gt;gRPC&#45;SpawnDelivery0 -->
<g id="edge10" class="edge"><title>gRPC&#45;SubscribeMoot0&#45;&gt;gRPC&#45;SpawnDelivery0</title>
<path fill="none" stroke="black" d="M93.5917,-71.6966C93.5917,-63.9827 93.5917,-54.7125 93.5917,-46.1124"/>
<polygon fill="black" stroke="black" points="97.0918,-46.1043 93.5917,-36.1043 90.0918,-46.1044 97.0918,-46.1043"/>
</g>
<!-- gRPC&#45;SpawnDelivery1 -->
<g id="node5" class="node"><title>gRPC&#45;SpawnDelivery1</title>
<ellipse fill="none" stroke="black" cx="298.592" cy="-18" rx="93.6835" ry="18"/>
<text text-anchor="middle" x="298.592" y="-14.3" font-family="Times,serif" font-size="14.00">gRPC&#45;SpawnDelivery1</text>
</g>
<!-- gRPC&#45;SubscribeMoot1&#45;&gt;gRPC&#45;SpawnDelivery1 -->
<g id="edge11" class="edge"><title>gRPC&#45;SubscribeMoot1&#45;&gt;gRPC&#45;SpawnDelivery1</title>
<path fill="none" stroke="black" d="M297.839,-71.6966C297.949,-63.9827 298.082,-54.7125 298.204,-46.1124"/>
<polygon fill="black" stroke="black" points="301.704,-46.1533 298.347,-36.1043 294.705,-46.0533 301.704,-46.1533"/>
</g>
<!-- Consumer helper -->
<g id="node8" class="node"><title>Consumer helper</title>
<ellipse fill="none" stroke="black" cx="1097.59" cy="-162" rx="71.4873" ry="18"/>
<text text-anchor="middle" x="1097.59" y="-158.3" font-family="Times,serif" font-size="14.00">Consumer helper</text>
</g>
<!-- gRPC&#45;PluginGetMetadata2 -->
<g id="node10" class="node"><title>gRPC&#45;PluginGetMetadata2</title>
<ellipse fill="none" stroke="black" cx="1445.59" cy="-18" rx="107.781" ry="18"/>
<text text-anchor="middle" x="1445.59" y="-14.3" font-family="Times,serif" font-size="14.00">gRPC&#45;PluginGetMetadata2</text>
</g>
<!-- gRPC&#45;StopChannelSpin0 -->
<g id="node11" class="node"><title>gRPC&#45;StopChannelSpin0</title>
<ellipse fill="none" stroke="black" cx="1672.59" cy="-18" rx="100.983" ry="18"/>
<text text-anchor="middle" x="1672.59" y="-14.3" font-family="Times,serif" font-size="14.00">gRPC&#45;StopChannelSpin0</text>
</g>
<!-- gRPC&#45;ConsumeRequestIterator0 -->
<g id="node12" class="node"><title>gRPC&#45;ConsumeRequestIterator0</title>
<ellipse fill="none" stroke="black" cx="1917.59" cy="-18" rx="126.978" ry="18"/>
<text text-anchor="middle" x="1917.59" y="-14.3" font-family="Times,serif" font-size="14.00">gRPC&#45;ConsumeRequestIterator0</text>
</g>
<!-- gRPC&#45;PluginGetMetadata3 -->
<g id="node13" class="node"><title>gRPC&#45;PluginGetMetadata3</title>
<ellipse fill="none" stroke="black" cx="2170.59" cy="-18" rx="107.781" ry="18"/>
<text text-anchor="middle" x="2170.59" y="-14.3" font-family="Times,serif" font-size="14.00">gRPC&#45;PluginGetMetadata3</text>
</g>
<!-- gRPC&#45;StopChannelSpin1 -->
<g id="node14" class="node"><title>gRPC&#45;StopChannelSpin1</title>
<ellipse fill="none" stroke="black" cx="2397.59" cy="-18" rx="100.983" ry="18"/>
<text text-anchor="middle" x="2397.59" y="-14.3" font-family="Times,serif" font-size="14.00">gRPC&#45;StopChannelSpin1</text>
</g>
<!-- gRPC&#45;ConsumeRequestIterator1 -->
<g id="node15" class="node"><title>gRPC&#45;ConsumeRequestIterator1</title>
<ellipse fill="none" stroke="black" cx="2642.59" cy="-18" rx="126.978" ry="18"/>
<text text-anchor="middle" x="2642.59" y="-14.3" font-family="Times,serif" font-size="14.00">gRPC&#45;ConsumeRequestIterator1</text>
</g>
<!-- Consumer helper: consume bidirectional stream&#45;&gt;gRPC&#45;PluginGetMetadata2 -->
<g id="edge12" class="edge"><title>Consumer helper: consume bidirectional stream&#45;&gt;gRPC&#45;PluginGetMetadata2</title>
<path fill="none" stroke="black" d="M1922.12,-76.721C1824.62,-66.6585 1684.72,-51.5826 1562.59,-36 1552.97,-34.7725 1542.92,-33.419 1532.92,-32.0279"/>
<polygon fill="black" stroke="black" points="1533.34,-28.5532 1522.95,-30.6274 1532.37,-35.4851 1533.34,-28.5532"/>
</g>
<!-- Consumer helper: consume bidirectional stream&#45;&gt;gRPC&#45;StopChannelSpin0 -->
<g id="edge13" class="edge"><title>Consumer helper: consume bidirectional stream&#45;&gt;gRPC&#45;StopChannelSpin0</title>
<path fill="none" stroke="black" d="M1963.87,-73.811C1900.21,-61.8319 1812.02,-45.236 1749.39,-33.4518"/>
<polygon fill="black" stroke="black" points="1749.65,-29.9398 1739.18,-31.5301 1748.36,-36.819 1749.65,-29.9398"/>
</g>
<!-- Consumer helper: consume bidirectional stream&#45;&gt;gRPC&#45;ConsumeRequestIterator0 -->
<g id="edge14" class="edge"><title>Consumer helper: consume bidirectional stream&#45;&gt;gRPC&#45;ConsumeRequestIterator0</title>
<path fill="none" stroke="black" d="M2014.17,-72.2333C1996.89,-62.7092 1975.08,-50.6862 1956.56,-40.4771"/>
<polygon fill="black" stroke="black" points="1958.21,-37.3919 1947.76,-35.6299 1954.83,-43.5223 1958.21,-37.3919"/>
</g>
<!-- Consumer helper: consume bidirectional stream&#45;&gt;gRPC&#45;PluginGetMetadata3 -->
<g id="edge15" class="edge"><title>Consumer helper: consume bidirectional stream&#45;&gt;gRPC&#45;PluginGetMetadata3</title>
<path fill="none" stroke="black" d="M2074.77,-72.2333C2092.04,-62.6397 2113.87,-50.5105 2132.33,-40.2538"/>
<polygon fill="black" stroke="black" points="2134.05,-43.3044 2141.09,-35.3884 2130.65,-37.1853 2134.05,-43.3044"/>
</g>
<!-- Consumer helper: consume bidirectional stream&#45;&gt;gRPC&#45;StopChannelSpin1 -->
<g id="edge16" class="edge"><title>Consumer helper: consume bidirectional stream&#45;&gt;gRPC&#45;StopChannelSpin1</title>
<path fill="none" stroke="black" d="M2122.06,-73.6382C2181.73,-61.8064 2263.72,-45.5476 2322.72,-33.8468"/>
<polygon fill="black" stroke="black" points="2323.59,-37.242 2332.72,-31.8636 2322.23,-30.3757 2323.59,-37.242"/>
</g>
<!-- Consumer helper: consume bidirectional stream&#45;&gt;gRPC&#45;ConsumeRequestIterator1 -->
<g id="edge17" class="edge"><title>Consumer helper: consume bidirectional stream&#45;&gt;gRPC&#45;ConsumeRequestIterator1</title>
<path fill="none" stroke="black" d="M2160.23,-76.1298C2253.91,-65.614 2389.31,-50.2171 2507.59,-36 2518.66,-34.67 2530.23,-33.2528 2541.75,-31.8258"/>
<polygon fill="black" stroke="black" points="2542.35,-35.2782 2551.84,-30.5711 2541.48,-28.3317 2542.35,-35.2782"/>
</g>
</g>
</svg>
