<?xml version="1.0" encoding="UTF-8" standalone="no"?>
<!DOCTYPE svg PUBLIC "-//W3C//DTD SVG 1.1//EN"
 "http://www.w3.org/Graphics/SVG/1.1/DTD/svg11.dtd">
<!-- Generated by graphviz version 2.38.0 (20140413.2041)
 -->
<!-- Title: %3 Pages: 1 -->
<svg width="3736pt" height="188pt"
 viewBox="0.00 0.00 3736.33 188.00" xmlns="http://www.w3.org/2000/svg" xmlns:xlink="http://www.w3.org/1999/xlink">
<g id="graph0" class="graph" transform="scale(1 1) rotate(0) translate(4 184)">
<title>%3</title>
<polygon fill="white" stroke="none" points="-4,4 -4,-184 3732.33,-184 3732.33,4 -4,4"/>
<!-- MainThread -->
<g id="node1" class="node"><title>MainThread</title>
<ellipse fill="none" stroke="black" cx="1054.59" cy="-162" rx="54.6905" ry="18"/>
<text text-anchor="middle" x="1054.59" y="-158.3" font-family="Times,serif" font-size="14.00">MainThread</text>
</g>
<!-- gRPC&#45;SubscribeMoot0 -->
<g id="node2" class="node"><title>gRPC&#45;SubscribeMoot0</title>
<ellipse fill="none" stroke="black" cx="93.5917" cy="-90" rx="92.8835" ry="18"/>
<text text-anchor="middle" x="93.5917" y="-86.3" font-family="Times,serif" font-size="14.00">gRPC&#45;SubscribeMoot0</text>
</g>
<!-- MainThread&#45;&gt;gRPC&#45;SubscribeMoot0 -->
<g id="edge1" class="edge"><title>MainThread&#45;&gt;gRPC&#45;SubscribeMoot0</title>
<path fill="none" stroke="black" d="M1000.15,-159.597C864.098,-155.666 498.442,-142.487 195.592,-108 186.909,-107.011 177.839,-105.784 168.845,-104.444"/>
<polygon fill="black" stroke="black" points="169.163,-100.952 158.747,-102.891 168.098,-107.871 169.163,-100.952"/>
</g>
<!-- gRPC&#45;SubscribeMoot1 -->
<g id="node4" class="node"><title>gRPC&#45;SubscribeMoot1</title>
<ellipse fill="none" stroke="black" cx="297.592" cy="-90" rx="92.8835" ry="18"/>
<text text-anchor="middle" x="297.592" y="-86.3" font-family="Times,serif" font-size="14.00">gRPC&#45;SubscribeMoot1</text>
</g>
<!-- MainThread&#45;&gt;gRPC&#45;SubscribeMoot1 -->
<g id="edge2" class="edge"><title>MainThread&#45;&gt;gRPC&#45;SubscribeMoot1</title>
<path fill="none" stroke="black" d="M1000.95,-158.197C888.925,-152.006 622.08,-135.492 399.592,-108 391.048,-106.944 382.126,-105.688 373.267,-104.342"/>
<polygon fill="black" stroke="black" points="373.736,-100.873 363.316,-102.792 372.658,-107.79 373.736,-100.873"/>
</g>
<!-- gRPC&#45;PluginGetMetadata0 -->
<g id="node6" class="node"><title>gRPC&#45;PluginGetMetadata0</title>
<ellipse fill="none" stroke="black" cx="516.592" cy="-90" rx="107.781" ry="18"/>
<text text-anchor="middle" x="516.592" y="-86.3" font-family="Times,serif" font-size="14.00">gRPC&#45;PluginGetMetadata0</text>
</g>
<!-- MainThread&#45;&gt;gRPC&#45;PluginGetMetadata0 -->
<g id="edge3" class="edge"><title>MainThread&#45;&gt;gRPC&#45;PluginGetMetadata0</title>
<path fill="none" stroke="black" d="M1004,-154.947C924.911,-145.413 767.18,-126.112 633.592,-108 624.157,-106.721 614.3,-105.347 604.483,-103.955"/>
<polygon fill="black" stroke="black" points="604.681,-100.448 594.287,-102.501 603.693,-107.378 604.681,-100.448"/>
</g>
<!-- gRPC&#45;PluginGetMetadata1 -->
<g id="node7" class="node"><title>gRPC&#45;PluginGetMetadata1</title>
<ellipse fill="none" stroke="black" cx="750.592" cy="-90" rx="107.781" ry="18"/>
<text text-anchor="middle" x="750.592" y="-86.3" font-family="Times,serif" font-size="14.00">gRPC&#45;PluginGetMetadata1</text>
</g>
<!-- MainThread&#45;&gt;gRPC&#45;PluginGetMetadata1 -->
<g id="edge4" class="edge"><title>MainThread&#45;&gt;gRPC&#45;PluginGetMetadata1</title>
<path fill="none" stroke="black" d="M1011.04,-150.971C961.45,-139.553 879.736,-120.737 821.054,-107.225"/>
<polygon fill="black" stroke="black" points="821.641,-103.769 811.111,-104.935 820.071,-110.59 821.641,-103.769"/>
</g>
<!-- LeaseMaintenance -->
<g id="node9" class="node"><title>LeaseMaintenance</title>
<ellipse fill="none" stroke="black" cx="953.592" cy="-90" rx="77.1866" ry="18"/>
<text text-anchor="middle" x="953.592" y="-86.3" font-family="Times,serif" font-size="14.00">LeaseMaintenance</text>
</g>
<!-- MainThread&#45;&gt;LeaseMaintenance -->
<g id="edge7" class="edge"><title>MainThread&#45;&gt;LeaseMaintenance</title>
<path fill="none" stroke="black" d="M1032.18,-145.465C1018.48,-135.97 1000.73,-123.672 985.574,-113.166"/>
<polygon fill="black" stroke="black" points="987.21,-110.041 976.997,-107.222 983.222,-115.795 987.21,-110.041"/>
</g>
<!-- gRPC&#45;PluginGetMetadata6 -->
<g id="node22" class="node"><title>gRPC&#45;PluginGetMetadata6</title>
<ellipse fill="none" stroke="black" cx="1156.59" cy="-90" rx="107.781" ry="18"/>
<text text-anchor="middle" x="1156.59" y="-86.3" font-family="Times,serif" font-size="14.00">gRPC&#45;PluginGetMetadata6</text>
</g>
<!-- MainThread&#45;&gt;gRPC&#45;PluginGetMetadata6 -->
<g id="edge8" class="edge"><title>MainThread&#45;&gt;gRPC&#45;PluginGetMetadata6</title>
<path fill="none" stroke="black" d="M1077.23,-145.465C1090.87,-136.104 1108.48,-124.021 1123.64,-113.614"/>
<polygon fill="black" stroke="black" points="1125.97,-116.258 1132.24,-107.714 1122.01,-110.487 1125.97,-116.258"/>
</g>
<!-- gRPC&#45;PluginGetMetadata7 -->
<g id="node23" class="node"><title>gRPC&#45;PluginGetMetadata7</title>
<ellipse fill="none" stroke="black" cx="1390.59" cy="-90" rx="107.781" ry="18"/>
<text text-anchor="middle" x="1390.59" y="-86.3" font-family="Times,serif" font-size="14.00">gRPC&#45;PluginGetMetadata7</text>
</g>
<!-- MainThread&#45;&gt;gRPC&#45;PluginGetMetadata7 -->
<g id="edge9" class="edge"><title>MainThread&#45;&gt;gRPC&#45;PluginGetMetadata7</title>
<path fill="none" stroke="black" d="M1095.12,-149.796C1102.89,-147.773 1110.97,-145.752 1118.59,-144 1182.37,-129.333 1255.17,-115.288 1309.4,-105.345"/>
<polygon fill="black" stroke="black" points="1310.09,-108.777 1319.3,-103.538 1308.83,-101.891 1310.09,-108.777"/>
</g>
<!-- gRPC&#45;PluginGetMetadata8 -->
<g id="node24" class="node"><title>gRPC&#45;PluginGetMetadata8</title>
<ellipse fill="none" stroke="black" cx="1624.59" cy="-90" rx="107.781" ry="18"/>
<text text-anchor="middle" x="1624.59" y="-86.3" font-family="Times,serif" font-size="14.00">gRPC&#45;PluginGetMetadata8</text>
</g>
<!-- MainThread&#45;&gt;gRPC&#45;PluginGetMetadata8 -->
<g id="edge10" class="edge"><title>MainThread&#45;&gt;gRPC&#45;PluginGetMetadata8</title>
<path fill="none" stroke="black" d="M1093.96,-149.436C1102.05,-147.373 1110.56,-145.429 1118.59,-144 1289.54,-113.607 1335.18,-128.49 1507.59,-108 1517.38,-106.837 1527.6,-105.513 1537.77,-104.128"/>
<polygon fill="black" stroke="black" points="1538.46,-107.566 1547.89,-102.728 1537.5,-100.632 1538.46,-107.566"/>
</g>
<!-- Consumer helper: callback requests worker -->
<g id="node25" class="node"><title>Consumer helper: callback requests worker</title>
<ellipse fill="none" stroke="black" cx="1914.59" cy="-90" rx="164.371" ry="18"/>
<text text-anchor="middle" x="1914.59" y="-86.3" font-family="Times,serif" font-size="14.00">Consumer helper: callback requests worker</text>
</g>
<!-- MainThread&#45;&gt;Consumer helper: callback requests worker -->
<g id="edge5" class="edge"><title>MainThread&#45;&gt;Consumer helper: callback requests worker</title>
<path fill="none" stroke="black" d="M1093.58,-149.305C1101.78,-147.225 1110.42,-145.308 1118.59,-144 1392.46,-100.176 1465.08,-129.566 1741.59,-108 1757.16,-106.785 1773.51,-105.367 1789.68,-103.877"/>
<polygon fill="black" stroke="black" points="1790.09,-107.354 1799.72,-102.941 1789.44,-100.385 1790.09,-107.354"/>
</g>
<!-- Consumer helper: consume bidirectional stream -->
<g id="node26" class="node"><title>Consumer helper: consume bidirectional stream</title>
<ellipse fill="none" stroke="black" cx="2278.59" cy="-90" rx="181.168" ry="18"/>
<text text-anchor="middle" x="2278.59" y="-86.3" font-family="Times,serif" font-size="14.00">Consumer helper: consume bidirectional stream</text>
</g>
<!-- MainThread&#45;&gt;Consumer helper: consume bidirectional stream -->
<g id="edge6" class="edge"><title>MainThread&#45;&gt;Consumer helper: consume bidirectional stream</title>
<path fill="none" stroke="black" d="M1093.22,-149.261C1101.52,-147.156 1110.29,-145.241 1118.59,-144 1544.82,-80.2871 1657.48,-135.113 2087.59,-108 2105.69,-106.859 2124.73,-105.435 2143.49,-103.898"/>
<polygon fill="black" stroke="black" points="2143.9,-107.377 2153.57,-103.06 2143.32,-100.401 2143.9,-107.377"/>
</g>
<!-- gRPC&#45;SpawnDelivery0 -->
<g id="node3" class="node"><title>gRPC&#45;SpawnDelivery0</title>
<ellipse fill="none" stroke="black" cx="93.5917" cy="-18" rx="93.6835" ry="18"/>
<text text-anchor="middle" x="93.5917" y="-14.3" font-family="Times,serif" font-size="14.00">gRPC&#45;SpawnDelivery0</text>
</g>
<!-- gRPC&#45;SubscribeMoot0&#45;&gt;gRPC&#45;SpawnDelivery0 -->
<g id="edge11" class="edge"><title>gRPC&#45;SubscribeMoot0&#45;&gt;gRPC&#45;SpawnDelivery0</title>
<path fill="none" stroke="black" d="M93.5917,-71.6966C93.5917,-63.9827 93.5917,-54.7125 93.5917,-46.1124"/>
<polygon fill="black" stroke="black" points="97.0918,-46.1043 93.5917,-36.1043 90.0918,-46.1044 97.0918,-46.1043"/>
</g>
<!-- gRPC&#45;SpawnDelivery1 -->
<g id="node5" class="node"><title>gRPC&#45;SpawnDelivery1</title>
<ellipse fill="none" stroke="black" cx="298.592" cy="-18" rx="93.6835" ry="18"/>
<text text-anchor="middle" x="298.592" y="-14.3" font-family="Times,serif" font-size="14.00">gRPC&#45;SpawnDelivery1</text>
</g>
<!-- gRPC&#45;SubscribeMoot1&#45;&gt;gRPC&#45;SpawnDelivery1 -->
<g id="edge12" class="edge"><title>gRPC&#45;SubscribeMoot1&#45;&gt;gRPC&#45;SpawnDelivery1</title>
<path fill="none" stroke="black" d="M297.839,-71.6966C297.949,-63.9827 298.082,-54.7125 298.204,-46.1124"/>
<polygon fill="black" stroke="black" points="301.704,-46.1533 298.347,-36.1043 294.705,-46.0533 301.704,-46.1533"/>
</g>
<!-- Consumer helper -->
<g id="node8" class="node"><title>Consumer helper</title>
<ellipse fill="none" stroke="black" cx="1198.59" cy="-162" rx="71.4873" ry="18"/>
<text text-anchor="middle" x="1198.59" y="-158.3" font-family="Times,serif" font-size="14.00">Consumer helper</text>
</g>
<!-- gRPC&#45;PluginGetMetadata2 -->
<g id="node10" class="node"><title>gRPC&#45;PluginGetMetadata2</title>
<ellipse fill="none" stroke="black" cx="954.592" cy="-18" rx="107.781" ry="18"/>
<text text-anchor="middle" x="954.592" y="-14.3" font-family="Times,serif" font-size="14.00">gRPC&#45;PluginGetMetadata2</text>
</g>
<!-- gRPC&#45;StopChannelSpin0 -->
<g id="node11" class="node"><title>gRPC&#45;StopChannelSpin0</title>
<ellipse fill="none" stroke="black" cx="1181.59" cy="-18" rx="100.983" ry="18"/>
<text text-anchor="middle" x="1181.59" y="-14.3" font-family="Times,serif" font-size="14.00">gRPC&#45;StopChannelSpin0</text>
</g>
<!-- gRPC&#45;ConsumeRequestIterator0 -->
<g id="node12" class="node"><title>gRPC&#45;ConsumeRequestIterator0</title>
<ellipse fill="none" stroke="black" cx="1426.59" cy="-18" rx="126.978" ry="18"/>
<text text-anchor="middle" x="1426.59" y="-14.3" font-family="Times,serif" font-size="14.00">gRPC&#45;ConsumeRequestIterator0</text>
</g>
<!-- gRPC&#45;PluginGetMetadata3 -->
<g id="node13" class="node"><title>gRPC&#45;PluginGetMetadata3</title>
<ellipse fill="none" stroke="black" cx="1679.59" cy="-18" rx="107.781" ry="18"/>
<text text-anchor="middle" x="1679.59" y="-14.3" font-family="Times,serif" font-size="14.00">gRPC&#45;PluginGetMetadata3</text>
</g>
<!-- gRPC&#45;StopChannelSpin1 -->
<g id="node14" class="node"><title>gRPC&#45;StopChannelSpin1</title>
<ellipse fill="none" stroke="black" cx="1906.59" cy="-18" rx="100.983" ry="18"/>
<text text-anchor="middle" x="1906.59" y="-14.3" font-family="Times,serif" font-size="14.00">gRPC&#45;StopChannelSpin1</text>
</g>
<!-- gRPC&#45;ConsumeRequestIterator1 -->
<g id="node15" class="node"><title>gRPC&#45;ConsumeRequestIterator1</title>
<ellipse fill="none" stroke="black" cx="2151.59" cy="-18" rx="126.978" ry="18"/>
<text text-anchor="middle" x="2151.59" y="-14.3" font-family="Times,serif" font-size="14.00">gRPC&#45;ConsumeRequestIterator1</text>
</g>
<!-- gRPC&#45;PluginGetMetadata4 -->
<g id="node16" class="node"><title>gRPC&#45;PluginGetMetadata4</title>
<ellipse fill="none" stroke="black" cx="2404.59" cy="-18" rx="107.781" ry="18"/>
<text text-anchor="middle" x="2404.59" y="-14.3" font-family="Times,serif" font-size="14.00">gRPC&#45;PluginGetMetadata4</text>
</g>
<!-- gRPC&#45;StopChannelSpin2 -->
<g id="node17" class="node"><title>gRPC&#45;StopChannelSpin2</title>
<ellipse fill="none" stroke="black" cx="2631.59" cy="-18" rx="100.983" ry="18"/>
<text text-anchor="middle" x="2631.59" y="-14.3" font-family="Times,serif" font-size="14.00">gRPC&#45;StopChannelSpin2</text>
</g>
<!-- gRPC&#45;ConsumeRequestIterator2 -->
<g id="node18" class="node"><title>gRPC&#45;ConsumeRequestIterator2</title>
<ellipse fill="none" stroke="black" cx="2876.59" cy="-18" rx="126.978" ry="18"/>
<text text-anchor="middle" x="2876.59" y="-14.3" font-family="Times,serif" font-size="14.00">gRPC&#45;ConsumeRequestIterator2</text>
</g>
<!-- gRPC&#45;PluginGetMetadata5 -->
<g id="node19" class="node"><title>gRPC&#45;PluginGetMetadata5</title>
<ellipse fill="none" stroke="black" cx="3129.59" cy="-18" rx="107.781" ry="18"/>
<text text-anchor="middle" x="3129.59" y="-14.3" font-family="Times,serif" font-size="14.00">gRPC&#45;PluginGetMetadata5</text>
</g>
<!-- gRPC&#45;StopChannelSpin3 -->
<g id="node20" class="node"><title>gRPC&#45;StopChannelSpin3</title>
<ellipse fill="none" stroke="black" cx="3356.59" cy="-18" rx="100.983" ry="18"/>
<text text-anchor="middle" x="3356.59" y="-14.3" font-family="Times,serif" font-size="14.00">gRPC&#45;StopChannelSpin3</text>
</g>
<!-- gRPC&#45;ConsumeRequestIterator3 -->
<g id="node21" class="node"><title>gRPC&#45;ConsumeRequestIterator3</title>
<ellipse fill="none" stroke="black" cx="3601.59" cy="-18" rx="126.978" ry="18"/>
<text text-anchor="middle" x="3601.59" y="-14.3" font-family="Times,serif" font-size="14.00">gRPC&#45;ConsumeRequestIterator3</text>
</g>
<!-- Consumer helper: consume bidirectional stream&#45;&gt;gRPC&#45;PluginGetMetadata2 -->
<g id="edge13" class="edge"><title>Consumer helper: consume bidirectional stream&#45;&gt;gRPC&#45;PluginGetMetadata2</title>
<path fill="none" stroke="black" d="M2153.83,-76.9306C2131.78,-75.0727 2109.02,-73.3325 2087.59,-72 1636.62,-43.9612 1521.61,-76.5448 1071.59,-36 1061.03,-35.0481 1049.96,-33.7878 1039.02,-32.3823"/>
<polygon fill="black" stroke="black" points="1039.41,-28.9028 1029.03,-31.0554 1038.49,-35.8418 1039.41,-28.9028"/>
</g>
<!-- Consumer helper: consume bidirectional stream&#45;&gt;gRPC&#45;StopChannelSpin0 -->
<g id="edge14" class="edge"><title>Consumer helper: consume bidirectional stream&#45;&gt;gRPC&#45;StopChannelSpin0</title>
<path fill="none" stroke="black" d="M2152.8,-77.0182C2131.06,-75.173 2108.68,-73.4143 2087.59,-72 1733.8,-48.2766 1643.41,-71.3738 1290.59,-36 1281.12,-35.0499 1271.21,-33.8275 1261.39,-32.4744"/>
<polygon fill="black" stroke="black" points="1261.62,-28.9708 1251.22,-31.0229 1260.63,-35.9006 1261.62,-28.9708"/>
</g>
<!-- Consumer helper: consume bidirectional stream&#45;&gt;gRPC&#45;ConsumeRequestIterator0 -->
<g id="edge15" class="edge"><title>Consumer helper: consume bidirectional stream&#45;&gt;gRPC&#45;ConsumeRequestIterator0</title>
<path fill="none" stroke="black" d="M2150.45,-77.2341C2129.45,-75.4097 2107.92,-73.6014 2087.59,-72 1854.43,-53.6317 1795.39,-58.5135 1562.59,-36 1550.75,-34.8547 1538.35,-33.5084 1526.05,-32.0831"/>
<polygon fill="black" stroke="black" points="1526.1,-28.5653 1515.76,-30.87 1525.28,-35.5171 1526.1,-28.5653"/>
</g>
<!-- Consumer helper: consume bidirectional stream&#45;&gt;gRPC&#45;PluginGetMetadata3 -->
<g id="edge16" class="edge"><title>Consumer helper: consume bidirectional stream&#45;&gt;gRPC&#45;PluginGetMetadata3</title>
<path fill="none" stroke="black" d="M2156.12,-76.721C2058.62,-66.6585 1918.72,-51.5826 1796.59,-36 1786.97,-34.7725 1776.92,-33.419 1766.92,-32.0279"/>
<polygon fill="black" stroke="black" points="1767.34,-28.5532 1756.95,-30.6274 1766.37,-35.4851 1767.34,-28.5532"/>
</g>
<!-- Consumer helper: consume bidirectional stream&#45;&gt;gRPC&#45;StopChannelSpin1 -->
<g id="edge17" class="edge"><title>Consumer helper: consume bidirectional stream&#45;&gt;gRPC&#45;StopChannelSpin1</title>
<path fill="none" stroke="black" d="M2197.87,-73.811C2134.21,-61.8319 2046.02,-45.236 1983.39,-33.4518"/>
<polygon fill="black" stroke="black" points="1983.65,-29.9398 1973.18,-31.5301 1982.36,-36.819 1983.65,-29.9398"/>
</g>
<!-- Consumer helper: consume bidirectional stream&#45;&gt;gRPC&#45;ConsumeRequestIterator1 -->
<g id="edge18" class="edge"><title>Consumer helper: consume bidirectional stream&#45;&gt;gRPC&#45;ConsumeRequestIterator1</title>
<path fill="none" stroke="black" d="M2248.17,-72.2333C2230.89,-62.7092 2209.08,-50.6862 2190.56,-40.4771"/>
<polygon fill="black" stroke="black" points="2192.21,-37.3919 2181.76,-35.6299 2188.83,-43.5223 2192.21,-37.3919"/>
</g>
<!-- Consumer helper: consume bidirectional stream&#45;&gt;gRPC&#45;PluginGetMetadata4 -->
<g id="edge19" class="edge"><title>Consumer helper: consume bidirectional stream&#45;&gt;gRPC&#45;PluginGetMetadata4</title>
<path fill="none" stroke="black" d="M2308.77,-72.2333C2326.04,-62.6397 2347.87,-50.5105 2366.33,-40.2538"/>
<polygon fill="black" stroke="black" points="2368.05,-43.3044 2375.09,-35.3884 2364.65,-37.1853 2368.05,-43.3044"/>
</g>
<!-- Consumer helper: consume bidirectional stream&#45;&gt;gRPC&#45;StopChannelSpin2 -->
<g id="edge20" class="edge"><title>Consumer helper: consume bidirectional stream&#45;&gt;gRPC&#45;StopChannelSpin2</title>
<path fill="none" stroke="black" d="M2356.06,-73.6382C2415.73,-61.8064 2497.72,-45.5476 2556.72,-33.8468"/>
<polygon fill="black" stroke="black" points="2557.59,-37.242 2566.72,-31.8636 2556.23,-30.3757 2557.59,-37.242"/>
</g>
<!-- Consumer helper: consume bidirectional stream&#45;&gt;gRPC&#45;ConsumeRequestIterator2 -->
<g id="edge21" class="edge"><title>Consumer helper: consume bidirectional stream&#45;&gt;gRPC&#45;ConsumeRequestIterator2</title>
<path fill="none" stroke="black" d="M2394.23,-76.1298C2487.91,-65.614 2623.31,-50.2171 2741.59,-36 2752.66,-34.67 2764.23,-33.2528 2775.75,-31.8258"/>
<polygon fill="black" stroke="black" points="2776.35,-35.2782 2785.84,-30.5711 2775.48,-28.3317 2776.35,-35.2782"/>
</g>
<!-- Consumer helper: consume bidirectional stream&#45;&gt;gRPC&#45;PluginGetMetadata5 -->
<g id="edge22" class="edge"><title>Consumer helper: consume bidirectional stream&#45;&gt;gRPC&#45;PluginGetMetadata5</title>
<path fill="none" stroke="black" d="M2435.67,-80.9483C2584.49,-72.5417 2814.13,-57.5549 3012.59,-36 3022.64,-34.9083 3033.16,-33.6073 3043.59,-32.2181"/>
<polygon fill="black" stroke="black" points="3044.1,-35.68 3053.54,-30.8629 3043.16,-28.744 3044.1,-35.68"/>
</g>
<!-- Consumer helper: consume bidirectional stream&#45;&gt;gRPC&#45;StopChannelSpin3 -->
<g id="edge23" class="edge"><title>Consumer helper: consume bidirectional stream&#45;&gt;gRPC&#45;StopChannelSpin3</title>
<path fill="none" stroke="black" d="M2452.11,-84.6554C2646.15,-78.599 2969.55,-64.921 3246.59,-36 3256.25,-34.9918 3266.35,-33.7244 3276.36,-32.3384"/>
<polygon fill="black" stroke="black" points="3276.9,-35.7962 3286.31,-30.9181 3275.91,-28.8664 3276.9,-35.7962"/>
</g>
<!-- Consumer helper: consume bidirectional stream&#45;&gt;gRPC&#45;ConsumeRequestIterator3 -->
<g id="edge24" class="edge"><title>Consumer helper: consume bidirectional stream&#45;&gt;gRPC&#45;ConsumeRequestIterator3</title>
<path fill="none" stroke="black" d="M2454.5,-85.5849C2686.65,-80.0635 3107.88,-66.5368 3466.59,-36 3478.76,-34.9644 3491.51,-33.654 3504.12,-32.2221"/>
<polygon fill="black" stroke="black" points="3504.67,-35.6828 3514.19,-31.0505 3503.86,-28.7297 3504.67,-35.6828"/>
</g>
</g>
</svg>
