<?xml version="1.0" encoding="UTF-8" standalone="no"?>
<!DOCTYPE svg PUBLIC "-//W3C//DTD SVG 1.1//EN"
 "http://www.w3.org/Graphics/SVG/1.1/DTD/svg11.dtd">
<!-- Generated by graphviz version 2.38.0 (20140413.2041)
 -->
<!-- Title: %3 Pages: 1 -->
<svg width="2462pt" height="188pt"
 viewBox="0.00 0.00 2462.48 188.00" xmlns="http://www.w3.org/2000/svg" xmlns:xlink="http://www.w3.org/1999/xlink">
<g id="graph0" class="graph" transform="scale(1 1) rotate(0) translate(4 184)">
<title>%3</title>
<polygon fill="white" stroke="none" points="-4,4 -4,-184 2458.48,-184 2458.48,4 -4,4"/>
<!-- MainThread -->
<g id="node1" class="node"><title>MainThread</title>
<ellipse fill="none" stroke="black" cx="1220.59" cy="-162" rx="54.6905" ry="18"/>
<text text-anchor="middle" x="1220.59" y="-158.3" font-family="Times,serif" font-size="14.00">MainThread</text>
</g>
<!-- gRPC&#45;SubscribeMoot0 -->
<g id="node2" class="node"><title>gRPC&#45;SubscribeMoot0</title>
<ellipse fill="none" stroke="black" cx="93.5917" cy="-90" rx="92.8835" ry="18"/>
<text text-anchor="middle" x="93.5917" y="-86.3" font-family="Times,serif" font-size="14.00">gRPC&#45;SubscribeMoot0</text>
</g>
<!-- MainThread&#45;&gt;gRPC&#45;SubscribeMoot0 -->
<g id="edge1" class="edge"><title>MainThread&#45;&gt;gRPC&#45;SubscribeMoot0</title>
<path fill="none" stroke="black" d="M1165.97,-160.355C1012.57,-158.073 564.935,-148.196 195.592,-108 186.839,-107.047 177.696,-105.836 168.634,-104.5"/>
<polygon fill="black" stroke="black" points="168.877,-100.996 158.463,-102.945 167.819,-107.916 168.877,-100.996"/>
</g>
<!-- gRPC&#45;SubscribeMoot1 -->
<g id="node4" class="node"><title>gRPC&#45;SubscribeMoot1</title>
<ellipse fill="none" stroke="black" cx="297.592" cy="-90" rx="92.8835" ry="18"/>
<text text-anchor="middle" x="297.592" y="-86.3" font-family="Times,serif" font-size="14.00">gRPC&#45;SubscribeMoot1</text>
</g>
<!-- MainThread&#45;&gt;gRPC&#45;SubscribeMoot1 -->
<g id="edge2" class="edge"><title>MainThread&#45;&gt;gRPC&#45;SubscribeMoot1</title>
<path fill="none" stroke="black" d="M1166.14,-159.381C1034.25,-155.045 687.276,-141.174 399.592,-108 390.91,-106.999 381.842,-105.764 372.848,-104.42"/>
<polygon fill="black" stroke="black" points="373.167,-100.928 362.75,-102.863 372.1,-107.846 373.167,-100.928"/>
</g>
<!-- gRPC&#45;PluginGetMetadata0 -->
<g id="node6" class="node"><title>gRPC&#45;PluginGetMetadata0</title>
<ellipse fill="none" stroke="black" cx="516.592" cy="-90" rx="107.781" ry="18"/>
<text text-anchor="middle" x="516.592" y="-86.3" font-family="Times,serif" font-size="14.00">gRPC&#45;PluginGetMetadata0</text>
</g>
<!-- MainThread&#45;&gt;gRPC&#45;PluginGetMetadata0 -->
<g id="edge3" class="edge"><title>MainThread&#45;&gt;gRPC&#45;PluginGetMetadata0</title>
<path fill="none" stroke="black" d="M1167.87,-157.204C1064.97,-149.582 830.232,-131.146 633.592,-108 623.807,-106.848 613.578,-105.531 603.416,-104.15"/>
<polygon fill="black" stroke="black" points="603.679,-100.653 593.295,-102.752 602.722,-107.588 603.679,-100.653"/>
</g>
<!-- gRPC&#45;PluginGetMetadata1 -->
<g id="node7" class="node"><title>gRPC&#45;PluginGetMetadata1</title>
<ellipse fill="none" stroke="black" cx="750.592" cy="-90" rx="107.781" ry="18"/>
<text text-anchor="middle" x="750.592" y="-86.3" font-family="Times,serif" font-size="14.00">gRPC&#45;PluginGetMetadata1</text>
</g>
<!-- MainThread&#45;&gt;gRPC&#45;PluginGetMetadata1 -->
<g id="edge4" class="edge"><title>MainThread&#45;&gt;gRPC&#45;PluginGetMetadata1</title>
<path fill="none" stroke="black" d="M1171.62,-153.707C1092.75,-141.959 936.475,-118.685 838.094,-104.032"/>
<polygon fill="black" stroke="black" points="838.575,-100.565 828.169,-102.554 837.544,-107.489 838.575,-100.565"/>
</g>
<!-- ConsumerHelper&#45;CallbackRequestsWorker -->
<g id="node8" class="node"><title>ConsumerHelper&#45;CallbackRequestsWorker</title>
<ellipse fill="none" stroke="black" cx="1040.59" cy="-90" rx="164.371" ry="18"/>
<text text-anchor="middle" x="1040.59" y="-86.3" font-family="Times,serif" font-size="14.00">ConsumerHelper&#45;CallbackRequestsWorker</text>
</g>
<!-- MainThread&#45;&gt;ConsumerHelper&#45;CallbackRequestsWorker -->
<g id="edge5" class="edge"><title>MainThread&#45;&gt;ConsumerHelper&#45;CallbackRequestsWorker</title>
<path fill="none" stroke="black" d="M1186.74,-147.834C1160.18,-137.506 1122.76,-122.955 1092.44,-111.162"/>
<polygon fill="black" stroke="black" points="1093.45,-107.801 1082.86,-107.439 1090.91,-114.325 1093.45,-107.801"/>
</g>
<!-- ConsumerHelper&#45;ConsumeBidirectionalStream -->
<g id="node9" class="node"><title>ConsumerHelper&#45;ConsumeBidirectionalStream</title>
<ellipse fill="none" stroke="black" cx="1401.59" cy="-90" rx="178.969" ry="18"/>
<text text-anchor="middle" x="1401.59" y="-86.3" font-family="Times,serif" font-size="14.00">ConsumerHelper&#45;ConsumeBidirectionalStream</text>
</g>
<!-- MainThread&#45;&gt;ConsumerHelper&#45;ConsumeBidirectionalStream -->
<g id="edge6" class="edge"><title>MainThread&#45;&gt;ConsumerHelper&#45;ConsumeBidirectionalStream</title>
<path fill="none" stroke="black" d="M1254.64,-147.834C1281.25,-137.541 1318.71,-123.055 1349.14,-111.284"/>
<polygon fill="black" stroke="black" points="1350.69,-114.438 1358.75,-107.567 1348.17,-107.91 1350.69,-114.438"/>
</g>
<!-- LeaseMaintenance -->
<g id="node10" class="node"><title>LeaseMaintenance</title>
<ellipse fill="none" stroke="black" cx="1675.59" cy="-90" rx="77.1866" ry="18"/>
<text text-anchor="middle" x="1675.59" y="-86.3" font-family="Times,serif" font-size="14.00">LeaseMaintenance</text>
</g>
<!-- MainThread&#45;&gt;LeaseMaintenance -->
<g id="edge7" class="edge"><title>MainThread&#45;&gt;LeaseMaintenance</title>
<path fill="none" stroke="black" d="M1270.56,-154.67C1341.62,-145.475 1475.87,-127.393 1589.59,-108 1596.14,-106.883 1602.96,-105.652 1609.77,-104.379"/>
<polygon fill="black" stroke="black" points="1610.52,-107.798 1619.69,-102.491 1609.22,-100.921 1610.52,-107.798"/>
</g>
<!-- gRPC&#45;PluginGetMetadata3 -->
<g id="node14" class="node"><title>gRPC&#45;PluginGetMetadata3</title>
<ellipse fill="none" stroke="black" cx="1878.59" cy="-90" rx="107.781" ry="18"/>
<text text-anchor="middle" x="1878.59" y="-86.3" font-family="Times,serif" font-size="14.00">gRPC&#45;PluginGetMetadata3</text>
</g>
<!-- MainThread&#45;&gt;gRPC&#45;PluginGetMetadata3 -->
<g id="edge8" class="edge"><title>MainThread&#45;&gt;gRPC&#45;PluginGetMetadata3</title>
<path fill="none" stroke="black" d="M1272.91,-156.692C1369.58,-148.549 1582.66,-129.752 1761.59,-108 1771.37,-106.811 1781.6,-105.47 1791.76,-104.076"/>
<polygon fill="black" stroke="black" points="1792.46,-107.513 1801.88,-102.669 1791.49,-100.58 1792.46,-107.513"/>
</g>
<!-- gRPC&#45;PluginGetMetadata4 -->
<g id="node15" class="node"><title>gRPC&#45;PluginGetMetadata4</title>
<ellipse fill="none" stroke="black" cx="2112.59" cy="-90" rx="107.781" ry="18"/>
<text text-anchor="middle" x="2112.59" y="-86.3" font-family="Times,serif" font-size="14.00">gRPC&#45;PluginGetMetadata4</text>
</g>
<!-- MainThread&#45;&gt;gRPC&#45;PluginGetMetadata4 -->
<g id="edge9" class="edge"><title>MainThread&#45;&gt;gRPC&#45;PluginGetMetadata4</title>
<path fill="none" stroke="black" d="M1274.74,-158.715C1401.2,-153.07 1725.71,-136.793 1995.59,-108 2005.72,-106.919 2016.32,-105.618 2026.83,-104.224"/>
<polygon fill="black" stroke="black" points="2027.42,-107.676 2036.86,-102.861 2026.48,-100.739 2027.42,-107.676"/>
</g>
<!-- gRPC&#45;PluginGetMetadata5 -->
<g id="node16" class="node"><title>gRPC&#45;PluginGetMetadata5</title>
<ellipse fill="none" stroke="black" cx="2346.59" cy="-90" rx="107.781" ry="18"/>
<text text-anchor="middle" x="2346.59" y="-86.3" font-family="Times,serif" font-size="14.00">gRPC&#45;PluginGetMetadata5</text>
</g>
<!-- MainThread&#45;&gt;gRPC&#45;PluginGetMetadata5 -->
<g id="edge10" class="edge"><title>MainThread&#45;&gt;gRPC&#45;PluginGetMetadata5</title>
<path fill="none" stroke="black" d="M1274.87,-159.901C1426.28,-156.458 1866.06,-143.882 2229.59,-108 2239.89,-106.984 2250.66,-105.709 2261.33,-104.317"/>
<polygon fill="black" stroke="black" points="2262.06,-107.75 2271.5,-102.951 2261.13,-100.813 2262.06,-107.75"/>
</g>
<!-- gRPC&#45;SpawnDelivery0 -->
<g id="node3" class="node"><title>gRPC&#45;SpawnDelivery0</title>
<ellipse fill="none" stroke="black" cx="93.5917" cy="-18" rx="93.6835" ry="18"/>
<text text-anchor="middle" x="93.5917" y="-14.3" font-family="Times,serif" font-size="14.00">gRPC&#45;SpawnDelivery0</text>
</g>
<!-- gRPC&#45;SubscribeMoot0&#45;&gt;gRPC&#45;SpawnDelivery0 -->
<g id="edge11" class="edge"><title>gRPC&#45;SubscribeMoot0&#45;&gt;gRPC&#45;SpawnDelivery0</title>
<path fill="none" stroke="black" d="M93.5917,-71.6966C93.5917,-63.9827 93.5917,-54.7125 93.5917,-46.1124"/>
<polygon fill="black" stroke="black" points="97.0918,-46.1043 93.5917,-36.1043 90.0918,-46.1044 97.0918,-46.1043"/>
</g>
<!-- gRPC&#45;SpawnDelivery1 -->
<g id="node5" class="node"><title>gRPC&#45;SpawnDelivery1</title>
<ellipse fill="none" stroke="black" cx="298.592" cy="-18" rx="93.6835" ry="18"/>
<text text-anchor="middle" x="298.592" y="-14.3" font-family="Times,serif" font-size="14.00">gRPC&#45;SpawnDelivery1</text>
</g>
<!-- gRPC&#45;SubscribeMoot1&#45;&gt;gRPC&#45;SpawnDelivery1 -->
<g id="edge12" class="edge"><title>gRPC&#45;SubscribeMoot1&#45;&gt;gRPC&#45;SpawnDelivery1</title>
<path fill="none" stroke="black" d="M297.839,-71.6966C297.949,-63.9827 298.082,-54.7125 298.204,-46.1124"/>
<polygon fill="black" stroke="black" points="301.704,-46.1533 298.347,-36.1043 294.705,-46.0533 301.704,-46.1533"/>
</g>
<!-- gRPC&#45;PluginGetMetadata2 -->
<g id="node11" class="node"><title>gRPC&#45;PluginGetMetadata2</title>
<ellipse fill="none" stroke="black" cx="1179.59" cy="-18" rx="107.781" ry="18"/>
<text text-anchor="middle" x="1179.59" y="-14.3" font-family="Times,serif" font-size="14.00">gRPC&#45;PluginGetMetadata2</text>
</g>
<!-- ConsumerHelper&#45;ConsumeBidirectionalStream&#45;&gt;gRPC&#45;PluginGetMetadata2 -->
<g id="edge13" class="edge"><title>ConsumerHelper&#45;ConsumeBidirectionalStream&#45;&gt;gRPC&#45;PluginGetMetadata2</title>
<path fill="none" stroke="black" d="M1349.82,-72.6765C1316.09,-62.0413 1272.05,-48.1526 1237.21,-37.1675"/>
<polygon fill="black" stroke="black" points="1238.23,-33.8205 1227.64,-34.1512 1236.13,-40.4965 1238.23,-33.8205"/>
</g>
<!-- gRPC&#45;StopChannelSpin -->
<g id="node12" class="node"><title>gRPC&#45;StopChannelSpin</title>
<ellipse fill="none" stroke="black" cx="1401.59" cy="-18" rx="96.3833" ry="18"/>
<text text-anchor="middle" x="1401.59" y="-14.3" font-family="Times,serif" font-size="14.00">gRPC&#45;StopChannelSpin</text>
</g>
<!-- ConsumerHelper&#45;ConsumeBidirectionalStream&#45;&gt;gRPC&#45;StopChannelSpin -->
<g id="edge14" class="edge"><title>ConsumerHelper&#45;ConsumeBidirectionalStream&#45;&gt;gRPC&#45;StopChannelSpin</title>
<path fill="none" stroke="black" d="M1401.59,-71.6966C1401.59,-63.9827 1401.59,-54.7125 1401.59,-46.1124"/>
<polygon fill="black" stroke="black" points="1405.09,-46.1043 1401.59,-36.1043 1398.09,-46.1044 1405.09,-46.1043"/>
</g>
<!-- gRPC&#45;ConsumeRequestIterator -->
<g id="node13" class="node"><title>gRPC&#45;ConsumeRequestIterator</title>
<ellipse fill="none" stroke="black" cx="1637.59" cy="-18" rx="122.379" ry="18"/>
<text text-anchor="middle" x="1637.59" y="-14.3" font-family="Times,serif" font-size="14.00">gRPC&#45;ConsumeRequestIterator</text>
</g>
<!-- ConsumerHelper&#45;ConsumeBidirectionalStream&#45;&gt;gRPC&#45;ConsumeRequestIterator -->
<g id="edge15" class="edge"><title>ConsumerHelper&#45;ConsumeBidirectionalStream&#45;&gt;gRPC&#45;ConsumeRequestIterator</title>
<path fill="none" stroke="black" d="M1456.03,-72.8527C1491.89,-62.2153 1538.92,-48.2662 1576.13,-37.2301"/>
<polygon fill="black" stroke="black" points="1577.26,-40.545 1585.85,-34.3457 1575.27,-33.8339 1577.26,-40.545"/>
</g>
</g>
</svg>
