<?xml version="1.0" encoding="UTF-8" standalone="no"?>
<!DOCTYPE svg PUBLIC "-//W3C//DTD SVG 1.1//EN"
 "http://www.w3.org/Graphics/SVG/1.1/DTD/svg11.dtd">
<!-- Generated by graphviz version 2.38.0 (20140413.2041)
 -->
<!-- Title: G Pages: 1 -->
<svg width="1611pt" height="218pt"
 viewBox="0.00 0.00 1611.39 218.00" xmlns="http://www.w3.org/2000/svg" xmlns:xlink="http://www.w3.org/1999/xlink">
<g id="graph0" class="graph" transform="scale(1 1) rotate(0) translate(4 214)">
<title>G</title>
<polygon fill="white" stroke="none" points="-4,4 -4,-214 1607.39,-214 1607.39,4 -4,4"/>
<!-- Thread&#45;gRPC&#45;SubscribeMoot+ -->
<g id="node1" class="node"><title>Thread&#45;gRPC&#45;SubscribeMoot+</title>
<ellipse fill="none" stroke="black" cx="159.042" cy="-105" rx="89.0842" ry="18"/>
<text text-anchor="middle" x="159.042" y="-101.3" font-family="Times,serif" font-size="14.00">gRPC&#45;SubscribeMoot</text>
</g>
<!-- Thread&#45;gRPC&#45;SpawnDelivery -->
<g id="node2" class="node"><title>Thread&#45;gRPC&#45;SpawnDelivery</title>
<ellipse fill="none" stroke="black" cx="89.0421" cy="-18" rx="89.0842" ry="18"/>
<text text-anchor="middle" x="89.0421" y="-14.3" font-family="Times,serif" font-size="14.00">gRPC&#45;SpawnDelivery</text>
</g>
<!-- Thread&#45;gRPC&#45;SubscribeMoot+&#45;&gt;Thread&#45;gRPC&#45;SpawnDelivery -->
<g id="edge1" class="edge"><title>Thread&#45;gRPC&#45;SubscribeMoot+&#45;&gt;Thread&#45;gRPC&#45;SpawnDelivery</title>
<path fill="none" stroke="black" d="M145.212,-87.2067C135.02,-74.8308 120.992,-57.7963 109.505,-43.8472"/>
<polygon fill="black" stroke="black" points="112.142,-41.5437 103.083,-36.0493 106.738,-45.9936 112.142,-41.5437"/>
</g>
<!-- Consumer helper: consume bidirectional stream -->
<g id="node3" class="node"><title>Consumer helper: consume bidirectional stream</title>
<ellipse fill="none" stroke="black" cx="482.042" cy="-105" rx="181.168" ry="18"/>
<text text-anchor="middle" x="482.042" y="-101.3" font-family="Times,serif" font-size="14.00">Consumer helper: consume bidirectional stream</text>
</g>
<!-- Thread&#45;gRPC&#45;PluginGetMetadata++ -->
<g id="node4" class="node"><title>Thread&#45;gRPC&#45;PluginGetMetadata++</title>
<ellipse fill="none" stroke="black" cx="299.042" cy="-18" rx="103.182" ry="18"/>
<text text-anchor="middle" x="299.042" y="-14.3" font-family="Times,serif" font-size="14.00">gRPC&#45;PluginGetMetadata</text>
</g>
<!-- Consumer helper: consume bidirectional stream&#45;&gt;Thread&#45;gRPC&#45;PluginGetMetadata++ -->
<g id="edge2" class="edge"><title>Consumer helper: consume bidirectional stream&#45;&gt;Thread&#45;gRPC&#45;PluginGetMetadata++</title>
<path fill="none" stroke="black" d="M445.887,-87.2067C416.341,-73.4829 374.461,-54.0305 342.982,-39.4094"/>
<polygon fill="black" stroke="black" points="344.116,-36.0769 333.572,-35.0386 341.167,-42.4255 344.116,-36.0769"/>
<text text-anchor="middle" x="405.542" y="-57.8" font-family="Times,serif" font-size="14.00">2</text>
</g>
<!-- Thread&#45;gRPC&#45;StopChannelSpin -->
<g id="node5" class="node"><title>Thread&#45;gRPC&#45;StopChannelSpin</title>
<ellipse fill="none" stroke="black" cx="517.042" cy="-18" rx="96.3833" ry="18"/>
<text text-anchor="middle" x="517.042" y="-14.3" font-family="Times,serif" font-size="14.00">gRPC&#45;StopChannelSpin</text>
</g>
<!-- Consumer helper: consume bidirectional stream&#45;&gt;Thread&#45;gRPC&#45;StopChannelSpin -->
<g id="edge3" class="edge"><title>Consumer helper: consume bidirectional stream&#45;&gt;Thread&#45;gRPC&#45;StopChannelSpin</title>
<path fill="none" stroke="black" d="M489.125,-86.799C494.011,-74.9322 500.601,-58.9279 506.151,-45.4488"/>
<polygon fill="black" stroke="black" points="509.399,-46.7549 509.97,-36.1754 502.926,-44.0896 509.399,-46.7549"/>
<text text-anchor="middle" x="505.542" y="-57.8" font-family="Times,serif" font-size="14.00">2</text>
</g>
<!-- Thread&#45;gRPC&#45;ConsumeRequestIterator -->
<g id="node6" class="node"><title>Thread&#45;gRPC&#45;ConsumeRequestIterator</title>
<ellipse fill="none" stroke="black" cx="753.042" cy="-18" rx="122.379" ry="18"/>
<text text-anchor="middle" x="753.042" y="-14.3" font-family="Times,serif" font-size="14.00">gRPC&#45;ConsumeRequestIterator</text>
</g>
<!-- Consumer helper: consume bidirectional stream&#45;&gt;Thread&#45;gRPC&#45;ConsumeRequestIterator -->
<g id="edge4" class="edge"><title>Consumer helper: consume bidirectional stream&#45;&gt;Thread&#45;gRPC&#45;ConsumeRequestIterator</title>
<path fill="none" stroke="black" d="M533.973,-87.7117C579.696,-73.3704 646.249,-52.4961 693.986,-37.5231"/>
<polygon fill="black" stroke="black" points="695.078,-40.849 703.572,-34.5165 692.983,-34.1698 695.078,-40.849"/>
<text text-anchor="middle" x="637.542" y="-57.8" font-family="Times,serif" font-size="14.00">2</text>
</g>
<!-- MainThread -->
<g id="node7" class="node"><title>MainThread</title>
<ellipse fill="none" stroke="black" cx="875.042" cy="-192" rx="54.6905" ry="18"/>
<text text-anchor="middle" x="875.042" y="-188.3" font-family="Times,serif" font-size="14.00">MainThread</text>
</g>
<!-- MainThread&#45;&gt;Thread&#45;gRPC&#45;SubscribeMoot+ -->
<g id="edge6" class="edge"><title>MainThread&#45;&gt;Thread&#45;gRPC&#45;SubscribeMoot+</title>
<path fill="none" stroke="black" d="M824.331,-185.275C723.1,-173.806 488.776,-147.046 292.042,-123 275.873,-121.024 258.606,-118.858 242.05,-116.753"/>
<polygon fill="black" stroke="black" points="242.211,-113.246 231.849,-115.453 241.326,-120.189 242.211,-113.246"/>
</g>
<!-- MainThread&#45;&gt;Consumer helper: consume bidirectional stream -->
<g id="edge9" class="edge"><title>MainThread&#45;&gt;Consumer helper: consume bidirectional stream</title>
<path fill="none" stroke="black" d="M830.724,-181.415C766.234,-167.466 645.395,-141.331 564.311,-123.794"/>
<polygon fill="black" stroke="black" points="564.647,-120.285 554.133,-121.592 563.167,-127.127 564.647,-120.285"/>
</g>
<!-- Thread&#45;gRPC&#45;SubscribeMoot -->
<g id="node8" class="node"><title>Thread&#45;gRPC&#45;SubscribeMoot</title>
<ellipse fill="none" stroke="black" cx="770.042" cy="-105" rx="89.0842" ry="18"/>
<text text-anchor="middle" x="770.042" y="-101.3" font-family="Times,serif" font-size="14.00">gRPC&#45;SubscribeMoot</text>
</g>
<!-- MainThread&#45;&gt;Thread&#45;gRPC&#45;SubscribeMoot -->
<g id="edge5" class="edge"><title>MainThread&#45;&gt;Thread&#45;gRPC&#45;SubscribeMoot</title>
<path fill="none" stroke="black" d="M855.292,-175.012C839.322,-162.084 816.621,-143.706 798.659,-129.166"/>
<polygon fill="black" stroke="black" points="800.756,-126.36 790.781,-122.789 796.351,-131.801 800.756,-126.36"/>
</g>
<!-- Thread&#45;gRPC&#45;PluginGetMetadata -->
<g id="node9" class="node"><title>Thread&#45;gRPC&#45;PluginGetMetadata</title>
<ellipse fill="none" stroke="black" cx="980.042" cy="-105" rx="103.182" ry="18"/>
<text text-anchor="middle" x="980.042" y="-101.3" font-family="Times,serif" font-size="14.00">gRPC&#45;PluginGetMetadata</text>
</g>
<!-- MainThread&#45;&gt;Thread&#45;gRPC&#45;PluginGetMetadata -->
<g id="edge7" class="edge"><title>MainThread&#45;&gt;Thread&#45;gRPC&#45;PluginGetMetadata</title>
<path fill="none" stroke="black" d="M894.792,-175.012C910.762,-162.084 933.464,-143.706 951.425,-129.166"/>
<polygon fill="black" stroke="black" points="953.733,-131.801 959.303,-122.789 949.329,-126.36 953.733,-131.801"/>
<text text-anchor="middle" x="937.542" y="-144.8" font-family="Times,serif" font-size="14.00">4</text>
</g>
<!-- Consumer helper: callback requests worker -->
<g id="node10" class="node"><title>Consumer helper: callback requests worker</title>
<ellipse fill="none" stroke="black" cx="1266.04" cy="-105" rx="164.371" ry="18"/>
<text text-anchor="middle" x="1266.04" y="-101.3" font-family="Times,serif" font-size="14.00">Consumer helper: callback requests worker</text>
</g>
<!-- MainThread&#45;&gt;Consumer helper: callback requests worker -->
<g id="edge8" class="edge"><title>MainThread&#45;&gt;Consumer helper: callback requests worker</title>
<path fill="none" stroke="black" d="M919.514,-181.332C984.105,-167.291 1104.93,-141.024 1185.45,-123.52"/>
<polygon fill="black" stroke="black" points="1186.52,-126.869 1195.55,-121.324 1185.03,-120.029 1186.52,-126.869"/>
</g>
<!-- Thread&#45;LeaseMaintenance -->
<g id="node11" class="node"><title>Thread&#45;LeaseMaintenance</title>
<ellipse fill="none" stroke="black" cx="1526.04" cy="-105" rx="77.1866" ry="18"/>
<text text-anchor="middle" x="1526.04" y="-101.3" font-family="Times,serif" font-size="14.00">LeaseMaintenance</text>
</g>
<!-- MainThread&#45;&gt;Thread&#45;LeaseMaintenance -->
<g id="edge10" class="edge"><title>MainThread&#45;&gt;Thread&#45;LeaseMaintenance</title>
<path fill="none" stroke="black" d="M926.927,-186.024C1026.52,-176.189 1251.26,-152.626 1439.04,-123 1445.78,-121.936 1452.8,-120.731 1459.79,-119.465"/>
<polygon fill="black" stroke="black" points="1460.79,-122.84 1469.99,-117.577 1459.52,-115.957 1460.79,-122.84"/>
</g>
</g>
</svg>
