<?xml version="1.0" encoding="UTF-8" standalone="no"?>
<!DOCTYPE svg PUBLIC "-//W3C//DTD SVG 1.1//EN"
 "http://www.w3.org/Graphics/SVG/1.1/DTD/svg11.dtd">
<!-- Generated by graphviz version 2.38.0 (20140413.2041)
 -->
<!-- Title: G Pages: 1 -->
<svg width="979pt" height="341pt"
 viewBox="0.00 0.00 979.03 341.00" xmlns="http://www.w3.org/2000/svg" xmlns:xlink="http://www.w3.org/1999/xlink">
<g id="graph0" class="graph" transform="scale(1 1) rotate(0) translate(4 337)">
<title>G</title>
<polygon fill="white" stroke="none" points="-4,4 -4,-337 975.025,-337 975.025,4 -4,4"/>
<!-- Thread&#45;gRPC&#45;StopChannelSpin+++++++++++++++++++++++++++++++++++++++++ -->
<g id="node1" class="node"><title>Thread&#45;gRPC&#45;StopChannelSpin+++++++++++++++++++++++++++++++++++++++++</title>
<ellipse fill="none" stroke="black" cx="605.155" cy="-315" rx="96.3833" ry="18"/>
<text text-anchor="middle" x="605.155" y="-311.3" font-family="Times,serif" font-size="14.00">gRPC&#45;StopChannelSpin</text>
</g>
<!-- Thread&#45;gRPC&#45;PluginGetMetadata+++++++++++++++++++++++++++++++++++++++++++ -->
<g id="node2" class="node"><title>Thread&#45;gRPC&#45;PluginGetMetadata+++++++++++++++++++++++++++++++++++++++++++</title>
<ellipse fill="none" stroke="black" cx="867.685" cy="-315" rx="103.182" ry="18"/>
<text text-anchor="middle" x="867.685" y="-311.3" font-family="Times,serif" font-size="14.00">gRPC&#45;PluginGetMetadata</text>
</g>
<!-- Thread&#45;gRPC&#45;StopChannelSpin+++++++++++++++++++++++++++++++++++++++++&#45;&gt;Thread&#45;gRPC&#45;PluginGetMetadata+++++++++++++++++++++++++++++++++++++++++++ -->
<g id="edge1" class="edge"><title>Thread&#45;gRPC&#45;StopChannelSpin+++++++++++++++++++++++++++++++++++++++++&#45;&gt;Thread&#45;gRPC&#45;PluginGetMetadata+++++++++++++++++++++++++++++++++++++++++++</title>
<path fill="none" stroke="black" d="M701.687,-315C718.683,-315 736.53,-315 753.95,-315"/>
<polygon fill="black" stroke="black" points="754.149,-318.5 764.149,-315 754.149,-311.5 754.149,-318.5"/>
</g>
<!-- Thread&#45;ConsumeBidirectionalStream -->
<g id="node3" class="node"><title>Thread&#45;ConsumeBidirectionalStream</title>
<ellipse fill="none" stroke="black" cx="292.578" cy="-234" rx="115.88" ry="18"/>
<text text-anchor="middle" x="292.578" y="-230.3" font-family="Times,serif" font-size="14.00">ConsumeBidirectionalStream</text>
</g>
<!-- Thread&#45;ConsumeBidirectionalStream&#45;&gt;Thread&#45;gRPC&#45;StopChannelSpin+++++++++++++++++++++++++++++++++++++++++ -->
<g id="edge5" class="edge"><title>Thread&#45;ConsumeBidirectionalStream&#45;&gt;Thread&#45;gRPC&#45;StopChannelSpin+++++++++++++++++++++++++++++++++++++++++</title>
<path fill="none" stroke="black" d="M346.416,-249.963C384.278,-261.182 436.569,-276.228 482.965,-288 498.451,-291.929 515.128,-295.846 531.009,-299.429"/>
<polygon fill="black" stroke="black" points="530.253,-302.847 540.776,-301.614 531.781,-296.015 530.253,-302.847"/>
</g>
<!-- Thread&#45;gRPC&#45;PluginGetMetadata++ -->
<g id="node4" class="node"><title>Thread&#45;gRPC&#45;PluginGetMetadata++</title>
<ellipse fill="none" stroke="black" cx="605.155" cy="-261" rx="103.182" ry="18"/>
<text text-anchor="middle" x="605.155" y="-257.3" font-family="Times,serif" font-size="14.00">gRPC&#45;PluginGetMetadata</text>
</g>
<!-- Thread&#45;ConsumeBidirectionalStream&#45;&gt;Thread&#45;gRPC&#45;PluginGetMetadata++ -->
<g id="edge2" class="edge"><title>Thread&#45;ConsumeBidirectionalStream&#45;&gt;Thread&#45;gRPC&#45;PluginGetMetadata++</title>
<path fill="none" stroke="black" d="M393.984,-242.729C428.584,-245.737 467.355,-249.107 502.086,-252.127"/>
<polygon fill="black" stroke="black" points="501.979,-255.63 512.245,-253.01 502.585,-248.657 501.979,-255.63"/>
<text text-anchor="middle" x="457.965" y="-252.8" font-family="Times,serif" font-size="14.00">53</text>
</g>
<!-- Thread&#45;gRPC&#45;StopChannelSpin -->
<g id="node5" class="node"><title>Thread&#45;gRPC&#45;StopChannelSpin</title>
<ellipse fill="none" stroke="black" cx="605.155" cy="-207" rx="96.3833" ry="18"/>
<text text-anchor="middle" x="605.155" y="-203.3" font-family="Times,serif" font-size="14.00">gRPC&#45;StopChannelSpin</text>
</g>
<!-- Thread&#45;ConsumeBidirectionalStream&#45;&gt;Thread&#45;gRPC&#45;StopChannelSpin -->
<g id="edge3" class="edge"><title>Thread&#45;ConsumeBidirectionalStream&#45;&gt;Thread&#45;gRPC&#45;StopChannelSpin</title>
<path fill="none" stroke="black" d="M393.984,-225.271C430.433,-222.102 471.512,-218.531 507.619,-215.392"/>
<polygon fill="black" stroke="black" points="508.004,-218.872 517.663,-214.519 507.398,-211.898 508.004,-218.872"/>
<text text-anchor="middle" x="457.965" y="-223.8" font-family="Times,serif" font-size="14.00">53</text>
</g>
<!-- Thread&#45;gRPC&#45;ConsumeRequestIterator -->
<g id="node6" class="node"><title>Thread&#45;gRPC&#45;ConsumeRequestIterator</title>
<ellipse fill="none" stroke="black" cx="605.155" cy="-153" rx="122.379" ry="18"/>
<text text-anchor="middle" x="605.155" y="-149.3" font-family="Times,serif" font-size="14.00">gRPC&#45;ConsumeRequestIterator</text>
</g>
<!-- Thread&#45;ConsumeBidirectionalStream&#45;&gt;Thread&#45;gRPC&#45;ConsumeRequestIterator -->
<g id="edge4" class="edge"><title>Thread&#45;ConsumeBidirectionalStream&#45;&gt;Thread&#45;gRPC&#45;ConsumeRequestIterator</title>
<path fill="none" stroke="black" d="M378.345,-221.848C396.641,-218.05 415.673,-213.18 432.965,-207 456.748,-198.501 459.304,-188.83 482.965,-180 493.852,-175.937 505.527,-172.389 517.176,-169.317"/>
<polygon fill="black" stroke="black" points="518.101,-172.694 526.938,-166.849 516.385,-165.907 518.101,-172.694"/>
<text text-anchor="middle" x="457.965" y="-202.8" font-family="Times,serif" font-size="14.00">54</text>
</g>
<!-- MainThread -->
<g id="node7" class="node"><title>MainThread</title>
<ellipse fill="none" stroke="black" cx="54.5952" cy="-126" rx="54.6905" ry="18"/>
<text text-anchor="middle" x="54.5952" y="-122.3" font-family="Times,serif" font-size="14.00">MainThread</text>
</g>
<!-- MainThread&#45;&gt;Thread&#45;ConsumeBidirectionalStream -->
<g id="edge9" class="edge"><title>MainThread&#45;&gt;Thread&#45;ConsumeBidirectionalStream</title>
<path fill="none" stroke="black" d="M70.8556,-143.201C88.5131,-161.956 119.391,-191.375 152.19,-207 163.983,-212.618 176.866,-217.066 189.882,-220.59"/>
<polygon fill="black" stroke="black" points="189.294,-224.051 199.847,-223.108 191.009,-217.264 189.294,-224.051"/>
</g>
<!-- Thread&#45;gRPC&#45;SubscribeMoot -->
<g id="node8" class="node"><title>Thread&#45;gRPC&#45;SubscribeMoot</title>
<ellipse fill="none" stroke="black" cx="292.578" cy="-180" rx="89.0842" ry="18"/>
<text text-anchor="middle" x="292.578" y="-176.3" font-family="Times,serif" font-size="14.00">gRPC&#45;SubscribeMoot</text>
</g>
<!-- MainThread&#45;&gt;Thread&#45;gRPC&#45;SubscribeMoot -->
<g id="edge6" class="edge"><title>MainThread&#45;&gt;Thread&#45;gRPC&#45;SubscribeMoot</title>
<path fill="none" stroke="black" d="M95.8239,-138.033C113.093,-142.993 133.549,-148.597 152.19,-153 172.497,-157.796 194.614,-162.373 215.124,-166.35"/>
<polygon fill="black" stroke="black" points="214.569,-169.808 225.049,-168.253 215.887,-162.933 214.569,-169.808"/>
<text text-anchor="middle" x="130.69" y="-152.8" font-family="Times,serif" font-size="14.00">2</text>
</g>
<!-- Thread&#45;gRPC&#45;PluginGetMetadata -->
<g id="node9" class="node"><title>Thread&#45;gRPC&#45;PluginGetMetadata</title>
<ellipse fill="none" stroke="black" cx="292.578" cy="-126" rx="103.182" ry="18"/>
<text text-anchor="middle" x="292.578" y="-122.3" font-family="Times,serif" font-size="14.00">gRPC&#45;PluginGetMetadata</text>
</g>
<!-- MainThread&#45;&gt;Thread&#45;gRPC&#45;PluginGetMetadata -->
<g id="edge7" class="edge"><title>MainThread&#45;&gt;Thread&#45;gRPC&#45;PluginGetMetadata</title>
<path fill="none" stroke="black" d="M109.439,-126C130.242,-126 154.867,-126 179.176,-126"/>
<polygon fill="black" stroke="black" points="179.194,-129.5 189.194,-126 179.194,-122.5 179.194,-129.5"/>
<text text-anchor="middle" x="130.69" y="-129.8" font-family="Times,serif" font-size="14.00">5</text>
</g>
<!-- Thread&#45;Consumer&#45;CallbackRequestsWorker -->
<g id="node10" class="node"><title>Thread&#45;Consumer&#45;CallbackRequestsWorker</title>
<ellipse fill="none" stroke="black" cx="292.578" cy="-72" rx="140.275" ry="18"/>
<text text-anchor="middle" x="292.578" y="-68.3" font-family="Times,serif" font-size="14.00">Consumer&#45;CallbackRequestsWorker</text>
</g>
<!-- MainThread&#45;&gt;Thread&#45;Consumer&#45;CallbackRequestsWorker -->
<g id="edge8" class="edge"><title>MainThread&#45;&gt;Thread&#45;Consumer&#45;CallbackRequestsWorker</title>
<path fill="none" stroke="black" d="M95.8239,-113.967C113.093,-109.007 133.549,-103.403 152.19,-99 167.686,-95.34 184.236,-91.808 200.321,-88.5725"/>
<polygon fill="black" stroke="black" points="201.137,-91.9789 210.264,-86.5977 199.773,-85.1131 201.137,-91.9789"/>
</g>
<!-- Thread&#45;LeaseMaintenance -->
<g id="node11" class="node"><title>Thread&#45;LeaseMaintenance</title>
<ellipse fill="none" stroke="black" cx="292.578" cy="-18" rx="77.1866" ry="18"/>
<text text-anchor="middle" x="292.578" y="-14.3" font-family="Times,serif" font-size="14.00">LeaseMaintenance</text>
</g>
<!-- MainThread&#45;&gt;Thread&#45;LeaseMaintenance -->
<g id="edge10" class="edge"><title>MainThread&#45;&gt;Thread&#45;LeaseMaintenance</title>
<path fill="none" stroke="black" d="M70.8556,-108.799C88.5131,-90.0443 119.391,-60.6247 152.19,-45 170.275,-36.3847 190.925,-30.5184 210.689,-26.5239"/>
<polygon fill="black" stroke="black" points="211.434,-29.9452 220.614,-24.6553 210.139,-23.066 211.434,-29.9452"/>
</g>
</g>
</svg>
