<?xml version="1.0" encoding="UTF-8" standalone="no"?>
<!DOCTYPE svg PUBLIC "-//W3C//DTD SVG 1.1//EN"
 "http://www.w3.org/Graphics/SVG/1.1/DTD/svg11.dtd">
<!-- Generated by graphviz version 2.38.0 (20140413.2041)
 -->
<!-- Title: G Pages: 1 -->
<svg width="1207pt" height="476pt"
 viewBox="0.00 0.00 1206.51 476.00" xmlns="http://www.w3.org/2000/svg" xmlns:xlink="http://www.w3.org/1999/xlink">
<g id="graph0" class="graph" transform="scale(1 1) rotate(0) translate(4 472)">
<title>G</title>
<polygon fill="white" stroke="none" points="-4,4 -4,-472 1202.51,-472 1202.51,4 -4,4"/>
<!-- Thread&#45;gRPC&#45;SubscribeMoot -->
<g id="node1" class="node"><title>Thread&#45;gRPC&#45;SubscribeMoot</title>
<ellipse fill="none" stroke="black" cx="330.924" cy="-416" rx="89.0842" ry="18"/>
<text text-anchor="middle" x="330.924" y="-412.3" font-family="Times,serif" font-size="14.00">gRPC&#45;SubscribeMoot</text>
</g>
<!-- Thread&#45;gRPC&#45;SpawnDelivery -->
<g id="node2" class="node"><title>Thread&#45;gRPC&#45;SpawnDelivery</title>
<ellipse fill="none" stroke="black" cx="738.393" cy="-450" rx="89.0842" ry="18"/>
<text text-anchor="middle" x="738.393" y="-446.3" font-family="Times,serif" font-size="14.00">gRPC&#45;SpawnDelivery</text>
</g>
<!-- Thread&#45;gRPC&#45;SubscribeMoot&#45;&gt;Thread&#45;gRPC&#45;SpawnDelivery -->
<g id="edge1" class="edge"><title>Thread&#45;gRPC&#45;SubscribeMoot&#45;&gt;Thread&#45;gRPC&#45;SpawnDelivery</title>
<path fill="none" stroke="black" d="M413.489,-422.84C480.716,-428.477 576.021,-436.468 645.847,-442.324"/>
<polygon fill="black" stroke="black" points="645.701,-445.823 655.958,-443.171 646.286,-438.848 645.701,-445.823"/>
</g>
<!-- Thread&#45;ConsumerHelper&#45;ConsumeBidirectionalStream+ -->
<g id="node3" class="node"><title>Thread&#45;ConsumerHelper&#45;ConsumeBidirectionalStream+</title>
<ellipse fill="none" stroke="black" cx="738.393" cy="-396" rx="178.969" ry="18"/>
<text text-anchor="middle" x="738.393" y="-392.3" font-family="Times,serif" font-size="14.00">ConsumerHelper&#45;ConsumeBidirectionalStream</text>
</g>
<!-- Thread&#45;gRPC&#45;PluginGetMetadata+++++++++ -->
<g id="node4" class="node"><title>Thread&#45;gRPC&#45;PluginGetMetadata+++++++++</title>
<ellipse fill="none" stroke="black" cx="1076.32" cy="-450" rx="103.182" ry="18"/>
<text text-anchor="middle" x="1076.32" y="-446.3" font-family="Times,serif" font-size="14.00">gRPC&#45;PluginGetMetadata</text>
</g>
<!-- Thread&#45;ConsumerHelper&#45;ConsumeBidirectionalStream+&#45;&gt;Thread&#45;gRPC&#45;PluginGetMetadata+++++++++ -->
<g id="edge2" class="edge"><title>Thread&#45;ConsumerHelper&#45;ConsumeBidirectionalStream+&#45;&gt;Thread&#45;gRPC&#45;PluginGetMetadata+++++++++</title>
<path fill="none" stroke="black" d="M839.551,-410.887C864.878,-414.742 892.015,-418.95 917.127,-423 941.664,-426.957 968.309,-431.435 992.614,-435.591"/>
<polygon fill="black" stroke="black" points="992.068,-439.048 1002.52,-437.288 993.25,-432.149 992.068,-439.048"/>
</g>
<!-- Thread&#45;gRPC&#45;StopChannelSpin+ -->
<g id="node5" class="node"><title>Thread&#45;gRPC&#45;StopChannelSpin+</title>
<ellipse fill="none" stroke="black" cx="1076.32" cy="-396" rx="96.3833" ry="18"/>
<text text-anchor="middle" x="1076.32" y="-392.3" font-family="Times,serif" font-size="14.00">gRPC&#45;StopChannelSpin</text>
</g>
<!-- Thread&#45;ConsumerHelper&#45;ConsumeBidirectionalStream+&#45;&gt;Thread&#45;gRPC&#45;StopChannelSpin+ -->
<g id="edge3" class="edge"><title>Thread&#45;ConsumerHelper&#45;ConsumeBidirectionalStream+&#45;&gt;Thread&#45;gRPC&#45;StopChannelSpin+</title>
<path fill="none" stroke="black" d="M917.191,-396C935.046,-396 952.752,-396 969.499,-396"/>
<polygon fill="black" stroke="black" points="969.795,-399.5 979.795,-396 969.795,-392.5 969.795,-399.5"/>
</g>
<!-- Thread&#45;gRPC&#45;ConsumeRequestIterator+ -->
<g id="node6" class="node"><title>Thread&#45;gRPC&#45;ConsumeRequestIterator+</title>
<ellipse fill="none" stroke="black" cx="1076.32" cy="-342" rx="122.379" ry="18"/>
<text text-anchor="middle" x="1076.32" y="-338.3" font-family="Times,serif" font-size="14.00">gRPC&#45;ConsumeRequestIterator</text>
</g>
<!-- Thread&#45;ConsumerHelper&#45;ConsumeBidirectionalStream+&#45;&gt;Thread&#45;gRPC&#45;ConsumeRequestIterator+ -->
<g id="edge4" class="edge"><title>Thread&#45;ConsumerHelper&#45;ConsumeBidirectionalStream+&#45;&gt;Thread&#45;gRPC&#45;ConsumeRequestIterator+</title>
<path fill="none" stroke="black" d="M839.551,-381.113C864.878,-377.258 892.015,-373.05 917.127,-369 939.649,-365.368 963.947,-361.297 986.581,-357.439"/>
<polygon fill="black" stroke="black" points="987.242,-360.877 996.509,-355.743 986.063,-353.977 987.242,-360.877"/>
</g>
<!-- Thread&#45;ConsumerHelper&#45;CallbackRequestsWorker -->
<g id="node7" class="node"><title>Thread&#45;ConsumerHelper&#45;CallbackRequestsWorker</title>
<ellipse fill="none" stroke="black" cx="330.924" cy="-315" rx="164.371" ry="18"/>
<text text-anchor="middle" x="330.924" y="-311.3" font-family="Times,serif" font-size="14.00">ConsumerHelper&#45;CallbackRequestsWorker</text>
</g>
<!-- Thread&#45;ConsumerHelper&#45;CallbackRequestsWorker&#45;&gt;Thread&#45;ConsumerHelper&#45;ConsumeBidirectionalStream+ -->
<g id="edge6" class="edge"><title>Thread&#45;ConsumerHelper&#45;CallbackRequestsWorker&#45;&gt;Thread&#45;ConsumerHelper&#45;ConsumeBidirectionalStream+</title>
<path fill="none" stroke="black" d="M395.916,-331.658C441.39,-343.131 504.014,-358.195 559.659,-369 579.892,-372.929 601.515,-376.628 622.463,-379.953"/>
<polygon fill="black" stroke="black" points="621.935,-383.413 632.357,-381.505 623.02,-376.498 621.935,-383.413"/>
</g>
<!-- Thread&#45;ConsumerHelper&#45;CallbackRequestsWorker+ -->
<g id="node8" class="node"><title>Thread&#45;ConsumerHelper&#45;CallbackRequestsWorker+</title>
<ellipse fill="none" stroke="black" cx="738.393" cy="-342" rx="164.371" ry="18"/>
<text text-anchor="middle" x="738.393" y="-338.3" font-family="Times,serif" font-size="14.00">ConsumerHelper&#45;CallbackRequestsWorker</text>
</g>
<!-- Thread&#45;ConsumerHelper&#45;CallbackRequestsWorker&#45;&gt;Thread&#45;ConsumerHelper&#45;CallbackRequestsWorker+ -->
<g id="edge5" class="edge"><title>Thread&#45;ConsumerHelper&#45;CallbackRequestsWorker&#45;&gt;Thread&#45;ConsumerHelper&#45;CallbackRequestsWorker+</title>
<path fill="none" stroke="black" d="M471.747,-324.311C509.059,-326.795 549.526,-329.49 587.362,-332.01"/>
<polygon fill="black" stroke="black" points="587.228,-335.508 597.438,-332.68 587.693,-328.524 587.228,-335.508"/>
</g>
<!-- Thread&#45;LeaseMaintenance+ -->
<g id="node9" class="node"><title>Thread&#45;LeaseMaintenance+</title>
<ellipse fill="none" stroke="black" cx="738.393" cy="-288" rx="77.1866" ry="18"/>
<text text-anchor="middle" x="738.393" y="-284.3" font-family="Times,serif" font-size="14.00">LeaseMaintenance</text>
</g>
<!-- Thread&#45;ConsumerHelper&#45;CallbackRequestsWorker&#45;&gt;Thread&#45;LeaseMaintenance+ -->
<g id="edge7" class="edge"><title>Thread&#45;ConsumerHelper&#45;CallbackRequestsWorker&#45;&gt;Thread&#45;LeaseMaintenance+</title>
<path fill="none" stroke="black" d="M471.747,-305.689C532.287,-301.658 601.134,-297.073 653.568,-293.582"/>
<polygon fill="black" stroke="black" points="654.083,-297.055 663.829,-292.899 653.618,-290.071 654.083,-297.055"/>
</g>
<!-- Thread&#45;ConsumerHelper&#45;ConsumeBidirectionalStream -->
<g id="node10" class="node"><title>Thread&#45;ConsumerHelper&#45;ConsumeBidirectionalStream</title>
<ellipse fill="none" stroke="black" cx="330.924" cy="-180" rx="178.969" ry="18"/>
<text text-anchor="middle" x="330.924" y="-176.3" font-family="Times,serif" font-size="14.00">ConsumerHelper&#45;ConsumeBidirectionalStream</text>
</g>
<!-- Thread&#45;gRPC&#45;PluginGetMetadata++ -->
<g id="node11" class="node"><title>Thread&#45;gRPC&#45;PluginGetMetadata++</title>
<ellipse fill="none" stroke="black" cx="738.393" cy="-234" rx="103.182" ry="18"/>
<text text-anchor="middle" x="738.393" y="-230.3" font-family="Times,serif" font-size="14.00">gRPC&#45;PluginGetMetadata</text>
</g>
<!-- Thread&#45;ConsumerHelper&#45;ConsumeBidirectionalStream&#45;&gt;Thread&#45;gRPC&#45;PluginGetMetadata++ -->
<g id="edge8" class="edge"><title>Thread&#45;ConsumerHelper&#45;ConsumeBidirectionalStream&#45;&gt;Thread&#45;gRPC&#45;PluginGetMetadata++</title>
<path fill="none" stroke="black" d="M439.518,-194.329C503.746,-202.883 584.449,-213.631 645.648,-221.782"/>
<polygon fill="black" stroke="black" points="645.307,-225.267 655.681,-223.118 646.231,-218.328 645.307,-225.267"/>
</g>
<!-- Thread&#45;gRPC&#45;StopChannelSpin -->
<g id="node12" class="node"><title>Thread&#45;gRPC&#45;StopChannelSpin</title>
<ellipse fill="none" stroke="black" cx="738.393" cy="-180" rx="96.3833" ry="18"/>
<text text-anchor="middle" x="738.393" y="-176.3" font-family="Times,serif" font-size="14.00">gRPC&#45;StopChannelSpin</text>
</g>
<!-- Thread&#45;ConsumerHelper&#45;ConsumeBidirectionalStream&#45;&gt;Thread&#45;gRPC&#45;StopChannelSpin -->
<g id="edge9" class="edge"><title>Thread&#45;ConsumerHelper&#45;ConsumeBidirectionalStream&#45;&gt;Thread&#45;gRPC&#45;StopChannelSpin</title>
<path fill="none" stroke="black" d="M509.769,-180C551.391,-180 594.434,-180 631.737,-180"/>
<polygon fill="black" stroke="black" points="632.1,-183.5 642.1,-180 632.1,-176.5 632.1,-183.5"/>
</g>
<!-- Thread&#45;gRPC&#45;ConsumeRequestIterator -->
<g id="node13" class="node"><title>Thread&#45;gRPC&#45;ConsumeRequestIterator</title>
<ellipse fill="none" stroke="black" cx="738.393" cy="-126" rx="122.379" ry="18"/>
<text text-anchor="middle" x="738.393" y="-122.3" font-family="Times,serif" font-size="14.00">gRPC&#45;ConsumeRequestIterator</text>
</g>
<!-- Thread&#45;ConsumerHelper&#45;ConsumeBidirectionalStream&#45;&gt;Thread&#45;gRPC&#45;ConsumeRequestIterator -->
<g id="edge10" class="edge"><title>Thread&#45;ConsumerHelper&#45;ConsumeBidirectionalStream&#45;&gt;Thread&#45;gRPC&#45;ConsumeRequestIterator</title>
<path fill="none" stroke="black" d="M439.518,-165.671C500.73,-157.519 576.907,-147.373 636.903,-139.383"/>
<polygon fill="black" stroke="black" points="637.696,-142.809 647.147,-138.019 636.772,-135.87 637.696,-142.809"/>
</g>
<!-- ThreadPoolExecutor&#45;SubscriberPolicy -->
<g id="node14" class="node"><title>ThreadPoolExecutor&#45;SubscriberPolicy</title>
<ellipse fill="none" stroke="black" cx="738.393" cy="-72" rx="146.474" ry="18"/>
<text text-anchor="middle" x="738.393" y="-68.3" font-family="Times,serif" font-size="14.00">ThreadPoolExecutor&#45;SubscriberPolicy</text>
</g>
<!-- Thread&#45;ConsumerHelper&#45;ConsumeBidirectionalStream&#45;&gt;ThreadPoolExecutor&#45;SubscriberPolicy -->
<g id="edge11" class="edge"><title>Thread&#45;ConsumerHelper&#45;ConsumeBidirectionalStream&#45;&gt;ThreadPoolExecutor&#45;SubscriberPolicy</title>
<path fill="none" stroke="black" d="M469.822,-168.612C483.71,-164.675 497.249,-159.576 509.659,-153 513.271,-151.086 556.046,-100.914 559.659,-99 572.206,-92.3506 585.908,-87.2119 599.958,-83.257"/>
<polygon fill="black" stroke="black" points="600.94,-86.6181 609.73,-80.7041 599.17,-79.8454 600.94,-86.6181"/>
<text text-anchor="middle" x="534.659" y="-136.8" font-family="Times,serif" font-size="14.00">10</text>
</g>
<!-- Thread&#45;MonitorBatchPublisher -->
<g id="node15" class="node"><title>Thread&#45;MonitorBatchPublisher</title>
<ellipse fill="none" stroke="black" cx="738.393" cy="-18" rx="93.6835" ry="18"/>
<text text-anchor="middle" x="738.393" y="-14.3" font-family="Times,serif" font-size="14.00">MonitorBatchPublisher</text>
</g>
<!-- Thread&#45;gRPC&#45;PluginGetMetadata+++ -->
<g id="node16" class="node"><title>Thread&#45;gRPC&#45;PluginGetMetadata+++</title>
<ellipse fill="none" stroke="black" cx="1076.32" cy="-18" rx="103.182" ry="18"/>
<text text-anchor="middle" x="1076.32" y="-14.3" font-family="Times,serif" font-size="14.00">gRPC&#45;PluginGetMetadata</text>
</g>
<!-- Thread&#45;MonitorBatchPublisher&#45;&gt;Thread&#45;gRPC&#45;PluginGetMetadata+++ -->
<g id="edge12" class="edge"><title>Thread&#45;MonitorBatchPublisher&#45;&gt;Thread&#45;gRPC&#45;PluginGetMetadata+++</title>
<path fill="none" stroke="black" d="M832.074,-18C872.527,-18 920.325,-18 962.796,-18"/>
<polygon fill="black" stroke="black" points="962.901,-21.5001 972.901,-18 962.901,-14.5001 962.901,-21.5001"/>
</g>
<!-- Thread&#45;ReproPublish -->
<g id="node17" class="node"><title>Thread&#45;ReproPublish</title>
<ellipse fill="none" stroke="black" cx="330.924" cy="-126" rx="58.4896" ry="18"/>
<text text-anchor="middle" x="330.924" y="-122.3" font-family="Times,serif" font-size="14.00">ReproPublish</text>
</g>
<!-- Thread&#45;ReproPublish&#45;&gt;Thread&#45;MonitorBatchPublisher -->
<g id="edge13" class="edge"><title>Thread&#45;ReproPublish&#45;&gt;Thread&#45;MonitorBatchPublisher</title>
<path fill="none" stroke="black" d="M389.369,-126.791C425.74,-125.063 472.704,-118.583 509.659,-99 538.56,-83.6846 530.758,-60.3154 559.659,-45 582.544,-32.8726 609.268,-25.7704 634.938,-21.7099"/>
<polygon fill="black" stroke="black" points="635.694,-25.1373 645.093,-20.249 634.697,-18.2087 635.694,-25.1373"/>
<text text-anchor="middle" x="534.659" y="-86.8" font-family="Times,serif" font-size="14.00">47</text>
</g>
<!-- MainThread -->
<g id="node18" class="node"><title>MainThread</title>
<ellipse fill="none" stroke="black" cx="54.5952" cy="-152" rx="54.6905" ry="18"/>
<text text-anchor="middle" x="54.5952" y="-148.3" font-family="Times,serif" font-size="14.00">MainThread</text>
</g>
<!-- MainThread&#45;&gt;Thread&#45;gRPC&#45;SubscribeMoot -->
<g id="edge14" class="edge"><title>MainThread&#45;&gt;Thread&#45;gRPC&#45;SubscribeMoot</title>
<path fill="none" stroke="black" d="M60.1815,-170.01C70.4896,-207.079 98.8624,-292.569 152.19,-342 182.439,-370.038 224.823,-388.24 260.615,-399.574"/>
<polygon fill="black" stroke="black" points="259.933,-403.025 270.519,-402.59 261.973,-396.328 259.933,-403.025"/>
<text text-anchor="middle" x="130.69" y="-324.8" font-family="Times,serif" font-size="14.00">2</text>
</g>
<!-- MainThread&#45;&gt;Thread&#45;ConsumerHelper&#45;CallbackRequestsWorker -->
<g id="edge16" class="edge"><title>MainThread&#45;&gt;Thread&#45;ConsumerHelper&#45;CallbackRequestsWorker</title>
<path fill="none" stroke="black" d="M81.899,-167.629C130.526,-196.522 234.676,-258.406 291.316,-292.06"/>
<polygon fill="black" stroke="black" points="289.598,-295.11 299.983,-297.209 293.174,-289.092 289.598,-295.11"/>
</g>
<!-- MainThread&#45;&gt;Thread&#45;ConsumerHelper&#45;ConsumeBidirectionalStream -->
<g id="edge17" class="edge"><title>MainThread&#45;&gt;Thread&#45;ConsumerHelper&#45;ConsumeBidirectionalStream</title>
<path fill="none" stroke="black" d="M106.873,-157.234C131.921,-159.79 163.364,-163 194.673,-166.195"/>
<polygon fill="black" stroke="black" points="194.522,-169.698 204.826,-167.232 195.233,-162.734 194.522,-169.698"/>
</g>
<!-- MainThread&#45;&gt;Thread&#45;ReproPublish -->
<g id="edge19" class="edge"><title>MainThread&#45;&gt;Thread&#45;ReproPublish</title>
<path fill="none" stroke="black" d="M107.194,-147.11C151.824,-142.88 216.576,-136.743 264.771,-132.175"/>
<polygon fill="black" stroke="black" points="265.166,-135.653 274.791,-131.225 264.506,-128.685 265.166,-135.653"/>
</g>
<!-- Thread&#45;gRPC&#45;PluginGetMetadata -->
<g id="node19" class="node"><title>Thread&#45;gRPC&#45;PluginGetMetadata</title>
<ellipse fill="none" stroke="black" cx="330.924" cy="-72" rx="103.182" ry="18"/>
<text text-anchor="middle" x="330.924" y="-68.3" font-family="Times,serif" font-size="14.00">gRPC&#45;PluginGetMetadata</text>
</g>
<!-- MainThread&#45;&gt;Thread&#45;gRPC&#45;PluginGetMetadata -->
<g id="edge15" class="edge"><title>MainThread&#45;&gt;Thread&#45;gRPC&#45;PluginGetMetadata</title>
<path fill="none" stroke="black" d="M79.5094,-135.763C98.4176,-123.713 125.918,-107.89 152.19,-99 176.071,-90.9189 202.577,-85.2494 227.674,-81.2741"/>
<polygon fill="black" stroke="black" points="228.219,-84.7317 237.585,-79.7789 227.174,-77.81 228.219,-84.7317"/>
<text text-anchor="middle" x="130.69" y="-110.8" font-family="Times,serif" font-size="14.00">4</text>
</g>
<!-- Thread&#45;LeaseMaintenance -->
<g id="node20" class="node"><title>Thread&#45;LeaseMaintenance</title>
<ellipse fill="none" stroke="black" cx="330.924" cy="-18" rx="77.1866" ry="18"/>
<text text-anchor="middle" x="330.924" y="-14.3" font-family="Times,serif" font-size="14.00">LeaseMaintenance</text>
</g>
<!-- MainThread&#45;&gt;Thread&#45;LeaseMaintenance -->
<g id="edge18" class="edge"><title>MainThread&#45;&gt;Thread&#45;LeaseMaintenance</title>
<path fill="none" stroke="black" d="M66.1073,-134.131C81.5852,-109.592 112.961,-66.1066 152.19,-45 179.724,-30.1862 212.924,-22.8316 243.141,-19.3669"/>
<polygon fill="black" stroke="black" points="243.667,-22.8315 253.261,-18.3359 242.958,-15.8675 243.667,-22.8315"/>
</g>
</g>
</svg>
