<?xml version="1.0" encoding="UTF-8" standalone="no"?>
<!DOCTYPE svg PUBLIC "-//W3C//DTD SVG 1.1//EN"
 "http://www.w3.org/Graphics/SVG/1.1/DTD/svg11.dtd">
<!-- Generated by graphviz version 2.38.0 (20140413.2041)
 -->
<!-- Title: G Pages: 1 -->
<svg width="1034pt" height="395pt"
 viewBox="0.00 0.00 1034.12 395.00" xmlns="http://www.w3.org/2000/svg" xmlns:xlink="http://www.w3.org/1999/xlink">
<g id="graph0" class="graph" transform="scale(1 1) rotate(0) translate(4 391)">
<title>G</title>
<polygon fill="white" stroke="none" points="-4,4 -4,-391 1030.12,-391 1030.12,4 -4,4"/>
<!-- Thread&#45;gRPC&#45;SubscribeMoot -->
<g id="node1" class="node"><title>Thread&#45;gRPC&#45;SubscribeMoot</title>
<ellipse fill="none" stroke="black" cx="292.578" cy="-345" rx="89.0842" ry="18"/>
<text text-anchor="middle" x="292.578" y="-341.3" font-family="Times,serif" font-size="14.00">gRPC&#45;SubscribeMoot</text>
</g>
<!-- Thread&#45;gRPC&#45;SpawnDelivery -->
<g id="node2" class="node"><title>Thread&#45;gRPC&#45;SpawnDelivery</title>
<ellipse fill="none" stroke="black" cx="636.202" cy="-369" rx="89.0842" ry="18"/>
<text text-anchor="middle" x="636.202" y="-365.3" font-family="Times,serif" font-size="14.00">gRPC&#45;SpawnDelivery</text>
</g>
<!-- Thread&#45;gRPC&#45;SubscribeMoot&#45;&gt;Thread&#45;gRPC&#45;SpawnDelivery -->
<g id="edge1" class="edge"><title>Thread&#45;gRPC&#45;SubscribeMoot&#45;&gt;Thread&#45;gRPC&#45;SpawnDelivery</title>
<path fill="none" stroke="black" d="M377.149,-350.871C426.964,-354.371 490.312,-358.821 541.776,-362.437"/>
<polygon fill="black" stroke="black" points="541.682,-365.939 551.903,-363.148 542.173,-358.956 541.682,-365.939"/>
</g>
<!-- Thread&#45;ConsumeBidirectionalStream -->
<g id="node3" class="node"><title>Thread&#45;ConsumeBidirectionalStream</title>
<ellipse fill="none" stroke="black" cx="292.578" cy="-234" rx="115.88" ry="18"/>
<text text-anchor="middle" x="292.578" y="-230.3" font-family="Times,serif" font-size="14.00">ConsumeBidirectionalStream</text>
</g>
<!-- Thread&#45;gRPC&#45;PluginGetMetadata++ -->
<g id="node4" class="node"><title>Thread&#45;gRPC&#45;PluginGetMetadata++</title>
<ellipse fill="none" stroke="black" cx="636.202" cy="-315" rx="103.182" ry="18"/>
<text text-anchor="middle" x="636.202" y="-311.3" font-family="Times,serif" font-size="14.00">gRPC&#45;PluginGetMetadata</text>
</g>
<!-- Thread&#45;ConsumeBidirectionalStream&#45;&gt;Thread&#45;gRPC&#45;PluginGetMetadata++ -->
<g id="edge2" class="edge"><title>Thread&#45;ConsumeBidirectionalStream&#45;&gt;Thread&#45;gRPC&#45;PluginGetMetadata++</title>
<path fill="none" stroke="black" d="M347.031,-250.014C386.347,-261.47 441.203,-276.785 489.965,-288 509.744,-292.549 531.171,-296.865 551.339,-300.659"/>
<polygon fill="black" stroke="black" points="550.969,-304.15 561.44,-302.535 552.247,-297.267 550.969,-304.15"/>
</g>
<!-- Thread&#45;gRPC&#45;StopChannelSpin -->
<g id="node5" class="node"><title>Thread&#45;gRPC&#45;StopChannelSpin</title>
<ellipse fill="none" stroke="black" cx="636.202" cy="-261" rx="96.3833" ry="18"/>
<text text-anchor="middle" x="636.202" y="-257.3" font-family="Times,serif" font-size="14.00">gRPC&#45;StopChannelSpin</text>
</g>
<!-- Thread&#45;ConsumeBidirectionalStream&#45;&gt;Thread&#45;gRPC&#45;StopChannelSpin -->
<g id="edge3" class="edge"><title>Thread&#45;ConsumeBidirectionalStream&#45;&gt;Thread&#45;gRPC&#45;StopChannelSpin</title>
<path fill="none" stroke="black" d="M396.076,-242.101C440.749,-245.632 492.884,-249.752 537.053,-253.243"/>
<polygon fill="black" stroke="black" points="536.977,-256.748 547.222,-254.047 537.529,-249.769 536.977,-256.748"/>
</g>
<!-- Thread&#45;gRPC&#45;ConsumeRequestIterator -->
<g id="node6" class="node"><title>Thread&#45;gRPC&#45;ConsumeRequestIterator</title>
<ellipse fill="none" stroke="black" cx="636.202" cy="-207" rx="122.379" ry="18"/>
<text text-anchor="middle" x="636.202" y="-203.3" font-family="Times,serif" font-size="14.00">gRPC&#45;ConsumeRequestIterator</text>
</g>
<!-- Thread&#45;ConsumeBidirectionalStream&#45;&gt;Thread&#45;gRPC&#45;ConsumeRequestIterator -->
<g id="edge4" class="edge"><title>Thread&#45;ConsumeBidirectionalStream&#45;&gt;Thread&#45;gRPC&#45;ConsumeRequestIterator</title>
<path fill="none" stroke="black" d="M396.076,-225.899C434.487,-222.863 478.416,-219.391 518.054,-216.259"/>
<polygon fill="black" stroke="black" points="518.34,-219.747 528.033,-215.47 517.788,-212.769 518.34,-219.747"/>
</g>
<!-- ThreadPoolExecutor&#45;SubscriberPolicy -->
<g id="node7" class="node"><title>ThreadPoolExecutor&#45;SubscriberPolicy</title>
<ellipse fill="none" stroke="black" cx="636.202" cy="-153" rx="146.474" ry="18"/>
<text text-anchor="middle" x="636.202" y="-149.3" font-family="Times,serif" font-size="14.00">ThreadPoolExecutor&#45;SubscriberPolicy</text>
</g>
<!-- Thread&#45;ConsumeBidirectionalStream&#45;&gt;ThreadPoolExecutor&#45;SubscriberPolicy -->
<g id="edge5" class="edge"><title>Thread&#45;ConsumeBidirectionalStream&#45;&gt;ThreadPoolExecutor&#45;SubscriberPolicy</title>
<path fill="none" stroke="black" d="M376.268,-221.532C395.134,-217.713 414.93,-212.914 432.965,-207 459.602,-198.266 463.296,-188.634 489.965,-180 503.12,-175.741 517.176,-172.079 531.17,-168.95"/>
<polygon fill="black" stroke="black" points="532.293,-172.289 541.335,-166.766 530.823,-165.445 532.293,-172.289"/>
<text text-anchor="middle" x="461.465" y="-201.8" font-family="Times,serif" font-size="14.00">10</text>
</g>
<!-- Thread&#45;MonitorBatchPublisher -->
<g id="node8" class="node"><title>Thread&#45;MonitorBatchPublisher</title>
<ellipse fill="none" stroke="black" cx="636.202" cy="-99" rx="93.6835" ry="18"/>
<text text-anchor="middle" x="636.202" y="-95.3" font-family="Times,serif" font-size="14.00">MonitorBatchPublisher</text>
</g>
<!-- Thread&#45;gRPC&#45;PluginGetMetadata+++ -->
<g id="node9" class="node"><title>Thread&#45;gRPC&#45;PluginGetMetadata+++</title>
<ellipse fill="none" stroke="black" cx="922.78" cy="-99" rx="103.182" ry="18"/>
<text text-anchor="middle" x="922.78" y="-95.3" font-family="Times,serif" font-size="14.00">gRPC&#45;PluginGetMetadata</text>
</g>
<!-- Thread&#45;MonitorBatchPublisher&#45;&gt;Thread&#45;gRPC&#45;PluginGetMetadata+++ -->
<g id="edge6" class="edge"><title>Thread&#45;MonitorBatchPublisher&#45;&gt;Thread&#45;gRPC&#45;PluginGetMetadata+++</title>
<path fill="none" stroke="black" d="M729.99,-99C755.192,-99 782.76,-99 808.937,-99"/>
<polygon fill="black" stroke="black" points="809.28,-102.5 819.28,-99 809.28,-95.5001 809.28,-102.5"/>
</g>
<!-- Thread&#45;ReproPublish -->
<g id="node10" class="node"><title>Thread&#45;ReproPublish</title>
<ellipse fill="none" stroke="black" cx="292.578" cy="-180" rx="58.4896" ry="18"/>
<text text-anchor="middle" x="292.578" y="-176.3" font-family="Times,serif" font-size="14.00">ReproPublish</text>
</g>
<!-- Thread&#45;ReproPublish&#45;&gt;Thread&#45;MonitorBatchPublisher -->
<g id="edge7" class="edge"><title>Thread&#45;ReproPublish&#45;&gt;Thread&#45;MonitorBatchPublisher</title>
<path fill="none" stroke="black" d="M346.663,-172.931C373.015,-168.616 405.093,-162.139 432.965,-153 459.602,-144.266 463.296,-134.634 489.965,-126 508.856,-119.884 529.604,-114.998 549.358,-111.158"/>
<polygon fill="black" stroke="black" points="550.087,-114.582 559.271,-109.3 548.798,-107.702 550.087,-114.582"/>
<text text-anchor="middle" x="461.465" y="-147.8" font-family="Times,serif" font-size="14.00">132</text>
</g>
<!-- MainThread -->
<g id="node11" class="node"><title>MainThread</title>
<ellipse fill="none" stroke="black" cx="54.5952" cy="-147" rx="54.6905" ry="18"/>
<text text-anchor="middle" x="54.5952" y="-143.3" font-family="Times,serif" font-size="14.00">MainThread</text>
</g>
<!-- MainThread&#45;&gt;Thread&#45;gRPC&#45;SubscribeMoot -->
<g id="edge8" class="edge"><title>MainThread&#45;&gt;Thread&#45;gRPC&#45;SubscribeMoot</title>
<path fill="none" stroke="black" d="M67.8125,-164.771C84.8032,-188.623 117.421,-231.409 152.19,-261 181.701,-286.116 219.601,-308.431 248.43,-323.737"/>
<polygon fill="black" stroke="black" points="246.965,-326.921 257.449,-328.455 250.21,-320.718 246.965,-326.921"/>
<text text-anchor="middle" x="130.69" y="-247.8" font-family="Times,serif" font-size="14.00">2</text>
</g>
<!-- MainThread&#45;&gt;Thread&#45;ConsumeBidirectionalStream -->
<g id="edge11" class="edge"><title>MainThread&#45;&gt;Thread&#45;ConsumeBidirectionalStream</title>
<path fill="none" stroke="black" d="M77.0081,-163.511C95.8164,-177.201 124.436,-196.121 152.19,-207 165.615,-212.262 180.184,-216.53 194.671,-219.982"/>
<polygon fill="black" stroke="black" points="194.148,-223.452 204.673,-222.244 195.692,-216.624 194.148,-223.452"/>
</g>
<!-- MainThread&#45;&gt;Thread&#45;ReproPublish -->
<g id="edge13" class="edge"><title>MainThread&#45;&gt;Thread&#45;ReproPublish</title>
<path fill="none" stroke="black" d="M105.065,-153.918C141.044,-158.949 190.031,-165.8 228.772,-171.217"/>
<polygon fill="black" stroke="black" points="228.508,-174.714 238.896,-172.633 229.478,-167.782 228.508,-174.714"/>
</g>
<!-- Thread&#45;gRPC&#45;PluginGetMetadata -->
<g id="node12" class="node"><title>Thread&#45;gRPC&#45;PluginGetMetadata</title>
<ellipse fill="none" stroke="black" cx="292.578" cy="-126" rx="103.182" ry="18"/>
<text text-anchor="middle" x="292.578" y="-122.3" font-family="Times,serif" font-size="14.00">gRPC&#45;PluginGetMetadata</text>
</g>
<!-- MainThread&#45;&gt;Thread&#45;gRPC&#45;PluginGetMetadata -->
<g id="edge9" class="edge"><title>MainThread&#45;&gt;Thread&#45;gRPC&#45;PluginGetMetadata</title>
<path fill="none" stroke="black" d="M106.419,-141.116C113.395,-140.368 120.467,-139.641 127.19,-139 146.573,-137.151 167.259,-135.367 187.187,-133.744"/>
<polygon fill="black" stroke="black" points="187.527,-137.228 197.214,-132.936 186.965,-130.251 187.527,-137.228"/>
<text text-anchor="middle" x="130.69" y="-142.8" font-family="Times,serif" font-size="14.00">4</text>
</g>
<!-- Thread&#45;Consumer&#45;CallbackRequestsWorker -->
<g id="node13" class="node"><title>Thread&#45;Consumer&#45;CallbackRequestsWorker</title>
<ellipse fill="none" stroke="black" cx="292.578" cy="-72" rx="140.275" ry="18"/>
<text text-anchor="middle" x="292.578" y="-68.3" font-family="Times,serif" font-size="14.00">Consumer&#45;CallbackRequestsWorker</text>
</g>
<!-- MainThread&#45;&gt;Thread&#45;Consumer&#45;CallbackRequestsWorker -->
<g id="edge10" class="edge"><title>MainThread&#45;&gt;Thread&#45;Consumer&#45;CallbackRequestsWorker</title>
<path fill="none" stroke="black" d="M82.2316,-131.314C101.175,-120.777 127.534,-107.343 152.19,-99 164.656,-94.7821 177.985,-91.1492 191.275,-88.0407"/>
<polygon fill="black" stroke="black" points="192.425,-91.3698 201.416,-85.7648 190.892,-84.5397 192.425,-91.3698"/>
</g>
<!-- Thread&#45;LeaseMaintenance -->
<g id="node14" class="node"><title>Thread&#45;LeaseMaintenance</title>
<ellipse fill="none" stroke="black" cx="292.578" cy="-18" rx="77.1866" ry="18"/>
<text text-anchor="middle" x="292.578" y="-14.3" font-family="Times,serif" font-size="14.00">LeaseMaintenance</text>
</g>
<!-- MainThread&#45;&gt;Thread&#45;LeaseMaintenance -->
<g id="edge12" class="edge"><title>MainThread&#45;&gt;Thread&#45;LeaseMaintenance</title>
<path fill="none" stroke="black" d="M66.9747,-129.394C83.0158,-106.119 114.561,-65.6533 152.19,-45 169.395,-35.5569 189.381,-29.376 208.754,-25.3416"/>
<polygon fill="black" stroke="black" points="209.645,-28.7348 218.811,-23.4215 208.332,-21.859 209.645,-28.7348"/>
</g>
</g>
</svg>
