<?xml version="1.0" encoding="UTF-8" standalone="no"?>
<!DOCTYPE svg PUBLIC "-//W3C//DTD SVG 1.1//EN"
 "http://www.w3.org/Graphics/SVG/1.1/DTD/svg11.dtd">
<!-- Generated by graphviz version 2.38.0 (20140413.2041)
 -->
<!-- Title: G Pages: 1 -->
<svg width="2328pt" height="291pt"
 viewBox="0.00 0.00 2328.39 291.00" xmlns="http://www.w3.org/2000/svg" xmlns:xlink="http://www.w3.org/1999/xlink">
<g id="graph0" class="graph" transform="scale(1 1) rotate(0) translate(4 287)">
<title>G</title>
<polygon fill="white" stroke="none" points="-4,4 -4,-287 2324.39,-287 2324.39,4 -4,4"/>
<!-- Thread&#45;gRPC&#45;SubscribeMoot -->
<g id="node1" class="node"><title>Thread&#45;gRPC&#45;SubscribeMoot</title>
<ellipse fill="none" stroke="black" cx="277.042" cy="-178" rx="89.0842" ry="18"/>
<text text-anchor="middle" x="277.042" y="-174.3" font-family="Times,serif" font-size="14.00">gRPC&#45;SubscribeMoot</text>
</g>
<!-- Thread&#45;gRPC&#45;SpawnDelivery -->
<g id="node2" class="node"><title>Thread&#45;gRPC&#45;SpawnDelivery</title>
<ellipse fill="none" stroke="black" cx="89.0421" cy="-91" rx="89.0842" ry="18"/>
<text text-anchor="middle" x="89.0421" y="-87.3" font-family="Times,serif" font-size="14.00">gRPC&#45;SpawnDelivery</text>
</g>
<!-- Thread&#45;gRPC&#45;SubscribeMoot&#45;&gt;Thread&#45;gRPC&#45;SpawnDelivery -->
<g id="edge1" class="edge"><title>Thread&#45;gRPC&#45;SubscribeMoot&#45;&gt;Thread&#45;gRPC&#45;SpawnDelivery</title>
<path fill="none" stroke="black" d="M242.121,-161.211C211.387,-147.316 166.483,-127.013 133.251,-111.988"/>
<polygon fill="black" stroke="black" points="134.33,-108.635 123.776,-107.704 131.446,-115.013 134.33,-108.635"/>
</g>
<!-- Thread&#45;ConsumerHelper&#45;ConsumeBidirectionalStream+ -->
<g id="node3" class="node"><title>Thread&#45;ConsumerHelper&#45;ConsumeBidirectionalStream+</title>
<ellipse fill="none" stroke="black" cx="375.042" cy="-91" rx="178.969" ry="18"/>
<text text-anchor="middle" x="375.042" y="-87.3" font-family="Times,serif" font-size="14.00">ConsumerHelper&#45;ConsumeBidirectionalStream</text>
</g>
<!-- Thread&#45;gRPC&#45;PluginGetMetadata++++++++++++++++++++++++++++++++++++++++++++++++++++++++++++++++++++++++++++++++++++++++++++++++++ -->
<g id="node4" class="node"><title>Thread&#45;gRPC&#45;PluginGetMetadata++++++++++++++++++++++++++++++++++++++++++++++++++++++++++++++++++++++++++++++++++++++++++++++++++</title>
<ellipse fill="none" stroke="black" cx="157.042" cy="-18" rx="103.182" ry="18"/>
<text text-anchor="middle" x="157.042" y="-14.3" font-family="Times,serif" font-size="14.00">gRPC&#45;PluginGetMetadata</text>
</g>
<!-- Thread&#45;ConsumerHelper&#45;ConsumeBidirectionalStream+&#45;&gt;Thread&#45;gRPC&#45;PluginGetMetadata++++++++++++++++++++++++++++++++++++++++++++++++++++++++++++++++++++++++++++++++++++++++++++++++++ -->
<g id="edge2" class="edge"><title>Thread&#45;ConsumerHelper&#45;ConsumeBidirectionalStream+&#45;&gt;Thread&#45;gRPC&#45;PluginGetMetadata++++++++++++++++++++++++++++++++++++++++++++++++++++++++++++++++++++++++++++++++++++++++++++++++++</title>
<path fill="none" stroke="black" d="M325.028,-73.7112C291.735,-62.8678 247.934,-48.6025 213.406,-37.3571"/>
<polygon fill="black" stroke="black" points="214.064,-33.8903 203.471,-34.1214 211.896,-40.5462 214.064,-33.8903"/>
</g>
<!-- Thread&#45;gRPC&#45;StopChannelSpin+ -->
<g id="node5" class="node"><title>Thread&#45;gRPC&#45;StopChannelSpin+</title>
<ellipse fill="none" stroke="black" cx="375.042" cy="-18" rx="96.3833" ry="18"/>
<text text-anchor="middle" x="375.042" y="-14.3" font-family="Times,serif" font-size="14.00">gRPC&#45;StopChannelSpin</text>
</g>
<!-- Thread&#45;ConsumerHelper&#45;ConsumeBidirectionalStream+&#45;&gt;Thread&#45;gRPC&#45;StopChannelSpin+ -->
<g id="edge3" class="edge"><title>Thread&#45;ConsumerHelper&#45;ConsumeBidirectionalStream+&#45;&gt;Thread&#45;gRPC&#45;StopChannelSpin+</title>
<path fill="none" stroke="black" d="M375.042,-72.8129C375.042,-64.7895 375.042,-55.0475 375.042,-46.0691"/>
<polygon fill="black" stroke="black" points="378.542,-46.0288 375.042,-36.0288 371.542,-46.0289 378.542,-46.0288"/>
</g>
<!-- Thread&#45;gRPC&#45;ConsumeRequestIterator+ -->
<g id="node6" class="node"><title>Thread&#45;gRPC&#45;ConsumeRequestIterator+</title>
<ellipse fill="none" stroke="black" cx="611.042" cy="-18" rx="122.379" ry="18"/>
<text text-anchor="middle" x="611.042" y="-14.3" font-family="Times,serif" font-size="14.00">gRPC&#45;ConsumeRequestIterator</text>
</g>
<!-- Thread&#45;ConsumerHelper&#45;ConsumeBidirectionalStream+&#45;&gt;Thread&#45;gRPC&#45;ConsumeRequestIterator+ -->
<g id="edge4" class="edge"><title>Thread&#45;ConsumerHelper&#45;ConsumeBidirectionalStream+&#45;&gt;Thread&#45;gRPC&#45;ConsumeRequestIterator+</title>
<path fill="none" stroke="black" d="M428.889,-73.8002C464.98,-62.9423 512.574,-48.6238 550.061,-37.3459"/>
<polygon fill="black" stroke="black" points="551.286,-40.6326 559.853,-34.4 549.269,-33.9293 551.286,-40.6326"/>
</g>
<!-- Thread&#45;ConsumerHelper&#45;CallbackRequestsWorker -->
<g id="node7" class="node"><title>Thread&#45;ConsumerHelper&#45;CallbackRequestsWorker</title>
<ellipse fill="none" stroke="black" cx="866.042" cy="-178" rx="164.371" ry="18"/>
<text text-anchor="middle" x="866.042" y="-174.3" font-family="Times,serif" font-size="14.00">ConsumerHelper&#45;CallbackRequestsWorker</text>
</g>
<!-- Thread&#45;ConsumerHelper&#45;CallbackRequestsWorker&#45;&gt;Thread&#45;ConsumerHelper&#45;ConsumeBidirectionalStream+ -->
<g id="edge6" class="edge"><title>Thread&#45;ConsumerHelper&#45;CallbackRequestsWorker&#45;&gt;Thread&#45;ConsumerHelper&#45;ConsumeBidirectionalStream+</title>
<path fill="none" stroke="black" d="M782.194,-162.485C695.734,-147.517 561.12,-124.213 470.594,-108.542"/>
<polygon fill="black" stroke="black" points="471.055,-105.069 460.604,-106.812 469.861,-111.967 471.055,-105.069"/>
</g>
<!-- Thread&#45;ConsumerHelper&#45;CallbackRequestsWorker+ -->
<g id="node8" class="node"><title>Thread&#45;ConsumerHelper&#45;CallbackRequestsWorker+</title>
<ellipse fill="none" stroke="black" cx="736.042" cy="-91" rx="164.371" ry="18"/>
<text text-anchor="middle" x="736.042" y="-87.3" font-family="Times,serif" font-size="14.00">ConsumerHelper&#45;CallbackRequestsWorker</text>
</g>
<!-- Thread&#45;ConsumerHelper&#45;CallbackRequestsWorker&#45;&gt;Thread&#45;ConsumerHelper&#45;CallbackRequestsWorker+ -->
<g id="edge5" class="edge"><title>Thread&#45;ConsumerHelper&#45;CallbackRequestsWorker&#45;&gt;Thread&#45;ConsumerHelper&#45;CallbackRequestsWorker+</title>
<path fill="none" stroke="black" d="M840.358,-160.207C820.369,-147.137 792.433,-128.871 770.501,-114.531"/>
<polygon fill="black" stroke="black" points="772.403,-111.592 762.118,-109.049 768.572,-117.451 772.403,-111.592"/>
</g>
<!-- Thread&#45;LeaseMaintenance+ -->
<g id="node9" class="node"><title>Thread&#45;LeaseMaintenance+</title>
<ellipse fill="none" stroke="black" cx="996.042" cy="-91" rx="77.1866" ry="18"/>
<text text-anchor="middle" x="996.042" y="-87.3" font-family="Times,serif" font-size="14.00">LeaseMaintenance</text>
</g>
<!-- Thread&#45;ConsumerHelper&#45;CallbackRequestsWorker&#45;&gt;Thread&#45;LeaseMaintenance+ -->
<g id="edge7" class="edge"><title>Thread&#45;ConsumerHelper&#45;CallbackRequestsWorker&#45;&gt;Thread&#45;LeaseMaintenance+</title>
<path fill="none" stroke="black" d="M891.726,-160.207C912.107,-146.881 940.749,-128.153 962.866,-113.692"/>
<polygon fill="black" stroke="black" points="964.839,-116.584 971.294,-108.182 961.009,-110.725 964.839,-116.584"/>
</g>
<!-- Thread&#45;ConsumerHelper&#45;ConsumeBidirectionalStream -->
<g id="node10" class="node"><title>Thread&#45;ConsumerHelper&#45;ConsumeBidirectionalStream</title>
<ellipse fill="none" stroke="black" cx="1413.04" cy="-178" rx="178.969" ry="18"/>
<text text-anchor="middle" x="1413.04" y="-174.3" font-family="Times,serif" font-size="14.00">ConsumerHelper&#45;ConsumeBidirectionalStream</text>
</g>
<!-- Thread&#45;gRPC&#45;PluginGetMetadata++ -->
<g id="node11" class="node"><title>Thread&#45;gRPC&#45;PluginGetMetadata++</title>
<ellipse fill="none" stroke="black" cx="1195.04" cy="-91" rx="103.182" ry="18"/>
<text text-anchor="middle" x="1195.04" y="-87.3" font-family="Times,serif" font-size="14.00">gRPC&#45;PluginGetMetadata</text>
</g>
<!-- Thread&#45;ConsumerHelper&#45;ConsumeBidirectionalStream&#45;&gt;Thread&#45;gRPC&#45;PluginGetMetadata++ -->
<g id="edge8" class="edge"><title>Thread&#45;ConsumerHelper&#45;ConsumeBidirectionalStream&#45;&gt;Thread&#45;gRPC&#45;PluginGetMetadata++</title>
<path fill="none" stroke="black" d="M1370.75,-160.51C1334.68,-146.446 1282.77,-126.208 1244.73,-111.374"/>
<polygon fill="black" stroke="black" points="1245.96,-108.098 1235.37,-107.726 1243.42,-114.619 1245.96,-108.098"/>
</g>
<!-- Thread&#45;gRPC&#45;StopChannelSpin -->
<g id="node12" class="node"><title>Thread&#45;gRPC&#45;StopChannelSpin</title>
<ellipse fill="none" stroke="black" cx="1413.04" cy="-91" rx="96.3833" ry="18"/>
<text text-anchor="middle" x="1413.04" y="-87.3" font-family="Times,serif" font-size="14.00">gRPC&#45;StopChannelSpin</text>
</g>
<!-- Thread&#45;ConsumerHelper&#45;ConsumeBidirectionalStream&#45;&gt;Thread&#45;gRPC&#45;StopChannelSpin -->
<g id="edge9" class="edge"><title>Thread&#45;ConsumerHelper&#45;ConsumeBidirectionalStream&#45;&gt;Thread&#45;gRPC&#45;StopChannelSpin</title>
<path fill="none" stroke="black" d="M1413.04,-159.799C1413.04,-148.163 1413.04,-132.548 1413.04,-119.237"/>
<polygon fill="black" stroke="black" points="1416.54,-119.175 1413.04,-109.175 1409.54,-119.175 1416.54,-119.175"/>
</g>
<!-- Thread&#45;gRPC&#45;ConsumeRequestIterator -->
<g id="node13" class="node"><title>Thread&#45;gRPC&#45;ConsumeRequestIterator</title>
<ellipse fill="none" stroke="black" cx="1649.04" cy="-91" rx="122.379" ry="18"/>
<text text-anchor="middle" x="1649.04" y="-87.3" font-family="Times,serif" font-size="14.00">gRPC&#45;ConsumeRequestIterator</text>
</g>
<!-- Thread&#45;ConsumerHelper&#45;ConsumeBidirectionalStream&#45;&gt;Thread&#45;gRPC&#45;ConsumeRequestIterator -->
<g id="edge10" class="edge"><title>Thread&#45;ConsumerHelper&#45;ConsumeBidirectionalStream&#45;&gt;Thread&#45;gRPC&#45;ConsumeRequestIterator</title>
<path fill="none" stroke="black" d="M1458.83,-160.51C1497.91,-146.431 1554.18,-126.165 1595.38,-111.327"/>
<polygon fill="black" stroke="black" points="1596.76,-114.55 1604.98,-107.868 1594.39,-107.964 1596.76,-114.55"/>
</g>
<!-- ThreadPoolExecutor&#45;SubscriberPolicy -->
<g id="node14" class="node"><title>ThreadPoolExecutor&#45;SubscriberPolicy</title>
<ellipse fill="none" stroke="black" cx="1935.04" cy="-91" rx="146.474" ry="18"/>
<text text-anchor="middle" x="1935.04" y="-87.3" font-family="Times,serif" font-size="14.00">ThreadPoolExecutor&#45;SubscriberPolicy</text>
</g>
<!-- Thread&#45;ConsumerHelper&#45;ConsumeBidirectionalStream&#45;&gt;ThreadPoolExecutor&#45;SubscriberPolicy -->
<g id="edge11" class="edge"><title>Thread&#45;ConsumerHelper&#45;ConsumeBidirectionalStream&#45;&gt;ThreadPoolExecutor&#45;SubscriberPolicy</title>
<path fill="none" stroke="black" d="M1502.78,-162.388C1597.09,-147.03 1744.83,-122.974 1840.8,-107.346"/>
<polygon fill="black" stroke="black" points="1841.48,-110.781 1850.79,-105.719 1840.36,-103.872 1841.48,-110.781"/>
<text text-anchor="middle" x="1713.04" y="-130.8" font-family="Times,serif" font-size="14.00">10</text>
</g>
<!-- Thread&#45;MonitorBatchPublisher -->
<g id="node15" class="node"><title>Thread&#45;MonitorBatchPublisher</title>
<ellipse fill="none" stroke="black" cx="2193.04" cy="-91" rx="93.6835" ry="18"/>
<text text-anchor="middle" x="2193.04" y="-87.3" font-family="Times,serif" font-size="14.00">MonitorBatchPublisher</text>
</g>
<!-- Thread&#45;gRPC&#45;PluginGetMetadata+++ -->
<g id="node16" class="node"><title>Thread&#45;gRPC&#45;PluginGetMetadata+++</title>
<ellipse fill="none" stroke="black" cx="2193.04" cy="-18" rx="103.182" ry="18"/>
<text text-anchor="middle" x="2193.04" y="-14.3" font-family="Times,serif" font-size="14.00">gRPC&#45;PluginGetMetadata</text>
</g>
<!-- Thread&#45;MonitorBatchPublisher&#45;&gt;Thread&#45;gRPC&#45;PluginGetMetadata+++ -->
<g id="edge12" class="edge"><title>Thread&#45;MonitorBatchPublisher&#45;&gt;Thread&#45;gRPC&#45;PluginGetMetadata+++</title>
<path fill="none" stroke="black" d="M2193.04,-72.8129C2193.04,-64.7895 2193.04,-55.0475 2193.04,-46.0691"/>
<polygon fill="black" stroke="black" points="2196.54,-46.0288 2193.04,-36.0288 2189.54,-46.0289 2196.54,-46.0288"/>
</g>
<!-- Thread&#45;ReproPublish -->
<g id="node17" class="node"><title>Thread&#45;ReproPublish</title>
<ellipse fill="none" stroke="black" cx="1668.04" cy="-178" rx="58.4896" ry="18"/>
<text text-anchor="middle" x="1668.04" y="-174.3" font-family="Times,serif" font-size="14.00">ReproPublish</text>
</g>
<!-- Thread&#45;ReproPublish&#45;&gt;Thread&#45;MonitorBatchPublisher -->
<g id="edge13" class="edge"><title>Thread&#45;ReproPublish&#45;&gt;Thread&#45;MonitorBatchPublisher</title>
<path fill="none" stroke="black" d="M1710.7,-165.631C1719.07,-163.6 1727.8,-161.619 1736.04,-160 1892.02,-129.35 1932.95,-133.277 2090.04,-109 2098.15,-107.747 2106.62,-106.405 2115.05,-105.045"/>
<polygon fill="black" stroke="black" points="2115.62,-108.5 2124.93,-103.445 2114.5,-101.59 2115.62,-108.5"/>
<text text-anchor="middle" x="1965.54" y="-130.8" font-family="Times,serif" font-size="14.00">133</text>
</g>
<!-- MainThread -->
<g id="node18" class="node"><title>MainThread</title>
<ellipse fill="none" stroke="black" cx="1668.04" cy="-265" rx="54.6905" ry="18"/>
<text text-anchor="middle" x="1668.04" y="-261.3" font-family="Times,serif" font-size="14.00">MainThread</text>
</g>
<!-- MainThread&#45;&gt;Thread&#45;gRPC&#45;SubscribeMoot -->
<g id="edge14" class="edge"><title>MainThread&#45;&gt;Thread&#45;gRPC&#45;SubscribeMoot</title>
<path fill="none" stroke="black" d="M1614.79,-260.746C1405.8,-247.975 640.012,-201.18 371.133,-184.75"/>
<polygon fill="black" stroke="black" points="371.204,-181.248 361.009,-184.131 370.777,-188.234 371.204,-181.248"/>
</g>
<!-- MainThread&#45;&gt;Thread&#45;ConsumerHelper&#45;CallbackRequestsWorker -->
<g id="edge17" class="edge"><title>MainThread&#45;&gt;Thread&#45;ConsumerHelper&#45;CallbackRequestsWorker</title>
<path fill="none" stroke="black" d="M1616.96,-258.586C1492.09,-245.352 1168.56,-211.063 989.609,-192.096"/>
<polygon fill="black" stroke="black" points="989.929,-188.611 979.616,-191.037 989.192,-195.572 989.929,-188.611"/>
</g>
<!-- MainThread&#45;&gt;Thread&#45;ConsumerHelper&#45;ConsumeBidirectionalStream -->
<g id="edge18" class="edge"><title>MainThread&#45;&gt;Thread&#45;ConsumerHelper&#45;ConsumeBidirectionalStream</title>
<path fill="none" stroke="black" d="M1630.96,-251.64C1589.26,-237.741 1520.98,-214.98 1471.96,-198.639"/>
<polygon fill="black" stroke="black" points="1473.02,-195.302 1462.42,-195.46 1470.8,-201.943 1473.02,-195.302"/>
</g>
<!-- MainThread&#45;&gt;Thread&#45;ReproPublish -->
<g id="edge20" class="edge"><title>MainThread&#45;&gt;Thread&#45;ReproPublish</title>
<path fill="none" stroke="black" d="M1668.04,-246.799C1668.04,-235.163 1668.04,-219.548 1668.04,-206.237"/>
<polygon fill="black" stroke="black" points="1671.54,-206.175 1668.04,-196.175 1664.54,-206.175 1671.54,-206.175"/>
</g>
<!-- Thread&#45;gRPC&#45;SubscribeMoot+ -->
<g id="node19" class="node"><title>Thread&#45;gRPC&#45;SubscribeMoot+</title>
<ellipse fill="none" stroke="black" cx="1834.04" cy="-178" rx="89.0842" ry="18"/>
<text text-anchor="middle" x="1834.04" y="-174.3" font-family="Times,serif" font-size="14.00">gRPC&#45;SubscribeMoot</text>
</g>
<!-- MainThread&#45;&gt;Thread&#45;gRPC&#45;SubscribeMoot+ -->
<g id="edge15" class="edge"><title>MainThread&#45;&gt;Thread&#45;gRPC&#45;SubscribeMoot+</title>
<path fill="none" stroke="black" d="M1696.58,-249.388C1723.38,-235.666 1763.74,-214.999 1793.8,-199.605"/>
<polygon fill="black" stroke="black" points="1795.47,-202.683 1802.78,-195.01 1792.28,-196.453 1795.47,-202.683"/>
</g>
<!-- Thread&#45;gRPC&#45;PluginGetMetadata -->
<g id="node20" class="node"><title>Thread&#45;gRPC&#45;PluginGetMetadata</title>
<ellipse fill="none" stroke="black" cx="2044.04" cy="-178" rx="103.182" ry="18"/>
<text text-anchor="middle" x="2044.04" y="-174.3" font-family="Times,serif" font-size="14.00">gRPC&#45;PluginGetMetadata</text>
</g>
<!-- MainThread&#45;&gt;Thread&#45;gRPC&#45;PluginGetMetadata -->
<g id="edge16" class="edge"><title>MainThread&#45;&gt;Thread&#45;gRPC&#45;PluginGetMetadata</title>
<path fill="none" stroke="black" d="M1711.91,-254.083C1776.24,-239.54 1896.85,-212.275 1973.66,-194.91"/>
<polygon fill="black" stroke="black" points="1974.76,-198.252 1983.74,-192.633 1973.21,-191.424 1974.76,-198.252"/>
<text text-anchor="middle" x="1882.54" y="-217.8" font-family="Times,serif" font-size="14.00">4</text>
</g>
<!-- Thread&#45;LeaseMaintenance -->
<g id="node21" class="node"><title>Thread&#45;LeaseMaintenance</title>
<ellipse fill="none" stroke="black" cx="2243.04" cy="-178" rx="77.1866" ry="18"/>
<text text-anchor="middle" x="2243.04" y="-174.3" font-family="Times,serif" font-size="14.00">LeaseMaintenance</text>
</g>
<!-- MainThread&#45;&gt;Thread&#45;LeaseMaintenance -->
<g id="edge19" class="edge"><title>MainThread&#45;&gt;Thread&#45;LeaseMaintenance</title>
<path fill="none" stroke="black" d="M1718.41,-257.901C1807.09,-246.959 1996.8,-222.633 2156.04,-196 2162.77,-194.874 2169.78,-193.628 2176.77,-192.338"/>
<polygon fill="black" stroke="black" points="2177.78,-195.71 2186.96,-190.424 2176.49,-188.83 2177.78,-195.71"/>
</g>
</g>
</svg>
