<?xml version="1.0" encoding="UTF-8" standalone="no"?>
<!DOCTYPE svg PUBLIC "-//W3C//DTD SVG 1.1//EN"
 "http://www.w3.org/Graphics/SVG/1.1/DTD/svg11.dtd">
<!-- Generated by graphviz version 2.38.0 (20140413.2041)
 -->
<!-- Title: G Pages: 1 -->
<svg width="1207pt" height="530pt"
 viewBox="0.00 0.00 1206.51 530.00" xmlns="http://www.w3.org/2000/svg" xmlns:xlink="http://www.w3.org/1999/xlink">
<g id="graph0" class="graph" transform="scale(1 1) rotate(0) translate(4 526)">
<title>G</title>
<polygon fill="white" stroke="none" points="-4,4 -4,-526 1202.51,-526 1202.51,4 -4,4"/>
<!-- Thread&#45;gRPC&#45;SubscribeMoot+ -->
<g id="node1" class="node"><title>Thread&#45;gRPC&#45;SubscribeMoot+</title>
<ellipse fill="none" stroke="black" cx="330.924" cy="-464" rx="89.0842" ry="18"/>
<text text-anchor="middle" x="330.924" y="-460.3" font-family="Times,serif" font-size="14.00">gRPC&#45;SubscribeMoot</text>
</g>
<!-- Thread&#45;gRPC&#45;SpawnDelivery -->
<g id="node2" class="node"><title>Thread&#45;gRPC&#45;SpawnDelivery</title>
<ellipse fill="none" stroke="black" cx="738.393" cy="-504" rx="89.0842" ry="18"/>
<text text-anchor="middle" x="738.393" y="-500.3" font-family="Times,serif" font-size="14.00">gRPC&#45;SpawnDelivery</text>
</g>
<!-- Thread&#45;gRPC&#45;SubscribeMoot+&#45;&gt;Thread&#45;gRPC&#45;SpawnDelivery -->
<g id="edge1" class="edge"><title>Thread&#45;gRPC&#45;SubscribeMoot+&#45;&gt;Thread&#45;gRPC&#45;SpawnDelivery</title>
<path fill="none" stroke="black" d="M411.548,-471.855C479.473,-478.556 577.07,-488.184 647.728,-495.154"/>
<polygon fill="black" stroke="black" points="647.656,-498.664 657.951,-496.163 648.343,-491.698 647.656,-498.664"/>
</g>
<!-- Thread&#45;ConsumerHelper&#45;ConsumeBidirectionalStream+ -->
<g id="node3" class="node"><title>Thread&#45;ConsumerHelper&#45;ConsumeBidirectionalStream+</title>
<ellipse fill="none" stroke="black" cx="738.393" cy="-450" rx="178.969" ry="18"/>
<text text-anchor="middle" x="738.393" y="-446.3" font-family="Times,serif" font-size="14.00">ConsumerHelper&#45;ConsumeBidirectionalStream</text>
</g>
<!-- Thread&#45;gRPC&#45;PluginGetMetadata++++++++++++++++++++++++++++++++++++++++++ -->
<g id="node4" class="node"><title>Thread&#45;gRPC&#45;PluginGetMetadata++++++++++++++++++++++++++++++++++++++++++</title>
<ellipse fill="none" stroke="black" cx="1076.32" cy="-504" rx="103.182" ry="18"/>
<text text-anchor="middle" x="1076.32" y="-500.3" font-family="Times,serif" font-size="14.00">gRPC&#45;PluginGetMetadata</text>
</g>
<!-- Thread&#45;ConsumerHelper&#45;ConsumeBidirectionalStream+&#45;&gt;Thread&#45;gRPC&#45;PluginGetMetadata++++++++++++++++++++++++++++++++++++++++++ -->
<g id="edge2" class="edge"><title>Thread&#45;ConsumerHelper&#45;ConsumeBidirectionalStream+&#45;&gt;Thread&#45;gRPC&#45;PluginGetMetadata++++++++++++++++++++++++++++++++++++++++++</title>
<path fill="none" stroke="black" d="M839.551,-464.887C864.878,-468.742 892.015,-472.95 917.127,-477 941.664,-480.957 968.309,-485.435 992.614,-489.591"/>
<polygon fill="black" stroke="black" points="992.068,-493.048 1002.52,-491.288 993.25,-486.149 992.068,-493.048"/>
</g>
<!-- Thread&#45;gRPC&#45;StopChannelSpin+ -->
<g id="node5" class="node"><title>Thread&#45;gRPC&#45;StopChannelSpin+</title>
<ellipse fill="none" stroke="black" cx="1076.32" cy="-450" rx="96.3833" ry="18"/>
<text text-anchor="middle" x="1076.32" y="-446.3" font-family="Times,serif" font-size="14.00">gRPC&#45;StopChannelSpin</text>
</g>
<!-- Thread&#45;ConsumerHelper&#45;ConsumeBidirectionalStream+&#45;&gt;Thread&#45;gRPC&#45;StopChannelSpin+ -->
<g id="edge3" class="edge"><title>Thread&#45;ConsumerHelper&#45;ConsumeBidirectionalStream+&#45;&gt;Thread&#45;gRPC&#45;StopChannelSpin+</title>
<path fill="none" stroke="black" d="M917.191,-450C935.046,-450 952.752,-450 969.499,-450"/>
<polygon fill="black" stroke="black" points="969.795,-453.5 979.795,-450 969.795,-446.5 969.795,-453.5"/>
</g>
<!-- Thread&#45;gRPC&#45;ConsumeRequestIterator+ -->
<g id="node6" class="node"><title>Thread&#45;gRPC&#45;ConsumeRequestIterator+</title>
<ellipse fill="none" stroke="black" cx="1076.32" cy="-396" rx="122.379" ry="18"/>
<text text-anchor="middle" x="1076.32" y="-392.3" font-family="Times,serif" font-size="14.00">gRPC&#45;ConsumeRequestIterator</text>
</g>
<!-- Thread&#45;ConsumerHelper&#45;ConsumeBidirectionalStream+&#45;&gt;Thread&#45;gRPC&#45;ConsumeRequestIterator+ -->
<g id="edge4" class="edge"><title>Thread&#45;ConsumerHelper&#45;ConsumeBidirectionalStream+&#45;&gt;Thread&#45;gRPC&#45;ConsumeRequestIterator+</title>
<path fill="none" stroke="black" d="M839.551,-435.113C864.878,-431.258 892.015,-427.05 917.127,-423 939.649,-419.368 963.947,-415.297 986.581,-411.439"/>
<polygon fill="black" stroke="black" points="987.242,-414.877 996.509,-409.743 986.063,-407.977 987.242,-414.877"/>
</g>
<!-- Thread&#45;ConsumerHelper&#45;CallbackRequestsWorker -->
<g id="node7" class="node"><title>Thread&#45;ConsumerHelper&#45;CallbackRequestsWorker</title>
<ellipse fill="none" stroke="black" cx="330.924" cy="-369" rx="164.371" ry="18"/>
<text text-anchor="middle" x="330.924" y="-365.3" font-family="Times,serif" font-size="14.00">ConsumerHelper&#45;CallbackRequestsWorker</text>
</g>
<!-- Thread&#45;ConsumerHelper&#45;CallbackRequestsWorker&#45;&gt;Thread&#45;ConsumerHelper&#45;ConsumeBidirectionalStream+ -->
<g id="edge6" class="edge"><title>Thread&#45;ConsumerHelper&#45;CallbackRequestsWorker&#45;&gt;Thread&#45;ConsumerHelper&#45;ConsumeBidirectionalStream+</title>
<path fill="none" stroke="black" d="M395.916,-385.658C441.39,-397.131 504.014,-412.195 559.659,-423 579.892,-426.929 601.515,-430.628 622.463,-433.953"/>
<polygon fill="black" stroke="black" points="621.935,-437.413 632.357,-435.505 623.02,-430.498 621.935,-437.413"/>
</g>
<!-- Thread&#45;ConsumerHelper&#45;CallbackRequestsWorker+ -->
<g id="node8" class="node"><title>Thread&#45;ConsumerHelper&#45;CallbackRequestsWorker+</title>
<ellipse fill="none" stroke="black" cx="738.393" cy="-396" rx="164.371" ry="18"/>
<text text-anchor="middle" x="738.393" y="-392.3" font-family="Times,serif" font-size="14.00">ConsumerHelper&#45;CallbackRequestsWorker</text>
</g>
<!-- Thread&#45;ConsumerHelper&#45;CallbackRequestsWorker&#45;&gt;Thread&#45;ConsumerHelper&#45;CallbackRequestsWorker+ -->
<g id="edge5" class="edge"><title>Thread&#45;ConsumerHelper&#45;CallbackRequestsWorker&#45;&gt;Thread&#45;ConsumerHelper&#45;CallbackRequestsWorker+</title>
<path fill="none" stroke="black" d="M471.747,-378.311C509.059,-380.795 549.526,-383.49 587.362,-386.01"/>
<polygon fill="black" stroke="black" points="587.228,-389.508 597.438,-386.68 587.693,-382.524 587.228,-389.508"/>
</g>
<!-- Thread&#45;LeaseMaintenance+ -->
<g id="node9" class="node"><title>Thread&#45;LeaseMaintenance+</title>
<ellipse fill="none" stroke="black" cx="738.393" cy="-342" rx="77.1866" ry="18"/>
<text text-anchor="middle" x="738.393" y="-338.3" font-family="Times,serif" font-size="14.00">LeaseMaintenance</text>
</g>
<!-- Thread&#45;ConsumerHelper&#45;CallbackRequestsWorker&#45;&gt;Thread&#45;LeaseMaintenance+ -->
<g id="edge7" class="edge"><title>Thread&#45;ConsumerHelper&#45;CallbackRequestsWorker&#45;&gt;Thread&#45;LeaseMaintenance+</title>
<path fill="none" stroke="black" d="M471.747,-359.689C532.287,-355.658 601.134,-351.073 653.568,-347.582"/>
<polygon fill="black" stroke="black" points="654.083,-351.055 663.829,-346.899 653.618,-344.071 654.083,-351.055"/>
</g>
<!-- Thread&#45;ConsumerHelper&#45;ConsumeBidirectionalStream -->
<g id="node10" class="node"><title>Thread&#45;ConsumerHelper&#45;ConsumeBidirectionalStream</title>
<ellipse fill="none" stroke="black" cx="330.924" cy="-234" rx="178.969" ry="18"/>
<text text-anchor="middle" x="330.924" y="-230.3" font-family="Times,serif" font-size="14.00">ConsumerHelper&#45;ConsumeBidirectionalStream</text>
</g>
<!-- Thread&#45;gRPC&#45;PluginGetMetadata++ -->
<g id="node11" class="node"><title>Thread&#45;gRPC&#45;PluginGetMetadata++</title>
<ellipse fill="none" stroke="black" cx="738.393" cy="-288" rx="103.182" ry="18"/>
<text text-anchor="middle" x="738.393" y="-284.3" font-family="Times,serif" font-size="14.00">gRPC&#45;PluginGetMetadata</text>
</g>
<!-- Thread&#45;ConsumerHelper&#45;ConsumeBidirectionalStream&#45;&gt;Thread&#45;gRPC&#45;PluginGetMetadata++ -->
<g id="edge8" class="edge"><title>Thread&#45;ConsumerHelper&#45;ConsumeBidirectionalStream&#45;&gt;Thread&#45;gRPC&#45;PluginGetMetadata++</title>
<path fill="none" stroke="black" d="M439.518,-248.329C503.746,-256.883 584.449,-267.631 645.648,-275.782"/>
<polygon fill="black" stroke="black" points="645.307,-279.267 655.681,-277.118 646.231,-272.328 645.307,-279.267"/>
</g>
<!-- Thread&#45;gRPC&#45;StopChannelSpin -->
<g id="node12" class="node"><title>Thread&#45;gRPC&#45;StopChannelSpin</title>
<ellipse fill="none" stroke="black" cx="738.393" cy="-234" rx="96.3833" ry="18"/>
<text text-anchor="middle" x="738.393" y="-230.3" font-family="Times,serif" font-size="14.00">gRPC&#45;StopChannelSpin</text>
</g>
<!-- Thread&#45;ConsumerHelper&#45;ConsumeBidirectionalStream&#45;&gt;Thread&#45;gRPC&#45;StopChannelSpin -->
<g id="edge9" class="edge"><title>Thread&#45;ConsumerHelper&#45;ConsumeBidirectionalStream&#45;&gt;Thread&#45;gRPC&#45;StopChannelSpin</title>
<path fill="none" stroke="black" d="M509.769,-234C551.391,-234 594.434,-234 631.737,-234"/>
<polygon fill="black" stroke="black" points="632.1,-237.5 642.1,-234 632.1,-230.5 632.1,-237.5"/>
</g>
<!-- Thread&#45;gRPC&#45;ConsumeRequestIterator -->
<g id="node13" class="node"><title>Thread&#45;gRPC&#45;ConsumeRequestIterator</title>
<ellipse fill="none" stroke="black" cx="738.393" cy="-180" rx="122.379" ry="18"/>
<text text-anchor="middle" x="738.393" y="-176.3" font-family="Times,serif" font-size="14.00">gRPC&#45;ConsumeRequestIterator</text>
</g>
<!-- Thread&#45;ConsumerHelper&#45;ConsumeBidirectionalStream&#45;&gt;Thread&#45;gRPC&#45;ConsumeRequestIterator -->
<g id="edge10" class="edge"><title>Thread&#45;ConsumerHelper&#45;ConsumeBidirectionalStream&#45;&gt;Thread&#45;gRPC&#45;ConsumeRequestIterator</title>
<path fill="none" stroke="black" d="M439.518,-219.671C500.73,-211.519 576.907,-201.373 636.903,-193.383"/>
<polygon fill="black" stroke="black" points="637.696,-196.809 647.147,-192.019 636.772,-189.87 637.696,-196.809"/>
</g>
<!-- ThreadPoolExecutor&#45;SubscriberPolicy -->
<g id="node14" class="node"><title>ThreadPoolExecutor&#45;SubscriberPolicy</title>
<ellipse fill="none" stroke="black" cx="738.393" cy="-126" rx="146.474" ry="18"/>
<text text-anchor="middle" x="738.393" y="-122.3" font-family="Times,serif" font-size="14.00">ThreadPoolExecutor&#45;SubscriberPolicy</text>
</g>
<!-- Thread&#45;ConsumerHelper&#45;ConsumeBidirectionalStream&#45;&gt;ThreadPoolExecutor&#45;SubscriberPolicy -->
<g id="edge11" class="edge"><title>Thread&#45;ConsumerHelper&#45;ConsumeBidirectionalStream&#45;&gt;ThreadPoolExecutor&#45;SubscriberPolicy</title>
<path fill="none" stroke="black" d="M469.822,-222.612C483.71,-218.675 497.249,-213.576 509.659,-207 513.271,-205.086 556.046,-154.914 559.659,-153 572.206,-146.351 585.908,-141.212 599.958,-137.257"/>
<polygon fill="black" stroke="black" points="600.94,-140.618 609.73,-134.704 599.17,-133.845 600.94,-140.618"/>
<text text-anchor="middle" x="534.659" y="-190.8" font-family="Times,serif" font-size="14.00">10</text>
</g>
<!-- Thread&#45;MonitorBatchPublisher -->
<g id="node15" class="node"><title>Thread&#45;MonitorBatchPublisher</title>
<ellipse fill="none" stroke="black" cx="738.393" cy="-72" rx="93.6835" ry="18"/>
<text text-anchor="middle" x="738.393" y="-68.3" font-family="Times,serif" font-size="14.00">MonitorBatchPublisher</text>
</g>
<!-- Thread&#45;gRPC&#45;PluginGetMetadata+++ -->
<g id="node16" class="node"><title>Thread&#45;gRPC&#45;PluginGetMetadata+++</title>
<ellipse fill="none" stroke="black" cx="1076.32" cy="-72" rx="103.182" ry="18"/>
<text text-anchor="middle" x="1076.32" y="-68.3" font-family="Times,serif" font-size="14.00">gRPC&#45;PluginGetMetadata</text>
</g>
<!-- Thread&#45;MonitorBatchPublisher&#45;&gt;Thread&#45;gRPC&#45;PluginGetMetadata+++ -->
<g id="edge12" class="edge"><title>Thread&#45;MonitorBatchPublisher&#45;&gt;Thread&#45;gRPC&#45;PluginGetMetadata+++</title>
<path fill="none" stroke="black" d="M832.074,-72C872.527,-72 920.325,-72 962.796,-72"/>
<polygon fill="black" stroke="black" points="962.901,-75.5001 972.901,-72 962.901,-68.5001 962.901,-75.5001"/>
</g>
<!-- Thread&#45;ReproPublish -->
<g id="node17" class="node"><title>Thread&#45;ReproPublish</title>
<ellipse fill="none" stroke="black" cx="330.924" cy="-180" rx="58.4896" ry="18"/>
<text text-anchor="middle" x="330.924" y="-176.3" font-family="Times,serif" font-size="14.00">ReproPublish</text>
</g>
<!-- Thread&#45;ReproPublish&#45;&gt;Thread&#45;MonitorBatchPublisher -->
<g id="edge13" class="edge"><title>Thread&#45;ReproPublish&#45;&gt;Thread&#45;MonitorBatchPublisher</title>
<path fill="none" stroke="black" d="M389.369,-180.791C425.74,-179.063 472.704,-172.583 509.659,-153 538.56,-137.685 530.758,-114.315 559.659,-99 582.544,-86.8726 609.268,-79.7704 634.938,-75.7099"/>
<polygon fill="black" stroke="black" points="635.694,-79.1373 645.093,-74.249 634.697,-72.2087 635.694,-79.1373"/>
<text text-anchor="middle" x="534.659" y="-140.8" font-family="Times,serif" font-size="14.00">81</text>
</g>
<!-- MainThread -->
<g id="node18" class="node"><title>MainThread</title>
<ellipse fill="none" stroke="black" cx="54.5952" cy="-180" rx="54.6905" ry="18"/>
<text text-anchor="middle" x="54.5952" y="-176.3" font-family="Times,serif" font-size="14.00">MainThread</text>
</g>
<!-- MainThread&#45;&gt;Thread&#45;gRPC&#45;SubscribeMoot+ -->
<g id="edge15" class="edge"><title>MainThread&#45;&gt;Thread&#45;gRPC&#45;SubscribeMoot+</title>
<path fill="none" stroke="black" d="M58.8117,-198.072C66.9996,-238.957 92.3681,-339.387 152.19,-396 180.375,-422.673 220.112,-439.185 254.867,-449.245"/>
<polygon fill="black" stroke="black" points="253.953,-452.623 264.524,-451.914 255.818,-445.876 253.953,-452.623"/>
</g>
<!-- MainThread&#45;&gt;Thread&#45;ConsumerHelper&#45;CallbackRequestsWorker -->
<g id="edge17" class="edge"><title>MainThread&#45;&gt;Thread&#45;ConsumerHelper&#45;CallbackRequestsWorker</title>
<path fill="none" stroke="black" d="M74.1516,-197.022C93.1123,-214.059 123.73,-240.599 152.19,-261 197.099,-293.191 251.828,-325.488 288.589,-346.262"/>
<polygon fill="black" stroke="black" points="287.099,-349.439 297.531,-351.288 290.529,-343.337 287.099,-349.439"/>
</g>
<!-- MainThread&#45;&gt;Thread&#45;ConsumerHelper&#45;ConsumeBidirectionalStream -->
<g id="edge18" class="edge"><title>MainThread&#45;&gt;Thread&#45;ConsumerHelper&#45;ConsumeBidirectionalStream</title>
<path fill="none" stroke="black" d="M95.2707,-192.266C112.623,-197.324 133.293,-202.939 152.19,-207 171.246,-211.095 191.582,-214.798 211.438,-218.058"/>
<polygon fill="black" stroke="black" points="211.024,-221.536 221.453,-219.672 212.137,-214.626 211.024,-221.536"/>
</g>
<!-- MainThread&#45;&gt;Thread&#45;ReproPublish -->
<g id="edge20" class="edge"><title>MainThread&#45;&gt;Thread&#45;ReproPublish</title>
<path fill="none" stroke="black" d="M109.466,-180C153.224,-180 215.181,-180 262.277,-180"/>
<polygon fill="black" stroke="black" points="262.391,-183.5 272.391,-180 262.391,-176.5 262.391,-183.5"/>
</g>
<!-- Thread&#45;gRPC&#45;SubscribeMoot -->
<g id="node19" class="node"><title>Thread&#45;gRPC&#45;SubscribeMoot</title>
<ellipse fill="none" stroke="black" cx="330.924" cy="-126" rx="89.0842" ry="18"/>
<text text-anchor="middle" x="330.924" y="-122.3" font-family="Times,serif" font-size="14.00">gRPC&#45;SubscribeMoot</text>
</g>
<!-- MainThread&#45;&gt;Thread&#45;gRPC&#45;SubscribeMoot -->
<g id="edge14" class="edge"><title>MainThread&#45;&gt;Thread&#45;gRPC&#45;SubscribeMoot</title>
<path fill="none" stroke="black" d="M95.2707,-167.734C112.623,-162.676 133.293,-157.061 152.19,-153 182.079,-146.578 215.116,-141.117 244.516,-136.823"/>
<polygon fill="black" stroke="black" points="245.352,-140.239 254.752,-135.353 244.356,-133.31 245.352,-140.239"/>
</g>
<!-- Thread&#45;gRPC&#45;PluginGetMetadata -->
<g id="node20" class="node"><title>Thread&#45;gRPC&#45;PluginGetMetadata</title>
<ellipse fill="none" stroke="black" cx="330.924" cy="-72" rx="103.182" ry="18"/>
<text text-anchor="middle" x="330.924" y="-68.3" font-family="Times,serif" font-size="14.00">gRPC&#45;PluginGetMetadata</text>
</g>
<!-- MainThread&#45;&gt;Thread&#45;gRPC&#45;PluginGetMetadata -->
<g id="edge16" class="edge"><title>MainThread&#45;&gt;Thread&#45;gRPC&#45;PluginGetMetadata</title>
<path fill="none" stroke="black" d="M70.7406,-162.551C88.295,-143.574 119.081,-113.956 152.19,-99 173.718,-89.2753 198.053,-82.9408 221.652,-78.8419"/>
<polygon fill="black" stroke="black" points="222.396,-82.2672 231.711,-77.2187 221.281,-75.3566 222.396,-82.2672"/>
<text text-anchor="middle" x="130.69" y="-115.8" font-family="Times,serif" font-size="14.00">4</text>
</g>
<!-- Thread&#45;LeaseMaintenance -->
<g id="node21" class="node"><title>Thread&#45;LeaseMaintenance</title>
<ellipse fill="none" stroke="black" cx="330.924" cy="-18" rx="77.1866" ry="18"/>
<text text-anchor="middle" x="330.924" y="-14.3" font-family="Times,serif" font-size="14.00">LeaseMaintenance</text>
</g>
<!-- MainThread&#45;&gt;Thread&#45;LeaseMaintenance -->
<g id="edge19" class="edge"><title>MainThread&#45;&gt;Thread&#45;LeaseMaintenance</title>
<path fill="none" stroke="black" d="M62.8528,-162.006C75.8855,-132.225 106.253,-73.1799 152.19,-45 179.199,-28.4315 212.739,-20.7579 243.381,-17.5301"/>
<polygon fill="black" stroke="black" points="244.005,-20.988 253.649,-16.5994 243.373,-14.0166 244.005,-20.988"/>
</g>
</g>
</svg>
